<?xml version="1.0" encoding="UTF-8"?>
<svg id="_レイヤー_2" data-name="レイヤー 2" xmlns="http://www.w3.org/2000/svg" viewBox="0 0 313.92 52.91">
  <defs>
    <style>
      .cls-1 {
        fill: #fff;
      }
    </style>
  </defs>
  <g id="_レイヤー_1-2" data-name="レイヤー 1">
    <g>
      <g>
        <path class="cls-1" d="m198.59,27.42c0,1.44.04,2.92.08,4.43,0,.26.02.69.05,1.28,0,.24.01.38.01.42,0,.09-.05.14-.15.14h-.83c-.1,0-.15-.05-.15-.14,0-.04.01-.36.03-.96.06-1.78.09-3.47.1-5.09-1.13,1.36-2.49,2.51-4.07,3.45-1.25.74-2.73,1.4-4.45,2-.14.05-.23.07-.26.07-.08,0-.16-.09-.25-.27-.12-.22-.27-.4-.46-.55,3.69-1.07,6.63-2.78,8.83-5.12h-2.46l-3.11.04c-.1,0-.15-.05-.15-.15l.04-2.05v-2.96l-.04-2.04c0-.1.05-.15.15-.15l3.11.04h3.07v-2.11h-5.87l-2.82.04c-.11,0-.16-.05-.16-.15v-.68c0-.1.05-.15.16-.15l2.82.04h5.87v-.11c0-1.16-.05-1.99-.15-2.5.33,0,.71.03,1.15.08.18.03.27.09.27.18,0,.06-.02.13-.05.22-.04.09-.07.16-.08.19-.08.26-.13.87-.13,1.82v.11h6.39l2.83-.04c.1,0,.15.05.15.15v.68c0,.1-.05.15-.15.15l-2.83-.04h-6.39v2.11h3.48l3.13-.04c.1,0,.15.05.15.15l-.04,2.04v2.96l.04,2.05c0,.1-.05.15-.15.15l-3.13-.04h-2.96c2.34,2.28,5.56,3.98,9.65,5.1-.2.16-.36.36-.5.62-.1.18-.18.28-.24.28-.03,0-.11-.02-.24-.06-4.07-1.34-7.16-3.21-9.27-5.6Zm-.91-4.49v-2.25h-5.33v2.25h5.33Zm0,.83h-5.33v2.5h5.33v-2.5Zm1-.83h5.76v-2.25h-5.76v2.25Zm0,.83v2.5h5.76v-2.5h-5.76Z"/>
        <path class="cls-1" d="m222.4,20.96c.57,2.46,1.44,4.68,2.63,6.65,1.25,2.12,2.76,3.79,4.54,5-.25.12-.5.3-.72.55-.12.17-.21.25-.27.25-.04,0-.12-.05-.25-.14-1.61-1.27-3.01-2.98-4.21-5.12-1.04-1.85-1.79-3.8-2.24-5.87-1.1,2.56-2.39,4.66-3.85,6.29-1.84,2.1-4.06,3.76-6.65,4.97-.12.06-.2.1-.24.1-.06,0-.15-.09-.25-.27-.1-.17-.29-.35-.58-.54,2.76-1.19,5.09-2.87,6.97-5.02,2.01-2.28,3.54-5.16,4.59-8.62h-5.43c-1.14,2.11-2.62,4.03-4.46,5.74-.11.1-.19.15-.24.15-.06,0-.14-.06-.25-.19-.14-.16-.35-.3-.62-.43,2.7-2.26,4.6-4.97,5.7-8.13.26-.72.41-1.33.46-1.82.36.08.72.2,1.08.34.18.09.26.18.26.27,0,.06-.08.19-.24.39-.12.12-.25.38-.38.76-.28.74-.58,1.41-.88,2.02h4.91c.21,0,.34-.02.41-.06.1-.06.19-.08.29-.08.13,0,.3.1.52.31.25.23.37.4.37.52s-.06.23-.19.32c-.12.08-.23.26-.33.55-.03.07-.11.27-.23.6-.08.21-.15.39-.2.52Z"/>
        <path class="cls-1" d="m238.74,20.55c-.25-.39-.65-.93-1.22-1.62-.04-.05-.05-.08-.05-.1,0-.04.07-.08.21-.15l.3-.15c.1-.06.16-.1.19-.1s.07.02.12.07c.86.93,1.64,2.05,2.37,3.38.02.04.03.08.03.11,0,.05-.07.12-.22.2l-.31.17c-.16.1-.25.15-.28.15-.04,0-.07-.04-.1-.11-.25-.53-.44-.9-.58-1.12-1.85.81-3.9,1.59-6.17,2.37-.27.1-.47.22-.6.35-.08.08-.17.13-.27.13-.07,0-.13-.06-.19-.17-.04-.07-.18-.42-.41-1.05.35-.06.84-.16,1.47-.3l.35-.12-.17-4.47c-.04-1.02-.12-1.78-.24-2.28.43.06.83.19,1.2.38,1.56-.25,3.01-.62,4.36-1.1.4-.15.77-.35,1.09-.6.29.19.54.41.76.65.08.08.13.17.13.27s-.08.15-.23.17c-.15.01-.41.08-.79.19-1.76.59-3.54,1.04-5.35,1.35l.21,5.16c1.63-.55,3.1-1.1,4.39-1.65Zm-3.54,11.8v1.16c0,.1-.05.15-.15.15h-.72c-.1,0-.15-.05-.15-.15l.04-3.91v-1.95l-.04-2.55c0-.1.05-.15.15-.15l3.11.04h7.26l3.13-.04c.1,0,.15.05.15.15l-.04,2.26v2.2l.04,3.88c0,.11-.05.16-.15.16h-.74c-.1,0-.15-.05-.15-.16v-1.08h-11.73Zm5.28-4.17v-2.37h-5.28v2.37h5.28Zm0,.81h-5.28v2.54h5.28v-2.54Zm4.69-12.41c-.08,1.92-.54,3.5-1.38,4.76-.74,1.12-1.81,2.03-3.2,2.75-.15.08-.25.12-.3.12-.06,0-.14-.07-.22-.2-.12-.18-.31-.34-.56-.48,1.67-.75,2.87-1.7,3.6-2.86.66-1.06,1.04-2.42,1.11-4.08h-.41l-2.47.04c-.11,0-.16-.05-.16-.15v-.62c0-.12.05-.18.16-.18l2.47.04h3.17l2.48-.04c.11,0,.17.07.17.2-.01.3-.04.71-.06,1.23-.11,2.77-.31,4.53-.62,5.28-.31.74-.87,1.1-1.67,1.1-.71,0-1.31-.02-1.8-.06-.17-.01-.27-.04-.31-.08-.03-.03-.06-.12-.08-.29-.05-.27-.13-.5-.24-.71.71.13,1.44.19,2.17.19.47,0,.79-.19.98-.56.33-.62.53-2.42.62-5.39h-3.44Zm-3.73,11.61h5.5v-2.37h-5.5v2.37Zm0,.81v2.54h5.5v-2.54h-5.5Z"/>
        <path class="cls-1" d="m261.41,22.29v-5.35c0-1.15-.05-1.98-.15-2.51.38.01.77.05,1.17.11.18.02.26.08.26.17,0,.07-.02.15-.05.24-.04.11-.07.18-.07.21-.09.32-.14.91-.14,1.78v5.35h5.87l2.91-.04c.11,0,.16.05.16.15v.68c0,.1-.05.15-.16.15l-2.91-.04h-5.41c2.29,3.3,5.38,5.78,9.27,7.45-.23.21-.39.43-.5.68-.07.18-.14.28-.2.28-.04,0-.13-.04-.3-.12-3.83-1.99-6.76-4.57-8.77-7.72l.11,9.8c0,.1-.05.15-.15.15h-.85c-.1,0-.15-.05-.15-.15l.11-9.72c-2.06,3.24-4.8,5.77-8.23,7.61-.15.07-.24.11-.29.11-.06,0-.14-.08-.23-.23-.15-.25-.32-.45-.52-.58,1.87-.86,3.64-2.04,5.3-3.54,1.39-1.26,2.54-2.59,3.43-4h-4.97l-2.92.04c-.1,0-.15-.05-.15-.15v-.68c0-.1.05-.15.15-.15l2.92.04h5.47Zm-5.41-5.99c1.03,1.2,1.88,2.47,2.55,3.82.01.04.02.06.02.07,0,.06-.06.12-.19.19l-.37.23c-.16.08-.25.13-.28.13-.04,0-.07-.04-.12-.12-.59-1.29-1.41-2.56-2.45-3.83-.03-.04-.04-.06-.04-.08,0-.04.08-.1.25-.2l.37-.21c.06-.04.11-.06.15-.06.03,0,.06.02.11.06Zm9.3,4.38c1.1-1.38,1.87-2.6,2.32-3.67.14-.31.24-.64.31-.98.43.17.76.32,1,.46.13.08.19.16.19.24,0,.08-.07.16-.21.25-.08.06-.2.22-.35.5-.67,1.28-1.41,2.41-2.22,3.39-.11.13-.19.2-.23.2s-.13-.05-.26-.16c-.18-.13-.36-.22-.54-.24Z"/>
        <path class="cls-1" d="m283.73,22.7h3.75c.17,0,.34-.02.51-.06.08-.03.14-.04.19-.04.11,0,.28.11.5.33.22.21.33.38.33.5,0,.08-.06.17-.19.25s-.26.25-.41.5c-1.17,1.92-2.59,3.55-4.29,4.89,2.14,1.52,5.07,2.71,8.79,3.56-.25.2-.43.43-.54.7-.09.19-.18.29-.25.29-.04,0-.12-.02-.24-.05-3.72-1.03-6.59-2.31-8.6-3.84-2.23,1.6-5.02,2.87-8.38,3.82-.12.04-.2.05-.24.05-.07,0-.15-.1-.23-.29-.12-.26-.29-.47-.5-.62,3.44-.86,6.29-2.07,8.56-3.63-1.63-1.42-2.93-3.24-3.91-5.45l-2.59.04c-.1,0-.15-.05-.15-.15v-.72c0-.08.05-.13.15-.13l3.04.04h3.69v-3.71h-5.41l-2.93.04c-.11,0-.16-.05-.16-.15v-.72c0-.1.05-.15.16-.15l2.93.04h5.41v-1.1c0-1.2-.06-2.06-.17-2.59.48.02.88.06,1.19.13.19.03.29.09.29.18,0,.06-.02.13-.05.22-.05.11-.08.18-.08.2-.1.35-.15.95-.15,1.8v1.16h5.78l2.93-.04c.11,0,.16.05.16.15v.72c0,.1-.05.15-.16.15l-2.93-.04h-5.78v3.71Zm-4.06.91c.9,1.97,2.11,3.58,3.65,4.83,1.7-1.33,3.09-2.94,4.17-4.83h-7.82Z"/>
        <path class="cls-1" d="m304.91,17.07v-1.22c0-.76-.05-1.35-.15-1.76.49.02.86.06,1.12.12.16.02.24.07.24.15,0,.07-.05.21-.14.41-.07.16-.11.52-.11,1.08v1.22h4.83l3.05-.04c.11,0,.16.05.16.15v.72c0,.1-.05.15-.16.15l-3.05-.04h-12.12v3.26c0,2.71-.15,4.83-.46,6.38-.39,1.93-1.08,3.75-2.07,5.47-.08.15-.13.22-.17.22s-.12-.06-.24-.18c-.21-.22-.43-.37-.65-.45,1.03-1.61,1.75-3.43,2.15-5.47.28-1.44.41-3.45.41-6.06l-.04-4c0-.1.05-.15.15-.15l3.13.04h4.11Zm-3.32,15.38v.98c0,.08-.04.13-.13.13h-.72c-.1,0-.15-.04-.15-.13l.04-3.47v-1.5l-.04-2.11c0-.1.05-.15.15-.15l2.94.04h1.52v-4.89c0-1.2-.04-2.03-.13-2.48.4.02.76.06,1.07.11.16.03.24.09.24.18,0,.04-.04.18-.13.41-.07.18-.11.76-.11,1.76v.65h4.44l2.41-.04c.11,0,.16.05.16.15v.68c0,.1-.05.15-.16.15l-2.41-.04h-4.44v3.37h2.76l2.95-.04c.1,0,.15.05.15.15l-.04,1.85v1.68l.04,3.43c0,.1-.05.15-.15.15h-.74c-.1,0-.15-.05-.15-.15v-.85h-9.38Zm0-.89h9.38v-4.44h-9.38v4.44Z"/>
      </g>
      <g>
        <polygon class="cls-1" points="17.74 41.19 17.74 28.92 6.7 28.92 6.7 16.9 0 23.57 0 41.17 17.74 41.19"/>
        <polygon class="cls-1" points="10.84 12.73 10.84 24.99 21.88 24.99 21.88 37.02 28.58 30.33 28.58 12.74 10.84 12.73"/>
      </g>
      <g>
        <polygon class="cls-1" points="60.38 0 50.69 0 37.99 18.41 37.99 32.51 42.59 25.79 42.59 52.91 50.88 52.91 50.88 13.82 60.38 0"/>
        <polygon class="cls-1" points="81.59 33.28 101.16 33.28 103.33 25.36 81.59 25.36 81.59 16.23 101.17 16.23 103.28 8.48 81.59 8.48 81.59 0 73.22 0 73.22 8.48 57.45 8.48 55.28 16.23 73.15 16.23 73.15 25.36 55.4 25.36 53.23 33.28 73.22 33.28 73.22 44.39 55.21 44.39 52.89 52.89 101.19 52.89 103.49 44.39 81.59 44.39 81.59 33.28"/>
      </g>
      <g>
        <polygon class="cls-1" points="128.39 14.77 121.86 14.77 121.86 .04 113.44 .04 113.44 14.77 109.25 14.77 107.01 23.24 113.44 23.24 113.44 52.87 121.86 52.87 121.86 23.24 126.12 23.24 128.39 14.77"/>
        <path class="cls-1" d="m153.01,24.16v3.04s-1.91,0-1.91,0l-1.55,6.44h3.45v10.76h-2.5l-2.27,8.46h3.64c5.19-.27,7.78-2.95,8.05-6.58v-12.64h4.89v10.77s-2.67,0-2.67,0l-2.29,8.45h4.14c5.17-.27,7.18-2.91,7.45-6.54v-19.15h-11.37s0-3.04,0-3.04h-7.06Z"/>
        <path class="cls-1" d="m130.37,24.16v3.04s-2.22,0-2.22,0l-1.55,6.44h3.76v10.76h-2.99l-2.27,8.46h4.14c5.19-.27,7.78-2.95,8.05-6.58v-12.64h4.89v10.77s-2.67,0-2.67,0l-2.29,8.45h4.14c5.17-.27,7.18-2.91,7.45-6.54v-19.15h-11.37s0-3.04,0-3.04h-7.06Z"/>
        <path class="cls-1" d="m153.03,14.76h9v-3.14h-10.73v2.21c0,6.11-5.63,8.91-10.11,8.91h-10.9v-8.02h12.72v-3.1h-14.65l1.91-7.42h12.74V0h8.29v4.2l17.83.03v12.35c-.26,3.89-2.09,6.15-7.08,6.17h-9.01l.02-7.99Z"/>
      </g>
    </g>
  </g>
</svg>