<?xml version="1.0" encoding="UTF-8"?>
<svg id="_レイヤー_2" data-name="レイヤー 2" xmlns="http://www.w3.org/2000/svg" viewBox="0 0 162.91 89.37">
  <defs>
    <style>
      .cls-1 {
        fill: #231815;
      }
    </style>
  </defs>
  <g id="_レイヤー_1-2" data-name="レイヤー 1">
    <g>
      <path class="cls-1" d="m57.38,32.54c-.19-.28-.14-.54.14-.78.29-.24.52-.17.71.21l.43.43c.95-5.69,1.23-10.58.85-14.66-.38-4.08-1.4-7.4-3.06-9.96-1.66-2.56-3.72-4.36-6.19-5.41-2.47-1.04-5.31-1.35-8.54-.92-3.23.43-6.6,1.59-10.1,3.49-4.84,2.66-9.46,6.48-13.88,11.46-4.41,4.98-8.04,10.94-10.89,17.86-1.9,4.75-3.25,9.68-4.06,14.8-.81,5.12-1.12,10.25-.93,15.37.29,7.21,1.75,12.81,4.41,16.79,1.33,2.09,2.89,3.65,4.7,4.7,1.8,1.04,3.72,1.73,5.76,2.06,2.04.33,4.13.31,6.26-.07,2.13-.38,4.2-.95,6.19-1.71,2.66-1.04,5.36-2.42,8.11-4.13,2.75-1.71,5.41-3.7,7.97-5.98,2.56-2.28,4.98-4.77,7.26-7.47s4.32-5.57,6.12-8.61c.19-.28.45-.36.78-.21.33.14.36.45.07.92-3.61,6.26-8.11,11.72-13.52,16.37-5.41,4.65-10.87,8.02-16.37,10.1-2.09.85-4.25,1.47-6.48,1.85-2.23.38-4.41.43-6.55.14-2.13-.28-4.18-.92-6.12-1.92-1.95-1-3.63-2.44-5.05-4.34-1.42-1.9-2.61-4.25-3.56-7.04-.95-2.8-1.52-6.14-1.71-10.03-.38-5.41-.12-10.89.78-16.44.9-5.55,2.39-10.84,4.48-15.87,1.23-3.04,2.65-5.93,4.27-8.68,1.61-2.75,3.37-5.27,5.27-7.54,3.7-4.65,7.73-8.42,12.1-11.31,4.36-2.89,8.54-4.72,12.52-5.48,6.45-1.23,11.46-.28,15.01,2.85s5.62,7.78,6.19,13.95c.38,2.94.43,5.88.14,8.82-.28,2.94-.67,5.6-1.14,7.97-.1.48-.26.69-.5.64-.24-.05-.45-.21-.64-.5-.19-.19-.4-.4-.64-.64-.24-.24-.45-.59-.64-1.07Z"/>
      <path class="cls-1" d="m58.52,60.01c.19-.47.54-.66,1.07-.57.52.1.69.38.5.85-.19.38-.52,1.21-1,2.49-.48,1.28-.85,2.44-1.14,3.49-.29,1.04-.29,1.73,0,2.06.28.33.8.12,1.57-.64.85-1.04,1.59-2.09,2.21-3.13.62-1.04,1.26-2.09,1.92-3.13.19-.29.43-.38.71-.29.28.1.33.38.14.85-.38.76-.76,1.8-1.14,3.13-.38,1.33-.57,2.56-.57,3.7s.24,1.73.71,1.78c.47.05,1-.16,1.57-.64,2.18-1.71,4.03-3.37,5.55-4.98,1.52-1.61,3.18-3.27,4.98-4.98.28-.28.5-.28.64,0,.14.29.12.52-.07.71-3.42,3.61-5.98,6.17-7.69,7.69-.76.66-1.47,1.28-2.13,1.85-.67.57-1.42,1-2.28,1.28-.76.19-1.3.12-1.64-.21-.33-.33-.52-.8-.57-1.42-.05-.62-.05-1.33,0-2.13.05-.81.17-1.54.36-2.21-.29.38-.59.85-.92,1.42-.33.57-.71,1.09-1.14,1.57-.43.48-.88.85-1.35,1.14-.47.29-.95.33-1.42.14-.66-.19-1-.76-1-1.71s.14-1.97.43-3.06c.28-1.09.62-2.13,1-3.13.38-1,.62-1.64.71-1.92Z"/>
      <path class="cls-1" d="m77.02,60.15c.47-.09.95-.24,1.42-.43.47-.19.95-.38,1.42-.57.76-.38,1.42-.69,1.99-.92.57-.24,1.09-.26,1.57-.07,1.04.28,1.19,1.52.43,3.7-.76,2.47-1.42,4.53-1.99,6.19-.57,1.66-.85,3.2-.85,4.62,0,.38.12.52.36.43.24-.09.5-.29.78-.57s.57-.59.85-.93c.28-.33.47-.59.57-.78.76-1.04,1.8-2.49,3.13-4.34,1.33-1.85,2.75-4.01,4.27-6.48.19-.28.45-.33.78-.14.33.19.4.48.21.85-1.52,2.18-2.97,4.29-4.34,6.33-1.38,2.04-2.44,3.58-3.2,4.62l-1.42,1.71c-.76.85-1.49,1.23-2.21,1.14-.71-.09-1.07-.76-1.07-1.99,0-1.9.31-3.77.92-5.62.62-1.85,1.21-3.63,1.78-5.34.28-.85.28-1.37,0-1.57-.29-.19-.69-.21-1.21-.07-.52.14-1.09.36-1.71.64-.62.29-1.16.48-1.64.57-.28.1-.62.17-1,.21-.38.05-.71.02-1-.07-.95-.29-1.33-.88-1.14-1.78.19-.9.48-1.68.85-2.35.47-.76,1.04-1.59,1.71-2.49.66-.9,1.37-1.64,2.13-2.21.85-.66,1.52-.71,1.99-.14.47.57.52,1.23.14,1.99-.28.67-.78,1.49-1.49,2.49-.71,1-1.73,2.11-3.06,3.34Zm3.56-6.83c-.19-.19-.45-.05-.78.43-.33.48-.74,1-1.21,1.57-.48.76-.92,1.47-1.35,2.13-.43.67-.74,1.28-.93,1.85.38-.38.85-.88,1.42-1.5.57-.62,1.09-1.23,1.57-1.85.47-.62.85-1.16,1.14-1.64.28-.47.33-.8.14-1Z"/>
      <path class="cls-1" d="m92.53,60.15c.47-.09.95-.24,1.42-.43.47-.19.95-.38,1.42-.57.76-.38,1.42-.69,1.99-.92.57-.24,1.09-.26,1.57-.07,1.04.28,1.18,1.52.43,3.7-.76,2.47-1.42,4.53-1.99,6.19-.57,1.66-.85,3.2-.85,4.62,0,.38.12.52.36.43.24-.09.5-.29.78-.57.28-.29.57-.59.85-.93.29-.33.47-.59.57-.78.76-1.04,1.8-2.49,3.13-4.34,1.33-1.85,2.75-4.01,4.27-6.48.19-.28.45-.33.78-.14.33.19.4.48.21.85-1.52,2.18-2.97,4.29-4.34,6.33-1.38,2.04-2.44,3.58-3.2,4.62l-1.42,1.71c-.76.85-1.49,1.23-2.21,1.14-.71-.09-1.07-.76-1.07-1.99,0-1.9.31-3.77.93-5.62.62-1.85,1.21-3.63,1.78-5.34.29-.85.29-1.37,0-1.57-.28-.19-.69-.21-1.21-.07-.52.14-1.09.36-1.71.64-.62.29-1.16.48-1.64.57-.29.1-.62.17-1,.21-.38.05-.71.02-1-.07-.95-.29-1.33-.88-1.14-1.78.19-.9.48-1.68.85-2.35.47-.76,1.04-1.59,1.71-2.49.66-.9,1.37-1.64,2.13-2.21.85-.66,1.52-.71,1.99-.14.47.57.52,1.23.14,1.99-.28.67-.78,1.49-1.49,2.49-.71,1-1.73,2.11-3.06,3.34Zm3.56-6.83c-.19-.19-.45-.05-.78.43-.33.48-.74,1-1.21,1.57-.48.76-.93,1.47-1.35,2.13-.43.67-.74,1.28-.92,1.85.38-.38.85-.88,1.42-1.5.57-.62,1.09-1.23,1.57-1.85.47-.62.85-1.16,1.14-1.64.29-.47.33-.8.14-1Z"/>
      <path class="cls-1" d="m116.15,55.6c.47.57.59,1.23.36,1.99-.24.76-.62,1.49-1.14,2.21-.52.71-1.12,1.35-1.78,1.92-.67.57-1.14,1-1.42,1.28-1.99,1.61-4.22,2.94-6.69,3.98,0,1.8.55,2.78,1.64,2.92,1.09.14,2.3-.02,3.63-.5,2.47-.95,4.7-2.25,6.69-3.91,1.99-1.66,3.75-3.49,5.27-5.48.19-.28.43-.31.71-.07.29.24.33.45.14.64-1.71,2.18-3.54,4.13-5.48,5.83-1.95,1.71-4.1,3.08-6.47,4.13-1.42.57-2.8.85-4.13.85s-2.37-.66-3.13-1.99c-.57-1.23-.73-2.51-.5-3.84.24-1.33.59-2.51,1.07-3.56.67-1.33,1.57-2.61,2.7-3.84,1.14-1.23,2.51-2.13,4.13-2.7.47-.19,1.21-.36,2.21-.5s1.73.07,2.21.64Zm-10.67,10.1c1.04-.47,2.09-1,3.13-1.57,1.04-.57,1.99-1.23,2.85-1.99,1.71-1.42,2.94-2.89,3.7-4.41.19-.29.26-.66.21-1.14-.05-.47-.31-.71-.78-.71-.57,0-1.23.17-1.99.5-.76.33-1.38.69-1.85,1.07-1.52,1.14-2.66,2.4-3.42,3.77-.76,1.38-1.38,2.87-1.85,4.48Z"/>
      <path class="cls-1" d="m122.55,67.27c.38-.76.95-1.71,1.71-2.85.76-1.14,1.38-2.04,1.85-2.7.19-.28.43-.59.71-.92.29-.33.57-.59.85-.78.38-.19.76-.24,1.14-.14.28,0,.47.19.57.57.28.48.38,1.52.28,3.13,0,.57-.02,1.12-.07,1.64-.05.52-.07,1.07-.07,1.64,0,.76.14,1.33.43,1.71.47,1.14,1.37,1.59,2.7,1.35,1.33-.24,2.42-.54,3.27-.93,2.18-.95,4.43-2.28,6.76-3.98,2.32-1.71,4.29-3.37,5.91-4.98.29-.19.54-.16.78.07.24.24.21.5-.07.78-1.61,1.61-3.63,3.3-6.05,5.05-2.42,1.76-4.72,3.11-6.9,4.06-1.05.48-2.35.83-3.91,1.07-1.57.24-2.78-.17-3.63-1.21-.57-.47-.9-1.37-1-2.7-.1-.38-.12-.76-.07-1.14.05-.38.07-.76.07-1.14l.28-2.42c0-.95-.14-1.23-.43-.85-1.33,1.52-2.56,3.23-3.7,5.12-.48.85-.92,1.76-1.35,2.7-.43.95-.78,1.9-1.07,2.85-.09.19-.43.33-1,.43-.57.1-.8-.14-.71-.71l3.27-15.09c.09-.38.31-.54.64-.5.33.05.64.26.92.64.29.38.5.9.64,1.57.14.67.07,1.42-.21,2.28-.1.19-.38.28-.85.28-.19-.09-.28-.38-.28-.85.19-.19.28-.76.28-1.71l-1.71,8.68Z"/>
      <path class="cls-1" d="m145.61,50.62c.95.19,1.99.19,3.13,0,1.14-.19,2.37-.52,3.7-1,.38-1.61.8-3.06,1.28-4.34.47-1.28,1.04-2.21,1.71-2.78.19-.19.5-.33.93-.43.43-.09.78-.05,1.07.14.28.38.38.76.28,1.14-.19,1.8-.52,3.46-1,4.98,1.04-.28,1.99-.52,2.85-.71.85-.19,1.8-.33,2.85-.43.29,0,.45.12.5.36.05.24-.02.4-.21.5-.19.19-.67.48-1.42.85-.76.38-1.14.33-1.14-.14,0-.19.05-.28.14-.28-.76.19-1.45.36-2.06.5-.62.14-1.26.31-1.92.5v.14c-.85,2.28-2.04,4.6-3.56,6.97-.38,2.75-.74,5.65-1.07,8.68-.33,3.04-.4,5.98-.21,8.82.09.38-.07.57-.5.57s-.64-.19-.64-.57c-.19-2.47-.19-5,0-7.61.19-2.61.43-5.15.71-7.61l-1.85,2.13c-.28.19-.52.14-.71-.14-.19-.29-.14-.57.14-.85.66-.66,1.16-1.21,1.49-1.64.33-.43.73-.92,1.21-1.49.09-1.99.38-3.98.85-5.98-1.23.48-2.42.81-3.56,1-1.14.19-2.18.19-3.13,0-.47-.09-.66-.36-.57-.78.1-.43.33-.59.71-.5Zm8.11-.28l-.57,3.56c.38-.66.71-1.3,1-1.92.28-.62.57-1.26.85-1.92l-1.28.29Zm1.71-1.57c.66-1.9,1.04-3.65,1.14-5.27.09-.09.14-.16.14-.21s-.05-.02-.14.07c-.67.57-1.21,1.49-1.64,2.77-.43,1.28-.74,2.3-.92,3.06l1.42-.43Z"/>
    </g>
    <g>
      <path class="cls-1" d="m78.24,39.25l-.15-.07v-.4c.67,0,1.35-.07,2.01-.2s1.31-.26,1.94-.37l.15-.47v-3.41h-.22c-1.17.21-2.39.29-3.66.22v-.4l3.88-.79.17-3.34h-.47c-1.17.33-2.41.44-3.73.32v-.4c1.68-.31,3.38-.63,5.1-.95s3.51-.48,5.35-.48l.1.42-4.05.62-.25,3.41h.25c1-.26,2.09-.34,3.26-.22v.4l-3.51.62v3.98l-.07.22h.72l3.02-.07v.4c-1.7.12-3.34.31-4.92.57-1.58.26-3.22.4-4.92.4Zm9.29,2.62v-.4l4.42-7.14h-2.37v-.17h-.54l-.1-2.3v-3.48l.4-4.84h2.15v.96l-.07.32h.15c.96-.69,1.99-1.18,3.1-1.47,1.11-.29,2.3-.38,3.57-.28.63.05,1.18.29,1.66.72l.07.22h.17c.48.81.77,1.67.88,2.6.11.92.13,1.89.06,2.89-.05,1.01-.15,1.99-.31,2.94-.16.96-.32,1.9-.48,2.84h-2.22v-.54l.25-1.43h-.54l-3.19.57c-.74,1.37-1.53,2.71-2.37,4.03-.84,1.32-1.66,2.64-2.47,3.98h-2.2Zm10.92-9.12v-.4c.17-.81.29-1.63.37-2.47.08-.84.1-1.71.05-2.62-.12-1.17-.46-2.2-1.04-3.09l-1.11-.47c-.91.26-1.75.68-2.55,1.26-.79.58-1.74.76-2.84.54l-.17,2.79h.32c1-.43,2.04-.77,3.09-1.04,1.05-.26,2.19-.35,3.41-.25v.42c-1.15.15-2.26.45-3.32.9-1.06.45-2.23.62-3.5.51v1.83h.57c1-.31,2.02-.6,3.05-.87,1.03-.26,2.15-.35,3.37-.25v.4c-1.12.26-2.24.56-3.35.88s-2.33.4-3.65.23v1.68l.07.94h.25c1.1-.26,2.24-.49,3.41-.67,1.17-.18,2.36-.27,3.56-.27Zm-2.52,8.33l-.96-.4c-.63-.86-.83-1.89-.62-3.11.05-.63.21-1.23.47-1.8h2.15v.4c-.33.89-.47,1.86-.42,2.92.07.48.3.91.72,1.29l.5.07c.63-.26,1.29-.47,1.98-.63.69-.16,1.43-.19,2.22-.09v.4c-.91.43-1.86.71-2.87.84-1,.13-2.06.17-3.16.12Z"/>
      <path class="cls-1" d="m106,37.81l-.57-.47v-1.11c.48-1.32,1.05-2.59,1.71-3.81.66-1.22,1.33-2.44,2.03-3.66h-.25c-.74.17-1.52.3-2.33.41-.82.11-1.64.13-2.48.06v-.4c.94-.15,1.9-.3,2.88-.46s1.95-.34,2.9-.56l3.41-5.09h.15l.4-.72,2.32-.07v.4l-.32.17-3.34,5.14h.54c2.08-.15,4.16-.29,6.24-.42,2.08-.13,4.19-.23,6.31-.3v.4c-2.27.17-4.58.31-6.91.45-2.33.13-4.61.39-6.83.77-.84,1.37-1.64,2.74-2.41,4.11-.77,1.38-1.36,2.83-1.79,4.36.26.31.63.42,1.11.32v.4l-2.77.07Zm3.88,3.41v-.07l-.15-1.51v-3.48l.22-2.3h2.15v1.11l-.17,1.19v3.56l.1,1.51h-2.15Zm9.29-2.45v-.89l.15-2.69-.07-1.33h-.17c-.74.15-1.48.26-2.22.35s-1.51.1-2.3.05v-.4l4.7-.64v-.87l-.07-.96.07-1.58h2.22v.79l-.1,2.37h.25c1.1-.15,2.27-.2,3.49-.15v.4l-3.56.4-.07.07v4.2l-.17.89h-2.12Zm-2.47,1.8v-.4c1.48-.2,2.99-.34,4.52-.42,1.53-.08,3.07-.12,4.6-.12v.4c-1.53.05-3.05.15-4.56.31-1.51.16-3.03.23-4.56.23Z"/>
    </g>
  </g>
</svg>