<?xml version="1.0" encoding="UTF-8"?>
<svg id="_レイヤー_2" data-name="レイヤー 2" xmlns="http://www.w3.org/2000/svg" viewBox="0 0 367.73 204.06">
  <defs>
    <style>
      .cls-1 {
        fill: #231815;
      }
    </style>
  </defs>
  <g id="_レイヤー_1-2" data-name="レイヤー 1">
    <g>
      <path class="cls-1" d="m1.85,138.74c-.07.62-.38.89-.93.81-.55-.08-.86-.34-.92-.79.6-9.25,1.37-18.33,2.32-27.25.95-8.91,2.18-17.45,3.7-25.6,1.29-7.51,2.81-14.55,4.54-21.13,1.73-6.57,3.64-12.45,5.71-17.62-1.16-6.26-1.41-11.5-.74-15.71.66-4.21,1.61-7.47,2.84-9.78,1.01-1.66,2.15-2.89,3.44-3.68,1.45-.66,2.49-.72,3.1-.19.61.53.96,1.36,1.03,2.5.07,1.14.02,2.44-.16,3.92-.19,1.48-.37,2.69-.55,3.63-.77,3.47-1.78,6.81-3.04,10.04-1.26,3.23-2.38,5.75-3.37,7.56.14,1.05.32,2.06.53,3.02.21.97.47,2.04.78,3.22,3.12,11.65,6.09,21.56,8.9,29.73,2.81,8.18,5.51,14.99,8.1,20.45,1.68,3.29,3.25,6.05,4.71,8.3,1.46,2.25,2.9,4.04,4.32,5.37,2.1,1.86,4.06,2.66,5.88,2.41,1.06-.14,2-.62,2.82-1.41.82-.8,1.55-1.62,2.21-2.48,1.97-2.56,3.82-6.55,5.55-11.98,1.84-5.75,3.39-12.57,4.63-20.45,1.25-7.88,2.15-16.26,2.73-25.12.57-8.86.73-17.9.49-27.11-.25-9.21-.93-17.94-2.05-26.19-.24.49-.53,1.22-.86,2.18-.33.96-.46,1.75-.38,2.34.19.28.31.57.35.87.1.75-.16,1.09-.79,1.02-1.1-.15-1.58-.85-1.44-2.1.14-1.24.46-2.54.97-3.91.51-1.37,1.1-2.4,1.78-3.11.26-.34.63-.5,1.09-.49.46.02.74.32.82.92,1.14,8.4,1.84,17.28,2.11,26.64.26,9.36.17,18.62-.28,27.77-.46,9.15-1.32,17.87-2.59,26.14-1.27,8.27-2.89,15.37-4.87,21.29-1.25,4.45-2.91,8.11-4.99,10.99-.75,1.33-1.7,2.56-2.85,3.71-1.16,1.15-2.56,1.92-4.2,2.29-2.99.71-6.09-.55-9.31-3.78-3.75-3.77-7.75-10.75-11.99-20.95-4.24-10.2-8.76-24.44-13.56-42.74-.12-.9-.29-1.56-.5-1.99-1.77,5.13-3.41,10.7-4.91,16.71-1.5,6.01-2.87,12.39-4.12,19.12-1.52,8.15-2.76,16.65-3.72,25.49-.96,8.84-1.74,17.88-2.34,27.13ZM21.95,20.73c-.79,1.02-1.52,2.46-2.19,4.31-.67,1.85-1.13,4.17-1.37,6.95-.39,2.8-.41,6.09-.05,9.86l1.86-5.07c1.02-2.73,1.81-5.13,2.38-7.2.57-2.06,1.02-4.11,1.36-6.14.2-.79.19-1.74-.04-2.86-.23-1.11-.88-1.06-1.95.15Z"/>
      <path class="cls-1" d="m99.36,76c.88.8,1.21,1.82,1,3.07-.22,1.25-.67,2.5-1.34,3.73-.68,1.24-1.49,2.38-2.43,3.42-.94,1.04-1.61,1.82-2,2.33-2.84,2.98-6.11,5.57-9.83,7.75.39,2.85,1.47,4.27,3.24,4.26s3.67-.53,5.69-1.57c3.74-2.03,7.02-4.58,9.84-7.64,2.83-3.06,5.24-6.33,7.23-9.81.24-.49.62-.58,1.12-.27.5.31.63.64.36.98-2.26,3.82-4.76,7.29-7.5,10.41-2.74,3.12-5.9,5.77-9.46,7.93-2.15,1.21-4.29,1.96-6.41,2.25-2.12.29-3.93-.53-5.43-2.47-1.17-1.82-1.71-3.81-1.62-5.97.09-2.15.41-4.1.94-5.86.78-2.24,1.94-4.46,3.49-6.66,1.55-2.19,3.56-3.92,6.01-5.17.72-.4,1.86-.82,3.42-1.27,1.56-.44,2.78-.26,3.66.53Zm-14.88,18.29c1.56-.98,3.12-2.03,4.66-3.15,1.54-1.13,2.92-2.38,4.12-3.77,2.42-2.62,4.07-5.21,4.96-7.78.24-.49.27-1.1.1-1.85-.18-.74-.65-1.06-1.4-.96-.91.12-1.94.53-3.08,1.22-1.14.69-2.05,1.39-2.73,2.09-2.18,2.13-3.73,4.37-4.65,6.7-.92,2.34-1.58,4.84-1.99,7.49Z"/>
      <path class="cls-1" d="m135.16,56.71c.41-.36.81-.3,1.18.18.37.49.28.92-.29,1.3-3.53,2.47-6.79,6.23-9.81,11.3-3.01,5.07-5.76,10.45-8.23,16.13,4,4.5,8.68,5.39,14.02,2.68,1.87-1.02,4.12-2.62,6.75-4.81,2.63-2.19,4.65-4.37,6.06-6.55.39-.51.84-.61,1.35-.3.5.31.56.73.17,1.24-1.53,2.35-3.69,4.67-6.46,6.95-2.78,2.29-5.18,3.95-7.19,4.99-2.87,1.61-5.61,2.14-8.23,1.58-2.62-.56-5.01-1.92-7.15-4.07-1.26,3.23-2.5,6.34-3.71,9.33-1.21,2.99-2.32,5.93-3.32,8.82-.2.79-.77,1.14-1.71,1.03s-1.23-.56-.88-1.37c1.13-3.05,2.31-6.27,3.55-9.65,1.24-3.38,2.69-6.86,4.37-10.45-1.92-2.79-3.47-6.78-4.64-11.98-.57.38-.99.36-1.28-.06-.29-.42-.3-.8-.04-1.14.26-.34.43-1.35.51-3.05.07-.62.35-1.08.85-1.38.5-.3.8-.07.9.68.88,6.45,2.4,11.44,4.58,14.96l2.15-4.65c2.07-4.1,4.34-8.07,6.83-11.93,2.49-3.85,5.71-7.11,9.67-9.79Z"/>
      <path class="cls-1" d="m138.06,62.73c1.56.1,3.22-.13,5-.68,1.78-.55,3.67-1.34,5.7-2.38.26-2.63.63-5.01,1.11-7.14.48-2.13,1.19-3.71,2.13-4.76.26-.34.72-.63,1.39-.88.66-.24,1.24-.24,1.73,0,.54.54.77,1.12.7,1.74.08,2.89-.09,5.59-.52,8.09,1.6-.68,3.07-1.25,4.39-1.74,1.32-.48,2.8-.91,4.45-1.29.46-.06.74.09.87.45.12.37.05.65-.23.83-.26.34-.96.9-2.09,1.66-1.13.77-1.75.77-1.85.02-.04-.3.01-.46.17-.48-1.17.47-2.23.88-3.19,1.23-.96.36-1.94.76-2.96,1.2l.03.23c-.88,3.79-2.27,7.72-4.19,11.8-.02,4.44.04,9.09.16,13.96.12,4.88.64,9.54,1.55,14,.23.58,0,.92-.67,1.01-.68.09-1.06-.16-1.14-.76-.83-3.86-1.38-7.87-1.63-12.04-.26-4.17-.42-8.23-.5-12.19l-2.5,3.78c-.41.36-.8.34-1.17-.07-.36-.41-.35-.87.04-1.38.92-1.19,1.59-2.16,2.04-2.91.44-.75.97-1.62,1.61-2.63-.28-3.17-.25-6.38.08-9.64-1.87,1.02-3.69,1.8-5.47,2.35-1.78.55-3.44.77-5,.68-.78-.05-1.13-.42-1.08-1.11.06-.7.41-1.01,1.03-.94Zm12.9-2.21l-.15,5.75c.46-1.13.86-2.21,1.18-3.25.32-1.04.64-2.11.95-3.22l-1.98.73Zm2.39-2.85c.65-3.14.88-6,.69-8.57.13-.17.19-.29.18-.37,0-.07-.08-.02-.21.14-.94,1.04-1.61,2.63-2.02,4.74-.41,2.12-.68,3.8-.82,5.04l2.18-.98Z"/>
      <path class="cls-1" d="m72.73,149.33c1.56-.98,3.52-2.46,5.88-4.46,2.35-2,5.28-4.84,8.8-8.53.65-.85,1.2-.77,1.65.23l2.89,7.63c2.05-1.96,4.26-3.86,6.63-5.71,2.37-1.85,4.96-3.8,7.77-5.87.56-.38.96-.32,1.18.18.22.51.2.93-.06,1.27-2.96,2.08-5.66,4.09-8.1,6.03-2.44,1.94-4.76,3.89-6.96,5.87,1.05,3.22,1.93,6.31,2.65,9.27.71,2.96,1.19,5.95,1.45,8.97.41,3,.45,6.44.12,10.3-.33,3.87-1.05,7.63-2.17,11.3-1.12,3.67-2.67,7.05-4.64,10.14-1.97,3.1-4.48,5.38-7.52,6.86-4.02,2.22-7.51,1.48-10.49-2.24-1.44-1.48-2.45-3.56-3.05-6.23s-.74-5.78-.46-9.33c.25-3.85,1.29-8.12,3.12-12.8,1.84-4.68,4.57-9.56,8.2-14.64,3.02-3.92,6.37-7.66,10.05-11.22-.47-1.16-.9-2.36-1.3-3.61-.4-1.24-.83-2.44-1.3-3.61-2.58,2.64-4.83,4.82-6.75,6.53-1.93,1.72-3.68,3.06-5.24,4.03-.72.41-1.88.98-3.47,1.73-1.59.75-2.96.9-4.11.44-.97-.33-1.54-1.09-1.7-2.29-.16-1.2-.22-2.18-.17-2.96.34-2.03.87-3.86,1.57-5.48.93-2.26,2.12-4.53,3.59-6.79,1.46-2.26,3.03-4.11,4.69-5.56,1.96-1.49,3.82-2.24,5.6-2.25,1.77-.01,3.18.98,4.22,2.98.62,1.14.63,1.83.05,2.06-.41.36-.91.43-1.48.2-.57-.23-1.08-.31-1.54-.25-.39.51-.78.53-1.15.04-.38-.48-.43-.89-.17-1.24.54-.53,1.29-.71,2.24-.53-1.11-1.37-2.36-1.74-3.74-1.1-1.38.65-2.66,1.7-3.85,3.16-1.19,1.46-2.25,3.06-3.17,4.79-.92,1.73-1.57,2.93-1.94,3.59-1.67,3.59-2.38,6.36-2.11,8.31.16,1.2.74,1.73,1.72,1.6s1.83-.4,2.55-.8Zm17.43-1.22c-1.75,1.92-3.36,3.7-4.83,5.35-1.47,1.65-2.86,3.41-4.15,5.26-3.65,4.93-6.33,9.65-8.03,14.15-1.7,4.51-2.69,8.62-2.96,12.32-.33,3.25-.21,6.1.35,8.55.56,2.44,1.49,4.42,2.77,5.93,2.02,2.32,4.14,2.95,6.39,1.88,2.25-1.07,4.1-2.47,5.57-4.19,3.71-4.48,6.18-9.58,7.41-15.33,1.22-5.74,1.61-11.41,1.16-17-.58-5.42-1.81-11.06-3.68-16.92Z"/>
      <path class="cls-1" d="m120.85,123.55c.88.8,1.21,1.82.99,3.07-.22,1.25-.67,2.5-1.34,3.74-.68,1.24-1.49,2.38-2.43,3.42-.94,1.04-1.61,1.82-2,2.33-2.84,2.98-6.11,5.57-9.83,7.75.39,2.85,1.47,4.27,3.24,4.26,1.77-.01,3.67-.53,5.69-1.57,3.74-2.03,7.02-4.58,9.84-7.64,2.83-3.06,5.24-6.33,7.23-9.81.24-.49.62-.58,1.12-.27.51.31.63.64.36.98-2.26,3.82-4.76,7.29-7.5,10.42-2.74,3.12-5.9,5.77-9.46,7.93-2.15,1.21-4.29,1.96-6.41,2.24-2.12.29-3.93-.53-5.43-2.47-1.17-1.82-1.71-3.81-1.62-5.97.09-2.15.41-4.1.94-5.86.78-2.24,1.94-4.46,3.5-6.66,1.55-2.19,3.55-3.92,6.01-5.17.72-.4,1.86-.82,3.42-1.27,1.56-.44,2.78-.26,3.66.54Zm-14.88,18.29c1.56-.98,3.12-2.03,4.66-3.15,1.54-1.13,2.92-2.38,4.12-3.77,2.42-2.62,4.08-5.21,4.96-7.78.24-.49.27-1.1.1-1.85-.18-.74-.65-1.06-1.4-.96-.91.12-1.93.53-3.08,1.22-1.14.69-2.05,1.39-2.73,2.09-2.18,2.13-3.73,4.37-4.65,6.7-.92,2.34-1.58,4.84-1.99,7.49Z"/>
      <path class="cls-1" d="m133.58,140.61c.44-1.28,1.15-2.91,2.12-4.87.97-1.96,1.76-3.52,2.37-4.68.24-.49.56-1.03.94-1.62.38-.59.78-1.06,1.2-1.42.56-.38,1.16-.54,1.79-.47.46-.06.8.2,1.03.78.56.69.93,2.32,1.13,4.89.12.9.2,1.77.24,2.6.03.84.12,1.7.24,2.6.16,1.2.51,2.07,1.05,2.61,1,1.7,2.54,2.22,4.61,1.55,2.07-.66,3.75-1.39,5.03-2.17,3.28-1.97,6.59-4.56,9.94-7.77,3.34-3.2,6.13-6.25,8.36-9.16.42-.36.83-.38,1.27-.06.43.33.45.74.05,1.25-2.23,2.9-5.09,6-8.58,9.3-3.49,3.3-6.87,5.94-10.15,7.91-1.57.98-3.57,1.82-6.02,2.54-2.45.72-4.47.34-6.06-1.13-1.01-.63-1.74-1.98-2.17-4.06-.23-.58-.35-1.17-.36-1.79,0-.61-.05-1.21-.13-1.82l-.06-3.89c-.2-1.5-.49-1.92-.87-1.26-1.8,2.69-3.4,5.66-4.81,8.9-.58,1.45-1.1,2.98-1.58,4.57-.48,1.59-.84,3.17-1.09,4.73-.11.32-.61.62-1.5.89-.89.27-1.32-.05-1.29-.97l1.99-24.57c.07-.62.37-.93.92-.93.54,0,1.08.28,1.61.81.54.54.99,1.32,1.36,2.34.37,1.02.42,2.24.15,3.65-.11.32-.55.53-1.3.64-.33-.11-.54-.54-.64-1.29.26-.34.29-1.26.09-2.76l-.86,14.1Z"/>
      <path class="cls-1" d="m188.13,114.41c.88.8,1.21,1.82,1,3.07-.22,1.25-.67,2.5-1.34,3.73-.68,1.24-1.49,2.38-2.43,3.42-.94,1.04-1.61,1.82-2,2.33-2.84,2.98-6.11,5.57-9.83,7.75.39,2.85,1.47,4.27,3.24,4.26s3.67-.53,5.69-1.57c3.74-2.03,7.02-4.58,9.84-7.64,2.83-3.05,5.24-6.33,7.23-9.81.24-.49.62-.58,1.12-.27.5.31.63.64.36.98-2.26,3.82-4.76,7.29-7.5,10.41-2.74,3.12-5.9,5.77-9.46,7.93-2.15,1.21-4.29,1.96-6.41,2.25-2.12.29-3.93-.53-5.43-2.47-1.17-1.82-1.71-3.81-1.62-5.97.09-2.15.41-4.1.94-5.86.78-2.24,1.94-4.46,3.49-6.66,1.55-2.19,3.55-3.92,6.01-5.17.72-.4,1.86-.83,3.42-1.27,1.56-.44,2.78-.26,3.66.53Zm-14.88,18.29c1.56-.98,3.12-2.03,4.66-3.15,1.54-1.13,2.92-2.38,4.12-3.77,2.42-2.62,4.08-5.21,4.96-7.78.24-.49.27-1.1.1-1.85-.18-.74-.65-1.06-1.4-.96-.91.12-1.94.53-3.08,1.22-1.14.69-2.05,1.39-2.73,2.09-2.18,2.13-3.73,4.37-4.65,6.7-.92,2.34-1.58,4.84-1.99,7.49Z"/>
      <path class="cls-1" d="m201.84,119.89c.74-.25,1.46-.58,2.18-.98.72-.4,1.43-.8,2.15-1.21,1.13-.76,2.12-1.4,2.98-1.9.86-.5,1.69-.65,2.49-.45,1.73.22,2.22,2.15,1.48,5.76-.69,4.07-1.3,7.48-1.86,10.22-.55,2.75-.68,5.25-.37,7.5.08.6.3.8.66.6.36-.2.73-.56,1.13-1.07.39-.51.78-1.06,1.17-1.65.38-.59.63-1.04.74-1.36.99-1.81,2.34-4.33,4.07-7.54,1.72-3.21,3.53-6.93,5.43-11.17.24-.49.65-.62,1.22-.4.57.23.74.67.52,1.3-1.96,3.78-3.82,7.43-5.57,10.96-1.76,3.53-3.13,6.19-4.12,8.01l-1.91,3.01c-1.03,1.52-2.12,2.28-3.28,2.28-1.16,0-1.87-.97-2.13-2.92-.41-3-.32-6.03.27-9.09.58-3.06,1.15-6,1.7-8.82.27-1.41.16-2.23-.34-2.48-.5-.24-1.15-.19-1.95.15-.8.34-1.67.8-2.59,1.38-.93.58-1.76,1-2.49,1.26-.43.21-.95.4-1.54.55-.6.16-1.13.19-1.61.1-1.58-.24-2.31-1.1-2.2-2.57.11-1.47.4-2.76.86-3.9.59-1.3,1.33-2.74,2.19-4.31.86-1.57,1.84-2.89,2.94-3.95,1.22-1.23,2.27-1.45,3.15-.66.88.8,1.09,1.84.65,3.12-.31,1.11-.93,2.53-1.85,4.26-.92,1.73-2.31,3.72-4.17,5.95Zm4.22-11.57c-.34-.26-.73.02-1.16.85-.43.82-.96,1.73-1.59,2.74-.6,1.31-1.16,2.53-1.7,3.67-.54,1.14-.9,2.18-1.08,3.13.52-.68,1.18-1.57,1.95-2.67.78-1.1,1.48-2.18,2.1-3.26.62-1.08,1.12-2.02,1.47-2.83.35-.81.36-1.34.01-1.61Z"/>
      <path class="cls-1" d="m225.1,125.9c.52.39,1.08.28,1.69-.34.61-.62,1.28-1.39,2-2.33.72-.94,1.32-1.9,1.81-2.88.48-.98.84-1.72,1.09-2.21.35-.81.66-1.08.93-.81.27.27.57.53.92.79,3.43,3.66,6.88,5.25,10.37,4.78,3.79-.51,7.79-4.04,11.99-10.57.26-.34.64-.39,1.14-.15.5.24.62.6.38,1.09-2.43,3.69-4.73,6.41-6.88,8.15-2.16,1.75-4.29,2.84-6.39,3.27-3.79.51-7.55-1.04-11.28-4.66l-1.68,2.98c-.99,1.82-2.05,3.07-3.19,3.76-1.14.69-2.09,1.09-2.85,1.19-1.51.21-2.48-.39-2.9-1.78-.42-1.39-.53-2.49-.33-3.28.48-2.2,1.35-4.54,2.64-7,1.29-2.47,3.48-4.75,6.59-6.85,1-.59,1.69-.61,2.08-.05.21.43.21.97-.01,1.61-.13.17-.26.38-.38.62-.12.25-.34.39-.64.43-.46.06-.77.03-.94-.1-.02-.15-.11-.21-.26-.19-1.68,1.3-3.07,2.94-4.19,4.92-.13.17-.41.71-.82,1.6-.42.9-.79,1.87-1.11,2.9-.32,1.04-.49,2.05-.51,3.05-.02,1,.23,1.69.74,2.08Z"/>
      <path class="cls-1" d="m249.11,98.12c1.56.1,3.22-.13,5-.68,1.78-.55,3.67-1.34,5.7-2.38.26-2.63.63-5.01,1.11-7.14.48-2.13,1.19-3.71,2.13-4.76.26-.34.72-.63,1.39-.88.66-.24,1.24-.24,1.74,0,.54.54.77,1.12.7,1.74.08,2.89-.09,5.59-.52,8.09,1.6-.68,3.07-1.25,4.39-1.74,1.32-.48,2.8-.91,4.45-1.29.45-.06.74.09.87.45.12.37.05.65-.24.83-.26.34-.96.9-2.09,1.66-1.13.77-1.75.77-1.85.02-.04-.3.01-.46.17-.48-1.17.47-2.24.88-3.19,1.23-.96.36-1.94.76-2.96,1.2l.03.23c-.88,3.79-2.27,7.72-4.18,11.8-.02,4.44.04,9.09.16,13.96.12,4.88.64,9.54,1.55,14,.23.58,0,.92-.67,1.01-.68.09-1.06-.16-1.15-.76-.83-3.86-1.38-7.87-1.63-12.04-.26-4.17-.42-8.23-.5-12.19l-2.5,3.78c-.41.36-.8.34-1.17-.07-.36-.41-.35-.87.04-1.38.92-1.19,1.59-2.16,2.04-2.91.44-.75.97-1.62,1.61-2.63-.28-3.17-.25-6.38.08-9.64-1.87,1.02-3.69,1.8-5.47,2.35-1.78.55-3.44.77-5,.68-.78-.05-1.13-.42-1.08-1.11.06-.7.41-1.01,1.03-.94Zm12.9-2.21l-.15,5.75c.46-1.13.86-2.21,1.18-3.25.32-1.04.64-2.11.95-3.22l-1.98.73Zm2.39-2.85c.65-3.14.88-6,.69-8.57.13-.17.19-.29.18-.37,0-.07-.08-.02-.21.14-.94,1.04-1.61,2.63-2.02,4.74-.41,2.12-.68,3.8-.82,5.04l2.18-.98Z"/>
      <path class="cls-1" d="m273.4,109.95c.09-.47.58-.84,1.47-1.12.89-.27,1.31-.02,1.26.75l-.81,11.11c-.04,1.99.14,3.61.54,4.85.4,1.25,1.69.8,3.87-1.33l3.24-3.42c1.88-2.09,3.84-4.38,5.9-6.87,2.05-2.49,3.94-4.78,5.67-6.84.39-.51.85-.57,1.36-.19.52.39.58.84.18,1.35-1.88,2.09-3.84,4.38-5.9,6.87-2.06,2.5-4.02,4.79-5.9,6.87l-3.44,3.68c-3.51,3.69-5.89,4.32-7.15,1.89-.42-.86-.71-2.12-.86-3.78-.15-1.66-.21-3.56-.2-5.7.03-.92.12-2.27.26-4.05.15-1.77.31-3.14.49-4.08Zm3.63-7.37c-.11.32-.43.56-.95.7-.52.15-.93.24-1.23.28-.65-.22-.85-.57-.61-1.06l.45-3.5c.09-.47.62-.77,1.61-.91.98-.13,1.38.2,1.18.99l-.45,3.5Z"/>
      <path class="cls-1" d="m294.53,107.08c.22-.64.68-.93,1.39-.88.7.06.95.48.75,1.27-.83,3.02-1.47,5.93-1.94,8.74-.47,2.81-.17,5.83.88,9.05.51,1.46,1.13,2.33,1.86,2.61.73.28,1.53.18,2.39-.32.86-.5,1.65-1.22,2.37-2.15.72-.94,1.26-1.81,1.61-2.63,1.32-2.78,2.52-5.84,3.61-9.2-1.38.04-2.73-.24-4.05-.83-1.32-.58-2.41-1.28-3.29-2.07-.86-.65-1.52-1.51-1.97-2.6-.46-1.08-.67-2.09-.64-3.01.06-1.84.81-3.43,2.25-4.77,1.44-1.34,2.82-2.25,4.14-2.74,2.49-.95,4.23-.92,5.22.09.98,1.01,1.56,2.42,1.73,4.23.17,1.81.04,3.7-.39,5.67-.43,1.97-.73,3.42-.91,4.36,3.46-.62,6.4-1.75,8.8-3.37,2.4-1.62,4.54-3.48,6.42-5.57.26-.34.61-.31,1.05.09.44.4.53.77.27,1.11-4.66,5.52-10.31,8.73-16.98,9.64-.54,1.76-1.34,4.04-2.43,6.86-1.08,2.82-2.5,5.19-4.24,7.11-1.88,2.09-3.59,2.82-5.14,2.19-1.55-.63-2.75-1.8-3.6-3.52-1.28-2.58-1.67-5.81-1.2-9.69.48-3.88,1.16-7.11,2.04-9.67Zm13.16,4.86c.38-1.73.76-3.77,1.14-6.11.38-2.34.32-4.17-.17-5.48-.47-1.16-1.38-1.65-2.74-1.46s-2.67.82-3.91,1.91c-1.24,1.09-2.07,2.38-2.48,3.89-.41,1.51.19,3.07,1.79,4.68.86.65,1.87,1.28,3.03,1.88,1.16.61,2.27.84,3.33.69Z"/>
      <path class="cls-1" d="m326.09,114.49c.44-1.28,1.15-2.91,2.12-4.87.96-1.96,1.76-3.52,2.37-4.68.24-.49.56-1.03.94-1.62.38-.59.78-1.06,1.2-1.42.56-.38,1.16-.54,1.79-.47.45-.06.8.2,1.03.78.56.69.93,2.32,1.13,4.89.12.9.2,1.77.24,2.6.03.84.12,1.7.24,2.6.16,1.2.51,2.07,1.05,2.61,1,1.7,2.54,2.22,4.61,1.55,2.07-.66,3.75-1.39,5.03-2.17,3.28-1.97,6.59-4.56,9.94-7.77,3.34-3.2,6.13-6.25,8.36-9.16.42-.36.83-.38,1.27-.06.43.33.45.74.05,1.25-2.23,2.9-5.09,6-8.58,9.3-3.49,3.3-6.87,5.94-10.15,7.91-1.57.98-3.57,1.82-6.02,2.54-2.45.72-4.47.34-6.06-1.13-1.01-.63-1.74-1.98-2.17-4.06-.23-.58-.35-1.17-.36-1.79,0-.61-.05-1.21-.13-1.82l-.06-3.89c-.2-1.5-.49-1.92-.87-1.26-1.8,2.69-3.4,5.66-4.81,8.9-.58,1.45-1.1,2.98-1.58,4.57-.48,1.59-.84,3.17-1.09,4.73-.11.32-.61.62-1.5.89-.89.27-1.32-.05-1.29-.97l1.99-24.57c.07-.62.37-.93.92-.93.54,0,1.08.28,1.61.81.54.54.99,1.32,1.36,2.34.37,1.02.42,2.24.15,3.65-.11.32-.55.53-1.3.64-.33-.11-.54-.54-.64-1.29.26-.34.29-1.26.09-2.76l-.87,14.1Z"/>
    </g>
    <g>
      <path class="cls-1" d="m181.27,73.82v-.45c.57-1.45,1.18-2.86,1.82-4.25.63-1.38,1.13-2.82,1.49-4.33l-.27-.45-.33-.12c-.71.16-1.42.33-2.14.48-.72.16-1.49.19-2.33.09v-.33c.92-.22,1.87-.41,2.85-.58.98-.17,2-.22,3.06-.13l.8.33c.18.36.25.77.21,1.25-.4,1.45-.93,2.88-1.59,4.29s-1.25,2.81-1.77,4.2h-1.78Zm6.99-7.77c-.27-.38-.36-.88-.27-1.5.08-1.15.27-2.27.55-3.36s.6-2.17.94-3.22h1.78v.45c-.4,1.05-.72,2.14-.98,3.26s-.41,2.28-.45,3.47h1.05v.33l-.27.12-.06.21c-.71.26-1.48.34-2.3.25Zm8.74,7.65l-1.83-1.25-.86-.66-.86-.8v-.12l-.27-.14-.06-.18-.27-.14-.06-.18-.21-.08-.33-.25-.98,1.76-1.78.08v-.41c.49-.83.96-1.68,1.39-2.53.44-.85.79-1.74,1.05-2.66h1.78l.06.45c-.3.88-.65,1.73-1.05,2.56h1.19l.39.66.18.08,1.66,1.5.78.68v.12l1.85,1.19v.33h-1.78Zm-1.37-9.02v-.27l.06-.12.8-.86.06-.39-.21-.06c-.88.16-1.73.4-2.56.71s-1.76.42-2.77.34v-.33c1.05-.4,2.14-.71,3.26-.95,1.12-.24,2.3-.32,3.53-.24.3,0,.52.11.66.33v.53l-.59.92-.45.39h-1.78Z"/>
      <path class="cls-1" d="m210.96,74.09c-.88-.08-1.72-.23-2.53-.45-.81-.22-1.57-.57-2.27-1.07l-.08-.18-.45-.33c-.53-.71-.85-1.5-.96-2.38s-.14-1.8-.08-2.77l.12-1.19h-.59c-.57.14-1.17.23-1.77.27s-1.22.04-1.83,0v-.33l4.27-.45c.1-.57.2-1.13.31-1.68s.25-1.09.43-1.62h1.76v.47l-.59,2.62h.47l1.85-.21v-2.89l.33-3.69h1.76v.47l-.25,2.62v3.36h1.25l2.3-.12c.08-.83.19-1.66.33-2.47.14-.81.31-1.62.53-2.41h1.76v.39c-.18.71-.33,1.44-.46,2.18-.13.75-.24,1.51-.32,2.31h2.89v.33h-2.89c-.14.52-.25,1.05-.34,1.6-.09.55-.22,1.09-.4,1.62h-1.7v-.53l.45-2.62h-.25l-3.1.21v.98l.33,2.75,2.17.14,2.77-.14v.35l-1.07.12h-3.75v.27l.14.66-1.78.06c-.18-.79-.32-1.61-.43-2.44s-.18-1.69-.23-2.56h-.8l-1.7.21-.14,3.55c.1,1.09.51,2.06,1.25,2.89l.86.66c.66.31,1.35.56,2.07.74s1.46.31,2.21.39v.33h-1.85Z"/>
      <path class="cls-1" d="m224.91,73.1l-.33-.33-.06-1.97.21-1.72h-.14l-.66.72h-.12l-.27.47-.21.06-.45.72-1.85.08v-.33l.33-.47h.14l.33-.59.39-.39h.12l.21-.39.39-.41h.14l.12-.25.21-.08.06-.18.18-.06.14-.27.21-.08.12-.25.21-.08.06-.18.92-.92.39-.21.12-.27,1.07-.98c.7-.74,1.62-.98,2.77-.72v.33l-.41.21-.12.18-.72.66h-.14l-.06.21-.72.53-.08.18-.33.33-.72.53-.06.21-.66.78h.92v1.25l-.21,2.56h1.78v.33c-.4.44-.88.69-1.46.76s-1.17.08-1.78.04Zm13.04,1.37v-.06c-.66-1.41-1.25-2.83-1.77-4.28-.53-1.44-1.01-2.94-1.45-4.48l-.41-.06c-.66.26-1.35.45-2.07.58-.72.13-1.48.15-2.26.07v-.33l4.33-1.13v-.39c-.22-.7-.44-1.41-.66-2.13s-.37-1.46-.45-2.21h1.78l1.17,4.29h.41c.83-.26,1.75-.35,2.75-.27v.33l-2.89.66v.14c.53,1.57,1.07,3.13,1.62,4.67s1.13,3.07,1.74,4.6h-1.85Zm.72-12.04v-.06c-.44-.66-.82-1.33-1.15-2.01s-.56-1.4-.7-2.15h1.78c.26.75.57,1.47.92,2.15s.66,1.37.92,2.07h-1.78Z"/>
      <path class="cls-1" d="m256.53,73.55v-.06c-.97-1.63-1.81-3.29-2.51-5s-1.51-3.38-2.43-5l-.21-.12c-.34-.44-.76-.81-1.25-1.13h-.33l-1.7,1.07-.39.39h-.14l-.06.21-.72.72h-.14l-1.05,1.52-.92,1.25-.86,1.91h-1.85v-.41c.27-.66.6-1.28,1-1.87.39-.59.78-1.19,1.18-1.8l.21-.06.33-.59.39-.41h.14l.72-.84.27-.27c.66-.62,1.41-1.01,2.27-1.19.85-.18,1.77-.22,2.74-.12.56.08,1.06.32,1.5.72l.35.33c1.09,1.71,2.02,3.49,2.79,5.33s1.59,3.66,2.46,5.46h-1.76Z"/>
    </g>
  </g>
</svg>