<?xml version="1.0" encoding="UTF-8"?>
<svg id="_レイヤー_2" data-name="レイヤー 2" xmlns="http://www.w3.org/2000/svg" viewBox="0 0 239.1 149">
  <defs>
    <style>
      .cls-1, .cls-2 {
        fill: #fff;
      }

      .cls-2 {
        opacity: .2;
      }
    </style>
  </defs>
  <g id="_レイヤー_1-2" data-name="レイヤー 1">
    <circle class="cls-2" cx="74.5" cy="74.5" r="74.5"/>
    <g>
      <path class="cls-1" d="m84.24,64.13c.3-.32.52-.65.72-.65.3,0,1.85,1.6,1.85,1.97-.2.17-.52.22-1.07.27-1.65,1.22-4.12,2.84-6.44,3.92l.42.05c-.07.37-.27.55-.82.65v3.19h6.44l.6-.82c.32-.4.57-.82.77-.82.3,0,2.22,1.62,2.22,2-.05.27-.27.37-.62.37h-9.41v8.68c0,1.37-.32,2.27-3.02,2.52-.12-.52-.32-.95-.75-1.17-.47-.3-1.35-.52-2.82-.7v-.4s3.57.25,4.24.25c.55,0,.72-.15.72-.62v-8.56h-5.99c-1.3.03-2.5.15-3.74.35l-.62-1.27c1.1.12,2.2.17,3.32.2h7.04c0-1.37-.08-3.09-.27-4.24l1.65.27c1.7-1.15,3.52-2.82,4.71-4.09h-9.63c-1.3.03-2.49.15-3.74.35l-.67-1.27c1.1.12,2.2.17,3.32.2h11.08l.52-.62Z"/>
      <path class="cls-1" d="m105,67.35l.2-.27c7.31,1.67,6.91,6.11,4.94,5.14-.32-.72-.92-1.5-1.62-2.22-3.09.4-7.23.87-12.9,1.42-.17.3-.4.47-.65.52l-.92-2.17c1.05,0,2.64,0,4.57-.05.55-1,1.2-2.32,1.62-3.37h-3.67c-1.3.02-2.49.15-3.74.35l-.62-1.25c1.1.12,2.2.17,3.32.2h6.59c0-1.05-.05-2.3-.2-3.17,2.64.77,2.64,1.02,2.22,1.3l-.42.27v1.6h6.59l.5-.75c.27-.37.5-.75.7-.75.3,0,2,1.42,2,1.8-.05.27-.27.4-.62.4h-10.63c-.8,1.12-1.82,2.42-2.67,3.34,2.42-.05,5.31-.15,8.36-.25-.95-.85-2.02-1.57-2.92-2.1Zm-6.74,14.64c.05,1.42.05,1.9.12,2.72-.12.32-.75.7-1.42.7-.27,0-.5-.25-.5-.5.12-1.6.17-2.4.22-4.79v-2.64c0-1.7-.1-3.74-.32-5.11l2.02.92h9.11l.35-.5c.2-.25.33-.5.52-.5.3,0,1.95,1.2,1.95,1.57-.15.17-.52.37-1.02.47v8.83c0,1.27-.27,2.05-2.57,2.3-.08-.5-.22-.9-.55-1.12-.37-.25-1.02-.47-2.15-.6v-.4s2.57.2,3.12.2c.47,0,.6-.17.6-.52v-2.44h-9.48v1.42Zm9.48-7.96h-9.48v2.47h9.48v-2.47Zm-9.48,5.81h9.48v-2.59h-9.48v2.59Z"/>
      <path class="cls-1" d="m133.32,67.27c-1.37-.2-2.82.32-3.07.47-.47.25-1.82,1.75-2.47,3.69-1.6,4.79-1.1,7.96-.17,9.31.85,1.22,2.79.82,3.89.8,1.27-.05,2.4.12,2.35.92-.03.72-1.32.87-1.85.9-2.15.15-3.99.17-5.29-1.45-1.15-1.42-1.3-2.92-1.35-4.67-.08-5.91,3.82-9.38,3.77-9.53-.08-.12-.38.05-.65.1-1.05.27-4.69,1.87-5.74,2.27-.45.17-1.45.87-2.02.95-1.15.15-2.49-1.57-2.59-1.72-.12-.15-.15-.35-.05-.47.15-.15.27-.07.5.02.22.1.9.6,1.77.4.87-.2,6.94-2.45,10.95-3.07.77-.1,1.15-.5,2.22-.72.77-.15,2.17.47,2.44.95.25.5.3.9-.22,1.12-.17.1-1.62-.17-2.42-.27Z"/>
      <path class="cls-1" d="m161.04,65.65c.3-.37.52-.77.72-.77.3,0,2.05,1.5,2.05,1.87-.05.27-.27.4-.6.4h-17.49v5.29c0,4.02-.22,9.33-3.64,13l-.32-.25c2.22-3.74,2.39-8.41,2.39-12.72v-3.44c0-1.17-.07-2.57-.22-3.54l2.07.92h6.64c0-1.27-.07-2.79-.22-3.84,2.67.77,2.67,1.02,2.22,1.3l-.42.27v2.27h6.31l.52-.75Zm-12.27,8.08c.85,3.37.1,5.81-.72,6.84-.47.7-1.4,1-1.8.47-.3-.42-.12-1.02.3-1.45,1-1.02,1.87-3.44,1.8-5.86h.42Zm2.37,2.74c0-1.65-.1-3.74-.32-5.11,2.62.77,2.62,1.02,2.22,1.27l-.4.25v9.98c0,.45.15.6,1.07.6h2.27c1.05,0,1.85,0,2.15-.02.27-.02.4-.1.5-.35.17-.4.47-1.95.75-3.49h.32l.05,3.64c.55.17.65.37.65.7,0,.75-.75,1.02-4.47,1.02h-2.49c-1.87,0-2.3-.42-2.3-1.72v-6.76Zm1.1-8.08c6.44,1.65,5.71,5.94,3.87,4.89-.55-1.62-2.49-3.59-4.12-4.67l.25-.22Zm7.36,5.14c6.09,3.54,4.29,8.91,2.67,7.11-.2-1.85-.92-4.94-2.92-6.86l.25-.25Z"/>
      <path class="cls-1" d="m172.66,67.45c.25-.35.42-.7.62-.7.3,0,1.7,1.32,1.7,1.7-.08.27-.27.4-.6.4h-2.79v4.69c1.02-.4,2.09-.82,3.17-1.27l.12.35c-.87.55-1.97,1.27-3.29,2.07v8.38c0,1.35-.22,2.17-2.3,2.42-.07-.52-.2-1-.45-1.25-.32-.3-.87-.47-1.8-.6v-.42s2.07.17,2.54.17c.4,0,.52-.12.52-.5v-7.31c-.62.35-1.3.75-2.02,1.15-.05.32-.2.57-.42.67l-1.02-2.02c.7-.22,1.95-.67,3.47-1.27v-5.26h-1.05c-.6.02-1.17.15-1.75.35l-.62-1.27c.77.12,1.55.17,2.35.2h1.07v-.5c0-1.7-.1-3.74-.32-5.11,2.69.8,2.69,1.05,2.25,1.32l-.45.27v4.02h.65l.42-.67Zm13.67,5.54c.27-.35.47-.72.67-.72.3,0,1.92,1.37,1.92,1.75-.08.25-.27.37-.6.37h-8.76c-.17.72-.35,1.45-.57,2.12h5.49l.45-.47c.25-.25.45-.5.65-.5.3,0,1.65,1.25,1.65,1.62-.17.2-.45.27-1,.3-.8,1.55-1.82,2.92-3.17,4.12,1.75,1.05,3.79,1.8,5.96,2.27l-.03.27c-.65.12-1.12.57-1.32,1.35-2.2-.7-4.12-1.7-5.66-3.02-1.82,1.32-4.07,2.35-6.79,3.04l-.15-.4c2.4-.85,4.42-2.02,6.04-3.47-1.05-1.1-1.9-2.4-2.54-3.94-1.22,3.14-3.17,5.76-6.26,7.81l-.25-.32c3.29-2.89,5.06-6.56,5.91-10.78h-1.27c-.8.02-1.55.15-2.3.35l-.65-1.25c.97.12,1.95.17,2.94.2h1.37c.15-.82.27-1.67.35-2.54h-1.32c-.8.02-1.55.15-2.29.35l-.62-1.27c1.1.12,2.2.17,3.32.2h5.09c.12-.2.25-.4.4-.6.87-1.4,1.67-3.39,1.92-4.77,2.54.9,2.54,1.15,2.07,1.32l-.45.15c-.75,1.25-2.02,2.77-3.34,3.89h2.39l.45-.67c.25-.35.45-.7.65-.7.3,0,1.82,1.32,1.82,1.7-.07.27-.27.4-.62.4h-7.73c-.12.87-.25,1.72-.4,2.54h6.09l.5-.7Zm1.42-8.78c-.2.2-.65.22-1.15,0-3.14.6-7.93,1.2-12.1,1.35l-.05-.45c3.97-.5,8.98-1.55,11.65-2.42l.82.77.82.75Zm-11.73,1.87c3.92,1.82,2.47,4.69,1.1,3.49-.12-1.1-.8-2.47-1.4-3.34l.3-.15Zm2.89,11.18c.72,1.4,1.77,2.57,3.04,3.54,1.02-1.05,1.85-2.25,2.45-3.54h-5.49Zm.77-11.5c3.84,2,2.35,4.86,1,3.64-.07-1.15-.75-2.59-1.32-3.49l.32-.15Z"/>
      <path class="cls-1" d="m193.7,67.12c.6,2.64.17,4.69-.42,5.59-.42.6-1.25.92-1.62.45-.3-.42-.1-1,.27-1.4.67-.82,1.37-2.84,1.35-4.67l.42.02Zm1.5.47c0-1.65-.1-3.74-.33-5.11,2.69.8,2.69,1.05,2.25,1.35l-.45.27v14.79c.05,2.99.1,3.99.2,5.86-.2.35-.82.72-1.4.72-.27,0-.55-.25-.55-.5.15-2.15.22-3.24.27-6.49v-10.9Zm2.17-1.32c3.57,2.25,2.1,5.06.87,3.82-.02-1.17-.6-2.72-1.17-3.67l.3-.15Zm13.02,1.05c.25-.35.45-.7.65-.7.3,0,1.82,1.32,1.82,1.7-.08.27-.27.4-.62.4h-5.51v2.22h4.27l.47-.7c.25-.35.45-.7.65-.7.3,0,1.9,1.35,1.9,1.72-.08.27-.27.4-.6.4h-10.6c-1.3.02-2.49.15-3.74.35l-.65-1.27c1.1.12,2.2.17,3.32.2h3.47v-2.22h-1.57c-1,.03-1.95.15-2.89.35l-.65-1.27c1.1.12,2.2.17,3.32.2h1.8v-2.05h-1.92c-1.25.02-2.4.15-3.59.35l-.62-1.3c1.1.12,2.2.17,3.32.2h2.82c0-.85-.05-1.87-.15-2.62,2.47.75,2.47,1,2.07,1.27l-.4.25v1.1h3.84l.47-.67c.25-.35.45-.7.65-.7.3,0,1.9,1.35,1.9,1.72-.05.27-.27.4-.6.4h-6.26v2.05h3.22l.45-.67Zm-8.01,14.5c.05,1.52.05,2.05.12,2.92-.12.3-.75.7-1.4.7-.25,0-.45-.25-.45-.5.1-1.55.15-2.32.2-4.64v-2.57c0-1.7-.1-3.74-.32-5.11l1.95.95h7.19l.35-.5c.2-.25.32-.52.52-.52.3,0,1.95,1.17,1.95,1.55-.17.17-.55.4-1.02.5v8.58c0,1.27-.22,2.05-2.25,2.27-.05-.5-.15-.95-.42-1.17-.3-.27-.77-.47-1.62-.6v-.4s1.85.17,2.29.17c.35,0,.45-.15.45-.5v-2.64h-7.53v1.52Zm7.53-7.56h-7.53v2.25h7.53v-2.25Zm-7.53,5.29h7.53v-2.32h-7.53v2.32Z"/>
      <path class="cls-1" d="m224.93,65.22c.25-.35.45-.7.65-.7.3,0,1.8,1.35,1.8,1.72-.05.27-.3.4-.62.4h-3.99v3.12h2.22l.5-.72c.27-.35.47-.72.67-.72.3,0,1.85,1.4,1.85,1.77-.05.27-.3.4-.62.4h-6.59c-1.3.02-2.49.15-3.74.35l-.65-1.27c1.1.12,2.2.17,3.29.2h1.57v-3.12h-1.32c-.8.02-1.55.15-2.3.35l-.65-1.27c.95.12,1.9.17,2.89.2h1.37c0-1.12-.08-2.54-.22-3.49,2.49.75,2.49,1,2.1,1.27l-.38.25v1.97h1.7l.47-.7Zm.3,13.15c.25-.35.45-.72.65-.72.3,0,1.82,1.4,1.82,1.77-.05.27-.3.4-.6.4h-4.34v1.75c.05,1.72.08,2.3.15,3.32-.17.25-.65.62-1.42.62-.22,0-.4-.25-.4-.5.1-1.1.12-1.65.17-3.29v-1.9h-1.37c-.85.02-1.67.15-2.5.35l-.65-1.27c1,.12,2,.17,3.04.2h1.47v-3.44h-1.52c-.95.02-1.8.15-2.69.35l-.65-1.27c1.1.12,2.2.17,3.32.2h3.29c.4-1.4.77-3.22.82-4.44,2.54.8,2.54,1.05,2.1,1.22l-.42.17c-.5.87-1.17,2.05-1.92,3.04h1.37l.47-.7c.25-.35.45-.72.65-.72.3,0,1.85,1.37,1.85,1.75-.08.27-.3.4-.62.4h-4.54v3.44h2l.47-.72Zm-6.49-7.61c3.52,2.25,1.9,5.06.6,3.74.02-1.17-.47-2.67-.92-3.62l.32-.12Zm17.19-7.04c.2-.27.32-.55.52-.55.3,0,1.9,1.27,1.9,1.65-.15.2-.55.42-1.02.5v3.62c0,1.22-.27,2.02-2.54,2.25-.08-.47-.2-.87-.5-1.12-.37-.22-1.02-.47-2.12-.6v-.4s2.49.2,3.09.2c.45,0,.55-.15.55-.5v-3.77h-5.91v7.71h5.96l.42-.47c.25-.25.42-.5.62-.5.3,0,1.6,1.17,1.6,1.55-.15.22-.4.3-.92.32-.5,2.37-1.27,4.77-2.57,6.89,1.15,1.4,2.54,2.52,4.09,3.32l-.05.25c-.67.05-1.2.5-1.5,1.25-1.32-.95-2.45-2.12-3.39-3.52-1.02,1.37-2.27,2.62-3.84,3.64l-.27-.35c1.45-1.2,2.59-2.69,3.49-4.34-1.12-2.02-1.9-4.44-2.37-7.31h-1.27v5.39c.05,2.99.1,3.99.2,5.86-.2.37-.72.77-1.45.77-.25,0-.52-.25-.52-.5.15-2.15.22-3.24.27-6.49v-10.03c0-1.7-.1-3.74-.32-5.11l1.95.95h5.56l.35-.55Zm-4.27,9.7c.52,2.3,1.37,4.29,2.52,5.99.87-1.9,1.45-3.94,1.8-5.99h-4.32Z"/>
    </g>
  </g>
</svg>