<?xml version="1.0" encoding="UTF-8"?>
<svg id="_レイヤー_2" data-name="レイヤー 2" xmlns="http://www.w3.org/2000/svg" viewBox="0 0 68.06 34.59">
  <defs>
    <style>
      .cls-1 {
        fill: #231815;
      }
    </style>
  </defs>
  <g id="_レイヤー_1-2" data-name="レイヤー 1">
    <g>
      <path class="cls-1" d="m2.81,6.89h5.62c.74-2.05,1.32-4.35,1.73-6.89,2.51.46,3.77.96,3.77,1.5,0,.36-.53.62-1.58.77-.64,1.62-1.51,3.15-2.62,4.62h10.93l1.46-1.81c1.67,1.26,2.5,2.06,2.5,2.42,0,.15-.09.29-.27.42l-.96.62v25.86h-2.35v-3.54H2.35v3.54H0V5.62c.9.36,1.83.78,2.81,1.27Zm-.46.96v6.46h18.7v-6.46H2.35Zm18.7,14v-6.62H2.35v6.62h18.7Zm0,8.08v-7.16H2.35v7.16h18.7Z"/>
      <path class="cls-1" d="m49.83,10.08h5.31c.13-1.33.19-2.57.19-3.69V.65c2.39,0,3.58.29,3.58.88,0,.36-.49.72-1.46,1.08v3.77c0,1.44-.05,2.67-.15,3.69h6.35l1.69-2.27c.82.77,1.58,1.59,2.27,2.46l-.46.77h-9.23c1.98,4.69,5.36,8.45,10.16,11.27-.67.46-1.3,1.18-1.89,2.16-4.69-3.46-7.73-7.67-9.12-12.62-.59,3.39-1.78,6.1-3.58,8.16-1.51,1.77-3.77,3.37-6.77,4.81l-.54-.88c3.44-2.03,5.85-4.44,7.23-7.23.69-1.44,1.23-3.32,1.62-5.66h-5.54c-3,6.77-7.77,11.85-14.31,15.24l-.54-.81c7.21-4.67,11.89-11.05,14.04-19.16h-5.96c-.41.87-.85,1.72-1.31,2.54,3.08,1.21,4.62,2.53,4.62,3.96,0,.77-.37,1.15-1.12,1.15-.49,0-.87-.35-1.15-1.04-.38-1.05-1.32-2.13-2.81-3.23-.54.85-1.26,1.86-2.15,3.04,2.87,1.57,4.31,3.12,4.31,4.66,0,.82-.37,1.23-1.12,1.23-.49,0-.86-.41-1.12-1.23-.38-1.23-1.27-2.53-2.65-3.89-1.03,1.31-2.26,2.59-3.69,3.85l-.69-.77c4.05-4.39,6.84-9.75,8.35-16.08,2.36.64,3.54,1.21,3.54,1.69,0,.31-.56.56-1.69.77-.33.95-.63,1.73-.88,2.35h5.35l1.42-1.69c1.51,1.33,2.27,2.21,2.27,2.62,0,.18-.13.32-.38.42l-.92.46c-.33,1.13-.68,2.12-1.04,2.96Zm-9.5,15.24l.88.31c-.21,3.03-1.1,5.53-2.69,7.5-.82.97-1.64,1.46-2.46,1.46-.9,0-1.35-.46-1.35-1.39,0-.44.41-.91,1.23-1.42,1.95-1.23,3.41-3.39,4.39-6.46Zm5.54-.12c1.9,2.36,2.85,4.52,2.85,6.46,0,1.49-.51,2.23-1.54,2.23-.74,0-1.12-.45-1.12-1.35v-.23c.02-.31.04-.73.04-1.27,0-1.72-.35-3.54-1.04-5.46l.81-.38Zm6.89-.19c3.23,2.51,4.85,4.87,4.85,7.08,0,1.15-.51,1.73-1.54,1.73-.69,0-1.1-.5-1.23-1.5-.21-2.23-1.12-4.46-2.73-6.69l.65-.62ZM59.79,1.92c2.9,1.44,4.35,2.92,4.35,4.46,0,.95-.45,1.42-1.35,1.42-.62,0-.98-.41-1.08-1.23-.28-1.41-1.1-2.74-2.46-4l.54-.65Zm.5,22.97c2.49,1.23,4.44,2.66,5.85,4.27.87.95,1.31,1.91,1.31,2.89,0,1.08-.48,1.62-1.42,1.62-.62,0-1.09-.51-1.42-1.54-.67-2.05-2.28-4.23-4.85-6.54l.54-.69Z"/>
    </g>
  </g>
</svg>