<?xml version="1.0" encoding="UTF-8"?>
<svg id="_レイヤー_2" data-name="レイヤー 2" xmlns="http://www.w3.org/2000/svg" viewBox="0 0 249.78 149">
  <defs>
    <style>
      .cls-1, .cls-2 {
        fill: #fff;
      }

      .cls-2 {
        opacity: .2;
      }
    </style>
  </defs>
  <g id="_レイヤー_1-2" data-name="レイヤー 1">
    <circle class="cls-2" cx="74.5" cy="74.5" r="74.5"/>
    <g>
      <path class="cls-1" d="m96.31,71.26c.38-.52.67-1.05.87-1.05.3,0,2.74,2.15,2.74,2.52-.08.3-.35.4-.72.4h-16.84c-1.3.02-2.5.15-3.74.35l-.7-1.4c1.1.12,2.2.17,3.32.2h14.37l.7-1.02Z"/>
      <path class="cls-1" d="m105.25,80.79c.05.77.05,1.02.1,1.4-.1.27-.57.7-1.32.7-.25,0-.52-.25-.52-.5.15-2.15.22-3.24.27-6.49v-7.31c0-1.7-.1-3.74-.32-5.11l2.12.92h2.79l.37-.5c.22-.25.38-.52.57-.52.3,0,1.82,1.2,1.82,1.57-.15.2-.52.4-1.02.5v9.7c.05,2.99.1,3.99.2,5.86-.22.32-.95.72-1.47.72-.22,0-.32-.25-.32-.5.05-.2.05-.32.1-.65v-.57h-3.37v.77Zm3.37-15.64h-3.37v6.66h3.37v-6.66Zm-3.37,14.17h3.37v-6.76h-3.37v6.76Zm17.06-9.68c.27-.37.47-.75.67-.75.3,0,2,1.45,2,1.82-.05.27-.27.4-.6.4h-9.7c-1.3.02-2.5.15-3.74.35l-.62-1.27c1.1.12,2.2.17,3.32.2h2.79v-3.67h-1.7c-1.05.02-2.05.15-3.04.35l-.65-1.27c1.1.12,2.2.17,3.32.2h2.07c0-1.3-.08-2.84-.25-3.92,2.67.77,2.67,1.02,2.22,1.32l-.45.27v2.32h3.09l.5-.72c.27-.35.47-.72.67-.72.3,0,1.97,1.4,1.97,1.77-.08.27-.32.4-.65.4h-5.59v3.67h3.87l.5-.75Zm-.17,4.89l.47-.7c.25-.35.45-.7.65-.7.3,0,1.87,1.35,1.87,1.72-.05.27-.3.4-.62.4h-3.52v7.31c0,1.35-.22,2.15-2.54,2.37-.05-.5-.17-.92-.55-1.15-.37-.3-1-.47-2.12-.62v-.4s2.62.17,3.12.17c.45,0,.57-.12.57-.5v-7.19h-4.67c-1.3.02-2.49.15-3.74.35l-.62-1.27c1.1.12,2.2.17,3.32.2h5.71c0-.97-.05-2.2-.17-3.04,2.52.77,2.52,1.02,2.1,1.27l-.4.25v1.52h1.15Zm-9.48,1.65c5.29,2.02,3.92,5.71,2.22,4.42-.25-1.4-1.47-3.14-2.47-4.22l.25-.2Z"/>
      <path class="cls-1" d="m133.22,71.98v10.58c0,1.25-.27,2.2-2.32,2.4-.03-.47-.12-.92-.42-1.15-.3-.3-.85-.5-1.82-.62v-.4s2.12.17,2.57.17c.4,0,.5-.12.5-.47v-10.5h-1.25c-.75.02-1.47.15-2.2.35l-.67-1.25c1.1.12,2.2.17,3.32.2h4.67l.42-.52c.22-.25.4-.52.6-.52.3,0,1.67,1.4,1.67,1.77-.17.17-.4.25-.9.27-.6,1.07-1.67,2.77-2.47,3.77l-.35-.2c.35-1,.82-2.67,1.12-3.87h-2.47Zm2.15-8.56c.25-.27.45-.57.65-.57.3,0,1.62,1.52,1.62,1.9-.2.17-.47.22-.97.25-.8.87-2.27,2.07-3.52,2.94,1.92,1.57,1.25,3.39-.05,2.69-.55-1.42-2.42-3.14-3.92-4.04l.22-.25c1.42.3,2.5.75,3.24,1.25.7-.85,1.52-1.95,2.1-2.84h-2.17c-1.3.03-2.49.15-3.74.35l-.65-1.3c1.1.12,2.2.17,3.32.2h3.39l.47-.57Zm7.56,18.19h-.4c-1.4,1.27-4.17,2.67-6.51,3.42l-.2-.35c.57-.32,1.17-.72,1.77-1.15,1.32-.97,2.82-2.44,3.42-3.72l1.25,1c1.07.55,1.07.8.67.8Zm4.07-14.54c.2-.25.35-.52.55-.52.3,0,1.67,1.2,1.67,1.57-.15.15-.45.32-.87.42v5.29c.05,2.99.1,3.99.2,5.86-.22.25-.95.65-1.5.65h-.22v-1h-6.66v.65c0,.17-.57.57-1.25.57-.27,0-.5-.25-.5-.5.12-1.77.17-2.67.22-5.34v-2.92c0-1.7-.1-3.74-.32-5.11l1.97.9h1.9c.17-.77.35-1.87.47-2.82h-1.67c-1.05.02-2,.15-2.99.35l-.65-1.27c1.1.12,2.2.17,3.32.2h6.24l.5-.75c.27-.37.5-.75.7-.75.3,0,2.02,1.45,2.02,1.82-.08.27-.3.4-.62.4h-4.96c-.5.97-1.07,2.05-1.62,2.82h3.72l.37-.52Zm-.17,1.27h-6.66v2.87h6.66v-2.87Zm-6.66,3.59v2.94h6.66v-2.94h-6.66Zm0,6.66h6.66v-2.99h-6.66v2.99Zm4.24,1.62c6.39,1.6,5.71,5.54,3.87,4.59-.67-1.45-2.59-3.32-4.12-4.34l.25-.25Z"/>
      <path class="cls-1" d="m166.82,74.58c-.15,1.55-.92,5.51-2.47,7.06-.57.57-1.5,1.27-1.95,1.02-.5-.27-.6-.62-.87-1.22-.22-.5-.45-.82-1.2-1.9-.12-.2-.32-.42-.25-.5.12-.1.47.17,1.02.57.6.4,1.15.87,1.52.85.6,0,1.42-.37,2.29-3.27.85-2.89,1.15-5.71-.15-6.56-.72-.47-2.4.1-3.54.62-.57,2.54-1.67,6.04-3.74,9.43-.6.97-1.37,1.52-1.92.95-.37-.4-.15-1.17.8-2.44,2.15-2.89,3.04-5.51,3.49-7.31-1.12.5-2.49,1.02-2.94,1.12-.35.1-1.52.08-2.42-1.4-.2-.32-.38-.77-.1-.85.17-.08.38.07.7.25.7.37,1.15.32,1.45.3.7-.02,2.29-.32,3.62-.85.05-.2.07-.37.1-.52.3-1.35.42-3.14-.27-4.07-.2-.25-.8-.75-.7-1.02.15-.5,2.1-.07,2.47.27.7.72.25,1.8.1,2.64-.05.37-.15,1.15-.37,2.22,1.27-.4,3.09-.75,4.09-.02,1.3.95,1.4,2.72,1.25,4.62Zm7.04.85c-.2.03-.32-.1-.85-.42-.47-.37-2.27-.57-2.37-.57s-.32-.02-.35-.1c0-.1.25-.12.25-.12,0,0,1.52-.12,1.82-.2.32-.07.7-.22.97-.42.27-.22.2-1.35-.75-2.37-.87-.95-2.5-1.62-2.79-1.7-.08-.02-.25-.05-.22-.15.03-.07.25-.05.3-.05,3.52.08,5.41,2.17,5.49,3.79.1,1.82-1.27,2.29-1.5,2.32Z"/>
      <path class="cls-1" d="m187.38,64.38c.25,1.65-.72,4.22-1.15,5.39-.05.17-.1.32-.15.5.7-1.22,1.9-2.44,3.39-2.37,1.87.1,4.44,2.42,3.39,8.46s-6.31,7.41-6.99,7.61c-.15.03-.27,0-.32-.12-.02-.1,0-.17.12-.22,3.69-1.55,5.14-4.47,5.66-7.81.57-3.64-.75-7.04-2.34-7.04-1.62-.02-2.59,1.65-2.92,3.22-.42,2.22.05,2.64.37,3.37.2.45.7,1.25.37,1.65-.22.25-.57.3-.95.1-.82-.4-1.25-1.4-1.42-2.47-.47-2.74,1.72-7.53,1.92-9.28.08-.75.1-1.15-.3-1.57-.25-.3-.67-.5-.57-.65.12-.15.65-.1,1.12.17.45.27.67.65.75,1.07Z"/>
      <path class="cls-1" d="m219.92,73.11c.22-.27.37-.55.57-.55.3,0,1.82,1.27,1.82,1.65-.17.2-.55.4-1.05.5v2h.6l.47-.75c.27-.37.47-.75.67-.75.3,0,1.9,1.47,1.9,1.85-.07.27-.3.4-.62.4h-3.02v1.3c.05,1.27.05,1.7.12,2.42-.15.3-.87.7-1.4.7-.22,0-.32-.25-.32-.5.05-.12.05-.2.1-.4v-.47h-5.29v2.1c0,1.32-.3,2.17-2.77,2.42-.08-.5-.25-.9-.65-1.12-.4-.27-1.12-.5-2.4-.65v-.4s2.97.25,3.57.25c.52,0,.65-.17.65-.6v-2h-3.24c-1.3.03-2.5.15-3.74.35l-.65-1.25c1.1.12,2.2.17,3.32.2h4.32v-2.35h-5.91c-1.3.02-2.5.15-3.74.35l-.62-1.3c1.1.12,2.2.17,3.32.2h6.96v-2.29h-3.09c-1.3.02-2.5.15-3.74.35l-.65-1.3c1.1.12,2.2.17,3.32.2h4.17v-2.3h-5.19v.8c0,.15-.7.5-1.3.5-.22,0-.35-.25-.35-.5.07-.5.07-.75.12-1.5v-1.02c0-1.02-.05-2.27-.2-3.14l1.9.92h5.01v-1.97h-5.86c-1.3.02-2.5.15-3.74.35l-.65-1.3c1.1.12,2.2.17,3.32.2h6.94c0-.87-.05-1.95-.15-2.69,2.59.77,2.59,1.02,2.17,1.32l-.42.27v1.1h6.74l.55-.75c.3-.37.55-.77.75-.77.3,0,2.12,1.5,2.12,1.87-.05.27-.27.4-.6.4h-9.55v1.97h4.94l.4-.47c.22-.25.37-.5.57-.5.3,0,1.87,1.12,1.87,1.5-.17.2-.55.4-1.02.5v1.1c.05,1.1.05,1.45.1,2.05-.12.27-.87.65-1.4.65h-.27v-.87h-5.19v2.3h5.04l.4-.55Zm-12.22-2.47h5.19v-2.49h-5.19v2.49Zm11.97-2.49h-5.19v2.49h5.19v-2.49Zm-5.19,6.26v2.29h5.29v-2.29h-5.29Zm5.29,5.39v-2.35h-5.29v2.35h5.29Z"/>
      <path class="cls-1" d="m246.61,76.38c.27-.35.5-.72.7-.72.3,0,1.95,1.4,1.95,1.77-.08.27-.3.37-.65.37h-8.38c2.27,2.37,6.26,4.32,9.55,5.19l-.02.27c-.6.07-1.15.57-1.32,1.3-3.37-1.3-6.84-3.74-8.86-6.76h-.17v2.25c.05,2.22.07,2.97.15,4.32-.15.25-.67.6-1.47.6-.27,0-.45-.25-.45-.5.1-1.27.12-1.92.17-3.84v-2.17c-2.42,2.57-6.01,4.67-9.91,6.04l-.22-.42c3.39-1.55,6.54-3.87,8.61-6.26h-3.82c-1.3.03-2.5.15-3.74.35l-.67-1.27c1.1.12,2.2.17,3.32.2h6.44v-2.44h-3.02c-1.3.02-2.49.15-3.74.35l-.65-1.3c1.1.12,2.2.17,3.32.2h4.09v-2.29h-4.19c-1.3.02-2.5.15-3.74.35l-.65-1.3c1.1.12,2.2.17,3.32.2h2.82c-.15-1.1-.95-2.42-1.72-3.27h-1.85c-1.15.02-2.27.15-3.39.35l-.67-1.27c1.1.12,2.2.17,3.32.2h4.96c0-1.6-.1-3.52-.3-4.81,2.52.75,2.52,1,2.15,1.25l-.35.25v3.32h2.45c0-1.6-.1-3.52-.3-4.81,2.54.75,2.54,1,2.15,1.27l-.37.25v3.29h.87c.95-1.32,1.9-3.14,2.27-4.47,2.44,1,2.44,1.25,1.95,1.37l-.47.12c-.75.95-1.92,2.07-3.04,2.97h3.42l.47-.7c.27-.35.47-.7.67-.7.3,0,1.97,1.37,1.97,1.75-.08.27-.33.37-.65.37h-5.76c1.25.27,1.25.52.77.7l-.45.15c-.57.75-1.45,1.65-2.27,2.42h4.04l.47-.67c.25-.32.45-.67.65-.67.3,0,1.9,1.32,1.9,1.7-.05.27-.27.4-.62.4h-8.21v2.29h4.59l.45-.62c.25-.32.45-.65.65-.65.3,0,1.8,1.25,1.8,1.62-.08.27-.3.4-.65.4h-6.83v2.44h6.71l.5-.7Zm-15.54-13.65c4.57,1.62,3.34,4.86,1.92,3.74-.22-1.2-1.25-2.72-2.22-3.54l.3-.2Zm5.41,8.11h3.84c.62-.97,1.27-2.25,1.72-3.27h-7.54c2.22,1.12,2.45,2.67,1.97,3.27Z"/>
    </g>
  </g>
</svg>