<?xml version="1.0" encoding="UTF-8"?>
<svg id="_レイヤー_2" data-name="レイヤー 2" xmlns="http://www.w3.org/2000/svg" viewBox="0 0 137.85 60.95">
  <defs>
    <style>
      .cls-1 {
        fill: none;
        stroke: #231815;
        stroke-linecap: round;
        stroke-linejoin: round;
        stroke-width: .63px;
      }

      .cls-2 {
        fill: #231815;
      }
    </style>
  </defs>
  <g id="_レイヤー_2-2" data-name="レイヤー 2">
    <line class="cls-1" x1="31.31" y1="37.94" x2="107.14" y2="37.94"/>
    <g>
      <path class="cls-2" d="m7.24,49.05v4.32c0,1.68-.17,3.07-.5,4.16-.39,1.28-1.07,2.37-2.05,3.28l-.3-.28c1.29-1.64,1.93-4.02,1.93-7.14v-5.21c.4.16.76.33,1.08.5h7.87l.58-.68c.63.47.95.79.95.95,0,.07-.04.13-.13.18l-.37.25v10.18c0,.79-.53,1.18-1.59,1.17-.02-.31-.18-.52-.48-.64-.28-.13-.78-.25-1.51-.36v-.42c.96.11,1.69.16,2.2.16.33,0,.49-.16.49-.49v-9.95H7.24Zm4.29,2.72v1.65h1.89l.62-.8c.37.35.64.64.83.89l-.15.28h-6.95l-.13-.37h3.04v-1.65h-2.36l-.12-.37h2.48v-1.91c.96.02,1.44.13,1.44.34,0,.11-.2.24-.59.4v1.17h1.34l.62-.82c.24.2.51.5.83.91l-.16.28h-2.63Zm-1.87,3.24h3.03l.46-.58c.58.44.88.72.88.86,0,.06-.03.11-.1.16l-.34.21v3.01h-.8v-.71h-3.25v1.04h-.85v-4.45c.26.11.54.24.85.39l.13.07Zm-.13.37v2.21h3.25v-2.21h-3.25Z"/>
      <path class="cls-2" d="m23.98,57.6c.39.75,1.06,1.29,2.03,1.62.91.31,2.25.46,4.01.46,1.26,0,2.66-.08,4.2-.25-.26.32-.42.66-.49,1.02h-2.85c-2.24,0-3.85-.17-4.84-.52-1.03-.35-1.79-.94-2.27-1.8-.48.64-1.1,1.34-1.84,2.09,0,.39-.06.58-.18.58-.23,0-.53-.39-.91-1.17.81-.42,1.58-.91,2.32-1.48v-3.9h-2.12l-.18-.37h2.12l.59-.7c.56.5.85.82.85.95,0,.06-.04.11-.12.16l-.33.19v3.12Zm-2.33-9.43c1.67.7,2.51,1.44,2.51,2.21,0,.41-.19.61-.56.61-.23,0-.41-.17-.53-.52-.28-.75-.82-1.43-1.63-2.02l.22-.28Zm6.31,1.29h-2.7l-.18-.37h6.89l.53-.71c.62.49.94.81.94.95,0,.06-.04.11-.12.16l-.36.22c-.01,4.29-.22,6.88-.62,7.78-.28.67-.9,1.01-1.86,1.01,0-.3-.14-.51-.43-.65-.28-.14-.84-.29-1.68-.45v-.39c.83.13,1.58.19,2.26.19.59,0,.95-.26,1.05-.79.26-1.26.4-3.36.42-6.31v-.65h-3.21c-.05,1.98-.25,3.55-.59,4.71-.54,1.8-1.59,3.22-3.13,4.26l-.24-.3c1.36-1.15,2.24-2.77,2.66-4.87.23-1.13.35-2.39.37-3.8Z"/>
      <path class="cls-2" d="m39.91,53.32v3.46c.6-.18,1.26-.4,1.96-.65l.06.39c-1.22.63-2.49,1.19-3.81,1.68-.05.36-.13.53-.25.53-.2,0-.42-.42-.67-1.25.51-.1,1.14-.25,1.87-.45v-3.71h-1.54l-.12-.36h1.66v-3.5h-1.74l-.12-.37h3.12l.7-.88c.31.35.58.67.82.98l-.15.27h-1.78v3.5h.36l.65-.86c.31.33.56.65.76.96l-.15.25h-1.62Zm3.65.55h4.6l.53-.59c.55.43.83.7.83.82,0,.07-.04.12-.13.16l-.31.21v1.8c.13-.16.26-.35.4-.58.6.39.91.67.91.86,0,.09-.08.13-.25.13-.03,0-.12,0-.27-.03-.55.49-1.22.96-1.99,1.41.88.57,1.9.99,3.04,1.26-.28.25-.5.53-.65.85-1.84-.67-3.22-1.73-4.14-3.16v3.81h-.83v-3.4c-1.18,1.14-2.73,2.06-4.65,2.76l-.24-.36c2.11-.9,3.73-2.1,4.85-3.61h-1.86v.53h-.82v-3.27c.22.08.54.21.96.39Zm5.33-1.53l.71-.8c.44.33.77.62.99.88l-.15.28h-8.74l-.15-.36h7.33Zm-.18-1.16h-5.63v.56h-.8v-3.9c.45.22.75.37.92.46h5.39l.56-.62c.56.46.85.74.85.86,0,.04-.03.08-.1.13l-.4.25v2.64h-.79v-.39Zm-5.63-2.51v2.14h1.29v-2.14h-1.29Zm5.2,7.17v-1.59h-4.87v1.59h4.87Zm-1.78-7.17h-1.37v2.14h1.37v-2.14Zm1.78,7.54h-1.91l-.03.03c-.06.08-.11.15-.16.21.41.52.88.99,1.41,1.41.54-.5.96-.94,1.26-1.31h-.56v-.34Zm-1.01-7.54v2.14h1.44v-2.14h-1.44Z"/>
      <path class="cls-2" d="m56.43,51.84v4.97c.59-.2,1.24-.45,1.93-.74l.07.37c-1.36.77-2.66,1.41-3.92,1.91-.03.39-.1.58-.22.58-.24,0-.47-.43-.68-1.29.89-.23,1.55-.41,1.97-.55v-5.25h-1.84l-.13-.39h1.97v-3.71c.98.02,1.47.14,1.47.36,0,.12-.21.25-.62.39v2.97h.56l.64-.92c.28.25.55.58.83,1.01l-.15.3h-1.89Zm3.53,1.54h4.54l.53-.59c.56.44.85.72.85.85,0,.06-.04.11-.13.16l-.31.22v3.43h-.85v-.49h-1.04v2.36c0,.2.08.32.24.36.11.03.38.04.8.04.75,0,1.18-.1,1.28-.31.13-.27.23-.81.3-1.63l.4.1c0,.77.02,1.26.07,1.45.06.2.2.3.43.3-.01.39-.16.63-.45.74-.28.09-1.03.13-2.26.13-.69,0-1.14-.05-1.34-.15-.21-.12-.31-.39-.31-.8v-2.6h-1.01c-.21,1.3-.74,2.25-1.59,2.86-.68.49-1.69.87-3.03,1.13l-.16-.36c2.38-.67,3.68-1.89,3.9-3.64h-.99v.59h-.85v-4.54c.4.14.72.26.96.37Zm2.91-1.32c.4-.74.7-1.48.91-2.23.83.29,1.25.51,1.25.68,0,.13-.2.2-.59.21-.22.38-.58.82-1.08,1.34h2.09l.65-.88c.32.28.64.6.96.98l-.13.27h-9l-.15-.37h5.09Zm-1.11-2.7v-1.83c.97,0,1.45.11,1.45.34,0,.12-.2.26-.61.42v1.07h2.39l.65-.86c.3.28.6.59.91.95l-.16.27h-7.99l-.19-.36h3.55Zm-1.94.52c1.06.47,1.59,1.01,1.59,1.62,0,.37-.18.55-.53.55-.24,0-.38-.17-.43-.5-.04-.46-.31-.93-.82-1.43l.19-.24Zm.03,5.05h4.75v-1.16h-4.75v1.16Zm0,.36v1.32h4.75v-1.32h-4.75Z"/>
      <path class="cls-2" d="m72.96,54.38c.22,0,.42.08.59.25.15.16.22.35.22.56,0,.14-.04.28-.12.42-.17.26-.4.39-.7.39-.19,0-.36-.06-.52-.18-.19-.18-.28-.39-.28-.62,0-.28.11-.5.34-.67.15-.1.3-.15.46-.15Z"/>
      <path class="cls-2" d="m85.55,53.95c-.04.15-.08.38-.13.68-.3,1.9-.8,3.27-1.5,4.1-.51.57-1.25,1.08-2.21,1.51l-.13-.22c1.82-1.07,2.83-2.92,3.03-5.57.02-.49-.17-.88-.56-1.14l.12-.13c.7.07,1.15.21,1.34.43.86-.24,1.62-.78,2.27-1.63-2.92.28-4.7.48-5.34.62-.22.04-.39.06-.52.06-.58,0-.97-.41-1.16-1.23l.15-.04c.3.32.78.47,1.45.47,1.4,0,3.01-.1,4.85-.3.07,0,.13-.01.19-.01.21-.02.42-.09.64-.22.1-.06.17-.09.22-.09.14,0,.35.14.62.42.17.16.25.28.25.36,0,.12-.07.19-.22.22-.12.04-.32.18-.59.42-.82.66-1.74,1.1-2.76,1.31Z"/>
      <path class="cls-2" d="m99.43,52.27c.07,0,.47-.06,1.19-.15.23-.03.45-.12.67-.27.13-.09.23-.13.31-.13.09,0,.25.09.47.26.22.17.32.36.3.57,0,.09-.05.17-.16.24-.14.09-.32.37-.53.83-.98,1.97-2.2,3.48-3.65,4.53-.94.66-2.06,1.19-3.35,1.59l-.21-.16c3.3-1.36,5.54-3.69,6.72-7.01l-1.17.09c-.4,0-.67,0-.82-.04-.93,1.38-2.17,2.48-3.71,3.33l-.24-.12c1.14-.81,2.09-1.78,2.85-2.89.51-.75.78-1.27.8-1.54.02-.2-.14-.36-.48-.49l.16-.15c.91,0,1.36.18,1.34.58-.01.15-.17.47-.49.95Z"/>
      <path class="cls-2" d="m111.78,53.78c-.04-1.37-.1-2.15-.18-2.35-.06-.22-.27-.41-.62-.58l.03-.16c1.04,0,1.56.24,1.56.76,0,.07,0,.12-.01.16-.04.27-.06.79-.06,1.56v.49c1.18-.24,2.21-.47,3.09-.7.3-.09.5-.19.62-.3.06-.08.12-.12.19-.12.11,0,.23.06.36.19.41.22.61.42.61.61,0,.1-.07.18-.21.25-.21.07-.52.33-.95.79-.43.46-1.25,1.19-2.48,2.17l-.19-.12c1.06-1.15,1.89-2.17,2.49-3.07-1.63.38-2.82.66-3.55.86v2.63c0,.56.11.94.33,1.13.3.25.71.37,1.23.37,1.16,0,1.91-.06,2.26-.19.14-.05.28-.07.43-.07.22,0,.41.08.58.24.12.1.18.19.18.28,0,.3-.93.45-2.79.45-1.1,0-1.87-.18-2.32-.55-.26-.22-.43-.53-.5-.94-.05-.22-.07-.64-.07-1.28v-1.9s-2.09.47-2.09.47c-.39.11-.64.16-.76.16-.41,0-.78-.31-1.11-.92l.19-.22c.28.24.59.36.94.36.37,0,1.31-.16,2.82-.47Z"/>
      <path class="cls-2" d="m128.43,55.45l.19.07c.92.12,1.74.49,2.45,1.11.36.3.54.58.56.86.03.39-.11.59-.42.61-.14.01-.27-.08-.4-.27-.73-1.06-1.61-1.76-2.64-2.09-1.28,1.56-3.33,2.7-6.18,3.41l-.12-.16c3.85-1.35,6.33-3.64,7.44-6.87-1.16.19-1.92.32-2.29.4-.83.17-1.3.25-1.4.25-.47,0-.78-.37-.95-1.11l.18-.03c.2.23.52.34.96.34.74,0,1.81-.09,3.19-.28.16-.02.31-.07.46-.16.12-.07.21-.1.27-.1.11,0,.27.14.48.42.14.18.21.34.21.49,0,.09-.05.16-.16.22-.13.06-.26.24-.4.53-.53,1.09-1.01,1.88-1.44,2.36Z"/>
    </g>
    <g>
      <path class="cls-2" d="m1.46,0v24.83h13.69v1.28H0V0h1.46Z"/>
      <path class="cls-2" d="m27.61,7.94c2.24,0,4.03.94,5.35,2.81,1.18,1.66,1.77,3.81,1.77,6.43,0,3.01-.76,5.39-2.29,7.12-1.29,1.48-2.91,2.22-4.83,2.22-2.26,0-4.05-.94-5.37-2.82-1.18-1.66-1.77-3.81-1.77-6.45,0-3.01.76-5.38,2.29-7.1,1.28-1.47,2.9-2.2,4.85-2.2Zm0,1.21c-1.85,0-3.29.8-4.31,2.39-.94,1.43-1.4,3.32-1.4,5.67,0,2.69.6,4.77,1.8,6.24,1.02,1.24,2.32,1.85,3.92,1.85,1.82,0,3.26-.8,4.3-2.41.94-1.44,1.4-3.34,1.4-5.68,0-2.68-.6-4.75-1.8-6.2-1.01-1.24-2.3-1.85-3.9-1.85Z"/>
      <path class="cls-2" d="m54.43,12.77l-1.32.54c-.82-2.77-2.48-4.16-4.99-4.16-1.85,0-3.29.8-4.31,2.39-.94,1.43-1.4,3.32-1.4,5.67,0,2.69.6,4.77,1.8,6.24,1.02,1.24,2.32,1.85,3.92,1.85,2.59,0,4.3-1.4,5.15-4.19l1.3.61c-1.21,3.2-3.36,4.8-6.45,4.8-2.26,0-4.05-.94-5.37-2.82-1.18-1.66-1.77-3.81-1.77-6.45,0-3.01.76-5.38,2.29-7.1,1.28-1.47,2.9-2.2,4.85-2.2,1.54,0,2.86.45,3.98,1.35,1.05.84,1.82,2,2.32,3.48Z"/>
      <path class="cls-2" d="m60.82,12.34c1.17-2.93,3.39-4.4,6.67-4.4,2.1,0,3.63.53,4.57,1.59.85.97,1.28,2.41,1.28,4.33v5.82c0,2.83.16,4.97.47,6.43h-1.32c-.2-.81-.35-1.97-.47-3.48-1.73,2.59-3.92,3.88-6.57,3.88-1.85,0-3.26-.54-4.24-1.63-.81-.89-1.21-2.03-1.21-3.41,0-3.21,1.96-5.14,5.89-5.79,1.51-.25,3.53-.44,6.06-.57v-.99c0-1.95-.39-3.3-1.18-4.04-.69-.65-1.79-.97-3.29-.97-2.76,0-4.56,1.29-5.39,3.86l-1.28-.64Zm11.14,3.88c-2.04.07-3.98.27-5.82.59-3.14.59-4.71,2.13-4.71,4.63,0,1.28.4,2.26,1.21,2.95.72.61,1.67.92,2.86.92,2.54,0,4.7-1.4,6.46-4.19v-4.89Z"/>
      <path class="cls-2" d="m83.88,1.8v6.53h4.5v1.21h-4.5v12.53c0,2.19.94,3.29,2.81,3.29.81,0,1.58-.08,2.3-.24l-.1,1.23c-.75.15-1.48.23-2.2.23-1.42,0-2.49-.4-3.21-1.21-.66-.74-.99-1.77-.99-3.08v-12.73h-3.08v-1.21h3.08V2.13l1.39-.33Z"/>
      <path class="cls-2" d="m96.37,2.06v2.37h-2.24v-2.37h2.24Zm-.42,6.27v17.78h-1.39V8.33h1.39Z"/>
      <path class="cls-2" d="m110.54,7.94c2.24,0,4.03.94,5.35,2.81,1.18,1.66,1.77,3.81,1.77,6.43,0,3.01-.76,5.39-2.29,7.12-1.29,1.48-2.91,2.22-4.83,2.22-2.26,0-4.05-.94-5.37-2.82-1.18-1.66-1.77-3.81-1.77-6.45,0-3.01.76-5.38,2.29-7.1,1.28-1.47,2.9-2.2,4.85-2.2Zm0,1.21c-1.85,0-3.29.8-4.31,2.39-.94,1.43-1.4,3.32-1.4,5.67,0,2.69.6,4.77,1.8,6.24,1.02,1.24,2.32,1.85,3.92,1.85,1.82,0,3.26-.8,4.3-2.41.94-1.44,1.4-3.34,1.4-5.68,0-2.68-.6-4.75-1.8-6.2-1.01-1.24-2.3-1.85-3.9-1.85Z"/>
      <path class="cls-2" d="m126.46,8.33v3.55c2.24-2.63,4.45-3.95,6.64-3.95,1.54,0,2.74.5,3.6,1.49.76.85,1.14,1.97,1.14,3.34v13.34h-1.39v-12.49c0-2.91-1.18-4.37-3.55-4.37-2.1,0-4.24,1.34-6.41,4.02v12.84h-1.39V8.33h1.35Z"/>
    </g>
  </g>
</svg>