<?xml version="1.0" encoding="UTF-8"?>
<svg id="_レイヤー_2" data-name="レイヤー 2" xmlns="http://www.w3.org/2000/svg" viewBox="0 0 750 977">
  <defs>
    <style>
      .cls-1 {
        fill: #fff;
      }

      .cls-2 {
        fill: #040000;
      }

      .cls-3 {
        fill: none;
      }

      .cls-4 {
        fill: #231815;
      }
    </style>
  </defs>
  <g id="_レイヤー_1-2" data-name="レイヤー 1">
    <rect class="cls-3" y="0" width="750" height="977"/>
    <g>
      <path class="cls-4" d="m501.6,87.24h-19.45l-1.56,7.69c1.47-.26,3.29-.43,4.76-.43,6.48,0,11.5,2.33,14.7,5.62,2.59,2.59,5.27,7.09,5.27,13.92,0,7.44-3.2,12.19-5.88,14.87-5.27,5.19-11.59,6.05-17.46,6.05-5.45,0-11.93-.69-19.19-6.31l3.03-12.36c1.56,1.73,3.72,3.63,5.53,4.76,2.42,1.56,5.27,2.51,8.73,2.51,3.03,0,6.14-.69,8.21-2.33,1.82-1.38,3.37-3.89,3.37-7.26s-1.56-5.53-2.94-6.74c-.69-.61-3.54-3.03-9.6-3.03-4.84,0-8.91,1.47-11.76,3.03l5.88-31.21h28.36v11.24Z"/>
      <path class="cls-4" d="m522.69,132.56c1.66-4.41,2.65-9.72,2.96-15.95,3.44.66,5.16,1.33,5.16,2.03,0,.43-.6.77-1.8,1.04-1.16,5.61-2.86,10.11-5.1,13.51l-1.22-.64Zm5.92-23.08c4.45-5.84,8.14-11.62,11.08-17.34,2.86,1.24,4.29,2.28,4.29,3.13,0,.46-.79.7-2.38.7-2.9,4.45-6.52,8.93-10.85,13.46,3.79-.23,6.8-.48,9.05-.75-.5-1.12-1.41-2.53-2.73-4.23l.99-.99c4.06,3.09,6.09,5.99,6.09,8.7,0,1.47-.62,2.2-1.86,2.2-.85,0-1.35-.72-1.51-2.15-.08-.66-.25-1.33-.52-2.03-1.43.35-3.04.66-4.81.93v26.04h-3.25v-25.4c-1.51.27-3.56.56-6.15.87-.43,1.28-.81,1.91-1.16,1.91-.62,0-1.3-1.62-2.03-4.87,2.01-.08,3.92-.14,5.74-.17Zm.06-13.98c1.51-2.67,3.02-6.26,4.52-10.79,3.09,1.2,4.64,2.15,4.64,2.84,0,.5-.7.77-2.09.81-1.74,2.75-3.71,5.43-5.92,8.06,2.01,1.78,3.02,3.36,3.02,4.76s-.62,2.03-1.86,2.03c-.77,0-1.39-.66-1.86-1.97-.89-2.51-2.63-4.83-5.22-6.96l.7-1.04c1.43.66,2.78,1.41,4.06,2.26Zm9.45,20.42c3.52,3.67,5.28,7.12,5.28,10.32,0,1.62-.66,2.44-1.97,2.44-.97,0-1.49-.81-1.57-2.44-.16-3.13-1.1-6.36-2.84-9.69l1.1-.64Zm13.11-.17l2.03-2.55c2.24,2.05,3.36,3.29,3.36,3.71,0,.31-.19.54-.58.7l-1.28.75c-2.36,7.27-6.67,12.7-12.93,16.3l-.87-1.16c5.07-3.98,8.56-9.43,10.5-16.36h-8l-.52-1.39h8.29Zm6.73-6.61h-7.48v2.55h-3.19v-20.36c1.35.5,2.55,1.06,3.6,1.68h4.76c.7-2.24,1.18-4.76,1.45-7.54,3.75.54,5.63,1.2,5.63,1.97,0,.43-.75.79-2.26,1.1-1.16,2.01-2.13,3.5-2.9,4.47h9.51l2.15-2.67c2.28,1.82,3.42,3.02,3.42,3.6,0,.23-.17.46-.52.7l-1.45.87v16.12h-3.13v-2.49h-6.32c.85,3.94,2.38,7.66,4.58,11.14,1.89-2.2,3.81-4.97,5.74-8.29,2.44,1.66,3.65,2.86,3.65,3.6,0,.5-.41.75-1.22.75-.23,0-.56-.06-.99-.17-1.47,1.55-3.6,3.35-6.38,5.39,2.63,3.64,5.94,6.75,9.92,9.34-1.24.85-2.26,1.93-3.07,3.25-6.26-5.26-10.36-12.03-12.3-20.3v18.56c0,2.94-1.8,4.39-5.39,4.35-.08-1.16-.66-1.97-1.74-2.44-.5-.23-1.9-.56-4.18-.99v-1.57c2.4.31,4.49.46,6.26.46,1.24,0,1.86-.54,1.86-1.62v-21.46Zm9.57-9.05v-5.63h-17.05v5.63h17.05Zm0,7.6v-6.09h-17.05v6.09h17.05Z"/>
      <path class="cls-4" d="m588.72,93.29c.52-4.84,2.68-9.94,5.71-13.05,4.24-4.41,9.86-5.45,14.61-5.45,7.09,0,12.19,2.16,15.13,5.1,2.42,2.33,4.41,6.14,4.41,11.76,0,2.85-.52,5.36-2.33,7.87-1.21,1.73-2.68,2.85-4.32,3.63,2.42.86,5.01,2.51,6.57,4.67,1.73,2.33,2.68,5.97,2.68,9.08,0,4.41-1.73,9.42-5.79,13.14-4.93,4.5-10.55,5.01-15.22,5.01-5.62,0-11.76-.86-16.86-5.97-3.29-3.37-5.79-8.47-6.4-14.27h13.31c.17,2.25,1.21,4.93,2.77,6.48,1.38,1.38,3.63,2.33,6.4,2.33,2.25,0,4.41-.69,5.79-1.99,1.38-1.3,2.33-3.54,2.33-5.88s-1.12-4.41-2.51-5.53c-2.08-1.64-5.1-1.82-7.09-1.82h-1.04v-9.16h.78c.78,0,3.89-.09,5.79-1.64,1.21-1.04,2.16-2.85,2.16-5.19,0-1.99-.78-3.63-1.9-4.67-1.04-.95-2.77-1.73-4.93-1.73s-4.06.78-5.19,1.9c-1.21,1.3-1.99,3.54-2.08,5.36h-12.8Z"/>
      <path class="cls-4" d="m651.5,120.84l1.39.12c.23,1.93.35,3.46.35,4.58,0,3.06-.39,5.41-1.16,7.08-.62,1.12-1.3,1.68-2.03,1.68-1.2,0-1.8-.52-1.8-1.57,0-.35.23-.89.7-1.62,1.74-2.71,2.61-5.92,2.61-9.63,0-.19-.02-.41-.06-.64Zm12.3-6.61h3.65l2.32-2.61c2.17,1.7,3.25,2.8,3.25,3.31,0,.12-.12.25-.35.41l-1.45,1.1c-.04,10.29-.89,16.49-2.55,18.62-1.04,1.31-2.73,1.97-5.05,1.97-.04-1.12-.66-1.9-1.86-2.32-.62-.19-2.09-.43-4.41-.7v-1.57c2.28.23,4.37.35,6.26.35,1.78,0,2.84-.73,3.19-2.2.77-3.25,1.2-8.24,1.28-14.96h-12.99v2.55h-3.19v-30.63c1.04.43,2.28,1.01,3.71,1.74h12.24l2.55-3.25c1.47,1.43,2.55,2.59,3.25,3.48l-.64,1.22h-9.22v6.44h2.61l2.38-3.07c1,1.01,1.99,2.17,2.96,3.48l-.58.99h-7.37v6.96h2.61l2.44-3.13c1.08,1.2,2.09,2.4,3.02,3.6l-.7.99h-7.37v7.25Zm-8,6.44c1.43,3.06,2.15,5.67,2.15,7.83,0,1.9-.6,2.84-1.8,2.84-.81,0-1.22-.41-1.22-1.22,0-.04.02-.17.06-.41.04-.27.06-.5.06-.7.12-.93.17-1.86.17-2.78,0-1.62-.23-3.38-.7-5.28l1.28-.29Zm-.7-23.49h5.57v-6.44h-5.57v6.44Zm5.57,1.39h-5.57v6.96h5.57v-6.96Zm0,15.66v-7.25h-5.57v7.25h5.57Zm-1.57,5.39c2.24,3.06,3.36,5.74,3.36,8.06,0,1.28-.52,1.91-1.57,1.91-.58,0-.95-.23-1.1-.7,0-.04-.04-.77-.12-2.2-.04-2.28-.64-4.47-1.8-6.55l1.22-.52Zm3.19-1.16c2.78,2.28,4.18,4.54,4.18,6.79,0,1.16-.46,1.74-1.39,1.74-.73,0-1.16-.6-1.28-1.8-.16-2.09-.95-4.12-2.38-6.09l.87-.64Zm18.1-28.25h13.8l2.26-2.84c2.24,1.9,3.36,3.09,3.36,3.6,0,.23-.19.46-.58.7l-1.33.99v19.2h-3.31v-3.54h-6.61c.08.73.17,1.45.29,2.15,1.43,9.09,5.86,16.47,13.28,22.16-1.24.93-2.3,2.05-3.19,3.36-6.92-6.81-10.98-16.03-12.18-27.67h-6.32c-.04,13.3-2.82,22.91-8.35,28.83l-1.22-.99c4.18-6.26,6.26-15.66,6.26-28.19v-19.78c1.74.85,3.02,1.53,3.83,2.03Zm-.52,1.39v15.31h14.73v-15.31h-14.73Z"/>
      <path class="cls-4" d="m475.69,173.94c-3.05,6.23-6.92,11.72-11.6,16.47l-1.04-1.16c5.57-6.73,9.65-14.27,12.24-22.62l.12-.41h-10.96l-.7-1.51h11.95v-9.63c-3.83.85-7.13,1.45-9.92,1.8l-.64-1.45c8.62-1.82,15.06-4.14,19.31-6.96,2.63,1.59,3.94,2.75,3.94,3.48,0,.39-.37.58-1.1.58-.54,0-1.14-.08-1.8-.23-1.43.54-3.25,1.1-5.45,1.68l-.93.29v10.44h5.22l2.9-3.94c1.39,1.55,2.57,2.98,3.54,4.29l-.58,1.16h-11.08v5.68c7.08,3.48,10.61,6.71,10.61,9.69,0,1.51-.64,2.26-1.91,2.26-.85,0-1.57-.7-2.15-2.09-1.2-2.75-3.38-5.49-6.55-8.24v25.75h-3.42v-25.35Zm18.04,12.82v-31.26c3.67.19,5.51.7,5.51,1.51,0,.54-.75,1.08-2.26,1.62v28.13h-3.25Zm2.03,6.73c2.94.35,5.72.52,8.35.52,1.74,0,2.61-.62,2.61-1.86v-42.92c3.67.15,5.51.68,5.51,1.57,0,.46-.7.97-2.09,1.51v41.47c0,2.51-1.08,4.08-3.25,4.7-.5.12-1.47.25-2.9.41,0-1.2-.7-2.03-2.09-2.49-1.24-.46-3.29-.91-6.15-1.33v-1.57Z"/>
      <path class="cls-4" d="m539.16,152.65h31.32l2.38-2.84c2.44,1.93,3.65,3.19,3.65,3.77,0,.27-.17.5-.52.7l-1.45.99v38.34c0,3.29-2.01,4.91-6.03,4.87-.04-1.12-.62-1.91-1.74-2.38-.97-.39-2.9-.79-5.8-1.22v-1.57c2.63.27,5.14.41,7.54.41,1.66,0,2.49-.6,2.49-1.8v-12.53h-15.43v16.41h-3.36v-16.41h-13.86c-.81,8.89-3.94,15.54-9.4,19.95l-1.16-1.1c4.83-5.41,7.25-13.01,7.25-22.79v-24.71c1.43.54,2.8,1.18,4.12,1.91Zm-.75,25.35h13.8v-11.43h-13.75v8.93c0,1.04-.02,1.88-.06,2.49Zm13.8-23.9h-13.75v11.02h13.75v-11.02Zm18.79,11.02v-11.02h-15.43v11.02h15.43Zm0,1.45h-15.43v11.43h15.43v-11.43Z"/>
      <path class="cls-4" d="m635.93,155.49v38.34c0,3.48-2.22,5.2-6.67,5.16-.04-1.24-.87-2.13-2.49-2.67-1.2-.43-3.52-.89-6.96-1.39v-1.68c4.06.46,7.56.7,10.5.7,1.39,0,2.09-.66,2.09-1.97v-36.48h-37.64l-.52-1.45h42.81l3.25-4.35c1.89,1.59,3.38,3.11,4.47,4.58l-.7,1.22h-8.12Zm-29.58,9.05h11.77l2.15-2.78c2.4,1.9,3.6,3.07,3.6,3.54,0,.27-.19.54-.58.81l-1.57,1.04v18.33h-3.19v-3.89h-12.76v5.28h-3.42v-24.13c1.51.62,2.84,1.22,4,1.8Zm-.58,1.39v14.21h12.76v-14.21h-12.76Z"/>
      <path class="cls-4" d="m681.08,161.06c-5.14,1.16-11.52,2.2-19.14,3.13-.39,1.32-.79,1.97-1.22,1.97-.81,0-1.45-1.68-1.91-5.05,2.98-.08,4.81-.14,5.51-.17,2.01-3.98,3.69-8.41,5.05-13.28,3.52.97,5.28,1.88,5.28,2.73,0,.54-.87.87-2.61.99-1.28,2.55-3.27,5.7-5.97,9.45h.64c4.41-.31,8.89-.71,13.46-1.22-1.24-1.89-2.84-3.67-4.81-5.34l.81-1.1c3.67,2.13,6.4,4.35,8.18,6.67,1.2,1.62,1.8,3.02,1.8,4.18,0,1.31-.6,1.97-1.8,1.97-.81,0-1.41-.64-1.8-1.91-.27-.93-.75-1.93-1.45-3.02Zm-13.92,7.48h10.73l2.15-2.44c2.2,1.66,3.31,2.75,3.31,3.25,0,.23-.17.44-.52.64l-1.22.87v24.24c0,2.55-1.82,3.81-5.45,3.77,0-1.04-.5-1.8-1.51-2.26-.89-.35-2.28-.68-4.18-.99v-1.57c2.67.31,4.7.46,6.09.46,1.2,0,1.8-.58,1.8-1.74v-7.13h-11.66v13.63h-3.25v-32.31c1.28.46,2.51.99,3.71,1.57Zm-.46,1.39v6.03h11.66v-6.03h-11.66Zm11.66,14.27v-6.84h-11.66v6.84h11.66Zm13.4-24.65c4.6-1.93,8.56-4.29,11.89-7.08,2.44,1.62,3.65,2.82,3.65,3.6,0,.35-.35.52-1.04.52-.54,0-1.14-.06-1.8-.17-3.44,1.82-7.68,3.42-12.7,4.81v5.86c0,.89.25,1.45.75,1.68.62.27,2.57.41,5.86.41,3.56,0,5.57-.42,6.03-1.28.58-1.08,1-3.48,1.28-7.19l1.45.64c0,2.98.13,4.89.41,5.74.31.89.91,1.33,1.8,1.33-.04,1.74-.83,2.78-2.38,3.13-1.43.35-4.18.52-8.24.52-4.72,0-7.64-.25-8.76-.75-1.01-.54-1.51-1.68-1.51-3.42v-20.01c3.71.19,5.57.7,5.57,1.51,0,.54-.75,1.06-2.26,1.57v8.58Zm0,25.46c4.56-1.7,8.72-4.2,12.47-7.48,2.4,1.74,3.6,2.98,3.6,3.71,0,.39-.31.58-.93.58-.43,0-1.04-.1-1.86-.29-4.02,2.2-8.45,3.91-13.28,5.1v6.15c0,1.04.27,1.66.81,1.86.73.23,2.26.35,4.58.35,3.83,0,6.11-.14,6.84-.41,1.31-.39,2.2-3.27,2.67-8.64l1.45.52c0,3.33.12,5.45.35,6.38.15.89.71,1.33,1.68,1.33-.12,1.62-.83,2.67-2.15,3.13-1.35.43-4.33.64-8.93.64-5.57,0-8.78-.33-9.63-.99-.66-.54-.99-1.57-.99-3.07v-19.72c3.71.19,5.57.68,5.57,1.45,0,.54-.75,1.06-2.26,1.57v7.83Z"/>
    </g>
    <g>
      <path class="cls-4" d="m478.59,34.09h5.94l1.19-1.37c1.25,1.09,1.88,1.79,1.88,2.09,0,.16-.09.26-.27.3l-.98.33c-2.88,3.68-6.18,6.5-9.88,8.45-2.43,1.21-5.39,2.25-8.89,3.1l-.39-.66c4.73-1.51,8.45-3.24,11.13-5.19-.12.02-.21.03-.27.03-.38,0-.68-.28-.9-.84-.32-.93-1.08-1.85-2.3-2.75-1.99,1.55-4.37,2.89-7.13,4.03l-.39-.57c4.95-2.57,8.74-5.97,11.37-10.21,1.63.58,2.45,1.02,2.45,1.34,0,.26-.48.41-1.43.45-.2.3-.58.79-1.13,1.46Zm4.24,9.94h6.36l1.07-1.34c1.27,1.11,1.91,1.83,1.91,2.15,0,.12-.09.21-.27.27l-.92.36c-3.26,4.28-7.03,7.33-11.31,9.16-2.87,1.19-6.36,2.07-10.47,2.63l-.39-.72c5.43-1.03,9.77-2.58,13.01-4.63-.06.02-.13.03-.21.03-.32,0-.56-.17-.72-.51-.54-1.33-1.45-2.52-2.75-3.55-2.15,1.37-4.5,2.52-7.04,3.43l-.39-.66c5.33-2.33,9.62-5.74,12.86-10.24,1.57.5,2.36.93,2.36,1.28,0,.28-.47.43-1.4.45-.34.42-.85.99-1.52,1.73l-.18.15Zm-4.95-9.22c-.7.78-1.51,1.55-2.45,2.33,2.41.88,3.61,1.88,3.61,3.01,0,.2-.09.41-.27.63,2.13-1.59,4.06-3.58,5.79-5.97h-6.68Zm4.24,9.91c-1.09,1.03-2.18,1.92-3.25,2.66,2.53,1.25,3.79,2.43,3.79,3.52,0,.22-.06.42-.18.6,2.59-1.81,4.84-4.07,6.77-6.77h-7.13Z"/>
      <path class="cls-4" d="m503.8,48.71c-1.71,2.65-3.81,4.86-6.3,6.65l-.54-.57c2.69-2.41,4.83-5.32,6.45-8.74h-5.79l-.3-.72h6.48v-3.37c1.79.06,2.69.29,2.69.69,0,.22-.36.47-1.07.75v1.94h3.34l1.34-1.79c.6.6,1.17,1.24,1.73,1.94l-.33.57h-6.09v1.55c3.64,1.35,5.46,2.71,5.46,4.06,0,.74-.31,1.1-.93,1.1-.38,0-.72-.28-1.01-.84-.64-1.17-1.81-2.34-3.52-3.49v8.89h-1.61v-8.62Zm-6.62-14.09c5.03-.62,9.19-1.6,12.47-2.95,1.25.82,1.88,1.43,1.88,1.85,0,.2-.17.3-.51.3-.32,0-.72-.07-1.19-.21-3.54.78-7.67,1.36-12.38,1.76l-.27-.75Zm1.25,1.88c2.01,1.53,3.01,2.99,3.01,4.39,0,.86-.36,1.28-1.07,1.28-.52,0-.81-.39-.87-1.16-.08-1.37-.6-2.73-1.55-4.06l.48-.45Zm4.45-.9c1.69,1.61,2.54,3.05,2.54,4.33,0,.86-.37,1.28-1.1,1.28-.5,0-.76-.38-.78-1.13-.04-1.31-.44-2.69-1.19-4.12l.54-.36Zm3.91,6.21c1.13-2.25,2.05-4.56,2.75-6.92,1.73.62,2.6,1.13,2.6,1.55,0,.24-.45.39-1.34.45-.82,1.69-1.93,3.45-3.34,5.28l-.66-.36Zm3.19,14.09c4.79-2.27,8.76-5.79,11.91-10.56,1.49.9,2.24,1.53,2.24,1.91,0,.3-.27.45-.81.45-.2,0-.38,0-.54-.03-3.22,4-7.35,6.96-12.38,8.89l-.42-.66Zm.57-15.34c3.6-2.35,6.54-5.34,8.8-8.98,1.57.8,2.36,1.42,2.36,1.88,0,.24-.25.36-.75.36-.04,0-.28-.02-.72-.06-2.29,2.92-5.36,5.4-9.22,7.43l-.48-.63Zm.48,7.13c3.66-2.23,6.8-5.4,9.43-9.52,1.59.88,2.39,1.51,2.39,1.91,0,.26-.25.39-.75.39-.04,0-.28-.02-.72-.06-2.85,3.42-6.14,6.07-9.88,7.94l-.48-.66Z"/>
      <path class="cls-4" d="m535.58,40.24c.46-1.39.69-2.32.69-2.78s-.4-.8-1.19-1.01l.15-.27c1.89-.32,2.83-.04,2.83.84,0,.2-.17.73-.51,1.58l-.51,1.34c.32-.06.67-.23,1.04-.51.3-.24.57-.36.81-.36.34,0,.63.11.87.33.2.16.3.32.3.48,0,.52-1.18.99-3.55,1.43l-.12.33c-1.13,2.83-2.63,5.68-4.48,8.56-.32.48-.59.72-.81.72-.54,0-.81-.37-.81-1.1,0-.36.19-.76.57-1.19,1.73-2.17,3.14-4.57,4.24-7.19-.8.08-1.37.12-1.73.12-1.31,0-2.24-.66-2.77-1.97l.36-.12c.58.66,1.29.98,2.15.98.5,0,1.32-.07,2.48-.21Zm.81,14c-.46-.4-.67-.91-.63-1.52,0-.64.25-1.18.75-1.64.74-.64,1.62-1,2.66-1.1.6-.04,1.16-.02,1.7.06l-.06-3.28v-.54c.02-1.97.48-3.29,1.37-3.97.48-.44,1.01-.76,1.61-.95.18-.04.27-.1.27-.18,0-.06-.09-.17-.27-.33-.6-.46-1.44-.6-2.54-.42l.06-.51c1.79-.46,3.38-.15,4.77.93.5.46.75.93.75,1.4,0,.68-.21,1.01-.63,1.01-.22,0-.45-.15-.69-.45-.3-.5-.75-.75-1.34-.75-.52.02-1.02.25-1.52.69-.6.72-.82,2.13-.66,4.24.12,1.47.21,2.58.27,3.31.93.24,1.91.59,2.92,1.04.97.5,1.45,1.01,1.43,1.55-.02.52-.25.79-.69.81-.22.02-.5-.13-.84-.45-.88-.72-1.8-1.28-2.77-1.7.02.3.03.52.03.66-.08,1.77-1.18,2.74-3.31,2.89-1.03.08-1.92-.19-2.66-.81Zm4.51-3.1c-.58-.16-1.18-.22-1.82-.18-.8.08-1.43.32-1.91.72-.28.28-.45.6-.51.95-.02.18.07.38.27.6.36.52,1.01.74,1.97.66.78-.06,1.32-.24,1.64-.54.26-.3.4-.73.42-1.28v-.42l-.06-.51Z"/>
      <path class="cls-4" d="m555.19,50.86c3.32-1.81,5.97-4.16,7.94-7.04.74-1.09,1.16-1.87,1.28-2.33.1-.38-.17-.8-.81-1.25l.27-.24c1.95.46,2.82,1.09,2.63,1.91-.06.2-.32.65-.78,1.34-2.65,3.74-6.09,6.43-10.32,8.06l-.21-.45Zm14.95-10.77c.92.24,2.24,1.25,3.97,3.04,1.53,1.55,2.39,2.91,2.57,4.09.14.94-.13,1.46-.81,1.58-.44.06-.84-.3-1.19-1.07-1.55-3.56-3.17-5.99-4.86-7.28l.33-.36Zm1.61-2.57c1.93.18,3.25.87,3.97,2.06.2.5.05.81-.45.93-.34.08-.71-.15-1.1-.69-.62-.86-1.44-1.51-2.48-1.97l.06-.33Zm1.79-1.4c1.93-.16,3.35.29,4.27,1.34.28.46.19.79-.27.98-.32.14-.72-.03-1.19-.51-.78-.72-1.71-1.2-2.81-1.46v-.36Z"/>
      <path class="cls-4" d="m596.52,46.53l.39.15c1.85.24,3.49.98,4.92,2.24.72.6,1.09,1.17,1.13,1.73.06.78-.22,1.18-.84,1.22-.28.02-.55-.16-.81-.54-1.47-2.13-3.24-3.53-5.31-4.21-2.57,3.14-6.7,5.43-12.41,6.86l-.24-.33c7.74-2.71,12.72-7.31,14.95-13.82-2.33.38-3.86.65-4.6.81-1.67.34-2.61.51-2.8.51-.94,0-1.57-.75-1.91-2.24l.36-.06c.4.46,1.04.69,1.94.69,1.49,0,3.63-.19,6.42-.57.32-.04.63-.15.92-.33.24-.14.42-.21.54-.21.22,0,.54.28.96.84.28.36.42.69.42.98,0,.18-.11.33-.33.45-.26.12-.53.48-.81,1.07-1.07,2.19-2.04,3.77-2.89,4.74Z"/>
      <path class="cls-4" d="m615.71,39.4c1.05.22,1.58.48,1.58.78,0,.24-.41.5-1.22.78v16.38h-1.7v-15.19c-.92,1.79-2.06,3.64-3.43,5.55l-.66-.48c3-4.87,5.16-10.35,6.48-16.44,1.79.34,2.69.72,2.69,1.13,0,.28-.4.49-1.19.63-.76,2.55-1.6,4.83-2.54,6.86Zm17.96,6.71h-5.16c-.1,2.15-.45,3.95-1.04,5.4,2.73,1.81,6.11,3.01,10.15,3.61-.5.44-.91,1.03-1.22,1.79-4.26-1.03-7.44-2.44-9.55-4.21-1.93,2.49-5.03,4.06-9.31,4.71l-.36-.78c3.76-.82,6.55-2.53,8.39-5.13-.86-.86-1.82-2.04-2.89-3.55l.69-.45c1.03,1.29,1.95,2.27,2.75,2.92.38-1.03.62-2.48.72-4.33h-4.98v1.46h-1.73v-11.34c.2.06.86.34,1.97.84h4.77v-3.61h-7.19l-.36-.75h14.62l1.52-1.91c.78.68,1.45,1.37,2.03,2.09l-.27.57h-8.62v3.61h4.86l1.1-1.34c1.23.92,1.85,1.53,1.85,1.85,0,.12-.09.23-.27.33l-.72.48v9.49h-1.73v-1.76Zm-6.83-8.3h-5.01v3.37h5.01v-3.37Zm0,4.12h-5.01v3.46h4.98c.02-.16.03-.52.03-1.07v-2.39Zm6.83,3.46v-3.46h-5.1v2.3c0,.6-.01.98-.03,1.16h5.13Zm0-4.21v-3.37h-5.1v3.37h5.1Z"/>
      <path class="cls-4" d="m643.55,40.36c.52.5,1.09.72,1.73.66.32-.02,2.98-.71,8-2.06,3.68-.97,5.75-1.48,6.21-1.52.5-.04.98.07,1.46.33.32.16.48.38.48.66,0,.42-.34.66-1.01.72-.2.02-.49.02-.87,0-.68-.04-1.2-.04-1.58,0-1.45.14-2.61.83-3.46,2.06-2.17,2.96-3.15,5.54-2.95,7.73.14,1.37.57,2.35,1.3,2.94.73.59,1.76.88,3.09.88.42,0,.9-.05,1.43-.15.28-.06.53-.09.75-.09.42,0,.8.13,1.13.39.32.22.48.44.48.66,0,.54-.9.81-2.69.81-4.26,0-6.54-1.73-6.83-5.19-.26-2.84,1.3-6.04,4.69-9.58-3.56.92-6.45,1.88-8.65,2.89-.52.26-.88.39-1.07.39-.94.08-1.56-.64-1.88-2.15l.27-.36Zm14.5,1.46c1.93.18,3.25.87,3.97,2.06.2.5.05.81-.45.93-.34.08-.71-.15-1.1-.69-.62-.86-1.44-1.51-2.48-1.97l.06-.33Zm1.79-1.4c1.93-.16,3.35.29,4.27,1.34.28.46.19.79-.27.98-.32.14-.72-.03-1.19-.51-.78-.72-1.71-1.2-2.8-1.46v-.36Z"/>
      <path class="cls-4" d="m669.87,51.37c1.99.66,3.59,1.59,4.8,2.81.62.64.93,1.32.93,2.06,0,1.01-.49,1.52-1.46,1.52-.52,0-.92-.39-1.19-1.16-.66-1.71-1.8-3.27-3.43-4.69l.36-.54Z"/>
    </g>
    <g>
      <path class="cls-2" d="m38.48,681.24h-2.46v10.35h-3.35v-13.53h5.82v3.19Zm-.91-.77v-1.65h-3.99v11.97h1.49v-10.32h2.5Z"/>
      <path class="cls-2" d="m48,686.09c-1.24,3.09-3.64,5.24-7.2,6.45l-.96-1.81c1.74-.58,3.18-1.48,4.3-2.68s1.84-2.58,2.15-4.12h-5.81v-1.93h6.08v-3.67h2.32v3.67h6.12v1.93h-5.71c.51,1.39,1.32,2.66,2.44,3.82,1.12,1.16,2.42,2.1,3.9,2.81l-1.46,1.93c-1.61-.93-2.89-1.9-3.84-2.9-.95-1-1.72-2.17-2.32-3.5Z"/>
      <path class="cls-2" d="m62.99,686.37c-.3,1.48-1.03,2.73-2.19,3.75-1.16,1.02-2.44,1.78-3.86,2.28l-.84-1.68c1.08-.39,2-.89,2.76-1.51.77-.62,1.28-1.18,1.55-1.67h-3.42v-1.65h5.41l.59.48Zm2.46,4.63c0,.43-.18.8-.55,1.1-.36.3-.79.45-1.28.45h-2.12l-.26-1.97h1.57c.1,0,.19-.04.28-.12.09-.08.13-.16.13-.24v-5.1h-5.16v-5.93h4.59l.62-1.48,2.15.33-.67,1.16h5.59v5.93h-4.88v.34c.62.92,1.13,1.54,1.53,1.87,1.15-.61,2.29-1.34,3.41-2.18l1.51,1.53c-.7.57-1.78,1.19-3.23,1.87,1.05.73,2.25,1.35,3.59,1.86l-1.38,1.85c-2.27-1.05-4.08-2.38-5.43-3.99v2.72Zm-5.28-9.52h7.95v-.83h-7.95v.83Zm0,2.19h7.95v-.92h-7.95v.92Z"/>
      <path class="cls-2" d="m76.54,678.29c.29.47.68,1.15,1.17,2.05h2.09c-.35-.8-.64-1.43-.87-1.89l2.07-.48c.27.47.62,1.25,1.07,2.37h1.56c.54-.87.94-1.62,1.2-2.25l2.27.47c-.21.41-.6,1-1.17,1.77h2.13v3.26h-1.93v-1.68h-10.93v1.73h-1.96v-3.31h2.16c-.35-.66-.64-1.18-.86-1.56l2.01-.5Zm5.51,12.58c0,.49-.2.9-.61,1.21-.41.31-.89.47-1.46.47h-2.57l-.26-2.05h2.1c.1,0,.21-.05.32-.14.11-.09.17-.19.17-.28v-1.39h-6.45v-1.81h6.45v-1.41h.98c.56-.22,1.05-.45,1.49-.67h-6.45v-1.77h9.25l1.08,1.16c-1.23.94-2.58,1.73-4.06,2.38v.32h5.96v1.81h-5.96v2.19Z"/>
      <path class="cls-2" d="m102.06,691.69h-10.01v.84h-2.09v-13.99h14.22v13.87h-2.13v-.72Zm-10.01-1.51h10.01v-10.18h-10.01v10.18Zm4-2.17c-1.06.78-2.07,1.33-3.04,1.65l-.64-1.24c1.1-.39,2.14-.97,3.11-1.76h-1.96v-2.54h6.81v2.26c.21-.16.4-.31.55-.45l1.08.97c-.41.33-.93.67-1.57,1.04.51.19.98.34,1.41.46l-.86,1.33c-1.17-.41-2.2-.91-3.11-1.52v1.61h-1.79v-1.82Zm5.52-4.39h-8.99v-1.07h3.53v-.56h-2.94v-1.04h2.94v-.58h1.86v.58h3.02v1.04h-3.02v.56h3.6v1.07Zm-2.79,2.17v-.79h-3.73v.79h3.73Zm-.94.88v.06c.29.2.63.4,1.04.62.38-.21.74-.44,1.08-.68h-2.12Z"/>
      <path class="cls-2" d="m112.18,692.74h-5.82v-3.19h2.47v-10.35h3.35v13.54Zm-.92-.77v-11.98h-1.52v10.34h-2.48v1.65h4Z"/>
      <path class="cls-2" d="m119.46,687.83c0,.52-.06,1.29-.18,2.31-.12,1.02-.25,1.74-.4,2.16l-1.1-.51c.14-.37.27-.99.39-1.86.12-.86.18-1.59.19-2.17l1.1.06Zm5.75-7.84h-1.97v.96h1.63v1.35h-1.63v1h1.63v1.33h-1.63v1h1.79c0,2.88-.13,4.76-.39,5.64.42-.71.76-1.62,1-2.74.25-1.12.37-2.56.37-4.32v-5.73h6.82v6.67h-1.81c.4,2.24,1.32,4.15,2.75,5.72l-1.57,1.53c-1.74-1.94-2.79-4.35-3.15-7.23h-.88c-.09,3.1-.8,5.56-2.14,7.38l-1.45-1.13c-.27.8-.9,1.2-1.89,1.2h-1.51l-.2-1.53h1.32c.28,0,.49-.1.65-.3.15-.2.24-.48.26-.83.02-.35.05-1.31.08-2.89h-2.93v.26h-1.79v-8.78h6.63v1.44Zm-4.36,10.96l-.81.13-.18-3.31.77-.12.22,3.31Zm.66-10.96h-1.04v.96h1.04v-.96Zm-1.04,2.3v1h1.04v-1h-1.04Zm0,2.34v1h1.04v-1h-1.04Zm1.68,5.71l-.69.17-.4-2.93.66-.14.43,2.91Zm.99-.96l-.59.26-.41-2.31.59-.15.42,2.21Zm7.59-5.89v-3.3h-2.55v3.3h2.55Z"/>
    </g>
    <g>
      <path class="cls-4" d="m494.77,289.33s.08-.11.15-.21c.07-.1.13-.17.19-.22.06-.05.11-.07.17-.07.11,0,.37.17.77.52.4.35.65.62.75.83.04.06.03.12-.04.19-.17.16-.42.26-.76.32v2.11c.04,1.76.09,3.08.15,3.97,0,.08-.03.16-.08.21-.13.13-.31.24-.56.34-.25.1-.47.15-.67.15-.15,0-.25-.11-.27-.32l.02-.21s.01-.05.04-.19v-.36h-3.86c.9,1.14,2.11,2.16,3.63,3.07,1.52.91,3.08,1.57,4.69,2,.08.03.13.07.13.13,0,.08-.06.14-.17.17-.21.06-.4.17-.58.35-.18.18-.31.39-.41.64-.03.11-.1.15-.21.11-1.55-.62-2.98-1.48-4.31-2.58s-2.39-2.36-3.19-3.78v2.17c.04,1.8.09,3.17.15,4.1,0,.07-.02.13-.06.19-.11.14-.28.27-.51.38-.23.11-.45.17-.68.17-.13,0-.23-.04-.32-.13s-.13-.18-.13-.3c.08-1.18.14-2.37.17-3.57v-2.01c-1,1.15-2.2,2.2-3.61,3.14-1.41.94-2.94,1.72-4.6,2.35-.01.01-.04.02-.08.02-.07,0-.12-.04-.15-.11l-.02-.06c-.04-.1-.02-.18.06-.23,1.53-.77,2.96-1.7,4.26-2.79,1.31-1.08,2.39-2.23,3.23-3.44h-3.29v.76c0,.07-.13.16-.38.27-.25.11-.5.17-.74.17-.1,0-.18-.04-.24-.13-.06-.08-.09-.18-.09-.3.06-.65.1-1.45.13-2.41v-1.41c0-1.66-.08-3.03-.23-4.1v-.04c0-.06.02-.09.05-.11.03-.01.08,0,.14.02l1.5.7h4.07v-2.22h-4.6c-.9.01-1.91.11-3.02.27h-.06c-.06,0-.11-.04-.15-.11l-.36-.74s-.02-.04-.02-.08c0-.07.05-.11.15-.11.77.07,1.63.12,2.58.15h5.49c0-.97-.06-1.89-.17-2.74,0-.14.07-.19.21-.15.69.21,1.17.38,1.44.52.27.13.4.25.4.35,0,.07-.06.14-.17.21l-.34.23v1.58h5.24l.49-.7c.07-.08.14-.18.22-.28.08-.11.15-.2.23-.29s.14-.13.2-.13c.13,0,.44.21.95.62.51.42.82.73.93.94l.02.08c0,.11-.05.2-.16.26s-.24.09-.39.09h-7.73v2.22h4.1l.34-.49Zm-5.81,3.42v-2.32h-4.2v2.32h4.2Zm0,.61h-4.2v2.39h4.2v-2.39Zm5.66-.61v-2.32h-4.29v2.32h4.29Zm-4.29.61v2.39h4.29v-2.39h-4.29Z"/>
      <path class="cls-4" d="m517.72,288.91c.04-.06.11-.14.19-.26.08-.12.16-.21.22-.27s.12-.09.18-.09c.11,0,.4.19.87.57.46.38.75.67.87.87.01.07,0,.14-.02.21-.08.16-.25.23-.49.23h-5.53c.44,5.35,1.84,8.97,4.2,10.85.14.14.25.21.34.21.1,0,.19-.11.27-.32.28-.55.56-1.29.82-2.22.03-.08.08-.13.15-.13.13,0,.18.06.15.19l-.34,3.04c.37.51.55.88.55,1.12,0,.1-.04.2-.11.3-.13.17-.32.25-.59.25s-.58-.1-.95-.3c-.37-.2-.71-.44-1.03-.74-1.42-1.22-2.52-2.87-3.28-4.93-.77-2.06-1.28-4.51-1.55-7.34h-7.47c-.9.01-1.91.11-3.02.27h-.06c-.06,0-.11-.03-.15-.11l-.38-.74s-.02-.04-.02-.08c0-.07.05-.11.15-.11.77.07,1.63.12,2.58.15h8.34c-.13-1.63-.19-3.35-.19-5.15,0-.13.06-.18.19-.15.68.06,1.14.12,1.39.18.25.06.38.14.38.22,0,.04-.06.11-.19.21l-.36.23v.74c0,1.27.04,2.51.13,3.72h3.34l.44-.63Zm-7.03,5.32c.04-.06.1-.14.18-.26.08-.12.14-.21.2-.26.06-.06.11-.08.17-.08.11,0,.37.18.77.55.4.37.65.65.75.84.01.07,0,.14-.02.21-.08.16-.25.23-.49.23h-3.74v4.9c1.76-.34,3.23-.63,4.41-.89h.06c.07,0,.11.04.13.13v.04c.03.11,0,.18-.11.19-2.66.9-6.01,1.91-10.05,3.02-.08.18-.2.32-.34.42-.01.01-.04.02-.06.02-.08,0-.14-.04-.17-.11l-.72-1.35s-.02-.06-.02-.11c0-.06.04-.09.13-.11l1.86-.32v-4.18c0-1.52-.08-2.88-.23-4.07v-.04c0-.11.06-.15.19-.11.66.2,1.12.36,1.37.49s.38.23.38.32c0,.06-.05.12-.15.19l-.3.19v6.99l2.32-.46v-5.66c0-1.53-.08-2.91-.23-4.12v-.04c0-.11.06-.15.19-.11.69.2,1.16.36,1.42.49.26.13.39.24.39.34,0,.04-.06.11-.17.19l-.32.21v2.93h1.77l.4-.61Zm-1.35-8.57c.06-.07.12-.15.18-.25.06-.1.13-.18.2-.25.07-.07.13-.11.19-.11.11,0,.38.18.8.54.42.36.68.64.78.83.01.07,0,.14-.02.21-.08.16-.25.23-.51.23h-3.86c-.9.01-1.91.11-3.02.27h-.06c-.06,0-.11-.03-.15-.11l-.38-.74s-.02-.04-.02-.08c0-.07.05-.11.15-.11.77.07,1.63.12,2.58.15h2.74l.4-.59Zm5.68-.44s0-.08.02-.11c.06-.06.13-.08.21-.06.76.1,1.38.27,1.87.51.49.24.84.51,1.07.8.23.3.34.58.34.84,0,.21-.06.38-.17.51-.11.13-.26.19-.44.19-.13,0-.25-.03-.36-.08-.07-.01-.12-.06-.15-.13-.2-.41-.51-.83-.95-1.28-.44-.44-.89-.81-1.35-1.11-.04-.01-.07-.04-.08-.08Z"/>
      <path class="cls-4" d="m537,289.33s.08-.11.15-.21c.07-.1.13-.17.19-.22.06-.05.11-.07.17-.07.11,0,.37.17.77.52.4.35.65.62.75.83.04.06.03.12-.04.19-.17.16-.42.26-.76.32v2.11c.04,1.76.09,3.08.15,3.97,0,.08-.03.16-.08.21-.13.13-.31.24-.56.34-.25.1-.47.15-.67.15-.15,0-.25-.11-.27-.32l.02-.21s.01-.05.04-.19v-.36h-3.86c.9,1.14,2.11,2.16,3.63,3.07,1.52.91,3.08,1.57,4.69,2,.08.03.13.07.13.13,0,.08-.06.14-.17.17-.21.06-.4.17-.58.35-.18.18-.31.39-.41.64-.03.11-.1.15-.21.11-1.55-.62-2.98-1.48-4.31-2.58s-2.39-2.36-3.19-3.78v2.17c.04,1.8.09,3.17.15,4.1,0,.07-.02.13-.06.19-.11.14-.28.27-.51.38-.23.11-.45.17-.68.17-.13,0-.23-.04-.32-.13s-.13-.18-.13-.3c.08-1.18.14-2.37.17-3.57v-2.01c-1,1.15-2.2,2.2-3.61,3.14-1.41.94-2.94,1.72-4.6,2.35-.01.01-.04.02-.08.02-.07,0-.12-.04-.15-.11l-.02-.06c-.04-.1-.02-.18.06-.23,1.53-.77,2.96-1.7,4.26-2.79,1.31-1.08,2.39-2.23,3.23-3.44h-3.29v.76c0,.07-.13.16-.38.27-.25.11-.5.17-.74.17-.1,0-.18-.04-.24-.13-.06-.08-.09-.18-.09-.3.06-.65.1-1.45.13-2.41v-1.41c0-1.66-.08-3.03-.23-4.1v-.04c0-.06.02-.09.05-.11.03-.01.08,0,.14.02l1.5.7h4.07v-2.22h-4.6c-.9.01-1.91.11-3.02.27h-.06c-.06,0-.11-.04-.15-.11l-.36-.74s-.02-.04-.02-.08c0-.07.05-.11.15-.11.77.07,1.63.12,2.58.15h5.49c0-.97-.06-1.89-.17-2.74,0-.14.07-.19.21-.15.69.21,1.17.38,1.44.52.27.13.4.25.4.35,0,.07-.06.14-.17.21l-.34.23v1.58h5.24l.49-.7c.07-.08.14-.18.22-.28.08-.11.15-.2.23-.29s.14-.13.2-.13c.13,0,.44.21.95.62.51.42.82.73.93.94l.02.08c0,.11-.05.2-.16.26s-.24.09-.39.09h-7.73v2.22h4.1l.34-.49Zm-5.81,3.42v-2.32h-4.2v2.32h4.2Zm0,.61h-4.2v2.39h4.2v-2.39Zm5.66-.61v-2.32h-4.29v2.32h4.29Zm-4.29.61v2.39h4.29v-2.39h-4.29Z"/>
      <path class="cls-4" d="m558.3,291.36c.06-.07.13-.17.22-.31.09-.13.17-.23.23-.3s.12-.09.18-.09c.11,0,.41.2.89.61.48.41.77.72.89.93.01.07,0,.14-.02.21-.08.16-.24.23-.46.23h-7.07v9.12h6.23l.49-.68c.04-.06.11-.15.21-.29.1-.13.18-.23.24-.3.06-.06.12-.09.18-.09.13,0,.44.2.93.61.49.41.79.72.91.93.01.07,0,.14-.02.21-.08.15-.25.23-.49.23h-14.52c-.9.01-1.91.11-3.02.27h-.06c-.06,0-.11-.04-.15-.11l-.38-.76s-.02-.04-.02-.08c0-.07.05-.11.15-.11.77.07,1.63.12,2.58.15h5.38v-13.17c0-1.53-.08-2.91-.23-4.12v-.04c0-.11.06-.15.19-.11.72.2,1.22.36,1.51.5.29.13.43.25.43.35,0,.07-.06.14-.17.21l-.36.23v6.42h4.67l.49-.68Z"/>
      <path class="cls-4" d="m566.53,288.13c.25-.62.49-1.29.7-2.03.21-.73.36-1.39.44-1.96.03-.13.1-.16.21-.11,1.24.48,1.86.8,1.86.97,0,.04-.06.09-.19.15l-.38.13c-.83,1.38-1.58,2.46-2.24,3.25.27.23.47.47.6.73.13.26.2.5.2.71,0,.23-.06.41-.17.55-.11.14-.25.21-.42.21-.14,0-.27-.04-.4-.13-.06-.03-.1-.08-.13-.17-.13-.42-.35-.87-.67-1.34-.32-.47-.67-.88-1.04-1.21-.08-.08-.09-.15-.02-.21.06-.06.15-.06.27-.02.56.17,1.01.37,1.33.59l.04-.11Zm-.71,7.93s.08-.02.14-.01l.97.3c.52.08.78.18.78.3,0,.08-.08.16-.23.23l-.34.17c-.52,1.97-1.15,3.5-1.9,4.6-.07.08-.15.11-.23.06l-.06-.02c-.08-.04-.11-.12-.08-.23.08-.21.2-.56.34-1.03.18-.63.33-1.35.43-2.14.11-.79.15-1.5.14-2.1,0-.06.02-.09.05-.12Zm2.25-2.76l2.58-.13c-.28-.63-.58-1.21-.89-1.73-.04-.1-.03-.17.04-.21.08-.04.17-.04.25,0,.76.46,1.32.96,1.67,1.48.35.52.53,1,.53,1.44,0,.27-.06.49-.18.65-.12.17-.27.25-.45.25-.13,0-.28-.06-.46-.17-.04-.04-.08-.11-.11-.21-.04-.3-.12-.64-.23-1.03l-1.44.3v4.05c.03,1.76.08,3.37.17,4.83,0,.08-.03.15-.08.21-.13.13-.29.23-.49.32-.2.08-.42.13-.65.13-.1,0-.19-.05-.29-.14-.09-.09-.14-.19-.14-.29.06-.83.11-1.64.15-2.42.04-.78.07-1.81.08-3.07v-3.4c-.65.13-1.37.25-2.15.38-.08.17-.21.3-.38.4l-.06.02s-.09-.04-.15-.13l-.44-1.27-.02-.06s.01-.06.04-.08c.03-.03.07-.04.13-.04l1.69-.04c.65-1.17,1.19-2.17,1.63-3,.32-.62.63-1.27.92-1.95.29-.68.51-1.3.67-1.85.03-.13.11-.15.23-.08,1.14.55,1.71.92,1.71,1.1,0,.06-.07.11-.21.15l-.4.08c-.54.86-1.16,1.79-1.88,2.79-.72,1-1.42,1.91-2.11,2.74l.74-.02Zm2.01,2.81c0-.07.03-.12.11-.15.1-.03.18-.01.23.04.63.51,1.1,1.02,1.39,1.54.3.52.44,1,.44,1.44,0,.3-.06.54-.19.73-.13.19-.29.29-.49.29-.14,0-.3-.06-.46-.19-.06-.06-.08-.13-.08-.21-.01-.51-.11-1.07-.3-1.7-.18-.63-.39-1.2-.63-1.72-.01-.01-.02-.03-.02-.06Zm3.8.17c-.48.01-.95.1-1.41.25-.11.03-.18,0-.21-.08l-.38-.72s-.02-.06-.02-.11c0-.07.05-.1.15-.08.59.06,1.18.1,1.77.13h.93l.34-.38c.04-.06.11-.14.21-.24.1-.11.19-.16.27-.16.13,0,.35.14.68.42.32.28.53.51.61.7.04.07.03.14-.04.21-.07.06-.17.1-.29.13-.12.03-.26.04-.43.04-.37,1.25-.93,2.39-1.68,3.42-.75,1.03-1.72,1.87-2.9,2.53-.1.06-.18.03-.23-.06l-.02-.04c-.04-.1-.03-.18.04-.23.89-.69,1.63-1.53,2.22-2.52.59-.99,1.02-2.06,1.29-3.2h-.89Zm7.14-10.15c.04-.06.09-.13.15-.22.06-.09.11-.16.15-.2.04-.04.09-.06.15-.06.11,0,.34.15.68.45.34.3.55.55.63.73.04.07.03.14-.04.21-.14.11-.37.2-.68.25v2.11c.04,1.75.09,3.06.15,3.95,0,.08-.03.16-.08.21-.1.11-.25.21-.45.3s-.43.13-.67.13h-.04c-.11,0-.17-.06-.17-.17v-.63h-2.43c.3,1.53.78,2.86,1.46,3.97.38-.46.75-.98,1.1-1.54.35-.56.63-1.08.82-1.54.04-.13.12-.15.23-.06.94.7,1.41,1.14,1.41,1.31,0,.06-.07.1-.21.13l-.36.02c-.35.3-.79.63-1.3,1.01-.51.38-1.02.72-1.51,1.01.48.75,1.03,1.39,1.66,1.92.63.54,1.33,1.01,2.1,1.41.07.04.11.09.11.15,0,.07-.01.12-.04.15-.03.03-.06.05-.11.06-.38.13-.68.45-.89.97-.03.06-.06.09-.1.11-.04.01-.07,0-.12-.04-1.2-.94-2.16-2.07-2.88-3.38-.73-1.31-1.26-3.03-1.59-5.15v7.75c0,.59-.11,1.05-.34,1.37-.23.32-.7.54-1.41.65h-.04c-.07,0-.12-.05-.15-.15-.04-.37-.15-.64-.34-.82-.32-.24-.8-.41-1.44-.51-.11-.03-.17-.08-.17-.17,0-.1.04-.15.13-.15.18,0,.38,0,.6.02.22.01.43.03.62.04.41.04.7.06.89.06.17,0,.28-.03.34-.08.06-.06.08-.16.08-.32v-8.21h-2.45v.57c0,.07-.11.16-.32.25-.21.1-.46.15-.76.15-.08,0-.16-.04-.21-.13-.06-.08-.08-.18-.08-.3.06-.6.1-1.38.13-2.32v-1.37c0-1.63-.08-2.96-.23-3.99v-.04s.02-.07.05-.08c.03-.01.08-.01.14,0l1.52.68h1.44c.2-.84.32-1.64.36-2.39.01-.11.08-.16.21-.15.7.16,1.19.28,1.46.38.27.1.4.19.4.27,0,.04-.06.1-.19.17l-.36.17-.72.97-.44.57h3.86l.3-.46Zm-.23,3.44v-2.39h-6.31v2.39h6.31Zm-6.31.61v2.39h6.31v-2.39h-6.31Z"/>
    </g>
    <g>
      <path class="cls-4" d="m452.63,344.18s.08-.11.15-.21c.07-.1.13-.17.19-.22.06-.05.11-.07.17-.07.11,0,.37.17.77.52.4.35.65.62.75.83.04.06.03.12-.04.19-.17.16-.42.26-.76.32v2.11c.04,1.76.09,3.08.15,3.97,0,.08-.03.16-.08.21-.13.13-.31.24-.56.34-.25.1-.47.15-.67.15-.16,0-.25-.11-.27-.32l.02-.21s.01-.05.04-.19v-.36h-3.86c.9,1.14,2.11,2.16,3.63,3.07,1.52.91,3.08,1.57,4.69,2,.08.03.13.07.13.13,0,.08-.06.14-.17.17-.21.06-.4.17-.58.35s-.31.39-.41.64c-.03.11-.1.15-.21.11-1.55-.62-2.98-1.48-4.31-2.58-1.32-1.1-2.39-2.36-3.19-3.78v2.17c.04,1.8.09,3.17.15,4.1,0,.07-.02.13-.06.19-.11.14-.28.27-.51.38-.23.11-.45.17-.68.17-.13,0-.23-.04-.32-.13-.08-.08-.13-.18-.13-.3.08-1.18.14-2.37.17-3.57v-2.01c-1,1.15-2.2,2.2-3.61,3.14-1.41.94-2.94,1.72-4.6,2.35-.01.01-.04.02-.08.02-.07,0-.12-.04-.15-.11l-.02-.06c-.04-.1-.02-.18.06-.23,1.53-.77,2.96-1.7,4.26-2.79,1.31-1.08,2.39-2.23,3.23-3.44h-3.29v.76c0,.07-.13.16-.38.27-.25.11-.5.17-.74.17-.1,0-.18-.04-.24-.13-.06-.08-.09-.18-.09-.3.06-.65.1-1.45.13-2.41v-1.41c0-1.66-.08-3.03-.23-4.1v-.04c0-.06.02-.09.05-.11.03-.01.08,0,.14.02l1.5.7h4.07v-2.22h-4.6c-.9.01-1.91.11-3.02.27h-.06c-.06,0-.11-.04-.15-.11l-.36-.74s-.02-.04-.02-.08c0-.07.05-.11.15-.11.77.07,1.63.12,2.58.15h5.49c0-.97-.06-1.89-.17-2.74,0-.14.07-.19.21-.15.69.21,1.17.38,1.44.52.27.13.4.25.4.35,0,.07-.06.14-.17.21l-.34.23v1.58h5.24l.49-.7c.07-.08.14-.18.22-.28.08-.11.15-.2.23-.29.08-.08.14-.13.2-.13.13,0,.44.21.95.62.51.42.82.73.93.94l.02.08c0,.11-.05.2-.16.26-.11.06-.24.09-.39.09h-7.73v2.22h4.1l.34-.49Zm-5.81,3.42v-2.32h-4.2v2.32h4.2Zm0,.61h-4.2v2.39h4.2v-2.39Zm5.66-.61v-2.32h-4.29v2.32h4.29Zm-4.29.61v2.39h4.29v-2.39h-4.29Z"/>
      <path class="cls-4" d="m464.24,351.95l.89.63c.49.21.74.39.74.53,0,.06-.08.1-.23.13l-.38.02c-.62.72-1.44,1.45-2.47,2.2-1.03.75-2.08,1.37-3.17,1.88-.1.04-.18.02-.23-.06l-.02-.02c-.07-.11-.06-.2.04-.25.82-.59,1.55-1.2,2.2-1.82.51-.48.98-1,1.41-1.57.44-.57.77-1.1.99-1.59.07-.11.15-.13.23-.06Zm11.04-10.72c.07-.08.14-.18.22-.29.08-.11.15-.2.23-.28.08-.08.14-.13.2-.13.13,0,.44.21.95.62.51.42.82.73.93.94.03.06.04.09.04.11,0,.1-.06.18-.18.24s-.25.09-.39.09h-14.17c-.9.01-1.91.11-3.02.27h-.04c-.07,0-.13-.03-.17-.11l-.38-.74-.02-.08c0-.07.05-.11.15-.11.76.07,1.61.12,2.55.15h5.72c0-1.01-.06-1.96-.17-2.83,0-.14.07-.19.21-.15,1.24.37,1.86.64,1.86.82,0,.07-.06.14-.17.21l-.36.23v1.71h5.49l.51-.7Zm-2.11,3.17c.04-.06.09-.13.16-.23.06-.1.12-.17.17-.21.05-.04.1-.06.16-.06.11,0,.38.18.8.53.42.35.68.63.78.82.04.07.03.14-.04.21-.21.16-.48.27-.8.34v1.65c.04,1.34.08,2.34.13,3.02,0,.07-.02.14-.06.21-.13.13-.31.24-.56.34-.25.1-.47.15-.67.15h-.04c-.11,0-.17-.06-.17-.17v-.87h-3.72v6.25c0,.59-.14,1.05-.43,1.37-.29.32-.86.53-1.72.63h-.04c-.07,0-.12-.05-.15-.15-.07-.37-.23-.63-.46-.8-.3-.21-.91-.38-1.84-.51-.11-.03-.17-.09-.17-.19,0-.13.06-.18.17-.15,1.52.11,2.43.17,2.74.17.21,0,.35-.03.42-.09.07-.06.11-.17.11-.33v-6.21h-3.74v.76c0,.07-.13.17-.38.29s-.51.18-.76.18c-.1,0-.18-.04-.24-.13-.06-.08-.09-.18-.09-.3.06-.49.1-1.14.13-1.94v-1.2c0-1.29-.06-2.43-.19-3.42v-.04c0-.06.02-.09.05-.11.03-.01.08,0,.14.02l1.48.68h8.53l.32-.51Zm-8.97,1.1v4.01h8.82v-4.01h-8.82Zm7.2,6.95c.04-.07.12-.09.23-.06,1.27.46,2.3.97,3.1,1.52.8.55,1.38,1.07,1.74,1.57.36.5.54.93.54,1.3,0,.2-.05.36-.16.48-.11.12-.24.18-.41.18-.14,0-.27-.03-.38-.08-.07-.01-.12-.06-.15-.13-.39-.68-1.02-1.43-1.87-2.27-.85-.84-1.72-1.6-2.61-2.29-.1-.06-.11-.13-.04-.21Z"/>
      <path class="cls-4" d="m494.49,342.94c.39.39.59.74.59,1.03,0,.1-.02.17-.07.22-.05.05-.13.12-.24.2-.31.21-.53.46-.68.76-.55,1.1-1.2,2.19-1.94,3.27,1.31,1.14,1.96,2.22,1.96,3.25,0,.3-.08.51-.23.64s-.32.2-.51.2c-.44,0-.86-.51-1.27-1.54-.17-.45-.44-.92-.8-1.41-2.49,3.2-5.6,5.54-9.33,7.03-.1.04-.18.06-.25.06-.1,0-.15-.04-.15-.13s.1-.18.3-.3c1.87-.99,3.51-2.15,4.91-3.49,1.4-1.34,2.6-2.76,3.6-4.23-.76-.75-1.77-1.47-3.02-2.17-.32-.18-.49-.32-.49-.4,0-.07.06-.11.17-.11.13,0,.31.04.55.11,1.13.34,2.26.87,3.4,1.6.56-.93,1-1.78,1.31-2.57.31-.78.46-1.29.46-1.53s-.09-.44-.27-.6c-.18-.16-.37-.27-.55-.33-.18-.06-.27-.13-.27-.23,0-.15.23-.23.7-.23.32,0,.61.04.87.11.45.13.87.39,1.27.78Z"/>
      <path class="cls-4" d="m513.77,347.88c1.17.61,1.75,1.32,1.75,2.13,0,.24-.06.44-.18.59-.12.16-.27.23-.45.23-.38,0-.88-.38-1.5-1.14-.96-1.21-2.13-2.14-3.53-2.79v.36l-.02,3.46c0,2.38.03,3.75.11,4.12.01.1.06.32.13.67.07.35.11.62.11.81,0,.28-.09.53-.27.75-.18.22-.35.33-.51.33-.2,0-.38-.16-.56-.48-.18-.32-.32-.68-.43-1.08-.11-.4-.17-.68-.17-.83,0-.08.03-.26.08-.52.06-.26.1-.6.13-1.02l.06-1.71c.03-.42.05-.83.06-1.24s.03-.78.04-1.13c.04-.94.06-2.38.06-4.31,0-1.55-.03-2.57-.08-3.06-.04-.3-.13-.52-.25-.69-.13-.16-.25-.29-.37-.38-.12-.09-.2-.15-.24-.18-.11-.08-.17-.15-.17-.21,0-.17.13-.28.4-.34.27-.06.52-.08.76-.08.48,0,.87.16,1.18.46.15.16.23.34.23.55,0,.1,0,.18-.02.25-.01.07-.03.13-.04.19-.01.07-.05.27-.09.59-.05.32-.07.68-.07,1.08v.44c-.03.79-.04,1.72-.04,2.81,1.44.3,2.74.75,3.91,1.35Z"/>
      <path class="cls-4" d="m537.03,344.38c.31.23.59.49.84.76.25.27.38.47.38.6,0,.1-.04.2-.12.3-.08.1-.2.23-.37.38-.03.03-.09.09-.2.19-.11.1-.19.2-.25.3-.06.1-.1.19-.12.27l-.42,1.77-.7,2.87c.69.11,1.03.37,1.03.76,0,.23-.2.34-.61.34-.23,0-.53-.02-.91-.06-.73-.06-1.32-.08-1.77-.08-.83,0-1.72.03-2.66.08-.94.06-1.75.13-2.43.21.01.08.02.18.02.3,0,.68-.13,1.01-.4,1.01-.76,0-1.14-.68-1.14-2.03v-.59c0-.49-.08-1.48-.24-2.96-.16-1.48-.34-2.45-.54-2.91-.11-.27-.24-.48-.38-.62-.14-.15-.34-.26-.59-.35-.08-.03-.17-.05-.24-.07-.08-.02-.13-.04-.17-.06s-.05-.05-.05-.07c0-.08.14-.18.42-.27.14-.04.32-.06.55-.06.37,0,.69.06.97.17.28.11.58.33.89.65l.06.08.87-.06c3.79-.3,5.81-.49,6.08-.59.13-.04.24-.09.33-.14.09-.05.17-.09.24-.12.21-.11.39-.2.53-.25.14-.06.29-.08.44-.08.13,0,.34.12.65.35Zm-5.27,7.55c1.12-.08,2.1-.15,2.95-.19.18-.73.4-1.86.67-3.38.26-1.52.39-2.35.39-2.49,0-.11-.05-.19-.15-.24-.1-.05-.27-.07-.53-.07-.23,0-1.27.07-3.12.22-1.86.15-3.18.29-3.97.43,0,.21.02.48.06.8.27,2.03.46,3.75.59,5.17.96-.08,2-.17,3.11-.25Z"/>
      <path class="cls-4" d="m547.31,341.21c-.9.01-1.91.11-3.02.27h-.06c-.06,0-.11-.04-.15-.11l-.36-.76s-.02-.04-.02-.08c0-.07.05-.11.15-.11.77.07,1.63.12,2.58.15h6.5l.42-.59c.04-.06.11-.14.2-.26.09-.12.17-.21.22-.26.06-.06.11-.08.17-.08.11,0,.39.18.82.55.44.37.7.65.8.84.01.07.01.13,0,.19-.08.17-.26.25-.53.25h-7.73Zm-1.46,15.94c.01.14.02.25.02.34s0,.15.02.21v.11s0,.08-.02.11c-.08.13-.23.24-.43.33-.2.09-.42.14-.64.14-.1,0-.19-.04-.26-.13-.08-.08-.12-.18-.12-.3.08-1.1.14-2.21.17-3.34v-1.9c0-1.66-.08-3.03-.23-4.1v-.04c0-.06.02-.09.05-.11.04-.01.08,0,.14.02l1.41.65h7.07l.34-.4s.11-.12.21-.24c.1-.12.19-.18.27-.18.13,0,.38.15.77.44.39.3.63.54.73.74.04.06.03.12-.04.19-.17.16-.43.27-.78.36v2.51c.03,1.75.08,3.33.17,4.75,0,.08-.03.15-.08.21-.14.13-.32.24-.55.34-.23.1-.44.15-.63.15-.14,0-.23-.11-.25-.32l.02-.21.06-.3v-.42h-7.41v.38Zm6.52-14.63c.04-.06.11-.15.21-.29.1-.13.19-.2.27-.2.13,0,.38.17.76.51s.62.61.72.8c.04.06.03.12-.04.19-.18.16-.44.27-.76.34v1.18l.04.95c0,.28.01.66.04,1.14.01.07,0,.14-.04.21-.13.11-.31.21-.54.31-.23.09-.44.14-.62.14-.11,0-.17-.06-.17-.17v-.61h-5.4v.59c0,.06-.12.14-.37.25-.25.11-.48.17-.71.17-.08,0-.16-.04-.21-.13-.06-.08-.08-.18-.08-.3.04-.32.07-.65.08-.99,0-.2,0-.36.02-.49v-.95c0-1.01-.04-1.91-.13-2.68v-.04c0-.14.06-.18.17-.11l1.33.65h5.09l.34-.49Zm-3.44,10.07v-2.81h-3.08v2.81h3.08Zm0,.63h-3.08v2.91h3.08v-2.91Zm-2.09-9.63v2.81h5.4v-2.81h-5.4Zm6.42,8.99v-2.81h-3.12v2.81h3.12Zm-3.12.63v2.91h3.12v-2.91h-3.12Zm6.42-8.19c0-1.53-.08-2.91-.23-4.12v-.04c0-.11.06-.15.19-.11,1.2.37,1.79.64,1.79.82,0,.07-.06.14-.17.21l-.36.23v6.48c.03,1.75.08,3.36.17,4.86,0,.06-.02.12-.06.19-.11.14-.27.26-.46.35-.2.09-.4.14-.61.14-.13,0-.23-.04-.31-.13-.08-.08-.12-.18-.12-.3.08-1.31.14-2.63.17-3.97v-4.62Zm3.67-1.39c0-1.53-.08-2.91-.23-4.12v-.04c0-.11.06-.15.19-.11.7.21,1.19.38,1.46.5.27.12.4.23.4.33,0,.07-.06.14-.19.21l-.38.21v15.73c0,.41-.04.74-.12.99-.08.25-.25.46-.52.63-.27.17-.66.29-1.18.36h-.04c-.07,0-.12-.05-.15-.15-.07-.39-.2-.67-.4-.82-.25-.23-.73-.39-1.44-.49-.11-.03-.17-.09-.17-.19v-.02c0-.13.06-.18.17-.15,1.14.1,1.86.15,2.15.15.17,0,.29-.03.35-.11.06-.07.09-.18.09-.34v-12.58Z"/>
      <path class="cls-4" d="m572.92,348.38c.04-.06.12-.15.22-.29.11-.13.2-.2.28-.2.11,0,.36.17.74.5.38.33.62.59.72.79.04.07.03.14-.04.21-.23.17-.49.28-.78.34v2.6c.03,1.76.08,3.37.17,4.83,0,.08-.03.15-.08.21-.14.11-.32.22-.55.32-.23.1-.43.15-.61.15-.15,0-.25-.11-.27-.32,0-.08,0-.16.02-.21.01-.04.02-.1.03-.17,0-.07.02-.16.03-.27v-.49h-4.39v.44c.01.18.02.32.02.42s0,.18.02.25c.01.07,0,.14-.02.21-.08.13-.22.24-.41.33-.19.09-.4.14-.64.14-.1,0-.19-.04-.27-.13s-.13-.18-.13-.3c.1-1.38.16-2.91.19-4.6v-2.53c-.62.44-1.36.89-2.22,1.37-.1.06-.18.04-.23-.04l-.02-.02c-.07-.11-.06-.2.04-.25.82-.51,1.63-1.12,2.43-1.84v-.78c0-.28,0-.5-.02-.65,0-.07.02-.12.05-.14s.08-.02.14.01l.99.51c.75-.73,1.45-1.51,2.11-2.34h-2.07c-.9.01-1.91.11-3.02.27h-.06c-.06,0-.11-.04-.15-.11l-.36-.76s-.02-.04-.02-.08c0-.07.05-.11.15-.11.75.07,1.6.12,2.55.15h1.35v-2.93h-1.08c-.59.01-1.18.1-1.75.25-.11.03-.18,0-.21-.08l-.38-.76-.02-.08c0-.07.06-.11.17-.11.63.07,1.35.12,2.15.15h1.12c0-1.07-.06-2.07-.17-3,0-.14.07-.19.21-.15.68.21,1.14.38,1.4.5.26.12.39.23.39.33,0,.07-.06.14-.19.21l-.38.23v1.88h1.14l.74-1.01c.06-.1.13-.11.23-.04.56.46.95.8,1.16.99.46-.91.8-1.73,1.01-2.45.01-.11.09-.15.23-.11,1.04.52,1.56.87,1.56,1.03,0,.06-.08.1-.23.13l-.42.06c-.86,1.73-1.93,3.39-3.21,4.96h1.2l.42-.59c.06-.07.12-.15.18-.25.06-.1.13-.18.2-.25.07-.07.13-.11.19-.11.11,0,.38.18.8.55.42.37.68.65.78.84.01.07,0,.14-.02.21-.08.16-.25.23-.49.23h-3.8c-.87.97-1.66,1.77-2.36,2.41h3.19l.34-.46Zm-.13,3.86v-2.77h-4.16l-.23.21v2.55h4.39Zm-4.39.63v2.87h4.39v-2.87h-4.39Zm1.67-10.01v2.93h.87c.68-.84,1.34-1.82,2.01-2.93h-2.87Zm7.83,9.9c.03,1.76.08,3.37.17,4.83,0,.08-.02.15-.06.21-.32.35-.73.53-1.2.53-.1,0-.19-.05-.28-.14s-.14-.19-.14-.29c.06-.83.11-1.64.15-2.42.04-.78.07-1.8.08-3.07v-8.4c0-1.67-.08-3.03-.23-4.07v-.04c0-.06.02-.09.05-.11.03-.01.08,0,.14.02l1.56.8h3.25l.38-.42c.06-.06.14-.14.24-.26.11-.12.2-.18.29-.18.11,0,.36.19.74.58.38.39.62.69.72.9.04.07.03.14-.04.21-.14.1-.42.15-.84.15-1.31,2.59-2.3,4.39-2.98,5.4,1.14.83,1.97,1.7,2.49,2.62.52.92.78,1.82.78,2.72,0,1.03-.21,1.79-.63,2.29-.42.5-1.13.79-2.13.88h-.04c-.08,0-.13-.05-.13-.15-.03-.44-.11-.74-.25-.91-.08-.07-.23-.13-.42-.19-.2-.06-.42-.09-.65-.11-.11-.03-.17-.09-.17-.19,0-.11.06-.17.17-.17h1.73c.23,0,.42-.04.57-.13.41-.24.61-.77.61-1.58,0-1.76-.77-3.41-2.32-4.96-.06-.08-.07-.16-.04-.23.48-1.15,1.14-3.04,1.98-5.66h-3.53v11.53Z"/>
      <path class="cls-4" d="m588.71,345.98h.06c.11,0,.18.05.19.15.17.84.25,1.63.25,2.34,0,1.06-.15,1.98-.44,2.78-.3.8-.64,1.41-1.03,1.85-.2.23-.41.4-.64.53-.23.13-.45.19-.64.19-.18,0-.34-.07-.46-.21-.08-.13-.13-.27-.13-.42,0-.24.11-.51.34-.8l.11-.13c.62-.52,1.15-1.34,1.58-2.46.44-1.12.65-2.33.65-3.64,0-.11.06-.17.17-.17Zm2.79,2.05c0-1.53-.08-2.91-.23-4.12v-.04c0-.11.06-.15.19-.11,1.25.37,1.88.64,1.88.82,0,.07-.06.14-.17.21l-.34.23v10.62c0,.25.08.43.23.52.15.09.49.14,1.01.14h2.64c1.42,0,2.26-.01,2.51-.04.14-.01.25-.05.32-.11.07-.06.13-.15.17-.27.07-.13.15-.41.24-.86.09-.44.17-.84.23-1.18.06-.34.11-.59.14-.75.06-.2.11-.44.15-.74.01-.1.06-.15.15-.15s.13.06.13.17l.04,3.67c.24.08.4.17.5.26.09.09.14.21.14.37,0,.25-.12.45-.37.59-.25.14-.7.24-1.36.3-.66.06-1.66.08-3,.08h-2.79c-.65,0-1.14-.05-1.48-.15-.34-.1-.58-.27-.72-.51-.14-.24-.21-.59-.21-1.06v-7.92Zm.3-8.34l.02-.04c.03-.1.1-.13.21-.11,1.41.28,2.55.65,3.43,1.1.88.45,1.51.91,1.89,1.37s.57.89.57,1.27c0,.23-.06.4-.17.54-.11.13-.27.2-.46.2-.1,0-.22-.03-.36-.11-.04-.01-.08-.04-.13-.08-.38-.62-1.01-1.29-1.88-2.03-.87-.73-1.89-1.36-3.04-1.9-.1-.04-.13-.11-.08-.21Zm8.63,6.14c.07-.07.15-.08.23-.02,1.42.83,2.46,1.78,3.11,2.84.65,1.06.98,2.06.98,2.99,0,.49-.08.89-.24,1.19-.16.3-.36.45-.6.45-.17,0-.34-.08-.51-.25-.06-.06-.08-.11-.08-.17-.06-1.14-.31-2.34-.77-3.59-.46-1.25-1.16-2.32-2.1-3.21-.08-.06-.09-.13-.02-.23Z"/>
      <path class="cls-4" d="m608.83,342.98c.25-.62.49-1.29.7-2.03.21-.73.36-1.39.44-1.96.03-.13.1-.16.21-.11,1.24.48,1.86.8,1.86.97,0,.04-.06.09-.19.15l-.38.13c-.83,1.38-1.58,2.46-2.24,3.25.27.23.47.47.6.73.13.26.2.5.2.71,0,.23-.06.41-.17.55-.11.14-.25.21-.42.21-.14,0-.27-.04-.4-.13-.06-.03-.1-.08-.13-.17-.13-.42-.35-.87-.67-1.34-.32-.47-.67-.88-1.04-1.21-.08-.08-.09-.15-.02-.21.06-.06.15-.06.27-.02.56.17,1.01.37,1.33.59l.04-.11Zm-.71,7.93s.08-.02.14-.01l.97.3c.52.08.78.18.78.3,0,.08-.08.16-.23.23l-.34.17c-.52,1.97-1.15,3.5-1.9,4.6-.07.08-.15.11-.23.06l-.06-.02c-.08-.04-.11-.12-.08-.23.08-.21.2-.56.34-1.03.18-.63.33-1.35.43-2.14.11-.8.15-1.5.14-2.1,0-.06.02-.1.05-.12Zm2.25-2.76l2.58-.13c-.28-.63-.58-1.21-.89-1.73-.04-.1-.03-.17.04-.21.08-.04.17-.04.25,0,.76.46,1.32.96,1.67,1.48.35.52.53,1,.53,1.44,0,.27-.06.49-.18.65-.12.17-.27.25-.45.25-.13,0-.28-.06-.46-.17-.04-.04-.08-.11-.11-.21-.04-.3-.12-.64-.23-1.03l-1.44.3v4.05c.03,1.76.08,3.37.17,4.83,0,.08-.03.15-.08.21-.13.13-.29.23-.49.32s-.42.13-.65.13c-.1,0-.19-.05-.29-.14-.09-.09-.14-.19-.14-.28.06-.83.11-1.64.15-2.42.04-.78.07-1.81.08-3.07v-3.4c-.65.13-1.37.25-2.15.38-.08.17-.21.3-.38.4l-.06.02s-.09-.04-.15-.13l-.44-1.27-.02-.06s.01-.06.04-.08c.03-.03.07-.04.13-.04l1.69-.04c.65-1.17,1.19-2.17,1.63-3,.32-.62.63-1.27.92-1.95.29-.68.51-1.3.67-1.85.03-.13.11-.15.23-.08,1.14.55,1.71.92,1.71,1.1,0,.06-.07.11-.21.15l-.4.08c-.54.86-1.16,1.79-1.88,2.79-.72,1-1.42,1.91-2.11,2.74l.74-.02Zm2.01,2.81c0-.07.03-.12.11-.15.1-.03.18-.01.23.04.63.51,1.1,1.02,1.39,1.54.3.52.44,1,.44,1.44,0,.3-.06.54-.19.73s-.29.28-.49.28c-.14,0-.3-.06-.46-.19-.06-.06-.08-.13-.08-.21-.01-.51-.11-1.07-.3-1.7-.18-.63-.39-1.2-.63-1.72-.01-.01-.02-.04-.02-.06Zm3.8.17c-.48.01-.95.1-1.41.25-.11.03-.18,0-.21-.08l-.38-.72s-.02-.06-.02-.11c0-.07.05-.1.15-.08.59.06,1.18.1,1.77.13h.93l.34-.38c.04-.06.11-.14.21-.24.1-.11.19-.16.27-.16.13,0,.35.14.68.42.32.28.53.51.61.7.04.07.03.14-.04.21-.07.06-.17.1-.29.13-.12.03-.26.04-.43.04-.37,1.25-.93,2.39-1.68,3.42-.75,1.03-1.72,1.87-2.9,2.53-.1.06-.18.03-.23-.06l-.02-.04c-.04-.1-.03-.18.04-.23.89-.69,1.63-1.53,2.22-2.52.59-.99,1.02-2.06,1.29-3.2h-.89Zm7.14-10.15c.04-.06.09-.13.15-.22.06-.09.11-.16.15-.2.04-.04.09-.06.15-.06.11,0,.34.15.68.45.34.3.55.55.63.73.04.07.03.14-.04.21-.14.11-.37.2-.68.25v2.11c.04,1.75.09,3.06.15,3.95,0,.08-.03.16-.08.21-.1.11-.25.21-.45.3-.2.08-.43.13-.67.13h-.04c-.11,0-.17-.06-.17-.17v-.63h-2.43c.3,1.53.78,2.86,1.46,3.97.38-.46.75-.98,1.1-1.54.35-.56.63-1.08.82-1.54.04-.13.12-.15.23-.06.94.7,1.41,1.14,1.41,1.31,0,.06-.07.1-.21.13l-.36.02c-.35.3-.79.63-1.3,1.01-.51.38-1.02.72-1.51,1.01.48.75,1.03,1.39,1.66,1.92.63.54,1.33,1.01,2.1,1.41.07.04.11.09.11.15,0,.07-.01.12-.04.15-.03.03-.06.05-.11.06-.38.13-.68.45-.89.97-.03.06-.06.09-.1.11-.04.01-.07,0-.12-.04-1.2-.94-2.16-2.07-2.88-3.38-.73-1.31-1.26-3.03-1.59-5.15v7.75c0,.59-.11,1.05-.34,1.37-.23.32-.7.54-1.41.65h-.04c-.07,0-.12-.05-.15-.15-.04-.37-.15-.64-.34-.82-.32-.24-.8-.41-1.44-.51-.11-.03-.17-.08-.17-.17,0-.1.04-.15.13-.15.18,0,.38,0,.6.02.22.01.43.03.62.04.41.04.7.06.89.06.17,0,.28-.03.34-.08.06-.06.08-.16.08-.32v-8.21h-2.45v.57c0,.07-.11.16-.32.25-.21.1-.46.15-.76.15-.08,0-.16-.04-.21-.13-.06-.08-.08-.18-.08-.3.06-.6.1-1.38.13-2.32v-1.37c0-1.63-.08-2.96-.23-3.99v-.04s.02-.07.05-.08c.03-.01.08-.01.14,0l1.52.68h1.44c.2-.84.32-1.64.36-2.39.01-.11.08-.16.21-.15.7.16,1.19.28,1.46.38.27.1.4.19.4.27,0,.04-.06.1-.19.17l-.36.17-.72.97-.44.57h3.86l.3-.46Zm-.23,3.44v-2.39h-6.31v2.39h6.31Zm-6.31.61v2.39h6.31v-2.39h-6.31Z"/>
      <path class="cls-4" d="m441.06,372.13c-.34-.34-.51-.75-.51-1.22s.17-.89.51-1.22c.34-.34.75-.51,1.22-.51s.89.17,1.24.51c.34.34.52.75.52,1.22s-.17.89-.52,1.22c-.35.34-.76.51-1.24.51s-.89-.17-1.22-.51Z"/>
      <path class="cls-4" d="m463.99,367.68c.04-.07.1-.15.17-.24.07-.09.13-.16.17-.21.04-.05.09-.07.15-.07.13,0,.41.18.84.54.44.36.71.64.82.85.04.07.03.14-.04.21-.21.2-.51.32-.89.38v9.42c0,.41-.04.74-.13.99-.08.25-.27.46-.56.63-.29.17-.71.29-1.28.36h-.04c-.06,0-.11-.05-.17-.15-.07-.41-.21-.69-.42-.84-.34-.24-.87-.42-1.58-.53-.11-.03-.17-.08-.17-.17v-.02c0-.13.06-.18.17-.15,1.24.1,2.03.15,2.39.15.18,0,.31-.04.37-.11.06-.07.1-.19.1-.36v-2.93h-7.9v1.56c.04,1.27.08,2.22.13,2.87,0,.07-.02.13-.06.19-.11.14-.27.26-.46.36-.2.1-.42.15-.68.15-.11,0-.21-.05-.31-.14s-.14-.19-.14-.28c.06-.83.11-1.64.15-2.42.04-.78.07-1.81.08-3.07v-5.17c-1.37,1.58-2.86,2.84-4.48,3.78-.07.06-.15.04-.23-.04-.07-.1-.06-.18.04-.23,1.27-.97,2.41-2.13,3.44-3.48,1.03-1.35,1.91-2.8,2.66-4.35h-2.53c-.9.01-1.91.11-3.02.27h-.04c-.07,0-.13-.04-.17-.11l-.38-.74-.02-.08c0-.07.05-.11.15-.11.76.07,1.61.12,2.55.15h3.74c.24-.51.45-1.07.63-1.69.18-.62.3-1.18.36-1.67.01-.13.08-.17.21-.13,1.28.44,1.92.74,1.92.91,0,.06-.07.11-.21.15l-.4.11c-.31.87-.64,1.65-.99,2.32h7.68l.44-.63c.07-.08.14-.18.21-.27.07-.1.14-.19.21-.26.07-.08.13-.12.19-.12.13,0,.42.19.88.57.46.38.74.68.85.89.01.07,0,.14-.02.21-.08.16-.24.23-.46.23h-10.28c-.53,1.03-1.13,1.98-1.77,2.87l.38.17h7.41l.34-.51Zm-.11,3.8v-2.66h-7.9v2.66h7.9Zm-7.9.63v2.68h7.9v-2.68h-7.9Z"/>
      <path class="cls-4" d="m487.12,372.94c.06-.07.13-.17.22-.28.09-.12.17-.21.23-.27.06-.06.12-.09.18-.09.11,0,.41.2.89.59.48.39.77.7.89.91.01.03.02.06.02.11,0,.1-.05.18-.16.24-.11.06-.23.09-.37.09h-7.39c.9.96,2.08,1.81,3.55,2.57,1.46.75,2.95,1.31,4.46,1.66.1.01.15.06.15.15-.01.07-.06.13-.15.17-.23.06-.43.17-.6.34-.18.17-.31.39-.39.65-.04.11-.11.15-.21.11-1.51-.54-2.9-1.29-4.19-2.27-1.29-.98-2.34-2.1-3.16-3.37h-.13v1.96c.04,1.63.09,2.86.15,3.67,0,.08-.02.15-.06.19-.1.14-.26.26-.5.35-.23.09-.47.14-.71.14-.13,0-.23-.04-.32-.13-.08-.08-.13-.18-.13-.3.08-1.15.14-2.32.17-3.5v-1.98c-.97,1.15-2.18,2.19-3.62,3.09-1.44.91-3.04,1.66-4.78,2.25h-.04c-.07,0-.13-.04-.17-.11v-.02l-.04-.08c0-.06.03-.11.11-.15,1.42-.66,2.73-1.46,3.94-2.4,1.2-.94,2.21-1.93,3.03-2.99h-3.42c-.9.01-1.91.11-3.02.27h-.06c-.06,0-.11-.03-.15-.11l-.38-.76s-.02-.04-.02-.08c0-.07.05-.11.15-.11.77.07,1.63.12,2.58.15h5.91c0-.62-.04-1.26-.11-1.92,0-.14.07-.19.21-.15.69.21,1.16.38,1.42.51s.39.24.39.34c0,.07-.06.14-.17.21l-.36.23v.78h5.7l.46-.65Zm-15.92-2.64s-.04-.09-.03-.14c0-.05.04-.08.1-.09,1.31-.53,3.03-1.34,5.17-2.41.1-.07.17-.06.21.04v.02c.03.08.01.16-.04.21-1.38,1.2-2.72,2.27-4.03,3.23-.01.18-.08.34-.21.49-.03.04-.07.06-.12.05-.05,0-.09-.04-.12-.09l-.46-.65-.46-.65Zm.68-7.43c.07-.07.15-.08.23-.04,1.24.35,2.15.81,2.74,1.37.59.56.89,1.1.89,1.6,0,.23-.06.41-.18.56-.12.15-.28.22-.47.22-.16,0-.3-.03-.42-.11-.06-.03-.11-.08-.15-.17-.18-.51-.52-1.05-1.01-1.64-.49-.58-1.02-1.12-1.58-1.59-.11-.06-.13-.13-.04-.21Zm10.58.3c.04-.06.11-.15.21-.28s.19-.2.27-.2c.11,0,.37.17.76.5.39.33.64.59.74.79.04.07.03.14-.04.21-.2.16-.45.26-.76.32v2.24c.04,1.86.09,3.26.15,4.2,0,.08-.03.16-.08.21-.13.13-.31.24-.54.34-.23.1-.43.15-.6.15h-.04c-.11,0-.17-.06-.17-.17v-.72h-4.12v.63c0,.07-.12.16-.35.27-.23.11-.47.17-.71.17-.1,0-.18-.04-.25-.13-.07-.08-.11-.18-.11-.3.06-.65.11-1.53.15-2.64v-1.54c0-1.66-.08-3.03-.23-4.1v-.04c0-.06.02-.09.05-.11.04-.01.08,0,.14.02l1.41.65h.87c.2-.89.3-1.7.3-2.45,0-.13.06-.18.19-.15.7.13,1.2.24,1.48.34.28.1.42.19.42.27,0,.06-.06.12-.19.19l-.36.19-.74,1.03-.4.57h2.24l.32-.49Zm-.11,3.67v-2.58h-4.12v2.58h4.12Zm-4.12.61v2.68h4.12v-2.68h-4.12Zm5.87.21c.06-.08.13-.12.23-.11,1.17.21,2.12.5,2.87.88.75.37,1.29.76,1.62,1.16.34.4.51.77.51,1.11,0,.2-.06.36-.18.49-.12.13-.27.19-.45.19-.06,0-.16-.01-.3-.04-.07-.01-.13-.06-.17-.13-.37-.53-.95-1.12-1.74-1.75-.8-.63-1.57-1.16-2.33-1.58-.08-.06-.11-.13-.06-.21Zm3.02-5.26l.99.76c.56.31.84.53.84.65,0,.06-.07.08-.21.08l-.34-.02c-.56.45-1.83,1.35-3.8,2.7-.08.07-.16.06-.23-.04l-.02-.02c-.07-.07-.07-.15,0-.25.2-.25.29-.37.27-.34.44-.53.87-1.12,1.29-1.75s.75-1.2.97-1.71c.07-.11.15-.13.23-.06Z"/>
      <path class="cls-4" d="m510.18,362.66c.46.39.75.7.84.91l.02.08c0,.11-.05.2-.16.26-.11.06-.23.09-.37.09h-3v14.33c0,.62-.13,1.1-.39,1.45-.26.34-.81.57-1.64.67h-.04c-.07,0-.12-.05-.15-.15-.07-.39-.22-.68-.44-.84-.35-.25-.93-.44-1.73-.55-.11-.03-.17-.09-.17-.19,0-.08.04-.13.13-.13.2,0,.69.03,1.48.08l1.14.06c.2,0,.33-.03.4-.11.07-.07.11-.19.11-.36v-14.27h-1.31c-.77.03-1.51.12-2.22.27-.04,0-.08,0-.13-.02-.04-.01-.07-.04-.08-.08l-.32-.68c-.06.08-.17.17-.34.24-.17.08-.35.14-.55.18v8.21c.03,1.76.08,3.37.17,4.83,0,.08-.03.16-.08.21-.14.13-.32.24-.54.35-.22.11-.42.16-.6.16-.14,0-.23-.11-.25-.32,0-.08,0-.15.02-.21l.06-.51v-.53h-5.83v.57l.06.91c.01.07,0,.14-.02.21-.08.13-.22.24-.41.34-.19.1-.4.15-.64.15-.11,0-.22-.05-.32-.14-.1-.09-.15-.19-.15-.29.06-.83.11-1.64.15-2.42.04-.78.07-1.8.08-3.07v-5.83c0-1.67-.08-3.03-.23-4.07v-.04c0-.06.02-.09.05-.12.04-.02.08-.02.14.01l1.39.7h5.51l.32-.42s.11-.12.21-.24c.1-.12.19-.18.27-.18.11,0,.33.13.67.38.33.25.57.48.73.68,0-.01.07-.02.21-.02.77.07,1.63.12,2.58.15h3.42l.44-.65c.07-.08.14-.18.21-.27.07-.1.14-.19.21-.26.07-.08.13-.12.19-.12.13,0,.42.2.89.59Zm-15.96,6.52h2.24v-5.51h-2.24v5.51Zm0,6.31h2.24v-5.7h-2.24v5.7Zm3.42-6.31h2.41v-5.51h-2.41v5.51Zm0,6.31h2.41v-5.7h-2.41v5.7Z"/>
      <path class="cls-4" d="m514.89,365.21c.25-.62.49-1.29.7-2.03.21-.73.36-1.39.44-1.96.03-.13.1-.16.21-.11,1.24.48,1.86.8,1.86.97,0,.04-.06.09-.19.15l-.38.13c-.83,1.38-1.58,2.46-2.24,3.25.27.23.47.47.6.73.13.26.2.5.2.71,0,.23-.06.41-.17.55-.11.14-.25.21-.42.21-.14,0-.27-.04-.4-.13-.06-.03-.1-.08-.13-.17-.13-.42-.35-.87-.67-1.34-.32-.47-.67-.88-1.04-1.21-.08-.08-.09-.15-.02-.21.06-.06.15-.06.27-.02.56.17,1.01.37,1.33.59l.04-.11Zm-.71,7.93s.08-.02.14-.01l.97.3c.52.08.78.18.78.3,0,.08-.08.16-.23.23l-.34.17c-.52,1.97-1.15,3.5-1.9,4.6-.07.08-.15.11-.23.06l-.06-.02c-.08-.04-.11-.12-.08-.23.08-.21.2-.56.34-1.03.18-.63.33-1.35.43-2.14.11-.8.15-1.5.14-2.1,0-.06.02-.1.05-.12Zm2.25-2.76l2.58-.13c-.28-.63-.58-1.21-.89-1.73-.04-.1-.03-.17.04-.21.08-.04.17-.04.25,0,.76.46,1.32.96,1.67,1.48.35.52.53,1,.53,1.44,0,.27-.06.49-.18.65-.12.17-.27.25-.45.25-.13,0-.28-.06-.46-.17-.04-.04-.08-.11-.11-.21-.04-.3-.12-.64-.23-1.03l-1.44.3v4.05c.03,1.76.08,3.37.17,4.83,0,.08-.03.15-.08.21-.13.13-.29.23-.49.32s-.42.13-.65.13c-.1,0-.19-.05-.29-.14-.09-.09-.14-.19-.14-.28.06-.83.11-1.64.15-2.42.04-.78.07-1.81.08-3.07v-3.4c-.65.13-1.37.25-2.15.38-.08.17-.21.3-.38.4l-.06.02s-.09-.04-.15-.13l-.44-1.27-.02-.06s.01-.06.04-.08c.03-.03.07-.04.13-.04l1.69-.04c.65-1.17,1.19-2.17,1.63-3,.32-.62.63-1.27.92-1.95.29-.68.51-1.3.67-1.85.03-.13.11-.15.23-.08,1.14.55,1.71.92,1.71,1.1,0,.06-.07.11-.21.15l-.4.08c-.54.86-1.16,1.79-1.88,2.79-.72,1-1.42,1.91-2.11,2.74l.74-.02Zm2.01,2.81c0-.07.03-.12.11-.15.1-.03.18-.01.23.04.63.51,1.1,1.02,1.39,1.54.3.52.44,1,.44,1.44,0,.3-.06.54-.19.73s-.29.28-.49.28c-.14,0-.3-.06-.46-.19-.06-.06-.08-.13-.08-.21-.01-.51-.11-1.07-.3-1.7-.18-.63-.39-1.2-.63-1.72-.01-.01-.02-.04-.02-.06Zm3.8.17c-.48.01-.95.1-1.41.25-.11.03-.18,0-.21-.08l-.38-.72s-.02-.06-.02-.11c0-.07.05-.1.15-.08.59.06,1.18.1,1.77.13h.93l.34-.38c.04-.06.11-.14.21-.24.1-.11.19-.16.27-.16.13,0,.35.14.68.42.32.28.53.51.61.7.04.07.03.14-.04.21-.07.06-.17.1-.29.13-.12.03-.26.04-.43.04-.37,1.25-.93,2.39-1.68,3.42-.75,1.03-1.72,1.87-2.9,2.53-.1.06-.18.03-.23-.06l-.02-.04c-.04-.1-.03-.18.04-.23.89-.69,1.63-1.53,2.22-2.52.59-.99,1.02-2.06,1.29-3.2h-.89Zm7.14-10.15c.04-.06.09-.13.15-.22.06-.09.11-.16.15-.2.04-.04.09-.06.15-.06.11,0,.34.15.68.45.34.3.55.55.63.73.04.07.03.14-.04.21-.14.11-.37.2-.68.25v2.11c.04,1.75.09,3.06.15,3.95,0,.08-.03.16-.08.21-.1.11-.25.21-.45.3s-.43.13-.67.13h-.04c-.11,0-.17-.06-.17-.17v-.63h-2.43c.3,1.53.78,2.86,1.46,3.97.38-.46.75-.98,1.1-1.54.35-.56.63-1.08.82-1.54.04-.13.12-.15.23-.06.94.7,1.41,1.14,1.41,1.31,0,.06-.07.1-.21.13l-.36.02c-.35.3-.79.63-1.3,1.01-.51.38-1.02.72-1.51,1.01.48.75,1.03,1.39,1.66,1.92.63.54,1.33,1.01,2.1,1.41.07.04.11.09.11.15,0,.07-.01.12-.04.15-.03.03-.06.05-.11.06-.38.13-.68.45-.89.97-.03.06-.06.09-.1.11-.04.01-.07,0-.12-.04-1.2-.94-2.16-2.07-2.88-3.38-.73-1.31-1.26-3.03-1.59-5.15v7.75c0,.59-.11,1.05-.34,1.37-.23.32-.7.54-1.41.65h-.04c-.07,0-.12-.05-.15-.15-.04-.37-.15-.64-.34-.82-.32-.24-.8-.41-1.44-.51-.11-.03-.17-.08-.17-.17,0-.1.04-.15.13-.15.18,0,.38,0,.6.02.22.01.43.03.62.04.41.04.7.06.89.06.17,0,.28-.03.34-.08.06-.06.08-.16.08-.32v-8.21h-2.45v.57c0,.07-.11.16-.32.25-.21.1-.46.15-.76.15-.08,0-.16-.04-.21-.13-.06-.08-.08-.18-.08-.3.06-.6.1-1.38.13-2.32v-1.37c0-1.63-.08-2.96-.23-3.99v-.04s.02-.07.05-.08c.03-.01.08-.01.14,0l1.52.68h1.44c.2-.84.32-1.64.36-2.39.01-.11.08-.16.21-.15.7.16,1.19.28,1.46.38.27.1.4.19.4.27,0,.04-.06.1-.19.17l-.36.17-.72.97-.44.57h3.86l.3-.46Zm-.23,3.44v-2.39h-6.31v2.39h6.31Zm-6.31.61v2.39h6.31v-2.39h-6.31Z"/>
    </g>
    <g>
      <path class="cls-4" d="m614.32,626.46c.04-.06.12-.15.22-.28.11-.13.2-.2.28-.2.11,0,.36.17.74.5.38.33.62.59.72.79.04.07.03.14-.04.21-.23.17-.49.28-.78.34v2.6c.03,1.76.08,3.37.17,4.83,0,.08-.03.15-.08.21-.14.11-.32.22-.55.32-.23.1-.43.15-.61.15-.15,0-.25-.11-.27-.32,0-.08,0-.16.02-.21.01-.04.02-.1.03-.17,0-.07.02-.16.03-.27v-.49h-4.39v.44c.01.18.02.32.02.42s0,.18.02.25c.01.07,0,.14-.02.21-.08.13-.22.24-.41.33-.19.09-.4.14-.64.14-.1,0-.19-.04-.27-.13s-.13-.18-.13-.3c.1-1.38.16-2.91.19-4.6v-2.53c-.62.44-1.36.89-2.22,1.37-.1.06-.18.04-.23-.04l-.02-.02c-.07-.11-.06-.2.04-.25.82-.51,1.63-1.12,2.43-1.84v-.78c0-.28,0-.5-.02-.65,0-.07.02-.12.05-.14.04-.02.08-.02.14.01l.99.51c.75-.73,1.45-1.51,2.11-2.34h-2.07c-.9.01-1.91.11-3.02.27h-.06c-.06,0-.11-.03-.15-.11l-.36-.76s-.02-.04-.02-.08c0-.07.05-.11.15-.11.75.07,1.6.12,2.55.15h1.35v-2.93h-1.08c-.59.01-1.18.1-1.75.25-.11.03-.18,0-.21-.08l-.38-.76-.02-.08c0-.07.06-.11.17-.11.63.07,1.35.12,2.15.15h1.12c0-1.07-.06-2.07-.17-3,0-.14.07-.19.21-.15.68.21,1.14.38,1.4.5.26.12.39.23.39.33,0,.07-.06.14-.19.21l-.38.23v1.88h1.14l.74-1.01c.06-.1.13-.11.23-.04.56.46.95.8,1.16.99.46-.91.8-1.73,1.01-2.45.01-.11.09-.15.23-.11,1.04.52,1.56.87,1.56,1.03,0,.06-.08.1-.23.13l-.42.06c-.86,1.73-1.93,3.39-3.21,4.96h1.2l.42-.59c.06-.07.12-.15.18-.25.06-.1.13-.18.2-.25.07-.07.13-.11.19-.11.11,0,.38.18.8.55.42.37.68.65.78.84.01.07,0,.14-.02.21-.08.16-.25.23-.49.23h-3.8c-.87.97-1.66,1.77-2.36,2.41h3.19l.34-.46Zm-.13,3.86v-2.77h-4.16l-.23.21v2.55h4.39Zm-4.39.63v2.87h4.39v-2.87h-4.39Zm1.67-10.01v2.93h.87c.68-.84,1.34-1.82,2.01-2.93h-2.87Zm7.83,9.9c.03,1.76.08,3.37.17,4.83,0,.08-.02.15-.06.21-.32.35-.73.53-1.2.53-.1,0-.19-.05-.28-.14s-.14-.19-.14-.29c.06-.83.11-1.64.15-2.42.04-.78.07-1.8.08-3.07v-8.4c0-1.67-.08-3.03-.23-4.07v-.04c0-.06.02-.09.05-.11.03-.01.08,0,.14.02l1.56.8h3.25l.38-.42c.06-.06.14-.14.24-.26.11-.12.2-.18.29-.18.11,0,.36.19.74.58.38.39.62.69.72.9.04.07.03.14-.04.21-.14.1-.42.15-.84.15-1.31,2.59-2.3,4.39-2.98,5.4,1.14.83,1.97,1.7,2.49,2.62.52.92.78,1.82.78,2.72,0,1.03-.21,1.79-.63,2.29-.42.5-1.13.79-2.13.88h-.04c-.08,0-.13-.05-.13-.15-.03-.44-.11-.74-.25-.91-.08-.07-.23-.13-.42-.19-.2-.06-.42-.09-.65-.11-.11-.03-.17-.09-.17-.19,0-.11.06-.17.17-.17h1.73c.23,0,.42-.04.57-.13.41-.24.61-.77.61-1.58,0-1.76-.77-3.41-2.32-4.96-.06-.08-.07-.16-.04-.23.48-1.15,1.14-3.04,1.98-5.66h-3.53v11.53Z"/>
      <path class="cls-4" d="m644.32,620.06c.07-.08.15-.08.23,0,.48.46.81.8,1,1.01.19.21.29.37.29.46,0,.07-.08.12-.23.15l-.38.04c-.3.34-.65.69-1.07,1.07-.42.37-.81.68-1.17.92-.07.07-.15.08-.23.02l-.02-.02c-.08-.06-.11-.13-.06-.23.28-.52.58-1.18.89-1.98h-13.3c.01.63-.08,1.19-.27,1.66-.2.47-.45.83-.76,1.07-.27.2-.55.3-.84.3-.32,0-.54-.11-.63-.34-.04-.11-.06-.21-.06-.3,0-.32.19-.6.57-.84.39-.25.72-.67.99-1.25s.39-1.2.36-1.86v-.04c0-.08.05-.13.15-.13h.04c.11,0,.18.04.19.13.1.31.17.63.21.97h9.14l.02-.04c.37-.55.71-1.17,1.03-1.86.32-.69.56-1.32.72-1.9.03-.13.11-.15.23-.08,1.24.55,1.86.91,1.86,1.08,0,.06-.07.1-.21.13l-.4.08c-.68.86-1.56,1.72-2.64,2.6h3.61l.76-.8Zm-3.8,3.1c.04-.06.11-.14.21-.26.1-.12.19-.18.27-.18.11,0,.36.16.73.46.37.31.61.56.71.74.04.07.03.14-.04.21-.18.16-.42.25-.7.3v1.25l.02.74c.01.56.04,1.06.08,1.5,0,.07-.02.14-.06.21-.11.11-.29.22-.52.32-.23.1-.44.15-.62.15h-.02c-.11,0-.17-.06-.17-.17v-.72h-3.12c-.46.92-.94,1.76-1.44,2.53h5.7l.32-.42s.11-.12.21-.24c.1-.12.19-.18.27-.18.13,0,.39.15.79.44.4.3.65.54.75.72.04.07.03.14-.04.21-.17.16-.43.27-.78.36v1.6c.04,1.3.08,2.27.13,2.93,0,.08-.02.15-.06.21-.13.13-.31.24-.55.34-.24.1-.45.15-.63.15-.14,0-.24-.11-.3-.32,0-.08,0-.16.02-.21.01-.04.02-.09.03-.15,0-.06.02-.13.03-.21v-.46h-9.96v.95c0,.08-.12.18-.36.28-.24.11-.49.16-.74.16-.08,0-.16-.04-.22-.13-.06-.08-.09-.18-.09-.3.06-.48.1-1.1.13-1.86v-1.14c0-1.18-.06-2.28-.17-3.29v-.04c0-.06.01-.09.04-.11.03-.01.07,0,.13.02l1.41.68h3.19c.21-.72.42-1.56.61-2.53h-2.7v.59c0,.07-.12.16-.37.26-.25.11-.49.16-.73.16-.08,0-.15-.04-.21-.13-.06-.08-.08-.18-.08-.3.04-.32.07-.65.08-.99,0-.2,0-.36.02-.49v-.97c0-1.08-.05-2-.15-2.74v-.04c0-.06.01-.09.04-.11s.07,0,.13.02l1.37.63h7.09l.32-.44Zm-9.99-5.68c.06-.06.13-.07.23-.04.87.32,1.52.71,1.93,1.17.41.46.62.9.62,1.32,0,.23-.06.41-.18.56-.12.15-.27.22-.45.22-.16,0-.3-.05-.44-.15-.07-.03-.11-.08-.13-.17-.1-.42-.3-.89-.6-1.39s-.63-.94-.98-1.31c-.07-.07-.07-.14,0-.21Zm1.25,13.36v3.53h9.96v-3.53h-9.96Zm8.63-6.61h-7.41v2.85h7.41v-2.85Zm-5.47-7.16h.02c.07-.04.15-.04.23,0,.75.38,1.29.8,1.64,1.27.34.46.52.91.52,1.33,0,.27-.07.49-.2.67-.13.18-.3.26-.5.26-.16,0-.32-.06-.49-.19-.07-.06-.11-.13-.11-.21-.04-.46-.17-.96-.39-1.49-.22-.53-.47-1-.75-1.4-.06-.1-.05-.18.02-.23Z"/>
      <path class="cls-4" d="m664.55,622.6c.06-.07.14-.18.24-.32.11-.14.19-.25.25-.32.06-.07.12-.11.18-.11.11,0,.43.22.95.65.52.44.84.76.95.97.01.07.01.14,0,.21-.08.16-.25.23-.51.23h-8.09c.41,2.27,1.28,4.35,2.63,6.24,1.34,1.89,3.39,3.5,6.13,4.82.07.04.11.09.11.15s-.01.09-.03.12c-.02.02-.07.04-.14.05-.61.11-1,.43-1.18.95-.04.13-.12.15-.23.08-2.49-1.46-4.3-3.26-5.44-5.38-1.13-2.12-1.88-4.46-2.25-7.01-.2,1.79-.6,3.41-1.19,4.86-.6,1.45-1.54,2.82-2.84,4.11-1.29,1.29-3.03,2.44-5.19,3.45-.11.04-.19.02-.23-.06l-.06-.11s-.02-.04-.02-.08c0-.06.03-.11.08-.15,1.86-1.04,3.35-2.19,4.47-3.44,1.12-1.25,1.95-2.58,2.48-3.97s.9-2.93,1.1-4.62h-4.41c-.9.01-1.91.11-3.02.27h-.04c-.07,0-.13-.04-.17-.11l-.38-.74-.02-.08c0-.07.05-.11.15-.11.76.07,1.61.12,2.55.15h5.4c.04-.42.08-1.06.11-1.9.01-.21.02-.53.02-.97,0-1.31-.07-2.39-.21-3.23,0-.14.06-.2.19-.17.77.08,1.31.16,1.6.23.3.07.44.15.44.23,0,.07-.06.14-.17.21l-.34.25c0,.3,0,.51-.02.65-.03,1.94-.1,3.5-.21,4.69h5.85l.51-.72Z"/>
      <path class="cls-4" d="m669.55,622.07c.06-.06.13-.08.21-.06,1.07.14,1.86.42,2.38.83.51.42.77.84.77,1.28,0,.23-.06.41-.19.56-.13.15-.29.22-.49.22-.13,0-.25-.03-.38-.08-.06-.01-.11-.06-.15-.15-.16-.41-.43-.82-.81-1.25-.39-.42-.81-.8-1.28-1.14-.08-.07-.11-.14-.06-.21Zm.59,8.34h.76c.13,0,.23-.02.3-.06.07-.04.15-.15.25-.34l4.35-8.87c.07-.11.15-.15.23-.11l.04.02c.11.04.15.11.11.21-1.91,4.72-2.99,7.45-3.23,8.21-.24.68-.36,1.28-.36,1.82,0,.23.03.47.09.73.06.26.1.42.12.48.11.48.2.89.25,1.22.06.34.08.73.08,1.16-.03.45-.14.81-.35,1.08-.2.27-.48.4-.83.4-.18,0-.33-.08-.44-.25-.11-.17-.18-.41-.21-.72,0-.08,0-.16.02-.21.08-.76.13-1.44.13-2.03,0-1.13-.15-1.78-.44-1.96-.21-.15-.5-.25-.87-.3-.11-.03-.17-.09-.17-.19v-.13c0-.11.06-.17.17-.17Zm1.03-12.88c.06-.07.13-.1.23-.08.77.13,1.41.33,1.92.6.51.27.87.57,1.1.89.22.32.34.62.34.9,0,.23-.06.41-.19.56-.13.15-.3.22-.51.22-.14,0-.27-.03-.38-.08-.06-.03-.11-.08-.15-.17-.18-.45-.49-.91-.92-1.38-.43-.47-.89-.88-1.38-1.23-.1-.06-.12-.13-.06-.21Zm14.44,1.2c.04-.07.11-.17.2-.29.09-.12.17-.21.22-.27.06-.06.11-.09.17-.09.13,0,.42.19.87.57.45.38.73.68.82.89.01.07,0,.14-.02.21-.08.14-.25.21-.51.21h-5.38v14.21h3.93l.44-.65c.04-.07.11-.17.2-.29.09-.12.17-.21.22-.27s.11-.09.17-.09c.13,0,.42.2.89.59.46.39.75.7.84.91l.02.08c0,.11-.05.2-.16.26-.11.06-.24.09-.39.09h-10.3c-.9.01-1.91.11-3.02.27h-.06c-.06,0-.11-.04-.15-.11l-.38-.76s-.02-.04-.02-.08c0-.07.05-.11.15-.11.77.07,1.63.12,2.58.15h3.63v-14.21h-1.69c-.87.01-1.85.11-2.93.27h-.06c-.06,0-.11-.03-.15-.11l-.38-.72s-.02-.04-.02-.08c0-.07.06-.11.17-.11.76.07,1.61.12,2.55.15h7.14l.42-.63Z"/>
      <path class="cls-4" d="m694.82,628.42c-.13,1.58-.48,3.04-1.07,4.4-.58,1.36-1.53,2.54-2.84,3.54-.08.06-.16.05-.23-.02l-.02-.02c-.07-.07-.08-.15-.02-.23,1.15-1.29,1.92-2.73,2.31-4.31.39-1.58.58-3.37.58-5.38v-2.39c0-.76-.04-1.51-.11-2.26v-.04c0-.06.01-.09.04-.11.03-.01.07,0,.13.02l1.56.74h10.11l.32-.42s.11-.12.21-.24c.1-.12.19-.18.27-.18.13,0,.39.15.8.45.41.3.66.55.76.75.04.06.03.12-.04.19-.16.16-.41.27-.76.36v2.05c.04,1.7.09,2.98.15,3.84,0,.08-.03.16-.08.21-.13.13-.32.24-.57.34-.25.1-.47.15-.65.15-.08,0-.15-.03-.2-.1-.05-.06-.08-.14-.1-.22,0-.08,0-.15.02-.21l.06-.42v-.49h-10.64Zm0-8.95c-.9.01-1.91.11-3.02.27h-.06c-.06,0-.11-.04-.15-.11l-.4-.76s-.02-.04-.02-.08c0-.07.06-.11.17-.11.76.07,1.61.12,2.55.15h12.27l.46-.65c.06-.07.13-.17.22-.29.09-.12.17-.21.23-.27.06-.06.12-.09.18-.09.13,0,.43.2.91.59.48.39.77.7.89.91.01.03.02.06.02.11,0,.11-.05.2-.15.25-.1.06-.23.08-.38.08h-13.72Zm.08,6.9c0,.62-.01,1.09-.04,1.41h10.6v-4.79h-10.56v3.38Z"/>
      <path class="cls-4" d="m713.57,621.06c.25-.62.49-1.29.7-2.03.21-.73.36-1.39.44-1.96.03-.13.1-.16.21-.11,1.24.48,1.86.8,1.86.97,0,.04-.06.09-.19.15l-.38.13c-.83,1.38-1.58,2.46-2.24,3.25.27.23.47.47.6.73.13.26.2.5.2.71,0,.23-.06.41-.17.55-.11.14-.25.21-.42.21-.14,0-.27-.04-.4-.13-.06-.03-.1-.08-.13-.17-.13-.42-.35-.87-.67-1.34-.32-.47-.67-.88-1.04-1.21-.08-.08-.09-.15-.02-.21.06-.06.15-.06.27-.02.56.17,1.01.37,1.33.59l.04-.11Zm-.71,7.93s.08-.02.14-.01l.97.3c.52.08.78.18.78.3,0,.08-.08.16-.23.23l-.34.17c-.52,1.97-1.15,3.5-1.9,4.6-.07.08-.15.11-.23.06l-.06-.02c-.08-.04-.11-.12-.08-.23.08-.21.2-.56.34-1.03.18-.63.33-1.35.43-2.14.11-.8.15-1.5.14-2.1,0-.06.02-.1.05-.12Zm2.25-2.76l2.58-.13c-.28-.63-.58-1.21-.89-1.73-.04-.1-.03-.17.04-.21.08-.04.17-.04.25,0,.76.46,1.32.96,1.67,1.48.35.52.53,1,.53,1.44,0,.27-.06.49-.18.65-.12.17-.27.25-.45.25-.13,0-.28-.06-.46-.17-.04-.04-.08-.11-.11-.21-.04-.3-.12-.64-.23-1.03l-1.44.3v4.05c.03,1.76.08,3.37.17,4.83,0,.08-.03.15-.08.21-.13.13-.29.23-.49.32s-.42.13-.65.13c-.1,0-.19-.05-.29-.14-.09-.09-.14-.19-.14-.28.06-.83.11-1.64.15-2.42.04-.78.07-1.81.08-3.07v-3.4c-.65.13-1.37.25-2.15.38-.08.17-.21.3-.38.4l-.06.02s-.09-.04-.15-.13l-.44-1.27-.02-.06s.01-.06.04-.08c.03-.03.07-.04.13-.04l1.69-.04c.65-1.17,1.19-2.17,1.63-3,.32-.62.63-1.27.92-1.95.29-.68.51-1.3.67-1.85.03-.13.11-.15.23-.08,1.14.55,1.71.92,1.71,1.1,0,.06-.07.11-.21.15l-.4.08c-.54.86-1.16,1.79-1.88,2.79-.72,1-1.42,1.91-2.11,2.74l.74-.02Zm2.01,2.81c0-.07.03-.12.11-.15.1-.03.18-.01.23.04.63.51,1.1,1.02,1.39,1.54.3.52.44,1,.44,1.44,0,.3-.06.54-.19.73s-.29.28-.49.28c-.14,0-.3-.06-.46-.19-.06-.06-.08-.13-.08-.21-.01-.51-.11-1.07-.3-1.7-.18-.63-.39-1.2-.63-1.72-.01-.01-.02-.04-.02-.06Zm3.8.17c-.48.01-.95.1-1.41.25-.11.03-.18,0-.21-.08l-.38-.72s-.02-.06-.02-.11c0-.07.05-.1.15-.08.59.06,1.18.1,1.77.13h.93l.34-.38c.04-.06.11-.14.21-.24.1-.11.19-.16.27-.16.13,0,.35.14.68.42.32.28.53.51.61.7.04.07.03.14-.04.21-.07.06-.17.1-.29.13-.12.03-.26.04-.43.04-.37,1.25-.93,2.39-1.68,3.42-.75,1.03-1.72,1.87-2.9,2.53-.1.06-.18.03-.23-.06l-.02-.04c-.04-.1-.03-.18.04-.23.89-.69,1.63-1.53,2.22-2.52.59-.99,1.02-2.06,1.29-3.2h-.89Zm7.14-10.15c.04-.06.09-.13.15-.22.06-.09.11-.16.15-.2.04-.04.09-.06.15-.06.11,0,.34.15.68.45.34.3.55.55.63.73.04.07.03.14-.04.21-.14.11-.37.2-.68.25v2.11c.04,1.75.09,3.06.15,3.95,0,.08-.03.16-.08.21-.1.11-.25.21-.45.3s-.43.13-.67.13h-.04c-.11,0-.17-.06-.17-.17v-.63h-2.43c.3,1.53.78,2.86,1.46,3.97.38-.46.75-.98,1.1-1.54.35-.56.63-1.08.82-1.54.04-.13.12-.15.23-.06.94.7,1.41,1.14,1.41,1.31,0,.06-.07.1-.21.13l-.36.02c-.35.3-.79.63-1.3,1.01-.51.38-1.02.72-1.51,1.01.48.75,1.03,1.39,1.66,1.92.63.54,1.33,1.01,2.1,1.41.07.04.11.09.11.15,0,.07-.01.12-.04.15-.03.03-.06.05-.11.06-.38.13-.68.45-.89.97-.03.06-.06.09-.1.11-.04.01-.07,0-.12-.04-1.2-.94-2.16-2.07-2.88-3.38-.73-1.31-1.26-3.03-1.59-5.15v7.75c0,.59-.11,1.05-.34,1.37-.23.32-.7.54-1.41.65h-.04c-.07,0-.12-.05-.15-.15-.04-.37-.15-.64-.34-.82-.32-.24-.8-.41-1.44-.51-.11-.03-.17-.08-.17-.17,0-.1.04-.15.13-.15.18,0,.38,0,.6.02.22.01.43.03.62.04.41.04.7.06.89.06.17,0,.28-.03.34-.08.06-.06.08-.16.08-.32v-8.21h-2.45v.57c0,.07-.11.16-.32.25-.21.1-.46.15-.76.15-.08,0-.16-.04-.21-.13-.06-.08-.08-.18-.08-.3.06-.6.1-1.38.13-2.32v-1.37c0-1.63-.08-2.96-.23-3.99v-.04s.02-.07.05-.08c.03-.01.08-.01.14,0l1.52.68h1.44c.2-.84.32-1.64.36-2.39.01-.11.08-.16.21-.15.7.16,1.19.28,1.46.38.27.1.4.19.4.27,0,.04-.06.1-.19.17l-.36.17-.72.97-.44.57h3.86l.3-.46Zm-.23,3.44v-2.39h-6.31v2.39h6.31Zm-6.31.61v2.39h6.31v-2.39h-6.31Z"/>
    </g>
    <g>
      <path class="cls-1" d="m227.74,421.75c-1.25,3.13-3.69,5.31-7.3,6.55l-.97-1.84c1.77-.59,3.22-1.5,4.36-2.72,1.14-1.22,1.87-2.61,2.18-4.18h-5.89v-1.95h6.16v-3.72h2.35v3.72h6.2v1.95h-5.8c.52,1.41,1.34,2.7,2.47,3.88,1.13,1.18,2.45,2.13,3.96,2.85l-1.48,1.95c-1.63-.94-2.93-1.93-3.9-2.94-.96-1.02-1.75-2.2-2.36-3.55Z"/>
      <path class="cls-1" d="m242.94,422.03c-.3,1.5-1.04,2.77-2.22,3.81-1.18,1.03-2.48,1.8-3.91,2.31l-.85-1.7c1.09-.39,2.02-.9,2.8-1.53.78-.63,1.3-1.2,1.57-1.7h-3.47v-1.67h5.49l.59.49Zm2.49,4.7c0,.44-.18.81-.55,1.12s-.8.46-1.3.46h-2.15l-.27-2h1.59c.1,0,.19-.04.28-.12.09-.08.13-.16.13-.25v-5.17h-5.23v-6.02h4.66l.63-1.51,2.18.33-.68,1.17h5.67v6.02h-4.95v.35c.63.93,1.15,1.57,1.55,1.9,1.17-.62,2.32-1.36,3.46-2.21l1.53,1.55c-.71.58-1.8,1.21-3.27,1.9,1.07.74,2.28,1.37,3.64,1.89l-1.4,1.88c-2.3-1.06-4.14-2.41-5.51-4.05v2.76Zm-5.36-9.65h8.07v-.85h-8.07v.85Zm0,2.22h8.07v-.94h-8.07v.94Z"/>
      <path class="cls-1" d="m215.45,442.09h-3.52v4.8h-2.35v-4.8h-3.44v.7h-2.28v-8.45h5.71v-2.17h2.35v2.17h5.82v8.45h-2.3v-.7Zm-9.3-1.82h3.44v-4.14h-3.44v4.14Zm5.79,0h3.52v-4.14h-3.52v4.14Z"/>
      <path class="cls-1" d="m227.53,442.09c-.67,1.16-1.67,2.17-2.99,3.02-1.32.85-2.72,1.43-4.19,1.74l-.73-1.85c1.35-.33,2.54-.85,3.55-1.55,1.02-.71,1.74-1.36,2.18-1.97h-5.41v-1.86h1.32v-5.07h5.05v-2.1h2.3v2.1h5.3v5.07h1.19v1.86h-5.45c.68.74,1.41,1.34,2.19,1.81.78.47,1.94.93,3.48,1.4l-1.22,2.07c-3.06-.97-5.24-2.53-6.56-4.66Zm-1.23-2.47v-3.34h-2.88v3.34h2.88Zm2.3-3.34v3.34h3.1v-3.34h-3.1Z"/>
      <path class="cls-1" d="m243.37,432.62c-.48,1.34-1.27,2.74-2.37,4.19-1.1,1.45-2.28,2.65-3.53,3.59l-1.47-1.47c2.05-1.56,3.77-3.85,5.17-6.87l2.21.55Zm5.32,13.11c-2.65.36-6.58.72-11.79,1.1l-.33-2.21c.55,0,1.31-.02,2.27-.07.7-1.2,1.42-2.61,2.15-4.24.73-1.63,1.24-2.95,1.52-3.98l2.4.51c-.34,1.01-.83,2.24-1.48,3.7-.65,1.46-1.31,2.74-1.97,3.84,2.62-.18,4.68-.38,6.19-.59-.84-1.52-1.42-2.53-1.75-3.03l2.05-.9c.44.6,1.12,1.68,2.04,3.25.92,1.57,1.49,2.64,1.69,3.21l-2.37.62c-.09-.21-.29-.62-.62-1.23Zm3.75-7.03l-1.67,1.72c-1.31-1.06-2.52-2.3-3.64-3.73-1.12-1.43-1.94-2.76-2.45-3.98l2.12-.77c.68,1.47,1.53,2.79,2.56,3.95,1.03,1.16,2.05,2.1,3.09,2.82Z"/>
      <path class="cls-1" d="m265.9,445.95h-10.15v.85h-2.12v-14.19h14.43v14.07h-2.16v-.73Zm-10.15-1.53h10.15v-10.32h-10.15v10.32Zm4.05-2.2c-1.07.79-2.1,1.35-3.09,1.68l-.65-1.26c1.11-.39,2.17-.99,3.16-1.78h-1.99v-2.57h6.91v2.29c.22-.16.4-.31.55-.46l1.1.99c-.41.33-.94.68-1.6,1.06.52.2,1,.35,1.43.46l-.87,1.35c-1.18-.41-2.23-.93-3.15-1.54v1.64h-1.82v-1.85Zm5.6-4.45h-9.12v-1.08h3.58v-.57h-2.98v-1.05h2.98v-.59h1.89v.59h3.06v1.05h-3.06v.57h3.65v1.08Zm-2.83,2.2v-.8h-3.79v.8h3.79Zm-.95.89v.06c.29.2.64.41,1.05.63.39-.22.75-.45,1.1-.69h-2.15Z"/>
    </g>
    <g>
      <path class="cls-1" d="m603.58,532.26c0,.23-.05.66-.16,1.27-.11.61-.27,1.19-.48,1.74-.22.55-.56,1.09-1.03,1.64s-1.05,1.03-1.73,1.45c-.68.42-1.47.78-2.36,1.07l-.97-1.86c2.82-.84,4.3-2.6,4.44-5.31h-3.79v-1.93h6.1v-5.62h2.35v5.62h6.3v1.93h-4.75l-.02,4.47c0,.1.04.19.11.26s.2.11.38.13c.18.02.46.02.83.02.41,0,.71-.01.9-.03.14-.04.25-.1.33-.18.08-.08.15-.29.2-.62s.07-.96.07-1.87l2.02.28v2.6c0,.5-.18.93-.53,1.27-.35.34-.77.53-1.27.57-.49.04-1.1.06-1.82.06-1.2,0-1.97-.05-2.31-.15s-.64-.3-.88-.61-.37-.71-.37-1.2l-.02-4.99h-1.57Zm-1.1-2.88l-2.21.78c-.09-.29-.37-.94-.83-1.97-.46-1.02-.8-1.72-1-2.1l2.12-.76c.56.95,1.2,2.3,1.93,4.04Zm8.91-3.42c-.16.41-.55,1.15-1.18,2.21-.63,1.06-1.08,1.72-1.35,1.97l-1.92-.65c.25-.32.64-.99,1.16-2,.53-1.01.85-1.72.97-2.11l2.32.58Z"/>
      <path class="cls-1" d="m619.39,526.81c0,.35-.01.77-.04,1.25h2.09c.93,0,1.67.3,2.23.9.56.6.84,1.38.84,2.34,0,2.38-.27,4.31-.82,5.8-.55,1.49-1.48,2.23-2.8,2.23-.37,0-.77-.06-1.19-.19-.43-.12-1.12-.47-2.07-1.03l.75-1.94c1.03.57,1.77.85,2.22.85.21,0,.39-.08.55-.24s.31-.49.49-1.01.3-1.09.38-1.73.12-1.35.12-2.15c0-.55-.04-.93-.11-1.16-.07-.22-.19-.39-.35-.5-.16-.11-.37-.16-.62-.16h-1.88c-.53,3.87-1.9,7.01-4.11,9.42l-1.83-1.15c.61-.68,1.27-1.76,1.99-3.23.72-1.47,1.22-3.15,1.49-5.04h-2.96v-2.04h3.23l.02-3.15h2.38v1.9Zm10.07,7.03l-2.23.63c-.45-1.52-.92-2.78-1.43-3.78-.51-1-1.15-2-1.94-3l1.85-1.08c2.05,2.66,3.3,5.07,3.75,7.24Zm-1.91-6.89l-1.18.45c-.45-1.12-.82-1.95-1.11-2.5l1.12-.45c.48.92.87,1.75,1.16,2.5Zm2.23-.18l-1.13.43c-.36-.89-.73-1.72-1.12-2.5l1.08-.42c.44.85.84,1.68,1.17,2.48Z"/>
      <path class="cls-1" d="m646.01,539.1h-15.69v-1.99h1.99v-10.65c1.47-.04,3.49-.23,6.08-.56,2.59-.33,4.34-.63,5.24-.9l1.03,1.81c-.75.21-2.24.46-4.47.75-2.22.29-4.06.48-5.52.59v1.8h10.92v1.93h-2.39v5.23h2.81v1.99Zm-11.34-1.99h6.2v-5.23h-6.2v5.23Z"/>
      <path class="cls-1" d="m612.34,543.67c-.48,1.34-1.27,2.74-2.37,4.19-1.1,1.45-2.28,2.65-3.53,3.59l-1.47-1.47c2.05-1.56,3.77-3.85,5.17-6.87l2.21.55Zm5.32,13.11c-2.65.36-6.58.72-11.79,1.1l-.33-2.21c.55,0,1.31-.02,2.27-.07.7-1.2,1.42-2.61,2.15-4.24s1.24-2.95,1.52-3.98l2.4.51c-.34,1.01-.83,2.24-1.48,3.7-.65,1.46-1.31,2.74-1.97,3.84,2.62-.18,4.68-.38,6.19-.59-.84-1.52-1.42-2.53-1.75-3.03l2.05-.9c.44.6,1.12,1.68,2.04,3.25.92,1.57,1.49,2.64,1.69,3.21l-2.37.62c-.09-.21-.29-.62-.62-1.23Zm3.75-7.03l-1.67,1.72c-1.31-1.06-2.52-2.3-3.64-3.73-1.12-1.43-1.94-2.76-2.45-3.98l2.12-.77c.68,1.47,1.53,2.79,2.56,3.95,1.03,1.16,2.05,2.1,3.08,2.82Z"/>
      <path class="cls-1" d="m634.87,557h-10.15v.85h-2.12v-14.19h14.43v14.07h-2.16v-.73Zm-10.15-1.53h10.15v-10.32h-10.15v10.32Zm4.05-2.2c-1.07.79-2.1,1.35-3.09,1.68l-.65-1.26c1.11-.39,2.17-.99,3.16-1.78h-1.99v-2.57h6.91v2.29c.22-.16.4-.31.55-.46l1.1.99c-.41.33-.94.68-1.6,1.06.52.2,1,.35,1.43.46l-.87,1.35c-1.18-.41-2.23-.93-3.15-1.54v1.64h-1.82v-1.85Zm5.6-4.45h-9.12v-1.08h3.58v-.57h-2.98v-1.05h2.98v-.59h1.89v.59h3.06v1.05h-3.06v.57h3.65v1.08Zm-2.83,2.2v-.8h-3.79v.8h3.79Zm-.95.89v.06c.29.2.64.41,1.05.63.39-.22.75-.45,1.1-.69h-2.15Z"/>
    </g>
    <g>
      <path class="cls-1" d="m183.61,801.52h-7v.72h-2.34v-5.13c-.73.77-1.43,1.37-2.08,1.79l-1.32-1.51c1.11-.84,2.11-1.88,2.98-3.12.88-1.24,1.57-2.5,2.07-3.78h-4.14v-1.89h14.95v1.89h-8.34c-.44,1.22-.99,2.36-1.65,3.44h9.21v8.32h-2.35v-.72Zm-7-1.82h7v-4h-7v4Z"/>
      <path class="cls-1" d="m192.29,802.4h-2.05v-5.54c-.56.47-1.17.91-1.83,1.33l-.9-1.54c.99-.64,1.87-1.4,2.66-2.3.78-.9,1.37-1.82,1.76-2.76h-3.7v-1.8h2.05v-2.07h2.07v2.07h1.69l.46.45c-.37,1.53-1.02,2.91-1.95,4.17.06.05.7.52,1.93,1.4l-.94,1.86c-.53-.41-.94-.75-1.25-1.03v5.76Zm7.57-.03h-2.16v-4.66h-1.16v.7h-1.97v-9.11h3.13v-1.66h2.16v1.66h3.23v9.07h-2.1v-.66h-1.13v4.66Zm-3.27-9.79h1.12v-1.64h-1.12v1.64Zm1.12,1.63h-1.12v1.77h1.12v-1.77Zm2.16-1.63h1.16v-1.64h-1.16v1.64Zm1.16,1.63h-1.16v1.77h1.16v-1.77Z"/>
      <path class="cls-1" d="m210.29,797.41c-.47,2.12-1.83,3.78-4.1,4.97l-1.18-1.59c1.52-.89,2.49-2.02,2.89-3.38h-3.11v-1.92h3.43c.03-.36.04-1.29.04-2.79v-.42h-3.13v-1.87h3.13v-2.61h2.34v2.61h4.25v-2.68h2.35v2.68h2.45v1.87h-2.45v3.22h2.72v1.92h-2.72v4.75h-2.35v-4.75h-4.55Zm.3-5.14c0,1.51-.02,2.58-.06,3.22h4.31v-3.22h-4.25Z"/>
      <path class="cls-1" d="m186.6,806.62c-.48,1.34-1.27,2.74-2.37,4.19-1.1,1.45-2.28,2.65-3.53,3.59l-1.47-1.47c2.05-1.56,3.77-3.85,5.17-6.87l2.21.55Zm5.32,13.11c-2.65.36-6.58.72-11.79,1.1l-.33-2.21c.55,0,1.31-.02,2.27-.07.7-1.2,1.42-2.61,2.15-4.24.73-1.63,1.24-2.95,1.52-3.98l2.4.51c-.34,1.01-.83,2.24-1.48,3.7-.65,1.46-1.31,2.74-1.97,3.84,2.62-.18,4.68-.38,6.19-.59-.84-1.52-1.42-2.53-1.75-3.03l2.05-.9c.44.6,1.12,1.68,2.04,3.25.92,1.57,1.49,2.64,1.69,3.21l-2.37.62c-.09-.21-.29-.62-.62-1.23Zm3.75-7.03l-1.67,1.72c-1.31-1.06-2.52-2.3-3.64-3.73-1.12-1.43-1.94-2.76-2.45-3.98l2.12-.77c.68,1.47,1.53,2.79,2.56,3.95,1.03,1.16,2.05,2.1,3.09,2.82Z"/>
      <path class="cls-1" d="m209.13,819.96h-10.15v.85h-2.12v-14.19h14.43v14.07h-2.16v-.73Zm-10.15-1.53h10.15v-10.32h-10.15v10.32Zm4.05-2.2c-1.07.79-2.1,1.35-3.09,1.68l-.65-1.26c1.11-.39,2.17-.99,3.16-1.78h-1.99v-2.57h6.91v2.29c.22-.16.4-.31.55-.46l1.1.99c-.41.33-.94.68-1.6,1.06.52.2,1,.35,1.43.46l-.87,1.35c-1.18-.41-2.23-.93-3.15-1.54v1.64h-1.82v-1.85Zm5.6-4.45h-9.12v-1.08h3.58v-.57h-2.98v-1.05h2.98v-.59h1.89v.59h3.06v1.05h-3.06v.57h3.65v1.08Zm-2.83,2.2v-.8h-3.79v.8h3.79Zm-.95.89v.06c.29.2.64.41,1.05.63.39-.22.75-.45,1.1-.69h-2.15Z"/>
    </g>
    <g>
      <path class="cls-4" d="m212.57,707.86c.04-.06.11-.15.21-.29.1-.13.18-.23.24-.3.06-.06.12-.09.18-.09.13,0,.43.2.91.59.48.39.77.7.89.91.01.03.02.06.02.11,0,.1-.05.18-.16.24-.11.06-.23.09-.37.09h-6.4v3.55h4.29l.3-.44s.11-.13.2-.25c.09-.13.18-.19.26-.19.13,0,.38.14.75.43.37.29.6.52.69.71.04.07.03.14-.04.21-.18.14-.44.24-.76.3v6.97c.03,1.76.08,3.37.17,4.83,0,.08-.03.15-.08.21-.13.13-.3.24-.51.33-.21.09-.44.14-.7.14-.08,0-.15-.04-.2-.13s-.07-.18-.07-.3c.03-.25.04-.42.04-.51l.04-.42v-.68h-13.26v.55l.06.89.02.08c0,.11-.11.24-.34.37-.23.13-.5.2-.82.2-.1,0-.19-.05-.28-.14s-.14-.19-.14-.28c.06-.83.11-1.64.15-2.42.04-.78.07-1.8.08-3.07v-3.84c0-1.66-.08-3.03-.23-4.1v-.04c0-.1.06-.13.17-.08l1.58.68h3.5v-3.55h-2.79c-.9.01-1.91.11-3.02.27h-.06c-.06,0-.11-.03-.15-.11l-.38-.74s-.02-.04-.02-.08c0-.07.05-.11.15-.11.77.07,1.63.12,2.58.15h12.84l.46-.65Zm-13.36,5.43v10.01h13.26v-10.01h-4.37v4.67c0,.16.03.26.08.31.06.05.18.07.38.07h.89c.48,0,.77,0,.89-.02.06,0,.11-.01.16-.04.05-.03.09-.08.12-.15.06-.13.13-.43.23-.92.1-.49.18-.98.25-1.49.03-.1.08-.15.17-.15s.13.06.13.17l.06,2.47c.18.06.31.13.38.22.07.09.11.21.11.35,0,.28-.18.49-.54.62s-1.02.2-1.97.2h-1.18c-.56,0-.94-.09-1.13-.28s-.29-.53-.29-1.02v-5h-2.6c-.03,1.07-.16,2.05-.4,2.93-.24.89-.69,1.74-1.34,2.57-.65.82-1.59,1.54-2.8,2.14-.1.04-.18.02-.23-.06l-.02-.04c-.03-.06-.04-.09-.04-.11,0-.06.04-.11.11-.17,1.29-.96,2.19-2.03,2.67-3.21.49-1.18.75-2.53.79-4.05h-3.76Zm5.02-4.16v3.55h2.6v-3.55h-2.6Z"/>
      <path class="cls-4" d="m233.81,711.51c.04-.06.11-.14.19-.26s.16-.21.22-.27c.06-.06.12-.09.18-.09.11,0,.4.19.87.57.46.38.75.67.87.87.01.07,0,.14-.02.21-.08.16-.25.23-.49.23h-5.53c.44,5.35,1.84,8.97,4.2,10.85.14.14.25.21.34.21.1,0,.19-.11.27-.32.28-.55.56-1.29.82-2.22.03-.08.08-.13.15-.13.13,0,.18.06.15.19l-.34,3.04c.37.51.55.88.55,1.12,0,.1-.04.2-.11.3-.13.17-.32.25-.59.25s-.58-.1-.95-.3c-.37-.2-.71-.44-1.03-.74-1.42-1.22-2.52-2.87-3.28-4.93-.77-2.06-1.28-4.51-1.55-7.34h-7.47c-.9.01-1.91.11-3.02.27h-.06c-.06,0-.11-.04-.15-.11l-.38-.74s-.02-.04-.02-.08c0-.07.05-.11.15-.11.77.07,1.63.12,2.58.15h8.34c-.13-1.63-.19-3.35-.19-5.15,0-.13.06-.18.19-.15.68.06,1.14.12,1.39.18.25.06.38.14.38.22,0,.04-.06.11-.19.21l-.36.23v.74c0,1.27.04,2.51.13,3.72h3.34l.44-.63Zm-7.03,5.32c.04-.06.1-.14.18-.26.08-.12.14-.21.2-.26.06-.06.11-.08.17-.08.11,0,.37.18.77.55s.65.65.75.84c.01.07,0,.14-.02.21-.08.16-.25.23-.49.23h-3.74v4.9c1.76-.34,3.23-.63,4.41-.89h.06c.07,0,.11.04.13.13v.04c.03.11,0,.18-.11.19-2.66.9-6.01,1.91-10.05,3.02-.08.18-.2.32-.34.42-.01.01-.04.02-.06.02-.08,0-.14-.04-.17-.11l-.72-1.35s-.02-.06-.02-.11c0-.06.04-.09.13-.11l1.86-.32v-4.18c0-1.52-.08-2.88-.23-4.07v-.04c0-.11.06-.15.19-.11.66.2,1.12.36,1.37.49.25.13.38.23.38.32,0,.06-.05.12-.15.19l-.3.19v6.99l2.32-.46v-5.66c0-1.53-.08-2.91-.23-4.12v-.04c0-.11.06-.15.19-.11.69.2,1.16.36,1.43.49.26.13.39.24.39.34,0,.04-.06.11-.17.19l-.32.21v2.93h1.77l.4-.61Zm-1.35-8.57c.06-.07.12-.15.18-.25.06-.1.13-.18.2-.25s.13-.11.19-.11c.11,0,.38.18.8.54.42.36.68.64.78.83.01.07,0,.14-.02.21-.08.16-.25.23-.51.23h-3.86c-.9.01-1.91.11-3.02.27h-.06c-.06,0-.11-.04-.15-.11l-.38-.74s-.02-.04-.02-.08c0-.07.05-.11.15-.11.77.07,1.63.12,2.58.15h2.74l.4-.59Zm5.68-.44s0-.08.02-.11c.06-.06.13-.08.21-.06.76.1,1.38.27,1.87.51.49.24.84.51,1.07.8.23.3.34.58.34.84,0,.21-.06.38-.17.51-.11.13-.26.19-.44.19-.13,0-.25-.03-.36-.08-.07-.01-.12-.06-.15-.13-.2-.41-.51-.83-.95-1.28s-.89-.81-1.35-1.11c-.04-.01-.07-.04-.08-.08Z"/>
      <path class="cls-4" d="m238.75,712.1c.06-.07.13-.1.23-.08,1.03.14,1.79.42,2.29.83.5.42.75.84.75,1.28,0,.21-.06.39-.19.54-.13.15-.29.22-.49.22-.14,0-.27-.03-.38-.08-.06-.03-.11-.08-.15-.17-.14-.39-.4-.8-.78-1.21-.38-.41-.8-.78-1.25-1.11-.1-.07-.11-.14-.04-.21Zm.49,8.15h.74c.13,0,.22-.02.29-.07.06-.05.14-.17.22-.35.22-.51,1.51-3.55,3.84-9.14.04-.11.11-.15.21-.13l.06.02c.11.03.15.1.11.21-.27.83-.52,1.6-.76,2.31-.24.71-.44,1.31-.61,1.81-.86,2.59-1.33,4.04-1.41,4.35-.21.75-.32,1.36-.32,1.84,0,.23.03.46.09.71.06.25.1.4.12.45.1.39.18.76.23,1.09.06.33.08.7.08,1.11,0,.53-.09.95-.29,1.26-.19.3-.47.45-.85.45-.17,0-.31-.08-.42-.24-.11-.16-.18-.4-.21-.71,0-.08,0-.16.02-.21.08-.76.13-1.44.13-2.03,0-.52-.04-.95-.11-1.3-.07-.34-.18-.57-.32-.67-.2-.14-.48-.23-.84-.27-.11-.03-.17-.09-.17-.19v-.13c0-.11.06-.17.17-.17Zm1.03-13.13c.06-.07.13-.1.23-.08,1.07.18,1.86.5,2.38.94.51.44.77.89.77,1.34,0,.24-.06.43-.19.58-.13.15-.3.22-.51.22-.14,0-.27-.03-.38-.08-.06-.03-.11-.08-.15-.17-.14-.44-.42-.89-.82-1.35-.41-.46-.84-.86-1.29-1.18-.1-.07-.11-.14-.04-.21Zm14.57,3.95l.19-.27c.04-.06.11-.15.21-.28.1-.13.19-.2.27-.2.11,0,.35.17.71.5.36.33.59.59.69.79.04.07.03.14-.04.21-.17.11-.4.19-.7.23-.03,2.65-.11,4.54-.23,5.69-.13,1.15-.35,1.9-.65,2.25-.35.37-.85.58-1.5.63-.11,0-.17-.06-.17-.17-.03-.35-.12-.6-.27-.76-.16-.15-.49-.3-1.01-.42-.1-.03-.15-.08-.15-.17v-.06c0-.06.02-.1.05-.13.04-.03.08-.03.14-.02.8.07,1.29.11,1.48.11.14,0,.25-.01.33-.04.08-.03.14-.08.2-.15.17-.21.29-.84.37-1.89.08-1.05.13-2.72.16-5.01l-3.36,1.31v3.42c.03,1.76.08,3.37.17,4.83,0,.07-.02.14-.06.21-.13.14-.3.26-.51.36s-.42.15-.61.15c-.11,0-.21-.04-.31-.13s-.14-.18-.14-.3c.06-.79.1-1.56.14-2.32s.06-1.72.07-2.89v-2.83l-3.04,1.2v8.36c0,.34.1.57.31.71.2.13.63.2,1.28.2h3.23c1.45,0,2.48-.03,3.1-.08.15-.01.27-.05.35-.09s.15-.13.22-.24c.15-.25.4-1.22.74-2.89.01-.1.07-.15.17-.15.08,0,.13.06.13.17l.06,3c.25.08.43.17.52.26.09.09.14.21.14.37,0,.27-.14.47-.42.61-.28.14-.81.24-1.58.31-.77.06-1.92.09-3.44.09l-3.27-.02c-.73,0-1.3-.05-1.69-.16-.39-.11-.68-.29-.84-.56-.17-.27-.25-.66-.25-1.18v-8.21l-1.88.74s-.04.02-.08.02c-.06,0-.11-.03-.15-.08l-.19-.25c-.06-.1-.03-.17.08-.21l2.22-.89v-2.89c0-1-.06-1.93-.17-2.79,0-.14.07-.19.21-.15.66.21,1.12.38,1.37.5.25.12.38.23.38.33,0,.07-.06.14-.17.21l-.36.23v4.07l3.04-1.2v-3.02c0-1.03-.06-1.99-.17-2.89,0-.14.07-.19.21-.15.66.21,1.12.38,1.37.5.25.12.38.23.38.33,0,.07-.06.14-.19.21l-.36.23v4.31l3.15-1.25.06-.02h-.02l.11-.21Z"/>
      <path class="cls-4" d="m278.35,724.45c.1.01.15.06.15.15-.01.07-.06.11-.15.13-.49.13-.84.46-1.03,1.01-.04.11-.12.15-.23.11-3.83-1.46-6.36-4.02-7.6-7.66h-.17c-.8.8-1.75,1.53-2.85,2.17v3.46l5.24-.82h.04c.08,0,.13.05.15.15v.04c0,.11-.04.18-.13.19-2.31.73-4.94,1.49-7.9,2.28-.04.17-.15.3-.32.4-.01.01-.04.02-.08.02-.08,0-.13-.03-.15-.08l-.8-1.41s-.02-.06-.02-.11c0-.06.04-.09.13-.11.03,0,.54-.07,1.54-.21.82-.11,1.15-.16.99-.15v-2.93c-1.55.76-3.27,1.37-5.17,1.84h-.04c-.07,0-.13-.03-.17-.11l-.02-.04s-.02-.04-.02-.08c0-.08.04-.13.13-.15,1.51-.51,2.91-1.13,4.2-1.88,1.29-.75,2.39-1.57,3.29-2.47h-3.99c-.9.01-1.91.11-3.02.27h-.06c-.06,0-.11-.03-.15-.11l-.38-.74s-.02-.04-.02-.08c0-.07.05-.11.15-.11.77.07,1.63.12,2.58.15h5.97c0-.91-.04-1.72-.13-2.41,0-.14.07-.19.21-.15.65.2,1.1.36,1.35.49.25.13.38.24.38.34,0,.06-.05.12-.15.19l-.32.21v1.33h6.02l.42-.61c.06-.07.12-.17.2-.29.08-.12.14-.21.2-.26.06-.06.11-.08.17-.08.11,0,.39.19.84.56.45.37.72.66.82.85.01.07,0,.14-.02.21-.08.16-.25.23-.49.23h-2.85c1.07.77,1.6,1.25,1.6,1.41,0,.07-.07.11-.21.11h-.36c-.46.3-1.03.61-1.69.94-.66.33-1.32.62-1.98.88,1.53,1.35,3.5,2.33,5.89,2.93Zm-15.31-13.24c-.99.87-1.97,1.58-2.96,2.13-.1.06-.18.04-.23-.04l-.02-.02c-.07-.08-.06-.16.04-.23.96-.79,1.86-1.74,2.7-2.85.39-.51.76-1.08,1.11-1.73.34-.65.61-1.25.79-1.82.01-.1.08-.13.21-.08,1.18.63,1.77,1.03,1.77,1.18,0,.06-.07.1-.21.13l-.38.06c-.45.72-1.07,1.49-1.86,2.32.53.38.8.65.8.82,0,.07-.06.14-.19.21l-.3.13v1.27c.04,1.39.08,2.44.13,3.15,0,.08-.03.16-.08.21-.11.11-.27.22-.49.32-.21.1-.42.15-.61.15-.11,0-.2-.04-.27-.13-.07-.08-.11-.18-.11-.3.07-.77.12-1.81.15-3.1v-1.77Zm2.3.13l-.11-.25-.02-.06c0-.07.05-.12.15-.15l3.95-.42c-.41-1.01-.74-2.17-.99-3.46,0-.13.06-.19.19-.19,1.14.04,1.71.14,1.71.3,0,.04-.05.1-.15.17l-.27.21c.18,1.04.47,1.98.87,2.83l4.83-.53.36-.61c.04-.07.1-.17.18-.28.08-.12.14-.21.19-.26.05-.06.1-.08.16-.08.08,0,.27.08.56.25.29.17.55.35.79.55.24.2.36.34.36.44-.01.11-.07.2-.16.27-.09.07-.2.11-.33.13l-6.65.72c1.08,1.94,2.72,3.19,4.92,3.74.14.04.26.06.36.06.15,0,.27-.08.36-.25.2-.46.38-1.03.55-1.71.03-.08.08-.13.15-.13.11,0,.17.06.17.19l-.11,2.03c.24.16.4.28.49.38.08.1.13.2.13.3,0,.08,0,.15-.02.19-.11.31-.4.46-.87.46-.38,0-.9-.1-1.56-.3-2.74-.8-4.72-2.41-5.93-4.81l-4.05.42c-.1,0-.16-.04-.19-.13Zm8.43,8.41c.56-.56.98-1.08,1.28-1.57h-5.11c.49,1.1,1.2,2.09,2.13,2.98.58-.38,1.14-.85,1.7-1.4Zm.26-10.55c-.3-.32-.69-.64-1.17-.96s-.97-.57-1.45-.75c-.06-.01-.09-.04-.11-.08-.01-.04,0-.08.02-.11.04-.08.11-.13.21-.13.79-.03,1.44.04,1.96.2.52.16.9.37,1.13.62s.35.5.35.74c0,.17-.05.31-.16.42-.11.11-.25.17-.43.17-.08,0-.15,0-.19-.02-.07,0-.13-.03-.17-.11Z"/>
      <path class="cls-4" d="m282.62,710.73c.25-.62.49-1.29.7-2.03.21-.73.36-1.39.44-1.96.03-.13.1-.16.21-.11,1.24.48,1.86.8,1.86.97,0,.04-.06.09-.19.15l-.38.13c-.83,1.38-1.58,2.46-2.24,3.25.27.23.47.47.6.73.13.26.2.5.2.71,0,.23-.06.41-.17.55-.11.14-.25.21-.42.21-.14,0-.27-.04-.4-.13-.06-.03-.1-.08-.13-.17-.13-.42-.35-.87-.67-1.34-.32-.47-.67-.88-1.05-1.21-.08-.08-.09-.15-.02-.21.06-.06.15-.06.27-.02.56.17,1.01.37,1.33.59l.04-.11Zm-.71,7.93s.08-.02.14-.01l.97.3c.52.08.78.18.78.3,0,.08-.08.16-.23.23l-.34.17c-.52,1.97-1.15,3.5-1.9,4.6-.07.08-.15.11-.23.06l-.06-.02c-.08-.04-.11-.12-.08-.23.08-.21.2-.56.34-1.03.18-.63.33-1.35.43-2.14.11-.8.15-1.5.14-2.1,0-.06.02-.1.05-.12Zm2.25-2.76l2.58-.13c-.28-.63-.58-1.21-.89-1.73-.04-.1-.03-.17.04-.21.08-.04.17-.04.25,0,.76.46,1.32.96,1.67,1.48.35.52.53,1,.53,1.44,0,.27-.06.49-.18.65-.12.17-.27.25-.45.25-.13,0-.28-.06-.46-.17-.04-.04-.08-.11-.11-.21-.04-.3-.12-.64-.23-1.03l-1.44.3v4.05c.03,1.76.08,3.37.17,4.83,0,.08-.03.15-.08.21-.13.13-.29.23-.49.32-.2.08-.42.13-.65.13-.1,0-.19-.05-.28-.14-.09-.09-.14-.19-.14-.28.06-.83.11-1.64.15-2.42.04-.78.07-1.81.08-3.07v-3.4c-.65.13-1.37.25-2.15.38-.08.17-.21.3-.38.4l-.06.02s-.09-.04-.15-.13l-.44-1.27-.02-.06s.01-.06.04-.08.07-.04.13-.04l1.69-.04c.65-1.17,1.19-2.17,1.63-3,.32-.62.63-1.27.92-1.95.29-.68.51-1.3.67-1.85.03-.13.11-.15.23-.08,1.14.55,1.71.92,1.71,1.1,0,.06-.07.11-.21.15l-.4.08c-.53.86-1.16,1.79-1.88,2.79-.72,1-1.42,1.91-2.11,2.74l.74-.02Zm2.01,2.81c0-.07.04-.12.11-.15.1-.03.18-.01.23.04.63.51,1.1,1.02,1.39,1.54.3.52.44,1,.44,1.44,0,.3-.06.54-.19.73s-.29.28-.49.28c-.14,0-.3-.06-.46-.19-.06-.06-.08-.13-.08-.21-.01-.51-.11-1.07-.3-1.7-.18-.63-.39-1.2-.63-1.72-.01-.01-.02-.04-.02-.06Zm3.8.17c-.48.01-.95.1-1.41.25-.11.03-.18,0-.21-.08l-.38-.72s-.02-.06-.02-.11c0-.07.05-.1.15-.08.59.06,1.18.1,1.77.13h.93l.34-.38c.04-.06.11-.14.21-.24.1-.11.19-.16.27-.16.13,0,.35.14.68.42.32.28.53.51.61.7.04.07.03.14-.04.21-.07.06-.17.1-.29.13-.12.03-.26.04-.43.04-.37,1.25-.93,2.39-1.68,3.42-.75,1.03-1.72,1.87-2.9,2.53-.1.06-.18.03-.23-.06l-.02-.04c-.04-.1-.03-.18.04-.23.89-.69,1.63-1.53,2.22-2.52.59-.99,1.02-2.06,1.29-3.2h-.89Zm7.14-10.15c.04-.06.09-.13.15-.22.06-.09.11-.16.15-.2.04-.04.09-.06.15-.06.11,0,.34.15.68.45.34.3.55.55.63.73.04.07.03.14-.04.21-.14.11-.37.2-.68.25v2.11c.04,1.75.09,3.06.15,3.95,0,.08-.03.16-.08.21-.1.11-.25.21-.45.3-.2.08-.43.13-.67.13h-.04c-.11,0-.17-.06-.17-.17v-.63h-2.43c.3,1.53.78,2.86,1.46,3.97.38-.46.75-.98,1.1-1.54.35-.56.63-1.08.82-1.54.04-.13.12-.15.23-.06.94.7,1.41,1.14,1.41,1.31,0,.06-.07.1-.21.13l-.36.02c-.35.3-.78.63-1.3,1.01-.51.38-1.02.72-1.51,1.01.48.75,1.03,1.39,1.66,1.92.63.54,1.33,1.01,2.1,1.41.07.04.11.09.11.15,0,.07-.01.12-.04.15-.03.03-.06.05-.11.06-.38.13-.68.45-.89.97-.03.06-.06.09-.09.11-.04.01-.07,0-.12-.04-1.2-.94-2.16-2.07-2.88-3.38-.73-1.31-1.26-3.03-1.59-5.15v7.75c0,.59-.11,1.05-.34,1.37-.23.32-.7.54-1.41.65h-.04c-.07,0-.12-.05-.15-.15-.04-.37-.16-.64-.34-.82-.32-.24-.8-.41-1.44-.51-.11-.03-.17-.08-.17-.17,0-.1.04-.15.13-.15.18,0,.38,0,.6.02.22.01.43.03.62.04.41.04.7.06.89.06.17,0,.28-.03.34-.08s.08-.16.08-.32v-8.21h-2.45v.57c0,.07-.11.16-.32.25-.21.1-.46.15-.76.15-.08,0-.16-.04-.21-.13-.06-.08-.08-.18-.08-.3.06-.6.1-1.38.13-2.32v-1.37c0-1.63-.08-2.96-.23-3.99v-.04s.02-.07.05-.08c.03-.01.08-.01.14,0l1.52.68h1.44c.2-.84.32-1.64.36-2.39.01-.11.08-.16.21-.15.7.16,1.19.28,1.46.38.27.1.4.19.4.27,0,.04-.06.1-.19.17l-.36.17-.72.97-.44.57h3.86l.3-.46Zm-.23,3.44v-2.39h-6.31v2.39h6.31Zm-6.31.61v2.39h6.31v-2.39h-6.31Z"/>
    </g>
    <g>
      <path class="cls-2" d="m267.25,265.66h-2.26v9.48h-3.07v-12.4h5.33v2.92Zm-.83-.71v-1.51h-3.65v10.96h1.37v-9.46h2.29Z"/>
      <path class="cls-2" d="m271.73,271.32c-.78,1.1-1.51,1.93-2.17,2.49l-1.21-1.22c.53-.47,1.09-1.11,1.69-1.93.6-.82,1.06-1.6,1.4-2.35h-2.5v-1.67h2.79v-1.4c-1,.17-1.78.27-2.35.32l-.35-1.61c.97-.09,2.04-.25,3.21-.48,1.17-.23,2.09-.47,2.74-.72l.82,1.55c-.57.2-1.28.39-2.12.57v1.78h1.96v1.67h-1.96v.18c.39.46,1.13,1.13,2.21,2l-.98,1.61c-.38-.3-.79-.68-1.24-1.12v5.12h-1.96v-4.78Zm8.51,3.59h-2.15v.79h-2.04v-11.79h6.25v11.79h-2.05v-.79Zm-2.15-1.6h2.15v-7.82h-2.15v7.82Z"/>
      <path class="cls-2" d="m289.7,269.61c0,.21-.05.59-.14,1.15-.1.55-.24,1.08-.44,1.57s-.51.99-.93,1.48c-.43.49-.95.93-1.56,1.31-.62.38-1.32.7-2.13.97l-.88-1.68c2.54-.75,3.88-2.35,4.01-4.79h-3.42v-1.74h5.51v-5.07h2.12v5.07h5.69v1.74h-4.29v4.04c-.01.09.02.17.08.24s.18.1.35.12c.16.01.42.02.75.02.37,0,.64,0,.82-.03.13-.03.23-.09.3-.17.07-.08.13-.26.18-.56.04-.3.07-.86.07-1.69l1.82.25v2.35c0,.46-.16.84-.47,1.14-.32.31-.7.48-1.14.51-.45.04-.99.06-1.64.06-1.08,0-1.78-.04-2.09-.13-.31-.09-.57-.27-.8-.55-.22-.28-.33-.64-.33-1.09v-4.51h-1.43Zm-.99-2.6l-2,.71c-.08-.26-.33-.85-.75-1.78-.42-.92-.72-1.56-.9-1.89l1.91-.68c.5.86,1.09,2.07,1.74,3.65Zm8.04-3.09c-.14.37-.5,1.04-1.07,2-.57.96-.98,1.55-1.22,1.78l-1.74-.59c.23-.29.58-.89,1.05-1.81.48-.92.77-1.55.87-1.9l2.1.52Z"/>
      <path class="cls-2" d="m311.85,273.13c0,.41-.17.75-.5,1.02-.34.27-.72.4-1.17.4h-2.07l-.23-1.85h1.52c.28,0,.43-.12.43-.36v-3.21h-3.01v6.94h-2.07v-6.94h-2.89v5.46h-2v-7.1h4.89v-1.4h-5.75v-1.67h5.75v-1.65h2.07v1.65h5.92v1.67h-5.92v1.4h5.03v5.63Z"/>
      <path class="cls-2" d="m319.7,276.19h-5.33v-2.92h2.26v-9.48h3.07v12.4Zm-.84-.71v-10.98h-1.39v9.47h-2.27v1.51h3.66Z"/>
      <path class="cls-2" d="m324.86,271.69c0,.48-.06,1.18-.17,2.12-.11.94-.23,1.6-.36,1.98l-1.01-.46c.13-.34.25-.91.35-1.7.11-.79.17-1.45.18-1.99l1.01.06Zm5.27-7.18h-1.81v.88h1.49v1.24h-1.49v.92h1.49v1.22h-1.49v.92h1.64c0,2.64-.12,4.37-.35,5.17.39-.65.69-1.49.92-2.51.23-1.03.34-2.35.34-3.96v-5.25h6.25v6.11h-1.66c.37,2.06,1.21,3.8,2.52,5.24l-1.43,1.4c-1.59-1.78-2.56-3.99-2.89-6.62h-.8c-.08,2.84-.73,5.1-1.96,6.76l-1.33-1.04c-.25.73-.82,1.1-1.73,1.1h-1.38l-.18-1.4h1.21c.25,0,.45-.09.59-.28s.22-.44.24-.76c.02-.32.04-1.2.07-2.65h-2.68v.24h-1.64v-8.04h6.07v1.32Zm-3.99,10.04l-.74.12-.16-3.04.71-.11.2,3.03Zm.6-10.04h-.95v.88h.95v-.88Zm-.95,2.11v.92h.95v-.92h-.95Zm0,2.14v.92h.95v-.92h-.95Zm1.54,5.24l-.63.15-.37-2.68.6-.13.4,2.66Zm.9-.88l-.54.24-.38-2.12.54-.14.38,2.02Zm6.96-5.4v-3.02h-2.34v3.02h2.34Z"/>
    </g>
    <g>
      <path class="cls-2" d="m457.22,708.79h-2.54v10.65h-3.45v-13.93h5.99v3.28Zm-.93-.79v-1.69h-4.11v12.32h1.54v-10.62h2.57Z"/>
      <path class="cls-2" d="m465.52,713.23c0,.24-.05.67-.16,1.29-.11.62-.27,1.21-.49,1.77-.22.56-.57,1.11-1.05,1.66-.48.55-1.06,1.04-1.76,1.47-.69.42-1.49.79-2.39,1.09l-.98-1.89c2.86-.85,4.36-2.64,4.5-5.39h-3.84v-1.96h6.19v-5.7h2.39v5.7h6.39v1.96h-4.82l-.02,4.53c0,.1.04.19.11.26.07.07.2.12.39.13s.47.02.85.02c.41,0,.72-.01.92-.03.14-.04.26-.1.34-.19.08-.09.15-.3.2-.63s.07-.97.07-1.9l2.05.28v2.64c0,.51-.18.94-.53,1.28-.36.34-.78.54-1.28.58s-1.11.06-1.84.06c-1.22,0-2-.05-2.35-.15s-.65-.31-.9-.62c-.25-.31-.38-.72-.38-1.22l-.02-5.06h-1.59Zm-1.11-2.92l-2.25.79c-.09-.29-.38-.96-.85-1.99-.47-1.04-.81-1.75-1.01-2.13l2.15-.77c.57.96,1.22,2.33,1.96,4.1Zm9.04-3.47c-.16.42-.56,1.17-1.2,2.25-.64,1.08-1.1,1.75-1.37,2l-1.95-.66c.25-.32.65-1,1.18-2.03.53-1.03.86-1.74.98-2.14l2.35.59Z"/>
      <path class="cls-2" d="m481.56,707.7c0,.36-.01.78-.04,1.27h2.12c.94,0,1.7.31,2.26.92.57.61.85,1.4.85,2.37,0,2.41-.28,4.37-.83,5.88-.56,1.51-1.5,2.26-2.84,2.26-.37,0-.78-.06-1.21-.19s-1.13-.47-2.1-1.04l.76-1.97c1.04.58,1.79.87,2.25.87.21,0,.4-.08.55-.24.15-.16.32-.5.5-1.02s.31-1.11.39-1.75.12-1.37.12-2.18c0-.56-.04-.95-.11-1.17-.07-.23-.19-.39-.36-.5-.17-.11-.37-.17-.63-.17h-1.91c-.53,3.93-1.92,7.12-4.17,9.56l-1.86-1.16c.62-.69,1.29-1.79,2.02-3.28.73-1.49,1.23-3.2,1.52-5.11h-3.01v-2.06h3.28l.02-3.2h2.42v1.92Zm10.22,7.13l-2.26.64c-.45-1.54-.93-2.82-1.45-3.84-.51-1.02-1.17-2.03-1.97-3.04l1.88-1.1c2.08,2.7,3.35,5.15,3.81,7.34Zm-1.94-6.99l-1.2.45c-.46-1.13-.83-1.98-1.12-2.54l1.14-.45c.48.93.88,1.78,1.18,2.54Zm2.26-.18l-1.15.44c-.36-.9-.74-1.75-1.14-2.54l1.1-.42c.45.86.85,1.7,1.19,2.52Z"/>
      <path class="cls-2" d="m508.58,720.17h-15.92v-2.02h2.02v-10.8c1.49-.04,3.54-.23,6.17-.57,2.63-.33,4.4-.64,5.32-.91l1.05,1.83c-.77.21-2.28.47-4.53.76-2.25.29-4.12.49-5.6.59v1.83h11.08v1.96h-2.42v5.31h2.85v2.02Zm-11.51-2.02h6.29v-5.31h-6.29v5.31Z"/>
      <path class="cls-2" d="m516.14,720.62h-5.99v-3.28h2.54v-10.66h3.44v13.93Zm-.94-.79v-12.33h-1.56v10.64h-2.55v1.69h4.11Z"/>
      <path class="cls-2" d="m521.94,715.57c0,.53-.06,1.33-.19,2.38-.12,1.05-.26,1.79-.41,2.22l-1.13-.52c.14-.39.28-1.02.4-1.91.12-.89.19-1.63.2-2.23l1.13.07Zm5.92-8.07h-2.03v.98h1.68v1.39h-1.68v1.03h1.68v1.37h-1.68v1.03h1.84c0,2.97-.13,4.9-.4,5.81.44-.73.78-1.67,1.03-2.82.25-1.16.38-2.64.38-4.44v-5.9h7.02v6.86h-1.87c.41,2.31,1.36,4.27,2.83,5.89l-1.61,1.57c-1.79-2-2.87-4.48-3.25-7.44h-.9c-.09,3.19-.82,5.73-2.2,7.6l-1.49-1.16c-.28.82-.92,1.23-1.94,1.23h-1.55l-.21-1.58h1.35c.29,0,.51-.1.67-.31.16-.21.25-.49.27-.85.02-.36.05-1.35.08-2.98h-3.01v.27h-1.84v-9.04h6.82v1.49Zm-4.48,11.28l-.83.13-.18-3.41.79-.12.22,3.4Zm.68-11.28h-1.07v.98h1.07v-.98Zm-1.07,2.37v1.03h1.07v-1.03h-1.07Zm0,2.4v1.03h1.07v-1.03h-1.07Zm1.73,5.88l-.71.17-.41-3.01.68-.15.45,2.99Zm1.02-.99l-.61.26-.42-2.38.6-.16.43,2.27Zm7.81-6.06v-3.39h-2.63v3.39h2.63Z"/>
    </g>
  </g>
</svg>