<?xml version="1.0" encoding="UTF-8"?>
<svg id="_レイヤー_2" data-name="レイヤー 2" xmlns="http://www.w3.org/2000/svg" viewBox="0 0 1200.04 860">
  <defs>
    <style>
      .cls-1 {
        fill: none;
      }

      .cls-2 {
        fill: #231815;
      }
    </style>
  </defs>
  <g id="_レイヤー_1-2" data-name="レイヤー 1">
    <g>
      <g>
        <g>
          <path class="cls-2" d="m55.13,81.51c4.13,4.51,8.94,7.74,14.42,9.69-.6.49-1.11,1.17-1.53,2.03-5.66-2.73-10.12-6.36-13.39-10.89-1.33,1.89-2.52,3.38-3.56,4.5-2.82,3.06-6.4,5.56-10.76,7.49l-.5-.73c4.28-2.29,7.8-5.22,10.56-8.79,1.09-1.47,2.21-3.23,3.36-5.29,1.84.49,2.76.94,2.76,1.37,0,.27-.46.48-1.37.63Zm.27,18.51v6.73h8.29l1.8-2.33c.84.67,1.66,1.5,2.46,2.5l-.37.67h-25.84l-.4-.83h12.12v-6.73h-7.99l-.4-.83h8.39v-6.06h-8.19l-.3-.83h15.05l1.63-1.57c.78.49,1.55,1.07,2.33,1.73l-.4.67h-8.19v6.06h4.66l1.63-1.93c.55.44,1.3,1.17,2.23,2.17l-.33.6h-8.19Z"/>
          <path class="cls-2" d="m79.74,89.3c1.11.24,1.67.52,1.67.83,0,.27-.42.56-1.27.87v18.28h-1.93v-17.05c-1.49,2.51-2.93,4.6-4.33,6.26l-.63-.53c3.42-4.97,6.04-11.09,7.86-18.35,2.11.51,3.16,1.01,3.16,1.5,0,.29-.49.5-1.46.63-.75,2.33-1.67,4.65-2.73,6.96l-.33.6Zm13.12.4v11.82h2.26l1.43-2.06c.58.55,1.24,1.3,2,2.23l-.4.63h-5.29v6.96h-1.93v-6.96h-5.16l-.3-.8h5.46v-10.42c-2.33,5.42-5.44,9.81-9.32,13.19l-.67-.63c3.77-3.95,6.79-9.05,9.06-15.28h-7.69l-.3-.8h8.92v-7.99c2.2.04,3.3.33,3.3.87,0,.29-.46.59-1.37.9v6.23h6.56l1.73-2.43c.84.8,1.61,1.66,2.3,2.6l-.4.63h-9.92c2.77,5.19,6.47,9.62,11.09,13.29-.62.4-1.18.98-1.67,1.73-4.33-3.97-7.56-8.54-9.69-13.69Z"/>
          <path class="cls-2" d="m112.1,82.04h21.21l1.23-1.53c1.42,1.07,2.13,1.75,2.13,2.06,0,.16-.09.3-.27.43l-.87.6v25.67h-1.93v-2.26h-21.81v2.26h-1.93v-28.27l.43.2c.49.22.93.43,1.33.63l.47.2Zm-.3.83v23.31h21.81v-23.31h-21.81Zm10.59,15.05c-2.66-1.49-5.51-2.72-8.52-3.7l.33-.73c3.33.89,6.39,1.96,9.19,3.23,2-2.49,3.87-6.08,5.63-10.79,1.8.75,2.7,1.32,2.7,1.7,0,.31-.48.48-1.43.5-1.51,3.62-3.29,6.73-5.33,9.32,3.55,1.78,5.33,3.19,5.33,4.23,0,.67-.3,1-.9,1-.24,0-.59-.19-1.03-.57-1.33-1.22-2.81-2.32-4.43-3.3-2.4,2.64-5.73,4.58-9.99,5.83l-.4-.67c3.42-1.35,6.37-3.37,8.86-6.06Zm-7.79-12.25c3.02,1.84,4.53,3.64,4.53,5.39,0,.89-.4,1.33-1.2,1.33-.44,0-.73-.29-.87-.87-.42-1.95-1.41-3.73-2.96-5.33l.5-.53Zm5.59-1.03c3.11,1.93,4.66,3.82,4.66,5.66,0,.84-.37,1.26-1.1,1.26-.49,0-.85-.45-1.1-1.37-.49-1.84-1.46-3.51-2.93-4.99l.47-.57Z"/>
        </g>
        <path class="cls-2" d="m88.89,374.58l9.13,29.61h-5.39l-2.52-8.7h-9.09l-2.55,8.7h-4.88l9.08-29.61h6.22Zm.32,17.09l-1.73-6c-.22-.84-.81-3.27-1.75-7.29h-.34c-.63,2.77-1.24,5.19-1.83,7.25l-1.6,6.04h7.25Z"/>
        <g>
          <path class="cls-2" d="m104.97,396l-2,.03c-.07,0-.12,0-.13-.02s-.02-.07-.02-.15v-1.25c0-.09,0-.14.02-.16s.06-.02.13-.02l2,.03h9.95l2-.03c.08,0,.13.01.15.03.01.02.02.07.02.15v1.25c0,.08,0,.13-.02.15s-.06.02-.14.02l-2-.03h-6.35c-.14.35-.3.75-.51,1.19h4.72l2.05-.03c.14,0,.21.07.21.2l-.2,1.62c-.12.96-.31,1.78-.56,2.46-.19.5-.5.86-.92,1.06-.34.16-.79.23-1.34.23-.61,0-1.08-.01-1.4-.03-.26-.02-.41-.05-.46-.11-.05-.05-.1-.19-.17-.44-.13-.46-.29-.85-.47-1.15.88.09,1.63.14,2.24.14.49,0,.81-.19.95-.58.15-.46.28-1.1.4-1.91h-5.83c-.23.39-.41.66-.52.84-.06.09-.12.13-.2.13-.04,0-.09,0-.16-.02l-1.28-.27c-.17-.03-.25-.08-.25-.14,0-.04.02-.08.05-.13.7-.91,1.29-1.92,1.78-3.05h-1.73Zm7.34-7.2l2.17-.03c.09,0,.14.01.16.03.02.03.02.08.02.16l-.03,1.29v1.7l.03,1.33c0,.1-.06.16-.18.16l-2.17-.03h-4.8l-2.17.03c-.12,0-.18-.05-.18-.16l.03-1.33v-1.7l-.03-1.29c0-.09.01-.15.03-.17.02-.02.07-.02.15-.02l2.17.03h4.8Zm.69,3.2v-1.77h-6.16v1.77h6.16Z"/>
          <path class="cls-2" d="m120.36,392.89l-1.5.03c-.11,0-.16-.06-.16-.17v-1.14c0-.11.05-.17.16-.17l1.5.03h.32v-1.05c0-.94-.04-1.66-.12-2.15.59.02,1.1.05,1.53.11.18.04.27.1.27.18,0,.1-.03.21-.09.34-.06.16-.09.66-.09,1.51v1.07l1.24-.03c.11,0,.16.06.16.17v1.14c0,.11-.05.17-.16.17-.02,0-.14,0-.38,0-.25-.01-.53-.02-.83-.02.37,1.05.94,2.03,1.71,2.95-.23.32-.43.67-.59,1.07-.08.18-.14.27-.17.27-.05,0-.12-.09-.21-.26-.37-.67-.64-1.3-.81-1.91,0,1.79.03,3.66.06,5.59.01.44.02.98.04,1.62,0,.3,0,.47,0,.51,0,.08-.01.13-.04.15-.02.02-.07.02-.16.02h-1.24c-.09,0-.14-.01-.16-.03s-.02-.07-.02-.14c0-.04,0-.41.02-1.13.04-2.19.07-4.19.09-6.01-.34,1.21-.83,2.38-1.48,3.5-.1.17-.19.26-.24.26-.05,0-.11-.1-.17-.29-.14-.46-.32-.84-.55-1.15,1.11-1.57,1.88-3.24,2.29-5.02h-.21Zm13.22,7.91c-.31.33-.54.67-.67,1.04-.09.23-.17.35-.24.35s-.2-.06-.38-.17c-1.39-.87-2.53-1.89-3.42-3.06,0,.8.03,1.67.06,2.63l.05,1.12c0,.09-.01.14-.03.16-.02.02-.07.02-.14.02h-1.34c-.09,0-.15-.01-.17-.03-.02-.02-.02-.07-.02-.15,0-.04.01-.26.03-.65.06-1.16.09-2.18.1-3.06-.95,1.25-2.13,2.31-3.54,3.16-.18.11-.3.17-.35.17-.07,0-.17-.12-.29-.35-.13-.26-.37-.55-.72-.88,1.63-.71,3-1.72,4.11-3.04h-.26l-2.08.03c-.11,0-.17-.05-.17-.16l.03-1.55v-2.41l-.03-1.52c0-.09.01-.14.03-.16.02-.02.07-.02.14-.02l2.08.03h.99v-1.07h-1.56l-2.2.06c-.1,0-.16-.07-.16-.2v-1.09c0-.09.01-.15.03-.17.02-.02.06-.02.12-.02l2.2.03h1.56c0-.52-.04-1.07-.11-1.65.62.02,1.16.05,1.62.11.17.02.26.09.26.2,0,.06-.04.17-.11.32-.07.16-.1.5-.1,1.02h1.95l2.19-.03c.08,0,.12.01.14.03.02.03.02.08.02.16v1.09c0,.14-.05.2-.16.2l-2.19-.06h-1.95v1.07h1.19l2.07-.03c.09,0,.14.01.16.03s.02.07.02.15l-.03,1.52v2.41l.03,1.55c0,.1-.06.16-.18.16l-2.07-.03h-.5c.97,1.03,2.3,1.94,4,2.73Zm-8-6.16h1.81v-1.15h-1.81v1.15Zm0,2.26h1.81v-1.16h-1.81v1.16Zm5.23-3.41h-1.97v1.15h1.97v-1.15Zm0,3.41v-1.16h-1.97v1.16h1.97Z"/>
        </g>
        <path class="cls-2" d="m759.19,115.89l-4.99,1.21c-.73-4.17-2.81-6.26-6.22-6.26-2.42,0-4.29,1.08-5.61,3.24-1.22,1.99-1.83,4.7-1.83,8.12,0,3.9.79,6.86,2.37,8.89,1.3,1.67,2.99,2.5,5.07,2.5,3.53,0,5.7-2.11,6.52-6.33l4.86,1.49c-1.52,5.88-5.32,8.81-11.42,8.81-4.17,0-7.42-1.51-9.75-4.53-2.08-2.7-3.11-6.29-3.11-10.77,0-5.16,1.34-9.12,4.03-11.89,2.27-2.34,5.22-3.5,8.83-3.5,3.21,0,5.81.91,7.83,2.72,1.71,1.55,2.86,3.65,3.43,6.3Z"/>
        <g>
          <path class="cls-2" d="m766.12,128.83l-2,.03c-.07,0-.12,0-.13-.02s-.02-.07-.02-.15v-1.25c0-.09,0-.14.02-.16s.06-.02.13-.02l2,.03h9.95l2-.03c.08,0,.13.01.15.03,0,.02.02.07.02.15v1.25c0,.08,0,.13-.02.15s-.06.02-.14.02l-2-.03h-6.35c-.14.35-.3.75-.51,1.19h4.72l2.05-.03c.14,0,.21.07.21.2l-.2,1.62c-.12.96-.31,1.78-.56,2.46-.19.5-.5.86-.92,1.06-.34.16-.79.23-1.34.23-.61,0-1.08-.01-1.4-.03-.26-.02-.41-.05-.46-.11-.05-.05-.1-.19-.17-.44-.13-.46-.29-.85-.47-1.15.88.09,1.63.14,2.24.14.49,0,.81-.19.95-.58.15-.46.28-1.1.4-1.91h-5.83c-.23.39-.41.66-.52.84-.06.09-.12.13-.2.13-.04,0-.09,0-.16-.02l-1.28-.27c-.17-.03-.25-.08-.25-.14,0-.04.02-.08.05-.13.7-.91,1.29-1.92,1.78-3.05h-1.73Zm7.34-7.2l2.17-.03c.09,0,.14.01.16.03.02.03.02.08.02.16l-.03,1.29v1.7l.03,1.33c0,.1-.06.16-.18.16l-2.17-.03h-4.8l-2.17.03c-.12,0-.18-.05-.18-.16l.03-1.33v-1.7l-.03-1.29c0-.09,0-.15.03-.17.02-.02.07-.02.15-.02l2.17.03h4.8Zm.69,3.2v-1.77h-6.16v1.77h6.16Z"/>
          <path class="cls-2" d="m781.51,125.71l-1.5.03c-.11,0-.16-.06-.16-.17v-1.14c0-.11.05-.17.16-.17l1.5.03h.32v-1.05c0-.94-.04-1.66-.12-2.15.59.02,1.1.05,1.53.11.18.04.27.1.27.18,0,.1-.03.21-.09.34-.06.16-.09.66-.09,1.51v1.07l1.24-.03c.11,0,.16.06.16.17v1.14c0,.11-.05.17-.16.17-.02,0-.14,0-.38,0-.25-.01-.53-.02-.83-.02.37,1.05.94,2.03,1.71,2.95-.23.32-.43.67-.59,1.07-.08.18-.14.27-.17.27-.05,0-.12-.09-.21-.26-.37-.67-.64-1.3-.81-1.91,0,1.79.03,3.66.06,5.59,0,.44.02.98.04,1.62,0,.3,0,.47,0,.51,0,.08-.01.13-.04.15-.02.02-.07.02-.16.02h-1.24c-.09,0-.14-.01-.16-.03s-.02-.07-.02-.14c0-.04,0-.41.02-1.13.04-2.19.07-4.19.09-6.01-.34,1.21-.83,2.38-1.48,3.5-.1.17-.19.26-.24.26-.05,0-.11-.1-.17-.29-.14-.46-.32-.84-.55-1.15,1.11-1.57,1.88-3.24,2.29-5.02h-.21Zm13.22,7.91c-.31.33-.54.67-.67,1.04-.09.23-.17.35-.24.35s-.2-.06-.38-.17c-1.39-.87-2.53-1.89-3.42-3.06,0,.8.03,1.67.06,2.63l.05,1.12c0,.09-.01.14-.03.16-.02.02-.07.02-.14.02h-1.34c-.09,0-.15-.01-.17-.03-.02-.02-.02-.07-.02-.15,0-.04,0-.26.03-.65.06-1.16.09-2.18.1-3.06-.95,1.25-2.13,2.31-3.54,3.16-.18.11-.3.17-.35.17-.07,0-.17-.12-.29-.35-.13-.26-.37-.55-.72-.88,1.63-.71,3-1.72,4.11-3.04h-.26l-2.08.03c-.12,0-.17-.05-.17-.16l.03-1.55v-2.41l-.03-1.52c0-.09,0-.14.03-.16.02-.02.07-.02.14-.02l2.08.03h.99v-1.07h-1.56l-2.2.06c-.1,0-.16-.07-.16-.2v-1.09c0-.09,0-.15.03-.17.02-.02.06-.02.12-.02l2.2.03h1.56c0-.52-.04-1.07-.11-1.65.62.02,1.16.05,1.62.11.17.02.26.09.26.2,0,.06-.04.17-.11.32-.07.16-.1.5-.1,1.02h1.95l2.19-.03c.08,0,.12.01.14.03.02.03.02.08.02.16v1.09c0,.14-.05.2-.16.2l-2.19-.06h-1.95v1.07h1.19l2.07-.03c.09,0,.14.01.16.03s.02.07.02.15l-.03,1.52v2.41l.03,1.55c0,.1-.06.16-.18.16l-2.07-.03h-.5c.97,1.03,2.3,1.94,4,2.73Zm-8-6.16h1.81v-1.15h-1.81v1.15Zm0,2.26h1.81v-1.16h-1.81v1.16Zm5.23-3.41h-1.97v1.15h1.97v-1.15Zm0,3.41v-1.16h-1.97v1.16h1.97Z"/>
        </g>
        <path class="cls-2" d="m968.05,88.98h9.91c4.82,0,8.43,1.35,10.83,4.06,2.17,2.47,3.26,5.99,3.26,10.55,0,5.19-1.53,9.1-4.58,11.72-2.55,2.19-5.95,3.28-10.19,3.28h-9.22v-29.61Zm5.11,3.97v21.67h4.01c3.21,0,5.6-.99,7.19-2.98,1.49-1.85,2.24-4.52,2.24-8.01,0-7.12-3.06-10.68-9.17-10.68h-4.27Z"/>
        <g>
          <path class="cls-2" d="m998.52,110.4l-2,.03c-.07,0-.12,0-.13-.02s-.02-.07-.02-.15v-1.25c0-.09,0-.14.02-.16s.06-.02.13-.02l2,.03h9.95l2-.03c.08,0,.13.01.15.03.01.02.02.07.02.15v1.25c0,.08,0,.13-.02.15s-.06.02-.14.02l-2-.03h-6.35c-.14.35-.3.75-.51,1.19h4.72l2.05-.03c.14,0,.21.07.21.2l-.2,1.62c-.12.96-.31,1.78-.56,2.46-.19.5-.5.86-.92,1.06-.34.16-.79.23-1.34.23-.61,0-1.08-.01-1.4-.03-.25-.02-.41-.05-.46-.11-.05-.05-.1-.19-.17-.44-.13-.46-.29-.85-.47-1.15.88.09,1.63.14,2.24.14.5,0,.81-.19.95-.58.15-.46.28-1.1.4-1.91h-5.83c-.23.39-.41.66-.52.84-.06.09-.12.13-.2.13-.04,0-.09,0-.16-.02l-1.28-.27c-.17-.03-.25-.08-.25-.14,0-.04.02-.08.05-.13.7-.91,1.29-1.92,1.78-3.05h-1.73Zm7.34-7.2l2.17-.03c.09,0,.14.01.16.03.02.03.02.08.02.16l-.03,1.29v1.7l.03,1.33c0,.1-.06.16-.18.16l-2.17-.03h-4.8l-2.17.03c-.12,0-.18-.05-.18-.16l.03-1.33v-1.7l-.03-1.29c0-.09.01-.15.03-.17.02-.02.07-.02.15-.02l2.17.03h4.8Zm.69,3.2v-1.77h-6.16v1.77h6.16Z"/>
          <path class="cls-2" d="m1013.91,107.29l-1.5.03c-.11,0-.16-.06-.16-.17v-1.14c0-.11.05-.17.16-.17l1.5.03h.32v-1.05c0-.94-.04-1.66-.12-2.15.59.02,1.1.05,1.53.11.18.04.27.1.27.18,0,.1-.03.21-.09.34-.06.16-.09.66-.09,1.51v1.07l1.24-.03c.11,0,.16.06.16.17v1.14c0,.11-.05.17-.16.17-.02,0-.14,0-.38,0-.25-.01-.53-.02-.83-.02.37,1.05.94,2.03,1.71,2.95-.23.32-.43.67-.59,1.07-.08.18-.14.27-.17.27-.05,0-.12-.09-.21-.26-.37-.67-.64-1.3-.81-1.91,0,1.79.03,3.66.06,5.59.01.44.02.98.04,1.62,0,.3,0,.47,0,.51,0,.08-.01.13-.04.15-.02.02-.07.02-.16.02h-1.24c-.09,0-.14-.01-.16-.03s-.02-.07-.02-.14c0-.04,0-.41.02-1.13.04-2.19.07-4.19.09-6.01-.34,1.21-.83,2.38-1.48,3.5-.1.17-.18.26-.24.26-.05,0-.11-.1-.17-.29-.14-.46-.32-.84-.55-1.15,1.11-1.57,1.88-3.24,2.29-5.02h-.21Zm13.22,7.91c-.31.33-.54.67-.67,1.04-.09.23-.17.35-.24.35s-.2-.06-.38-.17c-1.39-.87-2.53-1.89-3.42-3.06,0,.8.03,1.67.06,2.63l.05,1.12c0,.09-.01.14-.03.16s-.07.02-.14.02h-1.34c-.09,0-.15-.01-.17-.03-.02-.02-.02-.07-.02-.15,0-.04.01-.26.03-.65.06-1.16.09-2.18.1-3.06-.95,1.25-2.13,2.31-3.54,3.16-.18.11-.3.17-.35.17-.07,0-.17-.12-.29-.35-.13-.26-.37-.55-.72-.88,1.63-.71,3-1.72,4.11-3.04h-.26l-2.08.03c-.11,0-.17-.05-.17-.16l.03-1.55v-2.41l-.03-1.52c0-.09.01-.14.03-.16s.07-.02.14-.02l2.08.03h.99v-1.07h-1.56l-2.2.06c-.1,0-.16-.07-.16-.2v-1.09c0-.09.01-.15.03-.17.02-.02.06-.02.12-.02l2.2.03h1.56c0-.52-.04-1.07-.11-1.65.62.02,1.16.05,1.62.11.17.02.26.09.26.2,0,.06-.04.17-.11.32-.07.16-.1.5-.1,1.02h1.95l2.19-.03c.08,0,.12.01.14.03.02.03.02.08.02.16v1.09c0,.14-.05.2-.16.2l-2.19-.06h-1.95v1.07h1.19l2.07-.03c.09,0,.14.01.16.03s.02.07.02.15l-.03,1.52v2.41l.03,1.55c0,.1-.06.16-.18.16l-2.07-.03h-.5c.97,1.03,2.3,1.94,4,2.73Zm-8-6.16h1.81v-1.15h-1.81v1.15Zm0,2.26h1.81v-1.16h-1.81v1.16Zm5.23-3.41h-1.97v1.15h1.97v-1.15Zm0,3.41v-1.16h-1.97v1.16h1.97Z"/>
        </g>
        <g>
          <path class="cls-2" d="m439.3,236.61v4.11h4.83c1.94,0,3.84-.04,5.7-.13.19,0,.29.16.32.47.03.32.04.65.04.98s-.01.66-.04.98c-.02.31-.14.47-.35.47h-.14c-2.35-.04-4.19-.06-5.53-.06h-4.85v3.92c0,.74.23,1.2.7,1.38.57.19,1.52.28,2.83.28,1.88,0,3.41-.1,4.58-.3.21,0,.32.13.32.38.05.46.08,1.15.08,2.05,0,.22-.04.37-.13.44-.07.05-.2.08-.39.1-1.12.15-2.73.23-4.83.23-1.98,0-3.48-.23-4.5-.7-1.14-.52-1.71-1.58-1.71-3.17v-4.61h-1.66c-1.6,0-3.4.04-5.4.13-.27.02-.42-.15-.44-.49-.03-.16-.08-.98-.18-2.46,1.27.1,3.28.15,6.05.15h1.63v-4.11c-2.41,0-3.91.02-4.51.05-.3,0-.44-.16-.44-.47-.07-.69-.1-1.5-.1-2.41,1.04.08,2.8.13,5.3.13h5.23c1.55,0,3.25-.03,5.12-.1.26,0,.39.15.39.44.03.83.05,1.47.05,1.91,0,.3-.14.44-.43.44h-.11l-5.02-.03h-2.38Z"/>
          <path class="cls-2" d="m467.07,241.64c-.08,1.58-.25,2.87-.49,3.87-.22.93-.57,1.85-1.04,2.75-.53,1.06-1.27,2.06-2.21,3.02-.78.79-1.56,1.42-2.36,1.89-.33.21-.59.32-.77.32s-.38-.08-.54-.25c-.55-.56-1.32-1.02-2.32-1.38,1.39-.75,2.49-1.5,3.29-2.23.75-.69,1.38-1.49,1.88-2.4.49-.87.83-1.76,1.01-2.67.15-.74.25-1.7.3-2.9h-4.93c-.83,0-2.12.05-3.89.15-.19.03-.31-.14-.34-.49-.14-.77-.2-1.6-.2-2.48.97.08,2.44.13,4.41.13h11.66c1.85,0,3.54-.05,5.06-.15.19,0,.28.17.28.52.02.18.03.51.03.99s0,.82-.03,1c0,.3-.13.44-.38.44-1.8-.07-3.44-.1-4.93-.1h-3.49Zm-9.44-8.86c1.51.08,2.95.13,4.31.13h4.78c1.78,0,3.24-.03,4.37-.1.21,0,.32.17.32.49.03.31.04.62.04.94s-.01.63-.04.95c0,.33-.11.49-.34.49-1.38-.05-2.83-.08-4.35-.08h-4.78c-.52,0-1.75.03-3.69.1-.27,0-.42-.15-.44-.44-.02-.24-.05-.64-.09-1.22-.04-.59-.07-1.01-.09-1.27Zm13.99-.85l1.47-.84c.05-.03.1-.04.14-.04.08,0,.15.04.23.13.79.74,1.53,1.74,2.21,3,.03.06.05.11.05.17,0,.09-.06.18-.18.25l-1.17.7c-.07.03-.13.05-.18.05-.09,0-.17-.06-.24-.18-.71-1.34-1.49-2.42-2.33-3.25Zm2.53-1.48l1.41-.81c.06-.03.11-.05.15-.05.05,0,.12.05.22.14.92.86,1.66,1.83,2.21,2.9.03.07.05.13.05.19,0,.1-.06.19-.18.28l-1.09.7c-.08.04-.14.06-.2.06-.1,0-.18-.06-.24-.19-.63-1.23-1.41-2.31-2.32-3.22Z"/>
          <path class="cls-2" d="m484.89,235.24c1.67.2,2.77.39,3.3.57.28.08.42.23.42.47,0,.09-.03.2-.08.33-.21.41-.32,1-.32,1.76-.05,3.11-.52,5.65-1.41,7.63-.76,1.8-1.99,3.43-3.69,4.88-.28.23-.5.34-.67.34-.14,0-.3-.07-.49-.2-.61-.42-1.34-.79-2.21-1.09,2.03-1.54,3.46-3.26,4.31-5.17.41-1.01.69-2.01.84-3,.16-1.05.25-2.49.25-4.33,0-.81-.08-1.54-.25-2.18Zm9.06,11.54c1.16-.62,2.39-1.42,3.69-2.42,1.79-1.37,3.3-2.84,4.54-4.41.1.91.37,1.79.81,2.62.1.25.15.39.15.44,0,.18-.13.39-.39.65-1.28,1.31-2.56,2.45-3.84,3.41-1.49,1.14-3.02,2.18-4.61,3.12-.25.16-.49.34-.75.54-.17.13-.35.2-.53.2-.14,0-.32-.07-.54-.2-.5-.35-1.02-.88-1.56-1.58-.15-.24-.23-.42-.23-.54s.03-.26.1-.39c.1-.19.15-.85.15-1.98v-8.12c0-2.21-.09-3.72-.27-4.52,1.64.21,2.72.39,3.26.54.31.08.47.22.47.44,0,.16-.07.38-.2.66-.16.32-.24,1.28-.24,2.88v8.67Z"/>
          <path class="cls-2" d="m508.23,238.06l-2.43.05c-.18,0-.27-.09-.27-.28v-1.85c0-.19.09-.28.27-.28l2.43.05h.52v-1.71c0-1.53-.07-2.69-.2-3.49.96.03,1.79.08,2.48.18.3.06.44.16.44.29,0,.16-.05.34-.15.54-.1.25-.15,1.07-.15,2.45v1.74l2.02-.05c.18,0,.27.09.27.28v1.85c0,.19-.09.28-.27.28-.03,0-.23,0-.62-.01-.41-.02-.85-.03-1.34-.04.6,1.71,1.52,3.3,2.78,4.78-.37.52-.69,1.09-.96,1.74-.14.3-.23.44-.28.44-.08,0-.19-.14-.34-.42-.6-1.08-1.04-2.11-1.32-3.09,0,2.91.04,5.93.1,9.07.02.71.04,1.58.06,2.62,0,.49.01.76.01.82,0,.13-.02.21-.06.24-.03.03-.12.04-.25.04h-2.02c-.14,0-.23-.02-.25-.05-.03-.03-.04-.11-.04-.23,0-.06.01-.67.04-1.84.07-3.55.11-6.8.14-9.75-.55,1.97-1.35,3.86-2.41,5.68-.17.28-.3.42-.39.42-.08,0-.18-.16-.28-.47-.22-.74-.52-1.37-.89-1.86,1.81-2.54,3.05-5.26,3.71-8.15h-.34Zm21.44,12.83c-.51.53-.87,1.09-1.09,1.69-.14.38-.27.57-.39.57s-.33-.09-.62-.28c-2.25-1.41-4.1-3.07-5.55-4.97,0,1.29.04,2.72.1,4.27l.08,1.83c0,.14-.02.23-.05.25-.03.03-.11.04-.23.04h-2.18c-.15,0-.25-.02-.28-.05-.02-.03-.04-.11-.04-.24,0-.07.02-.42.05-1.05.09-1.88.15-3.53.17-4.97-1.54,2.04-3.45,3.74-5.74,5.12-.3.19-.49.28-.57.28-.12,0-.27-.19-.47-.57-.21-.42-.6-.9-1.17-1.42,2.64-1.15,4.87-2.79,6.67-4.93h-.42l-3.37.05c-.19,0-.28-.08-.28-.25l.05-2.51v-3.92l-.05-2.46c0-.14.02-.23.05-.25.03-.03.11-.04.23-.04l3.37.05h1.61v-1.74h-2.53l-3.56.1c-.17,0-.25-.11-.25-.33v-1.76c0-.15.02-.25.05-.28.03-.03.09-.04.2-.04l3.56.05h2.53c0-.84-.06-1.74-.18-2.67,1.01.03,1.89.08,2.62.18.28.03.42.14.42.32,0,.1-.06.27-.18.52-.11.26-.16.82-.16,1.66h3.17l3.55-.05c.13,0,.2.02.23.05.03.04.04.13.04.27v1.76c0,.22-.09.33-.27.33l-3.55-.1h-3.17v1.74h1.93l3.36-.05c.14,0,.23.02.25.05.03.03.04.11.04.24l-.05,2.46v3.92l.05,2.51c0,.17-.1.25-.29.25l-3.36-.05h-.81c1.57,1.67,3.73,3.15,6.49,4.44Zm-12.98-10h2.94v-1.86h-2.94v1.86Zm0,3.66h2.94v-1.88h-2.94v1.88Zm8.49-5.53h-3.19v1.86h3.19v-1.86Zm0,5.53v-1.88h-3.19v1.88h3.19Z"/>
        </g>
      </g>
      <rect class="cls-1" width="1200.04" height="860"/>
    </g>
  </g>
</svg>