<?xml version="1.0" encoding="UTF-8"?>
<svg id="_レイヤー_2" data-name="レイヤー 2" xmlns="http://www.w3.org/2000/svg" xmlns:xlink="http://www.w3.org/1999/xlink" viewBox="0 0 542.53 422.04">
  <defs>
    <style>
      .cls-1, .cls-2 {
        fill: #fff;
      }

      .cls-3 {
        clip-path: url(#clippath);
      }

      .cls-4 {
        fill: none;
      }

      .cls-2 {
        stroke: #fff;
        stroke-linecap: round;
        stroke-linejoin: round;
        stroke-width: 2.75px;
      }

      .cls-5 {
        fill: #231815;
      }
    </style>
    <clipPath id="clippath">
      <rect class="cls-4" width="542.53" height="422.04"/>
    </clipPath>
  </defs>
  <g id="_レイヤー_1-2" data-name="レイヤー 1">
    <g class="cls-3">
      <g>
        <path class="cls-1" d="m26.09,19.5c-.87.93-1.85,1.8-2.92,2.62-.04.63-.16.94-.35.94-.22,0-.58-.6-1.09-1.79,1.69-.81,3.14-1.69,4.36-2.62v-10.49c1.47.04,2.2.23,2.2.54,0,.19-.3.41-.89.65v18.19h-1.31v-8.05Zm-3.51-7.88c1.61,1.47,2.42,2.89,2.42,4.28,0,.65-.28.98-.83.98-.38,0-.58-.23-.61-.68-.09-1.41-.55-2.84-1.37-4.28l.39-.31Zm15.51,7.77v6.22c0,1.18-.76,1.76-2.29,1.75,0-.42-.24-.71-.72-.85-.41-.13-1.23-.29-2.47-.48v-.61c1.31.13,2.44.2,3.38.2.58,0,.87-.23.87-.7v-5.52h-8.46l-.26-.52h8.73v-2.55c1.35.1,2.03.3,2.03.59,0,.16-.27.33-.81.52v1.44h1.16l1.05-1.44c.52.57.95,1.1,1.29,1.59l-.2.37h-3.29Zm-9.9-8.14c4.52-.74,8.11-1.69,10.78-2.86.97.63,1.46,1.08,1.46,1.35,0,.13-.13.2-.39.2-.13,0-.39-.04-.76-.11-3.01.77-6.61,1.42-10.8,1.94l-.28-.52Zm.96,1.09c1.88,1.29,2.81,2.57,2.81,3.84,0,.61-.25.92-.76.92-.38,0-.61-.28-.7-.85-.19-1.27-.74-2.45-1.66-3.56l.31-.35Zm1.46,7.46c1.05.51,1.86,1.11,2.44,1.81.44.54.65,1.02.65,1.44,0,.55-.25.83-.74.83-.39,0-.63-.25-.72-.74-.23-1-.88-1.99-1.94-2.97l.31-.37Zm2.27-8.05c1.54,1.22,2.31,2.43,2.31,3.62,0,.61-.25.92-.74.92-.38,0-.6-.29-.65-.87-.13-1.24-.57-2.36-1.31-3.38l.39-.28Zm2.44,5.41c1.18-1.83,2.28-3.96,3.29-6.39,1.21.55,1.81.96,1.81,1.22,0,.17-.31.28-.94.33-.99,1.76-2.23,3.46-3.71,5.1l-.46-.26Z"/>
        <path class="cls-1" d="m53.25,18.32v-6.09h-7.55l-.22-.52h7.77v-3.62c1.48.06,2.23.25,2.23.57,0,.2-.31.42-.94.63v2.42h5.69l1.07-1.44c.54.47,1.03.98,1.46,1.55l-.24.42h-7.98v6.09h6.78l1.13-1.42c.41.32.92.83,1.53,1.53l-.24.44h-9.01l.13.15c2.56,2.49,5.58,4.31,9.08,5.48-.49.41-.86.87-1.09,1.37-3.32-1.54-6.09-3.67-8.31-6.37v8.05h-1.29v-7.39c-2.27,2.66-5.19,4.68-8.77,6.04l-.31-.5c3.52-1.66,6.33-3.93,8.44-6.83h-8.18l-.22-.55h9.03Zm-5.52-5.24c1.98,1.15,2.97,2.33,2.97,3.53,0,.58-.27.87-.81.87-.32,0-.55-.28-.7-.85-.31-1.12-.89-2.19-1.77-3.21l.31-.35Zm8.66,4.41c.79-1.44,1.42-3.02,1.92-4.75,1.32.49,1.99.88,1.99,1.16,0,.2-.32.33-.96.37-.61,1.13-1.43,2.31-2.46,3.51l-.48-.28Z"/>
        <path class="cls-1" d="m69.37,14.22c.44.44,1.03.65,1.79.65,2.21,0,4.4-.14,6.57-.42.01-.01.07-.02.15-.02.26-.03.52-.14.79-.33.13-.09.25-.13.35-.13.25,0,.53.16.85.48.23.23.36.44.39.63.03.15-.06.29-.26.44-.12.09-.27.34-.46.76-.9,2.47-2.24,4.57-4.01,6.3-1.77,1.73-4.19,2.96-7.24,3.69l-.2-.26c3-1.18,5.33-2.75,7.01-4.72,1.68-1.97,2.83-4.03,3.44-6.18-3.67.39-6.08.7-7.24.92-.15.03-.29.04-.44.04-.83,0-1.4-.57-1.7-1.7l.22-.15Zm12.3-2.88c.31,0,.59.07.85.2.6.33.89.84.89,1.5,0,.31-.08.58-.24.83-.32.6-.82.89-1.51.89-.36,0-.7-.11-1-.33-.47-.36-.7-.83-.7-1.4,0-.49.18-.91.55-1.24.32-.31.71-.46,1.16-.46Zm.02.63c-.2,0-.39.06-.57.17-.35.2-.52.5-.52.89,0,.28.1.52.31.74.2.22.46.33.76.33.2,0,.37-.04.5-.11.39-.19.59-.51.59-.96,0-.29-.11-.54-.33-.76-.22-.2-.47-.31-.74-.31Z"/>
        <path class="cls-1" d="m89.72,16.47c.42.38,1.11.57,2.07.57,2.59,0,4.68-.13,6.28-.39.39-.06.71-.17.96-.33.15-.09.26-.13.35-.13.2,0,.42.16.64.47.23.31.34.59.34.82,0,.16-.09.28-.28.37-.2.12-.44.5-.72,1.16-.96,2.11-2.22,3.72-3.77,4.84s-3.45,1.96-5.67,2.53l-.22-.31c2.46-.93,4.42-2.1,5.89-3.51s2.5-3.16,3.1-5.26c-4.06.42-6.38.69-6.96.81-.22.04-.42.07-.61.07-.73,0-1.27-.53-1.61-1.59l.22-.11Zm1.7-3.29c.48.35,1.1.52,1.85.52,1.73,0,3-.19,3.8-.57.16-.07.32-.11.48-.11.25,0,.52.12.83.35.28.22.41.41.41.57,0,.25-.19.37-.57.37h-.17c-.15-.01-.47-.02-.96-.02-1.47,0-2.71.12-3.73.35-.2.04-.39.07-.57.07-.67,0-1.21-.46-1.61-1.4l.24-.13Z"/>
        <path class="cls-1" d="m107.78,14.38c1.4.23,2.46.61,3.19,1.13.52.36.79.79.79,1.26,0,.51-.23.76-.7.76-.22,0-.38-.09-.48-.28-.61-1.08-1.61-1.96-2.99-2.64l.2-.24Zm.22,7.98c.45.35.81.53,1.09.54.73.03,2.01-.52,3.84-1.66,2.49-1.67,5.07-4.28,7.74-7.83l.26.31c-2.34,4.46-5.89,7.91-10.65,10.34-.15.07-.38.17-.7.28-.17.04-.31.07-.41.07-.49-.03-.93-.63-1.31-1.81l.13-.24Z"/>
        <path class="cls-1" d="m127.9,14.35c.77.09,1.16.26,1.16.52,0,.17-.31.36-.94.57v12.11h-1.2v-10.78c-.58,1.25-1.31,2.49-2.18,3.71l-.46-.35c1.79-3.01,3.06-7,3.82-11.98,1.34.29,2.01.57,2.01.85,0,.17-.28.32-.85.44-.39,1.88-.84,3.51-1.35,4.91Zm5.04.48c-.26,1.05-.61,2.04-1.05,2.97,1.63.55,2.44,1.19,2.44,1.9,0,.49-.23.74-.68.74-.29,0-.49-.19-.61-.57-.16-.55-.62-1.1-1.37-1.64-.64,1.24-1.46,2.43-2.46,3.58l-.44-.35c2.11-2.95,3.34-6.59,3.71-10.91h-2.86l-.2-.55h6.41l1.03-1.42c.42.45.87.96,1.35,1.53l-.24.44h-4.21c-.25,1.79-.45,2.99-.61,3.6-.01.01-.03.04-.04.07,0,.03,0,.06-.02.09h2.47l.81-1.05c.86.68,1.29,1.13,1.29,1.35,0,.1-.09.2-.26.28l-.44.26c-.58,2.98-1.4,5.38-2.47,7.2-1.12,1.99-2.79,3.72-5.02,5.17l-.37-.44c3.5-2.81,5.69-6.89,6.54-12.26h-2.71Zm5.43,7.98v-11.76c1.4.07,2.09.26,2.09.57,0,.19-.29.38-.87.57v10.62h-1.22Zm.15,2.55c1.13.13,2.05.2,2.75.2.49,0,.74-.23.74-.7V8.38c1.41.09,2.12.3,2.12.63,0,.17-.27.36-.81.54v15.97c0,1.24-.71,1.85-2.14,1.83,0-.47-.23-.79-.68-.96-.32-.13-.98-.28-1.98-.44v-.59Z"/>
      </g>
      <g>
        <path class="cls-2" d="m250.31,174.72c-.43,0-.52.08-.7.7l-2.2,8.02h-.69l-2.15-7.2h-.02l-2.1,7.2h-.71l-2.29-7.9c-.23-.72-.31-.82-.77-.82v-.39h2.38v.39c-.53,0-.71.05-.71.32,0,.12.04.29.1.52l1.87,6.44h.02l1.94-6.67c-.22-.54-.24-.6-.82-.6v-.39h2.45v.39c-.51,0-.7.05-.7.33,0,.12.04.29.11.52l1.93,6.43h.02l1.74-6.36c.07-.27.11-.44.11-.59,0-.28-.17-.33-.64-.33v-.39h1.83v.39Z"/>
        <path class="cls-5" d="m250.31,174.72c-.43,0-.52.08-.7.7l-2.2,8.02h-.69l-2.15-7.2h-.02l-2.1,7.2h-.71l-2.29-7.9c-.23-.72-.31-.82-.77-.82v-.39h2.38v.39c-.53,0-.71.05-.71.32,0,.12.04.29.1.52l1.87,6.44h.02l1.94-6.67c-.22-.54-.24-.6-.82-.6v-.39h2.45v.39c-.51,0-.7.05-.7.33,0,.12.04.29.11.52l1.93,6.43h.02l1.74-6.36c.07-.27.11-.44.11-.59,0-.28-.17-.33-.64-.33v-.39h1.83v.39Z"/>
      </g>
      <g>
        <path class="cls-2" d="m135.5,175.88c1.2,0,1.96.15,2.63.64.59.43.91,1.05.91,1.92,0,1.51-1.15,2.41-2.45,2.6l1.97,3.38c.51.85.71.95,1.34.95v.43h-1.78l-2.63-4.6h-1.23v3.12c0,.98.07,1.05,1.06,1.05v.43h-3.24v-.43c.98,0,1.06-.08,1.06-1.06v-6.96c0-.97-.08-1.04-1.06-1.04v-.43h3.43Zm-.9.54c-.32,0-.35.12-.35.85v3.39h.95c1.61,0,2.67-.56,2.67-2.24,0-1.13-.64-2-2.4-2h-.87Z"/>
        <path class="cls-5" d="m135.5,175.88c1.2,0,1.96.15,2.63.64.59.43.91,1.05.91,1.92,0,1.51-1.15,2.41-2.45,2.6l1.97,3.38c.51.85.71.95,1.34.95v.43h-1.78l-2.63-4.6h-1.23v3.12c0,.98.07,1.05,1.06,1.05v.43h-3.24v-.43c.98,0,1.06-.08,1.06-1.06v-6.96c0-.97-.08-1.04-1.06-1.04v-.43h3.43Zm-.9.54c-.32,0-.35.12-.35.85v3.39h.95c1.61,0,2.67-.56,2.67-2.24,0-1.13-.64-2-2.4-2h-.87Z"/>
      </g>
      <g>
        <path class="cls-5" d="m266.39,291.87c-.03.11-.04.32-.04.6,0,1.24.78,2.17,1.79,2.17.77,0,1.31-.44,1.53-.86.02-.05.08-.08.11-.06l.16.09s.06.05,0,.19c-.23.5-.88,1.37-2,1.37-.72,0-1.51-.21-1.98-.89-.44-.64-.55-1.11-.55-1.99,0-.49.13-1.34.79-2,.54-.55,1.17-.67,1.8-.67,1.45,0,1.85,1.36,1.85,1.85,0,.18-.15.2-.35.2h-3.11Zm2-.38c.24,0,.34-.06.34-.18,0-.29-.15-1.12-.97-1.12-.56,0-1.08.36-1.32,1.3h1.95Z"/>
        <path class="cls-5" d="m275.97,294.55c0,.2.11.26.28.26h.4c.11,0,.14.04.14.11v.2c0,.09-.02.14-.1.14-.09,0-.48-.04-1.2-.04-.64,0-1.05.04-1.13.04-.08,0-.1-.04-.1-.14v-.2c0-.09.04-.11.16-.11h.37c.14,0,.24-.06.25-.29.01-.33.03-.73.03-1.06v-1.66c0-.5,0-.87-.37-1.13-.3-.23-.6-.23-.92-.23-.2,0-.64.09-1.02.49-.25.28-.29.62-.29.86v2.61c0,.34.04.42.3.42h.31c.1,0,.13.04.13.13v.21c0,.08-.03.11-.09.11-.09,0-.43-.04-1.1-.04s-1.05.04-1.12.04c-.06,0-.09-.04-.09-.11v-.23c0-.08.02-.11.12-.11h.37c.16,0,.25-.04.25-.25v-2.95c0-.38-.2-.59-.52-.74l-.1-.05c-.09-.04-.1-.08-.1-.11v-.06c0-.06.05-.1.11-.13l1.08-.6c.1-.05.18-.09.23-.09.06,0,.09.05.1.15l.09.77h.03c.37-.45,1.1-.92,1.73-.92.38,0,.77.08,1.07.28.38.25.69.88.69,1.2v3.25Z"/>
        <path class="cls-5" d="m277.69,291.61c0-.08.03-.09.11-.09h3.53c.1,0,.14.02.14.14v.48c0,.08-.05.09-.15.09h-3.51c-.09.01-.11,0-.11-.06v-.55Z"/>
        <path class="cls-5" d="m260.17,303.76c0,.95.43,1.11.66,1.11.29,0,.65-.05.83-.16.06-.04.11-.03.15.02l.06.11c.04.05.01.1-.03.14-.13.13-.64.5-1.4.5-.62,0-1.22-.59-1.22-1.07,0-.52.04-1.63.04-1.8v-.28c0-.23.01-1.08.03-1.61h-.77c-.11,0-.19-.05-.19-.15s.08-.14.23-.23c.3-.18,1.27-1.15,1.44-1.58.04-.1.1-.13.18-.13.1,0,.13.09.13.19l-.06,1.24h1.75c.08,0,.11.06.09.11l-.13.44c-.01.06-.04.1-.11.1h-1.63c-.03.58-.04,1.2-.04,1.78v1.26Z"/>
        <path class="cls-5" d="m263.29,301.98c0-.64-.1-.77-.45-.96l-.24-.13c-.08-.02-.1-.04-.1-.09v-.08c0-.05.03-.08.1-.11l1.25-.64c.08-.04.13-.05.18-.05.08,0,.09.08.09.15l.06.9h.05c.38-.58.97-1.1,1.51-1.1.43,0,.64.26.64.55,0,.37-.3.62-.53.62-.14,0-.26-.05-.36-.1-.1-.06-.25-.1-.42-.1-.2,0-.53.13-.74.53-.08.14-.13.36-.13.4v2.62c0,.39.09.52.35.52h.59c.08,0,.09.04.09.11v.23c0,.08-.01.11-.06.11-.08,0-.65-.04-1.34-.04-.78,0-1.31.04-1.39.04-.05,0-.08-.02-.08-.13v-.21c0-.09.03-.11.14-.11h.49c.19,0,.28-.08.28-.24.01-.42.01-.86.01-1.51v-1.18Z"/>
        <path class="cls-5" d="m270.98,304.78c.2,0,.38-.1.44-.19.05-.06.08-.09.13-.05l.13.1s.06.1-.01.23c-.1.19-.34.62-.98.62-.45,0-.78-.33-.89-.84h-.03c-.26.31-.68.58-1.25.77-.24.08-.47.08-.74.08-.3,0-.76-.25-.76-1.05,0-.58.26-1.08,1.26-1.53.57-.25,1.22-.55,1.42-.73v-.81c-.03-.21-.04-.54-.18-.71-.14-.16-.39-.28-.76-.28-.25,0-.64.1-.82.26-.18.16-.06.35-.06.58,0,.44-.15.72-.67.72-.2,0-.3-.11-.3-.4,0-.4.35-.88.87-1.18.53-.32.97-.44,1.54-.44s.83.18,1.01.34c.26.26.28.55.28.89v2.67c0,.72.15.94.38.94Zm-1.3-2.22c-.45.34-1.69.59-1.69,1.64,0,.47.28.69.66.69s1.03-.44,1.03-.78v-1.55Z"/>
        <path class="cls-5" d="m277.41,304.65c0,.2.11.26.28.26h.4c.11,0,.14.04.14.11v.2c0,.09-.02.14-.1.14-.09,0-.48-.04-1.2-.04-.64,0-1.05.04-1.13.04-.08,0-.1-.04-.1-.14v-.2c0-.09.04-.11.16-.11h.37c.14,0,.24-.06.25-.29.01-.33.03-.73.03-1.06v-1.66c0-.5,0-.87-.37-1.13-.3-.23-.6-.23-.92-.23-.2,0-.64.09-1.02.49-.25.28-.29.62-.29.86v2.61c0,.34.04.42.3.42h.31c.1,0,.13.04.13.13v.21c0,.08-.03.11-.09.11-.09,0-.43-.04-1.1-.04s-1.05.04-1.12.04c-.06,0-.09-.04-.09-.11v-.23c0-.08.02-.11.12-.11h.37c.16,0,.25-.04.25-.25v-2.95c0-.38-.2-.59-.52-.74l-.1-.05c-.09-.04-.1-.08-.1-.11v-.06c0-.06.05-.1.11-.13l1.08-.6c.1-.05.18-.09.23-.09.06,0,.09.05.1.15l.09.77h.03c.37-.45,1.1-.92,1.73-.92.38,0,.77.08,1.07.28.38.25.69.88.69,1.2v3.25Z"/>
        <path class="cls-5" d="m279.86,302.28c0,.68.3,1.45.64,1.92.42.54.94.64,1.37.64.63,0,.96-.14,1.39-.54.03-.03.06-.04.1,0l.12.13c.05.05.06.09,0,.16-.37.42-1.17.89-2.03.89-.67,0-1.37-.15-1.95-.88-.47-.62-.57-1.15-.57-1.71,0-1.47,1.03-2.96,2.7-2.96,1.31,0,1.71.76,1.71,1.02-.01.29-.2.44-.47.44-.29,0-.5-.16-.69-.5-.28-.52-.54-.55-.84-.55-.72,0-1.49.66-1.49,1.95Z"/>
        <path class="cls-5" d="m285.11,301.98c-.03.11-.04.31-.04.6,0,1.23.78,2.17,1.79,2.17.77,0,1.31-.44,1.53-.86.02-.05.08-.08.11-.06l.16.09s.06.05,0,.19c-.23.5-.88,1.37-2,1.37-.72,0-1.51-.21-1.98-.89-.44-.64-.55-1.11-.55-1.99,0-.49.13-1.34.79-2,.54-.55,1.17-.67,1.8-.67,1.45,0,1.85,1.36,1.85,1.85,0,.18-.15.2-.35.2h-3.11Zm2-.38c.24,0,.34-.06.34-.18,0-.29-.15-1.12-.97-1.12-.55,0-1.08.37-1.32,1.3h1.95Z"/>
      </g>
      <g>
        <path class="cls-5" d="m403.51,238.63c.1,0,1.45-.05,1.6-.08.37-.06.47-.16.58-.55.04-.13.09-.38.1-.62,0-.06.04-.09.09-.09h.31c.06.01.09.06.08.11-.04.21-.04,1.25-.04,1.44,0,.44.05,1.05.08,1.31,0,.06-.02.09-.08.1l-.28.04c-.06.01-.09-.03-.1-.11-.03-.16-.1-.45-.14-.59-.08-.26-.22-.45-.54-.49-.59-.06-1.46-.06-1.66-.06v.78c0,.68.03,1.9.03,2.15.01.66.33.91.72.98.25.05.62.09.93.09.22,0,.84-.01,1.11-.04.21-.03.77-.16,1.1-.44.15-.13.86-1.03,1.03-1.32.04-.06.08-.11.15-.08l.2.11c.06.04.06.08.03.18l-.67,1.85c-.04.11-.13.19-.28.19-.06,0-.34-.01-1.1-.02-.76,0-1.98-.01-3.94-.01-.47,0-.82.01-1.07.01-.26.01-.43.02-.54.02-.08,0-.11-.02-.11-.09v-.34c0-.05.04-.06.13-.06h.5c.58,0,.63-.09.63-.55v-4.22c0-1.05-.03-2.62-.04-2.75-.05-.4-.18-.49-.64-.49h-.45c-.06,0-.1-.01-.1-.09v-.34s.03-.06.09-.06c.28,0,.72.04,1.55.04h.55c1.25,0,2.5-.01,3.74-.01.2,0,.44-.02.5-.02s.09.02.1.06l.64,2.03c.01.05.01.09-.04.11l-.19.1s-.09-.01-.1-.04c-.03-.05-.96-1.25-1.26-1.44-.26-.18-.62-.33-.96-.34l-2.24-.05v3.69Z"/>
        <path class="cls-5" d="m409.58,234.58c0-.06.01-.09.09-.09.13,0,.54.04,1.52.04,1.06,0,1.63-.04,1.74-.04s.13.04.13.09v.29c0,.06-.01.11-.1.11h-.6c-.35,0-.53.11-.53.33,0,.1.01.25.05.43.08.45.54,1.95.77,2.66.15.48.88,2.65,1.17,3.42h.03c.26-.59,1.25-3.19,1.35-3.48.13-.34.6-1.79.79-2.34.1-.32.18-.54.18-.72,0-.15-.09-.29-.4-.29h-.33s-.06-.04-.06-.11v-.29c0-.06.01-.09.08-.09.11,0,.69.04,1.49.04.92,0,1.24-.04,1.35-.04.08,0,.09.02.09.09v.32c0,.05-.01.09-.09.09h-.34c-.42,0-.65.2-.9.49-.33.4-1.33,2.99-1.55,3.52-.15.42-1.78,4.42-1.84,4.55-.05.1-.11.16-.18.16-.1,0-.15-.13-.21-.29-.4-1.16-1.42-4.03-1.59-4.49l-.13-.43c-.3-.89-.9-2.72-1.06-3.1-.13-.29-.25-.42-.52-.42h-.33s-.06-.04-.06-.09v-.32Z"/>
      </g>
      <g>
        <path class="cls-5" d="m433.94,391.77c-.32,0-.65.02-.93.04-.28.02-.5.04-.57.04-.09,0-.15,0-.2-.11-.05-.13-.04-.19.06-.28.87-.82,2.5-2.24,3.99-3.84s2.34-3.02,2.28-4.63c-.05-1.65-1.06-2.63-2.39-2.61-1.58.02-2.17,1.24-2.49,1.8-.07.13-.13.15-.22.09l-.26-.11c-.06-.04-.08-.09,0-.26.3-.72,1.2-2.78,3.71-2.78,1.56,0,3.24,1.28,3.24,3.37,0,1.58-.63,2.91-2.3,4.78-1.26,1.45-2.72,2.52-3.54,3.24h3.76c1.26,0,1.74-.87,2.15-1.56.09-.17.15-.19.33-.09.15.08.22.15.15.26l-1.21,2.89c-.09.2.05.2-.28.2-.17,0-.17-.02-.24-.19-.11-.24-.46-.26-1.02-.26h-4.02Z"/>
        <path class="cls-5" d="m443.99,383.51c0-.82-.04-3.43-.04-3.65,0-.35-.26-.54-.76-.54h-1.08c-.07,0-.13-.04-.13-.11v-.5c0-.07.06-.11.13-.11.11,0,.34.02.76.02.43.02,1.06.04,1.95.04.31,0,6.82.02,7.12-.07.05.31.61,2.82.74,3.3.02.07,0,.11-.04.13l-.33.13c-.06.02-.09-.02-.15-.13-.17-.3-.65-.98-1.19-1.71-.32-.43-.76-.74-1.3-.87-.46-.11-3.41-.17-3.97-.17,0,.24-.02,3.97-.02,5.1v.93c.26,0,2.21-.06,2.43-.09.41-.08.65-.24.82-.82.06-.19.13-.57.19-.91.02-.07.06-.13.13-.13l.37.02c.08,0,.11.06.11.13-.04.32-.04,1.85-.04,2.11,0,.67.06,1.56.09,1.93,0,.09-.04.13-.13.15l-.35.08c-.09.02-.11-.04-.13-.13-.02-.15-.15-.7-.2-.91-.13-.44-.35-.67-.76-.72-.87-.11-2.23-.11-2.52-.11v.69c0,.56.02,3.67.02,3.95,0,.5.09.59.72.59h.91c.11,0,.17.04.17.11v.46c0,.11-.04.15-.15.15-.19,0-.93-.06-2.52-.06-1.45,0-2.15.06-2.43.06-.08,0-.11-.04-.11-.13v-.5c0-.07.06-.09.13-.09h.83c.48,0,.63-.07.65-.41.04-.37.08-2.71.08-5.9v-1.3Z"/>
      </g>
      <g>
        <path class="cls-5" d="m361.12,106.07c0-1.13-.19-1.36-.79-1.56l-.17-.05c-.19-.05-.22-.08-.22-.13v-.13c0-.05.04-.08.14-.13.49-.22,1.36-.66,1.78-.92.12-.08.25-.15.35-.15.12,0,.15.08.13.29-.02.13-.02,2.05-.02,3.55v1.95c.54-.52,1.5-.84,2.32-.84,1.48,0,3.08,1.19,3.08,3.6,0,1.97-1.58,3.82-3.5,3.82-.94,0-1.6-.2-1.98-.44l-.67.37c-.07.05-.12.07-.22.05l-.2-.05c-.07-.02-.08-.05-.07-.13.03-.24.03-1.63.03-2.86v-6.21Zm1.21,5.45c0,1.4.05,1.9.25,2.44.17.4.87.84,1.6.84,1.01,0,2.25-.69,2.25-2.89,0-1.63-.86-3.18-2.51-3.18-.62,0-1.23.22-1.6.6v2.19Z"/>
        <path class="cls-5" d="m370.33,110.66c-.04.15-.05.42-.05.81,0,1.65,1.04,2.89,2.39,2.89,1.02,0,1.75-.59,2.03-1.14.04-.07.1-.1.15-.08l.22.12c.05.02.08.07,0,.25-.3.67-1.18,1.83-2.67,1.83-.96,0-2.02-.29-2.64-1.19-.59-.86-.74-1.48-.74-2.66,0-.66.17-1.78,1.06-2.67.72-.74,1.56-.89,2.41-.89,1.93,0,2.47,1.82,2.47,2.47,0,.24-.2.27-.47.27h-4.15Zm2.67-.51c.32,0,.45-.08.45-.24,0-.39-.2-1.5-1.3-1.5-.74,0-1.44.49-1.77,1.73h2.61Z"/>
        <path class="cls-5" d="m381.67,104.89c0-.64-.12-.84-1.06-.99-.1-.02-.12-.05-.12-.12v-.29c0-.07.04-.1.14-.12.65-.13,1.53-.29,1.85-.35.15-.02.27-.05.39-.05.08,0,.1.12.08.3-.05.84-.07,3.28-.07,5.41v3.72c0,.62.03,1.36.17,1.53.15.17.51.27.74.28.23.02.3.03.34.12l.04.13c.02.1-.02.15-.12.18l-1.9.64c-.1.03-.19-.02-.22-.13l-.22-.74c-.54.54-1.62.91-2.47.91-.55,0-1.19.03-1.98-.77-.86-.84-1.06-1.6-1.06-2.72,0-1.04.39-2.07,1.18-2.86.66-.71,1.56-1.06,2.51-1.06.69,0,1.29.1,1.8.25v-3.28Zm0,5.33c0-.24,0-.56-.15-.82-.24-.45-.77-.91-1.77-.91-.52,0-1.09.15-1.53.61-.66.71-.77,1.6-.77,2.24,0,1.9,1.31,3.28,2.29,3.28s1.66-.49,1.83-.93c.08-.25.1-.39.1-.57v-2.89Z"/>
        <path class="cls-5" d="m390.24,110.66c0-.86-.14-1.03-.61-1.28l-.32-.17c-.1-.03-.13-.05-.13-.12v-.1c0-.07.03-.1.13-.15l1.66-.86c.1-.05.17-.07.24-.07.1,0,.12.1.12.2l.08,1.19h.07c.51-.77,1.3-1.46,2.02-1.46.57,0,.86.35.86.74,0,.49-.4.82-.71.82-.19,0-.35-.07-.49-.13-.14-.08-.34-.13-.56-.13-.27,0-.71.17-.99.71-.1.19-.17.49-.17.54v3.5c0,.52.12.69.47.69h.79c.1,0,.12.05.12.15v.3c0,.1-.02.15-.08.15-.1,0-.87-.05-1.78-.05-1.04,0-1.75.05-1.85.05-.07,0-.1-.03-.1-.17v-.29c0-.12.03-.15.19-.15h.66c.25,0,.37-.1.37-.32.02-.55.02-1.14.02-2.02v-1.58Z"/>
        <path class="cls-5" d="m395.86,114.17c-.77-.92-.92-1.55-.92-2.74,0-.86.45-1.93,1.45-2.71.87-.67,1.7-.81,2.25-.81.92,0,1.85.47,2.35.97.76.77,1.14,1.65,1.14,2.74,0,1.83-1.65,3.7-3.72,3.7-.81,0-1.85-.32-2.56-1.16Zm4.86-2.71c0-1.87-1.36-3.04-2.22-3.04-.45,0-.89.1-1.29.54-.65.67-.89,1.36-.89,2.64,0,.94.1,1.58.64,2.35.39.55.87.87,1.66.87,1.28,0,2.1-1.56,2.1-3.36Z"/>
        <path class="cls-5" d="m404.24,114.17c-.77-.92-.92-1.55-.92-2.74,0-.86.45-1.93,1.45-2.71.87-.67,1.7-.81,2.25-.81.92,0,1.85.47,2.35.97.76.77,1.14,1.65,1.14,2.74,0,1.83-1.65,3.7-3.72,3.7-.81,0-1.85-.32-2.56-1.16Zm4.86-2.71c0-1.87-1.36-3.04-2.22-3.04-.45,0-.89.1-1.29.54-.65.67-.89,1.36-.89,2.64,0,.94.1,1.58.64,2.35.39.55.87.87,1.66.87,1.28,0,2.1-1.56,2.1-3.36Z"/>
        <path class="cls-5" d="m417.39,110.82c0-1.24-.23-1.56-.5-1.82-.22-.2-.71-.3-1.08-.3-.44,0-1.14.22-1.61.98-.2.34-.24.66-.24,1.13v3.33c0,.27.1.44.34.44h.6c.15,0,.17.03.17.15v.27c0,.12-.02.19-.14.19-.15,0-.6-.05-1.53-.05s-1.43.05-1.56.05c-.1,0-.14-.03-.14-.15v-.3c0-.13.04-.15.2-.15h.57c.15,0,.23-.1.25-.42.02-.29.02-.59.02-.87v-2.99c0-.34-.07-.64-.47-.86l-.35-.18c-.08-.05-.12-.08-.12-.13v-.13c0-.05.07-.12.1-.13l1.48-.76c.14-.07.25-.1.32-.1.1,0,.15.12.15.24l.07.98h.05c.51-.69,1.5-1.28,2.47-1.28.87,0,1.55.5,1.9,1.29h.08c.5-.66,1.46-1.29,2.47-1.29.59,0,1.11.1,1.51.5.39.4.81.77.81,2.07v3.75c0,.25.15.34.35.34h.45c.15,0,.19.03.19.15v.29c0,.12-.03.17-.12.17-.12,0-.59-.05-1.4-.05s-1.45.05-1.56.05c-.1,0-.14-.05-.14-.17v-.29c0-.12.04-.15.22-.15h.42c.19,0,.32-.08.34-.32.04-.39.04-.99.04-1.36v-2.49c0-.55-.1-1.04-.49-1.34-.3-.24-.74-.35-1.25-.35s-1.19.39-1.46.87c-.25.49-.24.94-.24,1.7v2.91c0,.22.08.39.34.39h.57c.15,0,.19.03.19.15v.27c0,.13-.04.19-.12.19-.12,0-.55-.05-1.5-.05s-1.48.05-1.58.05c-.08,0-.12-.05-.12-.17v-.27c0-.13.02-.17.17-.17h.49c.27,0,.37-.07.37-.29v-3.46Z"/>
        <path class="cls-5" d="m377.83,123.32c.42-.03,1.55.08,1.92.19,1.65.44,2.59,1.61,2.59,3.13.02,2.4-1.95,4.17-4.24,4.17-1.25,0-2.19-.45-2.19-.94,0-.24.15-.44.37-.44.3,0,.59.19.84.34s.82.32,1.33.32c1.31,0,2.62-1.11,2.62-2.59,0-1.18-.39-2.1-1.48-2.57-.91-.4-1.75-.4-2.19-.37-.1.02-.19.03-.3-.03-.08-.03-.1-.08-.08-.19l.6-4.74c.02-.2.05-.27.27-.27h3.6c.59,0,.74-.28,1.02-.84.05-.1.1-.12.2-.08.19.08.27.1.24.2l-.61,1.68c-.12.27-.2.34-.72.34h-3.5l-.3,2.71Z"/>
        <path class="cls-5" d="m385.02,129.76c0-.29.2-.94,1.04-.94.49,0,.94.39.94,1.01,0,.56-.42.93-.94.93-.37,0-1.04-.2-1.04-.99Z"/>
        <path class="cls-5" d="m389.8,130.55c-.29,0-.59.02-.84.03-.25.02-.45.03-.52.03-.08,0-.13,0-.19-.1-.05-.12-.03-.17.05-.25.79-.74,2.27-2.03,3.61-3.48,1.35-1.45,2.12-2.74,2.07-4.2-.05-1.5-.96-2.39-2.17-2.37-1.43.02-1.97,1.13-2.25,1.63-.07.12-.12.13-.2.08l-.23-.1c-.05-.03-.07-.08,0-.24.27-.66,1.09-2.52,3.36-2.52,1.41,0,2.94,1.16,2.94,3.06,0,1.43-.57,2.64-2.08,4.34-1.14,1.31-2.47,2.29-3.21,2.94h3.41c1.14,0,1.58-.79,1.95-1.41.08-.15.13-.17.3-.08.14.07.2.13.14.24l-1.1,2.62c-.08.19.05.19-.25.19-.15,0-.15-.02-.22-.17-.1-.22-.42-.24-.93-.24h-3.65Z"/>
        <path class="cls-5" d="m398.93,123.32c.42-.03,1.55.08,1.92.19,1.65.44,2.59,1.61,2.59,3.13.02,2.4-1.95,4.17-4.24,4.17-1.25,0-2.19-.45-2.19-.94,0-.24.15-.44.37-.44.3,0,.59.19.84.34s.82.32,1.33.32c1.31,0,2.62-1.11,2.62-2.59,0-1.18-.39-2.1-1.48-2.57-.91-.4-1.75-.4-2.19-.37-.1.02-.19.03-.3-.03-.08-.03-.1-.08-.08-.19l.6-4.74c.02-.2.05-.27.27-.27h3.6c.59,0,.74-.28,1.02-.84.05-.1.1-.12.2-.08.19.08.27.1.24.2l-.61,1.68c-.12.27-.2.34-.72.34h-3.5l-.3,2.71Z"/>
        <path class="cls-5" d="m406.61,126c0-.74-.14-.91-.83-1.18l-.17-.07c-.08-.03-.1-.07-.1-.12v-.15c0-.05.05-.08.13-.13.54-.17,1.23-.5,1.81-.89.14-.1.22-.12.32-.12.08,0,.13.12.1.28-.04.15-.07,1.33-.07,2.86v2.1c0,.99-.05,2.79-.23,3.72-.37,1.92-1.58,2.83-2.88,2.83-.5,0-.98-.3-.98-.79,0-.27.25-.71.6-.71.37,0,.66.19.96.52.17.18.29.25.39.25.42,0,.76-.45.84-1.48.07-.97.08-2.4.08-3.6v-3.33Zm-.71-5.5c0-.44.37-.94,1.06-.94.62,0,.91.51.91.89,0,.45-.3.99-1.01.99-.39,0-.96-.39-.96-.94Z"/>
      </g>
      <g>
        <path class="cls-5" d="m120.87,234.61c0-1.13-.19-1.36-.79-1.56l-.17-.05c-.19-.05-.22-.08-.22-.13v-.13c0-.05.04-.08.14-.13.49-.22,1.36-.66,1.78-.92.12-.08.25-.15.35-.15.12,0,.15.08.13.29-.02.13-.02,2.05-.02,3.55v1.95c.54-.52,1.5-.84,2.32-.84,1.48,0,3.08,1.19,3.08,3.6,0,1.97-1.58,3.82-3.5,3.82-.94,0-1.6-.2-1.98-.44l-.67.37c-.07.05-.12.07-.22.05l-.2-.05c-.07-.02-.08-.05-.07-.13.03-.24.03-1.63.03-2.86v-6.21Zm1.21,5.45c0,1.4.05,1.9.25,2.44.17.4.87.84,1.6.84,1.01,0,2.25-.69,2.25-2.89,0-1.63-.86-3.18-2.51-3.18-.62,0-1.23.22-1.6.6v2.19Z"/>
        <path class="cls-5" d="m130.08,239.2c-.04.15-.05.42-.05.81,0,1.65,1.04,2.89,2.39,2.89,1.02,0,1.75-.59,2.03-1.14.04-.07.1-.1.15-.08l.22.12c.05.02.08.07,0,.25-.3.67-1.18,1.83-2.67,1.83-.96,0-2.02-.29-2.64-1.19-.59-.86-.74-1.48-.74-2.66,0-.66.17-1.78,1.06-2.67.72-.74,1.56-.89,2.41-.89,1.93,0,2.47,1.82,2.47,2.47,0,.24-.2.27-.47.27h-4.15Zm2.67-.51c.32,0,.45-.08.45-.24,0-.39-.2-1.5-1.29-1.5-.74,0-1.45.49-1.77,1.73h2.61Z"/>
        <path class="cls-5" d="m141.42,233.43c0-.64-.12-.84-1.06-.99-.1-.02-.12-.05-.12-.12v-.29c0-.07.04-.1.14-.12.65-.13,1.53-.29,1.85-.35.15-.02.27-.05.39-.05.08,0,.1.12.08.3-.05.84-.07,3.28-.07,5.41v3.72c0,.62.03,1.36.17,1.53.15.17.51.27.74.28.23.02.3.03.34.12l.04.13c.02.1-.02.15-.12.18l-1.9.64c-.1.03-.19-.02-.22-.13l-.22-.74c-.54.54-1.62.91-2.47.91-.55,0-1.19.03-1.98-.77-.86-.84-1.06-1.6-1.06-2.72,0-1.04.39-2.07,1.18-2.86.66-.71,1.56-1.06,2.51-1.06.69,0,1.29.1,1.8.25v-3.28Zm0,5.33c0-.24,0-.56-.15-.82-.24-.45-.77-.91-1.77-.91-.52,0-1.09.15-1.53.61-.66.71-.77,1.6-.77,2.24,0,1.9,1.31,3.28,2.29,3.28s1.66-.49,1.83-.93c.08-.25.1-.39.1-.57v-2.89Z"/>
        <path class="cls-5" d="m149.99,239.2c0-.86-.14-1.03-.61-1.28l-.32-.17c-.1-.03-.13-.05-.13-.12v-.1c0-.07.03-.1.13-.15l1.66-.86c.1-.05.17-.07.24-.07.1,0,.12.1.12.2l.08,1.19h.07c.51-.77,1.3-1.46,2.02-1.46.57,0,.86.35.86.74,0,.49-.4.82-.71.82-.19,0-.35-.07-.49-.13-.14-.08-.34-.13-.56-.13-.27,0-.71.17-.99.71-.1.19-.17.49-.17.54v3.5c0,.52.12.69.47.69h.79c.1,0,.12.05.12.15v.3c0,.1-.02.15-.08.15-.1,0-.87-.05-1.78-.05-1.04,0-1.75.05-1.85.05-.07,0-.1-.03-.1-.17v-.29c0-.12.03-.15.19-.15h.66c.25,0,.37-.1.37-.32.02-.55.02-1.14.02-2.02v-1.58Z"/>
        <path class="cls-5" d="m155.61,242.71c-.77-.93-.92-1.55-.92-2.74,0-.86.45-1.93,1.45-2.71.87-.67,1.7-.81,2.25-.81.92,0,1.85.47,2.35.97.76.77,1.14,1.65,1.14,2.74,0,1.83-1.65,3.7-3.72,3.7-.81,0-1.85-.32-2.56-1.16Zm4.86-2.71c0-1.87-1.36-3.04-2.22-3.04-.45,0-.89.1-1.29.54-.65.67-.89,1.36-.89,2.64,0,.94.1,1.58.64,2.35.39.55.87.87,1.66.87,1.28,0,2.1-1.56,2.1-3.36Z"/>
        <path class="cls-5" d="m163.99,242.71c-.77-.93-.92-1.55-.92-2.74,0-.86.45-1.93,1.45-2.71.87-.67,1.7-.81,2.25-.81.92,0,1.85.47,2.35.97.76.77,1.14,1.65,1.14,2.74,0,1.83-1.65,3.7-3.72,3.7-.81,0-1.85-.32-2.56-1.16Zm4.86-2.71c0-1.87-1.36-3.04-2.22-3.04-.45,0-.89.1-1.29.54-.65.67-.89,1.36-.89,2.64,0,.94.1,1.58.64,2.35.39.55.87.87,1.66.87,1.28,0,2.1-1.56,2.1-3.36Z"/>
        <path class="cls-5" d="m177.14,239.36c0-1.24-.23-1.56-.5-1.82-.22-.2-.71-.3-1.08-.3-.44,0-1.14.22-1.61.98-.2.34-.24.66-.24,1.13v3.33c0,.27.1.44.34.44h.6c.15,0,.17.03.17.15v.27c0,.12-.02.19-.14.19-.15,0-.6-.05-1.53-.05s-1.43.05-1.56.05c-.1,0-.14-.03-.14-.15v-.3c0-.13.04-.15.2-.15h.57c.15,0,.24-.1.25-.42.02-.29.02-.59.02-.87v-2.99c0-.34-.07-.64-.47-.86l-.35-.18c-.08-.05-.12-.08-.12-.13v-.13c0-.05.07-.12.1-.13l1.48-.76c.14-.07.25-.1.32-.1.1,0,.15.12.15.24l.07.98h.05c.51-.69,1.5-1.28,2.47-1.28.87,0,1.55.5,1.9,1.29h.08c.5-.66,1.46-1.29,2.47-1.29.59,0,1.11.1,1.51.5.39.4.81.77.81,2.07v3.75c0,.25.15.34.35.34h.45c.15,0,.19.03.19.15v.29c0,.12-.03.17-.12.17-.12,0-.59-.05-1.4-.05s-1.45.05-1.56.05c-.1,0-.14-.05-.14-.17v-.29c0-.12.04-.15.22-.15h.42c.19,0,.32-.08.34-.32.04-.39.04-.99.04-1.36v-2.49c0-.55-.1-1.04-.49-1.34-.3-.24-.74-.35-1.25-.35s-1.19.39-1.46.87c-.25.49-.24.94-.24,1.7v2.91c0,.22.08.39.34.39h.57c.15,0,.19.03.19.15v.27c0,.13-.04.19-.12.19-.12,0-.55-.05-1.5-.05s-1.48.05-1.58.05c-.08,0-.12-.05-.12-.17v-.27c0-.13.02-.17.17-.17h.49c.27,0,.37-.07.37-.29v-3.46Z"/>
        <path class="cls-5" d="m146.16,248.78c.76.86.91,2.19.91,2.71,0,2.25-.76,4.57-2.74,6.32-.84.74-1.5,1.11-2.42,1.41-.17.05-.4.12-.52.12-.13,0-.25-.07-.25-.24,0-.12.07-.2.15-.23,1.46-.59,3.7-2.42,4.07-5.23l-.02-.03c-.45.42-1.06.82-2.05.82-2.32,0-3.11-1.77-3.11-3.36,0-.64.6-2.04,1.24-2.59.66-.57,1.43-.87,2.14-.87,1.19,0,1.85.35,2.61,1.18Zm-4.64,2.2c0,1.58.94,2.72,2.09,2.72.98,0,1.48-.52,1.7-.96.2-.42.25-.98.25-1.66,0-1.48-.42-2.94-1.95-2.94-.99,0-2.09.96-2.09,2.84Z"/>
        <path class="cls-5" d="m148.97,258.3c0-.29.2-.94,1.04-.94.49,0,.94.39.94,1.01,0,.56-.42.93-.94.93-.37,0-1.04-.2-1.04-.99Z"/>
        <path class="cls-5" d="m155.91,253.02c0-.22.02-1.01,0-2.34-.02-.57-.08-.94-.4-.94-.15,0-.4.05-.67.13l-1.18.39c-.07.02-.14.02-.17-.05l-.13-.3c-.04-.07-.02-.13.1-.2l3.48-2c.08-.05.15-.1.24-.1.1,0,.12.1.12.24,0,.15-.05,2.79-.05,4.96v.71c0,.2.02,3.77.02,3.99.02.87.08.99,1.18.99h.6c.12,0,.17.05.17.13v.39c0,.1-.04.13-.15.13-.15,0-2.44-.05-2.59-.05s-2.52.05-2.61.05-.13-.03-.13-.13v-.42c0-.08.1-.1.23-.1h.77c1.09,0,1.13-.05,1.16-.94.02-.22.02-3.62.02-3.92v-.6Z"/>
        <path class="cls-5" d="m162.15,254.54c0-.74-.14-.91-.83-1.18l-.17-.07c-.08-.03-.1-.07-.1-.12v-.15c0-.05.05-.08.14-.13.54-.17,1.23-.5,1.81-.89.14-.1.22-.12.32-.12.08,0,.13.12.1.28-.04.15-.07,1.33-.07,2.86v2.1c0,.99-.05,2.79-.23,3.72-.37,1.92-1.58,2.82-2.88,2.82-.5,0-.98-.3-.98-.79,0-.27.25-.71.6-.71.37,0,.66.19.96.52.17.18.29.25.39.25.42,0,.76-.45.84-1.48.07-.97.08-2.4.08-3.6v-3.33Zm-.71-5.5c0-.44.37-.94,1.06-.94.62,0,.91.5.91.89,0,.45-.3.99-1.01.99-.39,0-.96-.39-.96-.94Z"/>
      </g>
      <g>
        <path class="cls-5" d="m195.19,135.95h.03c.05-.21,1.93-5.59,1.98-6.12.01-.1-.08-.32-.19-.47s-.28-.24-.5-.24h-.31c-.06,0-.08-.03-.08-.1v-.3c0-.05.01-.09.09-.09.11,0,.55.04,1.54.04,1.06,0,1.54-.04,1.66-.04.08,0,.09.04.09.09v.32c0,.05-.01.09-.09.09h-.5c-.31,0-.43.28-.35.5l1.97,6.33h.03c.14-.4,1.97-5.72,1.97-6.44,0-.2-.1-.39-.44-.39h-.34c-.08,0-.09-.04-.09-.11v-.29c0-.05.01-.09.1-.09.12,0,.57.04,1.35.04.71,0,1.07-.04,1.17-.04.08,0,.09.02.09.09v.32c0,.05,0,.09-.09.09h-.3c-.22,0-.39.14-.5.34-.1.18-2.74,7.45-2.99,8.05-.06.14-.13.33-.26.33-.15,0-.22-.1-.28-.28l-2.33-6.92h-.03c-.11.34-2.41,6.82-2.48,6.96-.06.13-.14.24-.25.24-.1,0-.18-.05-.23-.2l-2.81-8.07c-.13-.35-.3-.45-.54-.45h-.43c-.06,0-.08-.05-.08-.1v-.3c0-.06.01-.09.1-.09.1,0,.49.04,1.35.04.91,0,1.42-.04,1.55-.04.09,0,.1.04.1.08v.32c0,.06-.01.1-.1.1h-.22c-.33,0-.44.18-.36.45l2.03,6.38Z"/>
        <path class="cls-5" d="m205.9,132.31c0-.3-.04-2.57-.05-2.76-.03-.3-.15-.43-.63-.43h-.73c-.06,0-.1-.03-.1-.08v-.34c0-.05.04-.08.09-.08.15,0,.79.04,1.97.04s1.52-.04,1.7-.04c.06,0,.09.04.09.09v.32c0,.06-.04.09-.1.09h-.59c-.25,0-.44.1-.44.35,0,.13-.04,2.91-.04,3.06v.97c0,.13.04,3.04.04,3.18,0,.39.19.45.59.45h.52c.06,0,.1.02.1.09v.33c0,.05-.04.08-.11.08-.15,0-.66-.04-1.75-.04-1.2,0-1.74.04-1.88.04-.06,0-.1-.02-.1-.08v-.34c0-.05.04-.08.1-.08h.71c.25,0,.52-.04.57-.37.02-.19.06-2.91.06-3.58v-.88Z"/>
        <path class="cls-5" d="m210.78,136.62c-.91-.86-1.35-2.32-1.35-3.53s.38-2.38,1.28-3.34c.64-.68,1.78-1.27,3.15-1.27,1.15,0,2.09.43,2.55.69.16.1.23.09.25,0l.1-.37c.03-.08.05-.08.16-.08s.14.02.14.2c0,.24.25,2.09.32,2.44.01.06,0,.11-.05.13l-.19.05c-.06.01-.09,0-.12-.1-.18-.42-.45-1.02-.98-1.56-.53-.54-1.2-.97-2.19-.97-2.26,0-3.16,2-3.15,3.84,0,.73.23,2.15,1.21,3.24.86.96,1.58,1.06,2.42,1.06,1.43,0,2.53-.78,3.11-1.6.04-.06.06-.08.1-.04l.16.13s.06.05.03.11c-.76,1.1-1.98,2.12-3.76,2.12-1.49,0-2.43-.47-3.19-1.16Z"/>
      </g>
      <g>
        <path class="cls-5" d="m285.86,135.95h.03c.05-.21,1.93-5.59,1.98-6.12.01-.1-.08-.32-.19-.47s-.28-.24-.5-.24h-.31c-.06,0-.08-.03-.08-.1v-.3c0-.05.01-.09.09-.09.11,0,.55.04,1.54.04,1.06,0,1.54-.04,1.66-.04.08,0,.09.04.09.09v.32c0,.05-.01.09-.09.09h-.5c-.31,0-.43.28-.35.5l1.97,6.33h.03c.14-.4,1.97-5.72,1.97-6.44,0-.2-.1-.39-.44-.39h-.34c-.08,0-.09-.04-.09-.11v-.29c0-.05.01-.09.1-.09.12,0,.57.04,1.35.04.71,0,1.07-.04,1.17-.04.08,0,.09.02.09.09v.32c0,.05,0,.09-.09.09h-.3c-.22,0-.39.14-.5.34-.1.18-2.74,7.45-2.99,8.05-.06.14-.13.33-.26.33-.15,0-.22-.1-.28-.28l-2.33-6.92h-.03c-.11.34-2.41,6.82-2.48,6.96-.06.13-.14.24-.25.24-.1,0-.18-.05-.23-.2l-2.81-8.07c-.13-.35-.3-.45-.54-.45h-.43c-.06,0-.08-.05-.08-.1v-.3c0-.06.01-.09.1-.09.1,0,.49.04,1.35.04.91,0,1.42-.04,1.55-.04.09,0,.1.04.1.08v.32c0,.06-.01.1-.1.1h-.22c-.33,0-.44.18-.36.45l2.03,6.38Z"/>
        <path class="cls-5" d="m296.58,132.31c0-.3-.04-2.57-.05-2.76-.03-.3-.15-.43-.63-.43h-.73c-.06,0-.1-.03-.1-.08v-.34c0-.05.04-.08.09-.08.15,0,.79.04,1.97.04s1.52-.04,1.7-.04c.06,0,.09.04.09.09v.32c0,.06-.04.09-.1.09h-.59c-.25,0-.44.1-.44.35,0,.13-.04,2.91-.04,3.06v.97c0,.13.04,3.04.04,3.18,0,.39.19.45.59.45h.52c.06,0,.1.02.1.09v.33c0,.05-.04.08-.11.08-.15,0-.66-.04-1.75-.04-1.2,0-1.74.04-1.88.04-.06,0-.1-.02-.1-.08v-.34c0-.05.04-.08.1-.08h.71c.25,0,.52-.04.57-.37.02-.19.06-2.91.06-3.58v-.88Z"/>
        <path class="cls-5" d="m301.45,136.62c-.91-.86-1.35-2.32-1.35-3.53s.38-2.38,1.28-3.34c.64-.68,1.78-1.27,3.15-1.27,1.15,0,2.09.43,2.55.69.16.1.23.09.25,0l.1-.37c.03-.08.05-.08.16-.08s.14.02.14.2c0,.24.25,2.09.32,2.44.01.06,0,.11-.05.13l-.19.05c-.06.01-.09,0-.12-.1-.18-.42-.45-1.02-.98-1.56-.53-.54-1.2-.97-2.19-.97-2.26,0-3.16,2-3.15,3.84,0,.73.23,2.15,1.21,3.24.86.96,1.58,1.06,2.42,1.06,1.43,0,2.53-.78,3.11-1.6.04-.06.06-.08.1-.04l.16.13s.06.05.03.11c-.76,1.1-1.98,2.12-3.76,2.12-1.49,0-2.43-.47-3.19-1.16Z"/>
      </g>
      <g>
        <path class="cls-5" d="m293.09,181.07c-.06-.04-.06-.11-.08-.18l-.21-1.2c-.01-.06.03-.09.08-.1l.16-.04s.09.01.11.08l.32.62c.25.47.43.78,1.1.78.44,0,1-.26,1-.86s-.28-.89-1.22-1.16c-.74-.21-1.49-.6-1.49-1.6,0-.87.82-1.54,1.77-1.54.6,0,.93.15,1.16.26.19.09.22.15.23.23l.19.88c0,.05-.03.09-.09.11l-.15.05s-.08,0-.11-.06l-.43-.58c-.15-.24-.39-.49-.88-.49s-.97.29-.97.83c0,.73.59.87,1.21,1.05.92.26,1.5.64,1.51,1.61-.01,1.02-.84,1.66-1.92,1.66-.62,0-1.12-.25-1.27-.37Z"/>
        <path class="cls-5" d="m298,174.42c0-.77-.15-.91-.6-1.06l-.22-.08c-.08-.03-.09-.04-.09-.08v-.11s.04-.06.15-.13l1.31-.69c.1-.05.19-.1.29-.1.08,0,.13.1.1.31-.03.21-.04,2.77-.04,3.4v.81h.06c.44-.53,1.17-.82,1.73-.82s.9.16,1.25.5c.57.53.54,1.17.54,1.85v.72c0,.71.03,1.49.03,1.73,0,.15.2.19.47.19h.21c.1,0,.14.03.14.11v.19c0,.1-.02.15-.1.15-.09,0-.49-.04-1.21-.04-.62,0-1.07.04-1.18.04-.09,0-.11-.04-.11-.14v-.21c0-.06.01-.1.09-.1h.29c.21,0,.47-.02.48-.24.01-.18,0-.84,0-1.25v-1.02c0-.71-.05-1.21-.42-1.55-.25-.24-.52-.35-.83-.35-.37,0-.82.13-1.17.53-.11.14-.25.39-.25.62v2.75c0,.4.04.52.28.52h.38c.09,0,.14.03.14.1v.21c0,.09-.02.14-.1.14-.1,0-.62-.04-1.2-.04-.63,0-1.11.04-1.22.04-.05,0-.09-.04-.09-.13v-.23c0-.09.05-.1.19-.1h.26c.2,0,.39-.05.42-.2.04-.24.04-1.63.04-2.44v-3.81Z"/>
        <path class="cls-5" d="m304.7,180.57c-.58-.69-.69-1.16-.69-2.05,0-.64.34-1.45,1.08-2.03.66-.5,1.27-.6,1.69-.6.69,0,1.39.35,1.76.73.57.58.86,1.23.86,2.05,0,1.37-1.24,2.77-2.79,2.77-.6,0-1.39-.24-1.92-.87Zm3.64-2.03c0-1.4-1.02-2.28-1.66-2.28-.34,0-.67.08-.97.4-.49.5-.67,1.02-.67,1.98,0,.71.08,1.19.48,1.77.29.42.66.65,1.25.65.96,0,1.58-1.17,1.58-2.52Z"/>
        <path class="cls-5" d="m316.04,179.91h.05l1.02-2.79c.16-.44.06-.69-.19-.69h-.18c-.06,0-.08-.04-.08-.1v-.26c0-.06.04-.09.09-.09.08,0,.45.04.97.04.54,0,.77-.04.92-.04.06,0,.09.04.09.09v.26c0,.06-.02.1-.09.1h-.32c-.15,0-.33.1-.4.21-.15.24-1.75,4.26-1.92,4.66-.05.14-.14.16-.24.16-.09,0-.18-.09-.23-.24l-1.24-3.61h-.06l-1.55,3.64c-.06.15-.16.2-.26.2s-.16-.1-.22-.25l-1.65-4.45c-.09-.24-.23-.34-.53-.34h-.28c-.08,0-.09-.04-.09-.11v-.24c0-.06.01-.1.08-.1.18,0,.43.04,1.15.04.57,0,.87-.04,1.06-.04.08,0,.1.03.1.1v.25c0,.06-.01.1-.1.1h-.11c-.14,0-.23.11-.15.34l.99,3.35h.05l1.28-3.09c-.03-.2-.04-.3-.11-.4-.06-.09-.16-.13-.34-.13h-.19c-.06,0-.09-.03-.09-.09v-.26c0-.08.04-.1.11-.1.1,0,.5.04,1.13.04.58,0,.86-.04.96-.04.09,0,.11.02.11.09v.26c0,.06-.02.1-.09.1h-.26c-.13,0-.23.14-.18.33l.96,3.08Z"/>
        <path class="cls-5" d="m319.96,177.93c-.03.11-.04.32-.04.6,0,1.24.78,2.17,1.79,2.17.77,0,1.31-.44,1.53-.86.02-.05.08-.08.11-.06l.16.09s.06.05,0,.19c-.23.5-.88,1.37-2,1.37-.72,0-1.51-.21-1.98-.89-.44-.64-.55-1.11-.55-1.99,0-.49.13-1.34.79-2,.54-.55,1.17-.67,1.8-.67,1.45,0,1.85,1.36,1.85,1.85,0,.18-.15.2-.35.2h-3.11Zm2-.38c.24,0,.34-.06.34-.18,0-.29-.15-1.12-.97-1.12-.55,0-1.08.36-1.32,1.3h1.95Z"/>
        <path class="cls-5" d="m325.11,177.93c0-.64-.1-.77-.45-.96l-.24-.13c-.08-.03-.1-.04-.1-.09v-.08c0-.05.02-.08.1-.11l1.25-.64c.08-.04.13-.05.18-.05.08,0,.09.08.09.15l.06.89h.05c.38-.58.97-1.1,1.51-1.1.43,0,.64.26.64.55,0,.37-.3.62-.53.62-.14,0-.26-.05-.37-.1-.1-.06-.25-.1-.42-.1-.2,0-.53.13-.74.53-.08.14-.13.37-.13.4v2.62c0,.39.09.52.35.52h.59c.08,0,.09.04.09.11v.23c0,.08-.01.11-.06.11-.08,0-.65-.04-1.33-.04-.78,0-1.31.04-1.39.04-.05,0-.08-.02-.08-.13v-.21c0-.09.03-.11.14-.11h.49c.19,0,.28-.08.28-.24.01-.42.01-.86.01-1.51v-1.19Z"/>
      </g>
      <g>
        <path class="cls-5" d="m356.84,296.17c0-.29-.04-1.88-.06-2.07-.04-.27-.18-.31-.48-.31h-.62c-.06,0-.09-.01-.09-.08v-.3s.03-.06.08-.06c.15,0,.64.03,1.65.03.29,0,1.41-.03,1.67-.03,1.44,0,2.66.17,3.64,1.01.73.63,1.24,1.56,1.24,2.86s-.37,2.14-1.11,2.95c-1.08,1.19-2.62,1.19-3.49,1.19-.71,0-1.56-.03-2.06-.03-.98,0-1.42.03-1.58.03-.06,0-.08-.02-.08-.08v-.29s.03-.07.09-.07h.75c.21,0,.34-.09.36-.27.04-.24.08-2.76.08-3.63v-.84Zm1.03,1.09c0,.15,0,2.05.02,2.75,0,.22.04.4.19.63.18.23.63.36,1.19.36,1.14,0,2.08-.49,2.64-1.21.47-.58.82-1.5.82-2.52,0-.87-.38-1.88-.92-2.48-.58-.64-1.57-1.08-2.81-1.08-.25,0-.71,0-.9.11-.16.1-.2.28-.21.53,0,.47,0,1.94,0,2.12v.8Z"/>
        <path class="cls-5" d="m365.87,294.84c0-.66-.34-1.03-.74-1.04h-.46c-.06-.01-.07-.06-.07-.09v-.29s.01-.07.07-.07.15.01.31.01c.17.01.42.02.79.02s.62-.02.75-.02c.15,0,.23.04.32.15l2.35,3.05c.12.16,2.02,2.48,2.29,2.84h.04v-1.33c0-1-.01-1.55-.04-2.11,0-.44-.07-1.54-.13-1.73-.09-.28-.3-.44-.62-.44h-.36s-.07-.02-.07-.08v-.29s.02-.07.07-.07c.16,0,.52.03,1.23.03.67,0,.94-.03,1.09-.03.08,0,.09.03.09.08v.28s-.02.08-.07.08h-.3c-.3,0-.42.19-.44.62-.04.75-.04,1.86-.04,2.59v4.19c0,.16-.01.27-.06.27-.14,0-.24-.13-.27-.18l-1.37-1.73c-.79-.98-1.6-2.01-1.67-2.07-.12-.11-2.19-2.7-2.25-2.79h-.07v2.49c0,1.04.09,2.87.11,3.09.05.44.11.65.42.65h.34c.08,0,.09.03.09.1v.25c0,.07-.01.09-.09.09-.11,0-.79-.03-1.09-.03-.23,0-1.01.03-1.12.03-.04,0-.06-.02-.06-.08v-.29s.01-.07.07-.07h.38c.33,0,.45-.13.5-.68.02-.21.04-1.49.04-3.49v-1.91Z"/>
      </g>
    </g>
  </g>
</svg>