<?xml version="1.0" encoding="UTF-8"?>
<svg id="_レイヤー_2" data-name="レイヤー 2" xmlns="http://www.w3.org/2000/svg" xmlns:xlink="http://www.w3.org/1999/xlink" viewBox="0 0 1897.87 1578">
  <defs>
    <style>
      .cls-1 {
        letter-spacing: .05em;
      }

      .cls-2 {
        letter-spacing: -.07em;
      }

      .cls-3 {
        letter-spacing: .03em;
      }

      .cls-4 {
        letter-spacing: -.07em;
      }

      .cls-5 {
        letter-spacing: 0em;
      }

      .cls-6 {
        fill: #fff;
      }

      .cls-7 {
        letter-spacing: .04em;
      }

      .cls-8 {
        letter-spacing: -.04em;
      }

      .cls-9 {
        letter-spacing: .04em;
      }

      .cls-10 {
        letter-spacing: -.11em;
      }

      .cls-11 {
        letter-spacing: -.05em;
      }

      .cls-12 {
        letter-spacing: .04em;
      }

      .cls-13 {
        letter-spacing: .03em;
      }

      .cls-14 {
        letter-spacing: .04em;
      }

      .cls-15 {
        letter-spacing: .05em;
      }

      .cls-16 {
        letter-spacing: -.43em;
      }

      .cls-17 {
        letter-spacing: 0em;
      }

      .cls-18 {
        letter-spacing: 0em;
      }

      .cls-19 {
        letter-spacing: .02em;
      }

      .cls-20 {
        letter-spacing: .08em;
      }

      .cls-21 {
        letter-spacing: .04em;
      }

      .cls-22 {
        letter-spacing: -.04em;
      }

      .cls-23 {
        letter-spacing: -.43em;
      }

      .cls-24 {
        letter-spacing: .05em;
      }

      .cls-25 {
        letter-spacing: -.03em;
      }

      .cls-26 {
        letter-spacing: 0em;
      }

      .cls-27 {
        letter-spacing: .05em;
      }

      .cls-28 {
        letter-spacing: 0em;
      }

      .cls-29 {
        fill: #040000;
        font-family: YuGothic-Medium, 'Yu Gothic';
        font-size: 16px;
        font-weight: 500;
      }

      .cls-30 {
        letter-spacing: 0em;
      }

      .cls-31 {
        letter-spacing: .06em;
      }

      .cls-32 {
        letter-spacing: -.02em;
      }

      .cls-33 {
        letter-spacing: 0em;
      }

      .cls-34 {
        letter-spacing: .03em;
      }

      .cls-35 {
        letter-spacing: -.43em;
      }

      .cls-36 {
        letter-spacing: .05em;
      }

      .cls-37 {
        letter-spacing: .06em;
      }

      .cls-38 {
        letter-spacing: .03em;
      }

      .cls-39 {
        letter-spacing: -.04em;
      }

      .cls-40 {
        letter-spacing: .07em;
      }

      .cls-41 {
        letter-spacing: .06em;
      }

      .cls-42 {
        letter-spacing: -.02em;
      }

      .cls-43 {
        letter-spacing: -.03em;
      }

      .cls-44 {
        letter-spacing: 0em;
      }

      .cls-45 {
        letter-spacing: .04em;
      }

      .cls-46 {
        letter-spacing: .06em;
      }

      .cls-47 {
        letter-spacing: -.03em;
      }

      .cls-48 {
        letter-spacing: .03em;
      }

      .cls-49 {
        letter-spacing: .03em;
      }

      .cls-50 {
        letter-spacing: .05em;
      }

      .cls-51 {
        letter-spacing: -.08em;
      }

      .cls-52 {
        letter-spacing: .07em;
      }

      .cls-53 {
        letter-spacing: -.18em;
      }

      .cls-54 {
        letter-spacing: .06em;
      }

      .cls-55 {
        letter-spacing: .07em;
      }

      .cls-56 {
        letter-spacing: -.07em;
      }

      .cls-57 {
        letter-spacing: .07em;
      }

      .cls-58 {
        letter-spacing: 0em;
      }

      .cls-59 {
        letter-spacing: -.08em;
      }

      .cls-60 {
        letter-spacing: 0em;
      }

      .cls-61 {
        letter-spacing: .05em;
      }

      .cls-62 {
        letter-spacing: .07em;
      }

      .cls-63 {
        letter-spacing: .01em;
      }

      .cls-64 {
        letter-spacing: -.01em;
      }

      .cls-65 {
        letter-spacing: -.02em;
      }

      .cls-66 {
        letter-spacing: -.02em;
      }

      .cls-67 {
        letter-spacing: -.02em;
      }

      .cls-68 {
        letter-spacing: .05em;
      }

      .cls-69 {
        letter-spacing: .09em;
      }

      .cls-70 {
        letter-spacing: .06em;
      }

      .cls-71 {
        letter-spacing: -.05em;
      }

      .cls-72 {
        letter-spacing: .01em;
      }

      .cls-73 {
        letter-spacing: .05em;
      }

      .cls-74 {
        letter-spacing: -.11em;
      }

      .cls-75 {
        letter-spacing: -.01em;
      }

      .cls-76 {
        letter-spacing: -.11em;
      }

      .cls-77 {
        letter-spacing: -.01em;
      }

      .cls-78 {
        letter-spacing: -.12em;
      }

      .cls-79 {
        letter-spacing: 0em;
      }

      .cls-80 {
        letter-spacing: -.03em;
      }

      .cls-81 {
        letter-spacing: -.44em;
      }

      .cls-82 {
        letter-spacing: -.11em;
      }

      .cls-83 {
        letter-spacing: 0em;
      }

      .cls-84 {
        letter-spacing: -.11em;
      }

      .cls-85 {
        letter-spacing: .06em;
      }

      .cls-86 {
        letter-spacing: -.13em;
      }

      .cls-87 {
        letter-spacing: -.12em;
      }

      .cls-88 {
        letter-spacing: .05em;
      }

      .cls-89 {
        letter-spacing: .03em;
      }

      .cls-90 {
        letter-spacing: .03em;
      }

      .cls-91 {
        letter-spacing: 0em;
      }

      .cls-92 {
        letter-spacing: 0em;
      }

      .cls-93 {
        letter-spacing: -.05em;
      }

      .cls-94 {
        letter-spacing: -.13em;
      }

      .cls-95 {
        letter-spacing: 0em;
      }

      .cls-96 {
        letter-spacing: .03em;
      }

      .cls-97 {
        letter-spacing: -.04em;
      }

      .cls-98 {
        letter-spacing: .05em;
      }

      .cls-99 {
        letter-spacing: -.03em;
      }

      .cls-100 {
        letter-spacing: -.03em;
      }

      .cls-101 {
        letter-spacing: 0em;
      }

      .cls-102 {
        letter-spacing: .06em;
      }

      .cls-103 {
        letter-spacing: -.01em;
      }

      .cls-104 {
        letter-spacing: -.5em;
      }

      .cls-105 {
        letter-spacing: -.06em;
      }

      .cls-106 {
        letter-spacing: .06em;
      }

      .cls-107 {
        letter-spacing: -.17em;
      }

      .cls-108 {
        letter-spacing: .04em;
      }

      .cls-109 {
        letter-spacing: -.5em;
      }

      .cls-110 {
        letter-spacing: .02em;
      }

      .cls-111 {
        letter-spacing: -.04em;
      }

      .cls-112 {
        letter-spacing: 0em;
      }

      .cls-113 {
        letter-spacing: -.04em;
      }

      .cls-114 {
        letter-spacing: -.02em;
      }

      .cls-115 {
        letter-spacing: .02em;
      }

      .cls-116 {
        letter-spacing: .03em;
      }

      .cls-117 {
        clip-path: url(#clippath);
      }

      .cls-118 {
        letter-spacing: -.06em;
      }

      .cls-119 {
        letter-spacing: .06em;
      }

      .cls-120 {
        letter-spacing: .02em;
      }

      .cls-121 {
        letter-spacing: .02em;
      }

      .cls-122 {
        letter-spacing: -.04em;
      }

      .cls-123 {
        letter-spacing: 0em;
      }

      .cls-124 {
        letter-spacing: .09em;
      }

      .cls-125 {
        letter-spacing: -.03em;
      }

      .cls-126 {
        letter-spacing: 0em;
      }

      .cls-127 {
        letter-spacing: .03em;
      }

      .cls-128 {
        letter-spacing: -.49em;
      }

      .cls-129, .cls-130 {
        fill: none;
      }

      .cls-131 {
        letter-spacing: .04em;
      }

      .cls-132 {
        letter-spacing: -.07em;
      }

      .cls-133 {
        letter-spacing: -.07em;
      }

      .cls-134 {
        letter-spacing: 0em;
      }

      .cls-135 {
        letter-spacing: .06em;
      }

      .cls-136 {
        letter-spacing: -.44em;
      }

      .cls-137 {
        letter-spacing: -.03em;
      }

      .cls-138 {
        letter-spacing: 0em;
      }

      .cls-139 {
        letter-spacing: -.05em;
      }

      .cls-140 {
        letter-spacing: -.01em;
      }

      .cls-141 {
        letter-spacing: .06em;
      }

      .cls-142 {
        letter-spacing: .02em;
      }

      .cls-143 {
        letter-spacing: -.01em;
      }

      .cls-144 {
        letter-spacing: 0em;
      }

      .cls-145 {
        letter-spacing: 0em;
      }

      .cls-146 {
        letter-spacing: .02em;
      }

      .cls-130 {
        stroke: #231815;
        stroke-linecap: round;
        stroke-linejoin: round;
        stroke-width: .91px;
      }

      .cls-147 {
        letter-spacing: .04em;
      }

      .cls-148 {
        letter-spacing: 0em;
      }

      .cls-149 {
        letter-spacing: -.12em;
      }

      .cls-150 {
        letter-spacing: -.03em;
      }

      .cls-151 {
        letter-spacing: .01em;
      }

      .cls-152 {
        letter-spacing: .09em;
      }

      .cls-153 {
        letter-spacing: -.04em;
      }

      .cls-154 {
        letter-spacing: 0em;
      }

      .cls-155 {
        fill: #231815;
      }

      .cls-156 {
        letter-spacing: -.05em;
      }

      .cls-157 {
        letter-spacing: -.2em;
      }

      .cls-158 {
        letter-spacing: .02em;
      }

      .cls-159 {
        letter-spacing: .04em;
      }

      .cls-160 {
        letter-spacing: -.04em;
      }

      .cls-161 {
        letter-spacing: 0em;
      }

      .cls-162 {
        letter-spacing: -.06em;
      }

      .cls-163 {
        letter-spacing: -.02em;
      }

      .cls-164 {
        letter-spacing: .05em;
      }

      .cls-165 {
        letter-spacing: .04em;
      }

      .cls-166 {
        letter-spacing: .02em;
      }

      .cls-167 {
        letter-spacing: .06em;
      }

      .cls-168 {
        letter-spacing: -.13em;
      }

      .cls-169 {
        letter-spacing: .09em;
      }
    </style>
    <clipPath id="clippath">
      <rect class="cls-129" width="1897.87" height="1578"/>
    </clipPath>
  </defs>
  <g id="_レイヤー_1-2" data-name="レイヤー 1">
    <g class="cls-117">
      <line class="cls-130" x1="350.25" y1="307.78" x2="459.02" y2="307.78"/>
      <g>
        <path class="cls-155" d="m347.03,326.59v6.03h2.98l1.26-1.6c.71.72,1.21,1.29,1.49,1.7l-.26.43h-18.35l-.21-.53h5.45v-6.03h-4.3l-.19-.51h4.49v-4.88c1.52.04,2.28.23,2.28.55,0,.2-.35.41-1.04.64v3.68h5.15v-4.98c1.5.08,2.26.29,2.26.62,0,.2-.33.4-1,.6v3.77h2.04l1.15-1.51c.14.13.28.26.4.38.41.43.75.84,1.02,1.23l-.23.4h-4.39Zm-13.01,12.67c2.47-1.21,4.52-2.9,6.15-5.07,1.21.62,1.81,1.09,1.81,1.41,0,.17-.22.26-.66.26-.04,0-.21-.01-.51-.04-1.79,1.73-3.95,3.03-6.47,3.9l-.32-.45Zm11.75-12.67h-5.15v6.03h5.15v-6.03Zm-.77,7.62c2.23.78,3.99,1.63,5.28,2.53,1.01.74,1.51,1.37,1.51,1.89,0,.5-.25.75-.75.75-.23,0-.52-.22-.87-.66-1.22-1.42-3.04-2.78-5.47-4.09l.3-.43Z"/>
        <path class="cls-155" d="m360.42,322.46h12.8l.87-1c.87.65,1.3,1.09,1.3,1.3,0,.11-.07.21-.21.3l-.49.4v14.26c0,.71-.27,1.19-.81,1.43-.34.14-.8.23-1.36.28,0-.43-.28-.72-.85-.87-.44-.14-1.24-.29-2.41-.45v-.6c1.31.11,2.44.17,3.41.17.52,0,.79-.23.79-.7v-14.01h-13.22v16.52h-1.26v-17.76c.48.21.96.45,1.45.72Zm9.39,3.26l1.02-1.32c.51.47.97.95,1.36,1.45l-.23.4h-10.28l-.23-.53h8.37Zm-5.41,3.21h4.71l.81-.94c.79.67,1.19,1.06,1.19,1.19,0,.11-.07.22-.21.32l-.4.3v5.68h-1.21v-1.32h-5.13v1.62h-1.19v-7.45c.31.11.79.31,1.45.6Zm-.26.53v4.19h5.13v-4.19h-5.13Z"/>
        <path class="cls-155" d="m384.57,328.85h2.26l.75-.96c.82.71,1.23,1.16,1.23,1.36,0,.07-.06.14-.19.21l-.49.3v8.2h-1.19v-1.3h-2.6v2.3h-1.19v-8.32c-.67,1.19-1.42,2.31-2.26,3.36l-.43-.34c2.02-3.02,3.29-6.46,3.81-10.3h-3.11l-.17-.53h6.22l.98-1.36c.44.41.86.91,1.26,1.49l-.23.4h-3.53c-.35,1.8-.88,3.55-1.58,5.24l.26.15.06.02.15.08Zm-.23.53v6.75h2.6v-6.75h-2.6Zm12.8-6.05v6.62h.83l.92-1.45c.43.47.82.98,1.17,1.53l-.21.47h-2.66v8.98h-1.26v-8.98h-3.11c-.2,4.4-1.87,7.53-5.02,9.39l-.36-.43c2.6-1.94,3.98-4.93,4.15-8.96h-2.53l-.21-.55h2.77v-6.62h-1.83l-.23-.53h7.92l1.02-1.45c.5.5.94,1.01,1.32,1.55l-.26.43h-2.41Zm-1.28,0h-3.02v6.62h3.02v-6.62Z"/>
        <path class="cls-155" d="m411.94,332.87h-5.58l-.23-.55h5.9c.03-.47.04-.78.04-.94v-2.21c1.42.07,2.13.26,2.13.55,0,.17-.28.35-.85.55v1.13c0,.17-.02.45-.06.83h3.6l.79-.94c.88.65,1.32,1.06,1.32,1.23,0,.11-.06.2-.19.26l-.53.32v4.3c0,.35.11.58.32.66.14.04.51.06,1.11.06,1.15,0,1.8-.19,1.96-.58.1-.3.25-1.39.45-3.28l.55.26c0,1.53.07,2.48.21,2.85.11.28.37.43.77.43-.01.61-.25.99-.7,1.15-.44.16-1.46.23-3.04.23-1.43,0-2.28-.13-2.53-.38-.2-.18-.3-.52-.3-1v-5.07h-3.81c-.53,3.68-3.26,6.02-8.2,7.03l-.28-.55c4.2-1.11,6.59-3.22,7.17-6.34Zm1.41-8.9v-3.26c1.41.03,2.11.21,2.11.53,0,.18-.31.38-.92.6v2.13h6.41l.81-1.02c.99.99,1.49,1.6,1.49,1.81,0,.11-.11.19-.32.23l-.77.13c-.61.51-1.3.99-2.06,1.43l-.38-.38c.57-.64.99-1.2,1.26-1.68h-4.71v3.15c0,.34.11.54.32.6.26.07.87.11,1.83.11,1.42,0,2.23-.13,2.43-.38.2-.3.33-.89.4-1.77l.55.17c0,.78.04,1.29.13,1.53.1.2.28.31.55.34-.01.55-.28.9-.79,1.04-.37.1-1.47.15-3.3.15-1.49,0-2.43-.08-2.81-.23-.37-.16-.55-.54-.55-1.15v-3.56h-7.77v.15c-.01,1.02-.19,1.85-.51,2.49-.28.58-.63.87-1.04.87-.51,0-.77-.24-.77-.72,0-.17.11-.37.32-.6.78-.79,1.22-1.99,1.32-3.58l.51.11c.07.24.11.5.13.77h6.13Zm-8.13,6.77c2.78-1.21,4.75-3.12,5.9-5.73,1.23.33,1.85.64,1.85.94,0,.18-.34.31-1.02.36-1.36,2.33-3.52,3.95-6.47,4.88l-.26-.45Z"/>
        <path class="cls-155" d="m430.27,330c-.68,2.13-1.49,3.97-2.43,5.54l-.43-.3c1.21-2.53,2.14-5.6,2.81-9.22h-2.34l-.15-.53h2.53v-4.68c1.36.04,2.04.23,2.04.57,0,.19-.3.38-.89.58v3.53h.68l.81-1.26c.37.38.74.85,1.11,1.41l-.21.38h-2.38v2.21c1.62.81,2.43,1.65,2.43,2.53,0,.48-.24.72-.72.72-.27,0-.45-.17-.53-.51-.18-.77-.57-1.46-1.17-2.09v10.88h-1.15v-9.77Zm5.28-7.6h2.15l.75-1.02c.72.65,1.09,1.05,1.09,1.19,0,.09-.06.16-.17.23l-.36.26v8.24h-1.13v-1.19h-2.51v5.83c.77-.26,1.67-.63,2.73-1.13-.28-.7-.73-1.46-1.34-2.28l.32-.32c1.8,1.41,2.7,2.7,2.7,3.9,0,.57-.23.85-.7.85-.33,0-.53-.29-.62-.87-.01-.2-.07-.45-.17-.75-1.33.88-2.77,1.67-4.32,2.38-.07.55-.18.83-.34.83-.27,0-.61-.59-1.02-1.77.74-.2,1.26-.35,1.58-.45v-14.6c.79.37,1.26.59,1.38.66Zm-.19.51v2.94h2.51v-2.94h-2.51Zm0,6.69h2.51v-3.24h-2.51v3.24Zm8.9-.21h1.04l.85-1.45c.33.4.69.93,1.09,1.6l-.23.36h-2.87c-.06.27-.17.68-.34,1.23.79.1,1.19.26,1.19.47,0,.16-.24.33-.72.53v5.73c0,.34.26.51.79.51.43,0,.69-.19.79-.57.13-.64.23-1.62.3-2.94l.51.23c0,1.38.06,2.24.17,2.6.1.34.3.51.62.51-.01.58-.21.94-.6,1.06-.33.16-.88.23-1.66.23-.92,0-1.49-.09-1.7-.28-.26-.2-.38-.58-.38-1.15v-5c-1.15,2.81-3.05,5.05-5.71,6.73l-.36-.43c3.02-2.29,5-5.44,5.92-9.47h-3.45l-.21-.51h1.53v-6.47h-.77l-.23-.51h5.09l.92-1.34c.48.5.89.99,1.23,1.47l-.19.38h-1.96c-.06,2.61-.27,4.77-.64,6.47Zm-1.19,0c.41-2.11.62-4.27.64-6.47h-1.79v6.47h1.15Z"/>
        <path class="cls-155" d="m456.78,335.79c-.33.33-.62.64-.89.94l-1.13-.45c1.08-1.12,2.07-2.29,2.98-3.51h-5.85l-.19-.51h6.45l.08-.13c.54-.74,1.01-1.48,1.41-2.21,1.11.33,1.66.6,1.66.83,0,.18-.31.29-.94.32-.24.41-.49.81-.75,1.19h8.28l1.11-1.32c.54.43,1.04.89,1.51,1.41l-.23.43h-4.36c-.68,1.35-1.58,2.58-2.68,3.68.06.03.16.06.32.11.2.04.33.07.4.09,3.62.87,5.43,1.66,5.43,2.38,0,.44-.2.66-.6.66-.16,0-.52-.14-1.09-.43-1.29-.67-3.04-1.34-5.24-2.02-2,1.63-5.37,2.48-10.09,2.56l-.26-.53c4.16-.26,7.18-1.06,9.07-2.41-1.28-.38-2.75-.74-4.41-1.06Zm-1.47-10.45h2.87v-2.49h-6.07l-.26-.51h15.84l1.13-1.41c.55.44,1.11.95,1.66,1.53l-.21.38h-6.64v2.49h3.11l.77-.94c.87.67,1.3,1.1,1.3,1.3,0,.07-.07.16-.21.28l-.51.28v4.43h-1.17v-.96h-11.82v1.17h-1.19v-6.11c.38.11.85.3,1.41.55Zm-.21.53v3.32h3.09v-3.32h-3.09Zm2.06,9.45c1.66.23,3.26.51,4.79.85.99-1.01,1.82-2.14,2.49-3.41h-5.24c-.64.91-1.32,1.76-2.04,2.55Zm2.21-9.98h3.09v-2.49h-3.09v2.49Zm0,.53v3.32h3.09v-3.32h-3.09Zm7.54,3.32v-3.32h-3.28v3.32h3.28Z"/>
      </g>
      <g>
        <path class="cls-6" d="m1235.17,779.93l-2.89,7.1c-.2.47-.29.92-.29,1.36,0,.16.05.5.16,1.02.14.77.22,1.49.22,2.16,0,.85-.29,1.28-.88,1.28-.45,0-.67-.24-.67-.71,0-.01.02-.13.06-.35.04-.31.07-.58.1-.79.08-.51.12-.98.12-1.42,0-.81-.2-1.36-.61-1.65-.21-.16-.6-.28-1.16-.37v-.53c.33.04.58.06.77.06.48,0,.9-.26,1.24-.77,1.01-1.55,2.13-3.77,3.36-6.69l.49.29Zm-5.29-2.12c1.89.84,2.83,1.72,2.83,2.65,0,.52-.25.79-.75.79-.3,0-.5-.22-.59-.65-.21-.85-.79-1.67-1.73-2.46l.24-.33Zm10.73,2.95v.43c0,2.2.47,4.19,1.4,5.98,1.02,2.01,2.63,3.72,4.84,5.13-.39.3-.73.68-1,1.14-1.94-1.49-3.37-3.28-4.29-5.37-.49-1.11-.85-2.39-1.1-3.81-.25,1.85-.77,3.47-1.57,4.88-1.11,1.98-2.85,3.53-5.21,4.64l-.28-.41c2.02-1.19,3.55-2.79,4.6-4.8,1-1.99,1.49-4.38,1.49-7.18v-.63h-2.01c-.76,1.67-1.64,3.02-2.65,4.05l-.37-.31c1.53-2.25,2.58-4.93,3.13-8.02,1.27.22,1.91.47,1.91.75,0,.18-.29.36-.88.53-.29.96-.58,1.8-.88,2.54h6.74l.77-1.06c.88.85,1.32,1.35,1.32,1.49,0,.12-.07.21-.22.28l-.53.26c-.73,1.36-1.57,2.61-2.5,3.74l-.43-.29c.64-1.06,1.21-2.37,1.69-3.93h-3.95Z"/>
        <path class="cls-6" d="m1261.65,787.85h-3.4v1.69h-1.16v-7.04h-3.5v9.08h10.36l1.1-1.36c.28.22.76.69,1.46,1.42l-.24.43h-12.68v1.73h-1.18v-11.31h-2.79l-.2-.47h2.99v-4.82c1.35.04,2.03.22,2.03.53,0,.17-.28.35-.85.53v3.76h3.5v-5.35c1.36.07,2.04.24,2.04.53,0,.16-.29.35-.88.57v4.25h3.4v-5.37c1.35.07,2.03.24,2.03.53,0,.17-.29.35-.87.55v4.29h1.91l1.02-1.36.35.35c.32.29.65.66,1,1.1l-.22.37h-4.07v6.92h-1.16v-1.57Zm-3.4-.47h3.4v-4.88h-3.4v4.88Z"/>
        <path class="cls-6" d="m1273.45,781.88c.67.13,1,.29,1,.47,0,.16-.26.31-.77.47v10.99h-1.18v-10.18c-.76,1.35-1.66,2.62-2.69,3.81l-.45-.29c2.21-3.13,3.85-6.76,4.92-10.89,1.25.35,1.87.69,1.87,1,0,.17-.29.28-.88.33-.55,1.52-1.15,2.95-1.81,4.29Zm6.78,1.65c.46,2.18,1.13,3.92,2.03,5.23.68,1.01,1.42,1.8,2.2,2.36.16.13.28.2.37.2.37,0,.69-1.31.96-3.93l.53.24c-.09,1.19-.14,2.11-.14,2.75,0,1.17.26,1.81.79,1.93-.14.66-.48.98-1.02.98-.8,0-1.77-.56-2.91-1.67-2.02-1.94-3.34-4.59-3.97-7.94l-4.34.51-.29-.49,4.54-.55c-.24-1.52-.35-3.26-.35-5.23v-1.2c1.27.03,1.91.2,1.91.51,0,.16-.25.33-.75.51v.26c0,1.87.11,3.55.33,5.01l4.5-.51.83-1.42c.07.05.13.1.2.16.42.34.83.72,1.24,1.14l-.16.39-6.49.77Zm1.2-5.8c1.01.34,1.8.77,2.38,1.28.47.43.71.84.71,1.22,0,.52-.24.79-.71.79-.34,0-.58-.24-.73-.71-.25-.76-.87-1.49-1.87-2.18l.22-.39Z"/>
        <path class="cls-6" d="m1293.18,782.01c.66.11.98.26.98.47,0,.16-.26.33-.77.53v10.79h-1.16v-10.03c-.8,1.34-1.65,2.56-2.56,3.66l-.37-.31c2.03-2.96,3.57-6.57,4.62-10.83,1.26.34,1.89.65,1.89.92,0,.17-.29.3-.88.39-.49,1.53-1.07,3-1.75,4.4Zm7.88,4.72v5.54h3.85l.98-1.44c.45.41.9.92,1.36,1.53l-.22.39h-12.41l-.22-.49h5.47v-5.54h-4.23l-.24-.49h4.46v-4.68h-4.78l-.22-.47h9.52l.94-1.34c.54.51.96.99,1.28,1.44l-.2.37h-5.37v4.68h2.75l.9-1.26c.45.41.86.86,1.24,1.36l-.2.39h-4.7Zm-2.83-10.4c2.15,1.09,3.22,2.14,3.22,3.17,0,.51-.23.77-.69.77-.34,0-.58-.26-.73-.77-.33-.96-1.04-1.87-2.12-2.73l.31-.43Z"/>
        <path class="cls-6" d="m1318.02,779.46v-3.13c1.34.01,2.01.17,2.01.47,0,.17-.29.35-.87.53v2.12h5.96l.81-1c1,.89,1.49,1.49,1.49,1.79,0,.12-.1.19-.29.22l-.65.1c-.5.67-1.11,1.33-1.83,1.99l-.37-.28c.39-.73.7-1.51.9-2.34h-12.8v.39c0,.93-.16,1.69-.49,2.28-.26.52-.58.79-.96.79-.2,0-.37-.08-.53-.26-.16-.14-.24-.29-.24-.45,0-.22.12-.45.37-.69.7-.73,1.09-1.85,1.18-3.36l.51.06c.07.3.1.56.12.77h5.68Zm-.94,4.29c-1.95.47-3.85.85-5.68,1.14l-.24-.47c4.38-.84,7.91-1.99,10.6-3.46.98.55,1.47.95,1.47,1.2,0,.1-.14.16-.43.16-.18,0-.41-.02-.67-.06-1.31.47-2.6.88-3.87,1.22v3.62l6.15-.85.94-1.47c.54.34,1.11.77,1.71,1.28l-.22.43-8.59,1.16v3.81c0,.34.11.55.33.63.24.09,1.22.14,2.95.14s2.68-.06,3.01-.18c.47-.17.82-1.21,1.04-3.11l.49.24c-.01.26-.02.55-.02.87,0,.89.08,1.46.24,1.69.08.14.28.22.59.22-.05.69-.4,1.08-1.04,1.16-.67.12-2,.18-3.99.18-2.46,0-3.89-.1-4.29-.29-.33-.2-.49-.62-.49-1.26v-3.91l-6.63.88-.26-.49,6.88-.92v-3.54Z"/>
        <path class="cls-6" d="m1333.71,782.03v6.68c.94-.29,1.89-.6,2.83-.92l.06.49c-1.85.93-3.7,1.73-5.56,2.4-.07.45-.18.67-.35.67-.29,0-.57-.56-.85-1.69,1.28-.26,2.21-.47,2.79-.63v-7h-2.56l-.16-.51h2.71v-5.03c1.27.07,1.91.23,1.91.49,0,.14-.28.33-.83.55v3.99h.94l.87-1.26c.47.5.85.95,1.14,1.36l-.24.41h-2.71Zm4.62.98v8.16c0,.34.11.56.33.67.27.12,1.38.18,3.32.18,2.4,0,3.7-.16,3.91-.47.29-.42.51-1.44.67-3.05l.51.18c-.03.88-.04,1.39-.04,1.53,0,1.05.24,1.57.71,1.55-.04.59-.32.96-.85,1.1-.62.16-2.21.24-4.8.24s-4.01-.12-4.4-.37c-.34-.26-.51-.77-.51-1.53v-7.83l-2.04.65-.31-.47,2.36-.77v-5.19c1.25.03,1.87.17,1.87.43,0,.16-.24.35-.73.57v3.83l2.63-.85v-5.31c1.26.01,1.89.16,1.89.45,0,.17-.27.36-.81.57v3.95l2.62-.85.71-1.02c.84.58,1.26.96,1.26,1.14,0,.09-.05.16-.14.22l-.49.37v6.02c0,1.05-.6,1.56-1.79,1.53-.03-.41-.18-.67-.47-.81-.29-.12-.7-.22-1.22-.31v-.49c.6.08,1.16.12,1.67.12.47,0,.71-.2.71-.61v-5.64l-2.85.92v7.88h-1.08v-7.55l-2.63.85Z"/>
        <path class="cls-6" d="m1358.26,782.13c.29.24.43.62.43,1.16,0,1.47-.59,3.03-1.77,4.7-.56.75-1.21,1.34-1.95,1.77-.3.17-.57.26-.81.26-.38,0-.73-.17-1.04-.51-.56-.52-.84-1.28-.84-2.26,0-1.47.64-2.78,1.93-3.93,1.32-1.17,2.88-1.75,4.68-1.75,1.42,0,2.6.32,3.56.96,1.42.93,2.12,2.25,2.12,3.97s-.68,3.14-2.04,4.07c-1.21.83-2.81,1.38-4.82,1.65l-.02-.29c3.83-.85,5.74-2.65,5.74-5.39,0-1.42-.48-2.53-1.44-3.34-.87-.72-1.91-1.08-3.13-1.08-.25,0-.45,0-.61.02Zm-3.36,6.88s.08,0,.14-.02c.72-.59,1.36-1.53,1.91-2.83.48-1.11.73-2.31.73-3.6,0-.2,0-.3.02-.31-.72.09-1.39.37-2,.83-1.6,1.1-2.4,2.54-2.4,4.31,0,.79.18,1.36.55,1.71.17.13.34.2.51.2.14,0,.33-.09.55-.28Z"/>
        <path class="cls-6" d="m1376.25,780.38c-.64,1.51-1.35,2.86-2.12,4.07v9.36h-1.1v-7.81c-.97,1.18-2.1,2.31-3.4,3.4l-.35-.45c1.44-1.34,2.69-2.86,3.76-4.58v-1.59c.05.01.21.09.47.22.03,0,.07.01.12.04.04.03.08.05.12.06.42-.81.83-1.72,1.22-2.71h-5.05l-.18-.49h5.41c.42-1.14.79-2.35,1.12-3.64,1.26.35,1.89.66,1.89.92,0,.18-.31.32-.92.41-.24.79-.5,1.55-.79,2.3h7.79l1.06-1.51c.49.42,1,.96,1.55,1.61l-.22.39h-10.36Zm4.9,6.02v5.96h3.42l1.14-1.42.35.35c.38.37.72.74,1.02,1.12l-.22.43h-11.82l-.18-.49h5.11v-5.96h-3.95l-.22-.47h4.17v-4.46c1.32.08,1.99.26,1.99.55,0,.17-.28.35-.83.55v3.36h2.4l.98-1.34c.51.46.96.93,1.36,1.42l-.26.39h-4.48Z"/>
        <path class="cls-6" d="m1393.32,787.42c.09.55-.12.8-.63.75-.14-.04-.25-.14-.33-.29-.3-.69-.41-1.49-.33-2.4.07-.73.33-1.8.81-3.19.17-.47.28-.87.31-1.18.03-.39-.07-.81-.27-1.24l.18-.2c.84.66,1.23,1.25,1.18,1.79-.01.18-.12.46-.33.83-.33.69-.55,1.31-.67,1.85.26-.66.71-1.05,1.34-1.2,2.07-.43,3.07.96,3.01,4.19-.05,1.66-.57,3.02-1.55,4.07-.81.89-2.26,1.5-4.35,1.83l-.2-.27c2.14-.62,3.52-1.46,4.15-2.52.54-.9.83-1.99.87-3.24.07-2.52-.53-3.66-1.79-3.42-.58.08-1,.42-1.28,1.02-.22.46-.36.85-.41,1.16.01.63.12,1.19.31,1.67Z"/>
        <path class="cls-6" d="m1411.23,780.03v-3.79c1.34.04,2,.22,2,.53,0,.18-.29.38-.88.59v2.67h5.29l1.08-1.4c.45.39.93.9,1.46,1.51l-.18.37h-8.67c0,1.47-.08,2.72-.24,3.76h5.74l.77-.96c.83.64,1.24,1.06,1.24,1.24,0,.09-.06.18-.18.26l-.51.29c-.09,4.4-.56,7.01-1.4,7.83-.46.45-1.11.66-1.95.65-.01-.39-.31-.69-.88-.88-.37-.13-1.18-.31-2.44-.55v-.53c1.39.2,2.52.29,3.4.29.8,0,1.29-.32,1.46-.96.41-1.36.62-3.43.65-6.19h-5.98c-.31,2.06-.94,3.79-1.89,5.21-1.06,1.57-2.67,2.86-4.84,3.87l-.28-.49c2.67-1.59,4.43-3.68,5.27-6.27.42-1.3.67-2.93.77-4.9v-.35l.02-.33c.01-.31.02-.64.02-.96h-6.35l-.16-.49h7.65Z"/>
        <path class="cls-6" d="m1427.71,782.66c.45-.89.66-1.48.63-1.77-.04-.29-.31-.55-.83-.79l.06-.18c.39-.04.64-.06.73-.06.76,0,1.16.2,1.2.59.03.25-.24.96-.81,2.12.46-.05.78-.15.96-.29.31-.16.53-.23.65-.22.21.01.4.08.57.2.16.09.24.2.24.31,0,.18-.16.34-.49.47-.7.22-1.48.35-2.36.37-.49.79-.99,1.59-1.51,2.42.39-.3.83-.45,1.3-.45.83,0,1.28.59,1.36,1.77,1.44-.88,2.72-1.59,3.83-2.14.24-.14.35-.29.35-.43,0-.16-.17-.32-.51-.49l.2-.12c1.1.24,1.64.61,1.63,1.12,0,.17-.23.35-.69.53-1.64.73-3.22,1.5-4.76,2.3.03.47.04.93.04,1.38,0,.29-.07.53-.2.73-.17.21-.34.31-.51.31-.31,0-.45-.28-.41-.83.04-.41.05-.72.04-.94-.88.71-1.32,1.4-1.32,2.06s.82.93,2.46.79c.87-.05,1.63-.19,2.28-.41.18-.07.33-.1.45-.1.2,0,.36.05.49.14.25.2.37.39.37.57,0,.43-1,.68-3.01.73-2.53.05-3.79-.5-3.79-1.67,0-.94.7-1.93,2.1-2.97,0-1.15-.2-1.74-.59-1.75-.52-.05-1.15.49-1.89,1.63-.14.25-.28.37-.39.37-.13,0-.24-.05-.32-.16-.2-.16-.31-.38-.33-.67-.03-.18.2-.54.67-1.06.76-.9,1.34-1.8,1.75-2.69-.09,0-.2,0-.32-.02-1.11-.1-1.93-.73-2.46-1.87l.26-.14c.43.73,1.15,1.15,2.16,1.26.28.03.51.04.71.04Z"/>
        <path class="cls-6" d="m1448.66,780.6h5.56l1-1.3c.54.48.98.95,1.32,1.4l-.2.41h-7.67c.51,2.04,1.26,3.74,2.24,5.09,1.17-1.23,2.18-2.52,3.05-3.87.96.64,1.43,1.1,1.43,1.38,0,.14-.14.22-.43.22-.12,0-.28-.02-.49-.06-.94.97-2.02,1.89-3.22,2.77,1.29,1.51,3.15,2.77,5.58,3.77-.39.33-.72.72-.98,1.18-2.33-1.19-4.08-2.61-5.23-4.27-.89-1.27-1.55-2.76-1.97-4.46v9.12c0,1.18-.71,1.77-2.14,1.77-.03-.46-.28-.77-.75-.94-.33-.12-.98-.26-1.95-.41v-.53c1.17.12,2.16.18,2.97.18.46,0,.69-.22.69-.65v-10.28h-7.65l-.16-.51h7.81v-4.33c1.34.01,2,.18,2,.51,0,.17-.27.35-.83.55v3.26Zm-1.93,5.72l.2.51c-1.95,1.57-3.81,2.87-5.58,3.89,0,.58-.09.87-.28.87-.29,0-.67-.55-1.14-1.65,2.28-.93,4.55-2.14,6.8-3.62Zm-4.97-4.03c1.18.54,2.07,1.15,2.67,1.85.45.5.67.95.67,1.36,0,.51-.24.77-.71.77-.34,0-.55-.18-.63-.53-.37-1.19-1.12-2.22-2.26-3.09l.26-.35Zm8.85-5.49c.93.34,1.64.75,2.12,1.22.5.46.75.9.75,1.32,0,.49-.24.73-.71.73-.35,0-.59-.24-.71-.71-.16-.73-.71-1.47-1.67-2.2l.22-.35Z"/>
        <path class="cls-6" d="m1468.78,783.19c.3-.9.45-1.55.45-1.95s-.28-.77-.85-1.1l.28-.16c1.23.13,1.85.51,1.85,1.14,0,.37-.22,1.09-.67,2.18,1.02.12,1.8.39,2.32.81.98.71,1.47,1.72,1.47,3.05,0,1.39-.56,2.52-1.67,3.4-1.09.89-2.79,1.36-5.11,1.42l-.12-.26c1.59-.22,2.88-.65,3.89-1.28,1.26-.76,1.89-1.85,1.89-3.26,0-1.14-.35-2-1.06-2.58-.37-.35-.97-.62-1.81-.79-.56,1.4-1.19,2.52-1.88,3.35-.69.83-1.03,1.25-1.01,1.25.04.05.1.1.18.16.32.25.49.46.51.63,0,.34-.14.51-.41.51-.17,0-.32-.07-.45-.2-.21-.21-.37-.38-.49-.51-1.08.97-2.03,1.46-2.85,1.46-.37,0-.71-.09-1.02-.26-.51-.34-.77-.9-.77-1.67,0-1.1.56-2.18,1.69-3.22.41-.38.77-.68,1.08-.9-.37-1.73-.76-2.79-1.18-3.17l.2-.22c.91.3,1.52,1.29,1.85,2.97,1.21-.54,2.44-.81,3.7-.81Zm-3.07,5.35c-.5-.79-.94-1.95-1.34-3.48-1.25.9-1.91,2.11-1.99,3.62.03.76.41,1.14,1.16,1.14.58,0,1.3-.43,2.16-1.28Zm2.87-4.78c-1.23-.03-2.36.24-3.38.81.22,1.19.6,2.27,1.12,3.22.22-.25.53-.69.92-1.32.39-.63.83-1.53,1.35-2.71Z"/>
        <path class="cls-6" d="m1479.61,782.62c.34.33.72.47,1.14.43.21-.01,1.97-.46,5.27-1.36,2.42-.64,3.79-.98,4.09-1,.33-.03.65.05.96.22.21.11.31.25.31.43,0,.28-.22.43-.67.47-.13.01-.32.01-.57,0-.45-.03-.79-.03-1.04,0-.96.09-1.72.54-2.28,1.36-1.43,1.95-2.08,3.65-1.95,5.09.09.9.38,1.55.86,1.94.48.39,1.16.58,2.04.58.28,0,.59-.03.94-.1.18-.04.35-.06.49-.06.28,0,.52.09.75.26.21.14.32.29.32.43,0,.35-.59.53-1.77.53-2.81,0-4.31-1.14-4.5-3.42-.17-1.87.86-3.98,3.09-6.31-2.35.6-4.25,1.24-5.7,1.91-.34.17-.58.26-.71.26-.62.05-1.03-.42-1.24-1.42l.18-.24Z"/>
      </g>
      <g>
        <path class="cls-155" d="m305.91,263.64h8.02c3.05,0,5.3.65,6.75,1.95,1.2,1.07,1.79,2.56,1.79,4.46,0,1.75-.56,3.21-1.67,4.36-1,1.04-2.39,1.73-4.17,2.08l6.44,12.9h-1.66l-6.22-12.7c-.62.05-1.11.07-1.47.07h-6.37v12.63h-1.44v-25.75Zm1.44,1.26v10.63h6.27c4.9,0,7.35-1.82,7.35-5.45,0-1.87-.63-3.22-1.88-4.05-1.15-.75-2.91-1.13-5.26-1.13h-6.48Z"/>
        <path class="cls-155" d="m347.63,263.64v1.26h-13.89v10.13h10.49v1.26h-10.49v11.83h14.13v1.26h-15.57v-25.75h15.33Z"/>
        <path class="cls-155" d="m371.57,268.92l-1.44.56c-1.13-3.34-3.3-5.01-6.51-5.01-2.03,0-3.61.53-4.73,1.59-.98.92-1.47,2.12-1.47,3.59,0,1.65.53,2.91,1.59,3.78.91.74,2.4,1.36,4.48,1.86l.87.21c3.25.77,5.43,1.82,6.56,3.14.85,1,1.28,2.42,1.28,4.24,0,2.24-.84,4-2.53,5.28-1.5,1.13-3.48,1.69-5.91,1.69s-4.25-.61-5.81-1.83c-1.37-1.07-2.37-2.55-3.01-4.44l1.47-.6c.52,1.94,1.53,3.39,3.02,4.36,1.23.81,2.67,1.21,4.32,1.21,2.42,0,4.23-.59,5.43-1.78.98-.97,1.47-2.24,1.47-3.83,0-1.73-.51-3.04-1.54-3.91-.99-.85-2.7-1.57-5.13-2.14l-.73-.17c-2.92-.71-4.92-1.69-6.02-2.94-.89-1.01-1.33-2.39-1.33-4.14,0-1.89.73-3.46,2.2-4.7,1.4-1.18,3.24-1.78,5.5-1.78,3.81,0,6.45,1.91,7.95,5.74Z"/>
        <path class="cls-155" d="m397.3,263.64v1.26h-13.89v10.13h10.49v1.26h-10.49v11.83h14.13v1.26h-15.57v-25.75h15.33Z"/>
        <path class="cls-155" d="m414.62,263.64l8.78,25.75h-1.57l-2.99-8.92h-10.39l-3.01,8.92h-1.54l8.82-25.75h1.9Zm3.81,15.6l-2.44-7.35c-.67-1.96-1.41-4.3-2.2-7.02h-.26c-.59,2.11-1.33,4.44-2.2,6.99l-2.48,7.38h9.59Z"/>
        <path class="cls-155" d="m432.19,263.64h8.02c3.05,0,5.3.65,6.75,1.95,1.2,1.07,1.79,2.56,1.79,4.46,0,1.75-.56,3.21-1.67,4.36-1,1.04-2.39,1.73-4.17,2.08l6.44,12.9h-1.66l-6.22-12.7c-.62.05-1.11.07-1.47.07h-6.37v12.63h-1.44v-25.75Zm1.44,1.26v10.63h6.27c4.9,0,7.35-1.82,7.35-5.45,0-1.87-.63-3.22-1.88-4.05-1.15-.75-2.91-1.13-5.26-1.13h-6.48Z"/>
        <path class="cls-155" d="m475.7,270.01l-1.44.51c-1.12-4.03-3.57-6.05-7.35-6.05-2.73,0-4.91,1.19-6.53,3.55-1.48,2.17-2.22,4.98-2.22,8.44,0,3.98.95,7.08,2.85,9.31,1.57,1.85,3.54,2.77,5.9,2.77,3.95,0,6.47-2.08,7.55-6.24l1.44.67c-1.53,4.58-4.52,6.87-8.99,6.87-3.14,0-5.69-1.33-7.62-3.98-1.78-2.43-2.67-5.55-2.67-9.37,0-4.35,1.15-7.78,3.44-10.27,1.87-2.04,4.15-3.06,6.85-3.06,2.27,0,4.19.68,5.76,2.03,1.36,1.17,2.36,2.77,3.02,4.8Z"/>
        <path class="cls-155" d="m502.88,263.64v25.75h-1.44v-12.97h-14.94v12.97h-1.44v-25.75h1.44v11.52h14.94v-11.52h1.44Z"/>
      </g>
      <g>
        <path class="cls-155" d="m393.59,1045.42h3.53l1.17-1.5c1.29,1.11,1.93,1.82,1.93,2.13,0,.11-.1.22-.3.33l-.77.47v12.82h-1.86v-2.03h-4.06v3.6h-1.86v-13.02c-1.04,1.86-2.22,3.62-3.53,5.26l-.67-.53c3.15-4.73,5.14-10.1,5.96-16.12h-4.86l-.27-.83h9.72l1.53-2.13c.69.64,1.34,1.42,1.96,2.33l-.37.63h-5.53c-.56,2.82-1.38,5.55-2.46,8.19l.4.23.1.03.23.13Zm-.37.83v10.56h4.06v-10.56h-4.06Zm20.01-9.46v10.36h1.3l1.43-2.26c.67.73,1.28,1.53,1.83,2.4l-.33.73h-4.16v14.05h-1.96v-14.05h-4.86c-.31,6.88-2.93,11.78-7.86,14.68l-.57-.67c4.06-3.04,6.23-7.71,6.49-14.02h-3.96l-.33-.87h4.33v-10.36h-2.86l-.37-.83h12.39l1.6-2.26c.78.78,1.46,1.59,2.06,2.43l-.4.67h-3.76Zm-2,0h-4.73v10.36h4.73v-10.36Z"/>
        <path class="cls-155" d="m433.68,1051.72h-8.72l-.37-.87h9.22c.04-.73.07-1.22.07-1.47v-3.46c2.22.11,3.33.4,3.33.87,0,.27-.44.56-1.33.87v1.76c0,.27-.03.7-.1,1.3h5.63l1.23-1.47c1.38,1.02,2.06,1.67,2.06,1.93,0,.18-.1.31-.3.4l-.83.5v6.73c0,.56.17.9.5,1.03.22.07.8.1,1.73.1,1.8,0,2.82-.3,3.06-.9.16-.47.39-2.18.7-5.13l.87.4c0,2.4.11,3.88.33,4.46.18.44.58.67,1.2.67-.02.95-.39,1.55-1.1,1.8-.69.24-2.28.37-4.76.37-2.24,0-3.56-.2-3.96-.6-.31-.29-.47-.81-.47-1.56v-7.92h-5.96c-.82,5.75-5.09,9.41-12.82,10.99l-.43-.87c6.57-1.73,10.31-5.04,11.22-9.92Zm2.2-13.92v-5.09c2.2.04,3.3.32,3.3.83,0,.29-.48.6-1.43.93v3.33h10.02l1.27-1.6c1.55,1.55,2.33,2.5,2.33,2.83,0,.18-.17.3-.5.37l-1.2.2c-.95.8-2.03,1.54-3.23,2.23l-.6-.6c.89-1,1.54-1.88,1.96-2.63h-7.36v4.93c0,.53.17.84.5.93.4.11,1.35.17,2.86.17,2.22,0,3.48-.2,3.8-.6.31-.47.52-1.39.63-2.76l.87.27c0,1.22.07,2.02.2,2.4.15.31.44.49.87.53-.02.87-.43,1.41-1.23,1.63-.58.16-2.3.23-5.16.23-2.33,0-3.8-.12-4.4-.37-.58-.24-.87-.84-.87-1.8v-5.56h-12.15v.23c-.02,1.6-.29,2.9-.8,3.9-.44.91-.99,1.37-1.63,1.37-.8,0-1.2-.38-1.2-1.13,0-.27.17-.58.5-.93,1.22-1.24,1.91-3.11,2.06-5.59l.8.17c.11.38.18.78.2,1.2h9.59Zm-12.72,10.59c4.35-1.89,7.43-4.87,9.22-8.96,1.93.51,2.9,1,2.9,1.47,0,.29-.53.48-1.6.57-2.13,3.64-5.51,6.18-10.12,7.62l-.4-.7Z"/>
        <path class="cls-155" d="m469.91,1042.72c.49.4.73,1.05.73,1.96,0,2.49-1,5.14-3,7.96-.95,1.27-2.05,2.26-3.3,3-.51.29-.97.43-1.37.43-.64,0-1.23-.29-1.77-.87-.95-.89-1.43-2.16-1.43-3.83,0-2.49,1.09-4.71,3.26-6.66,2.24-1.98,4.88-2.96,7.92-2.96,2.4,0,4.41.54,6.03,1.63,2.4,1.58,3.6,3.82,3.6,6.73s-1.15,5.32-3.46,6.89c-2.04,1.4-4.76,2.33-8.16,2.8l-.03-.5c6.48-1.44,9.72-4.48,9.72-9.12,0-2.4-.81-4.28-2.43-5.66-1.47-1.22-3.23-1.83-5.29-1.83-.42,0-.77.01-1.03.03Zm-5.69,11.65c.07,0,.14-.01.23-.03,1.22-1,2.3-2.6,3.23-4.79.82-1.89,1.23-3.92,1.23-6.09,0-.33.01-.51.03-.53-1.22.16-2.35.62-3.4,1.4-2.71,1.86-4.06,4.3-4.06,7.29,0,1.33.31,2.3.93,2.9.29.22.58.33.87.33.24,0,.55-.16.93-.47Z"/>
        <path class="cls-155" d="m414.29,1074.73v-3.9c2.09.07,3.13.33,3.13.8,0,.22-.42.52-1.27.9v10.26h-1.86v-3.1c-3.15,1.13-5.64,1.9-7.46,2.3-.24.84-.47,1.27-.67,1.27-.44,0-.91-.97-1.4-2.9,3.4-.38,6.57-.89,9.52-1.53v-3.3h-8.62l-.37-.8h8.99Zm-1.9,9.79h13.72l1.23-1.33c1.42.93,2.13,1.58,2.13,1.93,0,.16-.1.29-.3.4l-.8.5v11.45c0,1.84-1.19,2.75-3.56,2.73,0-.69-.38-1.18-1.13-1.47-.58-.2-1.72-.42-3.43-.67v-.9c1.91.18,3.54.27,4.89.27.8,0,1.2-.37,1.2-1.1v-2.9h-14.18v7.06h-2v-16.98c.64.24,1.39.58,2.23,1Zm13.95,3.9v-3.1h-14.18v3.1h14.18Zm0,.8h-14.18v3.43h14.18v-3.43Zm-3.86-12.89c2.97-1.22,5.46-2.65,7.46-4.3,1.42,1.13,2.13,1.9,2.13,2.3,0,.24-.2.37-.6.37-.29,0-.68-.07-1.17-.2-2.4,1.13-5.01,2.05-7.82,2.76v2.26c0,.51.15.83.47.97.35.16,1.54.23,3.56.23,2.33,0,3.64-.19,3.93-.57.35-.53.61-1.78.77-3.73l.9.27c0,1.53.08,2.52.23,2.96.16.42.58.63,1.27.63-.04.98-.46,1.59-1.23,1.83-.69.2-2.64.3-5.86.3s-4.83-.22-5.29-.67c-.4-.38-.6-1.09-.6-2.13v-8.86c2.11.07,3.16.33,3.16.8,0,.24-.43.52-1.3.83v3.93Z"/>
        <path class="cls-155" d="m460.94,1080.06h-6.89v2.86h9.96l1.73-2.1c.71.51,1.51,1.25,2.4,2.23l-.4.7h-29.04l-.4-.83h13.85v-2.86h-6.79v1.23h-1.86v-9.89c.62.24,1.34.61,2.16,1.1h15.05l1.2-1.4c1.38,1.04,2.06,1.7,2.06,1.96,0,.09-.08.19-.23.3l-.9.6v7.26h-1.9v-1.17Zm-22.41,18.95c3.22-1.44,5.96-3.56,8.22-6.36,1.55.93,2.33,1.6,2.33,2,0,.29-.26.43-.77.43-.09,0-.37-.03-.83-.1-2.29,2.06-5.13,3.66-8.52,4.79l-.43-.77Zm7.63-12.82h14.08l1.1-1.27c1.42.93,2.13,1.54,2.13,1.83,0,.13-.11.27-.33.4l-.73.5v4.69h-1.9v-1.1h-6.13v6.86c0,1.22-.52,1.99-1.56,2.3-.29.09-.82.17-1.6.23.02-.69-.34-1.2-1.1-1.53-.44-.2-1.42-.44-2.93-.73v-.87c1.84.24,3.26.37,4.26.37.73,0,1.1-.33,1.1-1v-5.63h-6.76v1.2h-1.9v-7.29c.6.24,1.29.56,2.06.93l.2.1Zm14.78-10.39v-2.46h-15.58v2.46h15.58Zm0,3.43v-2.63h-15.58v2.63h15.58Zm-15.15,7.79v3.36h14.72v-3.36h-14.72Zm11.62,5.59c3.35.93,6.04,2.1,8.06,3.5,1.11.78,1.66,1.48,1.66,2.1,0,.8-.37,1.2-1.1,1.2-.38,0-.83-.29-1.37-.87-1.69-1.91-4.25-3.65-7.69-5.23l.43-.7Z"/>
      </g>
      <g>
        <path class="cls-6" d="m948.28,787.24c-.18.7-.57.97-1.19.79-.62-.17-.92-.53-.92-1.05,2.11-10.54,4.39-20.86,6.85-30.97,2.46-10.1,5.18-19.72,8.17-28.86,2.64-8.43,5.45-16.3,8.43-23.59,2.99-7.29,6.06-13.75,9.23-19.37-.35-7.38.17-13.44,1.58-18.19,1.4-4.74,2.99-8.34,4.74-10.81,1.41-1.75,2.9-2.99,4.48-3.69,1.75-.53,2.94-.44,3.56.26.61.7.88,1.71.79,3.03-.09,1.32-.35,2.81-.79,4.48-.44,1.67-.84,3.03-1.19,4.09-1.41,3.87-3.08,7.56-5.01,11.07-1.94,3.52-3.6,6.24-5.01,8.17,0,1.23.04,2.42.13,3.56.09,1.15.22,2.42.39,3.82,1.75,13.88,3.6,25.74,5.54,35.58,1.93,9.84,3.95,18.1,6.06,24.78,1.4,4.04,2.77,7.47,4.09,10.28,1.32,2.81,2.68,5.1,4.08,6.85,2.11,2.46,4.22,3.69,6.33,3.69,1.23,0,2.37-.4,3.43-1.19,1.05-.79,2.02-1.62,2.9-2.5,2.64-2.64,5.36-6.94,8.17-12.92,2.99-6.33,5.8-13.92,8.43-22.8,2.64-8.87,4.96-18.36,6.99-28.47,2.02-10.1,3.6-20.47,4.74-31.1,1.14-10.63,1.71-20.78,1.71-30.44-.35.53-.79,1.32-1.32,2.37-.53,1.05-.79,1.94-.79,2.64.17.35.26.7.26,1.05,0,.88-.35,1.23-1.05,1.05-1.23-.35-1.67-1.23-1.32-2.64.35-1.4.92-2.85,1.71-4.35.79-1.49,1.62-2.59,2.5-3.29.35-.35.79-.48,1.32-.4.53.09.79.49.79,1.19,0,9.84-.57,20.16-1.71,30.97-1.14,10.81-2.68,21.44-4.61,31.89-1.94,10.46-4.26,20.34-6.99,29.65-2.73,9.32-5.67,17.22-8.83,23.72-2.11,4.92-4.57,8.88-7.38,11.86-1.05,1.41-2.33,2.68-3.82,3.82-1.5,1.15-3.21,1.8-5.14,1.98-3.52.35-6.85-1.58-10.02-5.8-3.69-4.92-7.16-13.57-10.41-25.96-3.25-12.39-6.19-29.48-8.83-51.27,0-1.05-.09-1.85-.26-2.37-2.81,5.63-5.54,11.77-8.17,18.45-2.64,6.68-5.19,13.8-7.64,21.35-2.99,9.14-5.71,18.71-8.17,28.73-2.46,10.02-4.75,20.3-6.85,30.84Zm41.12-132.58c-1.05,1.05-2.11,2.59-3.16,4.61-1.05,2.02-1.94,4.61-2.64,7.78-.88,3.16-1.41,6.94-1.58,11.33l2.9-5.54c1.58-2.99,2.85-5.62,3.82-7.91.96-2.28,1.8-4.57,2.5-6.85.35-.88.48-1.98.4-3.29-.09-1.32-.84-1.36-2.24-.13Z"/>
        <path class="cls-6" d="m1068.99,730.31c.88,1.05,1.1,2.29.66,3.69-.44,1.41-1.14,2.77-2.11,4.08-.97,1.32-2.07,2.5-3.29,3.56-1.23,1.05-2.11,1.84-2.64,2.37-3.69,2.99-7.82,5.45-12.39,7.38,0,3.34,1.01,5.14,3.03,5.4,2.02.26,4.26-.04,6.72-.92,4.57-1.75,8.7-4.17,12.39-7.25,3.69-3.07,6.94-6.46,9.75-10.15.35-.53.79-.57,1.32-.13.53.44.62.84.26,1.19-3.16,4.04-6.55,7.64-10.15,10.81-3.6,3.16-7.6,5.71-11.99,7.64-2.63,1.05-5.18,1.58-7.64,1.58s-4.39-1.23-5.8-3.69c-1.05-2.28-1.36-4.65-.92-7.12.44-2.46,1.1-4.65,1.98-6.59,1.23-2.46,2.9-4.83,5.01-7.12,2.11-2.28,4.65-3.95,7.64-5.01.88-.35,2.24-.66,4.09-.92,1.85-.26,3.21.13,4.09,1.19Zm-19.77,18.71c1.93-.88,3.86-1.84,5.8-2.9,1.93-1.05,3.69-2.28,5.27-3.69,3.16-2.64,5.44-5.36,6.85-8.17.35-.53.48-1.23.4-2.11-.09-.88-.57-1.32-1.45-1.32-1.05,0-2.29.31-3.69.92-1.41.62-2.55,1.28-3.43,1.98-2.81,2.11-4.92,4.44-6.33,6.98-1.41,2.55-2.54,5.32-3.43,8.3Z"/>
        <path class="cls-6" d="m1081.12,738.48c.17-.88.75-1.32,1.71-1.32s1.36.44,1.19,1.32c0,.7-.13,2.37-.4,5.01s-.39,5.14-.39,7.51.13,4.04.39,5.01c.26.97.83.05,1.71-2.77.35-.88.83-2.15,1.45-3.82.61-1.67,1.27-3.34,1.98-5.01.7-1.67,1.45-3.2,2.24-4.61.79-1.4,1.45-2.37,1.98-2.9.88-.35,1.62-.35,2.24,0,.61.35.92,1.05.92,2.11s.04,2.59.13,4.61c.09,2.02.26,4.04.53,6.06.26,2.02.53,3.82.79,5.4s.66,2.37,1.19,2.37c.88-.17,1.8-1.71,2.77-4.61.96-2.9,1.93-6.23,2.9-10.02.96-3.78,1.98-7.47,3.03-11.07,1.05-3.6,2.02-6.1,2.9-7.51.35-.7.79-.88,1.32-.53,1.05.88,1.49,2.07,1.32,3.56-.18,1.49-.79,2.07-1.84,1.71l-1.05-.26c-.88,2.64-1.8,5.76-2.77,9.36-.97,3.6-1.89,7.03-2.77,10.28-.88,3.25-1.8,5.98-2.77,8.17-.97,2.2-1.98,3.12-3.03,2.77-1.05.18-2.07-1.05-3.03-3.69-.97-2.64-1.45-7.2-1.45-13.71,0-1.93-.18-2.72-.53-2.37-.35.35-.71.79-1.05,1.32l-5.54,13.18c-1.41,3.16-2.81,4.66-4.22,4.48-1.23-.35-1.93-1.32-2.11-2.9-.17-1.58-.26-2.99-.26-4.22v-6.85c0-2.11.18-4.13.53-6.06Z"/>
        <path class="cls-6" d="m1155.18,752.45c1.93-.88,4.39-2.28,7.38-4.22,2.99-1.93,6.76-4.74,11.33-8.43.88-.88,1.49-.7,1.85.53l2.11,9.23c2.63-1.93,5.44-3.78,8.43-5.54,2.99-1.75,6.23-3.6,9.75-5.54.7-.35,1.14-.22,1.32.4.17.62.09,1.1-.26,1.45-3.69,1.94-7.08,3.82-10.15,5.67-3.08,1.84-6.02,3.74-8.83,5.67.7,3.87,1.23,7.56,1.58,11.07.35,3.52.44,7.03.26,10.54,0,3.52-.49,7.47-1.45,11.86-.97,4.39-2.37,8.61-4.22,12.65-1.85,4.04-4.13,7.69-6.85,10.94-2.73,3.25-5.93,5.49-9.62,6.72-4.92,1.93-8.78.53-11.6-4.22-1.41-1.93-2.24-4.48-2.51-7.64-.26-3.16.05-6.76.92-10.81.88-4.39,2.73-9.13,5.54-14.23,2.81-5.09,6.68-10.28,11.6-15.55,4.04-4.04,8.43-7.82,13.18-11.33-.35-1.4-.66-2.85-.92-4.35-.26-1.49-.57-2.94-.92-4.35-3.34,2.64-6.24,4.79-8.7,6.46-2.46,1.67-4.66,2.94-6.59,3.82-.88.35-2.29.84-4.22,1.45-1.93.62-3.51.57-4.74-.13-1.05-.53-1.58-1.49-1.58-2.9s.09-2.54.26-3.43c.71-2.28,1.58-4.3,2.64-6.06,1.41-2.46,3.12-4.88,5.14-7.25,2.02-2.37,4.09-4.26,6.2-5.67,2.46-1.4,4.7-1.98,6.72-1.71,2.02.26,3.47,1.63,4.35,4.09.53,1.41.44,2.2-.26,2.37-.53.35-1.1.35-1.71,0-.62-.35-1.19-.53-1.71-.53-.53.53-.97.49-1.32-.13-.36-.61-.36-1.1,0-1.45.7-.53,1.58-.61,2.63-.26-1.05-1.75-2.42-2.37-4.09-1.84-1.67.53-3.29,1.54-4.88,3.03-1.58,1.5-3.03,3.16-4.35,5.01-1.32,1.84-2.24,3.12-2.77,3.82-2.46,3.87-3.69,6.94-3.69,9.23,0,1.41.57,2.11,1.71,2.11s2.15-.17,3.03-.53Zm20.03,1.32c-2.29,1.94-4.39,3.74-6.33,5.4-1.94,1.67-3.78,3.47-5.54,5.4-4.92,5.1-8.7,10.11-11.33,15.02-2.63,4.92-4.39,9.49-5.27,13.71-.88,3.69-1.19,6.98-.92,9.88s1.01,5.32,2.24,7.25c1.94,2.99,4.26,4.04,6.98,3.16,2.72-.88,5.05-2.19,6.99-3.95,4.92-4.57,8.52-10.06,10.81-16.47,2.28-6.41,3.6-12.87,3.95-19.37.17-6.33-.36-13-1.58-20.03Z"/>
        <path class="cls-6" d="m1213.95,730.31c.88,1.05,1.1,2.29.66,3.69-.44,1.41-1.14,2.77-2.11,4.08-.97,1.32-2.07,2.5-3.29,3.56-1.23,1.05-2.11,1.84-2.64,2.37-3.69,2.99-7.82,5.45-12.39,7.38,0,3.34,1.01,5.14,3.03,5.4,2.02.26,4.26-.04,6.72-.92,4.57-1.75,8.7-4.17,12.39-7.25,3.69-3.07,6.94-6.46,9.75-10.15.35-.53.79-.57,1.32-.13.53.44.62.84.26,1.19-3.16,4.04-6.55,7.64-10.15,10.81-3.6,3.16-7.6,5.71-11.99,7.64-2.63,1.05-5.18,1.58-7.64,1.58s-4.39-1.23-5.8-3.69c-1.05-2.28-1.36-4.65-.92-7.12.44-2.46,1.1-4.65,1.98-6.59,1.23-2.46,2.9-4.83,5.01-7.12,2.11-2.28,4.65-3.95,7.64-5.01.88-.35,2.24-.66,4.09-.92,1.85-.26,3.21.13,4.09,1.19Zm-19.77,18.71c1.93-.88,3.86-1.84,5.8-2.9,1.93-1.05,3.69-2.28,5.27-3.69,3.16-2.64,5.44-5.36,6.85-8.17.35-.53.48-1.23.4-2.11-.09-.88-.57-1.32-1.45-1.32-1.05,0-2.29.31-3.69.92-1.41.62-2.55,1.28-3.43,1.98-2.81,2.11-4.92,4.44-6.33,6.98-1.41,2.55-2.54,5.32-3.43,8.3Z"/>
        <path class="cls-6" d="m1225.81,751.92c.7-1.4,1.76-3.16,3.16-5.27,1.4-2.11,2.54-3.78,3.43-5.01.35-.53.79-1.1,1.32-1.71.53-.61,1.05-1.1,1.58-1.45.7-.35,1.4-.44,2.11-.26.53,0,.88.35,1.05,1.05.53.88.7,2.81.53,5.8,0,1.05-.04,2.07-.13,3.03-.09.97-.13,1.98-.13,3.03,0,1.41.26,2.46.79,3.16.88,2.11,2.54,2.94,5.01,2.5,2.46-.44,4.48-1.01,6.06-1.71,4.04-1.75,8.21-4.22,12.52-7.38,4.3-3.16,7.95-6.23,10.94-9.23.53-.35,1.01-.3,1.45.13.44.44.39.92-.13,1.45-2.99,2.99-6.72,6.11-11.2,9.36-4.48,3.25-8.74,5.76-12.78,7.51-1.94.88-4.35,1.54-7.25,1.98-2.9.44-5.14-.3-6.72-2.24-1.05-.88-1.67-2.55-1.85-5.01-.18-.7-.22-1.4-.13-2.11.09-.7.13-1.4.13-2.11l.53-4.48c0-1.75-.26-2.28-.79-1.58-2.46,2.81-4.75,5.98-6.85,9.49-.88,1.58-1.71,3.25-2.5,5.01-.79,1.76-1.45,3.52-1.98,5.27-.17.35-.79.62-1.85.79-1.05.18-1.49-.26-1.32-1.32l6.06-27.94c.17-.7.57-1.01,1.19-.92.62.09,1.19.49,1.71,1.19.53.7.92,1.67,1.19,2.9.26,1.23.13,2.64-.4,4.22-.18.35-.7.53-1.58.53-.36-.17-.53-.7-.53-1.58.35-.35.53-1.4.53-3.16l-3.16,16.08Z"/>
        <path class="cls-6" d="m1291.97,730.31c.88,1.05,1.1,2.29.66,3.69-.44,1.41-1.14,2.77-2.11,4.08-.97,1.32-2.07,2.5-3.29,3.56-1.23,1.05-2.11,1.84-2.64,2.37-3.69,2.99-7.82,5.45-12.39,7.38,0,3.34,1.01,5.14,3.03,5.4,2.02.26,4.26-.04,6.72-.92,4.57-1.75,8.7-4.17,12.39-7.25,3.69-3.07,6.94-6.46,9.75-10.15.35-.53.79-.57,1.32-.13.53.44.62.84.26,1.19-3.16,4.04-6.55,7.64-10.15,10.81-3.6,3.16-7.6,5.71-11.99,7.64-2.63,1.05-5.18,1.58-7.64,1.58s-4.39-1.23-5.8-3.69c-1.05-2.28-1.36-4.65-.92-7.12.44-2.46,1.1-4.65,1.98-6.59,1.23-2.46,2.9-4.83,5.01-7.12,2.11-2.28,4.65-3.95,7.64-5.01.88-.35,2.24-.66,4.09-.92,1.85-.26,3.21.13,4.09,1.19Zm-19.77,18.71c1.93-.88,3.86-1.84,5.8-2.9,1.93-1.05,3.69-2.28,5.27-3.69,3.16-2.64,5.44-5.36,6.85-8.17.35-.53.48-1.23.4-2.11-.09-.88-.57-1.32-1.45-1.32-1.05,0-2.29.31-3.69.92-1.41.62-2.55,1.28-3.43,1.98-2.81,2.11-4.92,4.44-6.33,6.98-1.41,2.55-2.54,5.32-3.43,8.3Z"/>
        <path class="cls-6" d="m1306.73,738.74c.88-.17,1.75-.44,2.63-.79.88-.35,1.76-.7,2.64-1.05,1.4-.7,2.63-1.27,3.69-1.71,1.05-.44,2.02-.48,2.9-.13,1.93.53,2.19,2.81.79,6.85-1.41,4.57-2.63,8.39-3.69,11.47-1.05,3.08-1.58,5.93-1.58,8.57,0,.7.22.97.66.79.44-.17.92-.53,1.45-1.05s1.05-1.1,1.58-1.71c.53-.61.88-1.1,1.05-1.45,1.4-1.93,3.33-4.61,5.8-8.04,2.46-3.43,5.1-7.42,7.91-11.99.35-.53.83-.61,1.45-.26.61.35.75.88.4,1.58-2.81,4.04-5.49,7.95-8.04,11.73-2.55,3.78-4.53,6.63-5.93,8.57l-2.63,3.16c-1.41,1.58-2.77,2.29-4.09,2.11-1.32-.17-1.98-1.4-1.98-3.69,0-3.51.57-6.98,1.71-10.41,1.14-3.43,2.24-6.72,3.29-9.88.53-1.58.53-2.54,0-2.9-.53-.35-1.28-.4-2.24-.13-.97.26-2.02.66-3.16,1.19-1.14.53-2.15.88-3.03,1.05-.53.18-1.14.31-1.84.4-.71.09-1.32.05-1.85-.13-1.75-.53-2.46-1.62-2.11-3.29.35-1.67.88-3.12,1.58-4.35.88-1.4,1.93-2.94,3.16-4.61,1.23-1.67,2.54-3.03,3.95-4.09,1.58-1.23,2.81-1.32,3.69-.26.88,1.05.96,2.29.26,3.69-.53,1.23-1.45,2.77-2.77,4.61-1.32,1.84-3.21,3.91-5.67,6.19Zm6.59-12.65c-.36-.35-.84-.09-1.45.79-.62.88-1.36,1.84-2.24,2.9-.88,1.41-1.71,2.73-2.5,3.95-.79,1.23-1.36,2.37-1.71,3.43.7-.7,1.58-1.62,2.64-2.77,1.05-1.14,2.02-2.28,2.9-3.43.88-1.14,1.58-2.15,2.11-3.03.53-.88.61-1.49.26-1.85Z"/>
        <path class="cls-6" d="m1332.29,749.29c.53.53,1.19.49,1.98-.13.79-.61,1.67-1.4,2.63-2.37.96-.96,1.8-1.98,2.5-3.03.7-1.05,1.23-1.84,1.58-2.37.53-.88.92-1.14,1.19-.79.26.35.57.7.92,1.05,3.34,4.74,7.03,7.12,11.07,7.12,4.39,0,9.49-3.43,15.29-10.28.35-.35.79-.35,1.32,0,.53.35.61.79.26,1.32-3.34,3.87-6.37,6.63-9.09,8.3-2.73,1.67-5.32,2.59-7.78,2.77-4.39,0-8.43-2.37-12.12-7.12l-2.37,3.16c-1.41,1.94-2.81,3.21-4.22,3.82-1.41.62-2.54.92-3.43.92-1.75,0-2.77-.83-3.03-2.5-.26-1.67-.22-2.94.13-3.82.88-2.46,2.24-5.01,4.09-7.64,1.84-2.64,4.7-4.92,8.57-6.85,1.23-.53,2.02-.44,2.37.26.17.53.09,1.14-.26,1.84-.18.18-.35.4-.53.66-.18.26-.44.4-.79.4-.53,0-.88-.09-1.05-.26,0-.17-.09-.26-.26-.26-2.11,1.23-3.96,2.9-5.54,5.01-.18.18-.57.75-1.19,1.71-.62.97-1.19,2.02-1.71,3.16-.53,1.14-.88,2.29-1.05,3.43-.17,1.15,0,1.98.53,2.5Z"/>
        <path class="cls-6" d="m1363.92,721.08c1.76.35,3.69.35,5.8,0,2.11-.35,4.39-.96,6.85-1.84.7-2.99,1.49-5.67,2.37-8.04.88-2.37,1.93-4.09,3.16-5.14.35-.35.92-.61,1.71-.79.79-.17,1.45-.09,1.98.26.53.7.7,1.41.53,2.11-.35,3.34-.97,6.42-1.85,9.23,1.93-.53,3.69-.96,5.27-1.32,1.58-.35,3.34-.61,5.27-.79.53,0,.83.22.92.66.09.44-.04.75-.4.92-.35.35-1.23.88-2.63,1.58-1.41.7-2.11.62-2.11-.26,0-.35.09-.53.26-.53-1.41.35-2.68.66-3.82.92-1.14.26-2.33.57-3.56.92v.26c-1.58,4.22-3.78,8.52-6.59,12.92-.71,5.1-1.36,10.46-1.98,16.08-.62,5.63-.75,11.07-.4,16.34.17.7-.13,1.05-.92,1.05s-1.19-.35-1.19-1.05c-.36-4.57-.36-9.27,0-14.1.35-4.83.79-9.53,1.32-14.1l-3.43,3.95c-.53.35-.97.26-1.32-.26-.35-.53-.26-1.05.26-1.58,1.23-1.23,2.15-2.24,2.77-3.03.61-.79,1.36-1.71,2.24-2.77.17-3.69.7-7.38,1.58-11.07-2.29.88-4.48,1.49-6.59,1.84-2.11.35-4.04.35-5.8,0-.88-.17-1.23-.66-1.05-1.45.18-.79.62-1.1,1.32-.92Zm15.02-.53l-1.05,6.59c.7-1.23,1.32-2.41,1.84-3.56.53-1.14,1.05-2.33,1.58-3.56l-2.37.53Zm3.16-2.9c1.23-3.51,1.93-6.76,2.11-9.75.17-.17.26-.3.26-.4s-.09-.04-.26.13c-1.23,1.05-2.24,2.77-3.03,5.14-.79,2.37-1.36,4.26-1.71,5.67l2.64-.79Z"/>
        <path class="cls-6" d="m1389.75,738.48c.17-.53.79-.88,1.84-1.05,1.05-.17,1.49.18,1.32,1.05l-2.63,12.65c-.36,2.29-.4,4.18-.13,5.67.26,1.49,1.8,1.19,4.61-.92l4.22-3.43c2.46-2.11,5.05-4.44,7.78-6.98,2.72-2.55,5.23-4.88,7.51-6.98.53-.53,1.05-.53,1.58,0,.53.53.53,1.05,0,1.58-2.46,2.11-5.05,4.44-7.78,6.98-2.73,2.55-5.32,4.88-7.78,6.98l-4.48,3.69c-4.57,3.69-7.38,4.04-8.44,1.05-.35-1.05-.48-2.54-.39-4.48.09-1.93.31-4.13.66-6.59.18-1.05.49-2.59.92-4.61.44-2.02.84-3.56,1.19-4.61Zm5.27-7.91c-.18.35-.57.57-1.19.66-.62.09-1.1.13-1.45.13-.7-.35-.88-.79-.53-1.32l1.05-3.95c.17-.53.83-.79,1.98-.79s1.54.44,1.19,1.32l-1.05,3.95Z"/>
        <path class="cls-6" d="m1414.25,738.48c.35-.7.92-.96,1.71-.79.79.18,1.01.7.66,1.58-1.41,3.34-2.59,6.59-3.56,9.75-.96,3.16-1.1,6.68-.39,10.54.35,1.76.92,2.86,1.71,3.29.79.44,1.71.44,2.77,0,1.05-.44,2.06-1.14,3.03-2.11.96-.96,1.71-1.89,2.24-2.77,1.93-2.99,3.78-6.33,5.54-10.02-1.58-.17-3.08-.7-4.48-1.58-1.41-.88-2.55-1.84-3.43-2.9-.88-.88-1.49-1.98-1.84-3.29-.36-1.32-.44-2.5-.26-3.56.35-2.11,1.45-3.82,3.29-5.14,1.85-1.32,3.56-2.15,5.14-2.5,2.99-.7,4.96-.4,5.93.92.96,1.32,1.4,3.03,1.32,5.14-.09,2.11-.53,4.26-1.32,6.46-.79,2.2-1.36,3.82-1.71,4.88,4.04-.17,7.55-1.01,10.54-2.5,2.99-1.49,5.71-3.29,8.17-5.4.35-.35.74-.26,1.19.26.44.53.48.97.13,1.32-6.15,5.63-13.09,8.43-20.82,8.43-.88,1.94-2.15,4.44-3.82,7.51-1.67,3.08-3.65,5.58-5.93,7.51-2.46,2.11-4.53,2.68-6.19,1.71-1.67-.96-2.85-2.5-3.56-4.61-1.05-3.16-1.01-6.94.13-11.33,1.15-4.39,2.42-7.99,3.82-10.81Zm14.23,7.64c.7-1.93,1.45-4.22,2.24-6.85s1.01-4.74.66-6.33c-.35-1.4-1.32-2.11-2.9-2.11s-3.16.53-4.75,1.58c-1.58,1.05-2.72,2.42-3.43,4.09-.7,1.67-.26,3.56,1.32,5.67.88.88,1.93,1.76,3.16,2.64,1.23.88,2.46,1.32,3.69,1.32Z"/>
        <path class="cls-6" d="m1449.05,751.92c.7-1.4,1.76-3.16,3.16-5.27,1.4-2.11,2.54-3.78,3.43-5.01.35-.53.79-1.1,1.32-1.71.53-.61,1.05-1.1,1.58-1.45.7-.35,1.4-.44,2.11-.26.53,0,.88.35,1.05,1.05.53.88.7,2.81.53,5.8,0,1.05-.04,2.07-.13,3.03-.09.97-.13,1.98-.13,3.03,0,1.41.26,2.46.79,3.16.88,2.11,2.54,2.94,5.01,2.5,2.46-.44,4.48-1.01,6.06-1.71,4.04-1.75,8.21-4.22,12.52-7.38,4.3-3.16,7.95-6.23,10.94-9.23.53-.35,1.01-.3,1.45.13.44.44.39.92-.13,1.45-2.99,2.99-6.72,6.11-11.2,9.36-4.48,3.25-8.74,5.76-12.78,7.51-1.94.88-4.35,1.54-7.25,1.98-2.9.44-5.14-.3-6.72-2.24-1.05-.88-1.67-2.55-1.85-5.01-.18-.7-.22-1.4-.13-2.11.09-.7.13-1.4.13-2.11l.53-4.48c0-1.75-.26-2.28-.79-1.58-2.46,2.81-4.75,5.98-6.85,9.49-.88,1.58-1.71,3.25-2.5,5.01-.79,1.76-1.45,3.52-1.98,5.27-.17.35-.79.62-1.85.79-1.05.18-1.49-.26-1.32-1.32l6.06-27.94c.17-.7.57-1.01,1.19-.92.62.09,1.19.49,1.71,1.19.53.7.92,1.67,1.19,2.9.26,1.23.13,2.64-.4,4.22-.18.35-.7.53-1.58.53-.36-.17-.53-.7-.53-1.58.35-.35.53-1.4.53-3.16l-3.16,16.08Z"/>
      </g>
      <text class="cls-29" transform="translate(615.1 1082.98)"><tspan class="cls-61" x="0" y="0">日</tspan><tspan class="cls-119" x="16.75" y="0">本</tspan><tspan class="cls-55" x="33.74" y="0">が</tspan><tspan class="cls-57" x="50.82" y="0">世</tspan><tspan class="cls-141" x="67.87" y="0">界</tspan><tspan class="cls-48" x="84.88" y="0">に</tspan><tspan class="cls-57" x="101.41" y="0">先</tspan><tspan class="cls-164" x="118.46" y="0">駆</tspan><tspan class="cls-17" x="135.18" y="0">け</tspan><tspan class="cls-72" x="151.33" y="0">て</tspan><tspan class="cls-57" x="167.54" y="0">突</tspan><tspan class="cls-137" x="184.59" y="0">入</tspan><tspan class="cls-105" x="200.16" y="0">し</tspan><tspan class="cls-142" x="215.14" y="0">て</tspan><tspan class="cls-60" x="231.41" y="0">い</tspan><tspan class="cls-109" x="247.26" y="0">る</tspan><tspan class="cls-57" x="255.22" y="0">「人生100年時代</tspan><tspan class="cls-136" x="387.37" y="0">」</tspan><tspan class="cls-119" x="396.38" y="0">の</tspan><tspan class="cls-40" x="413.37" y="0">社</tspan><tspan class="cls-119" x="430.43" y="0">会</tspan><tspan class="cls-50" x="447.42" y="0">は</tspan><tspan class="cls-35" x="464.23" y="0">、</tspan><tspan class="cls-57" x=".3" y="29">少子高齢化</tspan><tspan class="cls-81" x="85.58" y="29">、</tspan><tspan class="cls-102" x="94.55" y="29">自</tspan><tspan class="cls-57" x="111.5" y="29">然災害</tspan><tspan class="cls-23" x="162.67" y="29">、</tspan><tspan class="cls-62" x="171.73" y="29">世界的気候変動</tspan><tspan class="cls-23" x="291.12" y="29">、</tspan><tspan class="cls-57" x="300.17" y="29">新</tspan><tspan class="cls-154" x="317.23" y="29">型</tspan><tspan class="cls-126" x="333.31" y="29">コ</tspan><tspan class="cls-101" x="349.44" y="29">ロ</tspan><tspan class="cls-144" x="365.47" y="29">ナ</tspan><tspan class="cls-39" x="381.42" y="29">ウ</tspan><tspan class="cls-160" x="396.83" y="29">イ</tspan><tspan class="cls-147" x="412.25" y="29">ル</tspan><tspan class="cls-12" x="428.84" y="29">ス</tspan><tspan class="cls-141" x="445.44" y="29">等</tspan><tspan class="cls-119" x="462.45" y="29">の</tspan><tspan class="cls-40" x="479.45" y="29">社会変動要</tspan><tspan class="cls-79" x="564.73" y="29">因</tspan><tspan class="cls-100" x="580.74" y="29">と</tspan><tspan class="cls-11" x="596.24" y="29">い</tspan><tspan class="cls-32" x="611.46" y="29">っ</tspan><tspan class="cls-36" x="627.22" y="29">た</tspan><tspan class="cls-16" x="643.96" y="29">、</tspan><tspan class="cls-10" x="-.78" y="58">さ</tspan><tspan class="cls-4" x="13.43" y="58">ま</tspan><tspan class="cls-19" x="28.32" y="58">ざ</tspan><tspan class="cls-71" x="44.64" y="58">ま</tspan><tspan class="cls-131" x="59.9" y="58">な</tspan><tspan class="cls-57" x="76.51" y="58">不安的要</tspan><tspan class="cls-167" x="144.73" y="58">素</tspan><tspan class="cls-48" x="161.74" y="58">に</tspan><tspan class="cls-62" x="178.26" y="58">直</tspan><tspan class="cls-125" x="195.32" y="58">面</tspan><tspan class="cls-105" x="210.89" y="58">し</tspan><tspan class="cls-166" x="225.87" y="58">て</tspan><tspan class="cls-33" x="242.14" y="58">い</tspan><tspan class="cls-140" x="258.01" y="58">ま</tspan><tspan class="cls-46" x="273.8" y="58">す</tspan><tspan class="cls-23" x="290.83" y="58">。</tspan><tspan class="cls-28" x="-.11" y="87">そ</tspan><tspan class="cls-151" x="15.74" y="87">ん</tspan><tspan class="cls-159" x="31.92" y="87">な</tspan><tspan class="cls-57" x="48.53" y="87">次世</tspan><tspan class="cls-3" x="82.64" y="87">代</tspan><tspan class="cls-120" x="99.12" y="87">を</tspan><tspan class="cls-93" x="115.42" y="87">担</tspan><tspan class="cls-113" x="130.57" y="87">う</tspan><tspan class="cls-15" x="145.95" y="87">人</tspan><tspan class="cls-114" x="162.72" y="87">々</tspan><tspan class="cls-119" x="178.33" y="87">の</tspan><tspan class="cls-23" x="195.33" y="87">、</tspan><tspan class="cls-57" x="204.38" y="87">今</tspan><tspan class="cls-141" x="221.44" y="87">後</tspan><tspan class="cls-106" x="238.45" y="87">の</tspan><tspan class="cls-57" x="255.44" y="87">100年人</tspan><tspan class="cls-3" x="319.37" y="87">生</tspan><tspan class="cls-120" x="335.85" y="87">を</tspan><tspan class="cls-69" x="352.16" y="87">託</tspan><tspan class="cls-83" x="369.56" y="87">せ</tspan><tspan class="cls-56" x="385.46" y="87">る</tspan><tspan class="cls-86" x="400.39" y="87">よ</tspan><tspan class="cls-2" x="414.34" y="87">う</tspan><tspan class="cls-131" x="429.22" y="87">な</tspan><tspan class="cls-62" x="445.83" y="87">住</tspan><tspan class="cls-18" x="462.88" y="87">宅</tspan><tspan class="cls-113" x="478.9" y="87">と</tspan><tspan class="cls-50" x="494.28" y="87">は</tspan><tspan class="cls-35" x="511.09" y="87">、</tspan><tspan class="cls-163" x="-.84" y="116">ま</tspan><tspan class="cls-88" x="14.84" y="116">た</tspan><tspan class="cls-57" x="31.57" y="116">住宅</tspan><tspan class="cls-79" x="65.69" y="116">地</tspan><tspan class="cls-8" x="81.7" y="116">と</tspan><tspan class="cls-24" x="97.08" y="116">は</tspan><tspan class="cls-128" x="113.89" y="116">、</tspan><tspan class="cls-108" x="122.07" y="116">ど</tspan><tspan class="cls-58" x="138.79" y="116">の</tspan><tspan class="cls-94" x="154.76" y="116">よ</tspan><tspan class="cls-133" x="168.7" y="116">う</tspan><tspan class="cls-25" x="183.59" y="116">な</tspan><tspan class="cls-143" x="199.1" y="116">も</tspan><tspan class="cls-165" x="214.92" y="116">の</tspan><tspan class="cls-153" x="231.49" y="116">で</tspan><tspan class="cls-107" x="246.93" y="116">し</tspan><tspan class="cls-157" x="260.26" y="116">ょ</tspan><tspan class="cls-156" x="273.12" y="116">う</tspan><tspan class="cls-76" x="288.28" y="116">か</tspan><tspan class="cls-78" x="302.53" y="116">？</tspan><tspan class="cls-87" x="-.67" y="174">こ</tspan><tspan class="cls-168" x="13.35" y="174">う</tspan><tspan class="cls-8" x="27.24" y="174">し</tspan><tspan class="cls-68" x="42.61" y="174">た</tspan><tspan class="cls-62" x="59.35" y="174">社会的問</tspan><tspan class="cls-141" x="127.57" y="174">題</tspan><tspan class="cls-48" x="144.58" y="174">に</tspan><tspan class="cls-57" x="161.11" y="174">対</tspan><tspan class="cls-137" x="178.16" y="174">応</tspan><tspan class="cls-118" x="193.73" y="174">し</tspan><tspan class="cls-96" x="208.7" y="174">な</tspan><tspan class="cls-43" x="225.24" y="174">が</tspan><tspan class="cls-139" x="240.8" y="174">ら</tspan><tspan class="cls-112" x="256.02" y="174">も</tspan><tspan class="cls-16" x="271.89" y="174">、</tspan><tspan class="cls-135" x=".3" y="203">新</tspan><tspan class="cls-121" x="17.28" y="203">た</tspan><tspan class="cls-159" x="33.53" y="203">な</tspan><tspan class="cls-57" x="50.13" y="203">世</tspan><tspan class="cls-141" x="67.19" y="203">代</tspan><tspan class="cls-106" x="84.19" y="203">の</tspan><tspan class="cls-57" x="101.19" y="203">住</tspan><tspan class="cls-48" x="118.24" y="203">宅</tspan><tspan class="cls-145" x="134.77" y="203">ニ</tspan><tspan class="cls-138" x="150.87" y="203">ー</tspan><tspan class="cls-85" x="166.85" y="203">ズ</tspan><tspan class="cls-90" x="183.8" y="203">に</tspan><tspan class="cls-24" x="200.26" y="203">は</tspan><tspan class="cls-57" x="217.07" y="203">的</tspan><tspan class="cls-141" x="234.13" y="203">確</tspan><tspan class="cls-48" x="251.14" y="203">に</tspan><tspan class="cls-13" x="267.66" y="203">応</tspan><tspan class="cls-42" x="284.12" y="203">え</tspan><tspan class="cls-142" x="299.84" y="203">て</tspan><tspan class="cls-24" x="316.11" y="203">い</tspan><tspan class="cls-14" x="332.92" y="203">か</tspan><tspan class="cls-146" x="349.5" y="203">な</tspan><tspan class="cls-165" x="365.77" y="203">け</tspan><tspan class="cls-20" x="382.33" y="203">れ</tspan><tspan class="cls-37" x="399.59" y="203">ば</tspan><tspan class="cls-162" x="416.6" y="203">な</tspan><tspan class="cls-82" x="431.66" y="203">り</tspan><tspan class="cls-5" x="445.87" y="203">ま</tspan><tspan class="cls-27" x="461.98" y="203">せ</tspan><tspan class="cls-9" x="478.75" y="203">ん</tspan><tspan class="cls-35" x="495.42" y="203">。</tspan><tspan class="cls-135" x=".3" y="232">私</tspan><tspan class="cls-148" x="17.28" y="232">た</tspan><tspan class="cls-34" x="33.38" y="232">ち</tspan><tspan class="cls-24" x="49.79" y="232">は</tspan><tspan class="cls-104" x="66.61" y="232">、</tspan><tspan class="cls-33" x="74.69" y="232">こ</tspan><tspan class="cls-58" x="90.56" y="232">の</tspan><tspan class="cls-94" x="106.53" y="232">よ</tspan><tspan class="cls-97" x="120.48" y="232">う</tspan><tspan class="cls-48" x="135.81" y="232">に</tspan><tspan class="cls-23" x="152.33" y="232">、</tspan><tspan class="cls-62" x="161.39" y="232">現実</tspan><tspan class="cls-73" x="195.5" y="232">的</tspan><tspan class="cls-88" x="212.35" y="232">か</tspan><tspan class="cls-52" x="229.08" y="232">つ</tspan><tspan class="cls-57" x="246.17" y="232">未来的志</tspan><tspan class="cls-141" x="314.39" y="232">向</tspan><tspan class="cls-106" x="331.4" y="232">の</tspan><tspan class="cls-57" x="348.4" y="232">動</tspan><tspan class="cls-49" x="365.45" y="232">機</tspan><tspan class="cls-64" x="381.93" y="232">を</tspan><tspan class="cls-89" x="397.74" y="232">ベ</tspan><tspan class="cls-103" x="414.16" y="232">ー</tspan><tspan class="cls-38" x="429.95" y="232">ス</tspan><tspan class="cls-127" x="446.51" y="232">に</tspan><tspan class="cls-16" x="463.03" y="232">、</tspan><tspan class="cls-57" x=".3" y="261">東京大</tspan><tspan class="cls-167" x="51.47" y="261">学</tspan><tspan class="cls-119" x="68.48" y="261">の</tspan><tspan class="cls-57" x="85.48" y="261">研</tspan><tspan class="cls-7" x="102.53" y="261">究</tspan><tspan class="cls-92" x="119.14" y="261">チ</tspan><tspan class="cls-26" x="135.25" y="261">ー</tspan><tspan class="cls-110" x="151.26" y="261">ム</tspan><tspan class="cls-55" x="167.61" y="261">が</tspan><tspan class="cls-62" x="184.69" y="261">蓄</tspan><tspan class="cls-125" x="201.74" y="261">積</tspan><tspan class="cls-105" x="217.31" y="261">し</tspan><tspan class="cls-113" x="232.29" y="261">て</tspan><tspan class="cls-47" x="247.67" y="261">き</tspan><tspan class="cls-68" x="263.17" y="261">た</tspan><tspan class="cls-62" x="279.91" y="261">叡</tspan><tspan class="cls-30" x="296.96" y="261">智</tspan><tspan class="cls-153" x="312.98" y="261">と</tspan><tspan class="cls-16" x="328.42" y="261">、</tspan><tspan class="cls-84" x="-.72" y="290">よ</tspan><tspan class="cls-111" x="13.6" y="290">り</tspan><tspan class="cls-57" x="28.96" y="290">快</tspan><tspan class="cls-21" x="46.01" y="290">適</tspan><tspan class="cls-70" x="62.64" y="290">で</tspan><tspan class="cls-80" x="79.56" y="290">暮</tspan><tspan class="cls-132" x="95.11" y="290">ら</tspan><tspan class="cls-8" x="109.93" y="290">し</tspan><tspan class="cls-124" x="125.31" y="290">や</tspan><tspan class="cls-52" x="142.79" y="290">す</tspan><tspan class="cls-41" x="159.88" y="290">い</tspan><tspan class="cls-62" x="176.91" y="290">住環</tspan><tspan class="cls-3" x="211.02" y="290">境</tspan><tspan class="cls-134" x="227.5" y="290">を</tspan><tspan class="cls-13" x="243.5" y="290">日</tspan><tspan class="cls-67" x="259.96" y="290">々</tspan><tspan class="cls-62" x="275.62" y="290">模</tspan><tspan class="cls-125" x="292.68" y="290">索</tspan><tspan class="cls-105" x="308.25" y="290">し</tspan><tspan class="cls-113" x="323.23" y="290">て</tspan><tspan class="cls-47" x="338.61" y="290">き</tspan><tspan class="cls-68" x="354.11" y="290">た</tspan><tspan class="cls-62" x="370.84" y="290">住</tspan><tspan class="cls-123" x="387.9" y="290">協</tspan><tspan class="cls-152" x="403.88" y="290">グ</tspan><tspan class="cls-31" x="421.25" y="290">ル</tspan><tspan class="cls-161" x="438.19" y="290">ー</tspan><tspan class="cls-169" x="454.11" y="290">プ</tspan><tspan class="cls-65" x="471.53" y="290">の</tspan><tspan class="cls-51" x="487.16" y="290">ノ</tspan><tspan class="cls-98" x="501.93" y="290">ウ</tspan><tspan class="cls-148" x="518.73" y="290">ハ</tspan><tspan class="cls-45" x="534.82" y="290">ウ</tspan><tspan class="cls-79" x="551.45" y="290">の</tspan><tspan class="cls-22" x="567.47" y="290">コ</tspan><tspan class="cls-77" x="582.88" y="290">ラ</tspan><tspan class="cls-95" x="598.66" y="290">ボ</tspan><tspan class="cls-66" x="614.71" y="290">レ</tspan><tspan class="cls-91" x="630.37" y="290">ー</tspan><tspan class="cls-59" x="646.4" y="290">シ</tspan><tspan class="cls-74" x="661.1" y="290">ョ</tspan><tspan class="cls-158" x="675.29" y="290">ン</tspan><tspan class="cls-150" x="691.64" y="290">に</tspan><tspan class="cls-149" x="707.14" y="290">よ</tspan><tspan class="cls-122" x="721.19" y="290">っ</tspan><tspan class="cls-63" x="736.55" y="290">て</tspan><tspan class="cls-16" x="752.76" y="290">、</tspan><tspan class="cls-57" x=".3" y="319">次世代住</tspan><tspan class="cls-53" x="68.53" y="319">宅・</tspan><tspan class="cls-57" x="94.64" y="319">住宅</tspan><tspan class="cls-141" x="128.75" y="319">地</tspan><tspan class="cls-106" x="145.76" y="319">の</tspan><tspan class="cls-57" x="162.76" y="319">開</tspan><tspan class="cls-141" x="179.81" y="319">発</tspan><tspan class="cls-48" x="196.82" y="319">に</tspan><tspan class="cls-164" x="213.35" y="319">向</tspan><tspan class="cls-116" x="230.07" y="319">け</tspan><tspan class="cls-68" x="246.61" y="319">た</tspan><tspan class="cls-57" x="263.35" y="319">共同研</tspan><tspan class="cls-167" x="314.52" y="319">究</tspan><tspan class="cls-127" x="331.53" y="319">に</tspan><tspan class="cls-99" x="348.05" y="319">取</tspan><tspan class="cls-111" x="363.57" y="319">り</tspan><tspan class="cls-1" x="378.93" y="319">組</tspan><tspan class="cls-115" x="395.68" y="319">ん</tspan><tspan class="cls-54" x="411.92" y="319">で</tspan><tspan class="cls-44" x="428.91" y="319">い</tspan><tspan class="cls-75" x="444.79" y="319">ま</tspan><tspan class="cls-46" x="460.58" y="319">す</tspan><tspan class="cls-16" x="477.6" y="319">。</tspan></text>
    </g>
  </g>
</svg>