<?xml version="1.0" encoding="UTF-8"?>
<svg id="_レイヤー_2" data-name="レイヤー 2" xmlns="http://www.w3.org/2000/svg" viewBox="0 0 332.94 12.57">
  <defs>
    <style>
      .cls-1 {
        fill: #231815;
      }
    </style>
  </defs>
  <g id="_レイヤー_2-2" data-name="レイヤー 2">
    <g>
      <path class="cls-1" d="m6.21,9.59h-1v-3.86c0-1.07-.38-1.99-1.51-1.99-.77,0-1.73.64-1.73,1.84v4.02h-1V0h1v4.07h.02c.43-.72,1.22-1.16,2.03-1.16s2.18.49,2.18,2.71v3.98Z"/>
      <path class="cls-1" d="m8.41,1.87l.98-.34v1.52h1.69v.78h-1.69v3.78c0,.83.25,1.28.89,1.28.3,0,.5-.04.67-.1l.06.77c-.22.1-.55.16-.97.16-1.58,0-1.63-1.44-1.63-2.13v-3.75h-1.01v-.78h1.01v-1.19Z"/>
      <path class="cls-1" d="m12.66,1.87l.98-.34v1.52h1.69v.78h-1.69v3.78c0,.83.25,1.28.89,1.28.3,0,.5-.04.67-.1l.06.77c-.22.1-.55.16-.97.16-1.58,0-1.63-1.44-1.63-2.13v-3.75h-1.01v-.78h1.01v-1.19Z"/>
      <path class="cls-1" d="m17.58,4.16c.46-.8,1.21-1.26,2.23-1.26,1.55,0,2.66,1.33,2.66,3.33,0,2.4-1.4,3.5-2.84,3.5-.86,0-1.58-.4-1.97-1.04h-.02v3.57h-1v-7.11c0-.85-.02-1.51-.05-2.11h.9l.06,1.12h.02Zm.06,2.83c0,1.27.95,1.94,1.83,1.94,1.29,0,1.99-1.1,1.99-2.66,0-1.35-.68-2.55-1.96-2.55-1.12,0-1.87,1.08-1.87,2.03v1.25Z"/>
      <path class="cls-1" d="m27.03,4.05c-.24-.16-.68-.38-1.27-.38-.72,0-1.1.44-1.1.97,0,.56.37.83,1.21,1.19,1.05.43,1.67.98,1.67,1.97,0,1.16-.89,1.93-2.31,1.93-.65,0-1.27-.18-1.71-.44l.28-.77c.35.2.91.44,1.47.44.88,0,1.31-.47,1.31-1.06s-.35-.95-1.21-1.3c-1.1-.44-1.67-1.06-1.67-1.85,0-1.02.81-1.86,2.13-1.86.62,0,1.15.18,1.5.4l-.29.76Z"/>
      <path class="cls-1" d="m28.8,4.08c0-.44.29-.77.71-.77s.71.32.71.77-.28.77-.71.77c-.46,0-.71-.37-.71-.77Zm0,4.91c0-.44.29-.77.71-.77s.71.32.71.77c0,.42-.28.76-.71.76-.46,0-.71-.36-.71-.76Z"/>
      <path class="cls-1" d="m31.47,10.13h-.8L34.47.31h.83l-3.83,9.82Z"/>
      <path class="cls-1" d="m36.05,10.13h-.8L39.05.31h.83l-3.83,9.82Z"/>
      <path class="cls-1" d="m49.22,3.05l-2.07,6.55h-.89l-1.03-3.29c-.24-.74-.42-1.4-.57-2.16h-.04c-.16.78-.36,1.46-.6,2.17l-1.09,3.27h-.9l-1.93-6.55h1.03l.91,3.43c.18.73.36,1.4.49,2.07h.04c.14-.65.36-1.36.58-2.06l1.09-3.44h.86l1.04,3.38c.23.77.42,1.46.58,2.12h.04c.12-.65.3-1.33.52-2.11l.96-3.39h.99Z"/>
      <path class="cls-1" d="m58.82,3.05l-2.07,6.55h-.89l-1.03-3.29c-.24-.74-.42-1.4-.57-2.16h-.04c-.16.78-.36,1.46-.6,2.17l-1.09,3.27h-.9l-1.93-6.55h1.03l.91,3.43c.18.73.36,1.4.49,2.07h.04c.14-.65.36-1.36.58-2.06l1.09-3.44h.86l1.04,3.38c.23.77.42,1.46.58,2.12h.04c.12-.65.3-1.33.52-2.11l.96-3.39h.99Z"/>
      <path class="cls-1" d="m68.42,3.05l-2.07,6.55h-.89l-1.03-3.29c-.24-.74-.42-1.4-.57-2.16h-.04c-.16.78-.36,1.46-.6,2.17l-1.09,3.27h-.9l-1.93-6.55h1.03l.91,3.43c.18.73.36,1.4.49,2.07h.04c.14-.65.36-1.36.58-2.06l1.09-3.44h.86l1.04,3.38c.23.77.42,1.46.58,2.12h.04c.12-.65.3-1.33.52-2.11l.96-3.39h.99Z"/>
      <path class="cls-1" d="m69.11,8.98c0-.46.3-.78.72-.78s.71.32.71.78c0,.43-.28.76-.72.76s-.71-.36-.71-.76Z"/>
      <path class="cls-1" d="m73.13,9.08c0,1.26-.18,2.05-.73,2.64-.49.5-1.32.71-1.86.71l-.11-.79c1.6-.11,1.7-1.1,1.7-2.99V3.06h1v6.02Zm-.5-7.17c-.4,0-.65-.31-.65-.68s.28-.67.67-.67.63.3.63.67c0,.41-.26.68-.66.68Z"/>
      <path class="cls-1" d="m80,3.06l-1.74,4.63c-.78,2.12-1.33,3.35-2.15,4.11-.55.5-1.09.71-1.33.77l-.28-.84c1.52-.56,2.11-2.22,2.11-2.35,0-.06-.02-.16-.07-.28l-2.32-6.04h1.09l1.43,3.97c.17.46.31.97.42,1.37h.04c.11-.4.26-.89.42-1.39l1.32-3.95h1.05Z"/>
      <path class="cls-1" d="m86.23,7.86c0,.67.04,1.24.06,1.74h-.9l-.05-1.03h-.04c-.3.52-.97,1.18-2.09,1.18-.98,0-2.15-.56-2.15-2.82v-3.86h1v3.68c0,1.27.37,2.16,1.46,2.16.78,0,1.7-.62,1.7-1.77V3.06h1v4.8Z"/>
      <path class="cls-1" d="m87.62,5.55h3.27v.77h-3.27v-.77Z"/>
      <path class="cls-1" d="m97.6,3.05c-.04.47-.06,1-.06,1.8v3.81c0,1.14-.02,3.75-3.12,3.75-.74,0-1.56-.18-2.05-.52l.26-.78c.42.25,1.05.49,1.83.49,1.2,0,2.08-.64,2.08-2.36v-.78h-.03c-.34.61-1.03,1.12-2.03,1.12-1.56,0-2.68-1.38-2.68-3.21,0-2.27,1.42-3.47,2.83-3.47,1.12,0,1.7.6,1.98,1.13h.02l.05-.98h.9Zm-1.07,2.52c0-1.14-.83-1.86-1.74-1.86-1.15,0-1.96,1.02-1.96,2.6,0,1.39.67,2.48,1.94,2.48.74,0,1.75-.56,1.75-1.92v-1.31Z"/>
      <path class="cls-1" d="m99.24,8.98c0-.46.3-.78.72-.78s.71.32.71.78c0,.43-.28.76-.72.76s-.71-.36-.71-.76Z"/>
      <path class="cls-1" d="m106.54,9.35c-.29.14-.94.37-1.78.37-1.87,0-3.11-1.33-3.11-3.33s1.33-3.49,3.35-3.49c.73,0,1.32.22,1.57.35l-.25.8c-.28-.16-.71-.34-1.34-.34-1.51,0-2.3,1.21-2.3,2.61,0,1.58.95,2.58,2.27,2.58.65,0,1.09-.18,1.41-.32l.18.77Z"/>
      <path class="cls-1" d="m113.49,6.27c0,2.43-1.61,3.47-3.06,3.47-1.68,0-2.97-1.26-2.97-3.37,0-2.23,1.39-3.47,3.06-3.47,1.79,0,2.97,1.37,2.97,3.37Zm-3.01-2.59c-1.41,0-2,1.39-2,2.65,0,1.45.8,2.63,1.98,2.63s2.01-1.18,2.01-2.65c0-1.16-.56-2.63-1.99-2.63Z"/>
      <path class="cls-1" d="m114.73,8.98c0-.46.3-.78.72-.78s.71.32.71.78c0,.43-.28.76-.72.76s-.71-.36-.71-.76Z"/>
      <path class="cls-1" d="m118.75,9.08c0,1.26-.18,2.05-.73,2.64-.49.5-1.32.71-1.86.71l-.11-.79c1.6-.11,1.7-1.1,1.7-2.99V3.06h1v6.02Zm-.5-7.17c-.4,0-.65-.31-.65-.68s.28-.67.67-.67.64.3.64.67c0,.41-.26.68-.66.68Z"/>
      <path class="cls-1" d="m121.63,4.16c.46-.8,1.21-1.26,2.23-1.26,1.55,0,2.66,1.33,2.66,3.33,0,2.4-1.4,3.5-2.84,3.5-.86,0-1.58-.4-1.97-1.04h-.03v3.57h-.99v-7.11c0-.85-.02-1.51-.05-2.11h.9l.06,1.12h.03Zm.06,2.83c0,1.27.95,1.94,1.84,1.94,1.28,0,1.99-1.1,1.99-2.66,0-1.35-.68-2.55-1.96-2.55-1.12,0-1.87,1.08-1.87,2.03v1.25Z"/>
      <path class="cls-1" d="m127.82,10.13h-.8l3.8-9.82h.83l-3.83,9.82Z"/>
      <path class="cls-1" d="m135.66,4.05c-.24-.16-.68-.38-1.27-.38-.72,0-1.1.44-1.1.97,0,.56.37.83,1.21,1.19,1.05.43,1.67.98,1.67,1.97,0,1.16-.89,1.93-2.32,1.93-.65,0-1.27-.18-1.71-.44l.28-.77c.35.2.91.44,1.47.44.88,0,1.31-.47,1.31-1.06s-.35-.95-1.21-1.3c-1.1-.44-1.67-1.06-1.67-1.85,0-1.02.82-1.86,2.13-1.86.62,0,1.15.18,1.5.4l-.29.76Z"/>
      <path class="cls-1" d="m138.62,4.16c.46-.8,1.21-1.26,2.23-1.26,1.55,0,2.66,1.33,2.66,3.33,0,2.4-1.4,3.5-2.84,3.5-.86,0-1.58-.4-1.97-1.04h-.03v3.57h-.99v-7.11c0-.85-.02-1.51-.05-2.11h.9l.06,1.12h.03Zm.06,2.83c0,1.27.95,1.94,1.84,1.94,1.28,0,1.99-1.1,1.99-2.66,0-1.35-.68-2.55-1.96-2.55-1.12,0-1.87,1.08-1.87,2.03v1.25Z"/>
      <path class="cls-1" d="m149.65,9.32c-.37.18-1.05.41-2.05.41-1.91,0-3.05-1.34-3.05-3.3,0-2.05,1.15-3.53,2.91-3.53,2.02,0,2.53,1.85,2.53,2.99,0,.23-.01.4-.02.55h-4.45c.01,1.81,1.04,2.49,2.22,2.49.81,0,1.31-.17,1.71-.34l.19.72Zm-.63-3.62c.01-.89-.36-2.04-1.64-2.04-1.2,0-1.73,1.14-1.82,2.04h3.47Z"/>
      <path class="cls-1" d="m155.9,9.35c-.29.14-.94.37-1.78.37-1.87,0-3.11-1.33-3.11-3.33s1.33-3.49,3.35-3.49c.73,0,1.32.22,1.57.35l-.25.8c-.28-.16-.71-.34-1.34-.34-1.51,0-2.3,1.21-2.3,2.61,0,1.58.95,2.58,2.27,2.58.65,0,1.09-.18,1.42-.32l.18.77Z"/>
      <path class="cls-1" d="m157.79,1.91c-.38,0-.65-.3-.65-.68s.28-.67.66-.67.65.3.65.67c0,.42-.28.68-.66.68Zm.5,7.69h-.99V3.06h.99v6.54Z"/>
      <path class="cls-1" d="m164.55,8.04c0,.54.01,1.1.1,1.56h-.91l-.1-.84h-.04c-.34.52-1.01.98-1.93.98-1.25,0-1.91-.91-1.91-1.86,0-1.57,1.37-2.42,3.79-2.41,0-.55,0-1.8-1.49-1.8-.56,0-1.15.16-1.59.47l-.24-.68c.53-.35,1.26-.55,1.99-.55,1.85,0,2.33,1.31,2.33,2.6v2.53Zm-.98-1.83c-1.24,0-2.78.18-2.78,1.56,0,.84.53,1.21,1.13,1.21.97,0,1.65-.74,1.65-1.54v-1.24Z"/>
      <path class="cls-1" d="m167.47,9.59h-.99V0h.99v9.59Z"/>
      <path class="cls-1" d="m169.25,10.13h-.8l3.8-9.82h.83l-3.83,9.82Z"/>
      <path class="cls-1" d="m179.25,9.59h-1v-3.86c0-1.07-.38-2-1.52-2-.85,0-1.71.72-1.71,1.86v4.01h-1v-4.86c0-.67-.02-1.16-.05-1.69h.89l.06,1.07h.02c.32-.64,1.08-1.21,2.1-1.21.81,0,2.21.49,2.21,2.71v3.98Z"/>
      <path class="cls-1" d="m185.82,9.32c-.37.18-1.06.41-2.05.41-1.91,0-3.05-1.34-3.05-3.3,0-2.05,1.15-3.53,2.91-3.53,2.02,0,2.53,1.85,2.53,2.99,0,.23-.01.4-.03.55h-4.45c.01,1.81,1.04,2.49,2.22,2.49.82,0,1.31-.17,1.71-.34l.19.72Zm-.64-3.62c.01-.89-.36-2.04-1.64-2.04-1.2,0-1.73,1.14-1.82,2.04h3.47Z"/>
      <path class="cls-1" d="m190.64,3.9c-.11-.01-.22-.02-.36-.02-1.08,0-1.63,1.07-1.63,2.17v3.55h-.99v-4.58c0-.7-.01-1.33-.05-1.96h.88l.05,1.26h.04c.29-.82.97-1.4,1.78-1.4.11,0,.19.02.3.04v.95Z"/>
      <path class="cls-1" d="m192.3,1.91c-.38,0-.65-.3-.65-.68s.28-.67.66-.67.65.3.65.67c0,.42-.28.68-.66.68Zm.5,7.69h-.99V3.06h.99v6.54Z"/>
      <path class="cls-1" d="m203.68,9.59h-.98v-3.78c0-1.27-.46-2.09-1.44-2.09-.8,0-1.54.76-1.54,1.75v4.11h-.98v-4.03c0-1.04-.45-1.83-1.37-1.83-.85,0-1.61.84-1.61,1.86v4.01h-.98v-4.86c0-.67-.02-1.15-.05-1.69h.88l.06,1.06h.04c.36-.64.96-1.2,1.99-1.2.85,0,1.51.53,1.79,1.31h.03c.43-.78,1.09-1.31,2.1-1.31.8,0,2.08.52,2.08,2.76v3.93Z"/>
      <path class="cls-1" d="m209.9,8.04c0,.54.01,1.1.1,1.56h-.91l-.1-.84h-.04c-.34.52-1.01.98-1.93.98-1.25,0-1.91-.91-1.91-1.86,0-1.57,1.37-2.42,3.79-2.41,0-.55,0-1.8-1.49-1.8-.56,0-1.15.16-1.59.47l-.24-.68c.53-.35,1.26-.55,1.99-.55,1.85,0,2.33,1.31,2.33,2.6v2.53Zm-.98-1.83c-1.24,0-2.78.18-2.78,1.56,0,.84.53,1.21,1.13,1.21.97,0,1.65-.74,1.65-1.54v-1.24Z"/>
      <path class="cls-1" d="m212.09,1.87l.98-.34v1.52h1.69v.78h-1.69v3.78c0,.83.25,1.28.89,1.28.3,0,.5-.04.67-.1l.06.77c-.21.1-.55.16-.97.16-1.58,0-1.63-1.44-1.63-2.13v-3.75h-1.01v-.78h1.01v-1.19Z"/>
      <path class="cls-1" d="m221.62,6.27c0,2.43-1.61,3.47-3.06,3.47-1.68,0-2.97-1.26-2.97-3.37,0-2.23,1.39-3.47,3.06-3.47,1.79,0,2.97,1.37,2.97,3.37Zm-3.01-2.59c-1.42,0-2,1.39-2,2.65,0,1.45.8,2.63,1.98,2.63s2.02-1.18,2.02-2.65c0-1.16-.56-2.63-1.99-2.63Z"/>
      <path class="cls-1" d="m231.53,3.05l-2.08,6.55h-.89l-1.03-3.29c-.24-.74-.42-1.4-.58-2.16h-.04c-.16.78-.36,1.46-.6,2.17l-1.09,3.27h-.9l-1.93-6.55h1.03l.91,3.43c.18.73.36,1.4.49,2.07h.04c.14-.65.36-1.36.57-2.06l1.09-3.44h.86l1.04,3.38c.23.77.42,1.46.57,2.12h.04c.12-.65.3-1.33.52-2.11l.96-3.39h1Z"/>
      <path class="cls-1" d="m237.97,9.59h-1v-3.86c0-1.07-.38-2-1.52-2-.85,0-1.71.72-1.71,1.86v4.01h-1v-4.86c0-.67-.02-1.16-.05-1.69h.89l.06,1.07h.02c.32-.64,1.08-1.21,2.1-1.21.81,0,2.21.49,2.21,2.71v3.98Z"/>
      <path class="cls-1" d="m239.7,10.13h-.8l3.8-9.82h.83l-3.83,9.82Z"/>
      <path class="cls-1" d="m244.96,1.91c-.38,0-.65-.3-.65-.68s.28-.67.66-.67.65.3.65.67c0,.42-.28.68-.66.68Zm.5,7.69h-1V3.06h1v6.54Z"/>
      <path class="cls-1" d="m252.68,9.59h-1v-3.86c0-1.07-.38-2-1.52-2-.85,0-1.72.72-1.72,1.86v4.01h-.99v-4.86c0-.67-.02-1.16-.05-1.69h.89l.06,1.07h.03c.32-.64,1.08-1.21,2.1-1.21.82,0,2.21.49,2.21,2.71v3.98Z"/>
      <path class="cls-1" d="m254.88,1.87l.98-.34v1.52h1.69v.78h-1.69v3.78c0,.83.25,1.28.89,1.28.3,0,.5-.04.67-.1l.06.77c-.21.1-.55.16-.97.16-1.58,0-1.63-1.44-1.63-2.13v-3.75h-1.01v-.78h1.01v-1.19Z"/>
      <path class="cls-1" d="m263.49,9.32c-.37.18-1.05.41-2.05.41-1.91,0-3.05-1.34-3.05-3.3,0-2.05,1.15-3.53,2.91-3.53,2.02,0,2.53,1.85,2.53,2.99,0,.23-.01.4-.02.55h-4.45c.01,1.81,1.04,2.49,2.22,2.49.81,0,1.31-.17,1.71-.34l.19.72Zm-.63-3.62c.01-.89-.36-2.04-1.64-2.04-1.2,0-1.73,1.14-1.82,2.04h3.47Z"/>
      <path class="cls-1" d="m268.31,3.9c-.11-.01-.21-.02-.36-.02-1.08,0-1.63,1.07-1.63,2.17v3.55h-1v-4.58c0-.7-.01-1.33-.05-1.96h.88l.05,1.26h.04c.29-.82.97-1.4,1.78-1.4.11,0,.19.02.3.04v.95Z"/>
      <path class="cls-1" d="m274.51,3.06l-2.48,6.54h-.94l-2.41-6.55h1.07l1.31,3.8c.2.59.38,1.14.53,1.68h.04c.14-.54.34-1.09.54-1.68l1.29-3.79h1.05Z"/>
      <path class="cls-1" d="m276.13,1.91c-.38,0-.65-.3-.65-.68s.28-.67.66-.67.65.3.65.67c0,.42-.28.68-.66.68Zm.5,7.69h-1V3.06h1v6.54Z"/>
      <path class="cls-1" d="m283.24,9.32c-.37.18-1.05.41-2.05.41-1.91,0-3.05-1.34-3.05-3.3,0-2.05,1.15-3.53,2.91-3.53,2.02,0,2.53,1.85,2.53,2.99,0,.23-.01.4-.02.55h-4.45c.01,1.81,1.04,2.49,2.22,2.49.81,0,1.31-.17,1.71-.34l.19.72Zm-.63-3.62c.01-.89-.36-2.04-1.64-2.04-1.2,0-1.73,1.14-1.82,2.04h3.47Z"/>
      <path class="cls-1" d="m293.48,3.05l-2.08,6.55h-.89l-1.03-3.29c-.24-.74-.42-1.4-.58-2.16h-.04c-.16.78-.36,1.46-.6,2.17l-1.09,3.27h-.9l-1.93-6.55h1.03l.91,3.43c.18.73.36,1.4.49,2.07h.04c.14-.65.36-1.36.57-2.06l1.09-3.44h.86l1.04,3.38c.23.77.42,1.46.57,2.12h.04c.12-.65.3-1.33.52-2.11l.96-3.39h1Z"/>
      <path class="cls-1" d="m294.48,10.13h-.8l3.8-9.82h.83l-3.83,9.82Z"/>
      <path class="cls-1" d="m302.24,3.9c-.11-.01-.21-.02-.36-.02-1.08,0-1.63,1.07-1.63,2.17v3.55h-1v-4.58c0-.7-.01-1.33-.05-1.96h.88l.05,1.26h.04c.29-.82.97-1.4,1.78-1.4.11,0,.19.02.3.04v.95Z"/>
      <path class="cls-1" d="m303.01,8.98c0-.46.3-.78.72-.78s.71.32.71.78c0,.43-.28.76-.72.76s-.71-.36-.71-.76Z"/>
      <path class="cls-1" d="m311.13,9.59h-1v-3.86c0-1.07-.38-1.99-1.51-1.99-.77,0-1.73.64-1.73,1.84v4.02h-.99V0h.99v4.07h.03c.43-.72,1.22-1.16,2.03-1.16s2.18.49,2.18,2.71v3.98Z"/>
      <path class="cls-1" d="m313.33,1.87l.98-.34v1.52h1.69v.78h-1.69v3.78c0,.83.25,1.28.89,1.28.3,0,.5-.04.67-.1l.06.77c-.21.1-.55.16-.97.16-1.58,0-1.63-1.44-1.63-2.13v-3.75h-1.01v-.78h1.01v-1.19Z"/>
      <path class="cls-1" d="m326.21,9.59h-.98v-3.78c0-1.27-.46-2.09-1.44-2.09-.8,0-1.54.76-1.54,1.75v4.11h-.98v-4.03c0-1.04-.44-1.83-1.37-1.83-.85,0-1.61.84-1.61,1.86v4.01h-.98v-4.86c0-.67-.02-1.15-.05-1.69h.88l.06,1.06h.04c.36-.64.96-1.2,1.99-1.2.85,0,1.51.53,1.79,1.31h.02c.43-.78,1.09-1.31,2.1-1.31.8,0,2.07.52,2.07,2.76v3.93Z"/>
      <path class="cls-1" d="m329.14,9.59h-.99V0h.99v9.59Z"/>
      <path class="cls-1" d="m0,11.09v-.6h332.94v.6H0Z"/>
    </g>
  </g>
</svg>