<?xml version="1.0" encoding="UTF-8"?>
<svg id="_レイヤー_2" data-name="レイヤー 2" xmlns="http://www.w3.org/2000/svg" xmlns:xlink="http://www.w3.org/1999/xlink" viewBox="0 0 125.15 125.15">
  <defs>
    <style>
      .cls-1, .cls-2 {
        fill: #fff;
      }

      .cls-3, .cls-2 {
        stroke: #fff;
        stroke-miterlimit: 10;
        stroke-width: .73px;
      }

      .cls-4 {
        clip-path: url(#clippath);
      }

      .cls-5 {
        fill: none;
      }
    </style>
    <clipPath id="clippath">
      <rect class="cls-5" width="125.15" height="125.15"/>
    </clipPath>
  </defs>
  <g id="_レイヤー_1-2" data-name="レイヤー 1">
    <g class="cls-4">
      <g>
        <g>
          <path class="cls-3" d="m95.88,71.34c-.18,0-.37,0-.55-.02-.18-.02-.26-.13-.22-.31.09-.44.19-.88.3-1.31.03-.12.06-.26.26-.32.2.15.41.34.65.48.23.14.47.25.72.33.27.09.54.15.82.2.26.04.53.08.79.06.28-.01.56-.08.83-.14.26-.06.52-.13.76-.23.26-.1.52-.22.76-.36.22-.13.46-.26.6-.53-.08-.05-.13-.11-.19-.12-.26-.03-.53-.06-.79-.05-.5.02-1-.03-1.49-.13-.76-.15-1.39-.53-1.94-1.07-.39-.39-.72-.83-1.03-1.28-.07-.11-.16-.2-.25-.33-.13.11-.22.2-.33.27-.2.14-.4.3-.62.42-.35.18-.73.22-1.11.07-.11-.04-.22-.07-.34-.11-.05.12-.11.22-.14.33-.26.89-.3,1.8-.17,2.72.05.38.15.75.22,1.13.04.22-.02.32-.24.34-.13.01-.27.01-.4.01-2.23,0-4.47,0-6.7,0-.18,0-.36-.02-.54-.03-.27-.31-.27-.73-.46-1.04-.16-.02-.17.11-.22.18-.22.32-.46.61-.76.86-.41.34-.88.52-1.43.51-.35,0-.66-.08-.9-.35-.12-.14-.26-.19-.44-.18-.28,0-.57,0-.85,0-1.8,0-3.6,0-5.4,0-.17,0-.33,0-.51,0-.08.12-.16.22-.23.33-.7,1.06-2.12,1.07-2.94.21-.05-.05-.09-.1-.13-.15-.12-.18-.05-.35.16-.35.58,0,1.11-.18,1.65-.35.22-.07.45-.09.68-.12.13-.02.26-.03.38-.04.08-.23.02-.42-.05-.61-.15-.43-.44-.75-.83-.96-.78-.42-1.6-.54-2.47-.34-.39.09-.69.32-.86.7-.08.19-.07.35.07.5.16.17.32.34.48.51.08.08.16.17.24.26.07.08.14.18.07.27-.05.07-.16.11-.25.13-.15.02-.3.01-.45.01-2.72,0-5.43,0-8.15,0-.2,0-.4,0-.6.01-.1.15-.2.28-.29.42-.34.49-.78.86-1.33,1.1-.39.17-.8.24-1.22.2-.75-.06-1.22-.55-1.25-1.3,0-.1,0-.2,0-.26-.13-.16-.27-.12-.39-.12-1.98-.02-3.97-.03-5.95-.05-1.47,0-2.93-.01-4.4-.01-.11,0-.23.02-.35.04-.04.2-.07.38-.11.55-.14.66-.57,1.05-1.23,1.13-.5.06-1,.02-1.48-.14-.51-.16-.76-.49-.78-1.03,0-.21,0-.43,0-.65-.28-.12-.54-.08-.79-.05-.12.14-.1.29-.12.44-.02.15-.03.3-.07.44-.06.27-.22.48-.47.62-.46.26-.94.41-1.48.38-.74-.04-1.33-.54-1.48-1.26-.03-.13-.04-.26-.07-.41-.1-.02-.2-.05-.29-.05-.15,0-.3,0-.45,0-4.52,0-9.03,0-13.55,0-.17,0-.33,0-.5,0-.08,0-.16-.04-.23-.08-.08-.05-.06-.22.03-.25.06-.02.13-.05.19-.05.15,0,.3,0,.45,0,4.73,0,9.47,0,14.2,0,.23,0,.46-.02.72.08-.03.13-.04.24-.08.34-.07.2-.05.39.04.58.24.5.62.76,1.19.74.39-.02.75-.15,1.09-.33.15-.08.24-.22.29-.39.07-.24.09-.49.06-.72-.1-.14-.24-.15-.37-.16-.28-.02-.42-.19-.46-.45-.03-.18-.04-.36-.04-.55,0-.5-.09-.99-.22-1.48-.03-.09-.07-.18-.12-.29-.27.02-.53.05-.75.07-.17-.12-.2-.27-.25-.41-.39-1.05-.62-2.14-.78-3.25-.21-1.5-.29-3.02-.31-4.53-.02-1.38-.06-2.76-.13-4.15-.09-2.07-.48-4.1-1.1-6.07-.31-.98-.55-1.99-.71-3.01-.2-1.38-.23-2.75-.09-4.13.07-.7.19-1.38.36-2.06.04-.19.04-.41.26-.53.82.22,1.65.46,2.49.66.83.2,1.67.32,2.52.39.86.06,1.73.14,2.6.08,1.89-.12,2.13-.14,2.55-.32-.1-.06-.17-.13-.26-.14-.25-.03-.5-.06-.74-.06-1.07,0-2.13.06-3.2.01-1.82-.08-3.62-.31-5.36-.87-.28-.09-.57-.19-.85-.3-.31-.12-.37-.19-.32-.53.06-.39.13-.79.25-1.17.14-.44.34-.87.51-1.3.03-.07.06-.15.1-.27-.13,0-.22,0-.32.02-.6.08-1.08-.14-1.43-.62-.27-.37-.39-.8-.44-1.26-.09-.85-.04-1.7.18-2.53.04-.16.07-.32.12-.52-.1-.09-.22-.19-.33-.29-.57-.55-.8-1.2-.57-1.99.36-1.26.87-2.44,1.58-3.55.21-.32.45-.62.76-.86.4-.32.85-.51,1.37-.53.36-.01.69.08.99.29.12.08.24.18.36.27.49.39,1.07.54,1.68.52,1.02-.04,1.94-.41,2.85-.84q-.14-.2-.45-.34c-1.07.65-2.65.62-3.6-.27-.1.05-.2.1-.3.14-.38.17-.77.19-1.17.05-.2-.07-.41-.15-.59-.25-.61-.35-1.17-.77-1.67-1.26-1.24-1.24-1.43-2.65-.57-4.18.4-.71.95-1.29,1.55-1.82,1.06-.93,2.28-1.55,3.64-1.9.44-.11.85-.12,1.27.08.04.02.1.02.14.03.04-.03.09-.05.13-.08.83-.74,1.78-.84,2.8-.54.86.25,1.55.76,2.13,1.42.77.89,1.24,1.93,1.49,3.07.09.39.14.79.18,1.18.1.95-.18,1.78-.88,2.45-.35.33-.74.63-1.11.94-.1.08-.2.17-.32.27.06.05.09.09.13.1.71.19,1.23.64,1.67,1.21.57.75.97,1.59,1.23,2.5.15.51.29,1.02.56,1.49.13.22.19.47.15.72-.03.24.04.4.24.55.47.36.43.76-.1,1.05-.14.08-.3.14-.46.22,0,.12,0,.23,0,.35.11,1.32,0,2.63-.39,3.9-.07.24-.16.47-.26.7-.18.42-.48.67-.95.7-.11,0-.22.05-.34.08,0,.09-.03.15-.02.21.11.91.21,1.82.32,2.73.06.45,0,.87-.33,1.22.05.11.1.21.14.32.08.24.18.47.23.71.22,1.17.27,2.34.17,3.53-.13,1.51-.41,3-.7,4.49-.36,1.87-.55,3.75-.47,5.66.05,1.23.12,2.46.14,3.69.02.9.02,1.8-.04,2.7-.09,1.45-.38,2.87-.81,4.26-.04.13-.09.25-.15.37-.12.24-.31.39-.58.43-.05,0-.1.02-.15.02-.69.05-1.36-.03-2.02-.23-.29-.09-.43-.3-.45-.6-.01-.17,0-.33,0-.5,0-3.18,0-6.36,0-9.54,0-1.68-.08-3.36-.24-5.04-.12-1.33-.32-2.64-.49-3.96-.01-.11-.07-.21-.14-.4-.06.22-.12.36-.14.5-.24,1.27-.33,2.54-.25,3.83.09,1.3.16,2.59.27,3.89.12,1.45.18,2.89.08,4.34-.05.73-.16,1.45-.25,2.18-.11.91-.24,1.82-.33,2.73-.06.61-.06,1.23.04,1.84.02.15.04.3.05.45.02.32-.03.4-.35.51-.17.06-.36.08-.53.13-.11.03-.21.08-.29.11-.01.14.08.13.13.13.34.01.51.23.61.51.08.24.16.48.2.72.08.42.14.85.21,1.28.01.08.01.17.03.25.02.13.1.21.23.22.18.02.37.02.55.03.12,0,.23,0,.35.02.19.03.26.11.25.3,0,.12-.04.23-.05.35-.02.13-.04.26-.04.4,0,.33.16.57.49.68.43.15.88.2,1.33.14.54-.07.85-.41.91-.96,0-.02-.03-.05-.06-.1-.11.1-.21.21-.32.3-.28.23-.58.3-.93.19-.28-.09-.51-.24-.69-.47-.24-.31-.4-.66-.42-1.05-.02-.3-.04-.6,0-.9.09-.64.21-1.28.32-1.9.2-.15.39-.17.59-.18.44-.03.86.04,1.28.15.25.06.37.19.39.45.03.35.07.7.1,1.04.04.45.08.9.12,1.34,0,.08.03.16.05.26.1.02.19.06.28.06.62.02,1.23.04,1.85.04,2.77,0,5.53,0,8.3,0,.38,0,.77.03,1.15.06.07,0,.14.07.25.12-.05.12-.09.22-.15.32-.24.44-.1.9.34,1.13.26.14.55.16.83.11.78-.13,1.37-.55,1.79-1.21-.04-.05-.05-.09-.08-.1-.43-.13-.43-.13-.34-.54.11-.49.32-.94.56-1.38.23-.42.17-.66-.22-.93-.16-.11-.33-.17-.52-.16-.22.01-.43.04-.65.05-.2.01-.4.03-.6.01-.45-.06-.67-.28-.77-.72-.08-.38-.1-.76-.06-1.14.07-.58.16-1.15.22-1.73.09-.71.19-1.42.13-2.14-.04-.48-.08-.96-.13-1.44-.12-1.28-.12-2.56.2-3.82.1-.4.16-.82.24-1.22.17-.86.11-1.73-.04-2.58-.48-2.72-.56-5.47-.43-8.21.08-1.65.22-3.29.44-4.92.08-.58.14-1.16.21-1.74.02-.14,0-.28,0-.44-.14.07-.15.2-.19.3-.27.66-.53,1.33-.8,1.99-.3.73-.64,1.43-1.06,2.09-.1.15-.21.3-.33.44-.16.17-.38.22-.6.14-.21-.07-.32-.24-.33-.46-.02-.53-.06-1.06-.04-1.6.02-.72.09-1.43.14-2.14.13-1.68.41-3.34.85-4.96.28-1.06.56-2.13.71-3.22.1-.74.18-1.49.25-2.23.09-.98.17-1.96.26-2.94.01-.15.02-.29.03-.48-.12-.01-.21-.04-.3-.02-.8.12-1.59.08-2.39.03-1.05-.07-2.08-.26-3.09-.54-.19-.05-.38-.12-.56-.2-.45-.2-.7-.55-.74-1.04-.03-.33,0-.66.07-.99.54-2.12,1.45-4.07,2.73-5.85.22-.3.47-.56.78-.77.27-.18.57-.28.9-.23.15.02.29.07.39.24-.15.46-.64.68-.85,1.12.14.19.35.21.54.23.46.05.92.11,1.4-.08-.03-.11-.03-.21-.07-.29-.08-.16-.16-.33-.28-.47-.55-.68-.63-1.46-.45-2.27.23-1.11.63-2.17,1.16-3.18.09-.18.21-.34.33-.5.07-.09.17-.16.27-.21.19-.1.42-.01.4.25,0,.17-.02.33-.02.49.12.05.16-.04.21-.1.16-.19.32-.39.48-.58.16-.19.35-.23.58-.14.12.05.25.08.37.13.1.05.22.1.28.19.09.11.18.18.32.21.15.03.22.15.24.29.04.23.03.46-.03.69-.1.34-.28.64-.49.92-.17.23-.35.45-.51.68-.15.22-.27.46-.27.74,0,.13.01.27.06.39.1.29.31.42.62.39.22-.02.43-.05.65-.07.22-.01.39.08.52.25.18.23.14.55-.12.69-.23.12-.49.2-.75.26-.49.11-.98.2-1.47.3-.42.09-.78.28-1.08.58-.22.22-.39.45-.4.78,0,.26-.14.47-.27.69-.42.72-.85,1.43-1.27,2.15-.07.11-.12.23-.18.34.09.09.17.05.24.02.87-.39,1.59-.97,2.17-1.72.1-.13.2-.26.28-.37.19-.1.36-.06.52-.03.99.19,1.96.03,2.91-.26.21-.06.4-.16.61-.23.72-.26,1-.83,1.11-1.53.02-.15,0-.3,0-.45,0-.26-.09-.47-.29-.66-.66-.63-.84-1.45-.82-2.33,0-.3.13-.55.42-.69.07-.04.14-.09.22-.13.02-.25.03-.5.06-.75.11-.96.47-1.79,1.15-2.49,1.22-1.25,3.2-1.04,4.22.27.17.21.32.4.59.51.33.12.52.41.62.74.2.64.16,1.29-.05,1.91-.11.33-.13.62-.06.97.16.82-.06,1.56-.71,2.12-.41.35-.64.79-.78,1.3-.24.85-.51,1.69-.77,2.53-.04.14-.08.28-.12.42.27.17.52.33.77.48.11-.14.13-.3.14-.46.02-.45.04-.9-.05-1.34-.06-.28-.02-.41.1-.44.19-.04.26.12.34.24.38.54.88.95,1.47,1.25.62.31,1.26.59,1.9.89.29.13.58.26.86.39.6.28.85.77.82,1.41-.01.27-.04.53-.06.8-.04.51.05.99.28,1.45.17.34.33.69.5,1.04.38.8.51,1.64.39,2.53-.08.54-.16,1.09-.08,1.64.04.26.08.53.17.78.23.61.36,1.25.43,1.89.19,1.55.37,3.11.38,4.68,0,1.5-.1,3-.56,4.44-.04.13-.08.26-.13.38-.05.12-.13.23-.21.39.19.62.18,1.28.15,1.95-.02.47-.12.93-.34,1.35-.47.89-1.17,1.39-2.21,1.3-.06,0-.13.01-.21.02,0,.08-.02.14-.01.2.38,1.72.41,3.47.35,5.22-.03,1.04.06,2.06.26,3.08.2,1,.29,2.01.19,3.03-.13,1.46-.27,2.92-.4,4.38-.03.36-.06.73-.11,1.09-.06.46.02.89.24,1.3.19.36.31.73.39,1.13.08.44.03.86-.07,1.29-.03.14-.12.24-.27.26-.12.02-.23.04-.35.05-.71.04-1.37.26-2.01.56-.12.06-.24.11-.37.17-.07-.06-.15-.11-.18-.17-.53-.97-1.02-1.94-1.3-3.02-.21-.8-.23-1.61-.15-2.43.06-.56.12-1.13.2-1.69.11-.79.03-1.56-.18-2.32-.12-.43-.24-.87-.34-1.3-.15-.65-.17-1.32-.14-1.99.1-1.89-.24-3.71-.79-5.51-.47-1.51-.96-3.01-1.44-4.52-.04-.12-.1-.24-.17-.42-.07.15-.12.23-.15.31-.46,1.55-.82,3.12-1.04,4.72-.14,1.01-.23,2.02-.29,3.03-.05.87-.23,1.71-.62,2.5-.24.47-.41.95-.41,1.48,0,.35.03.7.06,1.05.03.28.07.56.11.84.11.67.07,1.33-.07,1.98-.07.33-.15.65-.21.98-.1.5-.1.99.04,1.48.11.37.21.74.32,1.1.17.58.13,1.15-.05,1.72-.15.46-.36.89-.6,1.32-.18.32-.36.64-.55.95-.09.15-.16.3-.13.47.07.53.08,1.06-.09,1.6.11.03.19.06.26.07.1.01.2,0,.3,0,2.47,0,4.93,0,7.4,0,.18,0,.37.05.53-.07-.02-.17-.15-.26-.26-.35-.32-.26-.35-.58-.21-.94.21-.52.61-.82,1.13-.98.41-.13.82-.12,1.24-.08.42.03.82.12,1.21.29.78.34,1.32.89,1.46,1.76.01.07.03.13.05.19,0,.03.02.06.05.12.08.01.17.05.26.05,2.13.01,4.27.02,6.4.03.07,0,.13,0,.2,0,.19,0,.37.05.47.22.16.26.41.31.69.32.42,0,.78-.15,1.1-.4.49-.38.8-.89,1.04-1.44.05-.12.08-.26.07-.39-.05-.6-.11-1.19-.17-1.78-.13,0-.15.09-.18.16-.14.3-.26.62-.43.9-.45.73-1.09,1.21-1.93,1.39-.33.07-.66.08-.98-.05-.15-.06-.2-.18-.12-.32.06-.12.14-.23.22-.34.77-1.14,1.37-2.36,1.77-3.68,0-.03.02-.06.03-.09.17-.52.33-.64.86-.67.1,0,.19-.02.31-.03-.04-.07-.06-.13-.09-.14-.2-.09-.41-.14-.63-.13-.32.01-.63.03-.95.02-.28,0-.57-.01-.85-.05-.14-.02-.28-.11-.41-.18-.12-.07-.2-.18-.21-.32,0-.07,0-.13,0-.2.03-.98.05-1.96.08-2.95.07-2.45.28-4.89.21-7.34-.03-1.25-.07-2.5-.19-3.74-.1-1.01-.22-2.02-.32-3.03-.04-.4-.04-.8-.04-1.2,0-.37.03-.73.05-1.1.04-.76-.13-1.46-.59-2.07-.38-.5-.4-1-.13-1.54.04-.07.06-.16.11-.22.38-.53.44-1.17.59-1.78,0-.01-.01-.03-.03-.06-.43.41-.67.99-1.16,1.38-.1-.08-.19-.13-.24-.21-.64-1.11-1.26-2.23-1.59-3.49-.12-.47-.16-.95-.22-1.43-.03-.26-.06-.53-.13-.79-.16-.61-.08-1.19.18-1.75.14-.3.29-.6.45-.89,1.19-2.22,2.29-4.47,3.29-6.78.03-.08.07-.15.1-.23.18-.44.5-.73.93-.92.97-.43,1.99-.52,3.03-.44.18.01.36.07.56,0,.07-.24-.01-.46-.1-.66-.02-.05-.14-.08-.21-.07-.16.02-.32.06-.5.1-.03-.11-.06-.18-.08-.26-.04-.19-.13-.26-.3-.2-.06.02-.12.06-.16.11-.06.06-.09.14-.15.2-.38.39-.91.36-1.26-.06-.05-.06-.1-.13-.16-.19,0-.01-.03-.01-.07-.03-.15.01-.22.16-.33.25-.36.3-.79.22-.99-.2-.06-.12-.1-.25-.11-.38-.02-.41-.19-.74-.47-1.02-.04-.04-.07-.07-.1-.11-.15-.19-.15-.4-.04-.61.09-.16.2-.31.28-.43-.01-.21-.15-.29-.26-.38-.4-.36-.5-.8-.38-1.31.07-.3.19-.57.39-.8.17-.21.34-.41.53-.6.4-.41.69-.89.85-1.45.08-.29.18-.57.3-.85.18-.41.48-.71.91-.88.23-.09.45-.11.68-.02.08.03.15.06.23.09.31.12.59.08.83-.15.12-.11.24-.23.36-.34.33-.32.72-.54,1.15-.67.4-.12.81-.2,1.23-.2.48,0,.97,0,1.45,0,.39,0,.76.08,1.13.2.55.18.97.51,1.18,1.07.15.4.39.69.78.86.09.04.17.1.25.16.24.18.38.42.38.73,0,.2,0,.4-.02.6-.01.24.03.46.22.63.43.4.35.76-.06,1.09-.58.48-.5.59-.25,1.2.06.15.13.31.17.47.1.39-.07.69-.46.82-.12.04-.26.06-.39.07-.27.02-.48.11-.6.37-.32.68-1.09.48-1.41.1-.14-.17-.23-.36-.28-.58-.05-.21-.08-.42-.12-.64-.08-.49-.29-.92-.64-1.28-.33-.34-.71-.6-1.14-.79-.62-.27-1.27-.4-1.93-.49-.06,0-.13,0-.19,0-.28.42-.48,1.29-.52,2.17-.05,1.01.05,1.99.48,2.9.04.02.06.03.07.03.09-.04.18-.09.29-.14.07.06.15.11.22.18.06.06.11.13.17.19.44.41.94.56,1.52.36.56-.19.86-.61.97-1.17.02-.11.02-.23.04-.35.01-.09.07-.17.16-.16.07,0,.16.05.2.1.05.06.06.15.1.22.04.07.08.17.14.19.19.08.27.23.32.41.11.35.36.59.65.79.46.32,1,.45,1.53.57.36.08.72.13,1.07.22.3.08.6.2.89.32.26.11.43.3.49.59.16.73.35,1.46.47,2.19.17.99.22,1.98.21,2.99-.02,1.68-.28,3.31-.73,4.93-.28,1.01-.53,2.03-.82,3.04-.13.45-.12.87.01,1.32.23.78.41,1.58.6,2.37.07.29.11.59.16.88.03.21-.06.35-.25.44-.32.15-.66.23-1.02.18-.23-.03-.31-.11-.35-.35-.12-.71-.11-1.43-.04-2.14.06-.55.16-1.09.24-1.63.04-.25.03-.49-.03-.74-.23-.87-.44-1.74-.66-2.61-.03-.11-.07-.21-.14-.41-.31.9-.57,1.72-.87,2.52-.3.81-.62,1.62-.96,2.41-.34.79-.72,1.57-1.09,2.38.08.04.15.09.22.11.44.15.81.39,1.11.74.15.17.29.33.55.26.27-.08.49-.2.59-.48.03-.08.05-.16.09-.23.02-.04.09-.07.12-.06.06.01.13.05.15.1.04.07.04.16.05.24.02.37.06.73.06,1.1.03,1.75.16,3.49.29,5.24.13,1.76.32,3.51.54,5.27.23,1.83.51,3.66.84,5.48.31,1.69.63,3.37,1.01,5.04.03.13.03.26.04.41-.11.07-.2.14-.3.18-1.15.5-2.35.84-3.58,1.08-.14.03-.29.02-.46.03-.06-.12-.12-.22-.15-.33-.38-1.35-.69-2.71-.91-4.09-.21-1.35-.32-2.71-.42-4.07-.1-1.38-.33-2.74-.7-4.08-.69-2.52-1.38-5.04-2.08-7.56-.04-.14-.09-.28-.15-.48-.07.15-.12.24-.15.33-.29,1.13-.49,2.28-.62,3.44-.21,1.94-.25,3.89-.3,5.84-.05,1.9-.13,3.8-.22,5.69-.05.95-.16,1.89-.24,2.84-.03.35-.07.7-.11,1.04-.02.18.03.33.15.46.4.43.49.97.52,1.53.04.75-.06,1.5-.27,2.22-.09.32-.11.62-.02.93.09.33.11.69.33.97.48.07,4.33.1,6.81.05.1,0,.19-.02.33-.03,0-.11,0-.21-.02-.3-.17-.8-.23-1.61-.16-2.43.05-.57.19-1.11.4-1.64.04-.09.08-.19.15-.26.05-.04.15-.05.22-.04.04,0,.08.05.12.08.5.37.92.38,1.41.03.16-.12.31-.26.44-.4.42-.46.52-.42.85.07.29.43.59.85.92,1.24.56.66,1.26,1.09,2.12,1.22.46.07.93.05,1.39.08.25.01.5.04.74.07.19.03.34.13.46.28.12.15.14.32.01.46-.18.19-.38.38-.59.53-.49.35-1.06.56-1.64.72-.2.05-.4.1-.61.15.09.13.19.1.29.1m-61.99-38.83c.13-.01.26-.02.39-.03.71-.08,1.43-.15,2.06.3.05-.05.09-.08.12-.12.23-.23.34-.22.46.08.13.33.36.56.66.72.2.11.42.2.64.29.73.28,1.46.55,2.19.83.36.13.72.25,1.11.3.42.06.83.02,1.22-.16.35-.16.39-.23.37-.61-.02-.23-.05-.46-.05-.7-.03-1.25.42-2.27,1.48-2.99.36-.24.74-.37,1.18-.33.11,0,.22-.01.32-.02.13-.25.05-.47-.06-.65-.3-.51-.44-1.07-.61-1.63-.26-.88-.66-1.71-1.24-2.43-.26-.33-.57-.6-.95-.8-.36-.18-.73-.22-1.11-.06-.38.16-.76.33-1.14.5-.41.19-.81.39-1.22.57-.68.29-1.37.51-2.11.59-.86.09-1.66-.05-2.35-.61-.05-.04-.11-.08-.16-.12-.46-.37-.97-.4-1.5-.18-.25.1-.48.24-.66.45-.23.26-.46.53-.64.82-.46.73-.83,1.52-1.11,2.34-.12.35-.21.7-.32,1.05-.13.46,0,.86.28,1.21.44.55,1.04.79,1.75.88.02-.1.05-.18.05-.26-.03-.52-.08-1.03-.11-1.54-.02-.38-.04-.76-.05-1.15,0-.15.15-.24.28-.17.12.06.23.13.33.21.39.34.62.78.69,1.29.07.48.05.96-.05,1.44-.05.23-.09.45-.14.68-.11,0-.23,0-.34.03-.04,0-.07.08-.1.13.04.01.1.05.13.04.11-.05.25-.08.31-.2Zm34.86,35.39c.15-.41.15-.75.08-1.1-.07-.38-.22-.73-.39-1.07-.19-.36-.27-.75-.25-1.16.01-.17.01-.33.03-.5.09-.99.19-1.99.29-2.98.05-.53.11-1.06.15-1.59.1-1.22.11-2.43-.15-3.63-.22-1.06-.32-2.14-.27-3.23.03-.57.03-1.13.02-1.7-.02-.62-.04-1.23-.12-1.84-.16-1.36-.5-2.68-.86-4-.03-.11-.08-.21-.13-.34-.09,0-.17,0-.25,0-.37,0-.59-.18-.7-.52-.04-.11-.07-.22-.1-.33-.71-2.4-1.17-4.85-1.42-7.34-.17-1.67-.29-3.35-.29-5.03,0-.87,0-1.73,0-2.6,0-1.58.08-3.16.18-4.74.06-.9.09-1.8.13-2.69,0-.07.04-.17-.09-.19-.07.13-.13.27-.21.4-.07.11-.23.1-.29-.01-.05-.09-.07-.18-.11-.28-.05-.12-.08-.26-.15-.37-.21-.33-.51-.32-.68.03-.04.07-.07.15-.1.23-.16.38-.32.77-.49,1.15-.05.12-.11.24-.18.36-.03.05-.11.1-.16.09-.07-.02-.16-.07-.19-.13-.06-.12-.07-.25-.12-.38-.11-.33-.2-.67-.34-.99-.11-.27-.35-.39-.64-.39-.27,0-.49.2-.58.48-.03.09-.04.19-.07.29-.02.09-.09.16-.18.14-.07-.02-.15-.09-.17-.15-.04-.12-.05-.26-.04-.39.03-.58.05-1.16.1-1.74.02-.25.07-.49.13-.74.05-.21.23-.25.38-.1.08.08.16.17.23.26.35.45.64.93.9,1.44.05.1.09.22.16.31.15.23.37.33.64.32.24-.01.32-.2.41-.39,0-.02.01-.03.02-.05.24-.68.47-1.35.7-2.03.02-.07,0-.15,0-.26-.18.09-.31.15-.44.22-.45.24-.94.25-1.41.14-.57-.13-.97-.5-1.23-1.02-.08-.16-.16-.31-.26-.52-.13.35-.32.62-.17.96.02.04,0,.1-.01.15-.13.8-.25,1.61-.39,2.41-.38,2.15-.81,4.28-1.28,6.41-.5,2.24-1.08,4.46-1.69,6.68-.04.13-.08.25-.15.37-.02.04-.12.08-.17.07-.05,0-.12-.07-.13-.12-.02-.08-.01-.16,0-.24.03-.16.07-.33.11-.49.29-1.27.49-2.55.65-3.84.14-1.12.21-2.25.26-3.39.06-1.45,0-2.9-.12-4.34-.03-.32-.06-.63-.08-.95-.02-.22.05-.3.28-.33.23-.03.46-.04.7-.07.09-.01.18-.06.26-.09-.04-.23-.09-.42-.09-.62,0-.19.04-.38.06-.6-.15.03-.26.05-.37.08-.73.2-1.47.28-2.23.23-.17-.01-.33-.03-.5-.05-.14-.02-.26.03-.36.13-.07.07-.13.15-.19.23-.69.87-1.55,1.51-2.6,1.87-.34.12-.57.3-.73.62-.12.24-.26.47-.43.67-.17.2-.37.39-.57.55-.23.19-.51.23-.8.21-.28-.02-.38-.15-.35-.43.03-.24.11-.45.25-.65.22-.32.5-.58.85-.75.2-.09.39-.2.6-.25.36-.09.56-.31.74-.62.44-.77.9-1.52,1.35-2.28.09-.16.19-.32.26-.48.03-.07.02-.15.04-.26-.18.01-.33,0-.47.03-.49.08-.96-.01-1.43-.13-.08-.02-.16-.05-.23-.09-.26-.15-.35-.42-.2-.68.05-.1.14-.19.21-.28.08-.1.16-.2.24-.3-.09-.09-.17-.06-.24-.01-.33.2-.59.49-.81.8-1.17,1.65-2.01,3.45-2.54,5.39-.06.21-.11.42-.13.64-.07.77.12,1.06.87,1.28,1.63.48,3.29.68,4.99.6.17,0,.33-.02.49-.06.29-.07.41-.27.34-.57-.04-.16-.11-.31-.17-.47-.28-.72-.31-1.46-.19-2.21.02-.13.07-.26.13-.38.09-.18.24-.27.44-.26.21.01.33.13.4.32.09.22.08.46.06.69-.09,1.01-.17,2.02-.25,3.04-.13,1.54-.26,3.09-.4,4.63-.12,1.33-.35,2.64-.7,3.93-.29,1.08-.55,2.16-.73,3.26-.26,1.58-.38,3.17-.43,4.77-.01.37.01.73.03,1.1,0,.07.05.15.08.24.09-.04.16-.06.2-.1.1-.11.19-.23.26-.36.38-.63.7-1.29.99-1.96.6-1.39,1.11-2.82,1.6-4.25.07-.2.15-.4.23-.6.14,0,.26-.02.37,0,.15.03.28.1.42.15,1.31.45,2.62.88,3.99,1.08,1.06.16,2.12.17,3.18-.06.18-.04.35-.09.53-.13.17-.04.27.03.28.19.01.38.05.76.15,1.14.05.17-.03.28-.2.35-.08.03-.16.04-.24.06-.97.26-1.95.21-2.93.14-.53-.04-1.06-.1-1.59-.16-1.2-.13-2.36-.41-3.43-.99-.1-.05-.21-.08-.34-.13-.04.17-.08.32-.1.46-.05.33-.09.66-.13.99-.12,1.04-.25,2.08-.36,3.12-.08.76-.17,1.52-.22,2.29-.1,1.33-.13,2.66-.12,3.99,0,1.79.18,3.56.46,5.32.15.96.22,1.92.04,2.88-.08.43-.16.85-.26,1.27-.24,1.05-.3,2.11-.2,3.18.04.46.1.93.13,1.39.04.7.06,1.4-.03,2.1-.1.76-.2,1.52-.27,2.28-.03.33,0,.67.03.99.04.37.18.48.56.49.1,0,.2-.01.3-.02.22-.01.43-.03.65-.04.42-.02.79.1,1.09.4.07.07.12.17.24.15.41-.49,1.04-1.72,1.19-2.29.14-.53.12-1.05-.05-1.57-.09-.28-.17-.57-.26-.86-.16-.54-.16-1.08-.06-1.63.07-.34.15-.68.23-1.02.11-.49.16-.99.11-1.49-.04-.38-.09-.76-.14-1.14-.06-.54-.16-1.09-.04-1.64.09-.45.25-.86.44-1.27.35-.73.51-1.51.56-2.31.07-1.25.2-2.49.4-3.72.26-1.61.66-3.19,1.16-4.75.04-.13.09-.25.15-.37.03-.05.1-.12.15-.11.07.01.17.06.19.12.08.16.13.34.19.52.61,1.92,1.23,3.83,1.81,5.76.48,1.57.71,3.18.64,4.83-.02.37,0,.73,0,1.1,0,.42.07.83.18,1.23.1.37.2.74.3,1.11.19.68.27,1.37.21,2.08-.06.7-.14,1.39-.23,2.08-.09.69-.06,1.36.1,2.03.24,1,.66,1.92,1.16,2.8.03.05.09.08.15.14.76-.37,1.57-.56,2.41-.66Zm19.08-1.67c.1,0,.18.01.26,0,.34-.07.68-.14,1.02-.23.69-.17,1.37-.4,2.04-.67.27-.11.3-.17.25-.46-.06-.31-.14-.62-.2-.93-.29-1.52-.59-3.04-.87-4.56-.34-1.85-.59-3.71-.82-5.58-.13-1.09-.24-2.18-.34-3.28-.11-1.18-.2-2.36-.28-3.54-.06-.91-.09-1.83-.13-2.74-.01-.21-.01-.43-.06-.63q-.32.03-.62.22c.02.12.05.24.07.37.08.44.08.87-.14,1.26-.43.78-.96,1.48-1.64,2.06-.27.23-.57.4-.92.49-.35.1-.66.01-.95-.17-.23-.15-.25-.26-.12-.5.18-.34.37-.67.55-1.01.04-.07.09-.14,0-.26-.06.03-.14.05-.21.08-.12.05-.24.12-.36.16-.11.04-.25-.05-.24-.17,0-.08.01-.17.03-.25.13-.63.41-1.19.8-1.7.47-.61,1.05-1.07,1.87-1.15-.26-.48-.8-.28-1.13-.53.02-.29.01-.29.14-.53,1.23-2.41,2.21-4.91,2.98-7.51.11-.36.14-.71.04-1.08-.13-.52-.19-1.05-.21-1.58-.02-.64.05-1.26.35-1.84.27-.52.66-.92,1.17-1.2.19-.1.33,0,.32.21,0,.08-.01.17-.03.25-.15.73-.29,1.47-.45,2.2-.16.7-.34,1.39-.51,2.08-.05.21-.11.41-.05.64.23.94.45,1.88.68,2.81.02.08.02.2.16.22.04-.1.08-.19.1-.28.26-.95.51-1.89.76-2.84.35-1.32.55-2.67.62-4.04.05-1.14-.03-2.27-.21-3.38-.1-.66-.28-1.3-.41-1.95-.06-.31-.24-.51-.53-.61-.22-.08-.44-.16-.66-.21-.34-.08-.68-.14-1.03-.21-.69-.14-1.35-.35-1.91-.81-.03-.03-.08-.02-.15-.04,0,.12-.02.22-.01.31.09,2.32.03,4.63-.09,6.94-.03.52-.07,1.03-.11,1.54-.08.93-.16,1.86-.27,2.78-.11.93-.25,1.85-.37,2.77-.01.08-.03.16-.05.24-.03.09-.15.16-.24.13-.11-.04-.22-.09-.32-.13-1.37-.62-2.79-1.09-4.26-1.4-.18-.04-.36-.07-.53-.13-.07-.02-.12-.09-.21-.16.07-.15.14-.28.2-.41.14-.32.3-.63.41-.96.41-1.23.45-2.48.25-3.75-.07-.46-.15-.92-.19-1.38-.05-.61.08-1.19.42-1.72.16-.25.32-.51.46-.77.41-.74.65-1.53.66-2.38,0-.11-.04-.22-.06-.33-.14-.02-.26-.03-.37-.04-.33-.01-.67-.01-1-.02-.57-.02-1.12.08-1.67.25-.6.18-.99.55-1.24,1.13-1.01,2.39-2.17,4.72-3.4,7.01-.13.23-.25.47-.35.72-.19.46-.23.93-.13,1.42.09.39.12.79.18,1.18.03.23.05.46.1.69.24,1.23.8,2.32,1.43,3.38.02.03.08.04.16.08.45-.58.9-1.15,1.32-1.75.09-.13.11-.27.04-.43-.07-.17-.14-.34-.2-.51-.16-.44-.33-.87-.46-1.32-.34-1.12-.25-2.2.28-3.25.13-.25.26-.5.4-.75.2-.34.4-.69.63-1.02.19-.28.23-.56.18-.9-.13-.74-.2-1.49-.06-2.24.06-.31.14-.62.3-.89.05-.09.14-.17.21-.23.23.05.3.2.38.35.3.55.35,1.14.27,1.75-.07.53-.23,1.04-.47,1.52-.11.22-.13.43-.11.67.06.68.12,1.36.13,2.04.03,1.9-.31,3.74-.97,5.52-.1.28-.22.56-.32.84-.02.07-.07.15.04.23.16-.13.33-.27.5-.4.08-.06.17-.11.26-.15.09-.04.22.06.21.15-.01.11-.03.23-.08.34-.26.62-.61,1.18-1.06,1.69-.04.05-.1.08-.15.11-.12-.04-.23-.08-.33-.11-.15.17-.22.36-.28.54-.08.25-.06.49.09.72.06.08.12.16.17.24.35.54.57,1.13.58,1.78.01.55-.03,1.1-.04,1.65,0,.32-.01.63.02.95.07.73.16,1.46.24,2.18.12,1.03.19,2.06.24,3.09.08,1.75.08,3.5,0,5.24-.07,1.56-.15,3.13-.22,4.69-.03.6-.03,1.2-.03,1.8,0,.13.03.26.04.35.27.18.54.2.81.19.33,0,.67,0,1-.02.43-.02.83.04,1.2.26.02.01.06,0,.12,0,.02-.09.04-.18.05-.28.19-1.77.31-3.55.38-5.33.06-1.65.08-3.3.13-4.94.06-1.98.16-3.96.49-5.92.15-.92.36-1.83.64-2.72.04-.13.09-.25.15-.37.03-.05.11-.11.15-.1.07.01.15.07.19.13.05.08.07.18.1.28.09.3.17.61.26.91.67,2.45,1.33,4.91,2.02,7.36.38,1.35.63,2.72.76,4.12.08.86.13,1.73.21,2.59.17,1.85.54,3.65,1.03,5.44.03.11.08.21.13.33Zm-50.14,1.17c0-.16,0-.26-.02-.35-.11-.64-.13-1.3-.07-1.94.09-.99.21-1.99.35-2.97.16-1.16.29-2.31.28-3.48,0-1.73-.17-3.46-.3-5.18-.1-1.39-.2-2.79-.03-4.19.1-.83.22-1.65.49-2.44.05-.14.1-.28.17-.41.02-.05.11-.09.16-.09.05,0,.12.06.15.11.05.1.08.22.1.33.41,2.06.65,4.14.79,6.23.12,1.69.16,3.39.15,5.09,0,2.76-.01,5.53-.02,8.29,0,.17,0,.33.01.5,0,.17.09.28.26.33.18.04.35.11.53.12.4.04.8.06,1.19.07.26,0,.44-.14.52-.39.02-.05.04-.09.05-.14.35-1.13.6-2.28.73-3.46.12-1.04.14-2.09.11-3.14-.04-1.36-.1-2.73-.16-4.09-.06-1.24.01-2.47.19-3.69.21-1.41.47-2.82.72-4.23.22-1.22.36-2.44.32-3.67-.02-.77-.1-1.53-.33-2.27-.14-.45-.23-.49-.69-.44-.02,0-.03,0-.05,0-.64.12-1.29.15-1.93.22-1.25.12-2.5.07-3.74-.06-1.38-.14-2.73-.41-4.05-.84-.12-.04-.25-.07-.39-.11-.05.12-.09.2-.11.3-.16.66-.26,1.34-.33,2.02-.13,1.28-.09,2.56.09,3.83.16,1.09.43,2.15.76,3.2.69,2.19,1.03,4.43,1.09,6.73.05,1.88.11,3.76.19,5.64.06,1.43.25,2.85.61,4.24.09.35.21.7.32,1.05.07.21.14.23.39.19.05,0,.09-.04.13-.05.02-.03.05-.06.06-.09.07-.38.31-.56.68-.62.19-.03.38-.09.61-.15Zm29.74-23.37c.19.02.26-.1.34-.2.3-.38.44-.82.53-1.28.15-.72.06-1.43-.07-2.13-.17-.97-.39-1.92-.59-2.88-.24-1.14-.43-2.29-.45-3.46-.03-1.25.08-2.49.33-3.72.03-.16.06-.33.04-.49-.1-1.01-.07-2.03-.05-3.04,0-.21.04-.43.1-.64.06-.24.23-.39.46-.49.25-.11.64.04.71.35.03.14.04.3.04.44-.01.2-.04.4-.08.59-.2.82-.4,1.65-.61,2.47-.11.42-.15.84-.09,1.28.1.71.17,1.42.25,2.13.11.94.25,1.88.35,2.82.1.98.2,1.95.25,2.93.04.73.01,1.46.01,2.2,0,.15-.04.3.08.44.04.01.09.04.13.04.51-.03.95.14,1.32.5.02.02.05.04.08.06.18.12.33.08.38-.13.14-.6.31-1.19.4-1.8.22-1.52.18-3.06.04-4.58-.06-.71-.16-1.42-.23-2.13-.08-.76-.2-1.52-.47-2.24-.19-.51-.25-1.03-.2-1.57.03-.36.06-.73.11-1.09.11-.73,0-1.43-.31-2.09-.14-.32-.29-.64-.45-.94-.35-.67-.48-1.38-.4-2.13.02-.2.03-.4.04-.6.02-.44-.16-.77-.57-.96-.12-.06-.24-.12-.36-.17-.5-.22-1.01-.44-1.51-.66-.69-.3-1.35-.66-1.92-1.15-.05-.04-.11-.06-.19-.1-.07.18-.11.34.06.41.22.08.3.25.38.43.35.79.71,1.58,1.06,2.37.04.09.08.18.11.28.04.12,0,.23-.11.3-.16.09-.31.18-.5.28.1.08.18.15.26.2.17.11.35.2.51.31.33.23.47.55.39.96-.03.16-.07.33-.11.49-.66,2.62-1.04,5.29-1.1,7.99-.02,1.05,0,2.1.07,3.15.06.95.18,1.89.36,2.82.28,1.42.7,2.81,1.09,4.2.03.09.07.18.11.26Zm-31.3-20.45c-.39-.44-.66-.89-.83-1.41-.32-.98-.33-1.96-.06-2.95.24-.88.68-1.66,1.35-2.3.11-.1.22-.2.35-.29.18-.13.33-.05.35.16,0,.05,0,.1,0,.15-.02.26.07.5.21.7.13.19.28.37.43.54.18.2.37.38.56.57.34.34.57.75.64,1.22.06.41.09.83.1,1.24.01.42-.02.83-.03,1.25-.01.24.05.41.29.52.33.17.45.47.42.84,0,.13,0,.26,0,.39.41.36.84.4,1.31.17.07-.04.15-.08.22-.12.74-.43,1.43-.91,2.08-1.47.15-.13.3-.27.44-.41.56-.57.79-1.26.72-2.05-.02-.17-.03-.33-.06-.5-.14-.97-.42-1.88-.92-2.72-.35-.59-.79-1.12-1.35-1.53-.53-.39-1.11-.68-1.78-.72-.8-.05-1.53.1-2.01.83-.05.07-.14.12-.23.19-.08-.07-.15-.12-.19-.19-.18-.24-.43-.29-.71-.27-.1,0-.2.03-.29.05-1.97.48-3.56,1.52-4.78,3.15-.26.35-.45.74-.58,1.15-.18.56-.21,1.11,0,1.66.13.37.33.69.58.98.56.65,1.24,1.16,1.99,1.57.1.06.21.09.32.13.51.17.95.09,1.3-.34.05-.06.11-.12.2-.21Zm53.75-6.38c-.08-.11-.12-.18-.18-.24-.28-.26-.36-.59-.33-.96.01-.13.01-.27.02-.4.02-.32-.12-.55-.4-.68-.5-.23-.82-.61-1.01-1.12-.14-.37-.41-.6-.77-.74-.17-.06-.35-.13-.52-.16-.81-.15-1.63-.13-2.44-.06-.77.07-1.45.36-1.97.95-.09.1-.19.18-.3.26-.3.22-.63.3-.98.13-.06-.03-.12-.05-.18-.08-.31-.13-.59-.07-.83.15-.14.13-.27.29-.37.47-.1.19-.18.4-.23.6-.19.77-.57,1.41-1.13,1.96-.17.16-.31.35-.45.54-.15.2-.24.44-.27.69-.04.28.03.53.24.73.07.07.15.13.22.2.28.29.31.52.1.85-.04.07-.1.13-.15.2-.09.13-.08.25.02.37.04.05.09.1.13.15.26.26.4.56.41.93,0,.14.07.29.12.43.05.12.19.15.29.06.13-.1.24-.23.38-.33.23-.16.44-.14.62.07.08.09.14.19.2.29.17.25.52.16.64-.02.04-.07.05-.16.1-.23.05-.06.11-.14.18-.15.38-.07.76-.11,1.07.21.02.03.08.02.16.05-.03-.12-.04-.19-.07-.27-.42-1.08-.52-2.2-.41-3.34.06-.67.24-1.31.46-1.94.08-.22.17-.29.37-.25.69.11,1.38.22,2.04.46.6.22,1.14.54,1.59,1.01.4.42.65.92.73,1.5.03.21.08.43.13.63.04.12.1.25.18.35.25.31.55.29.76-.04.02-.03.03-.06.05-.09.15-.27.39-.4.69-.44.12-.02.23,0,.35-.03.27-.05.38-.22.28-.46-.1-.25-.19-.5-.28-.75-.13-.36-.06-.69.22-.96.08-.08.18-.15.26-.24.08-.08.15-.17.25-.29Zm-3.51,5.18c-.14.22-.22.33-.29.44-.38.56-.91.93-1.56,1.09-.27.07-.56.08-.84.12-.19.03-.4,0-.62.09-.02.14-.05.29-.05.43-.05.93-.34,1.79-.82,2.59-.14.23-.28.46-.41.68-.24.4-.34.83-.32,1.29.01.25.04.5.07.74.06.43.13.86.18,1.28.16,1.44-.02,2.82-.63,4.14-.04.08-.05.18-.08.29.27.07.51.12.75.18,1.15.28,2.27.65,3.36,1.11.14.06.28.19.49.1.02-.06.06-.14.07-.22.05-.3.09-.59.12-.89.08-.69.16-1.39.23-2.08.1-.99.2-1.99.27-2.98.06-.83.07-1.66.13-2.49.1-1.66.07-3.33.04-4.99,0-.28-.03-.55-.09-.94Zm-42.59,15.16c-.18-.16-.38-.12-.56-.14-.46-.05-.93-.09-1.39-.16-.89-.12-1.75-.38-2.61-.66-.55-.18-1.12-.33-1.7-.39-.31-.03-.63-.07-.94-.09-.52-.04-1.02-.14-1.51-.3-.3-.1-.57-.05-.75.22-.58.86-1.09,1.75-1.34,2.77-.05.21-.1.42-.13.63-.04.25,0,.3.25.4.02,0,.03,0,.05.01,1.24.46,2.52.72,3.83.88.56.07,1.13.09,1.69.14,1.06.1,2.13.09,3.19.02.63-.05,1.23.02,1.78.36.26.16.4.02.46-.17.04-.12.07-.26.06-.39-.06-.66-.12-1.33-.2-1.99-.05-.39-.12-.79-.18-1.15Zm20.46-26.01c-.12.03-.18.04-.24.06-.8.26-1.61.4-2.46.24-.1-.02-.2-.01-.3-.03-.28-.04-.49.07-.62.32-.2.38-.38.78-.59,1.16-.18.33-.2.66-.13,1.01.2.96.43,1.91.76,2.84.07.19.14.37.24.55.2.37.51.61.92.71.55.13,1.06,0,1.5-.35.4-.33.65-.75.77-1.25.16-.66.29-1.33.45-1.99.06-.25.07-.49.04-.74-.07-.56-.14-1.12-.21-1.68-.03-.26-.08-.52-.13-.84Zm2.78,32.74c-.03-.12-.04-.25-.08-.38-.17-.59-.33-1.18-.51-1.77-.6-2.04-.95-4.12-1.01-6.24-.05-1.66-.01-3.33.16-4.99.13-1.27.32-2.54.59-3.79.13-.6.28-1.2.42-1.8.11-.51.03-.68-.42-.94-.2-.12-.41-.22-.6-.35-.11-.07-.2-.17-.28-.28-.06-.08-.04-.21.04-.27.08-.06.18-.09.26-.15.14-.08.32-.1.42-.31-.23-.54-.48-1.1-.75-1.65,0-.02-.06,0-.12-.02-.01.09-.03.19-.04.28-.07,1.06-.15,2.13-.19,3.19-.07,1.91-.15,3.82-.14,5.74.01,1.38.05,2.76.14,4.14.1,1.38.25,2.75.46,4.12.26,1.73.65,3.43,1.14,5.11.03.11.08.22.13.32.06.11.13.12.37.03Zm-30.18-26.96c-.21.14-.34.32-.46.49-.7.97-.98,2.06-.9,3.25.04.61.22,1.18.52,1.7.17.29.38.54.66.74.25.17.53.26.84.25.45-.01.83-.21,1.2-.44.13-.08.15-.21.13-.35-.07-.51-.03-1.03-.01-1.54.01-.35,0-.7-.03-1.05-.05-.49-.24-.93-.59-1.29-.19-.19-.37-.38-.56-.57-.28-.29-.53-.6-.67-.98-.03-.07-.08-.13-.13-.21Zm20.33-1.68c-.07-.04-.12-.1-.18-.1-.16,0-.33.01-.49.05-.55.13-1.07-.17-1.21-.82-.1-.43,0-.83.23-1.19.19-.29.41-.57.62-.85.19-.26.36-.53.43-.84.02-.08,0-.18-.02-.29h-.54c.01-.16.02-.3.03-.44-.43.39-.41.27-.61-.12-.11.12-.22.22-.3.34-.25.39-.49.79-.73,1.19-.06.1-.1.21-.16.31-.05.09-.11.17-.23.15-.11-.02-.2-.11-.2-.25,0-.2,0-.4.03-.6.02-.16.09-.32.13-.48.02-.07,0-.14.01-.21-.11.07-.16.15-.2.23-.45.93-.84,1.88-1.04,2.9-.09.48-.12.96.1,1.42.19.39.45.73.7,1.1.13-.12.24-.22.35-.32.44-.39.96-.58,1.53-.69.38-.07.75-.13,1.13-.22.22-.05.46-.07.63-.3Zm-13.94,19.35c-.16.06-.28.1-.4.15-.48.18-.97.22-1.47.14-.4-.06-.77-.19-1.15-.33-.68-.27-1.37-.52-2.05-.77-.43-.15-.83-.34-1.18-.63-.04-.03-.08-.12-.18-.02.03.07.05.14.08.21.04.11.12.21,0,.32-.09.09-.18.04-.27,0-.08-.03-.16-.05-.24-.05-.08,0-.17.02-.17.16.11.07.23.15.35.23.08.06.17.11.24.17.09.08.05.25-.07.28-.08.02-.16.03-.25.03-.2,0-.4,0-.6,0-.19,0-.31.1-.36.28-.02.09-.03.19-.04.29.42.19.86.22,1.28.24.97.05,1.91.25,2.83.57,1.09.37,2.21.61,3.36.72.23.02.46.07.68,0,0-.41-.18-1.38-.39-2Zm21.71-21.37c.23-.05.36-.17.42-.32.31-.66.45-1.35.24-2.08-.03-.09-.08-.18-.13-.27-.11-.17-.24-.32-.47-.34-.19-.01-.29-.13-.38-.28-.06-.12-.14-.22-.23-.33-.77-1-2.45-1.31-3.53-.23-.74.75-1.09,1.65-1.09,2.7,0,.03.05.07.09.12.14-.24.28-.44.39-.66.24-.46.61-.63,1.12-.52.16.03.33.04.5.05.73.07,1.43-.03,2.1-.31.09-.04.18-.09.28-.11.09-.02.19,0,.31,0,.19.85.19,1.7.37,2.57Zm-33.19,18.8c-.05.11-.07.16-.08.2-.23.81-.25,1.64-.15,2.47.04.3.13.58.29.84.17.26.4.43.7.53.26.08.49.03.7-.12.11-.08.2-.18.29-.27.16-.15.31-.31.47-.44.53-.41.91-.93,1.14-1.56-.42-.1-.76-.1-1.18,0-.09.02-.2.04-.29.03-.05,0-.12-.07-.14-.12-.02-.05,0-.13.04-.18.05-.06.13-.1.19-.15.11-.1.06-.28-.09-.3-.11-.02-.23-.01-.34.02-.44.15-.78.02-1.05-.34-.09-.12-.17-.24-.27-.36-.06-.07-.13-.13-.24-.24Zm12.37,4.57c.67.07.88-.05,1.1-.59.06-.14.11-.28.16-.42.38-1.19.49-2.4.42-3.64,0-.11-.03-.23-.06-.34-.08-.27-.23-.33-.49-.22-.32.14-.54.39-.67.7-.14.32-.25.65-.39.97-.11.26-.2.53-.35.77-.18.28-.19.55-.13.86.09.39.17.78.26,1.17.05.24.1.48.15.75Zm13.4-15.94c.05,1.25.12,2.51.16,3.77.04,1.26-.07,2.52-.14,3.79.07-.08.12-.16.14-.25.59-2.42,1.89-8.82,1.85-9.72-.4.22-.71.51-.89.91-.14.3-.03.58.27.76.06.03.12.06.17.1.05.04.04.19-.01.23-.07.04-.14.09-.22.11-.28.06-.55.11-.83.16-.16.03-.34,0-.48.13Zm27.28,26.47c.19.17.36.18.55.13.3-.07.55-.23.78-.43.62-.52,1.08-1.17,1.49-1.86.25-.44.22-.89.05-1.35-.03-.09-.1-.19-.17-.24-.38-.22-.78-.4-1.22-.14-.19.11-.37.22-.53.36-.48.41-.8.93-1.02,1.51-.02.04,0,.09,0,.19.12-.09.21-.14.29-.21.15-.14.27-.29.42-.42.05-.05.16-.07.22-.05.11.03.13.14.12.24-.01.08-.04.16-.06.24-.15.55-.38,1.06-.65,1.56-.08.14-.16.29-.25.46Zm-28.86-10.51c.12.2.31.28.48.37.86.5,1.8.79,2.77.93.87.12,1.75.21,2.63.29.66.06,1.33.04,1.99-.08.16-.03.32-.06.46-.17.02-.28,0-.53-.14-.78-.15.02-.28.03-.41.05-.54.12-1.08.17-1.64.17-.9-.01-1.79-.14-2.67-.35-.99-.23-1.95-.55-2.91-.88-.13-.04-.25-.1-.4-.04-.12.13-.16.31-.17.48Zm12.93,9.89c.12,0,.18.01.24,0,.33-.08.62-.24.86-.49.32-.33.51-.74.61-1.18.14-.57.15-1.15.09-1.74-.03-.31-.1-.62-.25-.91-.09-.17-.22-.24-.4-.23-.41.02-.73.2-1,.5-.24.26-.41.57-.51.91-.23.73-.35,1.49-.31,2.26,0,.04.04.08.08.14.06-.06.13-.09.15-.14.07-.17.12-.34.17-.52.05-.21.07-.43.14-.63.07-.23.2-.42.42-.53.17-.09.34-.03.41.15.1.28.15.58.1.88-.07.43-.23.83-.51,1.17-.08.1-.16.2-.27.34Zm-28.48,21.6c-.03.11-.07.18-.08.26-.07.39-.16.78-.2,1.18-.04.33-.05.67-.02.99.04.41.2.77.53,1.04.33.26.71.25.97-.07.16-.19.33-.37.52-.59-.05-.6-.11-1.23-.17-1.86-.02-.22-.05-.43-.07-.64-.02-.14-.08-.27-.23-.29-.41-.07-.82-.18-1.27-.02Zm37.55-31.17c.07-.05.12-.06.14-.1.05-.12.09-.25.12-.38.27-.98.43-1.98.48-2.99.03-.66,0-1.33,0-1.99,0-.2-.01-.42-.11-.61-.06.03-.1.04-.11.06-.4.58-.75,1.17-1.02,1.82-.18.45-.27.92-.27,1.41,0,.99.4,1.87.77,2.78Zm.15,32.62c.12.02.2.04.28.03.34-.04.65-.14.94-.32.48-.3.84-.7,1.09-1.21.25-.51.41-1.05.5-1.61.05-.29.08-.59.1-.89.01-.2-.08-.31-.28-.34-.53-.08-.66,0-.79.45,0,.02-.01.03-.02.05-.39,1.24-.95,2.41-1.65,3.51-.06.09-.1.2-.17.33Zm-9.61-30.95c.07-.59-.04-1.16-.08-1.73-.05-.56-.12-1.12-.19-1.69-.07-.58-.13-1.16-.21-1.73-.08-.56-.11-1.12-.27-1.67-.06.23-.1.46-.11.69-.05.88-.01,1.76.09,2.64.13,1.11.39,2.19.65,3.28.02.07,0,.17.13.21Zm-22.6-8.43c-.27-.11-.53-.1-.78.03-.21.1-.41.22-.59.37-.84.71-1.15,1.63-1.01,2.72,0,.02.05.03.09.06.04-.07.08-.14.11-.21.13-.32.25-.65.38-.97.11-.28.26-.54.46-.76.23-.25.51-.43.86-.46.06,0,.13-.02.2-.04.15-.22.31-.43.27-.73Zm44.3,11.74q.3.09.51.04c.28-.07.34-.15.28-.42-.17-.77-.36-1.54-.54-2.32-.02-.06-.05-.13-.11-.27-.17.55-.17,1.03-.2,1.51-.03.49-.04.99.06,1.46Zm-51.24-18.63c-.18.08-.36.17-.53.25-.61.27-1.22.31-1.83,0-.05-.02-.11-.1-.19.01.04.08.08.19.15.27.15.17.34.26.55.32.52.16,1.05.15,1.58.05.22-.04.46-.1.61-.34-.08-.19-.16-.38-.34-.57Zm50.29,9.17c.24-.64.66-2.56.71-3.2,0-.02-.04-.04-.07-.08-.04.02-.09.04-.12.07-.28.29-.47.63-.58,1.02-.18.67-.14,1.34-.04,2.02,0,.04.05.08.1.16Zm-54.93.69c.12.01.24.02.35.04.32.03.63.05.9-.18.07-.06.19-.06.28-.1.07-.03.13-.07.2-.11-.09-.21-.24-.26-.41-.29-.45-.07-.89-.09-1.34.01-.07.02-.14.06-.23.1.05.11.08.18.11.25.04.09.09.17.14.28Zm48.65-10.92c-.08.36-.08.4.12,1,.27.06.55.04.83.01.4-.03.78-.14,1.13-.37.07-.04.12-.11.23-.21-.21.04-.34.06-.46.09-.37.1-.73.03-1.07-.12-.18-.08-.34-.21-.51-.3-.08-.04-.17-.07-.26-.11Zm11.28,48.66c-.4-.12-.74-.19-1.06-.32-.32-.12-.62-.29-.95-.45-.15.25-.2.51-.2.78.41.1,1.65.1,2.21-.02Zm-56.54-.21c-.01-.8-.2-1.54-.43-2.27-.02-.06-.08-.1-.13-.14-.02-.02-.07-.02-.09,0-.03,0-.06.04-.06.07,0,.08,0,.17.02.25.15.52.2,1.04.23,1.58,0,.12.01.23.03.35.03.22.08.24.44.19Zm30.73,1.18c.23.23.5.28.78.3.31.02.59-.07.84-.25.16-.11.31-.23.36-.47-.27-.09-.5-.05-.74.02-.35.1-.7.2-1.04.31-.06.02-.12.05-.2.09ZM37.02,31.66c.07-.07.13-.09.14-.13.16-.52.18-1.05.09-1.57-.04-.22-.16-.43-.26-.64-.02-.04-.09-.07-.16-.11-.04.44.08,1.96.19,2.45Zm34.5-3.71c.25-.54.36-1.1.45-1.66.03-.19.07-.39-.04-.58-.21,0-.27,0-.3.09-.04.11-.1.22-.11.33-.05.61-.05,1.22,0,1.83Zm10.87,1.1c.07-.04.11-.05.12-.07.25-.61.31-1.25.15-1.89-.02-.06-.08-.12-.16-.21-.26.74-.25,1.44-.11,2.18Zm-27.93-7.35c-.48.07-.8.31-1.07.62-.14.16-.28.32-.21.55.22.07.36-.02.49-.12.34-.27.6-.6.8-1.05Zm9.53-1.4c.14-.03.27-.07.4-.1.12-.03.26.01.4-.07-.2-.39-.35-.76-.75-1.08-.05.45-.16.83-.05,1.25Zm-.74-5.3c.01-.08.03-.13.02-.18-.11-.62-.23-1.23-.35-1.85,0-.02-.05-.03-.09-.05-.15.11-.18.26-.17.43.03.54.14,1.05.43,1.51.03.05.09.08.15.14Zm5.13.29c.35-.14.49-.42.6-.72.13-.37.12-.56,0-.78-.45.39-.56.91-.6,1.5Zm-10.36,6.1c-.24.54-.26,1.19-.06,1.63.1-.04.1-.13.1-.21,0-.45.14-.89.06-1.34,0-.02-.05-.04-.1-.09Zm27.08,44.66c.03.52.05.99.08,1.47,0,.05.01.1.03.15,0,.01.01.03.02.04.01,0,.03,0,.05,0,.1-.31.13-.68.06-1.02-.04-.2-.03-.44-.24-.63Zm-12.69-24.08c.27-.14.54-.29.83-.45-.23-.18-.45-.18-.68-.11-.07.02-.15.09-.17.16-.04.12-.08.25.03.4Zm-11.62,28.84c.16.12.27.08.33-.04.12-.27.2-.55.13-.89-.3.27-.34.61-.45.93Zm-24.22-38.23c0-.16.02-.27,0-.38-.01-.07-.08-.16-.14-.18-.14-.05-.29-.12-.46-.05.19.41.2.43.61.61Zm36.26,12q-.2.13-.31,1.07c.27-.33.38-.66.31-1.07Zm-1.5.12c.12-.25.16-.46.11-.7-.25.12-.29.16-.25.3.03.12.08.23.14.4Zm-21.59-13.93c.22.06.31-.02.4-.12.06-.07.04-.2-.05-.25-.08-.05-.17-.05-.21.04-.05.09-.09.2-.14.33Zm15.99-9.62c.03.11.05.21.08.29,0,.02.11.04.12.03.04-.08.1-.18.08-.26-.02-.11-.12-.13-.28-.07Z"/>
          <path class="cls-2" d="m58.01,21.39c.05.05.09.06.1.09.08.45-.06.89-.06,1.34,0,.08,0,.17-.1.21-.2-.45-.18-1.1.06-1.63Z"/>
          <path class="cls-2" d="m85.1,66.05c.22.19.2.42.24.63.07.35.03.71-.06,1.02-.02,0-.04.01-.05,0-.01,0-.02-.02-.02-.04-.01-.05-.02-.1-.03-.15-.03-.48-.05-.95-.08-1.47Z"/>
          <path class="cls-2" d="m72.4,41.98c-.11-.14-.07-.28-.03-.4.03-.07.1-.14.17-.16.23-.07.45-.07.68.11-.29.16-.56.3-.83.45Z"/>
          <path class="cls-2" d="m60.79,70.81c.11-.32.15-.66.45-.93.08.35,0,.63-.13.89-.05.12-.16.15-.33.04Z"/>
          <path class="cls-2" d="m36.56,32.58c-.41-.19-.42-.2-.61-.61.17-.06.32,0,.46.05.06.02.12.11.14.18.02.11,0,.22,0,.38Z"/>
          <path class="cls-2" d="m72.82,44.59c.07.4-.04.73-.31,1.07q.11-.94.31-1.07Z"/>
          <path class="cls-2" d="m71.32,44.7c-.06-.16-.11-.28-.14-.4-.04-.14,0-.18.25-.3.06.23.01.44-.11.7Z"/>
          <path class="cls-2" d="m49.74,30.78c.05-.13.09-.24.14-.33.05-.08.13-.08.21-.04.09.05.12.19.05.25-.09.09-.19.18-.4.12Z"/>
          <path class="cls-2" d="m65.72,21.15c.16-.07.26-.05.28.07.01.08-.05.17-.08.26,0,0-.11,0-.12-.03-.04-.09-.05-.18-.08-.29Z"/>
          <path class="cls-2" d="m37.47,32.09c-.06.13-.2.15-.31.2-.03.01-.08-.03-.13-.04.03-.04.06-.12.1-.13.11-.03.22-.02.34-.03,0,0,0,0,0,0Z"/>
        </g>
        <g>
          <path class="cls-1" d="m30.35,83.44c.33-1.13.97-1.99,1.92-2.56.82-.49,1.81-.73,2.97-.73,1.56,0,2.79.41,3.7,1.23.78.7,1.16,1.57,1.16,2.61,0,.96-.31,1.76-.94,2.39-.54.55-1.26.9-2.16,1.04v.14c1.17.24,2.04.73,2.64,1.46.52.64.78,1.44.78,2.38,0,1.45-.54,2.59-1.61,3.44-.94.74-2.13,1.1-3.57,1.1-2.75,0-4.47-1.13-5.16-3.38l2.56-.72c.2.8.53,1.37.99,1.71.4.29.93.43,1.59.43.82,0,1.46-.26,1.93-.78.41-.46.62-1.05.62-1.78,0-1.83-1.07-2.74-3.2-2.74h-1.22v-2.06h1.12c2.01,0,3.02-.8,3.02-2.4,0-.72-.24-1.26-.71-1.64-.4-.32-.93-.48-1.57-.48s-1.16.19-1.56.58c-.38.36-.63.87-.73,1.5l-2.56-.74Z"/>
          <path class="cls-1" d="m64.55,94.79c-.46.44-.83.96-1.12,1.56-.15.32-.27.48-.36.48-.06,0-.22-.08-.46-.24-3.71-2.39-6.06-5.58-7.06-9.56-1.07,4.25-3.48,7.44-7.24,9.58-.25.14-.4.21-.46.21-.1,0-.23-.16-.4-.48-.29-.48-.68-.93-1.16-1.35,2.73-1.26,4.77-3.19,6.12-5.79,1.12-2.14,1.67-4.56,1.65-7.25-.03-1.13-.07-1.99-.14-2.6.78.04,1.6.12,2.46.24.25.03.38.14.38.31,0,.12-.06.29-.2.5-.11.18-.17.62-.17,1.33-.01.16-.02.39-.02.71.46,3.14,1.42,5.74,2.88,7.79,1.3,1.82,3.06,3.34,5.28,4.55Z"/>
          <path class="cls-1" d="m70.67,91.53l-2.7.04c-.1,0-.17-.02-.2-.05-.02-.03-.03-.09-.03-.19v-1.25c0-.1.02-.17.05-.19.02-.02.08-.03.18-.03l1.89.04v-1.8h-.71l-2.48.04c-.1,0-.16-.01-.18-.04-.02-.03-.03-.1-.03-.21v-1.32c0-.14.07-.21.21-.21l2.48.04h.71v-1.7c-.54,0-1.03.02-1.46.03h-.44c-.1,0-.17,0-.2-.03-.02-.03-.03-.08-.03-.18v-1.33c0-.13.08-.2.22-.2l2.7.04h3.66v-1.46c-1.68.12-3.35.2-5.02.24-.33,0-.53-.04-.61-.11-.06-.06-.14-.22-.21-.49-.16-.44-.36-.79-.6-1.06h.61c1.82,0,3.79-.08,5.93-.24,1.67-.12,3.35-.35,5.04-.67.48-.09.91-.22,1.29-.38.53.37,1,.79,1.4,1.26.12.16.18.29.18.38,0,.16-.11.23-.32.23-.23,0-.61.05-1.11.15-1.17.19-2.68.37-4.54.54v1.62h4.02l2.7-.04c.15,0,.22.07.22.2v1.33c0,.1-.02.17-.05.19-.02.02-.08.03-.18.03-.03,0-.12,0-.27,0-.55-.01-1.15-.02-1.81-.03v1.7h.78l2.48-.04c.13,0,.2.07.2.21v1.32c0,.11,0,.18-.03.21s-.07.04-.17.04l-2.48-.04h-.78v1.8l2.04-.04c.1,0,.17.01.2.04.02.03.03.08.03.18v1.25c0,.1-.01.17-.03.2-.02.03-.09.04-.19.04l-2.7-.04h-2.69c1.76,1.46,4.19,2.55,7.29,3.26-.31.33-.6.8-.87,1.43-.15.36-.29.54-.42.54-.07,0-.22-.04-.44-.12-2.89-1.02-5.2-2.44-6.91-4.27l.14,4.68c0,.1-.02.17-.05.2-.03.02-.09.03-.19.03h-1.75c-.13,0-.2-.08-.2-.22,0-.05,0-.32.03-.79.07-1.4.1-2.68.11-3.85-1.63,1.73-3.87,3.14-6.7,4.23-.25.1-.42.16-.5.16-.12,0-.25-.17-.4-.5-.21-.47-.49-.9-.84-1.29,2.9-.76,5.23-1.92,7-3.48h-2.29Zm1.14-5.12h2.52v-1.7h-2.52v1.7Zm0,3.5h2.52v-1.8h-2.52v1.8Zm4.54-3.5h2.68v-1.7h-2.68v1.7Zm0,3.5h2.68v-1.8h-2.68v1.8Z"/>
          <path class="cls-1" d="m90.98,79.63c.98.2,1.71.4,2.18.62.25.1.38.23.38.4,0,.1-.04.21-.14.32-.12.14-.24.46-.36.94-.18.88-.37,2.15-.56,3.82-.05.88-.08,1.45-.08,1.7,0,.18,0,.34,0,.51.48-.86.95-1.72,1.4-2.57.15.49.36.92.62,1.3.08.1.12.21.12.32,0,.14-.06.3-.2.5-.62,1.19-1.02,2.04-1.18,2.56-.04.14-.08.34-.11.61,0,.17-.08.27-.25.31-.25.07-.78.15-1.6.24-.13.02-.22-.07-.28-.26-.4-1.07-.6-2.42-.6-4.05,0-.86.16-2.52.48-4.98.11-.93.17-1.69.17-2.28Zm6.4.04c1.13.05,1.89.13,2.29.23.27.07.41.2.41.37,0,.05,0,.1,0,.18-.03.18-.05.49-.05.92.19,2.52.28,4.24.28,5.16,0,3.06-.51,5.37-1.52,6.94-.78,1.25-1.88,2.32-3.3,3.22-.13.09-.26.14-.4.14s-.27-.08-.42-.22c-.5-.44-1.07-.74-1.7-.92,1.58-.88,2.72-1.77,3.41-2.68.64-.87,1.08-1.81,1.33-2.8.23-.94.35-2.14.35-3.58,0-1.72-.08-3.31-.24-4.78-.08-.83-.22-1.56-.42-2.18Z"/>
        </g>
        <g>
          <path class="cls-1" d="m37.69,100.89c-1.38,1.23-2.34,2.48-2.89,3.77-.45,1.05-.67,2.25-.67,3.59,0,1.54.3,2.89.89,4.06.56,1.1,1.45,2.2,2.67,3.3l-.34.38c-1.56-1.24-2.66-2.52-3.3-3.84-.55-1.14-.83-2.44-.83-3.9,0-1.66.37-3.12,1.1-4.4.65-1.14,1.66-2.25,3.02-3.34l.34.38Z"/>
          <path class="cls-1" d="m41.35,105.34c.23-1.05.72-1.84,1.45-2.37.6-.44,1.33-.66,2.19-.66,1.04,0,1.86.29,2.48.88.56.53.84,1.21.84,2.06,0,.7-.2,1.34-.59,1.91-.38.54-1.04,1.2-2,1.99-1.59,1.29-2.73,2.6-3.41,3.94h6.02v.88h-7.05v-.79c.69-1.54,1.93-3.09,3.73-4.63.94-.81,1.55-1.46,1.84-1.95.24-.4.37-.85.37-1.35,0-.68-.24-1.21-.71-1.59-.4-.32-.9-.48-1.52-.48-1.4,0-2.26.8-2.58,2.4l-1.04-.26Z"/>
          <path class="cls-1" d="m54.81,102.31c2.41,0,3.62,1.96,3.62,5.88s-1.22,6-3.65,6-3.65-1.99-3.65-5.97,1.23-5.91,3.68-5.91Zm0,.88c-.92,0-1.58.43-2,1.29-.4.82-.59,2.05-.59,3.7,0,1.9.25,3.27.75,4.09.42.68,1.02,1.02,1.81,1.02.91,0,1.57-.45,1.98-1.35.38-.84.58-2.09.58-3.75,0-1.89-.25-3.23-.73-4.02-.41-.66-1.01-.98-1.8-.98Z"/>
          <path class="cls-1" d="m64.73,102.31c2.41,0,3.62,1.96,3.62,5.88s-1.22,6-3.65,6-3.65-1.99-3.65-5.97,1.23-5.91,3.68-5.91Zm0,.88c-.92,0-1.58.43-2,1.29-.4.82-.59,2.05-.59,3.7,0,1.9.25,3.27.75,4.09.42.68,1.02,1.02,1.81,1.02.91,0,1.57-.45,1.98-1.35.39-.84.58-2.09.58-3.75,0-1.89-.25-3.23-.73-4.02-.41-.66-1-.98-1.8-.98Z"/>
          <path class="cls-1" d="m79.12,105.98l-2.83,3.02,3.07,4.98h-1.12l-2.62-4.32-1.6,1.66v2.66h-.99v-11.88h.99v8.12l3.89-4.24h1.21Z"/>
          <path class="cls-1" d="m87.98,105l-.08.91c-.43,0-.77.06-1.04.17-.21.09-.43.25-.66.47.56.45.84,1.08.84,1.87,0,.86-.31,1.53-.94,2.02-.53.41-1.19.62-1.99.62-.48,0-.92-.08-1.33-.25-.53.3-.8.61-.8.95,0,.29.11.48.34.59.22.1.67.18,1.35.25l1.57.16c1.08.11,1.83.36,2.25.73.31.28.47.66.47,1.16,0,.7-.35,1.26-1.06,1.66-.67.38-1.56.56-2.68.56-1.19,0-2.1-.2-2.73-.61-.54-.35-.8-.8-.8-1.36,0-.4.16-.76.49-1.08.28-.28.66-.49,1.14-.65-.81-.18-1.22-.57-1.22-1.17,0-.53.37-1.04,1.11-1.55-.67-.48-1.01-1.16-1.01-2.02s.32-1.52.97-2.02c.54-.42,1.19-.63,1.95-.63.6,0,1.11.12,1.54.37.31-.43.65-.74,1.04-.91.34-.16.77-.23,1.27-.23Zm-4.8,8.37c-1.04.29-1.56.76-1.56,1.41,0,.48.28.85.84,1.09.46.2,1.07.3,1.82.3.95,0,1.67-.15,2.18-.46.41-.25.62-.58.62-.96,0-.35-.15-.62-.45-.8-.31-.18-.84-.31-1.59-.39l-1.84-.2Zm.96-6.88c-.6,0-1.09.19-1.46.58-.34.35-.52.81-.52,1.38,0,.63.22,1.12.65,1.48.35.29.79.44,1.32.44.6,0,1.09-.19,1.46-.57.34-.35.52-.8.52-1.35,0-.65-.22-1.15-.66-1.51-.35-.3-.79-.45-1.31-.45Z"/>
          <path class="cls-1" d="m89.43,100.89l.34-.38c1.56,1.24,2.66,2.52,3.3,3.84.55,1.14.83,2.44.83,3.9,0,1.66-.36,3.13-1.09,4.4-.65,1.14-1.66,2.25-3.03,3.34l-.34-.38c1.39-1.24,2.35-2.5,2.89-3.77.45-1.05.67-2.24.67-3.59,0-1.54-.3-2.89-.89-4.07-.56-1.11-1.45-2.21-2.67-3.29Z"/>
        </g>
      </g>
    </g>
  </g>
</svg>