<?xml version="1.0" encoding="UTF-8"?>
<svg id="_レイヤー_2" data-name="レイヤー 2" xmlns="http://www.w3.org/2000/svg" viewBox="0 0 104.65 34.4">
  <defs>
    <style>
      .cls-1 {
        fill: #231815;
      }
    </style>
  </defs>
  <g id="_レイヤー_1-2" data-name="レイヤー 1">
    <g>
      <path class="cls-1" d="m18.62,18.7v12.31c0,2.05-1.45,3.1-4.35,3.16v-.04c0-.72-.44-1.24-1.31-1.58-.74-.28-2.37-.63-4.89-1.04v-1.04c3.26.26,5.48.38,6.66.38,1,0,1.5-.4,1.5-1.19v-10.97H.35l-.35-.92h16.04v-6.85c.74.03,1.4.09,1.96.19,2.75-1.98,4.99-3.89,6.73-5.73H5.16l-.38-.92h19.97l1.73-2c1.97,1.54,2.96,2.54,2.96,3,0,.21-.19.36-.58.46l-1.39.35c-2.28,1.72-4.98,3.44-8.08,5.16.41.15.62.32.62.5,0,.28-.53.62-1.58,1v4.85h10.81l2.23-2.85c.95.82,1.9,1.82,2.85,3l-.5.77h-15.2Z"/>
      <path class="cls-1" d="m52.48,6.12h-12.31l-.38-.96h15.43V0c2.59.13,3.89.48,3.89,1.04,0,.28-.56.6-1.69.96v3.16h11.16l1.96-2.85c1.21,1.05,2.19,2.08,2.96,3.08l-.42.73h-17.39c-1.85,2.31-3.59,4.27-5.23,5.89h1.5c4.1-.08,8.75-.27,13.93-.58-1.49-1.31-3.31-2.59-5.46-3.85l.5-.73c7.1,2.85,10.66,5.35,10.66,7.5,0,.8-.41,1.19-1.23,1.19-.38,0-.81-.26-1.27-.77-.67-.87-1.4-1.69-2.19-2.46-5.08.69-12.53,1.32-22.35,1.89-.26.87-.54,1.31-.85,1.31-.54,0-.99-1.13-1.35-3.39,1.92,0,3.32-.01,4.19-.04l2.54-.04c1.31-1.87,2.45-3.85,3.42-5.92Zm-3.35,10.58h15.12l1.42-1.58c1.56,1.1,2.35,1.81,2.35,2.12,0,.15-.1.33-.31.54l-.81.65v12.74c0,1.92-1.31,2.87-3.92,2.85v-.04c0-.59-.3-1.04-.89-1.35-.77-.36-2.17-.68-4.19-.96v-1.08c1.79.21,3.64.31,5.54.31.77,0,1.15-.36,1.15-1.08v-3.5h-15.89v8.08h-2.23V15.62c.64.23,1.53.59,2.66,1.08Zm-.42.92v3.19h15.89v-3.19h-15.89Zm15.89,7.77v-3.66h-15.89v3.66h15.89Z"/>
      <path class="cls-1" d="m81.61,12.5c.67.64,1.41.92,2.23.85.41-.03,3.85-.91,10.31-2.66,4.75-1.26,7.41-1.91,8-1.96.64-.05,1.27.09,1.88.42.41.21.62.49.62.85,0,.54-.44.85-1.31.92-.26.03-.63.03-1.12,0-.87-.05-1.55-.05-2.04,0-1.87.18-3.36,1.06-4.46,2.65-2.8,3.82-4.07,7.14-3.81,9.96.18,1.77.74,3.03,1.67,3.79.94.76,2.26,1.14,3.98,1.14.54,0,1.15-.06,1.85-.19.36-.08.68-.12.96-.12.54,0,1.03.17,1.46.5.41.28.62.57.62.85,0,.69-1.15,1.04-3.46,1.04-5.49,0-8.43-2.23-8.81-6.69-.33-3.67,1.68-7.79,6.04-12.35-4.59,1.18-8.31,2.42-11.16,3.73-.67.33-1.13.5-1.39.5-1.21.1-2.01-.82-2.42-2.77l.35-.46Z"/>
    </g>
  </g>
</svg>