<?xml version="1.0" encoding="UTF-8"?>
<svg id="_レイヤー_2" data-name="レイヤー 2" xmlns="http://www.w3.org/2000/svg" viewBox="0 0 213.85 149">
  <defs>
    <style>
      .cls-1, .cls-2 {
        fill: #fff;
      }

      .cls-2 {
        opacity: .2;
      }
    </style>
  </defs>
  <g id="_レイヤー_1-2" data-name="レイヤー 1">
    <circle class="cls-2" cx="74.5" cy="74.5" r="74.5"/>
    <g>
      <path class="cls-1" d="m83.14,76.03c.22-.27.38-.57.57-.57.3,0,1.77,1.27,1.77,1.65-.12.2-.52.4-.92.47v2.4c.05,2.4.07,3.19.17,4.64-.2.27-1.02.67-1.55.67-.22,0-.32-.25-.32-.5.05-.2.05-.32.1-.65v-.6h-9.46v.47c.05.45.03.6.08.77-.08.27-.72.67-1.37.67-.25,0-.5-.25-.5-.5.12-1.87.2-2.82.25-5.66v-3.09c-1.55.6-3.22,1.12-4.99,1.52l-.2-.42c4.07-1.32,7.81-3.27,10.78-5.69-1.4-1.27-2.59-2.74-3.47-4.42-1.8,2.05-3.94,3.97-6.16,5.24l-.27-.32c1.77-1.32,3.57-3.24,5.04-5.31.92-1.35,1.87-3.24,2.22-4.59,2.74.92,2.74,1.17,2.27,1.25l-.45.07c-.37.65-.82,1.32-1.32,2h7.06l.55-.55c.3-.27.55-.57.75-.57.3,0,1.75,1.47,1.75,1.85-.2.22-.47.27-1.1.3-1.25,1.92-2.82,3.64-4.69,5.19,2.84,1.72,6.31,2.94,9.75,3.62l-.05.27c-.7.12-1.22.6-1.45,1.4-3.44-.95-6.71-2.42-9.31-4.47-1.82,1.35-3.92,2.49-6.24,3.44l1.22.57h9.11l.37-.55Zm-.17,1.27h-9.46v5.49h9.46v-5.49Zm-8.11-11.05l-.42.52c.97,1.55,2.37,2.92,3.99,4.09,1.6-1.42,2.92-2.97,3.94-4.62h-7.51Z"/>
      <path class="cls-1" d="m98.41,69.34c.25-.35.45-.7.65-.7.3,0,1.77,1.32,1.77,1.7-.08.27-.3.4-.62.4h-3.07v2.54c4.52,2,3.32,4.94,1.92,3.82-.3-1.02-1.17-2.37-1.92-3.32v5.16c.05,2.99.1,3.99.2,5.86-.2.27-.72.65-1.45.65-.25,0-.52-.25-.52-.5.15-2.15.22-3.24.27-6.49v-3.49c-.97,2.27-2.27,4.32-3.89,6.06l-.35-.32c1.9-2.74,3.19-6.39,3.92-9.98h-1.05c-.65.02-1.2.15-1.8.35l-.62-1.25c.85.12,1.7.17,2.59.2h1.2v-4.17c-1.2.35-2.47.65-3.64.85l-.15-.4c.82-.27,1.7-.62,2.54-1.02,1.5-.7,3.14-1.75,4.09-2.74,2.1,1.8,2.1,2.05,1.5,2.02l-.57-.02c-.62.27-1.42.57-2.27.87v4.62h.82l.45-.7Zm12.27,10.08c.27-.35.47-.7.67-.7.3,0,1.87,1.35,1.87,1.72-.05.27-.3.4-.6.4h-5.26v2.92h3.72l.5-.72c.27-.35.5-.72.7-.72.3,0,1.95,1.42,1.95,1.8-.07.27-.3.37-.6.37h-10.5c-1.3.02-2.5.15-3.74.35l-.62-1.27c1.1.12,2.2.17,3.32.2h3.79v-2.92h-1.77c-1.1.02-2.15.15-3.19.35l-.65-1.27c1.1.12,2.2.17,3.32.2h2.29v-2.57h-3.42v.62c0,.15-.6.5-1.22.5-.25,0-.4-.25-.4-.5.07-.85.1-1.27.15-2.57v-1.55c0-1.55-.1-3.44-.3-4.72l1.9.87h3.29v-2.15h-1.97c-1.25.02-2.47.15-3.69.35l-.65-1.27c1.1.12,2.2.17,3.32.2h2.99v-2.07c-1.85.2-3.79.35-5.64.37l-.08-.45c2.1-.27,4.47-.72,6.56-1.25,1.6-.4,3.14-.95,4.32-1.65,1.82,2.02,1.82,2.27,1.2,2.2l-.6-.1c-1.2.25-2.67.5-4.27.7v2.25h3.59l.47-.7c.27-.35.47-.7.67-.7.3,0,1.92,1.37,1.92,1.75-.03.27-.25.37-.62.37h-6.04v2.15h3.47l.35-.45c.2-.22.32-.47.52-.47.3,0,1.75,1.05,1.75,1.42-.12.17-.5.37-.92.47v2.25c.05,2.25.08,2.99.15,4.34-.17.27-.9.62-1.4.62h-.25v-.85h-3.67v2.57h2.84l.47-.7Zm-4.82-8.48h-3.42v2.52h3.42v-2.52Zm-3.42,5.86h3.42v-2.64h-3.42v2.64Zm8.58-5.86h-3.67v2.52h3.67v-2.52Zm-3.67,5.86h3.67v-2.64h-3.67v2.64Z"/>
      <path class="cls-1" d="m124.61,64.08c.22-.27.4-.57.6-.57.3,0,1.75,1.32,1.75,1.7-.12.2-.55.4-1.02.5v13.8l2.15-.47.1.4c-2.45.9-5.76,2.15-10.2,3.57-.1.3-.35.52-.57.6l-.82-2.25c.52-.07,1.27-.2,2.17-.37v-12.15c0-1.7-.1-3.74-.32-5.11l2.07.95h3.72l.4-.57Zm-.15,1.32h-4.24v4.32h4.24v-4.32Zm0,9.43v-4.42h-4.24v4.42h4.24Zm0,4.99v-4.24h-4.24v5.11c1.27-.25,2.69-.55,4.24-.87Zm11.68-10.73l.4-.52c.22-.27.37-.55.57-.55.3,0,1.75,1.22,1.75,1.6-.15.2-.47.35-.97.4-.2,7.93-.75,12.9-1.9,14.22-.62.77-1.57,1.12-2.67,1.12,0-.52-.1-.95-.42-1.2-.37-.3-1.42-.57-2.32-.72v-.45c1.07.1,2.79.27,3.32.27s.7-.05.95-.32c.87-.85,1.32-5.86,1.55-13.12h-4.27c-.32,6.49-1.62,11.85-8.33,15.64l-.35-.45c5.64-3.84,6.86-8.96,7.13-15.19h-1.25c-.75.02-1.47.15-2.2.35l-.67-1.27c.92.12,1.85.17,2.79.2h1.35c0-.37.02-.72.02-1.1.03-1.65-.07-3.79-.3-5.16,2.74.27,2.74.52,2.32.8l-.4.27c-.03,1.8-.03,3.52-.1,5.19h3.99Z"/>
      <path class="cls-1" d="m161.04,66.9c.27-.37.5-.75.7-.75.3,0,2.02,1.47,2.02,1.85-.05.25-.3.37-.62.37h-7.93c.25,3.32.82,6.49,1.95,9.06.37-.65.72-1.32,1.02-2,.7-1.5,1.2-3.52,1.27-4.91,2.82.87,2.82,1.12,2.34,1.27l-.47.15c-.75,2.37-1.85,4.77-3.44,6.96.9,1.55,2.05,2.82,3.52,3.72.42.32.6.32.8-.17.3-.57.75-1.8,1.07-2.79l.3.05-.4,3.69c.72.92.77,1.25.57,1.52-.5.75-1.97.12-3.12-.7-1.55-1.05-2.77-2.4-3.77-4.04-1.82,2.1-4.19,3.92-7.19,5.16l-.22-.32c2.84-1.52,5.06-3.64,6.74-6.06-1.4-2.92-2.17-6.54-2.5-10.58h-7.83v4.12h4.12l.37-.47c.2-.22.35-.47.55-.47.3,0,1.7,1.1,1.7,1.47-.15.2-.45.32-.9.37-.15,4.99-.52,7.31-1.37,8.13-.5.5-1.27.75-2.07.75,0-.45-.08-.9-.35-1.15-.25-.22-.92-.42-1.57-.52v-.42c.7.07,1.87.15,2.27.15.37,0,.55-.03.72-.2.47-.47.75-2.67.85-6.91h-4.32c0,3.84-.38,8.88-3.89,12.37l-.32-.3c2.37-3.59,2.62-8.08,2.62-12.25v-3.12c0-1.07-.05-2.34-.2-3.24l2.05.97h7.53c-.12-1.6-.17-3.27-.17-4.96,2.45.15,2.45.4,2.02.7l-.42.27c0,1.35.03,2.67.1,3.99h5.36l.52-.75Zm-4.17-3.67c5.04.42,4.52,3.72,2.87,2.97-.5-.97-1.92-2.15-3.07-2.72l.2-.25Z"/>
      <path class="cls-1" d="m177.48,66.12c.27-.35.47-.72.67-.72.3,0,1.92,1.4,1.92,1.77-.05.27-.27.4-.62.4h-5.11v3.37h3.44l.47-.7c.27-.35.47-.72.67-.72.3,0,1.95,1.37,1.95,1.75-.08.27-.27.4-.6.4h-5.94v2.99h3.09l.32-.47c.2-.22.32-.47.52-.47.3,0,1.9,1.15,1.9,1.52-.15.17-.55.4-1.02.47v5.76c0,1.27-.22,2.05-1.95,2.25-.03-.47-.12-.92-.33-1.2-.2-.22-.57-.4-1.22-.52v-.4s1.27.1,1.62.1c.3,0,.37-.1.37-.4v-5.89h-3.32v3.42c.05,2.99.1,3.99.2,5.86-.2.37-.85.77-1.4.77-.3,0-.55-.25-.55-.5.12-2.05.2-3.09.25-6.19v-3.37h-3.29v2.64c.05,2.64.07,3.54.17,5.16-.17.27-.8.62-1.4.62-.25,0-.4-.25-.4-.5.08-.92.1-1.4.15-2.79v-1.67c0-1.67-.1-3.74-.32-5.09l1.95.87h3.14v-2.99h-2.07c-1.3.02-2.5.15-3.74.35l-.62-1.27c1.1.12,2.2.17,3.32.2h3.12v-3.37h-3.29c-.62,1.05-1.32,1.97-2.1,2.69l-.35-.2c.27-.47.55-1.02.8-1.62.67-1.5,1.22-3.79,1.27-5.19,2.62.77,2.62,1.02,2.17,1.22l-.42.17c-.27.75-.62,1.5-.97,2.2h2.89c0-1.37-.08-3.09-.27-4.24,2.62.77,2.62,1.02,2.2,1.32l-.42.27v2.64h2.64l.5-.72Zm4.37,3.64c0-1.65-.1-3.74-.32-5.11,2.62.75,2.62,1,2.2,1.27l-.42.27v7.66c.05,2.99.1,3.99.2,5.86-.2.37-.8.7-1.35.7-.3,0-.5-.25-.5-.5.1-1.55.15-2.35.2-4.69v-5.46Zm4.29-1.67c0-1.65-.1-3.74-.32-5.11,2.69.77,2.69,1.02,2.25,1.3l-.42.25v18.59c0,1.32-.27,2.15-2.37,2.37-.05-.5-.17-.92-.52-1.17-.27-.27-.85-.47-1.87-.6v-.42s2.27.2,2.72.2c.42,0,.55-.15.55-.52v-14.87Z"/>
      <path class="cls-1" d="m210.76,64.98c.3-.37.52-.77.72-.77.3,0,2.04,1.5,2.04,1.87-.05.27-.3.4-.62.4h-17.29v5.51c0,4.12-.2,9.58-3.47,13.4l-.37-.25c2.1-3.89,2.27-8.71,2.27-13.12v-3.57c0-1.22-.07-2.69-.22-3.69l2.05,1h6.66c0-1.07-.05-2.35-.2-3.24,2.62.75,2.62,1,2.17,1.3l-.42.27v1.67h6.14l.55-.77Zm3.09,18.74v.3c-.67.12-1.17.62-1.32,1.45-3.47-.55-6.31-1.42-8.56-2.89-2.62,1.42-5.81,2.37-9.61,2.87l-.15-.42c3.34-.7,6.31-1.75,8.73-3.19-1.37-1.12-2.47-2.52-3.32-4.29h-.95c-.55.02-1.07.15-1.6.35l-.67-1.27c1.1.12,2.2.17,3.32.2h7.98l.52-.45c.27-.22.5-.47.7-.47.3,0,1.57,1.2,1.57,1.57-.2.22-.45.3-1.05.3-1.1,1.6-2.49,2.92-4.14,4.02,2.37,1.07,5.29,1.67,8.53,1.95Zm-2.99-14.54c.27-.37.5-.75.7-.75.3,0,1.92,1.4,1.92,1.77-.07.27-.3.4-.65.4h-5.04v1.52c.05,1.52.05,2.02.12,2.89-.12.3-.77.67-1.37.67h-.3v-1.12h-4.62v.7c0,.2-.67.55-1.25.55-.27,0-.42-.25-.42-.5.08-.97.1-1.47.15-2.97v-1.75h-1.42c-.9.02-1.75.15-2.59.35l-.6-1.25c1.05.12,2.1.17,3.14.2h1.47c0-.9-.05-1.95-.15-2.72,2.5.77,2.5,1.02,2.07,1.27l-.4.25v1.2h4.62c0-.9-.05-1.95-.15-2.72,2.54.77,2.54,1.02,2.12,1.27l-.42.25v1.2h2.57l.5-.72Zm-10.65,8.36c.95,1.52,2.22,2.69,3.82,3.59,1.45-1.02,2.64-2.22,3.54-3.59h-7.36Zm1.42-3.69h4.62v-3.24h-4.62v3.24Z"/>
    </g>
  </g>
</svg>