<?xml version="1.0" encoding="UTF-8"?>
<svg id="_レイヤー_2" data-name="レイヤー 2" xmlns="http://www.w3.org/2000/svg" viewBox="0 0 242.68 169.03">
  <defs>
    <style>
      .cls-1 {
        fill: #fff;
      }
    </style>
  </defs>
  <g id="_レイヤー_2-2" data-name="レイヤー 2">
    <g>
      <path class="cls-1" d="m58.42,154.74h4.42l.77-.87c.76.58,1.14.96,1.14,1.14,0,.11-.07.2-.22.29l-.41.31v6.08h-1.1v-1.02h-4.38l.12.1c2.1,1.85,4.81,3.29,8.14,4.33-.43.35-.75.74-.94,1.16-3.19-1.31-5.7-3-7.53-5.07v6.21h-1.14v-5.52c-2.04,2.06-4.7,3.68-7.96,4.88l-.31-.41c3.39-1.46,5.98-3.34,7.77-5.66h-3.95v1.12h-1.12v-7.63c.41.12.86.31,1.38.57h4.21v-2.06h-7.49l-.26-.47h7.75v-2.36c1.31.07,1.97.24,1.97.53,0,.17-.28.35-.83.55v1.28h5.52l1.04-1.32c.55.48,1.02.96,1.4,1.42l-.2.37h-7.77v2.06Zm-1.14.47h-4.46v2.16h4.46v-2.16Zm0,2.67h-4.46v2.32h4.46v-2.32Zm1.14-2.67v2.16h4.6v-2.16h-4.6Zm0,2.67v2.32h4.6v-2.32h-4.6Z"/>
      <path class="cls-1" d="m69.53,166.01c1.78-1.15,3.3-2.77,4.54-4.86,1.04.55,1.55.96,1.55,1.22,0,.17-.21.26-.63.26-.11,0-.2,0-.29-.02-1.23,1.6-2.86,2.87-4.88,3.81l-.29-.41Zm7.88-13.33v-2.79c1.34.01,2.01.18,2.01.49,0,.2-.3.39-.9.57v1.73h5.41l1.12-1.47c.69.62,1.2,1.14,1.51,1.57l-.26.39h-16.38l-.18-.49h7.67Zm5.07,7h-3.7v6.06c0,.77-.26,1.25-.77,1.44-.34.12-.72.18-1.14.18-.03-.39-.24-.68-.63-.85-.29-.16-.96-.33-2-.51v-.51c1.15.13,2.08.2,2.79.2.42,0,.63-.19.63-.57v-5.43h-3.95v.94h-1.16v-5.92c.59.21,1.04.41,1.36.59h8.38l.79-.9c.85.64,1.28,1.04,1.28,1.2,0,.08-.05.15-.16.22l-.57.37v4.4h-1.14v-.9Zm0-.49v-3.42h-8.77v3.42h8.77Zm-1.67,1.97c1.68.68,3.01,1.44,3.99,2.26.77.66,1.16,1.23,1.16,1.73s-.23.75-.69.75c-.22,0-.43-.13-.61-.39-1.04-1.59-2.41-2.9-4.11-3.95l.25-.39Z"/>
      <path class="cls-1" d="m93.4,159.19h3.48l.75-.88c.73.59,1.1.98,1.1,1.18,0,.09-.05.17-.16.24l-.43.28v6.88h-1.08v-.98h-3.93v1.26h-1.08v-6.74c-.77.64-1.69,1.32-2.75,2.04l-.33-.41c2.12-1.59,3.91-3.27,5.35-5.05h-4.66l-.2-.49h3.77v-2.87h-2.91l-.2-.49h3.21v-3.13c1.25.05,1.87.2,1.87.45,0,.17-.25.37-.77.59v2.08h.83l.73-1.1c.35.33.67.69.96,1.08l.06-.1c.37-.64.75-1.38,1.14-2.2,1.01.47,1.51.82,1.51,1.04,0,.17-.3.27-.91.29-.92,1.64-1.85,3.07-2.81,4.29h1.69l.9-1.24c.41.42.8.87,1.18,1.36l-.22.35h-3.97c-.63.77-1.34,1.53-2.12,2.28Zm-.28.49v2.54h3.93v-2.54h-3.93Zm3.93,5.72v-2.69h-3.93v2.69h3.93Zm-2.38-8.91c.67-.84,1.32-1.8,1.97-2.87h-2.34v2.87h.37Zm9,.02c2.03,1.43,3.05,3.16,3.05,5.19,0,1.86-.73,2.84-2.2,2.95,0-.37-.2-.64-.59-.83-.25-.1-.79-.24-1.61-.41v-.49c.88.12,1.55.18,2.02.18.77,0,1.16-.62,1.16-1.85,0-1.66-.83-3.21-2.5-4.64.71-1.53,1.29-3.17,1.75-4.9h-3.11v15.69h-1.12v-16.87c.42.2.84.43,1.28.69h2.89l.65-.87c.84.75,1.26,1.21,1.26,1.38,0,.08-.07.15-.22.22l-.47.22c-.84,1.93-1.59,3.38-2.24,4.35Z"/>
      <path class="cls-1" d="m117.6,153.43v-3.4c1.35.07,2.02.24,2.02.51,0,.18-.29.37-.88.55v2.34h5.74l1.06-1.36c.46.39.94.89,1.45,1.49l-.22.35h-9.08c1.15.22,1.73.43,1.73.63,0,.13-.22.26-.67.39v2.14h4.56l.75-.88c.81.6,1.22,1,1.22,1.18,0,.08-.07.16-.2.26l-.45.37v5.52c0,1.04-.65,1.55-1.95,1.55,0-.34-.19-.58-.57-.73-.39-.17-1.04-.32-1.95-.45v-.55c.89.13,1.76.2,2.62.2.47,0,.71-.2.71-.61v-5.39h-4.74v9.85h-1.18v-9.85h-4.44v7.71h-1.14v-8.81c.41.17.79.35,1.14.53l.16.1h4.29v-3.17h-7.63l-.24-.49h7.88Z"/>
      <path class="cls-1" d="m135.81,159.15c-.73-.42-1.16-1.72-1.28-3.91-.03-.51-.1-.85-.24-1-.12-.1-.35-.19-.69-.26l.02-.24c.38-.05.68-.07.9-.06.81.03,1.21.39,1.18,1.1,0,.01-.02.16-.06.43,0,.09,0,.24-.02.43-.01.38,0,.9.04,1.55.16,1.17.47,1.7.94,1.61.14-.09.66-.31,1.53-.65.34-.09.64-.14.89-.16.25-.01.45.18.58.59.01.29-.22.47-.69.55-1.15.14-2.49.57-4.01,1.28-1.52.71-2.29,1.52-2.3,2.44,0,1.13,1.09,1.69,3.26,1.69,1.11,0,2.06-.13,2.85-.39.33-.09.55-.14.67-.14.22,0,.45.09.69.26.17.12.25.26.25.41,0,.24-.23.39-.69.47-.84.2-1.91.29-3.22.29-3.03,0-4.54-.85-4.54-2.56,0-1.1,1.3-2.35,3.91-3.76Z"/>
      <path class="cls-1" d="m149.59,153.29h2.87c.38-1.05.67-2.22.88-3.52,1.29.24,1.93.49,1.93.77,0,.18-.27.31-.81.39-.33.83-.77,1.61-1.34,2.36h5.58l.75-.92c.85.64,1.28,1.06,1.28,1.24,0,.08-.05.15-.14.22l-.49.31v13.21h-1.2v-1.81h-9.56v1.81h-1.2v-14.71c.46.18.94.4,1.44.65Zm-.24.49v3.3h9.56v-3.3h-9.56Zm9.56,7.16v-3.38h-9.56v3.38h9.56Zm0,4.13v-3.66h-9.56v3.66h9.56Z"/>
      <path class="cls-1" d="m173.61,154.92h2.71c.07-.68.1-1.31.1-1.89v-2.93c1.22,0,1.83.15,1.83.45,0,.18-.25.37-.75.55v1.93c0,.73-.03,1.36-.08,1.89h3.24l.87-1.16c.42.39.81.81,1.16,1.26l-.24.39h-4.72c1.01,2.4,2.74,4.32,5.19,5.76-.34.24-.66.6-.96,1.1-2.4-1.77-3.95-3.92-4.66-6.45-.3,1.73-.91,3.12-1.83,4.17-.77.9-1.93,1.72-3.46,2.46l-.27-.45c1.76-1.04,2.99-2.27,3.7-3.7.35-.73.63-1.7.83-2.89h-2.83c-1.53,3.46-3.97,6.06-7.31,7.79l-.28-.41c3.68-2.39,6.08-5.65,7.18-9.79h-3.05c-.21.45-.43.88-.67,1.3,1.57.62,2.36,1.29,2.36,2.02,0,.39-.19.59-.57.59-.25,0-.45-.18-.59-.53-.2-.54-.67-1.09-1.44-1.65-.27.43-.64.95-1.1,1.55,1.47.8,2.2,1.59,2.2,2.38,0,.42-.19.63-.57.63-.25,0-.44-.21-.57-.63-.2-.63-.65-1.29-1.36-1.99-.52.67-1.15,1.32-1.89,1.97l-.35-.39c2.07-2.24,3.49-4.98,4.27-8.22,1.21.33,1.81.62,1.81.87,0,.16-.29.29-.87.39-.17.48-.32.88-.45,1.2h2.73l.73-.87c.77.68,1.16,1.13,1.16,1.34,0,.09-.07.16-.2.22l-.47.24c-.17.58-.35,1.08-.53,1.51Zm-4.86,7.79l.45.16c-.1,1.55-.56,2.82-1.38,3.83-.42.5-.84.75-1.26.75-.46,0-.69-.24-.69-.71,0-.22.21-.47.63-.73,1-.63,1.74-1.73,2.24-3.3Zm2.83-.06c.97,1.21,1.45,2.31,1.45,3.3,0,.76-.26,1.14-.79,1.14-.38,0-.57-.23-.57-.69v-.12c.01-.16.02-.37.02-.65,0-.88-.18-1.81-.53-2.79l.41-.2Zm3.52-.1c1.65,1.28,2.48,2.49,2.48,3.62,0,.59-.26.88-.79.88-.35,0-.56-.26-.63-.77-.11-1.14-.57-2.28-1.4-3.42l.33-.31Zm3.6-11.8c1.48.73,2.22,1.49,2.22,2.28,0,.48-.23.73-.69.73-.31,0-.5-.21-.55-.63-.14-.72-.56-1.4-1.26-2.04l.28-.33Zm.25,11.74c1.27.63,2.27,1.36,2.99,2.18.45.48.67.98.67,1.47,0,.55-.24.83-.73.83-.31,0-.56-.26-.73-.79-.34-1.05-1.17-2.16-2.48-3.34l.27-.35Z"/>
      <path class="cls-1" d="m193.71,155.73c.29.24.43.62.43,1.16,0,1.47-.59,3.03-1.77,4.7-.56.75-1.21,1.34-1.95,1.77-.3.17-.57.26-.81.26-.38,0-.73-.17-1.04-.51-.56-.52-.84-1.28-.84-2.26,0-1.47.64-2.78,1.93-3.93,1.32-1.17,2.88-1.75,4.68-1.75,1.42,0,2.6.32,3.56.96,1.42.93,2.12,2.25,2.12,3.97s-.68,3.14-2.04,4.07c-1.21.83-2.81,1.38-4.82,1.65l-.02-.29c3.83-.85,5.74-2.65,5.74-5.39,0-1.42-.48-2.53-1.44-3.34-.87-.72-1.91-1.08-3.13-1.08-.25,0-.45,0-.61.02Zm-3.36,6.88s.08,0,.14-.02c.72-.59,1.36-1.53,1.91-2.83.48-1.11.73-2.31.73-3.6,0-.2,0-.3.02-.31-.72.09-1.39.37-2,.83-1.6,1.1-2.4,2.54-2.4,4.31,0,.79.18,1.36.55,1.71.17.13.34.2.51.2.14,0,.33-.09.55-.28Z"/>
      <path class="cls-1" d="m212.35,151.42l.9-1.18c.54.51.92.94,1.16,1.28l-.22.37h-9.16l-.16-.47h7.47Zm.31,10.24h-1.67c-.68,0-1.02-.34-1.02-1.02v-1.71h-.9c-.07,1.61-.79,2.77-2.16,3.48l-.28-.35c.93-.71,1.41-1.75,1.44-3.13h-1.57v8.47h-1.04v-9.5c.47.17.9.35,1.3.55h5.78l.61-.75c.72.58,1.08.93,1.08,1.06,0,.09-.05.17-.16.24l-.37.28v6.45c0,.93-.53,1.4-1.59,1.42-.01-.33-.1-.54-.26-.65-.22-.12-.67-.24-1.36-.37v-.49c.5.07,1.04.1,1.63.1.37,0,.55-.18.55-.53v-3.54Zm-4.97-8h3.89l.65-.75c.69.55,1.04.9,1.04,1.06,0,.09-.04.16-.12.22l-.43.26v2.97h-1.02v-.73h-4.25v.75h-1.06v-4.31c.47.16.9.33,1.3.53Zm2.18,9.56v3.13h-.96v-3.13h-1.61l-.24-.47h3.36l.67-.79c.29.24.6.55.92.94l-.18.31h-1.97Zm-2.42-9.06v2.04h4.25v-2.04h-4.25Zm3.48,4.78v1.44c0,.31.16.47.47.47h1.26v-1.91h-1.73Zm6.68-4.97v-3.99c1.25.05,1.87.21,1.87.47,0,.17-.26.35-.79.53v2.99h1.55l.73-.9c.72.66,1.08,1.06,1.08,1.2,0,.1-.06.19-.18.26l-.39.26v6.19h-1.06v-1.02h-1.73v4.7c1.04-.17,1.79-.31,2.28-.41-.22-.69-.57-1.44-1.04-2.24l.37-.24c1.6,1.69,2.4,3.19,2.4,4.48,0,.56-.23.85-.69.85-.37,0-.57-.29-.61-.86-.01-.46-.1-.94-.28-1.46-.03,0-.07.01-.12.04-1.72.58-3.57,1.06-5.56,1.45-.11.48-.24.73-.39.73-.33,0-.6-.59-.81-1.77,1.31-.12,2.38-.24,3.2-.35l.16-.02v-4.9h-1.67v1.42h-1.06v-8.04c.42.2.86.41,1.32.65h1.42Zm0,.47h-1.67v5.01h1.67v-5.01Zm1.08,0v5.01h1.73v-5.01h-1.73Z"/>
      <path class="cls-1" d="m242.68,157.24c-.42.31-.74.68-.96,1.1-3.22-1.72-5.82-3.96-7.79-6.74-1.89,3.28-4.72,5.77-8.49,7.49l-.31-.41c3.72-2.15,6.45-5.05,8.18-8.71,1.21.22,1.81.45,1.81.67,0,.13-.29.27-.87.41,2.35,2.74,5.16,4.8,8.43,6.19Zm-12.94,3.22h8.02l.79-.94c.85.67,1.28,1.08,1.28,1.22,0,.07-.05.14-.16.22l-.53.37v6.06h-1.14v-1.36h-8.53v1.36h-1.14v-7.55c.34.12.81.33,1.42.63Zm6.45-3.22l.94-1.18c.37.29.75.65,1.16,1.08l.18.22-.22.35h-8.83l-.26-.47h7.02Zm-6.72,3.7v4.6h8.53v-4.6h-8.53Z"/>
    </g>
    <g>
      <path class="cls-1" d="m33.91,162.22c-.35,1.41-.62,2.5-.79,3.29-.18.79-.35,1.36-.53,1.71-1.05,2.11-1.94,2.37-2.64.79-.35-.7-.53-1.67-.53-2.9-.18-2.11-.13-5.36.13-9.75.26-4.39.74-9.66,1.45-15.81.35-4.92.83-10.32,1.45-16.21.61-5.89,1.27-11.9,1.98-18.06-5.62,1.76-11.2,3.6-16.74,5.54-5.54,1.94-10.94,3.87-16.21,5.8-.53.18-.96-.09-1.32-.79-.35-.7-.17-1.23.53-1.58,5.63-1.93,11.24-3.86,16.87-5.8,5.62-1.93,11.33-3.86,17.13-5.8-.35-2.64-.75-5.36-1.19-8.17-.44-2.81-1.01-5.71-1.71-8.7-.88-4.04-1.8-8.08-2.77-12.12-.97-4.04-1.98-7.82-3.03-11.33-2.46-7.2-4.92-13-7.38-17.4-.18-.35-.13-.7.13-1.05.26-.35.57-.44.92-.26,3.51.18,7.07.26,10.67.26s7.25-.17,10.94-.53l1.58-15.29c.88-7.73,1.58-13.88,2.11-18.45.53-4.57.79-6.94.79-7.12,0-.7.26-1.05.79-1.05.53-.17.96.09,1.32.79,0,.35-.26,2.86-.79,7.51-.53,4.66-1.23,10.85-2.11,18.58l-1.58,14.76c9.66-.7,18.85-2.28,27.54-4.74,8.7-2.46,17.09-5.58,25.17-9.36,8.08-3.78,16.03-8.08,23.85-12.92,7.82-4.83,15.68-9.97,23.59-15.42.88-.7,1.71-.83,2.5-.4.79.44.83,1.1.13,1.98l-10.81,15.02c-.35.53-.88.62-1.58.26-.36-.7-.44-1.23-.26-1.58l6.33-8.43c.88-1.05,1.27-1.62,1.19-1.71-.09-.09-.66.31-1.71,1.19-7.73,5.1-15.33,9.84-22.8,14.23-7.47,4.39-15.07,8.26-22.8,11.6-7.73,3.34-15.73,6.11-23.98,8.3-8.26,2.2-17.13,3.65-26.62,4.35l-5.8,52.98c0,.53.04,1.05.13,1.58.09.53.13,1.05.13,1.58,2.98-.88,6.02-1.85,9.09-2.9,3.07-1.05,6.2-2.02,9.36-2.9,9.31-2.99,18.58-5.97,27.81-8.96,9.23-2.99,18.32-6.24,27.28-9.75,1.05-.35,1.85-.3,2.37.13.53.44.62.92.26,1.45-.18.18-.92.7-2.24,1.58-1.32.88-2.81,1.85-4.48,2.9-1.67,1.05-3.25,2.02-4.74,2.9-1.49.88-2.5,1.41-3.03,1.58-.53.53-.97.44-1.32-.26-.53-.53-.44-.96.26-1.32l5.8-3.69c-7.73,2.64-15.42,5.23-23.06,7.78-7.64,2.55-15.33,5.05-23.06,7.51-3.52,1.05-6.9,2.11-10.15,3.16-3.25,1.05-6.55,2.2-9.88,3.43.53,5.8.79,11.42.79,16.87,0,7.56-.53,15.11-1.58,22.67-.88,6.5-1.94,12.65-3.16,18.45Zm7.12-116.76c-1.94.18-3.78.26-5.54.26h-12.92c2.28,4.22,4.48,9.58,6.59,16.08,2.99,9.67,5.27,19.24,6.85,28.73.88-7.91,1.71-15.68,2.5-23.33.79-7.64,1.62-14.89,2.5-21.75Zm-5.27,67.74l-2.9,26.62-1.05,15.55c-.36,4.04-.49,6.5-.4,7.38.09.88.57-1.32,1.45-6.59,1.23-6.33,2.11-12.34,2.64-18.05.53-5.71.7-11.38.53-17,0-1.4-.04-2.72-.13-3.95-.09-1.23-.13-2.55-.13-3.95Z"/>
      <path class="cls-1" d="m74.24,106.87c.35-.88,1.01-1.23,1.98-1.05.96.18,1.27.7.92,1.58-.35.7-.97,2.24-1.84,4.61-.88,2.37-1.58,4.53-2.11,6.46-.53,1.94-.53,3.21,0,3.82.53.62,1.49.22,2.9-1.19,1.58-1.93,2.94-3.86,4.09-5.8,1.14-1.93,2.33-3.86,3.56-5.8.35-.53.79-.7,1.32-.53.53.18.61.7.26,1.58-.7,1.41-1.41,3.34-2.11,5.8-.7,2.46-1.05,4.74-1.05,6.85s.44,3.21,1.32,3.29c.88.09,1.84-.31,2.9-1.19,4.04-3.16,7.47-6.23,10.28-9.23,2.81-2.99,5.88-6.06,9.22-9.23.53-.53.92-.53,1.19,0,.26.53.22.97-.13,1.32-6.33,6.68-11.07,11.42-14.23,14.23-1.41,1.23-2.73,2.37-3.95,3.43-1.23,1.05-2.64,1.85-4.22,2.37-1.41.35-2.42.22-3.03-.4-.62-.61-.97-1.49-1.05-2.64-.09-1.14-.09-2.46,0-3.95.09-1.49.3-2.85.66-4.08-.53.7-1.1,1.58-1.71,2.64-.62,1.05-1.32,2.02-2.11,2.9-.79.88-1.63,1.58-2.5,2.11-.88.53-1.75.62-2.64.26-1.23-.35-1.85-1.4-1.85-3.16s.26-3.64.79-5.67c.53-2.02,1.15-3.95,1.84-5.8.71-1.85,1.15-3.03,1.32-3.56Z"/>
      <path class="cls-1" d="m106.92,105.29c.88.88,2.46,1.5,4.74,1.85,1.93.35,3.69.88,5.27,1.58,1.58.7,2.81,1.76,3.69,3.16,1.05-.88,2.15-1.71,3.29-2.5,1.14-.79,2.41-1.62,3.82-2.5.53-.35.96-.22,1.32.4.35.62.26,1.1-.26,1.45-1.41.88-2.68,1.76-3.82,2.64-1.15.88-2.33,1.76-3.56,2.64.35,1.41.3,2.86-.13,4.35-.44,1.49-1.1,2.99-1.98,4.48-.88,1.5-1.94,2.81-3.16,3.95-1.23,1.15-2.46,1.98-3.69,2.5-1.41.7-2.55.7-3.43,0-.7-.53-.88-1.4-.53-2.64.35-1.23.7-2.02,1.05-2.37.88-1.4,2.06-3.03,3.56-4.88,1.49-1.85,3.29-3.73,5.4-5.67-.88-1.23-1.89-2.11-3.03-2.64-1.14-.53-2.29-.96-3.43-1.32-1.15-.35-2.29-.66-3.43-.92-1.14-.26-2.24-.66-3.29-1.19-1.05-.7-1.67-1.58-1.84-2.64-.17-1.05-.09-2.11.26-3.16.7-2.28,2.11-4.13,4.22-5.54,2.11-1.4,4.13-2.37,6.06-2.9,3.16-.88,5.62-.57,7.38.92,1.75,1.5,1.4,3.74-1.05,6.72-.53.88-1.23,1.28-2.11,1.19-.88-.09-1.41-.48-1.58-1.19,0-.88.96-1.58,2.9-2.11.35-.35.61-.92.79-1.71.17-.79,0-1.36-.53-1.71-1.05-.88-2.64-.79-4.74.26s-4.04,2.29-5.8,3.69c-.7.53-1.5,1.41-2.37,2.64-.88,1.23-.88,2.29,0,3.16Zm5.01,21.61c1.4-1.23,2.9-2.81,4.48-4.74,1.58-1.93,2.37-3.86,2.37-5.8-1.76,1.58-3.25,3.16-4.48,4.74-1.23,1.58-2.2,2.99-2.9,4.22-.35.88-.62,1.58-.79,2.11-.18.53.26.35,1.32-.53Z"/>
      <path class="cls-1" d="m127.74,106.87c.17-.53.79-.88,1.84-1.05,1.05-.17,1.49.18,1.32,1.05l-2.64,12.65c-.35,2.29-.4,4.18-.13,5.67.26,1.49,1.8,1.19,4.61-.92l4.22-3.43c2.46-2.11,5.05-4.44,7.78-6.98,2.72-2.55,5.23-4.88,7.51-6.98.53-.53,1.05-.53,1.58,0,.53.53.53,1.05,0,1.58-2.46,2.11-5.05,4.44-7.78,6.98-2.73,2.55-5.32,4.88-7.78,6.98l-4.48,3.69c-4.57,3.69-7.38,4.04-8.43,1.05-.35-1.05-.48-2.54-.4-4.48.09-1.93.31-4.13.66-6.59.18-1.05.49-2.59.92-4.61.44-2.02.84-3.56,1.19-4.61Zm5.27-7.91c-.18.35-.57.57-1.19.66-.62.09-1.1.13-1.45.13-.7-.35-.88-.79-.53-1.32l1.05-3.95c.17-.53.83-.79,1.98-.79s1.54.44,1.19,1.32l-1.05,3.95Z"/>
      <path class="cls-1" d="m152.25,106.87c.35-.7.92-.96,1.71-.79.79.18,1.01.7.66,1.58-1.41,3.34-2.59,6.59-3.56,9.75-.96,3.16-1.09,6.68-.39,10.54.35,1.76.92,2.86,1.71,3.29.79.44,1.71.44,2.77,0,1.05-.44,2.06-1.14,3.03-2.11s1.71-1.89,2.24-2.77c1.93-2.99,3.78-6.33,5.54-10.02-1.58-.17-3.08-.7-4.48-1.58-1.41-.88-2.55-1.84-3.43-2.9-.88-.88-1.5-1.98-1.84-3.29-.35-1.32-.44-2.5-.26-3.56.35-2.11,1.45-3.82,3.29-5.14,1.85-1.32,3.56-2.15,5.14-2.5,2.99-.7,4.96-.4,5.93.92.96,1.32,1.4,3.03,1.32,5.14-.09,2.11-.53,4.26-1.32,6.46-.79,2.2-1.36,3.82-1.71,4.88,4.04-.17,7.55-1.01,10.54-2.5,2.99-1.49,5.71-3.29,8.17-5.4.35-.35.75-.26,1.19.26.44.53.48.97.13,1.32-6.15,5.63-13.09,8.43-20.82,8.43-.88,1.94-2.15,4.44-3.82,7.51-1.67,3.08-3.65,5.58-5.93,7.51-2.46,2.11-4.53,2.68-6.19,1.71-1.67-.96-2.85-2.5-3.56-4.61-1.05-3.16-1.01-6.94.13-11.33,1.15-4.39,2.42-7.99,3.82-10.81Zm14.23,7.64c.7-1.93,1.45-4.22,2.24-6.85s1.01-4.74.66-6.33c-.35-1.4-1.32-2.11-2.9-2.11s-3.16.53-4.75,1.58c-1.58,1.05-2.73,2.42-3.43,4.09-.7,1.67-.26,3.56,1.32,5.67.88.88,1.93,1.76,3.16,2.64,1.23.88,2.46,1.32,3.69,1.32Z"/>
      <path class="cls-1" d="m187.04,120.31c.7-1.4,1.75-3.16,3.16-5.27,1.4-2.11,2.54-3.78,3.43-5.01.35-.53.79-1.1,1.32-1.71.53-.61,1.05-1.1,1.58-1.45.7-.35,1.4-.44,2.11-.26.53,0,.88.35,1.05,1.05.53.88.7,2.81.53,5.8,0,1.05-.04,2.07-.13,3.03-.09.97-.13,1.98-.13,3.03,0,1.41.26,2.46.79,3.16.88,2.11,2.54,2.94,5.01,2.5,2.46-.44,4.48-1.01,6.06-1.71,4.04-1.75,8.21-4.22,12.52-7.38,4.3-3.16,7.95-6.23,10.94-9.23.53-.35,1.01-.3,1.45.13.44.44.39.92-.13,1.45-2.99,2.99-6.72,6.11-11.2,9.36-4.48,3.25-8.74,5.76-12.78,7.51-1.94.88-4.35,1.54-7.25,1.98-2.9.44-5.14-.3-6.72-2.24-1.05-.88-1.67-2.55-1.85-5.01-.18-.7-.22-1.4-.13-2.11.09-.7.13-1.4.13-2.11l.53-4.48c0-1.75-.26-2.28-.79-1.58-2.46,2.81-4.75,5.98-6.85,9.49-.88,1.58-1.71,3.25-2.5,5.01-.79,1.76-1.45,3.52-1.98,5.27-.17.35-.79.62-1.85.79-1.05.18-1.49-.26-1.32-1.32l6.06-27.94c.17-.7.57-1.01,1.19-.92.61.09,1.19.49,1.71,1.19.53.7.92,1.67,1.19,2.9.26,1.23.13,2.64-.4,4.22-.18.35-.7.53-1.58.53-.35-.17-.53-.7-.53-1.58.35-.35.53-1.4.53-3.16l-3.16,16.08Z"/>
    </g>
  </g>
</svg>