<?xml version="1.0" encoding="UTF-8"?>
<svg id="_レイヤー_2" data-name="レイヤー 2" xmlns="http://www.w3.org/2000/svg" viewBox="0 0 74.45 34.05">
  <defs>
    <style>
      .cls-1 {
        fill: #231815;
      }
    </style>
  </defs>
  <g id="_レイヤー_1-2" data-name="レイヤー 1">
    <g>
      <path class="cls-1" d="m8.7,17.97h6.81l1.46-1.73c1.44,1.15,2.15,1.92,2.15,2.31,0,.18-.1.33-.31.46l-.85.54v13.47h-2.12v-1.92h-7.69v2.46h-2.12v-13.2c-1.51,1.26-3.31,2.59-5.39,4l-.65-.81c4.16-3.1,7.64-6.4,10.47-9.89H1.35l-.38-.96h7.39v-5.62H2.65l-.38-.96h6.27V0c2.44.1,3.66.4,3.66.88,0,.33-.5.72-1.5,1.15v4.08h1.62l1.42-2.15c.69.64,1.32,1.35,1.89,2.12l.12-.19c.72-1.26,1.46-2.69,2.23-4.31,1.98.92,2.96,1.6,2.96,2.04,0,.33-.59.53-1.77.58-1.8,3.21-3.63,6-5.5,8.39h3.31l1.77-2.42c.79.82,1.56,1.71,2.31,2.66l-.42.69h-7.77c-1.23,1.51-2.62,3-4.16,4.46Zm-.54.96v4.96h7.69v-4.96h-7.69Zm7.69,11.2v-5.27h-7.69v5.27h7.69Zm-4.66-17.43c1.31-1.64,2.59-3.51,3.85-5.62h-4.58v5.62h.73Zm17.62.04c3.98,2.8,5.96,6.18,5.96,10.16,0,3.64-1.44,5.57-4.31,5.77,0-.72-.38-1.26-1.15-1.62-.49-.21-1.54-.47-3.16-.81v-.96c1.72.23,3.04.35,3.96.35,1.51,0,2.27-1.21,2.27-3.62,0-3.26-1.63-6.28-4.89-9.08,1.39-3,2.53-6.19,3.42-9.58h-6.08v30.7h-2.19V1.04c.82.38,1.65.83,2.5,1.35h5.66l1.27-1.69c1.64,1.46,2.46,2.36,2.46,2.69,0,.15-.14.29-.42.42l-.92.42c-1.64,3.77-3.1,6.6-4.39,8.5Z"/>
      <path class="cls-1" d="m56.06,6.69V.04c2.64.13,3.96.46,3.96,1,0,.36-.58.72-1.73,1.08v4.58h11.23l2.08-2.65c.9.77,1.85,1.74,2.85,2.92l-.42.69h-17.78c2.26.44,3.39.85,3.39,1.23,0,.26-.44.51-1.31.77v4.19h8.93l1.46-1.73c1.59,1.18,2.39,1.95,2.39,2.31,0,.15-.13.32-.38.5l-.88.73v10.81c0,2.03-1.27,3.04-3.81,3.04,0-.67-.37-1.14-1.12-1.42-.77-.33-2.04-.63-3.81-.88v-1.08c1.74.26,3.45.38,5.12.38.92,0,1.38-.4,1.38-1.19v-10.54h-9.27v19.28h-2.31V14.77h-8.7v15.08h-2.23V12.62c.79.33,1.54.68,2.23,1.04l.31.19h8.39v-6.2h-14.93l-.46-.96h15.43Z"/>
    </g>
  </g>
</svg>