<?xml version="1.0" encoding="UTF-8"?>
<svg id="_レイヤー_2" data-name="レイヤー 2" xmlns="http://www.w3.org/2000/svg" viewBox="0 0 343.6 11.53">
  <defs>
    <style>
      .cls-1 {
        fill: #231815;
      }
    </style>
  </defs>
  <g id="_レイヤー_1-2" data-name="レイヤー 1">
    <g>
      <path class="cls-1" d="m5.7,8.8h-.91v-3.54c0-.98-.35-1.83-1.39-1.83-.7,0-1.58.58-1.58,1.68v3.69h-.91V0h.91v3.73h.02c.4-.66,1.12-1.07,1.86-1.07s2,.45,2,2.49v3.65Z"/>
      <path class="cls-1" d="m7.71,1.72l.9-.31v1.4h1.55v.72h-1.55v3.47c0,.76.23,1.18.81,1.18.28,0,.46-.03.62-.09l.05.7c-.2.09-.51.14-.89.14-1.45,0-1.5-1.32-1.5-1.96v-3.44h-.92v-.72h.92v-1.09Z"/>
      <path class="cls-1" d="m11.61,1.72l.9-.31v1.4h1.55v.72h-1.55v3.47c0,.76.23,1.18.81,1.18.28,0,.46-.03.62-.09l.05.7c-.2.09-.51.14-.89.14-1.45,0-1.5-1.32-1.5-1.96v-3.44h-.92v-.72h.92v-1.09Z"/>
      <path class="cls-1" d="m16.11,3.82c.42-.74,1.11-1.15,2.05-1.15,1.42,0,2.44,1.22,2.44,3.06,0,2.2-1.29,3.21-2.61,3.21-.79,0-1.45-.36-1.8-.96h-.02v3.28h-.91v-6.52c0-.78-.02-1.39-.04-1.94h.83l.05,1.02h.02Zm.06,2.6c0,1.17.87,1.78,1.68,1.78,1.18,0,1.83-1.01,1.83-2.44,0-1.24-.63-2.34-1.79-2.34-1.02,0-1.72.99-1.72,1.86v1.14Z"/>
      <path class="cls-1" d="m24.78,3.72c-.22-.14-.63-.35-1.17-.35-.66,0-1.01.41-1.01.89,0,.52.34.76,1.11,1.09.97.4,1.53.9,1.53,1.8,0,1.07-.81,1.77-2.12,1.77-.59,0-1.17-.17-1.57-.41l.25-.7c.32.19.84.41,1.35.41.8,0,1.2-.43,1.2-.97s-.32-.87-1.11-1.19c-1.01-.41-1.53-.97-1.53-1.69,0-.94.75-1.71,1.96-1.71.57,0,1.06.17,1.38.36l-.26.69Z"/>
      <path class="cls-1" d="m26.4,3.74c0-.41.26-.7.65-.7s.65.3.65.7-.25.7-.65.7c-.42,0-.65-.34-.65-.7Zm0,4.5c0-.41.26-.7.65-.7s.65.3.65.7c0,.39-.25.69-.65.69-.42,0-.65-.33-.65-.69Z"/>
      <path class="cls-1" d="m28.85,9.3h-.74L31.6.29h.76l-3.51,9.01Z"/>
      <path class="cls-1" d="m33.04,9.3h-.74L35.79.29h.76l-3.51,9.01Z"/>
      <path class="cls-1" d="m45.12,2.79l-1.9,6.01h-.81l-.95-3.01c-.22-.68-.38-1.29-.53-1.98h-.03c-.14.71-.33,1.34-.55,1.99l-1,3h-.83l-1.77-6.01h.95l.84,3.15c.17.67.33,1.29.45,1.9h.03c.13-.59.33-1.24.53-1.89l1-3.16h.79l.96,3.1c.21.7.39,1.34.53,1.95h.03c.11-.59.28-1.22.47-1.94l.88-3.11h.91Z"/>
      <path class="cls-1" d="m53.92,2.79l-1.9,6.01h-.81l-.95-3.01c-.22-.68-.38-1.29-.53-1.98h-.03c-.14.71-.33,1.34-.55,1.99l-1,3h-.83l-1.77-6.01h.95l.84,3.15c.17.67.33,1.29.45,1.9h.03c.13-.59.33-1.24.53-1.89l1-3.16h.79l.96,3.1c.21.7.39,1.34.53,1.95h.03c.11-.59.28-1.22.47-1.94l.88-3.11h.91Z"/>
      <path class="cls-1" d="m62.72,2.79l-1.9,6.01h-.81l-.95-3.01c-.22-.68-.38-1.29-.53-1.98h-.03c-.14.71-.33,1.34-.55,1.99l-1,3h-.83l-1.77-6.01h.95l.84,3.15c.17.67.33,1.29.45,1.9h.03c.13-.59.33-1.24.53-1.89l1-3.16h.79l.96,3.1c.21.7.39,1.34.53,1.95h.03c.11-.59.28-1.22.47-1.94l.88-3.11h.91Z"/>
      <path class="cls-1" d="m63.35,8.24c0-.42.27-.72.66-.72s.65.3.65.72c0,.4-.25.69-.66.69s-.65-.33-.65-.69Z"/>
      <path class="cls-1" d="m67.03,8.33c0,1.15-.17,1.88-.67,2.42-.45.46-1.21.65-1.71.65l-.1-.73c1.46-.1,1.56-1.01,1.56-2.74V2.81h.91v5.52Zm-.46-6.58c-.36,0-.59-.29-.59-.63s.25-.62.62-.62.58.28.58.62c0,.37-.24.63-.6.63Z"/>
      <path class="cls-1" d="m73.34,2.81l-1.6,4.25c-.71,1.95-1.22,3.07-1.97,3.77-.51.46-1,.65-1.22.7l-.25-.77c1.4-.52,1.94-2.04,1.94-2.16,0-.05-.02-.14-.07-.25l-2.12-5.54h1l1.31,3.64c.15.42.29.89.38,1.25h.03c.1-.36.24-.81.38-1.28l1.21-3.62h.97Z"/>
      <path class="cls-1" d="m79.05,7.21c0,.62.03,1.13.06,1.6h-.83l-.04-.95h-.03c-.28.47-.89,1.08-1.91,1.08-.9,0-1.97-.52-1.97-2.58v-3.54h.91v3.38c0,1.17.34,1.98,1.34,1.98.72,0,1.56-.57,1.56-1.63v-3.73h.91v4.4Z"/>
      <path class="cls-1" d="m80.32,5.09h3v.7h-3v-.7Z"/>
      <path class="cls-1" d="m89.47,2.79c-.03.43-.05.91-.05,1.65v3.5c0,1.04-.02,3.44-2.86,3.44-.68,0-1.43-.17-1.88-.47l.24-.71c.39.23.97.45,1.68.45,1.1,0,1.9-.58,1.9-2.17v-.72h-.02c-.31.56-.95,1.02-1.86,1.02-1.43,0-2.45-1.27-2.45-2.95,0-2.08,1.3-3.18,2.6-3.18,1.02,0,1.56.55,1.82,1.03h.02l.04-.9h.82Zm-.98,2.31c0-1.05-.76-1.71-1.6-1.71-1.06,0-1.79.94-1.79,2.39,0,1.28.62,2.28,1.78,2.28.68,0,1.61-.52,1.61-1.76v-1.2Z"/>
      <path class="cls-1" d="m90.97,8.24c0-.42.27-.72.66-.72s.65.3.65.72c0,.4-.25.69-.66.69s-.65-.33-.65-.69Z"/>
      <path class="cls-1" d="m97.67,8.58c-.26.13-.86.34-1.63.34-1.72,0-2.85-1.22-2.85-3.06s1.22-3.2,3.07-3.2c.67,0,1.21.2,1.44.32l-.23.74c-.25-.14-.65-.31-1.23-.31-1.39,0-2.11,1.11-2.11,2.4,0,1.45.87,2.37,2.08,2.37.59,0,1-.17,1.3-.3l.17.7Z"/>
      <path class="cls-1" d="m104.04,5.75c0,2.23-1.47,3.18-2.81,3.18-1.54,0-2.73-1.15-2.73-3.09,0-2.05,1.28-3.18,2.81-3.18,1.64,0,2.73,1.25,2.73,3.09Zm-2.76-2.38c-1.3,0-1.84,1.28-1.84,2.43,0,1.33.74,2.41,1.82,2.41s1.85-1.08,1.85-2.43c0-1.07-.52-2.41-1.83-2.41Z"/>
      <path class="cls-1" d="m105.17,8.24c0-.42.27-.72.66-.72s.65.3.65.72c0,.4-.25.69-.66.69s-.65-.33-.65-.69Z"/>
      <path class="cls-1" d="m108.85,8.33c0,1.15-.17,1.88-.67,2.42-.45.46-1.21.65-1.71.65l-.1-.73c1.46-.1,1.56-1.01,1.56-2.74V2.81h.91v5.52Zm-.46-6.58c-.36,0-.59-.29-.59-.63s.25-.62.62-.62.58.28.58.62c0,.37-.24.63-.6.63Z"/>
      <path class="cls-1" d="m111.5,3.82c.42-.74,1.11-1.15,2.05-1.15,1.42,0,2.44,1.22,2.44,3.06,0,2.2-1.29,3.21-2.61,3.21-.79,0-1.45-.36-1.8-.96h-.02v3.28h-.91v-6.52c0-.78-.02-1.39-.04-1.94h.83l.05,1.02h.02Zm.05,2.6c0,1.17.87,1.78,1.68,1.78,1.18,0,1.83-1.01,1.83-2.44,0-1.24-.63-2.34-1.79-2.34-1.02,0-1.72.99-1.72,1.86v1.14Z"/>
      <path class="cls-1" d="m117.17,9.3h-.74l3.49-9.01h.76l-3.51,9.01Z"/>
      <path class="cls-1" d="m124.35,3.72c-.22-.14-.63-.35-1.17-.35-.66,0-1.01.41-1.01.89,0,.52.34.76,1.11,1.09.97.4,1.53.9,1.53,1.8,0,1.07-.81,1.77-2.12,1.77-.59,0-1.17-.17-1.57-.41l.25-.7c.32.19.84.41,1.35.41.8,0,1.2-.43,1.2-.97s-.32-.87-1.11-1.19c-1.01-.41-1.53-.97-1.53-1.69,0-.94.75-1.71,1.96-1.71.57,0,1.06.17,1.38.36l-.26.69Z"/>
      <path class="cls-1" d="m127.07,3.82c.42-.74,1.11-1.15,2.05-1.15,1.42,0,2.44,1.22,2.44,3.06,0,2.2-1.29,3.21-2.61,3.21-.79,0-1.45-.36-1.8-.96h-.02v3.28h-.91v-6.52c0-.78-.02-1.39-.04-1.94h.83l.05,1.02h.02Zm.05,2.6c0,1.17.87,1.78,1.68,1.78,1.18,0,1.83-1.01,1.83-2.44,0-1.24-.63-2.34-1.79-2.34-1.02,0-1.72.99-1.72,1.86v1.14Z"/>
      <path class="cls-1" d="m137.18,8.55c-.34.17-.97.37-1.88.37-1.75,0-2.79-1.23-2.79-3.03,0-1.88,1.06-3.23,2.67-3.23,1.85,0,2.32,1.69,2.32,2.74,0,.21-.01.36-.02.51h-4.08c.01,1.66.96,2.29,2.04,2.29.75,0,1.2-.15,1.57-.31l.18.66Zm-.58-3.32c.01-.81-.33-1.87-1.51-1.87-1.1,0-1.58,1.05-1.67,1.87h3.18Z"/>
      <path class="cls-1" d="m142.91,8.58c-.26.13-.86.34-1.63.34-1.72,0-2.85-1.22-2.85-3.06s1.22-3.2,3.07-3.2c.67,0,1.21.2,1.44.32l-.23.74c-.25-.14-.65-.31-1.23-.31-1.39,0-2.11,1.11-2.11,2.4,0,1.45.87,2.37,2.08,2.37.59,0,1-.17,1.3-.3l.17.7Z"/>
      <path class="cls-1" d="m144.64,1.75c-.35,0-.59-.27-.59-.63s.25-.62.61-.62.59.28.59.62c0,.39-.25.63-.6.63Zm.46,7.05h-.91V2.81h.91v6Z"/>
      <path class="cls-1" d="m150.84,7.37c0,.5.01,1.01.09,1.43h-.84l-.09-.77h-.03c-.31.47-.92.9-1.77.9-1.14,0-1.75-.84-1.75-1.71,0-1.44,1.25-2.22,3.48-2.21,0-.51,0-1.65-1.36-1.65-.52,0-1.06.14-1.46.43l-.22-.63c.48-.32,1.16-.51,1.83-.51,1.69,0,2.13,1.2,2.13,2.39v2.32Zm-.9-1.68c-1.13,0-2.55.17-2.55,1.43,0,.77.48,1.11,1.03,1.11.89,0,1.52-.68,1.52-1.41v-1.13Z"/>
      <path class="cls-1" d="m153.51,8.8h-.91V0h.91v8.8Z"/>
      <path class="cls-1" d="m155.14,9.3h-.74l3.49-9.01h.76l-3.51,9.01Z"/>
      <path class="cls-1" d="m164.32,8.8h-.91v-3.54c0-.98-.35-1.84-1.4-1.84-.78,0-1.57.66-1.57,1.71v3.67h-.91v-4.46c0-.62-.02-1.07-.04-1.55h.81l.06.98h.02c.3-.58.99-1.11,1.93-1.11.75,0,2.02.45,2.02,2.49v3.65Z"/>
      <path class="cls-1" d="m170.33,8.55c-.34.17-.97.37-1.88.37-1.75,0-2.79-1.23-2.79-3.03,0-1.88,1.06-3.23,2.67-3.23,1.85,0,2.32,1.69,2.32,2.74,0,.21-.01.36-.02.51h-4.08c.01,1.66.96,2.29,2.04,2.29.75,0,1.2-.15,1.57-.31l.18.66Zm-.58-3.32c.01-.81-.33-1.87-1.51-1.87-1.1,0-1.58,1.05-1.67,1.87h3.18Z"/>
      <path class="cls-1" d="m174.75,3.58c-.1-.01-.2-.02-.33-.02-.99,0-1.5.98-1.5,1.99v3.26h-.91v-4.2c0-.64-.01-1.22-.04-1.79h.8l.04,1.16h.03c.26-.75.89-1.29,1.63-1.29.1,0,.18.02.28.03v.87Z"/>
      <path class="cls-1" d="m176.27,1.75c-.35,0-.59-.27-.59-.63s.25-.62.61-.62.59.28.59.62c0,.39-.25.63-.6.63Zm.46,7.05h-.91V2.81h.91v6Z"/>
      <path class="cls-1" d="m186.71,8.8h-.9v-3.47c0-1.17-.42-1.91-1.32-1.91-.74,0-1.41.69-1.41,1.61v3.77h-.9v-3.7c0-.96-.41-1.68-1.25-1.68-.78,0-1.47.77-1.47,1.71v3.67h-.9v-4.46c0-.62-.02-1.06-.04-1.55h.8l.05.97h.03c.33-.58.88-1.1,1.83-1.1.78,0,1.39.48,1.64,1.2h.02c.4-.71,1-1.2,1.93-1.2.74,0,1.9.47,1.9,2.53v3.61Z"/>
      <path class="cls-1" d="m192.41,7.37c0,.5.01,1.01.09,1.43h-.84l-.09-.77h-.03c-.31.47-.92.9-1.77.9-1.14,0-1.75-.84-1.75-1.71,0-1.44,1.25-2.22,3.48-2.21,0-.51,0-1.65-1.36-1.65-.52,0-1.06.14-1.46.43l-.22-.63c.48-.32,1.16-.51,1.83-.51,1.69,0,2.13,1.2,2.13,2.39v2.32Zm-.9-1.68c-1.13,0-2.55.17-2.55,1.43,0,.77.48,1.11,1.03,1.11.89,0,1.52-.68,1.52-1.41v-1.13Z"/>
      <path class="cls-1" d="m194.41,1.72l.9-.31v1.4h1.55v.72h-1.55v3.47c0,.76.23,1.18.81,1.18.28,0,.46-.03.62-.09l.05.7c-.2.09-.51.14-.89.14-1.45,0-1.5-1.32-1.5-1.96v-3.44h-.92v-.72h.92v-1.09Z"/>
      <path class="cls-1" d="m203.15,5.75c0,2.23-1.47,3.18-2.81,3.18-1.54,0-2.73-1.15-2.73-3.09,0-2.05,1.28-3.18,2.81-3.18,1.64,0,2.73,1.25,2.73,3.09Zm-2.76-2.38c-1.3,0-1.84,1.28-1.84,2.43,0,1.33.74,2.41,1.82,2.41s1.85-1.08,1.85-2.43c0-1.07-.52-2.41-1.83-2.41Z"/>
      <path class="cls-1" d="m212.24,2.79l-1.9,6.01h-.81l-.95-3.01c-.22-.68-.38-1.29-.53-1.98h-.03c-.14.71-.33,1.34-.55,1.99l-1,3h-.83l-1.77-6.01h.95l.84,3.15c.17.67.33,1.29.45,1.9h.03c.13-.59.33-1.24.53-1.89l1-3.16h.79l.96,3.1c.21.7.39,1.34.53,1.95h.03c.11-.59.28-1.22.47-1.94l.88-3.11h.91Z"/>
      <path class="cls-1" d="m218.14,8.8h-.91v-3.54c0-.98-.35-1.84-1.4-1.84-.78,0-1.57.66-1.57,1.71v3.67h-.91v-4.46c0-.62-.02-1.07-.04-1.55h.81l.06.98h.02c.3-.58.99-1.11,1.93-1.11.75,0,2.02.45,2.02,2.49v3.65Z"/>
      <path class="cls-1" d="m219.72,9.3h-.74l3.49-9.01h.76l-3.51,9.01Z"/>
      <path class="cls-1" d="m224.55,1.75c-.35,0-.59-.27-.59-.63s.25-.62.61-.62.59.28.59.62c0,.39-.25.63-.6.63Zm.46,7.05h-.91V2.81h.91v6Z"/>
      <path class="cls-1" d="m231.62,8.8h-.91v-3.54c0-.98-.35-1.84-1.4-1.84-.78,0-1.57.66-1.57,1.71v3.67h-.91v-4.46c0-.62-.02-1.07-.04-1.55h.81l.06.98h.02c.3-.58.99-1.11,1.93-1.11.75,0,2.02.45,2.02,2.49v3.65Z"/>
      <path class="cls-1" d="m233.63,1.72l.9-.31v1.4h1.55v.72h-1.55v3.47c0,.76.23,1.18.81,1.18.28,0,.46-.03.62-.09l.05.7c-.2.09-.51.14-.89.14-1.45,0-1.5-1.32-1.5-1.96v-3.44h-.92v-.72h.92v-1.09Z"/>
      <path class="cls-1" d="m241.53,8.55c-.34.17-.97.37-1.88.37-1.75,0-2.79-1.23-2.79-3.03,0-1.88,1.06-3.23,2.67-3.23,1.85,0,2.32,1.69,2.32,2.74,0,.21-.01.36-.02.51h-4.08c.01,1.66.96,2.29,2.04,2.29.75,0,1.2-.15,1.57-.31l.18.66Zm-.58-3.32c.01-.81-.33-1.87-1.51-1.87-1.1,0-1.58,1.05-1.67,1.87h3.18Z"/>
      <path class="cls-1" d="m245.95,3.58c-.1-.01-.2-.02-.33-.02-.99,0-1.5.98-1.5,1.99v3.26h-.91v-4.2c0-.64-.01-1.22-.04-1.79h.8l.04,1.16h.03c.26-.75.89-1.29,1.63-1.29.1,0,.18.02.28.03v.87Z"/>
      <path class="cls-1" d="m251.63,2.81l-2.28,6h-.86l-2.21-6.01h.98l1.2,3.49c.19.54.35,1.05.48,1.54h.03c.13-.5.31-1,.5-1.54l1.19-3.48h.97Z"/>
      <path class="cls-1" d="m253.11,1.75c-.35,0-.59-.27-.59-.63s.25-.62.61-.62.59.28.59.62c0,.39-.25.63-.6.63Zm.46,7.05h-.91V2.81h.91v6Z"/>
      <path class="cls-1" d="m259.63,8.55c-.34.17-.97.37-1.88.37-1.75,0-2.79-1.23-2.79-3.03,0-1.88,1.06-3.23,2.67-3.23,1.85,0,2.32,1.69,2.32,2.74,0,.21-.01.36-.02.51h-4.08c.01,1.66.96,2.29,2.04,2.29.75,0,1.2-.15,1.57-.31l.18.66Zm-.58-3.32c.01-.81-.33-1.87-1.51-1.87-1.1,0-1.58,1.05-1.67,1.87h3.18Z"/>
      <path class="cls-1" d="m269.02,2.79l-1.9,6.01h-.81l-.95-3.01c-.22-.68-.38-1.29-.53-1.98h-.03c-.14.71-.33,1.34-.55,1.99l-1,3h-.83l-1.77-6.01h.95l.84,3.15c.17.67.33,1.29.45,1.9h.03c.13-.59.33-1.24.53-1.89l1-3.16h.79l.96,3.1c.21.7.39,1.34.53,1.95h.03c.11-.59.28-1.22.47-1.94l.88-3.11h.91Z"/>
      <path class="cls-1" d="m269.93,9.3h-.74l3.49-9.01h.76l-3.51,9.01Z"/>
      <path class="cls-1" d="m279.11,8.8h-.91v-3.54c0-.98-.35-1.84-1.4-1.84-.78,0-1.57.66-1.57,1.71v3.67h-.91v-4.46c0-.62-.02-1.07-.04-1.55h.81l.06.98h.02c.3-.58.99-1.11,1.93-1.11.75,0,2.02.45,2.02,2.49v3.65Z"/>
      <path class="cls-1" d="m285.12,8.55c-.34.17-.97.37-1.88.37-1.75,0-2.79-1.23-2.79-3.03,0-1.88,1.06-3.23,2.67-3.23,1.85,0,2.32,1.69,2.32,2.74,0,.21-.01.36-.02.51h-4.08c.01,1.66.96,2.29,2.04,2.29.75,0,1.2-.15,1.57-.31l.18.66Zm-.58-3.32c.01-.81-.33-1.87-1.51-1.87-1.1,0-1.58,1.05-1.67,1.87h3.18Z"/>
      <path class="cls-1" d="m289.54,3.58c-.1-.01-.2-.02-.33-.02-.99,0-1.5.98-1.5,1.99v3.26h-.91v-4.2c0-.64-.01-1.22-.04-1.79h.8l.04,1.16h.03c.26-.75.89-1.29,1.63-1.29.1,0,.18.02.28.03v.87Z"/>
      <path class="cls-1" d="m291.06,1.75c-.35,0-.59-.27-.59-.63s.25-.62.61-.62.59.28.59.62c0,.39-.25.63-.6.63Zm.46,7.05h-.91V2.81h.91v6Z"/>
      <path class="cls-1" d="m297.99,8.8h-1.12l-2.07-2.96-.55.63v2.33h-.91V0h.91v5.6h.02c.14-.21.35-.47.52-.67l1.79-2.12h1.1l-2.26,2.48,2.56,3.52Z"/>
      <path class="cls-1" d="m303.9,5.75c0,2.23-1.47,3.18-2.81,3.18-1.54,0-2.73-1.15-2.73-3.09,0-2.05,1.28-3.18,2.81-3.18,1.64,0,2.73,1.25,2.73,3.09Zm-2.76-2.38c-1.3,0-1.84,1.28-1.84,2.43,0,1.33.74,2.41,1.82,2.41s1.85-1.08,1.85-2.43c0-1.07-.52-2.41-1.83-2.41Z"/>
      <path class="cls-1" d="m308.09,3.72c-.22-.14-.63-.35-1.17-.35-.66,0-1.01.41-1.01.89,0,.52.34.76,1.11,1.09.97.4,1.53.9,1.53,1.8,0,1.07-.81,1.77-2.12,1.77-.59,0-1.17-.17-1.57-.41l.25-.7c.32.19.84.41,1.35.41.8,0,1.2-.43,1.2-.97s-.32-.87-1.11-1.19c-1.01-.41-1.53-.97-1.53-1.69,0-.94.75-1.71,1.96-1.71.57,0,1.06.17,1.38.36l-.26.69Z"/>
      <path class="cls-1" d="m315.04,5.75c0,2.23-1.47,3.18-2.81,3.18-1.54,0-2.73-1.15-2.73-3.09,0-2.05,1.28-3.18,2.81-3.18,1.64,0,2.73,1.25,2.73,3.09Zm-2.76-2.38c-1.3,0-1.84,1.28-1.84,2.43,0,1.33.74,2.41,1.82,2.41s1.85-1.08,1.85-2.43c0-1.07-.52-2.41-1.83-2.41Z"/>
      <path class="cls-1" d="m316.17,8.24c0-.42.27-.72.66-.72s.65.3.65.72c0,.4-.25.69-.66.69s-.65-.33-.65-.69Z"/>
      <path class="cls-1" d="m323.62,8.8h-.91v-3.54c0-.98-.35-1.83-1.39-1.83-.7,0-1.58.58-1.58,1.68v3.69h-.91V0h.91v3.73h.02c.4-.66,1.12-1.07,1.86-1.07s2,.45,2,2.49v3.65Z"/>
      <path class="cls-1" d="m325.63,1.72l.9-.31v1.4h1.55v.72h-1.55v3.47c0,.76.23,1.18.81,1.18.28,0,.46-.03.62-.09l.05.7c-.2.09-.51.14-.89.14-1.45,0-1.5-1.32-1.5-1.96v-3.44h-.92v-.72h.92v-1.09Z"/>
      <path class="cls-1" d="m337.45,8.8h-.9v-3.47c0-1.17-.42-1.91-1.32-1.91-.74,0-1.41.69-1.41,1.61v3.77h-.9v-3.7c0-.96-.41-1.68-1.25-1.68-.78,0-1.47.77-1.47,1.71v3.67h-.9v-4.46c0-.62-.02-1.06-.04-1.55h.8l.05.97h.03c.33-.58.88-1.1,1.83-1.1.78,0,1.39.48,1.64,1.2h.02c.4-.71,1-1.2,1.93-1.2.74,0,1.9.47,1.9,2.53v3.61Z"/>
      <path class="cls-1" d="m340.13,8.8h-.91V0h.91v8.8Z"/>
      <path class="cls-1" d="m0,10.18v-.55h343.6v.55H0Z"/>
    </g>
  </g>
</svg>