<?xml version="1.0" encoding="UTF-8"?>
<svg id="_レイヤー_2" data-name="レイヤー 2" xmlns="http://www.w3.org/2000/svg" viewBox="0 0 157.25 91.65">
  <defs>
    <style>
      .cls-1 {
        fill: #fff;
      }

      .cls-2 {
        fill: none;
        stroke: #231815;
        stroke-miterlimit: 10;
        stroke-width: .93px;
      }

      .cls-3 {
        fill: #231815;
      }
    </style>
  </defs>
  <g id="_レイヤー_1-2" data-name="レイヤー 1">
    <g>
      <path class="cls-3" d="m80.29,28.79h-3.81v-14.35c-1.39,1.3-3.03,2.26-4.92,2.89v-3.46c.99-.33,2.07-.94,3.24-1.85,1.17-.91,1.97-1.97,2.4-3.18h3.09v19.95Z"/>
      <path class="cls-3" d="m95.72,28.79h-3.81v-14.35c-1.39,1.3-3.03,2.26-4.92,2.89v-3.46c.99-.33,2.07-.94,3.24-1.85,1.17-.91,1.97-1.97,2.4-3.18h3.09v19.95Z"/>
      <path class="cls-3" d="m107.85,8.83c1.92,0,3.43.69,4.51,2.06,1.29,1.63,1.94,4.32,1.94,8.09s-.65,6.46-1.95,8.1c-1.08,1.36-2.58,2.03-4.5,2.03s-3.49-.74-4.68-2.23c-1.18-1.49-1.78-4.14-1.78-7.95s.65-6.43,1.95-8.08c1.08-1.36,2.58-2.03,4.5-2.03Zm0,3.16c-.46,0-.87.15-1.23.44-.36.29-.64.82-.84,1.58-.26.98-.39,2.64-.39,4.97s.12,3.93.35,4.8c.23.87.53,1.45.89,1.74.36.29.77.43,1.23.43s.87-.15,1.23-.44c.36-.29.64-.82.84-1.58.26-.98.39-2.63.39-4.96s-.12-3.93-.35-4.8-.53-1.45-.89-1.75c-.36-.29-.77-.44-1.23-.44Z"/>
      <path class="cls-3" d="m117,29.18v-2.54h2.54v2.54h-2.54Z"/>
      <path class="cls-3" d="m126.58,29.18v-2.67h-5.42v-2.22l5.75-8.41h2.13v8.4h1.64v2.23h-1.64v2.67h-2.46Zm0-4.9v-4.53l-3.04,4.53h3.04Z"/>
      <path class="cls-3" d="m134.07,22.03c-.66-.28-1.13-.66-1.43-1.14-.3-.48-.45-1.02-.45-1.59,0-.99.34-1.8,1.04-2.45.69-.64,1.67-.97,2.94-.97s2.24.32,2.93.97c.7.65,1.04,1.46,1.04,2.45,0,.61-.16,1.16-.48,1.64s-.77.84-1.35,1.1c.73.3,1.29.73,1.68,1.29.38.57.57,1.22.57,1.96,0,1.22-.39,2.22-1.17,2.98s-1.82,1.15-3.11,1.15c-1.21,0-2.21-.32-3.01-.95-.95-.75-1.42-1.77-1.42-3.07,0-.72.18-1.37.53-1.97s.92-1.06,1.68-1.39Zm.29,3.12c0,.7.18,1.24.54,1.64s.81.59,1.34.59.96-.19,1.3-.56c.34-.38.51-.92.51-1.63,0-.62-.17-1.12-.52-1.5-.35-.38-.79-.56-1.33-.56-.62,0-1.08.21-1.39.64-.3.43-.46.89-.46,1.39Zm.24-5.67c0,.51.14.9.43,1.18s.67.42,1.14.42.87-.14,1.16-.43.43-.68.43-1.19c0-.48-.14-.86-.43-1.14s-.66-.43-1.13-.43-.88.14-1.17.43-.43.67-.43,1.15Z"/>
    </g>
    <g>
      <path class="cls-3" d="m85.65,74.93l3.69-.41c.09.75.33,1.31.71,1.67.38.36.88.54,1.5.54.79,0,1.46-.36,2.01-1.08.55-.72.9-2.22,1.06-4.5-.96,1.11-2.16,1.67-3.59,1.67-1.56,0-2.91-.6-4.05-1.81-1.13-1.21-1.7-2.78-1.7-4.71s.6-3.64,1.8-4.87,2.72-1.85,4.57-1.85c2.01,0,3.67.78,4.96,2.34s1.94,4.12,1.94,7.69-.67,6.25-2.02,7.86c-1.35,1.61-3.1,2.41-5.26,2.41-1.55,0-2.81-.41-3.77-1.24s-1.57-2.06-1.84-3.71Zm8.62-8.32c0-1.23-.28-2.18-.85-2.86s-1.22-1.02-1.96-1.02-1.29.28-1.76.83c-.46.56-.7,1.47-.7,2.73s.25,2.23.76,2.83,1.14.9,1.9.9,1.35-.29,1.85-.87c.5-.58.75-1.43.75-2.55Z"/>
      <path class="cls-3" d="m113.87,75.99v3.54h-13.35c.14-1.34.58-2.6,1.3-3.8s2.15-2.79,4.28-4.76c1.72-1.6,2.77-2.68,3.16-3.25.52-.79.79-1.56.79-2.33,0-.85-.23-1.5-.68-1.96-.46-.46-1.09-.68-1.89-.68s-1.43.24-1.9.72c-.47.48-.74,1.27-.81,2.39l-3.79-.38c.23-2.1.93-3.6,2.13-4.51,1.19-.91,2.68-1.37,4.47-1.37,1.96,0,3.5.53,4.62,1.59,1.12,1.06,1.68,2.37,1.68,3.94,0,.89-.16,1.75-.48,2.55-.32.81-.83,1.66-1.53,2.54-.46.59-1.29,1.43-2.49,2.53-1.2,1.1-1.96,1.83-2.28,2.2s-.58.71-.78,1.06h7.56Z"/>
      <path class="cls-3" d="m116.6,79.91v-2.54h2.54v2.54h-2.54Z"/>
      <path class="cls-3" d="m129.77,77.55v2.36h-8.9c.1-.89.39-1.74.87-2.53.48-.8,1.43-1.86,2.86-3.18,1.14-1.07,1.85-1.79,2.11-2.17.35-.52.52-1.04.52-1.55,0-.57-.15-1-.46-1.31-.3-.3-.72-.46-1.26-.46s-.95.16-1.26.48-.49.85-.54,1.59l-2.53-.25c.15-1.4.62-2.4,1.42-3.01.79-.61,1.79-.91,2.98-.91,1.31,0,2.33.35,3.08,1.06.75.71,1.12,1.58,1.12,2.63,0,.6-.11,1.16-.32,1.7s-.55,1.1-1.02,1.69c-.31.39-.86.96-1.66,1.69-.8.73-1.31,1.22-1.52,1.46-.21.24-.39.48-.52.7h5.04Z"/>
      <path class="cls-3" d="m135.78,66.61c1.28,0,2.29.46,3.01,1.37.86,1.08,1.29,2.88,1.29,5.39s-.43,4.31-1.3,5.4c-.72.9-1.72,1.36-3,1.36s-2.33-.5-3.12-1.49c-.79-.99-1.18-2.76-1.18-5.3s.43-4.29,1.3-5.39c.72-.9,1.72-1.36,3-1.36Zm0,2.11c-.31,0-.58.1-.82.29-.24.2-.43.55-.56,1.05-.17.66-.26,1.76-.26,3.32s.08,2.62.24,3.2c.16.58.35.97.59,1.16.24.19.51.29.82.29s.58-.1.82-.29c.24-.2.43-.55.56-1.05.17-.65.26-1.75.26-3.31s-.08-2.62-.24-3.2c-.16-.58-.35-.97-.59-1.17-.24-.2-.51-.29-.82-.29Z"/>
    </g>
    <path class="cls-3" d="m57.79,21.41c-.81-.98-1.56-1.75-2.24-2.31-.04-.03-.06-.06-.06-.08s.03-.06.08-.12l.19-.22c.06-.07.11-.11.14-.11.02,0,.05.02.09.05.29.28.51.48.64.61.37-.56.72-1.14,1.03-1.72.24-.43.37-.78.41-1.05.23.09.45.19.68.33.1.06.14.11.14.17s-.04.11-.13.16c-.1.06-.18.16-.25.3-.45.78-.94,1.53-1.45,2.25.42.43.79.83,1.1,1.2.35-.54.67-1.07.96-1.57.33-.58.54-1.02.64-1.33.23.09.45.21.65.34.09.05.13.11.13.17,0,.05-.05.11-.14.17-.14.11-.31.34-.52.68-.89,1.43-1.73,2.67-2.54,3.74.87-.04,1.82-.11,2.87-.2-.16-.4-.37-.81-.62-1.21-.01-.02-.02-.05-.02-.06,0-.04.05-.08.14-.12l.19-.07c.07-.03.12-.04.14-.04.03,0,.06.02.08.06.49.83.9,1.72,1.23,2.67,0,.03.01.05.01.07,0,.04-.04.07-.12.1l-.28.11c-.06.02-.1.03-.12.03-.04,0-.07-.03-.09-.09-.07-.25-.18-.56-.33-.94-.72.09-1.24.14-1.54.17v3.94l.03,2.23c0,.06-.03.09-.1.09h-.52c-.07,0-.1-.03-.1-.09l.03-2.23v-3.88c-.74.05-1.31.1-1.7.13-.3.02-.5.07-.58.12-.06.04-.11.06-.15.06-.05,0-.1-.06-.13-.18-.04-.16-.08-.38-.12-.67.27.03.55.05.85.05h.22c.43-.55.83-1.11,1.2-1.69Zm-2.24,6.99c.39-.82.67-1.8.87-2.93.02-.16.04-.31.04-.46,0-.07,0-.15-.01-.22.23.03.41.06.56.1.13.04.2.09.2.15,0,0-.02.06-.07.16-.03.05-.07.19-.11.42-.15,1.04-.41,2.01-.78,2.9-.05.11-.09.17-.12.17-.02,0-.07-.04-.17-.11-.11-.08-.24-.14-.41-.17Zm4.63-3.61c.06-.01.1-.02.11-.02.03,0,.06.03.09.08.38.84.67,1.79.87,2.83,0,.02,0,.04,0,.06,0,.05-.04.09-.12.12l-.23.09c-.1.03-.16.05-.18.05-.03,0-.06-.03-.07-.09-.19-1.03-.46-1.98-.82-2.86-.01-.03-.02-.06-.02-.08,0-.04.04-.08.12-.1l.25-.07Zm2.77-5.61h3.27l1.65-.03c.08,0,.12.04.12.12-.02.24-.03.61-.03,1.1-.03,2.97-.19,5.34-.49,7.11-.15.81-.35,1.38-.61,1.71-.27.34-.63.51-1.11.51-.51,0-1-.03-1.49-.09-.12-.02-.2-.04-.23-.07-.02-.03-.04-.1-.06-.22-.04-.21-.1-.38-.18-.52.83.15,1.48.22,1.94.22.33,0,.58-.2.75-.59.12-.27.23-.68.32-1.22.28-1.72.43-4.18.43-7.39h-4.58c-.37.71-.8,1.38-1.3,2-.08.1-.13.14-.17.14-.03,0-.09-.04-.17-.12-.11-.11-.23-.19-.37-.25.93-1.06,1.66-2.34,2.16-3.84.15-.47.25-.91.28-1.32.28.06.53.13.74.21.11.04.17.1.17.16,0,.07-.04.15-.13.25-.12.14-.24.38-.35.71-.18.54-.37,1-.56,1.41Zm.04,3.11c.77.8,1.42,1.73,1.96,2.78.01.03.02.06.02.07,0,.03-.05.08-.16.15l-.22.13c-.11.06-.18.09-.21.09s-.05-.02-.07-.07c-.43-.94-1.05-1.88-1.87-2.83-.02-.03-.04-.05-.04-.07,0-.03.05-.07.14-.14l.22-.13c.06-.04.1-.06.12-.06.03,0,.06.02.09.06Z"/>
    <path class="cls-3" d="m68.86,72.15c-.81-.98-1.56-1.75-2.24-2.31-.04-.03-.06-.06-.06-.08s.03-.06.08-.12l.19-.22c.06-.07.11-.11.14-.11.02,0,.05.02.09.05.29.28.51.48.64.61.37-.56.72-1.14,1.03-1.72.24-.43.37-.78.41-1.05.23.09.45.19.68.33.1.06.14.11.14.17s-.04.11-.13.16c-.1.06-.18.16-.25.3-.45.78-.94,1.53-1.45,2.25.42.43.79.83,1.1,1.2.35-.54.67-1.07.96-1.57.33-.58.54-1.02.64-1.33.23.09.45.21.65.34.09.05.13.11.13.17,0,.05-.05.11-.14.17-.14.11-.31.34-.52.68-.89,1.43-1.73,2.67-2.54,3.74.87-.04,1.82-.11,2.87-.2-.16-.4-.37-.81-.62-1.21-.01-.02-.02-.05-.02-.06,0-.04.05-.08.14-.12l.19-.07c.07-.03.12-.04.14-.04.03,0,.06.02.08.06.49.83.9,1.72,1.23,2.67,0,.03.01.05.01.07,0,.04-.04.07-.12.1l-.28.11c-.06.02-.1.03-.12.03-.04,0-.07-.03-.09-.09-.07-.25-.18-.56-.33-.94-.72.09-1.24.14-1.54.17v3.94l.03,2.23c0,.06-.03.09-.1.09h-.52c-.07,0-.1-.03-.1-.09l.03-2.23v-3.88c-.74.05-1.31.1-1.7.13-.3.02-.5.07-.58.12-.06.04-.11.06-.15.06-.05,0-.1-.06-.13-.18-.04-.16-.08-.38-.12-.67.27.03.55.05.85.05h.22c.43-.55.83-1.11,1.2-1.69Zm-2.24,6.99c.39-.82.67-1.8.87-2.93.02-.16.04-.31.04-.46,0-.07,0-.15-.01-.22.23.03.41.06.56.1.13.04.2.09.2.15,0,0-.02.06-.07.16-.03.05-.07.19-.11.42-.15,1.04-.41,2.01-.78,2.9-.05.11-.09.17-.12.17-.02,0-.07-.04-.17-.11-.11-.08-.24-.14-.41-.17Zm4.63-3.61c.06-.01.1-.02.11-.02.03,0,.06.03.09.08.38.84.67,1.79.87,2.83,0,.02,0,.04,0,.06,0,.05-.04.09-.12.12l-.23.09c-.1.03-.16.05-.18.05-.03,0-.06-.03-.07-.09-.19-1.03-.46-1.98-.82-2.86-.01-.03-.02-.06-.02-.08,0-.04.04-.08.12-.1l.25-.07Zm2.77-5.61h3.27l1.65-.03c.08,0,.12.04.12.12-.02.24-.03.61-.03,1.1-.03,2.97-.19,5.34-.49,7.11-.15.81-.35,1.38-.61,1.71-.27.34-.63.51-1.11.51-.51,0-1-.03-1.49-.09-.12-.02-.2-.04-.23-.07-.02-.03-.04-.1-.06-.22-.04-.21-.1-.38-.18-.52.83.15,1.48.22,1.94.22.33,0,.58-.2.75-.59.12-.27.23-.68.32-1.22.28-1.72.43-4.18.43-7.39h-4.58c-.37.71-.8,1.38-1.3,2-.08.1-.13.14-.17.14-.03,0-.09-.04-.17-.12-.11-.11-.23-.19-.37-.25.93-1.06,1.66-2.34,2.16-3.84.15-.47.25-.91.28-1.32.28.06.53.13.74.21.11.04.17.1.17.16,0,.07-.04.15-.13.25-.12.14-.24.38-.35.71-.18.54-.37,1-.56,1.41Zm.04,3.11c.77.8,1.42,1.73,1.96,2.78.01.03.02.06.02.07,0,.03-.05.08-.16.15l-.22.13c-.11.06-.18.09-.21.09s-.05-.02-.07-.07c-.43-.94-1.05-1.88-1.87-2.83-.02-.03-.04-.05-.04-.07,0-.03.05-.07.14-.14l.22-.13c.06-.04.1-.06.12-.06.03,0,.06.02.09.06Z"/>
    <rect class="cls-3" width="40.71" height="40.71"/>
    <g>
      <path class="cls-1" d="m11.79,16.91v-5.8h-2.52l-2.1.03c-.07,0-.1-.03-.1-.1v-.52c0-.07.03-.1.1-.1l2.1.03h2.52v-3.05c0-.93-.04-1.59-.12-1.97.29,0,.57.03.84.07.11.02.17.06.17.12,0,.04-.03.12-.08.25-.06.15-.09.65-.09,1.5v3.08h2.87l2.1-.03c.07,0,.11.03.11.1v.52c0,.07-.04.1-.11.1l-2.1-.03h-2.87v5.8h4.22l1.94-.03c.07,0,.1.03.1.1v.53c0,.07-.03.1-.1.1l-1.94-.03H7.89l-1.94.03c-.07,0-.1-.03-.1-.1v-.53c0-.07.03-.1.1-.1l1.94.03h3.9Z"/>
      <path class="cls-1" d="m22.62,14.76v-4.71h-.45l-1.39.03c-.07,0-.11-.03-.11-.1v-.46c0-.07.04-.1.11-.1l1.39.03h.45v-1.85c0-.9-.04-1.55-.11-1.97.28,0,.53.03.77.07.1.01.15.05.15.12,0,.03-.02.11-.06.25-.06.16-.09.66-.09,1.5v1.88h.28l1.39-.03c.07,0,.11.03.11.1v.46c0,.07-.04.1-.11.1l-1.39-.03h-.28v4.42c.61-.26,1.21-.57,1.82-.9-.03.16-.05.28-.05.37v.08c0,.05.01.09.01.12,0,.1-.07.18-.22.26-.89.47-1.94.95-3.15,1.44-.3.12-.48.21-.55.28-.07.07-.13.1-.2.1-.05,0-.1-.04-.14-.13-.1-.19-.2-.4-.28-.65.45-.08.91-.22,1.4-.4.31-.12.54-.21.69-.28Zm6.51-4.96v-2.49c0-.88-.04-1.52-.11-1.94.26,0,.52.03.75.07.1.02.15.06.15.12,0,.06-.02.14-.06.25-.06.17-.09.64-.09,1.42v2.32l1.3-.48c.49-.18.98-.38,1.48-.59.25-.11.39-.16.41-.16.07,0,.11.03.11.1,0,.15-.01.4-.03.73,0,.33-.02.64-.03.93-.03,1.02-.12,1.94-.25,2.77-.1.58-.25.97-.48,1.16-.16.15-.41.23-.72.23-.18,0-.39-.01-.62-.04-.12-.01-.18-.04-.2-.06-.02-.02-.03-.1-.04-.22-.01-.14-.07-.3-.17-.48.38.09.7.14.98.14.21,0,.36-.09.46-.28.08-.16.15-.44.2-.83.12-.94.18-2.02.19-3.25l-2.59.97v2.91l.03,2.29c0,.07-.04.11-.11.11h-.5c-.07,0-.1-.04-.1-.11l.03-2.29v-2.67l-2.16.8v5c0,.47.14.78.43.92.28.14,1.1.21,2.47.21.91,0,1.56-.03,1.97-.1.34-.05.6-.14.77-.27.19-.14.32-.36.38-.67.05-.24.1-.67.14-1.28.13.12.28.21.44.28.13.06.2.12.2.2,0,.03,0,.06,0,.11-.07.68-.16,1.15-.27,1.41-.09.19-.23.36-.43.49-.25.17-.62.29-1.12.35-.49.07-1.21.1-2.17.1-1.46,0-2.4-.09-2.81-.28-.43-.18-.65-.6-.65-1.24v-4.99c-.61.23-1.2.46-1.75.69-.03,0-.05.01-.06.01-.02,0-.05-.03-.07-.09l-.14-.48s0-.05,0-.06c0-.03.02-.06.07-.07.28-.07.93-.29,1.95-.67v-2.06c0-.16,0-.33,0-.5,0-.75-.03-1.32-.1-1.72.24,0,.49.02.75.06.12.01.18.05.18.12,0,.05-.03.15-.09.28-.05.13-.07.71-.07,1.76v1.81l2.16-.8Z"/>
      <path class="cls-1" d="m17.3,34.11H7.27v.8c0,.07-.03.1-.1.1h-.51c-.07,0-.1-.03-.1-.1l.03-3.87v-2.29l-.03-2.94c0-.07.03-.1.1-.1l2.09.03h2c.38-.67.71-1.48.98-2.43h-3.78l-1.97.03c-.07,0-.1-.03-.1-.1v-.49c0-.07.03-.1.1-.1l1.97.03h8.68l1.97-.03c.07,0,.1.03.1.1v.49c0,.07-.03.1-.1.1l-1.97-.03h-4.19c-.27.94-.59,1.74-.98,2.43h4.35l2.1-.03c.07,0,.1.03.1.1l-.03,2.68v2.54l.03,3.85c0,.07-.03.1-.1.1h-.52c-.07,0-.1-.03-.1-.1v-.79Zm-7.32-.61v-7.13h-2.71v7.13h2.71Zm3.92-5.18v-1.95h-3.27v1.95h3.27Zm-3.27.56v2.01h3.27v-2.01h-3.27Zm0,2.57v2.05h3.27v-2.05h-3.27Zm3.93,2.05h2.74v-7.13h-2.74v7.13Z"/>
      <path class="cls-1" d="m23.34,27.08c0,1.73.02,3.63.06,5.68,0,.48.02,1.05.04,1.73,0,.32,0,.5,0,.53,0,.06-.03.09-.1.09h-.55c-.07,0-.1-.03-.1-.09,0,0,0-.43.03-1.28.06-2.47.1-4.69.1-6.66-.52,1.89-1.18,3.46-2,4.68-.06.09-.11.14-.15.14-.03,0-.07-.05-.12-.14-.07-.16-.17-.29-.3-.39.92-1.26,1.68-2.86,2.29-4.81h-.46l-1.39.03c-.07,0-.1-.04-.1-.11v-.43c0-.07.03-.1.1-.1l1.39.03h.65v-2.57c-.51.15-.99.28-1.42.38-.09.02-.14.04-.17.04-.05,0-.11-.06-.18-.2-.06-.12-.16-.25-.3-.37,1.32-.2,2.4-.52,3.23-.95.17-.1.34-.21.5-.35.18.12.35.24.51.38.07.05.1.11.1.16,0,.09-.07.14-.21.15-.09.01-.21.06-.38.13-.24.12-.58.26-1,.42v2.77l1.29-.03c.07,0,.1.03.1.1v.43c0,.07-.03.11-.1.11l-1.19-.03c.43,1.02.95,1.89,1.55,2.62-.11.09-.21.23-.3.43-.04.1-.08.14-.1.14-.02,0-.06-.04-.12-.13-.52-.81-.92-1.66-1.21-2.55Zm4.01,5.97c.23.1.41.21.56.33.07.05.1.1.1.14,0,.05-.04.09-.13.12-.1.02-.23.09-.39.19-.9.57-1.84.97-2.83,1.21-.08.02-.14.04-.17.04-.06,0-.12-.06-.18-.18-.07-.13-.17-.25-.3-.35,1.23-.26,2.2-.61,2.89-1.06.17-.11.32-.26.44-.44Zm1.42-6.85v-1.08h-.83l-1.79.03c-.07,0-.1-.04-.1-.11v-.35c0-.07.03-.1.1-.1l1.79.03h.83v-.96h-1.23l-1.97.03c-.07,0-.1-.03-.1-.1v-.38c0-.07.03-.1.1-.1l1.97.03h1.23c0-.66-.04-1.11-.11-1.36.29.01.54.04.74.07.1.02.14.06.14.12,0,.04-.03.13-.09.27-.04.1-.06.4-.06.9h1.61l1.97-.03c.07,0,.11.03.11.1v.38c0,.07-.04.1-.11.1l-1.97-.03h-1.61v.96h1.11l1.81-.03c.07,0,.1.03.1.1v.35c0,.07-.03.11-.1.11l-1.81-.03h-1.11v1.08h2.08l2.06-.03c.07,0,.1.04.1.11v.37c0,.07-.03.1-.1.1l-2.06-.03h-4.17l-2.06.03c-.07,0-.1-.03-.1-.1v-.37c0-.07.03-.11.1-.11l2.06.03h1.45Zm-.9,1.5h2.54l1.81-.03c.07,0,.1.03.1.1l-.03,1.41v2.07l.03,1.41c0,.07-.03.1-.1.1l-1.81-.03h-2.54l-1.81.03c-.07,0-.1-.03-.1-.1l.03-1.41v-2.07l-.03-1.41c0-.07.03-.1.1-.1l1.81.03Zm-1.24,1.5h5.03v-.96h-5.03v.96Zm0,.49v.95h5.03v-.95h-5.03Zm0,1.45v1.07h5.03v-1.07h-5.03Zm7.31,3.36c-.13.1-.23.21-.3.35-.05.12-.11.18-.16.18-.03,0-.1-.02-.21-.06-1.05-.37-1.98-.86-2.8-1.48-.03-.02-.05-.04-.05-.06,0-.02.05-.07.14-.15l.2-.16s.08-.07.11-.07c.02,0,.05.01.09.04.76.58,1.76,1.05,2.99,1.4Z"/>
    </g>
    <rect class="cls-3" y="50.74" width="40.71" height="40.71"/>
    <g>
      <path class="cls-1" d="m8.42,61.34h1.39c.13,0,.23-.02.3-.07.04-.03.09-.04.14-.04.09,0,.2.07.33.22.13.15.2.26.2.33,0,.05-.03.11-.1.17-.05.05-.1.19-.15.4-.29,1.63-.76,2.98-1.4,4.06l.21.23c.94,1.04,2.41,1.56,4.41,1.56,2.27,0,4.25-.11,5.92-.33-.12.14-.2.31-.24.51-.03.13-.06.21-.09.23-.02.02-.09.03-.21.04-1.67.15-3.38.22-5.13.22-2.23,0-3.86-.53-4.89-1.58-.08-.08-.19-.19-.33-.35-.52.74-1.2,1.44-2.03,2.09-.08.07-.13.11-.16.11-.03,0-.09-.05-.17-.15-.15-.17-.27-.28-.37-.33.93-.66,1.7-1.42,2.31-2.3-.4-.61-.77-1.48-1.11-2.6-.01-.04-.02-.06-.02-.08,0-.03.06-.07.18-.13l.18-.09c.07-.03.12-.05.14-.05.03,0,.06.04.08.11.27.99.57,1.76.89,2.3.62-1.08,1.02-2.37,1.21-3.88h-1.89c-.09.13-.21.3-.35.52-.03.05-.07.08-.12.08-.04,0-.13-.02-.28-.06-.2-.06-.3-.1-.3-.12,0-.01.01-.04.04-.09.92-1.23,1.76-2.7,2.54-4.41h-1.58l-1.27.03c-.07,0-.1-.03-.1-.1v-.45c0-.08.03-.12.1-.12l1.27.03h1.57c.18,0,.28,0,.31-.03.05-.03.09-.04.14-.04.07,0,.17.08.32.24.13.14.2.24.2.3,0,.04-.05.11-.14.19-.05.04-.18.25-.39.64-.53,1.07-1.05,2.01-1.56,2.81Zm5.98-1.87v-1.32h-.86l-1.85.03c-.07,0-.1-.03-.1-.1v-.42c0-.07.03-.1.1-.1l1.85.03h.86v-.03c0-.69-.03-1.16-.1-1.42.22.01.46.04.74.08.1.01.15.05.15.12,0,.06-.02.13-.06.21-.06.12-.09.44-.09.98v.07h1.21l1.93-.03c.08,0,.12.03.12.1l-.03,1.37v.44l1.29-.03c.07,0,.11.03.11.1v.42c0,.07-.04.1-.11.1l-1.29-.03v.52l.03,1.37c0,.06-.04.09-.12.09l-1.93-.03h-1.21v1.36h1.42l1.89-.03c.07,0,.11.03.11.1v.42c0,.07-.04.1-.11.1l-1.89-.03h-1.42v1.4h2.06l2.05-.03c.07,0,.1.04.1.12v.42c0,.07-.03.1-.1.1l-2.05-.03h-2.06c0,.47.01.9.02,1.29,0,.26,0,.39,0,.4,0,.07-.03.11-.1.11h-.48c-.08,0-.12-.04-.12-.11,0,0,0-.07,0-.21,0-.44.02-.93.02-1.47h-1.48l-2.04.03c-.07,0-.11-.03-.11-.1v-.42c0-.08.04-.12.11-.12l2.04.03h1.48v-1.4h-.96l-1.91.03c-.07,0-.11-.03-.11-.1v-.42c0-.07.04-.1.11-.1l1.91.03h.96v-1.36h-1l-1.76.03c-.07,0-.1-.03-.1-.09v-.4c0-.07.03-.1.1-.1l1.76.03h1v-1.41h-1.66l-2.06.03c-.07,0-.1-.03-.1-.1v-.42c0-.07.03-.1.1-.1l2.06.03h1.66Zm.64,0h2.61v-1.32h-2.61v1.32Zm0,.56v1.41h2.61v-1.41h-2.61Z"/>
      <path class="cls-1" d="m23.94,60.04h-1.44c-.12.76-.27,1.42-.47,1.97-.03.12-.07.17-.1.17-.03,0-.09-.02-.2-.06-.1-.04-.24-.07-.41-.09.43-1.08.69-2.36.79-3.83,0-.13,0-.25,0-.35,0-.16,0-.31-.03-.44.36.05.57.09.65.11.11.02.17.06.17.12,0,.03-.02.1-.06.2-.05.11-.08.23-.09.35,0,.08-.02.22-.04.4-.04.38-.08.67-.1.87h1.33v-1.32c0-.89-.03-1.54-.09-1.97.32.02.57.05.74.08.1.01.14.05.14.12,0,.01-.02.1-.06.25-.06.23-.09.73-.09,1.5v1.34h.25l1.36-.03c.07,0,.11.03.11.09v.46c0,.07-.04.1-.11.1l-1.36-.03h-.25v3.26c.47-.24,1.02-.56,1.66-.95,0,.08,0,.15,0,.2,0,.09,0,.18.02.27,0,.08.01.13.01.15,0,.07-.07.14-.21.22-.73.4-1.22.66-1.47.79v2.75l.03,2.62c0,.06-.03.09-.1.09h-.51c-.07,0-.1-.03-.1-.09l.03-2.6v-2.44c-.36.18-.83.4-1.41.65-.28.12-.46.22-.51.3-.05.07-.11.1-.17.1-.06,0-.12-.03-.16-.1-.11-.17-.22-.38-.33-.64.35-.08.77-.23,1.27-.43.54-.21.97-.4,1.3-.56v-3.57Zm4.09-.83h4.03l1.78-.03c.09,0,.13.04.13.13-.02.44-.03.76-.03.97-.03,2.77-.19,5.01-.49,6.74-.14.82-.35,1.39-.62,1.72-.27.33-.67.5-1.19.5-.4,0-.87-.02-1.39-.07-.12,0-.19-.03-.21-.07-.01-.02-.03-.1-.06-.22-.05-.23-.11-.41-.17-.53.64.13,1.22.19,1.74.19.39,0,.69-.19.9-.56.15-.27.26-.67.35-1.2.3-1.91.46-4.23.48-6.96h-1.06c-.52,2.27-1.22,4.09-2.1,5.48-.8,1.24-1.88,2.35-3.24,3.33-.09.07-.15.11-.19.11s-.09-.05-.17-.15c-.1-.14-.22-.24-.38-.32,1.57-1.06,2.78-2.3,3.64-3.72.78-1.28,1.37-2.86,1.76-4.73h-1.58c-.39,1.34-.89,2.44-1.48,3.3-.48.7-1.13,1.4-1.95,2.09-.08.07-.14.1-.17.1-.04,0-.09-.05-.17-.14-.11-.14-.24-.23-.39-.28,1.78-1.28,2.94-2.97,3.48-5.07h-1.57c-.36.63-.77,1.22-1.24,1.78-.08.09-.13.14-.17.14s-.09-.04-.17-.11c-.12-.1-.25-.18-.39-.22,1.09-1.17,1.87-2.5,2.34-4,.15-.5.24-.92.27-1.26.22.04.45.09.69.17.1.03.14.08.14.14,0,.05-.04.13-.13.24-.05.06-.15.28-.28.68-.23.67-.47,1.29-.74,1.84Z"/>
      <path class="cls-1" d="m18.02,85.05H8v.8c0,.07-.03.1-.1.1h-.51c-.07,0-.1-.03-.1-.1l.03-3.87v-2.29l-.03-2.94c0-.07.03-.1.1-.1l2.09.03h2c.38-.67.71-1.48.98-2.43h-3.78l-1.97.03c-.07,0-.1-.03-.1-.1v-.49c0-.07.03-.1.1-.1l1.97.03h8.68l1.97-.03c.07,0,.1.03.1.1v.49c0,.07-.03.1-.1.1l-1.97-.03h-4.19c-.27.94-.59,1.74-.98,2.43h4.35l2.1-.03c.07,0,.1.03.1.1l-.03,2.68v2.54l.03,3.85c0,.07-.03.1-.1.1h-.52c-.07,0-.1-.03-.1-.1v-.79Zm-7.32-.61v-7.13h-2.71v7.13h2.71Zm3.92-5.18v-1.95h-3.27v1.95h3.27Zm-3.27.56v2.01h3.27v-2.01h-3.27Zm0,2.57v2.05h3.27v-2.05h-3.27Zm3.93,2.05h2.74v-7.13h-2.74v7.13Z"/>
      <path class="cls-1" d="m24.07,78.01c0,1.73.02,3.63.06,5.68,0,.48.02,1.05.04,1.73,0,.32,0,.5,0,.53,0,.06-.03.09-.1.09h-.55c-.07,0-.1-.03-.1-.09,0,0,0-.43.03-1.28.06-2.47.1-4.69.1-6.66-.52,1.89-1.18,3.46-2,4.68-.06.09-.11.14-.15.14-.03,0-.07-.05-.12-.14-.07-.16-.17-.29-.3-.39.92-1.26,1.68-2.86,2.29-4.81h-.46l-1.39.03c-.07,0-.1-.04-.1-.11v-.43c0-.07.03-.1.1-.1l1.39.03h.65v-2.57c-.51.15-.99.28-1.42.38-.09.02-.14.04-.17.04-.05,0-.11-.06-.18-.2-.06-.12-.16-.25-.3-.37,1.32-.2,2.4-.52,3.23-.95.17-.1.34-.21.5-.35.18.12.35.24.51.38.07.05.1.11.1.16,0,.09-.07.14-.21.15-.09.01-.21.06-.38.13-.24.12-.58.26-1,.42v2.77l1.29-.03c.07,0,.1.03.1.1v.43c0,.07-.03.11-.1.11l-1.19-.03c.43,1.02.95,1.89,1.55,2.62-.11.09-.21.23-.3.43-.04.1-.08.14-.1.14-.02,0-.06-.04-.12-.13-.52-.81-.92-1.66-1.21-2.55Zm4.01,5.97c.23.1.41.21.56.33.07.05.1.1.1.14,0,.05-.04.09-.13.12-.1.02-.23.09-.39.19-.9.57-1.84.97-2.83,1.21-.08.02-.14.04-.17.04-.06,0-.12-.06-.18-.18-.07-.13-.17-.25-.3-.35,1.23-.26,2.2-.61,2.89-1.06.17-.11.32-.26.44-.44Zm1.42-6.85v-1.08h-.83l-1.79.03c-.07,0-.1-.04-.1-.11v-.35c0-.07.03-.1.1-.1l1.79.03h.83v-.96h-1.23l-1.97.03c-.07,0-.1-.03-.1-.1v-.38c0-.07.03-.1.1-.1l1.97.03h1.23c0-.66-.04-1.11-.11-1.36.29.01.54.04.74.07.1.02.14.06.14.12,0,.04-.03.13-.09.27-.04.1-.06.4-.06.9h1.61l1.97-.03c.07,0,.11.03.11.1v.38c0,.07-.04.1-.11.1l-1.97-.03h-1.61v.96h1.11l1.81-.03c.07,0,.1.03.1.1v.35c0,.07-.03.11-.1.11l-1.81-.03h-1.11v1.08h2.08l2.06-.03c.07,0,.1.04.1.11v.37c0,.07-.03.1-.1.1l-2.06-.03h-4.17l-2.06.03c-.07,0-.1-.03-.1-.1v-.37c0-.07.03-.11.1-.11l2.06.03h1.45Zm-.9,1.5h2.54l1.81-.03c.07,0,.1.03.1.1l-.03,1.41v2.07l.03,1.41c0,.07-.03.1-.1.1l-1.81-.03h-2.54l-1.81.03c-.07,0-.1-.03-.1-.1l.03-1.41v-2.07l-.03-1.41c0-.07.03-.1.1-.1l1.81.03Zm-1.24,1.5h5.03v-.96h-5.03v.96Zm0,.49v.95h5.03v-.95h-5.03Zm0,1.45v1.07h5.03v-1.07h-5.03Zm7.31,3.36c-.13.1-.23.21-.3.35-.05.12-.11.18-.16.18-.03,0-.1-.02-.21-.06-1.05-.37-1.98-.86-2.8-1.48-.03-.02-.05-.04-.05-.06,0-.02.05-.07.14-.15l.2-.16s.08-.07.11-.07c.02,0,.05.01.09.04.76.58,1.76,1.05,2.99,1.4Z"/>
    </g>
    <line class="cls-2" x1="40.71" y1="40.45" x2="157.25" y2="40.45"/>
    <line class="cls-2" x1="39.24" y1="91.19" x2="155.78" y2="91.19"/>
  </g>
</svg>