<?xml version="1.0" encoding="UTF-8"?>
<svg id="_レイヤー_2" data-name="レイヤー 2" xmlns="http://www.w3.org/2000/svg" xmlns:xlink="http://www.w3.org/1999/xlink" viewBox="0 0 591.72 501.07">
  <defs>
    <style>
      .cls-1 {
        clip-path: url(#clippath);
      }

      .cls-2 {
        fill: none;
      }

      .cls-3 {
        fill: #231815;
      }
    </style>
    <clipPath id="clippath">
      <rect class="cls-2" x="0" width="591.72" height="501.07"/>
    </clipPath>
  </defs>
  <g id="_レイヤー_1-2" data-name="レイヤー 1">
    <g>
      <path class="cls-3" d="m514.1,224.97c.23-1.36.79-2.39,1.68-3.08.75-.58,1.67-.88,2.75-.88,1.33,0,2.38.39,3.13,1.16.68.69,1.02,1.59,1.02,2.71,0,.9-.24,1.73-.71,2.47-.46.72-1.25,1.57-2.38,2.56-1.96,1.72-3.26,3.31-3.92,4.76h7.03v1.41h-8.72v-1.27c.81-1.92,2.27-3.85,4.37-5.8,1.09-1.02,1.81-1.83,2.15-2.44.29-.51.43-1.07.43-1.7,0-.81-.25-1.43-.76-1.88-.43-.39-.98-.58-1.65-.58-1.56,0-2.48.98-2.75,2.94l-1.68-.39Z"/>
      <path class="cls-3" d="m529.83,221c1.57,0,2.72.68,3.44,2.03.67,1.24,1.01,3.1,1.01,5.56,0,5.16-1.5,7.75-4.49,7.75-1.58,0-2.74-.69-3.47-2.08-.67-1.27-1.01-3.15-1.01-5.63,0-5.08,1.51-7.63,4.52-7.63Zm0,1.41c-1,0-1.73.53-2.17,1.58-.41.99-.62,2.53-.62,4.62,0,2.39.26,4.08.78,5.07.43.83,1.09,1.25,1.97,1.25,1,0,1.72-.55,2.16-1.65.4-1.01.6-2.57.6-4.67,0-2.38-.25-4.05-.76-5.01-.43-.79-1.08-1.19-1.96-1.19Z"/>
      <path class="cls-3" d="m541.18,221c1.57,0,2.72.68,3.44,2.03.67,1.24,1.01,3.1,1.01,5.56,0,5.16-1.5,7.75-4.49,7.75-1.58,0-2.74-.69-3.47-2.08-.67-1.27-1.01-3.15-1.01-5.63,0-5.08,1.51-7.63,4.52-7.63Zm0,1.41c-1,0-1.73.53-2.17,1.58-.41.99-.62,2.53-.62,4.62,0,2.39.26,4.08.78,5.07.43.83,1.09,1.25,1.97,1.25,1,0,1.72-.55,2.16-1.65.4-1.01.6-2.57.6-4.67,0-2.38-.25-4.05-.76-5.01-.43-.79-1.08-1.19-1.96-1.19Z"/>
      <path class="cls-3" d="m552.53,221c1.57,0,2.72.68,3.44,2.03.67,1.24,1.01,3.1,1.01,5.56,0,5.16-1.5,7.75-4.49,7.75-1.58,0-2.74-.69-3.47-2.08-.67-1.27-1.01-3.15-1.01-5.63,0-5.08,1.51-7.63,4.52-7.63Zm0,1.41c-1,0-1.73.53-2.17,1.58-.41.99-.62,2.53-.62,4.62,0,2.39.26,4.08.78,5.07.43.83,1.09,1.25,1.97,1.25,1,0,1.72-.55,2.16-1.65.4-1.01.6-2.57.6-4.67,0-2.38-.25-4.05-.76-5.01-.43-.79-1.08-1.19-1.96-1.19Z"/>
      <path class="cls-3" d="m563.06,225.62v1.9c1-1.42,2.14-2.13,3.41-2.13.75,0,1.36.22,1.85.66.41.37.67.86.77,1.45,1-1.4,2.16-2.11,3.47-2.11.9,0,1.61.3,2.12.89.46.53.69,1.22.69,2.1v7.69h-1.68v-7.09c0-1.42-.57-2.14-1.72-2.14-.53,0-1.06.21-1.6.64-.46.37-.85.84-1.19,1.44v7.15h-1.64v-7.09c0-1.42-.55-2.14-1.64-2.14-.52,0-1.04.21-1.57.62-.47.37-.89.85-1.25,1.46v7.15h-1.64v-10.44h1.6Z"/>
      <path class="cls-3" d="m579.42,225.62v1.9c1-1.42,2.14-2.13,3.41-2.13.75,0,1.36.22,1.85.66.41.37.67.86.77,1.45,1-1.4,2.16-2.11,3.47-2.11.9,0,1.61.3,2.12.89.46.53.69,1.22.69,2.1v7.69h-1.68v-7.09c0-1.42-.57-2.14-1.72-2.14-.53,0-1.06.21-1.6.64-.46.37-.85.84-1.19,1.44v7.15h-1.64v-7.09c0-1.42-.55-2.14-1.64-2.14-.52,0-1.04.21-1.57.62-.47.37-.89.85-1.25,1.46v7.15h-1.64v-10.44h1.6Z"/>
    </g>
    <g>
      <path class="cls-3" d="m480.11,476.62c.4.95,1.03,1.42,1.9,1.42,1.1,0,1.92-.53,2.45-1.6.5-1.01.77-2.56.83-4.64-.75,1.38-1.84,2.07-3.27,2.07-1.2,0-2.18-.48-2.92-1.45-.67-.86-1-1.94-1-3.25,0-1.64.45-2.93,1.34-3.87.77-.81,1.74-1.22,2.89-1.22,1.54,0,2.7.64,3.48,1.92.73,1.18,1.1,2.87,1.1,5.05,0,5.58-1.63,8.37-4.89,8.37-1.73,0-2.91-.68-3.53-2.03l1.64-.76Zm5.09-6.36c-.05-3.21-.99-4.82-2.82-4.82-.86,0-1.52.38-1.98,1.13-.4.65-.6,1.5-.6,2.58s.27,1.95.8,2.57c.45.51,1.01.77,1.7.77,1.22,0,2.19-.74,2.9-2.22Z"/>
      <path class="cls-3" d="m497.64,464.31v1.41h-5.99l-.16,3.53c0,.21-.05.78-.13,1.71.31-.48.72-.85,1.25-1.12.47-.24.98-.36,1.52-.36,1.24,0,2.26.5,3.03,1.49.69.88,1.03,1.99,1.03,3.32,0,1.67-.49,2.98-1.46,3.93-.81.79-1.82,1.18-3.01,1.18-2.18,0-3.6-.97-4.25-2.91l1.66-.62c.38,1.42,1.24,2.14,2.58,2.14.89,0,1.58-.37,2.08-1.1.44-.65.66-1.5.66-2.57,0-1.17-.26-2.07-.79-2.69-.45-.53-1.05-.8-1.81-.8-.62,0-1.16.19-1.62.57-.41.34-.71.79-.9,1.36l-1.39-.21.35-8.28h7.36Z"/>
      <path class="cls-3" d="m505.3,464.07c1.57,0,2.72.68,3.44,2.03.67,1.24,1.01,3.1,1.01,5.56,0,5.16-1.5,7.75-4.49,7.75-1.58,0-2.74-.69-3.47-2.08-.67-1.27-1.01-3.15-1.01-5.63,0-5.08,1.51-7.63,4.52-7.63Zm0,1.41c-1,0-1.73.53-2.17,1.58-.41.99-.62,2.53-.62,4.62,0,2.39.26,4.08.78,5.07.43.83,1.09,1.25,1.97,1.25,1,0,1.72-.55,2.16-1.65.4-1.01.6-2.57.6-4.67,0-2.38-.25-4.05-.76-5.01-.43-.79-1.08-1.19-1.96-1.19Z"/>
      <path class="cls-3" d="m515.83,468.69v1.9c1-1.42,2.14-2.13,3.41-2.13.75,0,1.36.22,1.85.66.41.37.67.86.77,1.45,1-1.4,2.16-2.11,3.47-2.11.9,0,1.61.3,2.12.89.46.53.69,1.22.69,2.1v7.69h-1.68v-7.09c0-1.42-.57-2.14-1.72-2.14-.53,0-1.06.21-1.6.64-.46.37-.85.84-1.19,1.44v7.15h-1.64v-7.09c0-1.42-.55-2.14-1.64-2.14-.52,0-1.04.21-1.57.62-.47.37-.89.85-1.25,1.46v7.15h-1.64v-10.44h1.6Z"/>
      <path class="cls-3" d="m532.18,468.69v1.9c1-1.42,2.14-2.13,3.41-2.13.75,0,1.36.22,1.85.66.41.37.67.86.77,1.45,1-1.4,2.16-2.11,3.47-2.11.9,0,1.61.3,2.12.89.46.53.69,1.22.69,2.1v7.69h-1.68v-7.09c0-1.42-.57-2.14-1.72-2.14-.53,0-1.06.21-1.6.64-.46.37-.85.84-1.19,1.44v7.15h-1.64v-7.09c0-1.42-.55-2.14-1.64-2.14-.52,0-1.04.21-1.57.62-.47.37-.89.85-1.25,1.46v7.15h-1.64v-10.44h1.6Z"/>
    </g>
    <g class="cls-1">
      <g>
        <path class="cls-3" d="m4.87,223.62v13.6h2.77v1.37H.27v-1.37h2.96v-11.82c-.8.54-1.78,1.04-2.94,1.48l-.29-1.5c1.16-.38,2.32-.96,3.47-1.76h1.4Z"/>
        <path class="cls-3" d="m10.61,236.07c.4.95,1.03,1.42,1.9,1.42,1.1,0,1.92-.53,2.45-1.6.5-1.01.77-2.56.83-4.64-.75,1.38-1.84,2.07-3.27,2.07-1.2,0-2.18-.48-2.92-1.45-.67-.86-1-1.94-1-3.25,0-1.64.45-2.93,1.34-3.87.77-.81,1.74-1.22,2.89-1.22,1.54,0,2.7.64,3.48,1.92.73,1.18,1.1,2.87,1.1,5.05,0,5.58-1.63,8.37-4.89,8.37-1.73,0-2.91-.68-3.53-2.03l1.64-.76Zm5.09-6.36c-.05-3.21-.99-4.82-2.82-4.82-.86,0-1.52.38-1.98,1.13-.4.65-.6,1.5-.6,2.58s.27,1.95.8,2.57c.45.51,1.01.77,1.7.77,1.22,0,2.19-.74,2.9-2.22Z"/>
        <path class="cls-3" d="m23.64,223.52c1.57,0,2.72.68,3.44,2.03.67,1.24,1.01,3.1,1.01,5.56,0,5.16-1.5,7.75-4.49,7.75-1.58,0-2.74-.69-3.47-2.08-.67-1.27-1.01-3.15-1.01-5.63,0-5.08,1.51-7.63,4.52-7.63Zm0,1.41c-1,0-1.73.53-2.17,1.58-.41.99-.62,2.53-.62,4.62,0,2.39.26,4.08.78,5.07.43.83,1.09,1.25,1.97,1.25,1,0,1.72-.55,2.16-1.65.4-1.01.6-2.57.6-4.67,0-2.38-.25-4.05-.76-5.01-.43-.79-1.08-1.19-1.96-1.19Z"/>
        <path class="cls-3" d="m34.17,223.52c1.57,0,2.72.68,3.44,2.03.67,1.24,1.01,3.1,1.01,5.56,0,5.16-1.5,7.75-4.49,7.75-1.58,0-2.74-.69-3.47-2.08-.67-1.27-1.01-3.15-1.01-5.63,0-5.08,1.51-7.63,4.52-7.63Zm0,1.41c-1,0-1.73.53-2.17,1.58-.41.99-.62,2.53-.62,4.62,0,2.39.26,4.08.78,5.07.43.83,1.09,1.25,1.97,1.25,1,0,1.72-.55,2.16-1.65.4-1.01.6-2.57.6-4.67,0-2.38-.25-4.05-.76-5.01-.43-.79-1.08-1.19-1.96-1.19Z"/>
        <path class="cls-3" d="m43.88,228.14v1.9c1-1.42,2.14-2.13,3.41-2.13.75,0,1.36.22,1.85.66.41.37.67.86.77,1.45,1-1.4,2.16-2.11,3.47-2.11.9,0,1.61.3,2.12.89.46.53.69,1.22.69,2.1v7.69h-1.68v-7.09c0-1.42-.57-2.14-1.72-2.14-.53,0-1.06.21-1.6.64-.46.37-.85.84-1.19,1.44v7.15h-1.64v-7.09c0-1.42-.55-2.14-1.64-2.14-.52,0-1.04.21-1.57.62-.47.37-.89.85-1.25,1.46v7.15h-1.64v-10.44h1.6Z"/>
        <path class="cls-3" d="m59.42,228.14v1.9c1-1.42,2.14-2.13,3.41-2.13.75,0,1.36.22,1.85.66.41.37.67.86.77,1.45,1-1.4,2.16-2.11,3.47-2.11.9,0,1.61.3,2.12.89.46.53.69,1.22.69,2.1v7.69h-1.68v-7.09c0-1.42-.57-2.14-1.72-2.14-.53,0-1.06.21-1.6.64-.46.37-.85.84-1.19,1.44v7.15h-1.64v-7.09c0-1.42-.55-2.14-1.64-2.14-.52,0-1.04.21-1.57.62-.47.37-.89.85-1.25,1.46v7.15h-1.64v-10.44h1.6Z"/>
      </g>
      <g>
        <path class="cls-3" d="m119.92,473.63v13.6h2.77v1.37h-7.38v-1.37h2.96v-11.82c-.8.54-1.78,1.04-2.94,1.48l-.29-1.5c1.16-.38,2.32-.96,3.47-1.76h1.4Z"/>
        <path class="cls-3" d="m132.84,473.63v10.14h2.07v1.35h-2.07v3.47h-1.54v-3.47h-5.93v-1.27l5.13-10.22h2.34Zm-1.54,10.14v-5.19c0-.63.03-1.83.08-3.6h-.35c-.77,1.77-1.25,2.84-1.43,3.21l-2.72,5.58h4.41Z"/>
        <path class="cls-3" d="m141.55,473.53c1.57,0,2.72.68,3.44,2.03.67,1.24,1.01,3.1,1.01,5.56,0,5.16-1.5,7.75-4.49,7.75-1.58,0-2.74-.69-3.47-2.08-.67-1.27-1.01-3.15-1.01-5.63,0-5.08,1.51-7.63,4.52-7.63Zm0,1.41c-1,0-1.73.53-2.17,1.58-.41.99-.62,2.53-.62,4.62,0,2.39.26,4.08.78,5.07.43.83,1.09,1.25,1.97,1.25,1,0,1.72-.55,2.16-1.65.4-1.01.6-2.57.6-4.67,0-2.38-.25-4.05-.76-5.01-.43-.79-1.08-1.19-1.96-1.19Z"/>
        <path class="cls-3" d="m152.9,473.53c1.57,0,2.72.68,3.44,2.03.67,1.24,1.01,3.1,1.01,5.56,0,5.16-1.5,7.75-4.49,7.75-1.58,0-2.74-.69-3.47-2.08-.67-1.27-1.01-3.15-1.01-5.63,0-5.08,1.51-7.63,4.52-7.63Zm0,1.41c-1,0-1.73.53-2.17,1.58-.41.99-.62,2.53-.62,4.62,0,2.39.26,4.08.78,5.07.43.83,1.09,1.25,1.97,1.25,1,0,1.72-.55,2.16-1.65.4-1.01.6-2.57.6-4.67,0-2.38-.25-4.05-.76-5.01-.43-.79-1.08-1.19-1.96-1.19Z"/>
        <path class="cls-3" d="m163.43,478.15v1.9c1-1.42,2.14-2.13,3.41-2.13.75,0,1.36.22,1.85.66.41.37.67.86.77,1.45,1-1.4,2.16-2.11,3.47-2.11.9,0,1.61.3,2.12.89.46.53.69,1.22.69,2.1v7.69h-1.68v-7.09c0-1.42-.57-2.14-1.72-2.14-.53,0-1.06.21-1.6.64-.46.37-.85.84-1.19,1.44v7.15h-1.64v-7.09c0-1.42-.55-2.14-1.64-2.14-.52,0-1.04.21-1.57.62-.47.37-.89.85-1.25,1.46v7.15h-1.64v-10.44h1.6Z"/>
        <path class="cls-3" d="m179.79,478.15v1.9c1-1.42,2.14-2.13,3.41-2.13.75,0,1.36.22,1.85.66.41.37.67.86.77,1.45,1-1.4,2.16-2.11,3.47-2.11.9,0,1.61.3,2.12.89.46.53.69,1.22.69,2.1v7.69h-1.68v-7.09c0-1.42-.57-2.14-1.72-2.14-.53,0-1.06.21-1.6.64-.46.37-.85.84-1.19,1.44v7.15h-1.64v-7.09c0-1.42-.55-2.14-1.64-2.14-.52,0-1.04.21-1.57.62-.47.37-.89.85-1.25,1.46v7.15h-1.64v-10.44h1.6Z"/>
      </g>
    </g>
  </g>
</svg>