<?xml version="1.0" encoding="UTF-8"?>
<svg id="_レイヤー_2" data-name="レイヤー 2" xmlns="http://www.w3.org/2000/svg" xmlns:xlink="http://www.w3.org/1999/xlink" viewBox="0 0 458.63 37.12">
  <defs>
    <style>
      .cls-1 {
        clip-path: url(#clippath);
      }

      .cls-2 {
        fill: none;
      }

      .cls-3 {
        fill: #231815;
      }
    </style>
    <clipPath id="clippath">
      <rect class="cls-2" width="458.63" height="37.12"/>
    </clipPath>
  </defs>
  <g id="_レイヤー_1-2" data-name="レイヤー 1">
    <g class="cls-1">
      <g>
        <path class="cls-3" d="m3.95,14.31c.48.05.82.12,1.03.18.07.02.11.08.11.16,0,.05-.01.1-.04.16-.09.15-.14.45-.16.9-.03,1.57-.32,2.9-.87,4.01-.47.94-1.14,1.76-2,2.47-.08.06-.15.1-.2.1-.04,0-.07-.01-.11-.04-.17-.16-.37-.26-.62-.29.94-.63,1.68-1.47,2.21-2.52.52-1.03.79-2.28.79-3.75,0-.57-.05-1.03-.14-1.36Zm3.86,6.71c.9-.45,1.74-.97,2.52-1.57.94-.72,1.75-1.49,2.45-2.3.02.27.07.51.15.72.02.04.03.08.03.11,0,.06-.03.12-.1.18-.65.67-1.39,1.33-2.21,1.96-.73.56-1.53,1.08-2.38,1.54-.21.11-.36.23-.47.33-.06.05-.12.08-.19.08-.05,0-.1-.02-.14-.05-.21-.19-.36-.36-.46-.49-.03-.04-.04-.08-.04-.14,0-.05,0-.1.03-.16.04-.11.05-.5.05-1.15v-4.52c0-1.02-.05-1.71-.14-2.08.4.02.72.06.96.14.09.03.14.08.14.16,0,.05-.02.11-.07.18-.09.14-.14.67-.14,1.6v5.47Z"/>
        <path class="cls-3" d="m15.57,17.5c.63.08,1.59.12,2.88.12h4.45c1.3,0,2.3-.01,3.01-.04.13,0,.2.05.2.16v.53c0,.11-.07.17-.2.17-.49-.02-1.1-.03-1.85-.03h-6.59l-1.6.12c-.1,0-.17-.06-.2-.17-.07-.28-.11-.57-.11-.86Z"/>
        <path class="cls-3" d="m33.32,12.67c.43.11.78.25,1.05.42.05.04.08.08.08.14,0,.07-.04.14-.11.22-.19.2-.37.53-.52,1-.79,2.43-1.68,4.76-2.67,6.99,2.32-.16,4.43-.38,6.34-.68-.49-.89-1.07-1.73-1.75-2.52.26-.16.42-.26.48-.29.05-.03.08-.04.12-.04.04,0,.09.03.14.1.93,1.1,1.82,2.51,2.66,4.25.02.03.03.06.03.09,0,.05-.03.09-.08.13-.14.09-.3.18-.48.27-.03.01-.05.02-.07.02-.05,0-.1-.04-.14-.13-.18-.44-.38-.84-.59-1.22-2.09.32-4.42.6-6.99.84-.75.07-1.23.17-1.43.29-.06.05-.13.07-.19.07-.08,0-.14-.04-.17-.11-.09-.23-.19-.56-.29-.97.22.02.45.03.7.03s.56-.01.92-.03c1.09-2.49,1.96-4.83,2.63-7.03.21-.72.32-1.33.33-1.82Z"/>
        <path class="cls-3" d="m47.66,14.9c.4,1.32.96,2.4,1.68,3.23.6.69,1.4,1.33,2.41,1.91-.18.1-.31.22-.39.33-.07.1-.13.15-.16.15-.03,0-.09-.03-.18-.1-.97-.64-1.74-1.34-2.31-2.11-.55-.73-.98-1.6-1.3-2.6-.09.39-.19.73-.31,1-.32.81-.73,1.5-1.21,2.06-.52.61-1.21,1.16-2.06,1.67-.1.06-.16.1-.18.1-.03,0-.08-.05-.14-.14-.1-.14-.22-.25-.36-.33.98-.52,1.76-1.13,2.33-1.8.41-.49.75-1.07,1.03-1.74.18-.44.31-.98.4-1.64h-4.03v6.86l.03,2.07c0,.06-.03.1-.1.1h-.51c-.06,0-.1-.03-.1-.1l.03-2.11v-5.21l-.03-2.15c0-.06.03-.1.1-.1l1.99.03h2.67c.04-.42.05-.89.05-1.4,0-.61-.03-1.05-.08-1.34.25.01.51.04.76.08.09.01.14.05.14.12,0,0-.02.09-.07.25-.05.15-.07.5-.08,1.07,0,.31-.02.71-.07,1.22h3.02l1.99-.03c.06,0,.1.03.1.1l-.03,2.19v3.99l.03,2.17c0,.4-.11.68-.33.85-.19.16-.74.24-1.67.24-.11,0-.18-.01-.21-.03-.02-.02-.05-.09-.08-.21-.04-.19-.12-.36-.24-.51.44.05.84.08,1.21.08.27,0,.45-.05.54-.14.08-.08.12-.21.12-.41v-7.69h-4.4Z"/>
        <path class="cls-3" d="m56.9,13.1v1.31h-1.29v-1.31h1.29Zm-.21,2.82v7h-.87v-7h.87Z"/>
        <path class="cls-3" d="m60.32,15.91v1.3c.73-.98,1.52-1.47,2.37-1.47.51,0,.94.16,1.29.46.3.26.48.59.53.99.71-.97,1.5-1.46,2.38-1.46.62,0,1.1.2,1.44.59.31.35.46.81.46,1.38v5.2h-.87v-4.83c0-1.03-.43-1.55-1.28-1.55-.39,0-.78.15-1.18.45-.34.25-.64.59-.9,1v4.93h-.87v-4.83c0-1.03-.41-1.55-1.23-1.55-.39,0-.78.14-1.17.43-.35.25-.67.59-.94,1.03v4.93h-.85v-7h.83Z"/>
        <path class="cls-3" d="m71.35,17.54c.42-1.2,1.34-1.8,2.75-1.8,1.65,0,2.48.77,2.48,2.32v2.47c0,.93.06,1.73.17,2.38h-.81c-.06-.27-.11-.68-.16-1.23-.62.93-1.46,1.4-2.53,1.4-.74,0-1.31-.21-1.7-.64-.33-.36-.5-.82-.5-1.39,0-1.27.79-2.03,2.37-2.3.62-.1,1.39-.18,2.32-.23v-.38c0-.67-.15-1.13-.44-1.39-.25-.23-.66-.34-1.22-.34-1,0-1.65.47-1.93,1.41l-.81-.29Zm4.4,1.63c-.7.01-1.42.09-2.14.23-1.12.23-1.68.77-1.68,1.61,0,.46.15.81.44,1.05.26.22.61.33,1.05.33.94,0,1.72-.51,2.34-1.52v-1.71Z"/>
        <path class="cls-3" d="m85.03,15.06l-.07.8c-.37,0-.68.05-.91.15-.19.08-.38.22-.57.41.49.4.74.94.74,1.63,0,.75-.27,1.34-.82,1.77-.46.36-1.04.54-1.74.54-.42,0-.81-.07-1.16-.22-.46.26-.7.54-.7.83,0,.25.1.42.3.51.2.09.59.16,1.18.22l1.37.14c.95.1,1.6.31,1.97.64.27.24.41.58.41,1.02,0,.62-.31,1.1-.93,1.46-.58.33-1.37.49-2.34.49-1.04,0-1.84-.18-2.39-.53-.47-.31-.7-.7-.7-1.19,0-.35.14-.67.43-.94.25-.24.58-.43,1-.57-.71-.16-1.07-.5-1.07-1.03,0-.46.32-.91.97-1.35-.59-.42-.88-1.01-.88-1.77s.28-1.33.85-1.77c.47-.37,1.04-.55,1.71-.55.52,0,.97.11,1.35.32.27-.38.57-.64.91-.8.3-.14.67-.21,1.11-.21Zm-4.2,7.32c-.91.25-1.37.66-1.37,1.24,0,.42.24.74.73.96.4.17.93.26,1.59.26.83,0,1.46-.13,1.91-.4.36-.22.54-.5.54-.84,0-.31-.13-.54-.4-.7-.27-.16-.74-.27-1.39-.34l-1.61-.17Zm.84-6.02c-.52,0-.95.17-1.28.51-.3.31-.45.71-.45,1.2,0,.55.19.98.57,1.3.31.25.7.38,1.16.38.53,0,.96-.17,1.28-.5.3-.31.45-.7.45-1.18,0-.57-.19-1-.57-1.32-.31-.26-.69-.39-1.15-.39Z"/>
        <path class="cls-3" d="m92.51,19.48h-5.08c0,.98.24,1.73.71,2.26.4.44.9.66,1.52.66,1.01,0,1.67-.5,1.98-1.5l.81.31c-.48,1.25-1.42,1.88-2.81,1.88-.98,0-1.75-.37-2.32-1.11-.5-.66-.75-1.5-.75-2.54,0-1.18.32-2.12.96-2.81.54-.58,1.22-.88,2.03-.88.92,0,1.66.36,2.21,1.07.49.64.73,1.45.73,2.44v.23Zm-.87-.66c-.06-.81-.3-1.43-.71-1.85-.35-.36-.8-.54-1.35-.54-.63,0-1.14.24-1.53.73-.35.42-.54.98-.59,1.65h4.18Z"/>
      </g>
      <g>
        <path class="cls-3" d="m253,19.99h-1.76l-2,.03c-.06,0-.1-.03-.1-.1l.03-1.33v-1.94l-.03-1.35c0-.06.03-.1.1-.1l2,.03h1.76v-1.31h-3.34l-1.91.03c-.06,0-.1-.03-.1-.1v-.45c0-.06.03-.1.1-.1l1.91.03h3.34c0-.75-.04-1.32-.11-1.71.24.01.49.04.75.07.1.02.14.06.14.12,0,.05-.02.12-.05.24-.07.18-.1.61-.1,1.29h3.53l1.92-.03c.06,0,.1.03.1.1v.45c0,.06-.03.1-.1.1l-1.92-.03h-3.53v1.31h1.96l1.98-.03c.06,0,.1.03.1.1l-.03,1.35v1.94l.03,1.33c0,.06-.03.1-.1.1l-1.98-.03h-1.96v1.36h3.99l1.83-.03c.07,0,.1.03.1.1v.45c0,.06-.03.1-.1.1l-1.83-.03h-3.99l.03,2.13c0,.07-.03.1-.1.1h-.49c-.06,0-.1-.03-.1-.1l.03-2.13h-3.74l-1.83.03c-.06,0-.1-.03-.1-.1v-.45c0-.06.03-.1.1-.1l1.83.03h3.74v-1.36Zm0-2.7v-1.51h-3.21v1.51h3.21Zm0,.53h-3.21v1.62h3.21v-1.62Zm.63-.53h3.38v-1.51h-3.38v1.51Zm0,.53v1.62h3.38v-1.62h-3.38Z"/>
        <path class="cls-3" d="m262.55,13.76c.37.05.69.13.96.23.06.03.1.07.1.12,0,.05-.01.12-.04.21-.1.23-.14.64-.14,1.25,0,1.13.06,2.18.18,3.17.12.98.34,1.77.68,2.37.28.51.58.77.89.77s.63-.25.94-.77c.24-.4.45-.9.63-1.52.11.25.24.45.4.59.06.06.09.12.09.17,0,.03,0,.06-.02.09-.23.66-.51,1.18-.86,1.58-.37.42-.76.64-1.17.64-.62,0-1.14-.43-1.57-1.29-.35-.68-.59-1.55-.72-2.6-.14-1.01-.21-2.23-.21-3.66,0-.62-.04-1.07-.11-1.34Zm7.12,1.63c.19-.14.35-.24.48-.31.05-.02.08-.03.1-.03.03,0,.05,0,.08.03,1.44,1.19,2.34,2.81,2.71,4.85v.03s-.03.09-.09.12c-.18.1-.35.18-.53.24-.02,0-.03,0-.05,0-.05,0-.08-.03-.1-.09-.33-2.01-1.21-3.62-2.62-4.85Z"/>
        <path class="cls-3" d="m281.85,14.57c0-.32-.01-.76-.01-1.33-.01-.3-.06-.6-.15-.91.32.01.64.06.94.14.13.04.2.1.2.18,0,.05-.03.13-.1.23-.06.11-.1.23-.11.36-.02.49-.03.92-.03,1.31,1.3-.05,2.82-.08,4.55-.08.08,0,.12.04.12.12v.45c0,.09-.05.13-.16.13-.65-.03-1.29-.04-1.94-.04-.78,0-1.64.02-2.58.05,0,1.26,0,2.21.01,2.87.11.51.16,1.01.16,1.5,0,1.92-.92,3.35-2.75,4.27-.11.05-.2.08-.25.08s-.12-.03-.18-.1c-.11-.11-.27-.22-.47-.31,1.9-.78,2.89-2.01,2.99-3.68-.32.58-.86.87-1.6.87-.54,0-.98-.18-1.31-.53-.33-.34-.49-.81-.49-1.39s.22-1.04.65-1.4c.35-.3.75-.44,1.19-.44.6,0,1.06.18,1.37.53,0-.25,0-.65-.01-1.2,0-.45,0-.79-.01-1.03-1.91.09-3.67.23-5.28.42-.13.02-.26.05-.4.1-.1.03-.17.05-.2.05-.07,0-.11-.04-.14-.11-.06-.17-.12-.42-.18-.75.11,0,.21,0,.31,0,.37,0,.86-.03,1.46-.08,1.7-.13,3.17-.23,4.41-.29Zm-1.28,2.93c-.38,0-.69.13-.93.39-.21.23-.31.53-.31.88,0,.42.13.76.4,1,.22.2.49.29.82.29.45,0,.81-.16,1.08-.48.21-.25.32-.54.32-.85,0-.38-.15-.69-.44-.92-.25-.21-.56-.31-.94-.31Z"/>
        <path class="cls-3" d="m295.34,15.8v5.12c0,.77.01,1.57.04,2.39,0,.1-.04.14-.12.14-.09,0-.19,0-.31,0s-.22,0-.31,0c-.07,0-.11-.05-.11-.14.03-.79.04-1.58.04-2.35v-4.48c-1.35,1.22-2.88,2.33-4.59,3.32-.04.02-.07.03-.1.03-.05,0-.1-.03-.15-.08-.14-.16-.31-.28-.53-.36,1.7-.95,3.16-1.94,4.35-2.97,1.14-.99,2.07-1.93,2.78-2.82.42-.51.68-.97.8-1.37.36.18.63.36.79.53.05.05.08.1.08.16,0,.08-.04.13-.12.17-.17.1-.42.34-.76.73-.52.65-1.12,1.3-1.78,1.96Z"/>
        <path class="cls-3" d="m306.59,17.32c.63-.92,1.16-1.86,1.59-2.82.32-.69.49-1.22.51-1.59.4.16.72.33.96.51.06.05.1.1.1.16,0,.07-.04.14-.11.19-.18.11-.39.43-.64.94-.56,1.13-1.15,2.14-1.79,3.04.78.58,1.52,1.25,2.21,2,.04.04.05.08.05.12,0,.03-.01.06-.04.11-.13.18-.25.32-.36.42-.04.04-.08.06-.11.06s-.07-.03-.1-.08c-.66-.83-1.35-1.5-2.07-2.02-1.59,2.06-3.28,3.64-5.07,4.74-.07.05-.13.07-.19.07-.05,0-.1-.02-.14-.05-.18-.16-.38-.28-.62-.35,2.01-1.13,3.81-2.75,5.39-4.85-.88-.67-1.83-1.25-2.84-1.74.17-.24.3-.42.4-.52.03-.03.05-.04.08-.04s.07.01.12.04c.94.49,1.83,1.04,2.67,1.65Z"/>
        <path class="cls-3" d="m313.45,17.5c.63.08,1.59.12,2.88.12h4.45c1.3,0,2.3-.01,3.01-.04.13,0,.2.05.2.16v.53c0,.11-.07.17-.2.17-.49-.02-1.1-.03-1.85-.03h-6.59l-1.6.12c-.1,0-.17-.06-.2-.17-.07-.28-.11-.57-.11-.86Z"/>
        <path class="cls-3" d="m326.74,16.8c.04-.05.11-.15.2-.28.07-.1.12-.18.15-.22.04-.06.09-.09.14-.09.02,0,.05,0,.08.02.9.32,1.69.73,2.38,1.23.07.05.11.1.11.15,0,.03-.01.07-.04.12-.02.04-.11.18-.28.43-.04.06-.08.09-.12.09-.04,0-.08-.03-.14-.08-.68-.55-1.51-1-2.49-1.37Zm1.18,5.35c.49-.12.93-.28,1.33-.48,1.53-.82,2.81-1.61,3.85-2.39,1.63-1.28,2.95-2.57,3.97-3.88.05.28.12.52.24.72.02.03.03.07.03.1,0,.05-.03.12-.1.19-1.01,1.21-2.26,2.38-3.74,3.5-1,.78-2.36,1.64-4.06,2.58-.21.11-.42.27-.62.46-.05.05-.1.08-.15.08-.06,0-.12-.03-.17-.09-.21-.23-.41-.49-.59-.8Zm.48-8.57c.1-.15.23-.31.36-.49.05-.07.09-.1.12-.1.02,0,.06.01.1.03.94.42,1.73.89,2.35,1.43.06.05.1.09.1.12,0,.03-.02.07-.05.12-.12.18-.22.32-.31.44-.03.04-.06.06-.1.06s-.08-.03-.14-.08c-.67-.61-1.49-1.12-2.43-1.54Zm6.02-.81l.42-.29s.04-.02.05-.02c.01,0,.03,0,.05.02.54.36,1.06.93,1.58,1.7.02.02.03.04.03.05s-.01.04-.03.07l-.34.28s-.04.03-.06.03c-.03,0-.06-.02-.09-.06-.47-.74-1.01-1.33-1.61-1.77Zm1.18-.87l.37-.28s.05-.03.07-.03.04,0,.05.02c.63.46,1.16,1,1.58,1.61.02.03.03.05.03.08,0,.03-.02.05-.05.08l-.32.28s-.04.02-.06.02c-.03,0-.05-.02-.08-.05-.45-.69-.98-1.26-1.59-1.72Z"/>
      </g>
    </g>
  </g>
</svg>