<?xml version="1.0" encoding="UTF-8"?>
<svg id="_レイヤー_2" data-name="レイヤー 2" xmlns="http://www.w3.org/2000/svg" xmlns:xlink="http://www.w3.org/1999/xlink" viewBox="0 0 542.5315104 422.0356769">
  <defs>
    <style>
      .cls-1 {
        font-size: 11.9452896px;
      }

      .cls-1, .cls-2, .cls-3, .cls-4 {
        font-family: ACaslonPro-Regular, 'Adobe Caslon Pro';
      }

      .cls-1, .cls-2, .cls-3, .cls-4, .cls-5 {
        fill: #231815;
      }

      .cls-6 {
        stroke: #fff;
        stroke-linecap: round;
        stroke-linejoin: round;
        stroke-width: 2.2397411px;
      }

      .cls-6, .cls-7 {
        fill: #fff;
      }

      .cls-2 {
        font-size: 13.4384499px;
      }

      .cls-8, .cls-9 {
        fill: none;
      }

      .cls-7 {
        font-family: ShipporiMincho-Regular, 'Shippori Mincho';
        font-size: 22.3382492px;
      }

      .cls-3 {
        font-size: 17.9179306px;
      }

      .cls-4 {
        font-size: 20.7676907px;
      }

      .cls-9 {
        clip-path: url(#clippath);
      }
    </style>
    <clipPath id="clippath">
      <rect class="cls-8" width="542.5315104" height="422.0356769"/>
    </clipPath>
  </defs>
  <g id="_レイヤー_1-2" data-name="レイヤー 1">
    <g class="cls-9">
      <g>
        <g>
          <path class="cls-6" d="m256.4581542,170.1730753c-.4622763,0-.5511256.0896792-.7435941.747312l-2.3390363,8.5382816h-.7304542l-2.2893141-7.6670372h-.0247865l-2.2339117,7.6670372h-.7582331l-2.4410192-8.4114227c-.2420414-.7713818-.3323776-.874171-.8224329-.874171v-.4126648h2.5313554v.4126648c-.5642594,0-.758227.0532163-.758227.3360956,0,.1283222.0409126.3054858.1021322.5504687l1.9918764,6.859939h.0247865l2.0690729-7.1049219c-.2318879-.5759718-.2566743-.6415813-.8733497-.6415813v-.4126648h2.6085518v.4126648c-.5409721,0-.7465804.0532163-.7465804.3463088,0,.1305023.0379263.3083974.1167652.5526487l2.053096,6.8475458h.0261303l1.8519673-6.7724547c.0757033-.2828793.1136358-.4717194.1136358-.6277397,0-.2930925-.1793349-.3463088-.6808813-.3463088v-.4126648h1.9524507v.4126648Z"/>
          <path class="cls-5" d="m256.4581542,170.1730753c-.4622763,0-.5511256.0896792-.7435941.747312l-2.3390363,8.5382816h-.7304542l-2.2893141-7.6670372h-.0247865l-2.2339117,7.6670372h-.7582331l-2.4410192-8.4114227c-.2420414-.7713818-.3323776-.874171-.8224329-.874171v-.4126648h2.5313554v.4126648c-.5642594,0-.758227.0532163-.758227.3360956,0,.1283222.0409126.3054858.1021322.5504687l1.9918764,6.859939h.0247865l2.0690729-7.1049219c-.2318879-.5759718-.2566743-.6415813-.8733497-.6415813v-.4126648h2.6085518v.4126648c-.5409721,0-.7465804.0532163-.7465804.3463088,0,.1305023.0379263.3083974.1167652.5526487l2.053096,6.8475458h.0261303l1.8519673-6.7724547c.0757033-.2828793.1136358-.4717194.1136358-.6277397,0-.2930925-.1793349-.3463088-.6808813-.3463088v-.4126648h1.9524507v.4126648Z"/>
        </g>
        <g>
          <path class="cls-6" d="m134.1954674,171.4052167c1.2830731,0,2.085199.1574837,2.7996765.6838826.6269782.4564055.9681655,1.1154971.9681655,2.0443477,0,1.6098199-1.2278261,2.5692803-2.6100451,2.7690503l2.0968457,3.5987564c.542316.9011524.758227,1.0119599,1.4259686,1.0119599v.4564145h-1.8955676l-2.7996765-4.8965222h-1.312339v3.3260754c0,1.0440479.0700292,1.1140323,1.1256939,1.1140323v.4564145h-3.4529343v-.4564145c1.041181,0,1.1286802-.0845726,1.1286802-1.1256939v-7.411856c0-1.0294597-.0874992-1.112584-1.1286802-1.112584v-.4578628h3.6542124Zm-.9566681.5715969c-.3411872,0-.3703039.1268739-.3703039.9011539v3.6089532h1.0119151c1.7148952,0,2.8405891-.6007583,2.8405891-2.3811793,0-1.2000698-.6825238-2.1289277-2.5547981-2.1289277h-.9274022Z"/>
          <path class="cls-5" d="m134.1954674,171.4052167c1.2830731,0,2.085199.1574837,2.7996765.6838826.6269782.4564055.9681655,1.1154971.9681655,2.0443477,0,1.6098199-1.2278261,2.5692803-2.6100451,2.7690503l2.0968457,3.5987564c.542316.9011524.758227,1.0119599,1.4259686,1.0119599v.4564145h-1.8955676l-2.7996765-4.8965222h-1.312339v3.3260754c0,1.0440479.0700292,1.1140323,1.1256939,1.1140323v.4564145h-3.4529343v-.4564145c1.041181,0,1.1286802-.0845726,1.1286802-1.1256939v-7.411856c0-1.0294597-.0874992-1.112584-1.1286802-1.112584v-.4578628h3.6542124Zm-.9566681.5715969c-.3411872,0-.3703039.1268739-.3703039.9011539v3.6089532h1.0119151c1.7148952,0,2.8405891-.6007583,2.8405891-2.3811793,0-1.2000698-.6825238-2.1289277-2.5547981-2.1289277h-.9274022Z"/>
        </g>
        <text class="cls-2" transform="translate(272.0419727 298.4913476)"><tspan x="0" y="0">en-</tspan><tspan x="-7.3505859" y="10.7607422">trance</tspan></text>
        <text class="cls-2" transform="translate(416.4042773 243.3624414)"><tspan x="0" y="0">EV</tspan></text>
        <text class="cls-4" transform="translate(452.2934375 405.078296)"><tspan x="0" y="0">2F</tspan></text>
        <text class="cls-3" transform="translate(373.1669727 106.7149804)"><tspan x="0" y="0">bed room</tspan><tspan x="16.5556641" y="16.4248047">5.25j</tspan></text>
        <text class="cls-3" transform="translate(117.3398242 243.5880273)"><tspan x="0" y="0">bed room</tspan><tspan x="21.0351562" y="16.4248047">9.1j</tspan></text>
        <text class="cls-2" transform="translate(193.2548633 130.6280664)"><tspan x="0" y="0">WIC</tspan></text>
        <text class="cls-2" transform="translate(289.8129688 130.6270898)"><tspan x="0" y="0">WIC</tspan></text>
        <text class="cls-2" transform="translate(301.1440234 177.1641992)"><tspan x="0" y="0">shower</tspan></text>
        <text class="cls-1" transform="translate(368.1825977 304.9796289)"><tspan x="0" y="0">DN</tspan></text>
      </g>
      <text class="cls-7" transform="translate(13.5468555 27.2423585)"><tspan x="0" y="0">将来プラン例</tspan></text>
    </g>
  </g>
</svg>