<?xml version="1.0" encoding="UTF-8"?>
<svg id="_レイヤー_2" data-name="レイヤー 2" xmlns="http://www.w3.org/2000/svg" xmlns:xlink="http://www.w3.org/1999/xlink" viewBox="0 0 1204.64 349.18">
  <defs>
    <style>
      .cls-1 {
        fill: #fff;
      }

      .cls-2 {
        clip-path: url(#clippath);
      }

      .cls-3 {
        fill: none;
      }

      .cls-4 {
        fill: #231815;
      }
    </style>
    <clipPath id="clippath">
      <rect class="cls-3" width="1204.64" height="349.18"/>
    </clipPath>
  </defs>
  <g id="_レイヤー_1-2" data-name="レイヤー 1">
    <g class="cls-2">
      <g>
        <path class="cls-1" d="m20.23,20.87c-.88.93-1.85,1.81-2.93,2.63-.04.63-.16.94-.35.94-.22,0-.58-.6-1.09-1.8,1.69-.82,3.15-1.69,4.38-2.63v-10.53c1.47.04,2.21.23,2.21.55,0,.19-.3.41-.9.66v18.26h-1.31v-8.08Zm-3.53-7.91c1.62,1.47,2.43,2.91,2.43,4.29,0,.66-.28.99-.83.99-.38,0-.58-.23-.61-.68-.09-1.42-.55-2.85-1.38-4.29l.39-.31Zm15.57,7.8v6.24c0,1.18-.77,1.77-2.3,1.75,0-.42-.24-.71-.72-.85-.41-.13-1.23-.29-2.47-.48v-.61c1.31.13,2.44.2,3.39.2.58,0,.88-.23.88-.7v-5.54h-8.5l-.26-.53h8.76v-2.56c1.36.1,2.04.3,2.04.59,0,.16-.27.34-.81.53v1.45h1.16l1.05-1.45c.53.57.96,1.1,1.29,1.6l-.2.37h-3.31Zm-9.94-8.17c4.54-.74,8.15-1.7,10.82-2.87.98.63,1.47,1.08,1.47,1.36,0,.13-.13.2-.39.2-.13,0-.39-.04-.77-.11-3.02.77-6.64,1.42-10.84,1.95l-.28-.53Zm.96,1.1c1.88,1.3,2.82,2.58,2.82,3.85,0,.61-.26.92-.77.92-.38,0-.61-.28-.7-.85-.19-1.27-.74-2.46-1.66-3.57l.31-.35Zm1.47,7.49c1.05.51,1.87,1.12,2.45,1.82.44.54.66,1.02.66,1.45,0,.55-.25.83-.74.83-.39,0-.63-.25-.72-.74-.23-1.01-.88-2-1.95-2.98l.31-.37Zm2.28-8.08c1.55,1.23,2.32,2.44,2.32,3.64,0,.61-.25.92-.74.92-.38,0-.6-.29-.66-.88-.13-1.24-.57-2.37-1.31-3.39l.39-.29Zm2.45,5.43c1.18-1.84,2.28-3.98,3.31-6.42,1.21.55,1.82.96,1.82,1.23,0,.17-.31.28-.94.33-.99,1.77-2.23,3.47-3.72,5.12l-.46-.26Z"/>
        <path class="cls-1" d="m47.49,19.69v-6.11h-7.58l-.22-.53h7.8v-3.63c1.49.06,2.23.25,2.23.57,0,.2-.31.42-.94.63v2.43h5.72l1.07-1.45c.54.47,1.03.99,1.47,1.55l-.24.42h-8.02v6.11h6.81l1.14-1.42c.41.32.92.83,1.53,1.53l-.24.44h-9.04l.13.15c2.57,2.5,5.61,4.33,9.11,5.5-.5.41-.86.87-1.09,1.38-3.33-1.55-6.11-3.68-8.34-6.39v8.08h-1.29v-7.42c-2.28,2.67-5.21,4.69-8.8,6.07l-.31-.5c3.53-1.66,6.36-3.95,8.48-6.85h-8.21l-.22-.55h9.07Zm-5.54-5.26c1.98,1.15,2.98,2.34,2.98,3.55,0,.58-.27.88-.81.88-.32,0-.56-.29-.7-.85-.31-1.12-.9-2.2-1.77-3.22l.31-.35Zm8.69,4.42c.79-1.45,1.43-3.04,1.93-4.77,1.33.5,1.99.88,1.99,1.16,0,.2-.32.33-.96.37-.61,1.14-1.44,2.31-2.47,3.53l-.48-.28Z"/>
        <path class="cls-1" d="m63.67,15.58c.44.44,1.04.66,1.8.66,2.22,0,4.42-.14,6.59-.42.01-.01.07-.02.15-.02.26-.03.53-.14.79-.33.13-.09.25-.13.35-.13.25,0,.53.16.85.48.23.23.36.45.39.63.03.15-.06.29-.26.44-.12.09-.27.34-.46.77-.91,2.48-2.25,4.59-4.03,6.33-1.78,1.74-4.2,2.97-7.27,3.7l-.2-.26c3.01-1.18,5.35-2.76,7.04-4.74,1.69-1.98,2.84-4.05,3.45-6.21-3.68.39-6.1.7-7.27.92-.15.03-.29.04-.44.04-.83,0-1.4-.57-1.71-1.71l.22-.15Zm12.35-2.89c.31,0,.59.07.85.2.6.34.9.84.9,1.51,0,.31-.08.58-.24.83-.32.6-.83.9-1.51.9-.36,0-.7-.11-1.01-.33-.47-.36-.7-.83-.7-1.4,0-.5.18-.91.55-1.25.32-.31.71-.46,1.16-.46Zm.02.63c-.2,0-.39.06-.57.18-.35.2-.53.5-.53.9,0,.28.1.53.31.75.2.22.46.33.77.33.2,0,.37-.04.5-.11.39-.19.59-.51.59-.96,0-.29-.11-.55-.33-.77-.22-.2-.47-.31-.74-.31Z"/>
        <path class="cls-1" d="m84.1,17.83c.42.38,1.12.57,2.08.57,2.6,0,4.7-.13,6.31-.39.39-.06.72-.17.96-.33.15-.09.26-.13.35-.13.2,0,.42.16.65.47.23.31.34.59.34.82,0,.16-.1.29-.28.37-.2.12-.45.5-.72,1.16-.96,2.12-2.23,3.74-3.79,4.86-1.56,1.12-3.46,1.97-5.69,2.54l-.22-.31c2.47-.93,4.44-2.11,5.91-3.53s2.51-3.17,3.11-5.28c-4.07.42-6.4.69-6.99.81-.22.04-.42.07-.61.07-.73,0-1.27-.53-1.62-1.6l.22-.11Zm1.71-3.31c.48.35,1.1.53,1.86.53,1.74,0,3.01-.19,3.81-.57.16-.07.32-.11.48-.11.25,0,.53.12.83.35.28.22.42.41.42.57,0,.25-.19.37-.57.37h-.18c-.15-.01-.47-.02-.96-.02-1.48,0-2.72.12-3.74.35-.21.04-.39.07-.57.07-.67,0-1.21-.47-1.62-1.4l.24-.13Z"/>
        <path class="cls-1" d="m102.24,15.73c1.4.23,2.47.61,3.2,1.14.53.37.79.79.79,1.27,0,.51-.23.77-.7.77-.22,0-.38-.09-.48-.29-.61-1.08-1.61-1.96-3-2.65l.2-.24Zm.22,8.01c.45.35.82.53,1.09.55.73.03,2.02-.53,3.85-1.66,2.5-1.68,5.09-4.3,7.77-7.86l.26.31c-2.35,4.48-5.91,7.94-10.69,10.38-.15.07-.38.17-.7.28-.18.04-.31.07-.42.07-.5-.03-.93-.63-1.31-1.82l.13-.24Z"/>
        <path class="cls-1" d="m122.43,15.71c.77.09,1.16.26,1.16.53,0,.17-.31.37-.94.57v12.15h-1.2v-10.82c-.58,1.26-1.31,2.5-2.19,3.72l-.46-.35c1.8-3.02,3.07-7.03,3.83-12.02,1.34.29,2.01.58,2.01.85,0,.17-.28.32-.85.44-.39,1.88-.85,3.53-1.36,4.93Zm5.06.48c-.26,1.05-.61,2.04-1.05,2.98,1.63.55,2.45,1.19,2.45,1.91,0,.5-.23.74-.68.74-.29,0-.5-.19-.61-.57-.16-.55-.62-1.1-1.38-1.64-.64,1.24-1.47,2.44-2.47,3.59l-.44-.35c2.12-2.96,3.36-6.61,3.72-10.95h-2.87l-.2-.55h6.44l1.03-1.42c.42.45.88.96,1.36,1.53l-.24.44h-4.23c-.25,1.8-.45,3-.61,3.61-.01.01-.03.04-.04.07,0,.03,0,.06-.02.09h2.47l.81-1.05c.86.69,1.29,1.14,1.29,1.36,0,.1-.09.2-.26.28l-.44.26c-.58,2.99-1.41,5.4-2.47,7.23-1.12,2-2.8,3.73-5.04,5.19l-.37-.44c3.52-2.82,5.71-6.92,6.57-12.31h-2.72Zm5.45,8.01v-11.8c1.4.07,2.1.26,2.1.57,0,.19-.29.38-.88.57v10.66h-1.23Zm.15,2.56c1.14.13,2.06.2,2.76.2.5,0,.74-.23.74-.7V9.71c1.42.09,2.12.3,2.12.64,0,.17-.27.36-.81.55v16.03c0,1.24-.72,1.85-2.15,1.84,0-.47-.23-.79-.68-.96-.32-.13-.99-.28-1.99-.44v-.59Z"/>
      </g>
      <g>
        <g>
          <path class="cls-4" d="m387.9,235.36v1.7h1.99c.8,0,1.59-.02,2.36-.05.08,0,.12.07.13.19.01.13.02.27.02.4s0,.27-.02.4c0,.13-.06.19-.15.19h-.06c-.97-.02-1.73-.03-2.28-.03h-2v1.62c0,.3.1.49.29.57.24.08.63.12,1.17.12.78,0,1.41-.04,1.89-.13.09,0,.13.05.13.16.02.19.03.47.03.85,0,.09-.02.15-.05.18-.03.02-.08.04-.16.04-.46.06-1.13.09-1.99.09-.82,0-1.44-.1-1.86-.29-.47-.22-.71-.65-.71-1.31v-1.91h-.69c-.66,0-1.4.02-2.23.05-.11,0-.17-.06-.18-.2-.01-.07-.03-.41-.07-1.02.52.04,1.36.06,2.5.06h.68v-1.7c-.99,0-1.62,0-1.86.02-.12,0-.18-.06-.18-.19-.03-.29-.04-.62-.04-1,.43.04,1.16.05,2.19.05h2.16c.64,0,1.34-.01,2.11-.04.11,0,.16.06.16.18.01.34.02.61.02.79,0,.12-.06.18-.18.18h-2.12s-.98-.01-.98-.01Z"/>
          <path class="cls-4" d="m399.37,237.43c-.03.65-.1,1.19-.2,1.6-.09.38-.23.76-.43,1.14-.22.44-.52.85-.91,1.25-.32.32-.65.58-.97.78-.14.09-.24.13-.32.13-.08,0-.16-.04-.23-.11-.23-.23-.55-.42-.96-.57.58-.31,1.03-.62,1.36-.92.31-.29.57-.62.77-.99.2-.36.34-.73.42-1.1.06-.3.1-.7.13-1.2h-2.04c-.34,0-.88.02-1.61.06-.08.01-.13-.06-.14-.2-.06-.32-.08-.66-.08-1.03.4.04,1.01.05,1.82.05h4.82c.76,0,1.46-.02,2.09-.06.08,0,.11.07.11.21,0,.07.01.21.01.41s0,.34-.01.41c0,.12-.05.18-.16.18-.74-.03-1.42-.04-2.04-.04h-1.44Zm-3.9-3.66c.62.04,1.22.05,1.78.05h1.97c.74,0,1.34-.01,1.81-.04.09,0,.13.07.13.2.01.13.02.26.02.39s0,.26-.02.39c0,.14-.05.2-.14.2-.57-.02-1.17-.03-1.8-.03h-1.97c-.22,0-.72.01-1.52.04-.11,0-.17-.06-.18-.18-.01-.1-.02-.27-.04-.5-.02-.24-.03-.42-.04-.52Zm5.78-.35l.61-.35s.04-.02.06-.02c.03,0,.06.02.09.05.33.3.63.72.91,1.24.01.02.02.05.02.07,0,.04-.02.07-.07.1l-.48.29s-.05.02-.07.02c-.04,0-.07-.02-.1-.07-.29-.55-.61-1-.96-1.34Zm1.05-.61l.58-.33s.05-.02.06-.02c.02,0,.05.02.09.06.38.36.68.76.91,1.2.01.03.02.05.02.08,0,.04-.02.08-.07.12l-.45.29s-.06.03-.08.03c-.04,0-.08-.03-.1-.08-.26-.51-.58-.95-.96-1.33Z"/>
          <path class="cls-4" d="m406.73,234.79c.69.08,1.14.16,1.36.24.12.03.17.1.17.19,0,.04-.01.08-.03.14-.09.17-.13.41-.13.73-.02,1.29-.21,2.33-.58,3.15-.31.74-.82,1.42-1.52,2.02-.12.09-.21.14-.28.14-.06,0-.12-.03-.2-.08-.25-.17-.55-.33-.91-.45.84-.64,1.43-1.35,1.78-2.14.17-.42.29-.83.35-1.24.07-.43.1-1.03.1-1.79,0-.33-.03-.63-.1-.9Zm3.74,4.77c.48-.25.99-.59,1.52-1,.74-.57,1.36-1.17,1.87-1.82.04.38.15.74.33,1.08.04.1.06.16.06.18,0,.07-.05.16-.16.27-.53.54-1.06,1.01-1.59,1.41-.61.47-1.25.9-1.91,1.29-.1.07-.2.14-.31.23-.07.06-.14.08-.22.08-.06,0-.13-.03-.23-.08-.21-.14-.42-.36-.64-.65-.06-.1-.09-.17-.09-.23s.01-.11.04-.16c.04-.08.06-.35.06-.82v-3.36c0-.91-.04-1.54-.11-1.87.68.09,1.13.16,1.35.23.13.03.19.09.19.18,0,.07-.03.16-.08.27-.07.13-.1.53-.1,1.19v3.58Z"/>
          <path class="cls-4" d="m416.38,235.96l-1.01.02c-.07,0-.11-.04-.11-.12v-.76c0-.08.04-.11.11-.11l1.01.02h.21v-.71c0-.63-.03-1.11-.08-1.44.4.01.74.04,1.03.07.12.02.18.06.18.12,0,.07-.02.14-.06.23-.04.1-.06.44-.06,1.01v.72l.83-.02c.07,0,.11.04.11.11v.76c0,.08-.04.12-.11.12-.01,0-.1,0-.26,0-.17,0-.35-.01-.56-.02.25.71.63,1.36,1.15,1.97-.15.21-.29.45-.4.72-.06.12-.09.18-.12.18-.03,0-.08-.06-.14-.17-.25-.45-.43-.87-.54-1.28,0,1.2.02,2.45.04,3.75,0,.29.02.65.03,1.08,0,.2,0,.32,0,.34,0,.06,0,.09-.03.1-.01.01-.05.02-.1.02h-.83c-.06,0-.09,0-.1-.02s-.02-.04-.02-.09c0-.03,0-.28.02-.76.03-1.47.05-2.81.06-4.03-.23.81-.56,1.59-.99,2.34-.07.12-.12.17-.16.17-.03,0-.07-.06-.12-.19-.09-.31-.21-.56-.37-.77.75-1.05,1.26-2.17,1.53-3.37h-.14Zm8.86,5.3c-.21.22-.36.45-.45.7-.06.16-.11.24-.16.24s-.13-.04-.26-.12c-.93-.58-1.69-1.27-2.29-2.05,0,.53.02,1.12.04,1.76l.03.75c0,.06,0,.09-.02.11-.01,0-.05.02-.09.02h-.9c-.06,0-.1,0-.12-.02-.01-.01-.02-.05-.02-.1,0-.03,0-.17.02-.43.04-.77.06-1.46.07-2.05-.64.84-1.43,1.55-2.37,2.12-.12.08-.2.12-.24.12-.05,0-.11-.08-.19-.24-.09-.17-.25-.37-.48-.59,1.09-.47,2.01-1.15,2.75-2.04h-.17l-1.39.02c-.08,0-.12-.04-.12-.1l.02-1.04v-1.62l-.02-1.02c0-.06,0-.09.02-.1.01-.01.05-.02.09-.02l1.39.02h.67v-.72h-1.05l-1.47.04c-.07,0-.1-.04-.1-.14v-.73c0-.06,0-.1.02-.12.01-.01.04-.02.08-.02l1.47.02h1.05c0-.35-.02-.72-.07-1.1.42.01.78.04,1.08.07.12.01.17.06.17.13,0,.04-.02.11-.07.21-.05.11-.07.34-.07.69h1.31l1.47-.02c.05,0,.08,0,.09.02.01.02.02.05.02.11v.73c0,.09-.04.14-.11.14l-1.47-.04h-1.31v.72h.8l1.39-.02c.06,0,.09,0,.1.02s.02.05.02.1l-.02,1.02v1.62l.02,1.04c0,.07-.04.1-.12.1l-1.39-.02h-.33c.65.69,1.54,1.3,2.68,1.83Zm-5.36-4.13h1.21v-.77h-1.21v.77Zm0,1.51h1.21v-.77h-1.21v.77Zm3.51-2.28h-1.32v.77h1.32v-.77Zm0,2.28v-.77h-1.32v.77h1.32Z"/>
        </g>
        <g>
          <path class="cls-4" d="m395.97,246.06h2.1c.75,0,1.29.15,1.62.44.26.23.39.58.39,1.02,0,.36-.12.66-.36.89-.2.2-.47.33-.81.39v.05c.46.08.81.25,1.05.53.2.24.3.54.3.89,0,.56-.2.99-.61,1.28-.36.26-.85.39-1.47.39h-2.2v-5.88Zm1,.77v1.65h.9c.42,0,.73-.09.94-.26.17-.15.26-.34.26-.59,0-.29-.09-.5-.28-.62-.18-.12-.45-.17-.82-.17h-.98Zm0,2.42v1.93h1.09c.41,0,.71-.1.91-.29.17-.17.25-.39.25-.68,0-.32-.13-.56-.38-.73-.23-.15-.53-.22-.91-.22h-.96Z"/>
          <g>
            <path class="cls-4" d="m402.16,249.34h-.78s-.05,0-.05,0c0,0,0-.03,0-.06v-.49s0-.06,0-.06c0,0,.02,0,.05,0h.78s3.89.01,3.89.01h.78s.05,0,.06,0c0,0,0,.03,0,.06v.49s0,.05,0,.06c0,0-.02,0-.06,0h-.78s-2.48-.01-2.48-.01c-.05.14-.12.29-.2.46h2.65c.05-.01.08.01.08.07l-.08.63c-.05.38-.12.7-.22.96-.07.2-.19.34-.36.42-.13.06-.31.09-.53.09-.24,0-.42,0-.55-.01-.1,0-.16-.02-.18-.04-.02-.02-.04-.08-.07-.17-.05-.18-.11-.33-.18-.45.34.04.64.05.88.05.19,0,.32-.08.37-.23.06-.18.11-.43.16-.75h-2.28c-.09.15-.16.26-.2.33-.02.03-.05.05-.08.05-.02,0-.04,0-.06,0l-.5-.11c-.07-.01-.1-.03-.1-.05,0-.01,0-.03.02-.05.27-.35.5-.75.7-1.19h-.68Zm2.87-2.81h.85s.06,0,.06,0c0,0,0,.03,0,.06v.5s-.01.66-.01.66v.52s-.01.06-.06.06h-.85s-1.88-.01-1.88-.01h-.85s-.07,0-.07-.05v-.52s.01-.66.01-.66v-.5s0-.06,0-.07c0,0,.03,0,.06,0h.85s1.88.01,1.88.01Zm.27,1.25v-.69h-2.41v.69h2.41Z"/>
            <path class="cls-4" d="m408.18,248.12h-.59s-.06,0-.06-.05v-.45s.02-.07.06-.07h.59s.13.01.13.01v-.41c0-.37-.02-.65-.05-.84.23,0,.43.02.6.04.07.01.11.04.11.07,0,.04-.01.08-.04.13-.02.06-.04.26-.04.59v.42h.49s.06,0,.06.05v.45s-.02.07-.06.07c0,0-.06,0-.15,0-.1,0-.21,0-.32,0,.14.41.37.8.67,1.15-.09.12-.17.26-.23.42-.03.07-.06.11-.07.11-.02,0-.05-.03-.08-.1-.14-.26-.25-.51-.32-.75,0,.7.01,1.43.02,2.19,0,.17,0,.38.02.63,0,.12,0,.18,0,.2,0,.03,0,.05-.02.06,0,0-.03,0-.06,0h-.49s-.05,0-.06-.01c0,0,0-.03,0-.05,0-.01,0-.16,0-.44.02-.86.03-1.64.03-2.35-.13.47-.33.93-.58,1.37-.04.07-.07.1-.09.1-.02,0-.04-.04-.07-.11-.05-.18-.12-.33-.21-.45.44-.61.73-1.27.9-1.96h-.08Zm5.17,3.09c-.12.13-.21.26-.26.41-.03.09-.07.14-.09.14s-.08-.02-.15-.07c-.54-.34-.99-.74-1.34-1.2,0,.31.01.65.02,1.03l.02.44s0,.05-.01.06c0,0-.03,0-.06,0h-.53s-.06,0-.07-.01c0,0,0-.03,0-.06,0-.02,0-.1.01-.25.02-.45.04-.85.04-1.2-.37.49-.83.9-1.38,1.24-.07.04-.12.07-.14.07-.03,0-.07-.05-.11-.14-.05-.1-.14-.22-.28-.34.64-.28,1.17-.67,1.61-1.19h-.91s-.07,0-.07-.05v-.61s.01-.94.01-.94v-.59s0-.05,0-.06c0,0,.03,0,.05,0h.81s.39.01.39.01v-.42h-.61l-.86.02s-.06-.03-.06-.08v-.42s0-.06.01-.07c0,0,.02,0,.05,0h.86s.61.01.61.01c0-.2-.01-.42-.04-.64.24,0,.46.02.63.04.07,0,.1.03.1.08,0,.02-.01.07-.04.12-.03.06-.04.2-.04.4h1.62s.05,0,.06,0c0,0,0,.03,0,.06v.42c0,.05-.02.08-.06.08l-.86-.02h-.76v.42h1.27s.06,0,.06,0c0,0,0,.03,0,.06v.59s-.01.94-.01.94v.61s-.01.06-.06.06h-.81s-.2-.01-.2-.01c.38.4.9.76,1.56,1.07Zm-3.13-2.41h.71v-.45h-.71v.45Zm0,.88h.71v-.45h-.71v.45Zm2.05-1.33h-.77v.45h.77v-.45Zm0,1.33v-.45h-.77v.45h.77Z"/>
          </g>
          <path class="cls-4" d="m394.65,245.77c-.76.64-1.39,1.81-1.39,3.22s.64,2.61,1.39,3.22v.04h-.42c-.71-.64-1.34-1.81-1.34-3.26s.63-2.62,1.34-3.26h.42v.04Z"/>
          <path class="cls-4" d="m414.11,252.22c.76-.64,1.39-1.81,1.39-3.22s-.64-2.61-1.39-3.22v-.04h.42c.71.64,1.34,1.81,1.34,3.26s-.62,2.62-1.34,3.26h-.42v-.04Z"/>
        </g>
      </g>
      <g>
        <path class="cls-4" d="m56.66,210.85l4.91,15.94h-2.9l-1.35-4.68h-4.89l-1.37,4.68h-2.63l4.88-15.94h3.35Zm.17,9.2l-.93-3.23c-.12-.46-.43-1.76-.94-3.92h-.18c-.34,1.49-.67,2.79-.98,3.9l-.86,3.25h3.9Z"/>
        <g>
          <path class="cls-4" d="m65.31,222.38l-1.08.02s-.06,0-.07-.01c0,0-.01-.04-.01-.08v-.67s0-.08.01-.08.03-.01.07-.01l1.08.02h5.36l1.08-.02s.07,0,.08.02c0,0,0,.04,0,.08v.67s0,.07-.01.08c0,0-.03.01-.08.01l-1.08-.02h-3.42c-.07.19-.16.4-.27.64h2.54l1.1-.02c.08,0,.11.04.11.11l-.1.87c-.06.52-.17.96-.3,1.32-.1.27-.27.46-.5.57-.18.08-.42.13-.72.13-.33,0-.58,0-.75-.02-.14,0-.22-.03-.25-.06-.03-.03-.06-.1-.09-.24-.07-.25-.15-.46-.25-.62.47.05.88.08,1.21.08.27,0,.44-.1.51-.31.08-.25.15-.59.21-1.03h-3.14c-.13.21-.22.36-.28.45-.03.05-.07.07-.11.07-.02,0-.05,0-.08-.01l-.69-.15c-.09-.02-.13-.04-.13-.08,0-.02,0-.04.03-.07.38-.49.7-1.04.96-1.64h-.93Zm3.95-3.87l1.17-.02s.08,0,.08.02c0,.01.01.04.01.09l-.02.69v.91l.02.71c0,.06-.03.08-.1.08l-1.17-.02h-2.58l-1.17.02c-.06,0-.1-.03-.1-.08l.02-.71v-.91l-.02-.69s0-.08.02-.09c.01,0,.04-.01.08-.01l1.17.02h2.58Zm.37,1.72v-.95h-3.31v.95h3.31Z"/>
          <path class="cls-4" d="m73.59,220.7l-.81.02c-.06,0-.09-.03-.09-.09v-.61c0-.06.03-.09.09-.09l.81.02h.17v-.57c0-.51-.02-.89-.07-1.16.32,0,.59.03.82.06.1.02.15.05.15.1,0,.05-.02.11-.05.18-.03.08-.05.35-.05.81v.58l.67-.02c.06,0,.09.03.09.09v.61c0,.06-.03.09-.09.09,0,0-.08,0-.21,0-.13,0-.28,0-.45-.01.2.57.51,1.09.92,1.58-.12.17-.23.36-.32.58-.04.1-.08.15-.09.15-.03,0-.06-.05-.11-.14-.2-.36-.34-.7-.44-1.03,0,.96.01,1.97.03,3.01,0,.24.01.53.02.87,0,.16,0,.25,0,.27,0,.04,0,.07-.02.08-.01,0-.04.01-.08.01h-.67s-.08,0-.08-.02c0-.01-.01-.04-.01-.08,0-.02,0-.22.01-.61.02-1.18.04-2.25.05-3.23-.18.65-.45,1.28-.8,1.88-.06.09-.1.14-.13.14-.03,0-.06-.05-.09-.16-.07-.25-.17-.45-.29-.62.6-.84,1.01-1.75,1.23-2.7h-.11Zm7.11,4.25c-.17.18-.29.36-.36.56-.05.13-.09.19-.13.19s-.11-.03-.21-.09c-.75-.47-1.36-1.02-1.84-1.65,0,.43.01.9.03,1.42l.02.61s0,.08-.02.08-.04.01-.08.01h-.72c-.05,0-.08,0-.09-.02,0-.01-.01-.04-.01-.08,0-.02,0-.14.02-.35.03-.62.05-1.17.05-1.65-.51.67-1.15,1.24-1.9,1.7-.1.06-.16.09-.19.09-.04,0-.09-.06-.16-.19-.07-.14-.2-.3-.39-.47.88-.38,1.61-.93,2.21-1.64h-.14l-1.12.02c-.06,0-.09-.03-.09-.08l.02-.83v-1.3l-.02-.82s0-.08.02-.08c.01,0,.04-.01.08-.01l1.12.02h.53v-.58h-.84l-1.18.03c-.06,0-.08-.04-.08-.11v-.58c0-.05,0-.08.02-.09,0,0,.03-.01.07-.01l1.18.02h.84c0-.28-.02-.58-.06-.89.34,0,.63.03.87.06.09.01.14.05.14.11,0,.03-.02.09-.06.17-.04.09-.05.27-.05.55h1.05l1.18-.02s.07,0,.08.02c0,.01.01.04.01.09v.58c0,.07-.03.11-.09.11l-1.18-.03h-1.05v.58h.64l1.11-.02s.08,0,.08.02c0,.01.01.04.01.08l-.02.82v1.3l.02.83c0,.06-.03.08-.1.08l-1.11-.02h-.27c.52.55,1.24,1.05,2.15,1.47Zm-4.31-3.32h.98v-.62h-.98v.62Zm0,1.21h.98v-.62h-.98v.62Zm2.82-1.83h-1.06v.62h1.06v-.62Zm0,1.83v-.62h-1.06v.62h1.06Z"/>
        </g>
      </g>
      <g>
        <path class="cls-4" d="m706.06,283.2l-2.6.63c-.38-2.17-1.46-3.26-3.24-3.26-1.26,0-2.24.56-2.92,1.69-.63,1.04-.95,2.45-.95,4.23,0,2.03.41,3.58,1.23,4.63.68.87,1.56,1.3,2.64,1.3,1.84,0,2.97-1.1,3.4-3.3l2.53.78c-.79,3.06-2.77,4.59-5.95,4.59-2.17,0-3.87-.79-5.08-2.36-1.08-1.4-1.62-3.27-1.62-5.61,0-2.69.7-4.75,2.1-6.19,1.18-1.22,2.72-1.82,4.6-1.82,1.67,0,3.03.47,4.08,1.42.89.81,1.49,1.9,1.79,3.28Z"/>
        <g>
          <path class="cls-4" d="m709.67,289.95l-1.04.02s-.06,0-.07-.01c0,0-.01-.03-.01-.08v-.65s0-.07.01-.08c0,0,.03-.01.07-.01l1.04.02h5.18l1.04-.02s.07,0,.08.02c0,0,0,.03,0,.08v.65s0,.07-.01.08c0,0-.03.01-.07.01l-1.04-.02h-3.31c-.07.18-.16.39-.26.62h2.46l1.07-.02c.07,0,.11.04.11.11l-.1.84c-.06.5-.16.93-.29,1.28-.1.26-.26.45-.48.55-.18.08-.41.12-.7.12-.32,0-.56,0-.73-.02-.13,0-.21-.03-.24-.06-.02-.02-.05-.1-.09-.23-.07-.24-.15-.44-.24-.6.46.05.85.07,1.17.07.26,0,.42-.1.49-.3.08-.24.15-.57.21-1h-3.04c-.12.2-.21.35-.27.44-.03.05-.06.07-.1.07-.02,0-.05,0-.08-.01l-.67-.14c-.09-.02-.13-.04-.13-.07,0-.02,0-.04.03-.07.36-.47.67-1,.93-1.59h-.9Zm3.82-3.75l1.13-.02s.07,0,.08.02c0,.01.01.04.01.08l-.02.67v.88l.02.69c0,.05-.03.08-.09.08l-1.13-.02h-2.5l-1.13.02c-.06,0-.09-.03-.09-.08l.02-.69v-.88l-.02-.67s0-.08.02-.09c.01,0,.04-.01.08-.01l1.13.02h2.5Zm.36,1.66v-.92h-3.21v.92h3.21Z"/>
          <path class="cls-4" d="m717.69,288.32l-.78.02c-.06,0-.08-.03-.08-.09v-.59c0-.06.03-.09.08-.09l.78.02h.17v-.55c0-.49-.02-.86-.07-1.12.31,0,.58.03.8.06.09.02.14.05.14.09,0,.05-.02.11-.05.17-.03.08-.05.34-.05.79v.56l.65-.02c.06,0,.08.03.08.09v.59c0,.06-.03.09-.08.09,0,0-.08,0-.2,0-.13,0-.27,0-.43-.01.19.55.49,1.06.89,1.53-.12.17-.22.35-.31.56-.04.09-.07.14-.09.14-.02,0-.06-.04-.11-.13-.19-.35-.33-.68-.42-.99,0,.93.01,1.9.03,2.91,0,.23.01.51.02.84,0,.16,0,.25,0,.26,0,.04,0,.07-.02.08-.01,0-.04.01-.08.01h-.65s-.07,0-.08-.02c0-.01-.01-.04-.01-.07,0-.02,0-.21.01-.59.02-1.14.04-2.18.04-3.13-.18.63-.43,1.24-.77,1.82-.05.09-.1.13-.13.13-.03,0-.06-.05-.09-.15-.07-.24-.17-.44-.29-.6.58-.82.98-1.69,1.19-2.62h-.11Zm6.89,4.12c-.16.17-.28.35-.35.54-.05.12-.09.18-.13.18s-.1-.03-.2-.09c-.72-.45-1.32-.98-1.78-1.59,0,.42.01.87.03,1.37l.02.59s0,.07-.02.08c-.01,0-.04.01-.07.01h-.7s-.08,0-.09-.02c0-.01-.01-.04-.01-.08,0-.02,0-.13.02-.34.03-.6.05-1.13.05-1.59-.49.65-1.11,1.2-1.84,1.64-.09.06-.16.09-.18.09-.04,0-.09-.06-.15-.18-.07-.14-.19-.29-.37-.46.85-.37,1.56-.9,2.14-1.58h-.13l-1.08.02c-.06,0-.09-.03-.09-.08l.02-.81v-1.26l-.02-.79s0-.07.02-.08c.01,0,.04-.01.07-.01l1.08.02h.52v-.56h-.81l-1.14.03c-.05,0-.08-.04-.08-.11v-.57s0-.08.02-.09c0,0,.03-.01.07-.01l1.14.02h.81c0-.27-.02-.56-.06-.86.33,0,.61.03.84.06.09.01.13.04.13.1,0,.03-.02.09-.06.17-.04.08-.05.26-.05.53h1.02l1.14-.02s.07,0,.07.02c0,.01.01.04.01.08v.57c0,.07-.03.11-.09.11l-1.14-.03h-1.02v.56h.62l1.08-.02s.07,0,.08.02c0,.01.01.04.01.08l-.02.79v1.26l.02.81c0,.05-.03.08-.09.08l-1.08-.02h-.26c.5.54,1.2,1.01,2.08,1.42Zm-4.17-3.21h.94v-.6h-.94v.6Zm0,1.18h.94v-.6h-.94v.6Zm2.73-1.77h-1.03v.6h1.03v-.6Zm0,1.77v-.6h-1.03v.6h1.03Z"/>
        </g>
      </g>
      <g>
        <path class="cls-4" d="m954.8,256.71h5.16c2.51,0,4.39.71,5.64,2.12,1.13,1.29,1.7,3.12,1.7,5.49,0,2.7-.8,4.74-2.39,6.1-1.33,1.14-3.1,1.71-5.31,1.71h-4.8v-15.42Zm2.66,2.07v11.29h2.09c1.67,0,2.92-.52,3.75-1.55.78-.96,1.16-2.36,1.16-4.17,0-3.71-1.59-5.56-4.78-5.56h-2.22Z"/>
        <g>
          <path class="cls-4" d="m970.67,267.87l-1.04.02s-.06,0-.07-.01c0,0-.01-.03-.01-.08v-.65s0-.07.01-.08c0,0,.03-.01.07-.01l1.04.02h5.18l1.04-.02s.07,0,.08.02c0,0,0,.03,0,.08v.65s0,.07-.01.08c0,0-.03.01-.07.01l-1.04-.02h-3.31c-.07.18-.16.39-.26.62h2.46l1.07-.02c.07,0,.11.04.11.11l-.1.84c-.06.5-.16.93-.29,1.28-.1.26-.26.45-.48.55-.18.08-.41.12-.7.12-.32,0-.56,0-.73-.02-.13,0-.21-.03-.24-.06-.02-.02-.05-.1-.09-.23-.07-.24-.15-.44-.24-.6.46.05.85.07,1.17.07.26,0,.42-.1.49-.3.08-.24.15-.57.21-1h-3.04c-.12.2-.21.35-.27.44-.03.05-.06.07-.1.07-.02,0-.05,0-.08-.01l-.67-.14c-.09-.02-.13-.04-.13-.07,0-.02,0-.04.03-.07.36-.47.67-1,.93-1.59h-.9Zm3.83-3.75l1.13-.02s.07,0,.08.02c0,.01.01.04.01.08l-.02.67v.88l.02.69c0,.05-.03.08-.09.08l-1.13-.02h-2.5l-1.13.02c-.06,0-.09-.03-.09-.08l.02-.69v-.88l-.02-.67s0-.08.02-.09c.01,0,.04-.01.08-.01l1.13.02h2.5Zm.36,1.66v-.92h-3.21v.92h3.21Z"/>
          <path class="cls-4" d="m978.69,266.24l-.78.02c-.06,0-.08-.03-.08-.09v-.59c0-.06.03-.09.08-.09l.78.02h.17v-.55c0-.49-.02-.86-.07-1.12.31,0,.58.03.8.06.09.02.14.05.14.09,0,.05-.02.11-.05.17-.03.08-.05.34-.05.79v.56l.65-.02c.06,0,.08.03.08.09v.59c0,.06-.03.09-.08.09,0,0-.08,0-.2,0-.13,0-.27,0-.43-.01.19.55.49,1.06.89,1.53-.12.17-.22.35-.31.56-.04.09-.07.14-.09.14-.02,0-.06-.04-.11-.13-.19-.35-.33-.68-.42-.99,0,.93.01,1.9.03,2.91,0,.23.01.51.02.84,0,.16,0,.25,0,.26,0,.04,0,.07-.02.08-.01,0-.04.01-.08.01h-.65s-.07,0-.08-.02c0-.01-.01-.04-.01-.07,0-.02,0-.21.01-.59.02-1.14.04-2.18.04-3.13-.18.63-.43,1.24-.77,1.82-.05.09-.1.13-.13.13-.03,0-.06-.05-.09-.15-.07-.24-.17-.44-.29-.6.58-.82.98-1.69,1.19-2.62h-.11Zm6.89,4.12c-.16.17-.28.35-.35.54-.05.12-.09.18-.13.18s-.1-.03-.2-.09c-.72-.45-1.32-.98-1.78-1.59,0,.42.01.87.03,1.37l.02.59s0,.07-.02.08c-.01,0-.04.01-.07.01h-.7s-.08,0-.09-.02c0-.01-.01-.04-.01-.08,0-.02,0-.13.02-.34.03-.6.05-1.13.05-1.59-.49.65-1.11,1.2-1.84,1.64-.09.06-.16.09-.18.09-.04,0-.09-.06-.15-.18-.07-.14-.19-.29-.37-.46.85-.37,1.56-.9,2.14-1.58h-.13l-1.08.02c-.06,0-.09-.03-.09-.08l.02-.81v-1.26l-.02-.79s0-.07.02-.08c.01,0,.04-.01.07-.01l1.08.02h.52v-.56h-.81l-1.14.03c-.05,0-.08-.04-.08-.11v-.57s0-.08.02-.09c0,0,.03-.01.07-.01l1.14.02h.81c0-.27-.02-.56-.06-.86.33,0,.61.03.84.06.09.01.13.04.13.1,0,.03-.02.09-.06.17-.04.08-.05.26-.05.53h1.02l1.14-.02s.07,0,.07.02c0,.01.01.04.01.08v.57c0,.07-.03.11-.09.11l-1.14-.03h-1.02v.56h.62l1.08-.02s.07,0,.08.02c0,.01.01.04.01.08l-.02.79v1.26l.02.81c0,.05-.03.08-.09.08l-1.08-.02h-.26c.5.54,1.2,1.01,2.08,1.42Zm-4.17-3.21h.94v-.6h-.94v.6Zm0,1.18h.94v-.6h-.94v.6Zm2.73-1.77h-1.03v.6h1.03v-.6Zm0,1.77v-.6h-1.03v.6h1.03Z"/>
        </g>
      </g>
    </g>
  </g>
</svg>