<?xml version="1.0" encoding="UTF-8"?>
<svg id="_レイヤー_2" data-name="レイヤー 2" xmlns="http://www.w3.org/2000/svg" viewBox="0 0 110.95 64.11">
  <defs>
    <style>
      .cls-1 {
        fill: #231815;
      }
    </style>
  </defs>
  <g id="_レイヤー_1-2" data-name="レイヤー 1">
    <g>
      <path class="cls-1" d="m40.49,17.51v9.22h8.92l1.9-2.53c.91.87,1.7,1.74,2.36,2.63l-.4.73h-27.04l-.37-.83h12.55v-9.22h-9.16l-.4-.83h9.56v-8.02h-11.49l-.37-.8h21.91l1.8-2.36c.93.89,1.73,1.73,2.4,2.53l-.43.63h-11.75v8.02h6.06l1.67-2.23c.78.62,1.54,1.41,2.3,2.36l-.4.7h-9.62ZM34.7.03c2,.84,3.63,1.83,4.9,2.96,1.07,1,1.6,1.89,1.6,2.66,0,.84-.4,1.27-1.2,1.27-.44,0-.83-.37-1.17-1.1-.89-1.91-2.41-3.61-4.56-5.09l.43-.7Z"/>
      <path class="cls-1" d="m67.06,23.24c-.51.51-.98,1-1.4,1.47l-1.76-.7c1.69-1.75,3.24-3.58,4.66-5.49h-9.16l-.3-.8h10.09l.13-.2c.84-1.15,1.58-2.31,2.2-3.46,1.73.51,2.6.94,2.6,1.3,0,.29-.49.46-1.46.5-.38.64-.77,1.27-1.17,1.86h12.95l1.73-2.06c.84.67,1.63,1.4,2.36,2.2l-.37.67h-6.83c-1.07,2.11-2.46,4.03-4.2,5.76.09.04.25.1.5.17.31.07.52.11.63.13,5.66,1.35,8.49,2.6,8.49,3.73,0,.69-.31,1.03-.93,1.03-.25,0-.81-.22-1.7-.67-2.02-1.04-4.75-2.1-8.19-3.16-3.13,2.55-8.39,3.88-15.78,4l-.4-.83c6.5-.4,11.23-1.65,14.19-3.76-2-.6-4.3-1.15-6.89-1.67Zm-2.3-16.35h4.5v-3.9h-9.49l-.4-.8h24.77l1.76-2.2c.87.69,1.73,1.49,2.6,2.4l-.33.6h-10.39v3.9h4.86l1.2-1.47c1.35,1.04,2.03,1.72,2.03,2.03,0,.11-.11.26-.33.43l-.8.43v6.93h-1.83v-1.5h-18.48v1.83h-1.86V6.03c.6.18,1.33.47,2.2.87Zm-.33.83v5.19h4.83v-5.19h-4.83Zm3.23,14.78c2.6.36,5.09.8,7.49,1.33,1.55-1.58,2.85-3.35,3.9-5.33h-8.19c-1,1.42-2.06,2.75-3.2,4Zm3.46-15.62h4.83v-3.9h-4.83v3.9Zm0,.83v5.19h4.83v-5.19h-4.83Zm11.79,5.19v-5.19h-5.13v5.19h5.13Z"/>
      <path class="cls-1" d="m10.82,54.55c-1.42-1.02-3.09-1.95-5-2.8l.33-.47c1.73.38,3.54,1.07,5.43,2.06.95-1.51,1.74-3.15,2.36-4.93.29-.73.43-1.3.43-1.7,0-.55-.37-1.11-1.1-1.67l.27-.27c2.09.36,3.13,1,3.13,1.93,0,.24-.08.54-.23.9-.11.16-.3.57-.57,1.23-.87,2.04-1.79,3.83-2.76,5.36,2.22,1.33,3.33,2.48,3.33,3.43,0,.82-.31,1.23-.93,1.23-.31,0-.65-.28-1.03-.83-.67-.98-1.44-1.8-2.33-2.46-2.73,3.66-6.65,6.5-11.75,8.52l-.4-.4c4.95-2.6,8.56-5.65,10.82-9.16Z"/>
      <path class="cls-1" d="m28.64,47.36c2.13.36,3.75.93,4.86,1.73.8.56,1.2,1.2,1.2,1.93,0,.78-.36,1.17-1.07,1.17-.33,0-.58-.14-.73-.43-.93-1.64-2.45-2.99-4.56-4.03l.3-.37Zm.33,12.19c.69.53,1.24.81,1.67.83,1.11.04,3.06-.8,5.86-2.53,3.8-2.55,7.74-6.54,11.82-11.95l.4.47c-3.57,6.82-8.99,12.08-16.25,15.78-.22.11-.58.26-1.07.43-.27.07-.48.1-.63.1-.75-.04-1.42-.97-2-2.76l.2-.37Z"/>
      <path class="cls-1" d="m55.21,60.24c3.71-2.02,6.66-4.64,8.86-7.86.82-1.22,1.3-2.09,1.43-2.6.11-.42-.19-.89-.9-1.4l.3-.27c2.18.51,3.15,1.22,2.93,2.13-.07.22-.36.72-.87,1.5-2.95,4.17-6.79,7.17-11.52,8.99l-.23-.5Zm16.68-12.02c1.02.27,2.5,1.4,4.43,3.4,1.71,1.73,2.66,3.25,2.86,4.56.16,1.04-.14,1.63-.9,1.76-.49.07-.93-.33-1.33-1.2-1.73-3.97-3.54-6.68-5.43-8.12l.37-.4Zm1.8-2.86c2.15.2,3.63.97,4.43,2.3.22.56.05.9-.5,1.03-.38.09-.79-.17-1.23-.77-.69-.95-1.61-1.69-2.76-2.2l.07-.37Zm2-1.57c2.15-.18,3.74.32,4.76,1.5.31.51.21.88-.3,1.1-.36.16-.8-.03-1.33-.57-.87-.8-1.91-1.34-3.13-1.63v-.4Z"/>
      <path class="cls-1" d="m90.24,52.38c.69.78,1.87,1.17,3.53,1.17,7.86,0,12.63-.29,14.32-.87.27-.11.51-.17.73-.17.49,0,.96.19,1.43.57.47.33.7.62.7.87,0,.42-.4.63-1.2.63-.07,0-.43-.01-1.1-.03-.73-.04-1.6-.07-2.6-.07-5.48,0-9.44.17-11.85.5-.71.11-1.22.17-1.53.17-1.33,0-2.23-.83-2.7-2.5l.27-.27Z"/>
    </g>
  </g>
</svg>