<?xml version="1.0" encoding="UTF-8"?>
<svg id="_レイヤー_2" data-name="レイヤー 2" xmlns="http://www.w3.org/2000/svg" xmlns:xlink="http://www.w3.org/1999/xlink" viewBox="0 0 1897.87 3040">
  <defs>
    <style>
      .cls-1 {
        letter-spacing: .05em;
      }

      .cls-2 {
        letter-spacing: -.06em;
      }

      .cls-3 {
        letter-spacing: -.05em;
      }

      .cls-4 {
        letter-spacing: .03em;
      }

      .cls-5 {
        letter-spacing: .02em;
      }

      .cls-6 {
        letter-spacing: .03em;
      }

      .cls-7 {
        fill: #fff;
      }

      .cls-8 {
        letter-spacing: .01em;
      }

      .cls-9 {
        letter-spacing: -.04em;
      }

      .cls-10 {
        letter-spacing: .08em;
      }

      .cls-11 {
        letter-spacing: .04em;
      }

      .cls-12 {
        letter-spacing: -.02em;
      }

      .cls-13 {
        letter-spacing: .04em;
      }

      .cls-14 {
        letter-spacing: 0em;
      }

      .cls-15 {
        letter-spacing: .1em;
      }

      .cls-16 {
        letter-spacing: -.03em;
      }

      .cls-17 {
        letter-spacing: -.07em;
      }

      .cls-18 {
        letter-spacing: .1em;
      }

      .cls-19 {
        letter-spacing: 0em;
      }

      .cls-20 {
        letter-spacing: -.43em;
      }

      .cls-21 {
        letter-spacing: -.06em;
      }

      .cls-22 {
        letter-spacing: -.45em;
      }

      .cls-23 {
        letter-spacing: -.43em;
      }

      .cls-24 {
        letter-spacing: 0em;
      }

      .cls-25 {
        letter-spacing: .05em;
      }

      .cls-26 {
        letter-spacing: -.02em;
      }

      .cls-27 {
        letter-spacing: .03em;
      }

      .cls-28 {
        letter-spacing: .04em;
      }

      .cls-29 {
        letter-spacing: .08em;
      }

      .cls-30 {
        fill: #040000;
        font-family: YuGothic-Medium, 'Yu Gothic';
        font-size: 16px;
        font-weight: 500;
      }

      .cls-31 {
        letter-spacing: 0em;
      }

      .cls-32 {
        letter-spacing: -.02em;
      }

      .cls-33 {
        letter-spacing: 0em;
      }

      .cls-34 {
        letter-spacing: .03em;
      }

      .cls-35 {
        letter-spacing: -.43em;
      }

      .cls-36 {
        letter-spacing: .08em;
      }

      .cls-37 {
        letter-spacing: .05em;
      }

      .cls-38 {
        letter-spacing: -.11em;
      }

      .cls-39 {
        letter-spacing: -.03em;
      }

      .cls-40 {
        letter-spacing: .03em;
      }

      .cls-41 {
        letter-spacing: -.19em;
      }

      .cls-42 {
        letter-spacing: -.06em;
      }

      .cls-43 {
        letter-spacing: .04em;
      }

      .cls-44 {
        letter-spacing: .07em;
      }

      .cls-45 {
        letter-spacing: .06em;
      }

      .cls-46 {
        letter-spacing: -.06em;
      }

      .cls-47 {
        letter-spacing: .04em;
      }

      .cls-48 {
        letter-spacing: 0em;
      }

      .cls-49 {
        letter-spacing: .06em;
      }

      .cls-50 {
        letter-spacing: -.03em;
      }

      .cls-51 {
        letter-spacing: .08em;
      }

      .cls-52 {
        letter-spacing: .03em;
      }

      .cls-53 {
        letter-spacing: .02em;
      }

      .cls-54 {
        letter-spacing: .08em;
      }

      .cls-55 {
        letter-spacing: -.09em;
      }

      .cls-56 {
        letter-spacing: .04em;
      }

      .cls-57 {
        letter-spacing: -.09em;
      }

      .cls-58 {
        letter-spacing: .04em;
      }

      .cls-59 {
        letter-spacing: -.11em;
      }

      .cls-60 {
        letter-spacing: .08em;
      }

      .cls-61 {
        letter-spacing: .07em;
      }

      .cls-62 {
        letter-spacing: .04em;
      }

      .cls-63 {
        letter-spacing: 0em;
      }

      .cls-64 {
        letter-spacing: .01em;
      }

      .cls-65 {
        letter-spacing: .01em;
      }

      .cls-66 {
        letter-spacing: .05em;
      }

      .cls-67 {
        letter-spacing: .07em;
      }

      .cls-68 {
        letter-spacing: .01em;
      }

      .cls-69 {
        letter-spacing: .07em;
      }

      .cls-70 {
        letter-spacing: .04em;
      }

      .cls-71 {
        letter-spacing: -.02em;
      }

      .cls-72 {
        letter-spacing: -.04em;
      }

      .cls-73 {
        letter-spacing: -.04em;
      }

      .cls-74 {
        letter-spacing: .02em;
      }

      .cls-75 {
        letter-spacing: .02em;
      }

      .cls-76 {
        letter-spacing: 0em;
      }

      .cls-77 {
        letter-spacing: .07em;
      }

      .cls-78 {
        letter-spacing: -.11em;
      }

      .cls-79 {
        letter-spacing: .03em;
      }

      .cls-80 {
        letter-spacing: -.11em;
      }

      .cls-81 {
        letter-spacing: 0em;
      }

      .cls-82 {
        letter-spacing: -.04em;
      }

      .cls-83 {
        letter-spacing: -.12em;
      }

      .cls-84 {
        letter-spacing: .05em;
      }

      .cls-85 {
        letter-spacing: .03em;
      }

      .cls-86 {
        letter-spacing: 0em;
      }

      .cls-87 {
        letter-spacing: .09em;
      }

      .cls-88 {
        letter-spacing: .07em;
      }

      .cls-89 {
        letter-spacing: .07em;
      }

      .cls-90 {
        letter-spacing: 0em;
      }

      .cls-91 {
        letter-spacing: .05em;
      }

      .cls-92 {
        letter-spacing: -.1em;
      }

      .cls-93 {
        letter-spacing: .08em;
      }

      .cls-94 {
        letter-spacing: .06em;
      }

      .cls-95 {
        letter-spacing: .04em;
      }

      .cls-96 {
        letter-spacing: -.01em;
      }

      .cls-97 {
        letter-spacing: .11em;
      }

      .cls-98 {
        letter-spacing: -.02em;
      }

      .cls-99 {
        letter-spacing: -.01em;
      }

      .cls-100 {
        letter-spacing: -.06em;
      }

      .cls-101 {
        letter-spacing: -.02em;
      }

      .cls-102 {
        letter-spacing: .06em;
      }

      .cls-103 {
        letter-spacing: .07em;
      }

      .cls-104 {
        letter-spacing: -.07em;
      }

      .cls-105 {
        letter-spacing: -.05em;
      }

      .cls-106 {
        letter-spacing: .04em;
      }

      .cls-107 {
        letter-spacing: 0em;
      }

      .cls-108 {
        letter-spacing: .04em;
      }

      .cls-109 {
        letter-spacing: .06em;
      }

      .cls-110 {
        letter-spacing: -.11em;
      }

      .cls-111 {
        letter-spacing: .02em;
      }

      .cls-112 {
        letter-spacing: .05em;
      }

      .cls-113 {
        letter-spacing: -.04em;
      }

      .cls-114 {
        letter-spacing: .04em;
      }

      .cls-115 {
        clip-path: url(#clippath);
      }

      .cls-116 {
        letter-spacing: .06em;
      }

      .cls-117 {
        letter-spacing: .05em;
      }

      .cls-118 {
        letter-spacing: -.04em;
      }

      .cls-119 {
        letter-spacing: -.07em;
      }

      .cls-120 {
        letter-spacing: .02em;
      }

      .cls-121 {
        letter-spacing: .03em;
      }

      .cls-122 {
        letter-spacing: .03em;
      }

      .cls-123 {
        letter-spacing: .03em;
      }

      .cls-124 {
        letter-spacing: 0em;
      }

      .cls-125 {
        letter-spacing: .03em;
      }

      .cls-126 {
        letter-spacing: .01em;
      }

      .cls-127 {
        letter-spacing: .06em;
      }

      .cls-128 {
        letter-spacing: .01em;
      }

      .cls-129 {
        letter-spacing: -.06em;
      }

      .cls-130 {
        letter-spacing: -.03em;
      }

      .cls-131 {
        letter-spacing: -.07em;
      }

      .cls-132 {
        fill: none;
      }

      .cls-133 {
        letter-spacing: -.04em;
      }

      .cls-134 {
        letter-spacing: .02em;
      }

      .cls-135 {
        letter-spacing: -.06em;
      }

      .cls-136 {
        letter-spacing: .08em;
      }

      .cls-137 {
        letter-spacing: .05em;
      }

      .cls-138 {
        letter-spacing: -.02em;
      }

      .cls-139 {
        letter-spacing: 0em;
      }

      .cls-140 {
        letter-spacing: -.03em;
      }

      .cls-141 {
        letter-spacing: -.05em;
      }

      .cls-142 {
        letter-spacing: .07em;
      }

      .cls-143 {
        letter-spacing: 0em;
      }

      .cls-144 {
        letter-spacing: .06em;
      }

      .cls-145 {
        letter-spacing: .05em;
      }

      .cls-146 {
        letter-spacing: -.41em;
      }

      .cls-147 {
        letter-spacing: .08em;
      }

      .cls-148 {
        letter-spacing: .07em;
      }

      .cls-149 {
        letter-spacing: -.04em;
      }

      .cls-150 {
        letter-spacing: -.44em;
      }

      .cls-151 {
        letter-spacing: -.25em;
      }

      .cls-152 {
        letter-spacing: .08em;
      }

      .cls-153 {
        letter-spacing: -.04em;
      }

      .cls-154 {
        letter-spacing: .05em;
      }

      .cls-155 {
        letter-spacing: .03em;
      }

      .cls-156 {
        letter-spacing: -.02em;
      }

      .cls-157 {
        letter-spacing: .01em;
      }

      .cls-158 {
        letter-spacing: .04em;
      }

      .cls-159 {
        letter-spacing: .06em;
      }

      .cls-160 {
        letter-spacing: .02em;
      }

      .cls-161 {
        letter-spacing: .07em;
      }

      .cls-162 {
        letter-spacing: .09em;
      }

      .cls-163 {
        letter-spacing: -.01em;
      }

      .cls-164 {
        letter-spacing: -.42em;
      }

      .cls-165 {
        letter-spacing: .03em;
      }

      .cls-166 {
        letter-spacing: 0em;
      }

      .cls-167 {
        letter-spacing: -.44em;
      }

      .cls-168 {
        letter-spacing: .07em;
      }

      .cls-169 {
        letter-spacing: -.11em;
      }

      .cls-170 {
        fill: #231815;
      }

      .cls-171 {
        letter-spacing: .09em;
      }

      .cls-172 {
        letter-spacing: -.02em;
      }

      .cls-173 {
        letter-spacing: .04em;
      }

      .cls-174 {
        letter-spacing: .02em;
      }

      .cls-175 {
        letter-spacing: .02em;
      }

      .cls-176 {
        letter-spacing: .11em;
      }

      .cls-177 {
        letter-spacing: .03em;
      }

      .cls-178 {
        letter-spacing: -.04em;
      }

      .cls-179 {
        letter-spacing: -.13em;
      }

      .cls-180 {
        letter-spacing: -.07em;
      }

      .cls-181 {
        letter-spacing: 0em;
      }

      .cls-182 {
        letter-spacing: .07em;
      }

      .cls-183 {
        letter-spacing: -.03em;
      }

      .cls-184 {
        letter-spacing: .08em;
      }

      .cls-185 {
        letter-spacing: -.06em;
      }

      .cls-186 {
        letter-spacing: -.03em;
      }

      .cls-187 {
        letter-spacing: -.02em;
      }

      .cls-188 {
        letter-spacing: .07em;
      }

      .cls-189 {
        letter-spacing: -.06em;
      }

      .cls-190 {
        letter-spacing: .04em;
      }

      .cls-191 {
        letter-spacing: .02em;
      }

      .cls-192 {
        letter-spacing: .02em;
      }

      .cls-193 {
        letter-spacing: -.04em;
      }

      .cls-194 {
        letter-spacing: -.08em;
      }

      .cls-195 {
        letter-spacing: .06em;
      }

      .cls-196 {
        letter-spacing: 0em;
      }

      .cls-197 {
        letter-spacing: -.47em;
      }

      .cls-198 {
        letter-spacing: -.07em;
      }
    </style>
    <clipPath id="clippath">
      <rect class="cls-132" width="1897.87" height="3040"/>
    </clipPath>
  </defs>
  <g id="_レイヤー_1-2" data-name="レイヤー 1">
    <g>
      <g class="cls-115">
        <g>
          <path class="cls-170" d="m1436.08,1524.18h14.52c1.24-1.97,2.35-4.28,3.33-6.93,2.13.68,3.2,1.27,3.2,1.77,0,.29-.53.46-1.6.53-1.15,1.71-2.4,3.25-3.73,4.63h6.03l1.27-1.54c1.58,1.45,2.36,2.33,2.36,2.66,0,.15-.16.28-.47.39l-1.03.33c-.91,1.07-1.94,2.07-3.1,2.99l-.63-.46c.89-1.51,1.45-2.71,1.7-3.58h-21.78v.49c0,1.69-.31,3.02-.93,4.01-.51.77-1.03,1.15-1.56,1.15-.82,0-1.23-.39-1.23-1.18,0-.37.17-.69.5-.95,1.33-1.25,2.08-3.07,2.23-5.45l.77.07c.11.68.17,1.04.17,1.08Zm12.62,8.84c.33.18.5.35.5.53,0,.24-.46.48-1.37.72v1.94h9.42l1.73-2.27c.8.72,1.53,1.54,2.2,2.46l-.37.62h-12.89v6.87c0,1.69-1.17,2.55-3.5,2.6v-.03c0-.55-.28-.95-.83-1.22-.67-.33-2.09-.65-4.26-.95v-.89c2.44.22,4.28.33,5.53.33.75,0,1.13-.32,1.13-.95v-5.75h-13.02l-.37-.82h13.29v-3.84c.24.04.82.15,1.73.33l.2-.1c1.51-.92,2.84-1.92,4-2.99h-13.72l-.4-.85h14.25l1.37-1.31c1.58,1.25,2.36,2.02,2.36,2.3,0,.18-.18.3-.53.36l-.9.16c-1.49.96-3.34,1.88-5.56,2.76Zm-12.09-15.31c3.35,1.16,5.03,2.52,5.03,4.07,0,.83-.39,1.25-1.17,1.25-.44,0-.81-.35-1.1-1.05-.58-1.34-1.64-2.54-3.2-3.61l.43-.66Zm7.06-.53c2.95,1.42,4.43,2.91,4.43,4.47,0,.83-.39,1.25-1.17,1.25-.53,0-.89-.39-1.07-1.18-.36-1.29-1.25-2.61-2.7-3.94l.5-.59Z"/>
          <path class="cls-170" d="m1482.23,1535.05v8.81h9.02l1.86-2.43c.67.64,1.44,1.5,2.33,2.6l-.4.66h-28.17l-.33-.82h13.65v-8.81h-9.46l-.33-.82h9.79v-7.59h-7.39c-1.24,2.78-2.88,5.28-4.89,7.49l-.73-.49c2.71-3.79,4.56-8.51,5.56-14.16,2.22.55,3.33,1.04,3.33,1.48,0,.33-.5.57-1.5.72-.38,1.36-.83,2.74-1.37,4.14h6.99v-7.89c2.33.11,3.5.41,3.5.89,0,.31-.49.64-1.47.99v6.01h7.66l1.76-2.3c.84.81,1.6,1.63,2.26,2.46l-.4.66h-11.29v7.59h6.16l1.7-2.3c.75.7,1.49,1.5,2.2,2.4l-.4.72h-9.66Z"/>
          <path class="cls-170" d="m1410.36,1564.21c.67.66,1.58.99,2.73.99,3.37,0,6.71-.21,10.02-.62.02-.02.1-.03.23-.03.4-.04.8-.21,1.2-.49.2-.13.38-.2.53-.2.38,0,.81.24,1.3.72.36.35.55.67.6.95.04.22-.09.44-.4.66-.18.13-.41.51-.7,1.15-1.38,3.72-3.42,6.89-6.13,9.5s-6.39,4.46-11.05,5.55l-.3-.39c4.57-1.77,8.14-4.15,10.71-7.11,2.56-2.97,4.31-6.07,5.25-9.32-5.59.59-9.28,1.05-11.06,1.38-.22.04-.44.07-.67.07-1.26,0-2.13-.85-2.6-2.56l.33-.23Zm18.78-4.34c.47,0,.9.1,1.3.3.91.5,1.37,1.26,1.37,2.27,0,.46-.12.88-.37,1.25-.49.9-1.25,1.35-2.3,1.35-.56,0-1.07-.16-1.53-.49-.71-.55-1.07-1.25-1.07-2.1,0-.74.28-1.37.83-1.87.49-.46,1.08-.69,1.77-.69Zm.03.95c-.31,0-.6.09-.87.26-.53.31-.8.76-.8,1.35,0,.42.16.79.47,1.12s.7.49,1.17.49c.31,0,.57-.05.77-.16.6-.28.9-.77.9-1.45,0-.44-.17-.82-.5-1.15-.33-.31-.71-.46-1.13-.46Z"/>
          <path class="cls-170" d="m1459.08,1564.93c-3.46,4.75-8.28,8.9-14.45,12.45-.33.22-.61.46-.83.72-.24.26-.44.39-.6.39-.31,0-.64-.32-1-.95-.31-.55-.47-1.01-.47-1.38,0-.13.04-.31.13-.53.24-.53.37-2.28.37-5.26,0-2.17-.08-3.55-.23-4.14-.16-.61-.59-1.14-1.3-1.58l.3-.3c2.15.09,3.23.73,3.23,1.94,0,.18-.03.44-.1.79-.18,1.05-.33,3.03-.47,5.95l-.07,2.56c4.99-2.21,10.01-5.89,15.05-11.04l.43.36Z"/>
          <path class="cls-170" d="m1474.36,1568.71c-.09-3.02-.22-4.75-.4-5.19-.13-.48-.6-.91-1.4-1.28l.07-.36c2.33-.02,3.5.54,3.5,1.68,0,.15-.01.27-.03.36-.09.59-.13,1.74-.13,3.45v1.08c2.64-.53,4.95-1.04,6.93-1.54.67-.2,1.13-.42,1.4-.66.13-.17.28-.26.43-.26.24,0,.51.14.8.43.91.48,1.37.93,1.37,1.35,0,.22-.16.41-.47.56-.47.15-1.18.74-2.13,1.76s-2.81,2.62-5.56,4.81l-.43-.26c2.38-2.54,4.24-4.81,5.59-6.8-3.66.83-6.32,1.47-7.96,1.91v5.82c0,1.25.24,2.08.73,2.5.67.55,1.59.82,2.76.82,2.6,0,4.28-.14,5.06-.43.31-.11.63-.16.97-.16.49,0,.92.18,1.3.53.27.22.4.43.4.62,0,.66-2.09.99-6.26.99-2.46,0-4.2-.41-5.19-1.22-.58-.48-.95-1.17-1.13-2.07-.11-.48-.17-1.42-.17-2.83v-1.28l-.03-2.92-4.66,1.05c-.87.24-1.43.36-1.7.36-.91,0-1.74-.68-2.5-2.04l.43-.49c.62.53,1.32.79,2.1.79.82,0,2.93-.35,6.33-1.05Zm10.32-5.98c2.15.2,3.63.95,4.43,2.27.22.55.06.89-.5,1.02-.38.09-.79-.16-1.23-.76-.69-.94-1.61-1.66-2.76-2.17l.07-.36Zm2-1.54c2.15-.17,3.74.32,4.76,1.48.31.5.21.87-.3,1.08-.36.15-.8-.03-1.33-.56-.87-.79-1.91-1.33-3.13-1.61v-.39Z"/>
          <path class="cls-170" d="m1500.03,1564.43c2.13.35,3.75.92,4.86,1.71.8.55,1.2,1.18,1.2,1.91,0,.77-.36,1.15-1.07,1.15-.33,0-.58-.14-.73-.43-.93-1.62-2.45-2.95-4.56-3.98l.3-.36Zm.33,12.03c.69.53,1.24.8,1.67.82,1.11.04,3.06-.79,5.86-2.5,3.8-2.52,7.74-6.45,11.82-11.8l.4.46c-3.57,6.73-8.99,11.92-16.25,15.58-.22.11-.58.25-1.07.43-.27.07-.48.1-.63.1-.75-.04-1.42-.95-2-2.73l.2-.36Z"/>
        </g>
        <g>
          <path class="cls-170" d="m391.93,99.97c1.11.18,1.67.44,1.67.8,0,.27-.43.57-1.3.9v18.28h-1.96v-16.98c-1.35,2.26-2.8,4.33-4.33,6.19l-.63-.53c3.44-5.02,6.05-11.13,7.82-18.35,2.13.58,3.2,1.1,3.2,1.57,0,.29-.5.51-1.5.67-.82,2.6-1.81,5.08-2.96,7.46Zm13.35,7.99v9.39h6.53l1.67-2.43c.75.69,1.52,1.55,2.3,2.6l-.37.67h-21.01l-.37-.83h9.26v-9.39h-7.16l-.4-.83h7.56v-7.92h-8.09l-.37-.8h16.12l1.6-2.26c.91.87,1.63,1.68,2.16,2.43l-.33.63h-9.09v7.92h4.66l1.53-2.13c.75.69,1.45,1.45,2.1,2.3l-.33.67h-7.96Zm-4.79-17.61c3.64,1.84,5.46,3.63,5.46,5.36,0,.87-.39,1.3-1.17,1.3-.58,0-.99-.43-1.23-1.3-.56-1.62-1.75-3.16-3.6-4.63l.53-.73Z"/>
          <path class="cls-170" d="m433.98,95.64v-5.29c2.26.02,3.4.29,3.4.8,0,.29-.49.59-1.46.9v3.6h10.09l1.37-1.7c1.69,1.51,2.53,2.52,2.53,3.03,0,.2-.17.32-.5.37l-1.1.17c-.84,1.13-1.88,2.25-3.1,3.36l-.63-.47c.67-1.24,1.18-2.56,1.53-3.96h-21.68v.67c0,1.58-.28,2.86-.83,3.86-.44.89-.99,1.33-1.63,1.33-.33,0-.63-.14-.9-.43-.27-.24-.4-.5-.4-.77,0-.38.21-.77.63-1.17,1.18-1.24,1.84-3.14,2-5.69l.87.1c.11.51.18.94.2,1.3h9.62Zm-1.6,7.26c-3.31.8-6.52,1.44-9.62,1.93l-.4-.8c7.41-1.42,13.4-3.37,17.95-5.86,1.67.93,2.5,1.61,2.5,2.03,0,.18-.24.27-.73.27-.31,0-.69-.03-1.13-.1-2.22.8-4.41,1.49-6.56,2.06v6.13l10.42-1.43,1.6-2.5c.91.58,1.88,1.3,2.9,2.16l-.37.73-14.55,1.96v6.46c0,.58.19.93.57,1.07.4.16,2.06.23,4.99.23s4.54-.1,5.09-.3c.8-.29,1.39-2.04,1.76-5.26l.83.4c-.02.44-.03.93-.03,1.46,0,1.51.13,2.46.4,2.86.13.24.47.37,1,.37-.09,1.18-.68,1.83-1.76,1.96-1.13.2-3.39.3-6.76.3-4.17,0-6.59-.17-7.26-.5-.56-.33-.83-1.04-.83-2.13v-6.63l-11.22,1.5-.43-.83,11.65-1.56v-5.99Z"/>
          <path class="cls-170" d="m460.55,100v11.32c1.6-.49,3.2-1.01,4.79-1.56l.1.83c-3.13,1.58-6.27,2.93-9.42,4.06-.11.75-.31,1.13-.6,1.13-.49,0-.97-.95-1.43-2.86,2.18-.44,3.75-.8,4.73-1.07v-11.85h-4.33l-.27-.87h4.6v-8.52c2.15.11,3.23.39,3.23.83,0,.24-.47.56-1.4.93v6.76h1.6l1.46-2.13c.8.84,1.44,1.61,1.93,2.3l-.4.7h-4.6Zm7.83,1.67v13.82c0,.58.19.95.57,1.13.47.2,2.34.3,5.63.3,4.06,0,6.27-.27,6.63-.8.49-.71.87-2.43,1.13-5.16l.87.3c-.04,1.49-.07,2.35-.07,2.6,0,1.78.4,2.65,1.2,2.63-.07,1-.54,1.62-1.43,1.86-1.04.27-3.75.4-8.12.4s-6.79-.21-7.46-.63c-.58-.44-.87-1.31-.87-2.6v-13.25l-3.46,1.1-.53-.8,4-1.3v-8.79c2.11.04,3.16.29,3.16.73,0,.27-.41.59-1.23.97v6.49l4.46-1.43v-8.99c2.13.02,3.2.28,3.2.77,0,.29-.46.61-1.37.97v6.69l4.43-1.43,1.2-1.73c1.42.98,2.13,1.62,2.13,1.93,0,.16-.08.28-.23.37l-.83.63v10.19c0,1.78-1.01,2.64-3.03,2.6-.04-.69-.31-1.14-.8-1.37-.49-.2-1.18-.38-2.06-.53v-.83c1.02.13,1.96.2,2.83.2.8,0,1.2-.34,1.2-1.03v-9.56l-4.83,1.56v13.35h-1.83v-12.79l-4.46,1.43Z"/>
          <path class="cls-170" d="m410.01,142.1v.23c3.68,1.6,5.53,3.2,5.53,4.79,0,.76-.31,1.13-.93,1.13-.44,0-.82-.3-1.13-.9-.69-1.44-1.84-2.77-3.46-4v14.58h-1.9v-13.75c-1.4,1.49-3.01,2.92-4.83,4.3l-.57-.6c4-3.53,7.09-7.73,9.29-12.59h-8.62l-.3-.83h5v-6.23c2.15.09,3.23.38,3.23.87,0,.27-.47.56-1.4.87v4.5h2.06l1.2-1.6c1.38,1.2,2.06,1.96,2.06,2.3,0,.13-.11.26-.33.37l-.93.43c-1.24,2.33-2.56,4.37-3.96,6.13Zm8.99-11.75h9.12l1.33-1.53c1.35,1.07,2.03,1.78,2.03,2.13,0,.09-.07.19-.2.3l-.93.57v15.98h-1.86v-1.5h-2.1v8.39c0,.4.09.65.27.77.24.13.77.2,1.56.2,1.09,0,1.73-.23,1.93-.7.38-.84.63-2.51.77-4.99l.9.3c-.02.56-.03,1.14-.03,1.76,0,1.44.11,2.41.33,2.9.18.31.51.47,1,.47-.02.89-.3,1.44-.83,1.66-.6.24-1.81.37-3.63.37-2.02,0-3.23-.18-3.63-.53-.38-.31-.57-.92-.57-1.83v-8.76h-2.13c-.2,3.66-1.19,6.39-2.96,8.19-1.46,1.49-3.73,2.65-6.79,3.5l-.43-.77c5.39-1.89,8.14-5.53,8.22-10.92h-1.63v1.53h-1.83v-18.55c.58.24,1.28.6,2.1,1.07Zm-.27.87v3.86h9.76v-3.86h-9.76Zm9.76,4.66h-9.76v4.26h9.76v-4.26Zm0,5.09h-9.76v4.46h9.76v-4.46Z"/>
          <path class="cls-170" d="m444.7,137.27c-.22.27-.52.6-.9,1,2.15.6,3.23,1.35,3.23,2.26,0,.62-.3.93-.9.93-.36,0-.59-.14-.7-.43-.4-.84-1.12-1.59-2.16-2.23-.62.58-1.21,1.08-1.76,1.5,1.95.8,2.93,1.66,2.93,2.6,0,.64-.33.97-1,.97-.36,0-.62-.27-.8-.8-.22-.71-.81-1.45-1.76-2.23-.93.62-1.92,1.21-2.96,1.76l-.5-.6c3.37-2.24,5.83-5.02,7.36-8.32,1.8.38,2.7.72,2.7,1.03,0,.22-.44.42-1.33.6-.33.49-.59.88-.77,1.17h4.33l1.17-1.4c1.27,1.09,1.9,1.8,1.9,2.13,0,.13-.12.24-.37.33l-.77.3c-3.13,4.93-7.78,8.31-13.95,10.16l-.47-.73c5.68-2,9.84-5.33,12.49-9.99h-5Zm-7.39,19.21c3.13-1.78,5.57-4.08,7.33-6.93,1.84.71,2.76,1.31,2.76,1.8,0,.24-.53.37-1.6.37-2,2.24-4.64,4.03-7.92,5.36l-.57-.6Zm25.24-20.94c.38-.93.62-1.72.73-2.36h-21.94c-.07,1.53-.43,2.8-1.1,3.8-.51.71-1.02,1.07-1.53,1.07-.73,0-1.1-.37-1.1-1.1,0-.33.24-.74.73-1.23,1.11-.93,1.81-2.49,2.1-4.66l.83.13c.04.69.07,1.08.07,1.17h9.66v-4.2c2.18.07,3.26.33,3.26.8,0,.27-.46.56-1.37.87v2.53h10.26l1.27-1.56c1.6,1.51,2.4,2.45,2.4,2.83,0,.18-.14.29-.43.33l-1.07.17c-.42.53-1.12,1.23-2.1,2.1.55.53.83.92.83,1.17,0,.16-.11.27-.33.33l-.83.2c-1.15,1.22-2.46,2.36-3.93,3.43l.2.2c1.98,1.44,4.48,2.58,7.53,3.4-.6.42-1.13,1.01-1.6,1.76-3-1.13-5.37-2.5-7.13-4.1-2.13-1.93-3.74-4.42-4.83-7.46l.83-.33c.22.62.47,1.18.73,1.66h6.06l1.2-1.4.37.3.23.17Zm-9.39,13.15v6.93c0,1.49-1.1,2.23-3.3,2.23-.02-.58-.38-1.02-1.07-1.33-.64-.29-1.68-.53-3.1-.73v-.93c2.04.2,3.58.3,4.63.3.64,0,.97-.3.97-.9v-5.56h-10.32l-.3-.83h18.85l1.63-1.86c.78.56,1.54,1.24,2.3,2.06l-.37.63h-9.92Zm1.2-4.76l1.43-1.73c.93.73,1.61,1.37,2.03,1.9l-.4.67h-10.56l-.33-.83h7.83Zm3.9-3.13c1.09-1.24,1.92-2.42,2.5-3.53h-5.56c.84,1.33,1.86,2.51,3.06,3.53Zm-2,9.16c3.02.95,5.33,2,6.93,3.13,1.2.89,1.8,1.71,1.8,2.46s-.38,1.17-1.13,1.17c-.31,0-.61-.18-.9-.53-1.47-2-3.84-3.86-7.13-5.59l.43-.63Z"/>
        </g>
        <g>
          <path class="cls-7" d="m835.76,2860.47l-1.44.56c-1.13-3.34-3.3-5.01-6.51-5.01-2.03,0-3.61.53-4.73,1.59-.98.92-1.47,2.12-1.47,3.59,0,1.65.53,2.91,1.59,3.78.91.74,2.4,1.36,4.48,1.86l.87.21c3.25.78,5.43,1.82,6.56,3.14.85,1,1.28,2.42,1.28,4.24,0,2.25-.84,4-2.53,5.28-1.5,1.13-3.48,1.69-5.91,1.69s-4.25-.61-5.81-1.83c-1.37-1.07-2.37-2.55-3.01-4.44l1.47-.6c.52,1.94,1.53,3.39,3.02,4.36,1.23.81,2.67,1.21,4.32,1.21,2.42,0,4.23-.59,5.43-1.78.98-.97,1.47-2.24,1.47-3.83,0-1.73-.51-3.04-1.54-3.91-.99-.86-2.7-1.57-5.13-2.14l-.73-.17c-2.92-.71-4.92-1.69-6.02-2.94-.89-1.01-1.33-2.39-1.33-4.14,0-1.89.73-3.46,2.2-4.7,1.4-1.19,3.24-1.78,5.5-1.78,3.81,0,6.45,1.91,7.95,5.74Z"/>
          <path class="cls-7" d="m863.63,2861.56l-1.44.51c-1.12-4.03-3.57-6.05-7.35-6.05-2.73,0-4.91,1.18-6.53,3.55-1.48,2.16-2.22,4.98-2.22,8.44,0,3.98.95,7.08,2.85,9.31,1.57,1.85,3.54,2.77,5.9,2.77,3.95,0,6.47-2.08,7.55-6.24l1.44.67c-1.53,4.58-4.52,6.87-8.99,6.87-3.14,0-5.69-1.33-7.62-3.98-1.78-2.43-2.67-5.55-2.67-9.37,0-4.35,1.15-7.78,3.44-10.27,1.87-2.04,4.15-3.06,6.85-3.06,2.27,0,4.19.68,5.76,2.03,1.36,1.17,2.36,2.77,3.02,4.8Z"/>
          <path class="cls-7" d="m888.33,2855.19v1.26h-13.89v10.13h10.49v1.27h-10.49v11.83h14.13v1.26h-15.57v-25.75h15.33Z"/>
          <path class="cls-7" d="m915.57,2855.19v25.75h-1.9l-10.82-18.01c-.93-1.56-2.15-3.73-3.64-6.51h-.24l.07,7.09v17.43h-1.4v-25.75h2.2l10.65,17.67c1.37,2.28,2.59,4.48,3.67,6.61h.24c-.16-2.73-.24-5.22-.24-7.45v-16.83h1.4Z"/>
          <path class="cls-7" d="m942.38,2855.19v1.26h-13.89v10.13h10.49v1.27h-10.49v11.83h14.13v1.26h-15.57v-25.75h15.33Z"/>
          <path class="cls-7" d="m951.69,2855.19h8.02c3.05,0,5.3.65,6.75,1.95,1.2,1.07,1.79,2.56,1.79,4.46,0,1.75-.56,3.21-1.67,4.36-1,1.04-2.39,1.73-4.17,2.08l6.44,12.9h-1.66l-6.22-12.7c-.62.05-1.11.07-1.47.07h-6.37v12.63h-1.44v-25.75Zm1.44,1.26v10.63h6.27c4.9,0,7.35-1.82,7.35-5.45,0-1.87-.63-3.22-1.88-4.05-1.15-.75-2.91-1.13-5.26-1.13h-6.48Z"/>
          <path class="cls-7" d="m994.87,2855.19l-9.18,14.66v11.09h-1.44v-11.09l-8.89-14.66h1.67l6.75,11.3c.57.93.98,1.62,1.23,2.07l1.33-2.17,6.85-11.19h1.66Z"/>
        </g>
        <g>
          <path class="cls-7" d="m822.6,2892.72h-.26c-.16.95-.41,1.85-.76,2.71h1.24l.93-.03c.07,0,.11,0,.13.03.01.02.02.06.02.12l-.03,1.75v1.3l.03,2.3c0,.07,0,.11-.02.13-.02.02-.06.03-.12.03h-.87c-.07,0-.11,0-.12-.03-.01-.02-.02-.06-.02-.13v-.32h-1.13v1.09c0,.07,0,.11-.03.12s-.06.02-.13.02h-.87c-.07,0-.12,0-.13-.03-.01-.02-.02-.06-.02-.12l.03-2.35v-1.8c-.18.25-.37.5-.57.76-.1.12-.18.18-.23.18-.07,0-.12-.08-.15-.25-.06-.39-.17-.76-.34-1.12.99-1.09,1.63-2.56,1.91-4.39h-.08l-1.33.03c-.07,0-.11,0-.13-.03-.01-.02-.02-.05-.02-.11v-.95c0-.07.01-.11.03-.12.01-.01.05-.02.11-.02l1.33.03h1.59l1.33-.03c.07,0,.11,0,.12.03.01.02.02.05.02.11v.95c0,.07,0,.11-.03.12s-.06.02-.11.02l-1.33-.03Zm.15,3.85h-1.13v2.89h1.13v-2.89Zm.7,5.21c.87-.58,1.47-1.33,1.8-2.25.23-.64.38-1.52.43-2.64-.34,0-.65.01-.93.02-.19,0-.28,0-.29,0-.07,0-.11,0-.12-.03-.01-.02-.02-.05-.02-.11v-.98c0-.08,0-.12.03-.14.02-.01.06-.02.11-.02l1.24.03v-3.16c-.27,0-.52.01-.74.02-.15,0-.23,0-.23,0-.08,0-.13-.04-.13-.13v-.96c0-.1.04-.15.13-.15l1.65.03h2.88l1.65-.03c.07,0,.11,0,.12.03s.02.06.02.12v.96c0,.08-.05.13-.14.13-.01,0-.06,0-.15,0-.29,0-.61-.01-.95-.02v3.16l1.42-.03c.07,0,.11.01.12.03.01.02.02.06.02.13v.98c0,.06,0,.1-.02.12-.01.01-.05.02-.12.02-.02,0-.08,0-.18,0-.37,0-.78-.01-1.23-.02v3.73l.03,1.77c0,.07,0,.11-.03.13-.02.01-.06.02-.12.02h-1.08c-.08,0-.13-.05-.13-.15v-1.77s.01-3.73.01-3.73h-1.49c-.06,1.24-.2,2.2-.43,2.89-.31.99-.87,1.86-1.69,2.61-.13.14-.22.21-.27.21-.05,0-.15-.08-.3-.23-.26-.25-.55-.45-.86-.58Zm3.58-6.11h1.47v-3.16h-1.47v3.16Z"/>
          <path class="cls-7" d="m834.09,2901.46c1.32-.34,2.3-.76,2.94-1.26.58-.46.98-1.05,1.19-1.77h-1.42c-.86.03-1.43.04-1.73.07-.08,0-.12,0-.14-.03-.01-.02-.02-.06-.02-.12v-.98c-.01-.06,0-.09.02-.11.02-.01.06-.02.13-.02l.98.02c.22,0,.47,0,.74,0h1.62c.02-.21.03-.38.03-.51,0-.47-.03-.83-.08-1.08.52.03.98.07,1.35.12.17.03.26.08.26.18,0,.07-.03.15-.09.25-.06.08-.1.3-.11.65l-.03.36h1c.53-.02,1.03-.03,1.48-.04.25,0,.39,0,.4,0,.1,0,.15.05.15.14-.02.23-.03.66-.05,1.28l-.05,1.91s0,.08,0,.13c0,.18.04.31.11.38.1.09.37.14.82.14s.71-.09.82-.29c.1-.21.15-.65.17-1.32.29.16.61.27.96.35.14.04.22.07.25.1.03.03.05.08.05.16,0,.03,0,.11-.02.24-.08.84-.26,1.38-.55,1.62-.33.27-.93.41-1.79.41-.98,0-1.59-.1-1.83-.3-.25-.21-.37-.58-.36-1.12l.09-2.63-1.81.03c-.24,1.06-.74,1.92-1.5,2.59-.66.58-1.58,1.08-2.77,1.5-.14.05-.24.08-.29.08s-.1-.03-.13-.08c0,0-.05-.08-.14-.24-.13-.26-.35-.52-.66-.78Zm9.2-7.44c.24.13.51.23.82.29v-1.21h-8.44v1.48c0,.07,0,.11-.03.13s-.06.02-.12.02h-1.06c-.07,0-.11,0-.13-.03-.01-.02-.02-.06-.02-.12l.03-1.35v-.42l-.03-.71c0-.07,0-.11.03-.13s.06-.02.12-.02l1.7.03h2.93v-.38c0-.29-.03-.57-.1-.84.5.02.96.04,1.39.08.15.01.22.05.22.12,0,.06-.03.14-.09.25-.04.09-.06.23-.06.42v.35h3.14l1.7-.03c.07,0,.11,0,.13.03.01.02.02.06.02.12l-.03.61v.53l.03,1.35c0,.07,0,.11-.03.13s-.06.02-.11.02h-.82c-.05.62-.24,1.03-.56,1.21-.36.21-.93.31-1.71.31-.86,0-1.43-.08-1.7-.23-.21-.14-.31-.45-.31-.94v-.67c0-.46-.03-.82-.08-1.09.49.01.92.04,1.28.09.14.02.21.06.21.13,0,.09-.03.18-.09.26-.05.06-.07.3-.07.72v.17c0,.22.04.36.12.41.08.05.34.08.78.08.37,0,.62-.06.75-.18.12-.13.18-.45.2-.96Zm-5.36-.78c.47.18.82.34,1.07.47.14.08.21.16.21.24,0,.07-.06.15-.17.24-.08.07-.21.24-.39.51-.59.88-1.49,1.53-2.69,1.95-.14.05-.24.08-.3.08-.07,0-.17-.11-.29-.34-.19-.31-.38-.55-.58-.72.76-.21,1.34-.43,1.75-.67.41-.25.74-.55.99-.93.19-.28.32-.56.4-.82Z"/>
          <path class="cls-7" d="m860.65,2895.02c-.22.28-.41.6-.56.97-.08.22-.16.32-.22.32-.05,0-.15-.03-.3-.1-.94-.42-1.77-.88-2.48-1.38v.96c0,.07,0,.11-.03.12s-.06.02-.11.02l-1.47-.03h-2l-1.47.03c-.07,0-.11,0-.12-.03-.01-.02-.02-.05-.02-.11v-.99c-.71.52-1.5.99-2.35,1.4-.16.08-.26.12-.31.12-.06,0-.14-.11-.23-.32-.17-.35-.36-.64-.58-.86,2.19-.86,3.85-2.12,4.99-3.78.2-.29.35-.57.46-.84.53.07,1,.16,1.4.27.16.04.23.1.23.18,0,.1-.04.17-.13.21-.06.03-.12.06-.18.11,1.38,1.68,3.21,2.92,5.5,3.72Zm-9.62,3.31l-1.72.03c-.07,0-.12,0-.13-.03-.01-.02-.02-.05-.02-.11v-.98c0-.07,0-.11.03-.12.02-.01.06-.02.13-.02l1.72.03h6.93l1.72-.03c.07,0,.12,0,.13.03.01.02.02.05.02.11v.98c0,.06,0,.1-.02.12-.01.01-.06.02-.13.02l-1.72-.03h-4.01c-.32.79-.71,1.61-1.16,2.44,1.35-.08,2.69-.18,4.01-.32-.4-.49-.71-.85-.95-1.1-.04-.04-.06-.08-.06-.11,0-.04.04-.08.13-.13l.83-.43c.06-.03.11-.05.14-.05.04,0,.08.03.13.08.82.86,1.63,1.87,2.42,3.02.03.04.04.08.04.11,0,.04-.04.09-.11.13l-.9.59c-.08.05-.13.08-.15.08-.03,0-.07-.03-.11-.09-.17-.29-.39-.63-.65-1.02-1.68.21-4.02.43-7.02.66-.2.01-.36.05-.47.12-.06.05-.14.08-.22.08-.09,0-.15-.06-.18-.18-.08-.28-.17-.73-.27-1.34.2.02.41.03.63.03s.47,0,.79-.03h.42c.46-.89.84-1.73,1.14-2.53h-1.35Zm1.02-3.65c.15.02.63.03,1.43.03h2c.74,0,1.21,0,1.4-.03-.94-.68-1.75-1.47-2.46-2.38-.69.91-1.48,1.7-2.37,2.38Z"/>
          <path class="cls-7" d="m869.71,2893.61c-.33,2.41-.87,4.27-1.62,5.6-.57,1-1.31,1.5-2.22,1.5-.66,0-1.21-.33-1.66-.99-.42-.63-.63-1.41-.63-2.35,0-1.27.49-2.4,1.47-3.38,1.11-1.11,2.52-1.66,4.23-1.66s2.9.48,3.81,1.45c.76.81,1.14,1.83,1.14,3.06,0,2.35-1.33,3.93-4.01,4.74-.08.02-.14.03-.19.03-.13,0-.25-.09-.37-.27-.19-.29-.49-.56-.91-.82,1.34-.32,2.31-.76,2.92-1.34.67-.63,1-1.48,1-2.54,0-.87-.3-1.6-.91-2.2-.55-.55-1.22-.82-2-.82h-.05Zm-1.51.08c-.93.19-1.67.58-2.22,1.18-.68.76-1.02,1.56-1.02,2.41,0,.6.11,1.08.32,1.44.17.28.36.42.56.42.36,0,.68-.26.98-.79.32-.58.61-1.32.87-2.23.24-.83.41-1.63.51-2.42Z"/>
          <path class="cls-7" d="m883.45,2897.14l-1.76.03c-.07,0-.11,0-.13-.03s-.02-.05-.02-.11v-.04c-.15.23-.27.46-.35.68-.07.16-.12.23-.16.23s-.1-.07-.17-.21c-.25-.45-.46-.99-.63-1.6,0,1.46.02,2.99.06,4.6,0,.36.01.81.03,1.35,0,.25.01.38.01.41,0,.07-.01.11-.03.13-.01.01-.05.02-.11.02h-1.03c-.07,0-.11-.01-.12-.03-.01-.01-.02-.05-.02-.12,0-.01,0-.31.01-.89.03-1.71.06-3.3.06-4.77-.27,1-.63,1.88-1.09,2.62-.08.14-.15.21-.2.21s-.09-.07-.13-.21c-.13-.42-.28-.74-.46-.97.86-1.21,1.46-2.56,1.8-4.07h-.15l-1.19.03c-.07,0-.11-.01-.13-.03-.01-.02-.02-.06-.02-.13v-.9c0-.08,0-.12.03-.14.02-.01.06-.02.12-.02l1.19.03h.2v-.77c0-.77-.04-1.35-.11-1.74.48.01.9.04,1.26.09.14.03.21.08.21.15,0,.08-.03.17-.08.27-.05.12-.08.53-.08,1.22v.78l1.08-.03c.06,0,.1.01.11.03.01.02.02.06.02.13v.9c0,.08,0,.12-.03.14-.02.01-.05.02-.11.02l-1.05-.03c.32.92.73,1.72,1.25,2.41v-.6c0-.07,0-.11.03-.12.02-.01.06-.02.12-.02l1.76.03h.96v-.79h-.6l-1.62.03c-.07,0-.11,0-.12-.03-.01-.02-.02-.05-.02-.11v-.81c0-.08,0-.12.03-.14.02-.01.06-.02.11-.02l1.62.03h.6v-.78h-.78l-1.72.03c-.09,0-.14-.04-.14-.13v-.84c0-.07,0-.11.03-.12.02-.01.06-.02.11-.02l1.35.03c-.19-.41-.38-.77-.58-1.09-.03-.04-.04-.08-.04-.1,0-.04.04-.08.13-.12l.79-.3c.06-.02.11-.03.13-.03.03,0,.07.03.12.09.24.33.44.68.62,1.07.03.05.04.08.04.1,0,.04-.05.08-.15.12l-.7.26h1.94c.24-.46.41-.83.53-1.1.06-.15.11-.34.15-.57.41.08.79.16,1.12.26.14.04.21.1.21.18,0,.07-.04.14-.13.2-.08.05-.14.13-.18.24-.16.32-.31.59-.44.81h.08l1.7-.03c.08,0,.12,0,.13.03.02.02.03.05.03.11v.84c0,.06-.01.1-.03.11-.02.01-.06.02-.13.02l-1.7-.03h-1.25v.78h.93l1.62-.03c.07,0,.11,0,.12.03.01.02.02.06.02.13v.81c0,.07,0,.11-.03.12s-.06.02-.11.02l-1.62-.03h-.93v.79h1.59l1.75-.03c.08,0,.12,0,.13.03,0,.01.01.05.01.11v.86c0,.07,0,.11-.02.12-.01.01-.06.02-.13.02l-1.75-.03h-1.35c.25.51.52.99.83,1.43.26-.21.54-.47.83-.78.14-.14.24-.29.32-.45.32.21.59.42.83.63.1.08.15.16.15.22,0,.08-.06.13-.17.17-.1.03-.23.12-.39.25-.35.33-.65.6-.88.79.55.56,1.24,1.08,2.06,1.54-.27.24-.47.49-.62.76-.1.17-.17.26-.22.26-.03,0-.13-.06-.29-.17-1.22-.85-2.12-1.93-2.7-3.23,0,.37.02.9.04,1.58.01.48.02.81.02,1,0,.53-.14.9-.42,1.1-.22.16-.69.25-1.42.26-.22,0-.35-.02-.39-.06-.03-.03-.07-.15-.11-.34-.08-.29-.19-.57-.34-.83.36.03.66.05.93.05.2,0,.34-.03.4-.1.06-.06.08-.17.08-.32v-.91c-.79.5-1.57.93-2.35,1.3-.21.1-.35.19-.41.25-.06.08-.12.12-.18.12-.05,0-.1-.05-.15-.15-.16-.34-.31-.71-.45-1.1.32-.09.57-.18.75-.26.91-.38,1.84-.86,2.79-1.43v-1.59h-.96Zm-1.76.97c-.05-.03-.08-.07-.08-.1s.03-.08.09-.14l.5-.49c.07-.06.12-.09.16-.09.03,0,.07.01.11.04.41.27.78.6,1.1.98.03.04.05.08.05.11,0,.03-.03.08-.09.14l-.51.58c-.07.07-.13.11-.17.11-.03,0-.06-.02-.1-.07-.29-.39-.65-.75-1.08-1.08Z"/>
          <path class="cls-7" d="m893.94,2897.21l-1.64.03c-.07,0-.11,0-.13-.03s-.02-.05-.02-.11v-1.07c0-.07,0-.11.03-.13s.06-.02.12-.02l1.64.03h3.34c-.02-.69-.05-1.23-.1-1.62.06,0,.14.02.25.03.23.02.41.03.52.05.8-.53,1.54-1.12,2.2-1.78h-4.72l-1.8.03c-.07,0-.11,0-.12-.03-.01-.02-.02-.06-.02-.12v-1.03c0-.07,0-.12.03-.13.02-.01.06-.02.11-.02l1.8.03h5.51s.12-.02.22-.05c.08-.03.14-.04.17-.04.09,0,.28.14.57.42.32.32.48.54.48.67,0,.11-.07.21-.22.29-.17.1-.36.25-.56.46-.86.88-1.83,1.64-2.9,2.29v.56h3.24l1.64-.03c.07,0,.11,0,.12.03.01.02.02.06.02.12v1.07c0,.06,0,.1-.02.12-.02.01-.05.02-.12.02l-1.64-.03h-3.24v1.48l.03,2.06c0,.63-.18,1.09-.55,1.37-.19.14-.48.24-.86.29-.3.03-.8.05-1.49.05-.22,0-.34-.02-.38-.06-.03-.03-.07-.15-.11-.34-.11-.38-.27-.75-.48-1.09.6.06,1.2.09,1.81.09.41,0,.61-.21.61-.63v-3.2h-3.34Z"/>
          <path class="cls-7" d="m909.2,2895.33c.39,0,.71.14.96.43.22.25.34.54.34.87,0,.38-.14.71-.43.96-.25.22-.54.34-.87.34-.39,0-.71-.14-.96-.43-.22-.25-.34-.54-.34-.87,0-.38.14-.71.43-.96.25-.22.54-.34.87-.34Z"/>
          <path class="cls-7" d="m920.34,2895.45c.45-.69.87-1.45,1.25-2.3.25-.58.41-1.12.5-1.6.77.28,1.32.55,1.64.82.08.06.13.14.13.22,0,.11-.05.21-.15.29-.14.12-.33.41-.58.87-.59,1.14-1.09,2-1.48,2.58.59.46,1.23,1.05,1.91,1.77.05.06.08.12.08.18,0,.04-.02.09-.06.17-.17.23-.44.54-.79.93-.05.06-.1.09-.16.09-.06,0-.11-.04-.18-.11-.54-.64-1.1-1.22-1.7-1.72-1.38,1.74-2.87,3.09-4.45,4.06-.11.07-.21.1-.3.1-.09,0-.18-.03-.25-.09-.45-.38-.84-.62-1.17-.72,1.09-.64,2.03-1.31,2.82-2.01.71-.63,1.4-1.39,2.08-2.25-.8-.6-1.64-1.11-2.53-1.55.47-.61.76-.96.86-1.07.04-.04.08-.06.13-.06.04,0,.09.02.16.05.71.36,1.46.81,2.26,1.37Z"/>
          <path class="cls-7" d="m927.88,2893.47c.22-.26.52-.6.91-1.02.06-.07.12-.1.18-.1.04,0,.1.02.17.06.81.43,1.64,1.05,2.48,1.85.08.08.11.14.11.18s-.03.1-.08.17c-.28.38-.55.7-.81.98-.07.07-.12.1-.16.1-.04,0-.1-.03-.17-.1-.79-.82-1.68-1.52-2.65-2.12Zm.29,6.49c.69-.19,1.28-.41,1.76-.65.84-.44,1.53-.84,2.09-1.2.49-.32,1.04-.72,1.65-1.22.87-.71,1.56-1.32,2.08-1.83.49-.49.98-1.06,1.49-1.71.07.57.19,1.08.36,1.52.04.1.06.18.06.25,0,.1-.07.23-.21.39-.76.88-1.75,1.8-2.99,2.75-1.07.84-2.38,1.69-3.92,2.54-.46.28-.75.48-.87.6-.09.08-.17.13-.23.13s-.14-.05-.22-.14c-.4-.45-.75-.94-1.04-1.45Z"/>
          <path class="cls-7" d="m940.66,2899.49c1.22-1.08,2.16-2.37,2.82-3.87.35-.79.55-1.43.59-1.92.73.26,1.26.48,1.61.66.11.05.16.12.16.21s-.04.18-.13.26c-.12.12-.27.39-.45.79-.8,1.8-1.73,3.26-2.78,4.37-.12.13-.24.2-.37.2-.1,0-.2-.04-.3-.13-.28-.23-.66-.42-1.14-.56Zm6.65-4.94c.14-.1.36-.24.64-.44.19-.13.32-.21.39-.27.07-.05.13-.08.18-.08.06,0,.12.03.2.1,1.34,1.35,2.43,2.94,3.26,4.77.03.06.05.12.05.18,0,.08-.04.15-.13.21-.3.24-.66.47-1.08.69-.06.03-.11.04-.15.04-.08,0-.13-.05-.17-.16-.92-2.08-1.99-3.76-3.21-5.06Zm1.87-1.78l.69-.48s.05-.03.08-.03c.03,0,.07.02.12.06.44.34.85.81,1.23,1.39.03.04.04.07.04.1,0,.04-.03.08-.08.11l-.55.4s-.07.04-.1.04c-.04,0-.08-.03-.12-.08-.4-.62-.84-1.12-1.31-1.5Zm1.2-.86l.65-.46s.06-.03.08-.03c.03,0,.07.02.11.06.5.38.92.83,1.24,1.34.03.04.04.07.04.11,0,.04-.03.08-.08.13l-.52.4s-.07.04-.1.04c-.04,0-.08-.03-.11-.08-.37-.58-.8-1.08-1.3-1.5Z"/>
          <path class="cls-7" d="m955.37,2895.87c.68.11,1.61.16,2.81.16h4.19c.41,0,.94,0,1.59-.02.83-.01,1.29-.02,1.4-.03h.06c.11,0,.17.06.17.18.01.2.02.4.02.62s0,.41-.02.61c0,.13-.06.2-.18.2h-.05c-1.3-.02-2.27-.03-2.9-.03h-4.68l-1.91.16c-.17,0-.26-.09-.3-.27-.08-.34-.14-.87-.2-1.58Z"/>
          <path class="cls-7" d="m970.68,2899.5l-1.65.03c-.07,0-.11,0-.13-.03-.01-.02-.02-.05-.02-.11v-.84c0-.08.05-.13.15-.13l1.65.03h3.16v-.06c0-.29,0-.51-.01-.66h-1.61l-1.82.03c-.07,0-.11-.01-.12-.03-.01-.02-.02-.06-.02-.13l.03-1.47v-2.06c-.26.25-.51.5-.77.72-.13.11-.22.16-.27.16s-.13-.09-.22-.27c-.15-.29-.33-.54-.53-.75.99-.66,1.79-1.51,2.38-2.53.16-.29.27-.56.35-.81.44.08.85.18,1.23.3.11.04.17.1.17.18s-.04.14-.12.2c-.11.1-.23.24-.36.42l-.22.32h2.39c.15-.27.27-.5.35-.69.09-.22.16-.44.21-.67.43.07.84.16,1.23.27.11.03.16.1.16.18,0,.06-.04.12-.13.19-.1.08-.18.19-.25.33-.11.21-.19.34-.22.39h1.98l1.76-.03c.1,0,.15.04.15.13v.77c0,.08,0,.12-.03.14-.02.01-.06.02-.12.02l-1.76-.03h-2.25v.65h1.64l1.75-.03c.08,0,.12,0,.13.03.02.02.03.06.03.12v.65c0,.07-.01.11-.03.12-.02.01-.06.02-.13.02l-1.75-.03h-1.64v.65h1.64l1.75-.03c.08,0,.12,0,.13.03.02.02.03.05.03.11v.64c0,.07-.01.11-.03.12-.02.01-.06.02-.13.02l-1.75-.03h-1.64v.69h2.37l1.8-.03c.07,0,.11,0,.12.03s.02.05.02.11v.73c0,.07,0,.12-.02.13-.02.02-.05.03-.12.03l-1.8-.03h-2.51l-.04.08c-.03.05-.04.24-.04.57v.08h3.29l1.65-.03c.09,0,.14.04.14.13v.84c0,.06,0,.1-.02.12-.02.01-.05.02-.12.02l-1.65-.03h-2.44c1.14.76,2.64,1.31,4.49,1.64-.2.23-.37.52-.5.88-.1.23-.18.35-.26.35-.04,0-.14-.02-.3-.06-1.82-.55-3.25-1.32-4.3-2.3l.05,2.47c0,.09-.04.14-.13.14h-1.12c-.08,0-.13-.05-.13-.14,0-.02,0-.3.02-.86.02-.51.03-1.03.03-1.57-.94.94-2.34,1.69-4.21,2.24-.19.05-.29.08-.31.08-.09,0-.18-.11-.26-.34-.11-.3-.27-.57-.47-.8,1.85-.42,3.29-.99,4.32-1.71h-2.25Zm.87-5.85h2.63v-.65h-2.63v.65Zm0,1.53h2.63v-.65h-2.63v.65Zm0,1.56h2.63v-.69h-2.63v.69Z"/>
          <path class="cls-7" d="m995.36,2895.24c-.23.29-.41.62-.55.99-.07.22-.15.34-.23.34-.06,0-.17-.04-.31-.12-.94-.42-1.79-.91-2.54-1.45v.91c0,.07,0,.11-.03.12-.01.01-.05.02-.11.02l-1.47-.03h-2.02l-1.47.03c-.07,0-.11,0-.13-.03-.01-.02-.02-.05-.02-.11v-.94c-.73.57-1.53,1.08-2.41,1.54-.17.08-.27.13-.3.13-.07,0-.15-.11-.25-.32-.16-.33-.36-.62-.61-.87,2.19-.99,3.86-2.31,5-3.97.23-.33.4-.64.51-.93.63.1,1.09.18,1.36.25.16.05.23.12.23.21,0,.08-.04.14-.13.2-.05.03-.09.06-.11.09,1.44,1.84,3.29,3.16,5.55,3.96Zm-9,7.31h-1.1c-.07,0-.11,0-.12-.03-.01-.02-.02-.05-.02-.11l.03-2.31v-1.12l-.03-1.57c0-.07,0-.11.03-.12.02-.01.06-.02.11-.02l1.78.03h4.16l1.78-.03c.08,0,.12,0,.14.03.01.02.02.05.02.11l-.03,1.38v1.28l.03,2.29c0,.07-.01.11-.03.12-.02.01-.06.02-.12.02h-1.1c-.07,0-.11,0-.13-.03-.01-.02-.02-.06-.02-.12v-.43h-5.22v.5c0,.07-.01.11-.03.12-.02.01-.06.02-.13.02Zm.16-4.08v2.27h5.22v-2.27h-5.22Zm.18-3.67c.21.02.67.03,1.4.03h3.35c-.91-.71-1.71-1.53-2.39-2.48-.63.87-1.42,1.69-2.37,2.46Z"/>
          <path class="cls-7" d="m999.8,2899.71l-1.77.03c-.06,0-.1,0-.11-.03,0-.01-.01-.05-.01-.12v-.99c0-.07,0-.11.02-.13.01-.01.05-.02.11-.02l1.77.03h5.77l.12-1.02h-4.34c-.03.06-.06.13-.1.24-.03.1-.09.15-.17.15,0,0-.03,0-.09,0l-.98-.1c-.14-.02-.2-.05-.2-.11,0-.02,0-.04.02-.08.55-1.34.95-2.61,1.2-3.82.07-.33.11-.65.13-.95.47.05.91.11,1.33.19.17.04.26.1.26.18,0,.06-.04.13-.11.21-.06.05-.12.21-.18.46l-.04.13h3.26l1.59-.03c.07,0,.12,0,.13.03.01.02.02.05.02.11v.96c0,.07,0,.11-.03.12-.02.01-.06.02-.13.02l-1.59-.03h-3.56c-.1.37-.22.76-.36,1.15h3.64l1.61-.03c.11,0,.16.04.16.12v.05c-.02.13-.04.34-.06.64-.02.27-.04.46-.05.59-.01.12-.03.27-.05.45-.02.19-.04.31-.04.36h.7l1.7-.03c.07,0,.11,0,.12.03,0,.01.01.05.01.12v.99c0,.07,0,.11-.02.12s-.05.02-.11.02l-1.7-.03h-.87c-.11.6-.29,1.18-.53,1.71-.32.69-.89,1.04-1.71,1.04-.49,0-.87-.01-1.15-.04-.22-.02-.34-.06-.38-.1-.04-.04-.08-.16-.11-.36-.07-.37-.17-.68-.3-.95.66.08,1.21.13,1.64.13.25,0,.44-.04.56-.11.1-.07.19-.19.26-.36.12-.3.22-.62.3-.97h-5.57Zm7.5-8.33l1.71-.03c.07,0,.11,0,.13.03s.02.06.02.12l-.03.72v.62l.03,1.51c0,.07,0,.11-.03.13-.02.01-.06.02-.12.02h-1.09c-.07,0-.11,0-.12-.03s-.02-.06-.02-.12v-1.78h-8.21v1.78c0,.07,0,.11-.03.13-.02.01-.06.02-.12.02h-1.09c-.07,0-.11,0-.12-.03s-.02-.06-.02-.12l.03-1.51v-.51l-.03-.84c0-.07,0-.11.03-.13.02-.01.06-.02.12-.02l1.73.03h7.24Z"/>
          <path class="cls-7" d="m1014.22,2900.43l-1.64.03c-.07,0-.11-.01-.13-.03-.01-.02-.02-.06-.02-.12v-.86c0-.07,0-.11.03-.12.02-.01.06-.02.12-.02l1.64.03h7.97l1.64-.03c.07,0,.11,0,.13.03.01.02.02.05.02.11v.86c0,.07,0,.11-.02.13-.01.02-.06.03-.12.03l-1.64-.03h-2.06c.94.55,2.18.9,3.72,1.04-.21.28-.37.55-.48.82-.06.15-.12.24-.16.28-.04.04-.1.06-.18.06-.07,0-.15,0-.26-.03-1.37-.25-2.59-.72-3.68-1.43-.06-.03-.08-.06-.08-.08,0-.03.04-.07.13-.13l.67-.53h-3.38c.09.05.22.14.37.25.16.11.26.18.32.22.11.08.17.15.17.22,0,.08-.07.14-.2.18-.06.02-.23.09-.51.22-.9.47-1.92.82-3.04,1.04-.14.03-.24.04-.3.04-.08,0-.18-.11-.29-.34-.14-.29-.31-.54-.52-.77,1.31-.14,2.4-.42,3.26-.82.14-.07.27-.15.41-.25h-1.89Zm.25-7.46l-1.68.03c-.07,0-.11,0-.13-.03-.01-.02-.02-.07-.02-.13v-.84c0-.07,0-.11.03-.12.02-.01.06-.02.12-.02l1.68.03h2.94v-.06c0-.49-.03-.88-.1-1.16.55.01,1.02.04,1.4.09.14.01.21.06.21.14,0,.04-.03.12-.08.23-.05.12-.08.35-.08.68v.08h3.18l1.68-.03c.07,0,.11,0,.12.03s.02.05.02.11v.84c0,.08,0,.12-.03.14-.02.01-.06.02-.11.02l-1.68-.03h-3.18v.69h1.43l1.78-.03c.07,0,.11,0,.12.03.01.02.02.06.02.12l-.03,1.28v2.32l.03,1.29c0,.08-.05.13-.14.13l-1.78-.03h-4.06l-1.78.03c-.08,0-.12,0-.14-.03-.01-.01-.02-.05-.02-.1l.03-1.29v-2.32l-.03-1.28c0-.07,0-.11.03-.12.02-.01.07-.02.13-.02l1.78.03h1.26v-.69h-2.94Zm6.34,1.55h-5.3v.58h5.3v-.58Zm-5.3,1.96h5.3v-.58h-5.3v.58Zm5.3,1.45v-.6h-5.3v.6h5.3Z"/>
        </g>
      </g>
      <text class="cls-30" transform="translate(615.17 146.65)"><tspan class="cls-144" x="0" y="0">私</tspan><tspan class="cls-166" x="16.98" y="0">た</tspan><tspan class="cls-34" x="33.07" y="0">ち</tspan><tspan class="cls-25" x="49.49" y="0">は</tspan><tspan class="cls-67" x="66.3" y="0">研</tspan><tspan class="cls-195" x="83.36" y="0">究</tspan><tspan class="cls-102" x="100.37" y="0">の</tspan><tspan class="cls-61" x="117.36" y="0">一</tspan><tspan class="cls-76" x="134.42" y="0">環</tspan><tspan class="cls-179" x="150.43" y="0">と</tspan><tspan class="cls-100" x="164.39" y="0">し</tspan><tspan class="cls-68" x="179.37" y="0">て</tspan><tspan class="cls-23" x="195.57" y="0">、</tspan><tspan class="cls-61" x="204.63" y="0">静岡県</tspan><tspan class="cls-23" x="255.79" y="0">、</tspan><tspan class="cls-67" x="264.85" y="0">福島</tspan><tspan class="cls-195" x="298.96" y="0">県</tspan><tspan class="cls-74" x="315.97" y="0">に</tspan><tspan class="cls-138" x="332.37" y="0">あ</tspan><tspan class="cls-139" x="348.11" y="0">る</tspan><tspan class="cls-67" x="364.06" y="0">先進的住宅</tspan><tspan class="cls-159" x="449.34" y="0">地</tspan><tspan class="cls-116" x="466.35" y="0">の</tspan><tspan class="cls-44" x="483.34" y="0">視</tspan><tspan class="cls-52" x="500.4" y="0">察</tspan><tspan class="cls-75" x="516.88" y="0">を</tspan><tspan class="cls-77" x="533.18" y="0">行</tspan><tspan class="cls-48" x="550.3" y="0">い</tspan><tspan class="cls-59" x="566.18" y="0">ま</tspan><tspan class="cls-193" x="580.45" y="0">し</tspan><tspan class="cls-84" x="595.83" y="0">た</tspan><tspan class="cls-20" x="612.57" y="0">。</tspan><tspan class="cls-61" x="0" y="29">国土交通</tspan><tspan class="cls-14" x="68.22" y="29">省</tspan><tspan class="cls-135" x="84.13" y="29">ま</tspan><tspan class="cls-8" x="99.25" y="29">ち</tspan><tspan class="cls-187" x="115.49" y="29">づ</tspan><tspan class="cls-41" x="131.17" y="29">く</tspan><tspan class="cls-189" x="144.18" y="29">り</tspan><tspan class="cls-111" x="159.23" y="29">月</tspan><tspan class="cls-67" x="175.51" y="29">間関連表</tspan><tspan class="cls-23" x="243.73" y="29">彰</tspan><tspan class="cls-61" x="252.79" y="29">「</tspan><tspan class="cls-14" x="269.84" y="29">住</tspan><tspan class="cls-163" x="285.75" y="29">ま</tspan><tspan class="cls-144" x="301.57" y="29">い</tspan><tspan class="cls-24" x="318.55" y="29">の</tspan><tspan class="cls-135" x="334.39" y="29">ま</tspan><tspan class="cls-196" x="349.51" y="29">ち</tspan><tspan class="cls-154" x="365.5" y="29">な</tspan><tspan class="cls-81" x="382.34" y="29">み</tspan><tspan class="cls-82" x="398.24" y="29">コ</tspan><tspan class="cls-17" x="413.64" y="29">ン</tspan><tspan class="cls-156" x="428.58" y="29">ク</tspan><tspan class="cls-121" x="444.22" y="29">ー</tspan><tspan class="cls-162" x="460.73" y="29">ル</tspan><tspan class="cls-167" x="478.12" y="29">」</tspan><tspan class="cls-1" x="487.13" y="29">に</tspan><tspan class="cls-168" x="503.88" y="29">お</tspan><tspan class="cls-122" x="521.03" y="29">い</tspan><tspan class="cls-68" x="537.58" y="29">て</tspan><tspan class="cls-20" x="553.78" y="29">、</tspan><tspan class="cls-61" x="0" y="58">第11回国土交通大臣</tspan><tspan class="cls-23" x="156.33" y="58">賞</tspan><tspan class="cls-137" x="165.38" y="58">【</tspan><tspan class="cls-98" x="182.16" y="58">エ</tspan><tspan class="cls-124" x="197.92" y="58">コ</tspan><tspan class="cls-143" x="214.05" y="58">ロ</tspan><tspan class="cls-157" x="230.05" y="58">ジ</tspan><tspan class="cls-95" x="246.25" y="58">ー</tspan><tspan class="cls-67" x="262.83" y="58">団地池</tspan><tspan class="cls-159" x="314" y="58">田</tspan><tspan class="cls-102" x="331.01" y="58">の</tspan><tspan class="cls-23" x="348.01" y="58">森</tspan><tspan class="cls-67" x="357.06" y="58">（静岡県静岡市</tspan><tspan class="cls-35" x="476.45" y="58">）】、</tspan><tspan class="cls-61" x="0" y="87">第17回国土交通大臣</tspan><tspan class="cls-23" x="156.33" y="87">賞</tspan><tspan class="cls-103" x="165.38" y="87">【</tspan><tspan class="cls-88" x="182.5" y="87">い</tspan><tspan class="cls-123" x="199.6" y="87">わ</tspan><tspan class="cls-110" x="216.12" y="87">き</tspan><tspan class="cls-101" x="230.42" y="87">タ</tspan><tspan class="cls-149" x="246.05" y="87">ウ</tspan><tspan class="cls-99" x="261.48" y="87">ン</tspan><tspan class="cls-25" x="277.27" y="87">ズ</tspan><tspan class="cls-118" x="294.08" y="87">ヴ</tspan><tspan class="cls-59" x="309.36" y="87">ィ</tspan><tspan class="cls-146" x="323.64" y="87">ル</tspan><tspan class="cls-61" x="333.03" y="87">（福島</tspan><tspan class="cls-103" x="384.2" y="87">県</tspan><tspan class="cls-182" x="401.32" y="87">い</tspan><tspan class="cls-4" x="418.42" y="87">わ</tspan><tspan class="cls-183" x="434.94" y="87">き</tspan><tspan class="cls-67" x="450.51" y="87">市</tspan><tspan class="cls-35" x="467.57" y="87">）】、</tspan><tspan class="cls-61" x="0" y="116">東京大学大学院工学系研究科建築学専攻 </tspan><tspan class="cls-66" x="312.63" y="116">大</tspan><tspan class="cls-53" x="329.38" y="116">月</tspan><tspan class="cls-44" x="345.65" y="116">教</tspan><tspan class="cls-116" x="362.71" y="116">授</tspan><tspan class="cls-1" x="379.7" y="116">が</tspan><tspan class="cls-171" x="396.45" y="116">デ</tspan><tspan class="cls-90" x="413.96" y="116">ザ</tspan><tspan class="cls-169" x="430" y="116">イ</tspan><tspan class="cls-155" x="444.25" y="116">ン</tspan><tspan class="cls-67" x="460.65" y="116">監</tspan><tspan class="cls-52" x="477.7" y="116">修</tspan><tspan class="cls-191" x="494.18" y="116">を</tspan><tspan class="cls-141" x="510.49" y="116">行</tspan><tspan class="cls-32" x="525.74" y="116">っ</tspan><tspan class="cls-22" x="541.5" y="116">た</tspan><tspan class="cls-67" x="550.23" y="116">【大川原地区災害公営住</tspan><tspan class="cls-35" x="737.85" y="116">宅</tspan><tspan class="cls-67" x="746.9" y="116">（福島県大熊町</tspan><tspan class="cls-35" x="866.3" y="116">）</tspan><tspan class="cls-150" x="875.35" y="116">】</tspan><tspan class="cls-116" x="884.36" y="116">の</tspan><tspan class="cls-35" x="901.35" y="116">、</tspan><tspan class="cls-83" x="-2.66" y="145">３</tspan><tspan class="cls-188" x="11.36" y="145">つ</tspan><tspan class="cls-102" x="28.4" y="145">の</tspan><tspan class="cls-61" x="45.39" y="145">先進的住宅</tspan><tspan class="cls-154" x="130.67" y="145">地</tspan><tspan class="cls-161" x="147.52" y="145">へ</tspan><tspan class="cls-102" x="164.56" y="145">訪</tspan><tspan class="cls-11" x="181.55" y="145">れ</tspan><tspan class="cls-160" x="198.23" y="145">て</tspan><tspan class="cls-33" x="214.49" y="145">い</tspan><tspan class="cls-99" x="230.37" y="145">ま</tspan><tspan class="cls-45" x="246.16" y="145">す</tspan><tspan class="cls-23" x="263.19" y="145">。</tspan><tspan class="cls-51" x="0" y="174">住</tspan><tspan class="cls-134" x="17.32" y="174">協</tspan><tspan class="cls-15" x="33.58" y="174">グ</tspan><tspan class="cls-184" x="51.21" y="174">ル</tspan><tspan class="cls-128" x="68.42" y="174">ー</tspan><tspan class="cls-97" x="84.61" y="174">プ</tspan><tspan class="cls-93" x="102.35" y="174">内</tspan><tspan class="cls-29" x="119.62" y="174">の</tspan><tspan class="cls-127" x="136.89" y="174">様</tspan><tspan class="cls-39" x="153.92" y="174">々</tspan><tspan class="cls-145" x="169.37" y="174">な</tspan><tspan class="cls-51" x="186.24" y="174">部</tspan><tspan class="cls-142" x="203.56" y="174">門</tspan><tspan class="cls-96" x="220.68" y="174">か</tspan><tspan class="cls-47" x="236.51" y="174">ら</tspan><tspan class="cls-194" x="253.08" y="174">約</tspan><tspan class="cls-151" x="267.75" y="174">３</tspan><tspan class="cls-57" x="279.69" y="174">０</tspan><tspan class="cls-93" x="294.31" y="174">名</tspan><tspan class="cls-165" x="311.58" y="174">の</tspan><tspan class="cls-16" x="328.05" y="174">ス</tspan><tspan class="cls-55" x="343.64" y="174">タ</tspan><tspan class="cls-180" x="358.28" y="174">ッ</tspan><tspan class="cls-158" x="373.13" y="174">フ</tspan><tspan class="cls-36" x="389.84" y="174">が</tspan><tspan class="cls-152" x="407.18" y="174">参</tspan><tspan class="cls-63" x="424.51" y="174">加</tspan><tspan class="cls-26" x="440.35" y="174">し</tspan><tspan class="cls-164" x="456.07" y="174">、</tspan><tspan class="cls-10" x="465.4" y="174">現</tspan><tspan class="cls-94" x="482.72" y="174">地</tspan><tspan class="cls-89" x="499.62" y="174">で</tspan><tspan class="cls-148" x="516.75" y="174">は</tspan><tspan class="cls-10" x="533.83" y="174">開発</tspan><tspan class="cls-136" x="568.48" y="174">者</tspan><tspan class="cls-176" x="585.72" y="174">や</tspan><tspan class="cls-152" x="603.45" y="174">共同研</tspan><tspan class="cls-79" x="655.42" y="174">究</tspan><tspan class="cls-42" x="671.93" y="174">メ</tspan><tspan class="cls-117" x="686.9" y="174">ン</tspan><tspan class="cls-177" x="703.76" y="174">バ</tspan><tspan class="cls-108" x="720.29" y="174">ー</tspan><tspan class="cls-147" x="736.94" y="174">への</tspan><tspan class="cls-152" x="771.46" y="174">質疑応</tspan><tspan class="cls-60" x="823.43" y="174">答</tspan><tspan class="cls-36" x="840.7" y="174">が</tspan><tspan class="cls-54" x="858.04" y="174">飛</tspan><tspan class="cls-18" x="875.39" y="174">び</tspan><tspan class="cls-153" x="892.95" y="174">交</tspan><tspan class="cls-172" x="908.36" y="174">う</tspan><tspan class="cls-20" x="924.01" y="174">、</tspan><tspan class="cls-61" x="0" y="203">有意</tspan><tspan class="cls-70" x="34.11" y="203">義</tspan><tspan class="cls-173" x="50.68" y="203">な</tspan><tspan class="cls-67" x="67.28" y="203">視</tspan><tspan class="cls-31" x="84.33" y="203">察</tspan><tspan class="cls-198" x="100.35" y="203">と</tspan><tspan class="cls-21" x="115.3" y="203">な</tspan><tspan class="cls-80" x="130.36" y="203">り</tspan><tspan class="cls-78" x="144.57" y="203">ま</tspan><tspan class="cls-9" x="158.85" y="203">し</tspan><tspan class="cls-84" x="174.23" y="203">た</tspan><tspan class="cls-23" x="190.96" y="203">。</tspan></text>
      <text class="cls-30" transform="translate(348.31 1986.07)"><tspan class="cls-61" x="0" y="0">未</tspan><tspan class="cls-159" x="17.06" y="0">来</tspan><tspan class="cls-102" x="34.06" y="0">の</tspan><tspan class="cls-61" x="51.06" y="0">住宅業</tspan><tspan class="cls-6" x="102.23" y="0">界</tspan><tspan class="cls-120" x="118.7" y="0">を</tspan><tspan class="cls-3" x="135.01" y="0">担</tspan><tspan class="cls-9" x="150.16" y="0">う</tspan><tspan class="cls-61" x="165.54" y="0">東京大</tspan><tspan class="cls-195" x="216.7" y="0">学</tspan><tspan class="cls-116" x="233.71" y="0">の</tspan><tspan class="cls-61" x="250.71" y="0">学</tspan><tspan class="cls-195" x="267.76" y="0">生</tspan><tspan class="cls-125" x="284.77" y="0">に</tspan><tspan class="cls-23" x="301.3" y="0">、</tspan><tspan class="cls-61" x="-8" y="29">「人生100年時代</tspan><tspan class="cls-197" x="124.15" y="29">」</tspan><tspan class="cls-19" x="132.63" y="29">を</tspan><tspan class="cls-64" x="148.52" y="29">テ</tspan><tspan class="cls-65" x="164.75" y="29">ー</tspan><tspan class="cls-112" x="180.97" y="29">マ</tspan><tspan class="cls-46" x="197.83" y="29">に</tspan><tspan class="cls-9" x="212.87" y="29">し</tspan><tspan class="cls-62" x="228.25" y="29">た</tspan><tspan class="cls-40" x="244.83" y="29">モ</tspan><tspan class="cls-87" x="261.37" y="29">デル</tspan><tspan class="cls-67" x="296.15" y="29">住</tspan><tspan class="cls-195" x="313.21" y="29">宅</tspan><tspan class="cls-102" x="330.22" y="29">の</tspan><tspan class="cls-67" x="347.21" y="29">提</tspan><tspan class="cls-85" x="364.27" y="29">案</tspan><tspan class="cls-71" x="380.74" y="29">を</tspan><tspan class="cls-91" x="396.38" y="29">プ</tspan><tspan class="cls-175" x="413.18" y="29">レ</tspan><tspan class="cls-126" x="429.5" y="29">ゼ</tspan><tspan class="cls-104" x="445.67" y="29">ン</tspan><tspan class="cls-2" x="460.59" y="29">し</tspan><tspan class="cls-68" x="475.56" y="29">て</tspan><tspan class="cls-64" x="491.77" y="29">頂</tspan><tspan class="cls-92" x="508" y="29">き</tspan><tspan class="cls-59" x="522.43" y="29">ま</tspan><tspan class="cls-113" x="536.7" y="29">し</tspan><tspan class="cls-37" x="552.08" y="29">た</tspan><tspan class="cls-20" x="568.81" y="29">。</tspan><tspan class="cls-61" x="0" y="58">固定概</tspan><tspan class="cls-195" x="51.17" y="58">念</tspan><tspan class="cls-125" x="68.18" y="58">に</tspan><tspan class="cls-181" x="84.7" y="58">染</tspan><tspan class="cls-179" x="100.61" y="58">ま</tspan><tspan class="cls-73" x="114.56" y="58">っ</tspan><tspan class="cls-192" x="129.92" y="58">て</tspan><tspan class="cls-27" x="146.19" y="58">い</tspan><tspan class="cls-56" x="162.72" y="58">な</tspan><tspan class="cls-49" x="179.39" y="58">い</tspan><tspan class="cls-61" x="196.41" y="58">学</tspan><tspan class="cls-45" x="213.47" y="58">生</tspan><tspan class="cls-114" x="230.5" y="58">だ</tspan><tspan class="cls-130" x="247.19" y="58">か</tspan><tspan class="cls-178" x="262.76" y="58">ら</tspan><tspan class="cls-186" x="278.08" y="58">こ</tspan><tspan class="cls-86" x="293.59" y="58">そ</tspan><tspan class="cls-102" x="309.7" y="58">の</tspan><tspan class="cls-67" x="326.7" y="58">柔</tspan><tspan class="cls-43" x="343.75" y="58">軟</tspan><tspan class="cls-12" x="360.32" y="58">な</tspan><tspan class="cls-72" x="376.02" y="58">ア</tspan><tspan class="cls-105" x="391.46" y="58">イ</tspan><tspan class="cls-58" x="406.63" y="58">デ</tspan><tspan class="cls-28" x="423.21" y="58">ア</tspan><tspan class="cls-69" x="439.85" y="58">が</tspan><tspan class="cls-28" x="456.92" y="58">出</tspan><tspan class="cls-72" x="473.56" y="58">そ</tspan><tspan class="cls-174" x="489" y="58">ろ</tspan><tspan class="cls-49" x="505.38" y="58">い</tspan><tspan class="cls-20" x="522.41" y="58">、</tspan><tspan class="cls-61" x="0" y="87">住宅</tspan><tspan class="cls-195" x="34.11" y="87">界</tspan><tspan class="cls-102" x="51.12" y="87">の</tspan><tspan class="cls-109" x="68.11" y="87">新</tspan><tspan class="cls-5" x="85.09" y="87">た</tspan><tspan class="cls-173" x="101.34" y="87">な</tspan><tspan class="cls-61" x="117.94" y="87">可能</tspan><tspan class="cls-6" x="152.05" y="87">性</tspan><tspan class="cls-120" x="168.53" y="87">を</tspan><tspan class="cls-106" x="184.83" y="87">見</tspan><tspan class="cls-66" x="201.55" y="87">つ</tspan><tspan class="cls-140" x="218.31" y="87">け</tspan><tspan class="cls-129" x="233.76" y="87">る</tspan><tspan class="cls-131" x="248.74" y="87">こ</tspan><tspan class="cls-133" x="263.62" y="87">と</tspan><tspan class="cls-190" x="279.01" y="87">の</tspan><tspan class="cls-107" x="295.58" y="87">で</tspan><tspan class="cls-50" x="311.67" y="87">き</tspan><tspan class="cls-84" x="327.17" y="87">た</tspan><tspan class="cls-44" x="343.91" y="87">有意</tspan><tspan class="cls-190" x="378.02" y="87">義</tspan><tspan class="cls-13" x="394.59" y="87">な</tspan><tspan class="cls-67" x="411.19" y="87">時</tspan><tspan class="cls-76" x="428.25" y="87">間</tspan><tspan class="cls-119" x="444.26" y="87">と</tspan><tspan class="cls-185" x="459.21" y="87">な</tspan><tspan class="cls-80" x="474.27" y="87">り</tspan><tspan class="cls-38" x="488.48" y="87">ま</tspan><tspan class="cls-113" x="502.76" y="87">し</tspan><tspan class="cls-84" x="518.14" y="87">た</tspan><tspan class="cls-35" x="534.87" y="87">。</tspan></text>
    </g>
  </g>
</svg>