<?xml version="1.0" encoding="UTF-8"?>
<svg id="_レイヤー_2" data-name="レイヤー 2" xmlns="http://www.w3.org/2000/svg" xmlns:xlink="http://www.w3.org/1999/xlink" viewBox="0 0 125.15 125.15">
  <defs>
    <style>
      .cls-1 {
        fill: #fff;
      }

      .cls-2 {
        clip-path: url(#clippath);
      }

      .cls-3 {
        fill: none;
      }
    </style>
    <clipPath id="clippath">
      <rect class="cls-3" width="125.15" height="125.15"/>
    </clipPath>
  </defs>
  <g id="_レイヤー_1-2" data-name="レイヤー 1">
    <g class="cls-2">
      <g>
        <g>
          <path class="cls-1" d="m24.13,96.44c1.99-1.21,3.61-2.8,4.84-4.79-.62-.71-1.31-1.39-2.07-2.03-.04-.03-.05-.05-.05-.07,0-.03.04-.08.12-.16l.19-.23c.05-.06.09-.09.12-.09.02,0,.05.02.09.05.67.53,1.33,1.15,1.98,1.86.74-1.36,1.28-2.85,1.62-4.48h-3.17c-.7,1.56-1.72,3.03-3.04,4.43-.07.08-.13.12-.16.12-.05,0-.11-.05-.19-.16-.12-.15-.25-.26-.38-.34,1.76-1.69,3.03-3.75,3.82-6.19.14-.41.22-.81.24-1.2.27.06.52.14.75.24.12.05.18.11.18.19,0,.05-.03.11-.09.18-.08.07-.17.28-.29.61-.2.57-.39,1.06-.56,1.47h2.69c.19,0,.3-.02.35-.05s.1-.05.16-.05c.09,0,.23.08.4.24.15.14.23.23.23.28,0,.06-.05.14-.16.24l-.05.08c.62,1.19,1.33,2.22,2.11,3.11v-4.48c0-1.02-.04-1.72-.11-2.11.31.01.59.04.84.08.12.02.18.06.18.12,0,.03-.01.07-.03.12-.03.06-.04.11-.05.15-.07.23-.1.77-.1,1.6v5.17c1.03.93,2.42,1.81,4.2,2.64-.15.12-.27.27-.38.45-.07.12-.12.19-.16.19-.03,0-.09-.02-.19-.07-1.38-.69-2.53-1.45-3.47-2.27v3.12l.03,2.78c0,.08-.04.12-.11.12h-.58c-.07,0-.11-.04-.11-.12l.03-2.78v-3.73c-.9-.94-1.68-2.02-2.34-3.23-.54,2.1-1.38,3.93-2.51,5.51-1.03,1.44-2.35,2.72-3.97,3.85-.11.07-.18.11-.21.11-.04,0-.1-.05-.18-.14-.13-.15-.28-.27-.46-.37Z"/>
          <path class="cls-1" d="m45.07,88.99c.38-.8.64-1.47.8-2.02.09-.36.15-.63.16-.82.27.06.5.13.7.21.12.05.18.11.18.16,0,.05-.04.13-.12.23-.12.14-.2.28-.24.41-.17.45-.44,1.06-.82,1.82h.34l2.1-.03c.07,0,.11.04.11.11v.5c0,.07-.04.11-.11.11l-2.1-.03h-3.55l-2.1.03c-.07,0-.11-.04-.11-.11v-.5c0-.07.04-.11.11-.11l2.1.03h2.55Zm-1.07-4.09v-.53c0-.65-.04-1.11-.11-1.39.3.02.57.05.81.09.12.02.18.06.18.12,0,.05-.03.14-.09.27-.06.1-.09.41-.09.91v.53h1.2l2-.03c.06,0,.09.04.09.11v.5c0,.07-.03.11-.09.11l-2-.03h-3.02l-2,.03c-.08,0-.12-.04-.12-.11v-.5c0-.07.04-.11.12-.11l2,.03h1.12Zm-1.76,11.22v1.01c0,.07-.04.11-.11.11h-.53c-.06,0-.09-.04-.09-.11l.03-2.69v-1.2l-.03-1.68c0-.07.03-.11.09-.11l1.73.03h1.99l1.74-.03c.07,0,.11.04.11.11l-.03,1.51v1.34l.03,2.67c0,.07-.04.11-.11.11h-.52c-.07,0-.11-.04-.11-.11v-.96h-4.2Zm-.32-9.72s-.03-.05-.03-.07c0-.03.06-.06.19-.1l.23-.06c.07-.02.11-.03.14-.03.04,0,.08.03.12.09.31.6.55,1.27.72,2,0,.03.02.05.02.07,0,.03-.06.06-.18.1l-.25.09c-.09.02-.15.03-.18.03s-.06-.03-.08-.09c-.2-.83-.43-1.51-.69-2.02Zm.32,9.08h4.2v-3.36h-4.2v3.36Zm10.75-11.54c.18,0,.3-.02.37-.05.04-.02.09-.03.16-.03.09,0,.21.08.35.23.16.16.24.28.24.37,0,.07-.03.12-.09.17-.11.07-.22.23-.34.48-.73,1.5-1.47,2.82-2.21,3.96,1.08.83,1.81,1.57,2.21,2.2.32.5.48,1.02.48,1.57,0,1.46-1.02,2.23-3.05,2.31-.06,0-.1,0-.12,0-.09,0-.16-.09-.21-.26-.05-.21-.13-.36-.24-.45,1.93.03,2.9-.53,2.9-1.68,0-.53-.2-1.05-.61-1.56-.4-.5-1.12-1.18-2.17-2.05.97-1.43,1.78-2.95,2.45-4.56h-3.34v9.44l.03,3.19c0,.07-.04.11-.11.11h-.55c-.07,0-.11-.04-.11-.11l.03-3.17v-6.84l-.03-3.19c0-.07.04-.11.11-.11l1.41.03h2.47Z"/>
          <path class="cls-1" d="m70.66,95.89c-.12.13-.2.31-.26.55-.02.14-.05.22-.08.24-.03.02-.1.03-.22.04-2.27.14-4.17.21-5.7.21-1.94,0-3.27-.18-4-.55-.67-.32-1.17-.86-1.48-1.62-.38.42-.96.95-1.73,1.59-.2.16-.32.27-.35.34-.06.11-.12.16-.18.16-.05,0-.1-.04-.17-.12-.16-.21-.29-.42-.4-.62.4-.21.73-.42,1-.62.48-.35.98-.81,1.49-1.38v-4.12h-1.3l-1.09.03c-.07,0-.11-.04-.11-.11v-.53c0-.07.04-.11.11-.11l1.09.03h.8l1.12-.03c.07,0,.11.04.11.11l-.03,1.49v3.27c.17.45.36.8.59,1.05.21.23.48.43.83.59.6.3,1.69.45,3.28.45,2.1,0,4.32-.11,6.67-.34Zm-13.24-12.18c.66.68,1.24,1.41,1.76,2.21.02.03.03.06.03.08,0,.04-.05.09-.14.15l-.23.16c-.1.07-.16.1-.2.1s-.06-.02-.09-.07c-.56-.92-1.12-1.65-1.7-2.2-.03-.03-.04-.05-.04-.07,0-.03.05-.08.16-.16l.2-.16c.08-.05.13-.08.16-.08.02,0,.05.01.08.04Zm7.86,3.07h1.48l2.12-.03c.07,0,.11.04.11.11l-.03,1.45v1.86l.03,1.45c0,.07-.04.11-.11.11l-2.12-.04h-1.48v1.41h2.45l2.27-.03c.07,0,.11.04.11.11v.48c0,.07-.04.11-.11.11l-2.27-.03h-2.45l.03,1.79c0,.08-.04.12-.11.12h-.53c-.07,0-.11-.04-.11-.12l.03-1.79h-2.15l-2.27.03c-.07,0-.11-.04-.11-.11v-.48c0-.07.04-.11.11-.11l2.27.03h2.15v-1.41h-1.33l-2.13.04c-.07,0-.11-.04-.11-.11l.03-1.45v-1.86l-.03-1.45c0-.07.04-.11.11-.11l2.13.03h1.33v-1.32h-2.05l-2.26.03c-.08,0-.12-.04-.12-.11v-.48c0-.07.04-.11.12-.11l2.26.03h2.05v-.05c0-.7-.04-1.25-.11-1.63.27,0,.53.03.8.08.12.02.18.07.18.13,0,.02-.01.06-.03.11-.03.06-.04.1-.05.14-.07.23-.1.59-.1,1.08v.14h2.38l2.26-.03c.07,0,.11.04.11.11v.48c0,.07-.04.11-.11.11l-2.26-.03h-2.38v1.32Zm-3.55,2.1h2.87v-1.51h-2.87v1.51Zm0,.56v1.65h2.87v-1.65h-2.87Zm3.55-2.07v1.51h3.01v-1.51h-3.01Zm3.01,2.07h-3.01v1.65h3.01v-1.65Z"/>
          <path class="cls-1" d="m74.61,88.32c-.83-1.02-1.64-1.86-2.41-2.54-.04-.04-.06-.07-.06-.09,0-.03.04-.09.11-.18l.16-.2c.06-.07.1-.11.13-.11.02,0,.05.02.08.05.1.09.23.21.39.36.19.18.3.29.33.31.59-.89,1.02-1.61,1.28-2.17.14-.28.24-.54.29-.79.21.07.44.18.69.32.09.06.14.12.14.18,0,.05-.04.1-.11.16-.13.09-.23.2-.3.32-.55.94-1.07,1.75-1.55,2.43.43.43.85.88,1.25,1.34.37-.56.79-1.25,1.27-2.08.2-.36.36-.72.46-1.05.27.09.5.2.7.32.08.05.12.11.12.17s-.04.13-.12.2c-.09.07-.28.32-.55.75-.89,1.44-1.81,2.79-2.77,4.05.63-.03,1.59-.1,2.88-.2-.21-.52-.44-.98-.67-1.38-.02-.03-.02-.05-.02-.07,0-.03.05-.07.16-.12l.18-.08c.08-.04.13-.06.16-.06.03,0,.06.03.09.08.44.79.83,1.66,1.16,2.62,0,.03.02.04.02.05,0,.04-.06.08-.19.13l-.18.09c-.09.04-.16.05-.19.05-.04,0-.07-.03-.09-.1-.05-.15-.12-.38-.23-.7-.18.03-.45.06-.8.09-.32.04-.56.07-.72.09v4.26l.02,2.41c0,.07-.03.11-.09.11h-.56c-.07,0-.11-.04-.11-.11l.03-2.41v-4.2c-.75.06-1.34.11-1.77.15-.3.02-.5.06-.59.12-.08.04-.14.06-.18.06-.06,0-.1-.07-.14-.2-.03-.1-.07-.34-.12-.72.32.04.62.05.91.05h.29c.36-.46.79-1.06,1.28-1.78Zm-2.4,7.52c.4-.92.67-1.9.8-2.93.05-.4.07-.68.07-.85v-.16c.26.04.48.09.66.14.13.05.2.1.2.15,0,.05-.03.11-.08.19-.07.1-.13.3-.18.61-.17,1.11-.41,2.1-.73,2.96-.04.12-.08.19-.12.19-.04,0-.1-.04-.2-.11-.12-.09-.26-.16-.41-.19Zm4.77-3.97c.07-.02.11-.03.13-.03.03,0,.05.02.07.06.39.95.68,1.99.88,3.12,0,.04,0,.06,0,.06,0,.05-.06.1-.19.15l-.2.08c-.11.05-.18.07-.2.07-.03,0-.05-.03-.05-.1-.16-1.06-.42-2.11-.8-3.15-.02-.03-.02-.05-.02-.07,0-.04.06-.08.2-.12l.18-.06Zm5.84-3.19c1.1,1,2.46,1.85,4.09,2.56-.13.11-.24.25-.32.41-.07.14-.13.21-.18.21-.03,0-.09-.02-.19-.07-1.58-.82-2.87-1.69-3.87-2.62-1.05,1.07-2.33,2-3.86,2.79-.1.05-.17.08-.2.08-.04,0-.09-.06-.17-.19-.1-.15-.21-.28-.34-.38,1.58-.71,2.94-1.64,4.08-2.8-.72-.75-1.29-1.59-1.73-2.5-.45.69-1,1.36-1.65,1.99-.08.08-.14.12-.17.12-.04,0-.11-.04-.2-.13-.09-.09-.23-.18-.4-.26,1.34-1.11,2.3-2.47,2.88-4.05.12-.35.2-.64.21-.86.27.05.5.11.72.2.1.04.15.1.15.16s-.04.13-.11.19c-.1.08-.19.22-.26.41-.12.29-.25.55-.36.78h3.25c.18,0,.3-.02.37-.05.04-.02.08-.03.12-.03.1,0,.22.08.37.24.14.15.21.26.21.32,0,.09-.04.16-.12.2-.1.05-.2.16-.29.34-.65,1.14-1.33,2.11-2.05,2.93Zm-2.62,7.63v.93c0,.06-.04.09-.12.09h-.5c-.07,0-.11-.03-.11-.09l.03-2.66v-1.19l-.03-1.66c0-.07.04-.11.11-.11l1.73.03h2.05l1.73-.03c.07,0,.11.04.11.11l-.03,1.49v1.38l.03,2.67c0,.06-.04.09-.11.09h-.52c-.07,0-.11-.03-.11-.09v-.96h-4.26Zm0-.64h4.26v-3.38h-4.26v3.38Zm2.13-7.48c.75-.86,1.39-1.81,1.9-2.84h-3.58s-.05.1-.13.23c.48.99,1.08,1.86,1.81,2.62Z"/>
          <path class="cls-1" d="m100.34,92h-4.73v1.92l.03,2.75c0,.08-.04.12-.11.12h-.58c-.07,0-.11-.04-.11-.12l.03-2.75v-1.92h-4.49c-.12,1.22-.34,2.23-.66,3.03-.23.58-.59,1.21-1.05,1.87-.08.1-.13.16-.16.16-.03,0-.09-.04-.19-.12-.14-.1-.31-.2-.52-.27.75-.94,1.27-1.95,1.54-3.04.28-1.12.41-2.71.41-4.75v-2.34l-.03-2.47c0-.07.04-.11.11-.11l2.29.03h6.56l2.32-.03c.07,0,.11.04.11.11l-.03,2.47v7.12l.02,2.13c0,.46-.15.8-.45,1.02-.27.19-.82.29-1.66.29h-.3c-.15,0-.23-.01-.26-.04-.02-.03-.04-.1-.06-.22-.04-.21-.12-.4-.24-.58.44.04.98.06,1.62.06.38,0,.58-.23.58-.69v-3.63Zm-9.91-.66h4.45v-3.01h-4.38v.53c0,1.02-.02,1.85-.06,2.48Zm.06-3.66h4.38v-3.02h-4.38v3.02Zm9.84,0v-3.02h-4.73v3.02h4.73Zm0,.66h-4.73v3.01h4.73v-3.01Z"/>
          <path class="cls-1" d="m30.69,102.52v-1.15h-2.76l-2.29.03c-.07,0-.11-.04-.11-.12v-.46c0-.07.04-.11.11-.11l2.29.03h6.53l2.29-.03c.07,0,.11.04.11.11v.46c0,.08-.04.12-.11.12l-2.29-.03h-3.05v1.15h4.12l2.21-.03c.08,0,.12.04.12.11l-.03.71v.59l.03,1.6c0,.08-.04.12-.12.12h-.52c-.07,0-.11-.04-.11-.12v-2.38h-5.71v1.76l.03,1.59c0,.07-.04.11-.11.11h-.56c-.07,0-.11-.04-.11-.11l.03-1.59v-1.76h-5.45v2.38c0,.08-.04.12-.11.12h-.53c-.07,0-.11-.04-.11-.12l.03-1.6v-.51l-.03-.79c0-.07.04-.11.11-.11l2.21.03h3.88Zm-.09,9.12h-3.76v.82c0,.07-.04.11-.11.11h-.52c-.06,0-.09-.04-.09-.11l.03-1.48v-2.2l-.03-1.49c0-.08.03-.12.09-.12l2.4.03h4.99l2.33-.03c.07,0,.11.04.11.12l-.03,1.4v1.48l.03,1.39c0,.07-.04.11-.11.11l-2.33-.03h-2.3v.62c0,.34.07.58.2.73.1.11.27.19.51.23.38.06,1.13.09,2.25.09,1.38,0,2.28-.14,2.7-.43.19-.12.32-.33.4-.62.08-.28.13-.71.15-1.28.17.13.34.23.52.3.13.06.2.12.2.2,0,.03,0,.08-.02.16-.06.6-.17,1.05-.34,1.34-.12.21-.29.39-.51.53-.48.31-1.51.46-3.08.46-1.26,0-2.17-.05-2.75-.16-.63-.11-.95-.56-.95-1.33v-.85Zm-3.02-7.6h.8l1.07-.03c.07,0,.11.04.11.12v.37c0,.07-.04.11-.11.11l-1.07-.03h-.8l-1.07.03c-.07,0-.11-.04-.11-.11v-.37c0-.08.04-.12.11-.12l1.07.03Zm0,1.45h.8l1.07-.03c.07,0,.11.04.11.11v.37c0,.07-.04.11-.11.11l-1.07-.03h-.8l-1.07.03c-.07,0-.11-.04-.11-.11v-.37c0-.07.04-.11.11-.11l1.07.03Zm3.02,3.6v-1.31h-3.76v1.31h3.76Zm0,.55h-3.76v1.43h3.76v-1.43Zm.7-.55h4v-1.31h-4v1.31Zm0,.55v1.43h4v-1.43h-4Zm2.48-5.59h.88l1.13-.03c.07,0,.11.04.11.12v.37c0,.07-.04.11-.11.11l-1.13-.03h-.88l-1.12.03c-.08,0-.12-.04-.12-.11v-.37c0-.08.04-.12.12-.12l1.12.03Zm0,1.45h.88l1.13-.03c.07,0,.11.04.11.11v.37c0,.07-.04.11-.11.11l-1.13-.03h-.88l-1.12.03c-.08,0-.12-.04-.12-.11v-.37c0-.07.04-.11.12-.11l1.12.03Z"/>
          <path class="cls-1" d="m43.89,103.7h-1.89l-1.68.03c-.07,0-.11-.04-.11-.11v-.48c0-.07.04-.11.11-.11l1.68.03h1.89l1.68-.03c.07,0,.11.04.11.11v.48c0,.07-.04.11-.11.11l-1.68-.03Zm-2.23,9.7v.84c0,.08-.04.12-.11.12h-.5c-.07,0-.11-.04-.11-.12l.03-2.33v-.95l-.03-1.36c0-.07.04-.11.11-.11l1.39.03h1.27l1.41-.03c.07,0,.11.04.11.11l-.03,1.11v1l.03,2.24c0,.07-.04.11-.11.11h-.48c-.07,0-.11-.04-.11-.11v-.56h-2.87Zm2.13-11.88h-1.31l-1.39.03c-.08,0-.12-.04-.12-.11v-.48c0-.07.04-.11.12-.11l1.39.03h1.31l1.41-.03c.07,0,.11.04.11.11v.48c0,.07-.04.11-.11.11l-1.41-.03Zm-.15,4.37h-1.15l-1.31.03c-.07,0-.11-.04-.11-.11v-.48c0-.07.04-.11.11-.11l1.31.03h1.15l1.31-.03c.08,0,.12.04.12.11v.48c0,.07-.04.11-.12.11l-1.31-.03Zm0,2.12h-1.15l-1.31.03c-.07,0-.11-.04-.11-.11v-.48c0-.08.04-.12.11-.12l1.31.03h1.15l1.31-.03c.08,0,.12.04.12.12v.48c0,.07-.04.11-.12.11l-1.31-.03Zm-1.98,4.78h2.87v-2.66h-2.87v2.66Zm8.62-10.78v3.12h1.79l2.16-.03c.07,0,.11.04.11.11v.52c0,.07-.04.11-.11.11l-2.16-.03h-1.79v2.81h1.02l1.89-.03c.07,0,.11.04.11.11l-.03,1.48v1.32l.03,2.66c0,.08-.04.12-.11.12h-.53c-.07,0-.11-.04-.11-.12v-.75h-5.07v.84c0,.08-.04.12-.11.12h-.53c-.07,0-.11-.04-.11-.12l.03-2.68v-1.2l-.03-1.66c0-.07.04-.11.11-.11l1.91.03h.81v-2.81h-1.44l-2.15.03c-.07,0-.11-.04-.11-.11v-.52c0-.07.04-.11.11-.11l2.15.03h1.44v-2.93c-.84.21-1.78.39-2.81.54-.06.01-.11.02-.13.02-.06,0-.12-.07-.19-.2-.08-.17-.19-.31-.32-.43,2.23-.22,4.17-.68,5.82-1.38.38-.17.66-.33.84-.48.21.16.39.33.55.5.06.06.09.12.09.19,0,.07-.08.11-.23.13-.15.02-.3.05-.45.11-.8.32-1.62.59-2.45.81Zm-2.8,10.75h5.07v-3.5h-5.07v3.5Z"/>
          <path class="cls-1" d="m57.86,103.66v-1.79c0-.88-.04-1.5-.11-1.84.23.02.5.04.81.09.12.02.18.06.18.12,0,.05-.03.15-.1.3-.05.1-.08.54-.08,1.3v1.82h.11l1.38-.03c.09,0,.13.04.13.11v.48c0,.07-.04.11-.13.11l-1.38-.03h-.05c.34,1.22.81,2.32,1.42,3.28-.11.11-.22.28-.34.48-.05.09-.09.14-.12.14-.02,0-.05-.05-.1-.16-.44-1.01-.78-2.04-1.02-3.09,0,2.16.04,4.41.09,6.76,0,.57.02,1.22.04,1.95,0,.35.02.54.02.56,0,.07-.04.11-.11.11h-.58c-.07,0-.11-.04-.11-.11,0-.02,0-.33.02-.95.07-2.93.11-5.7.12-8.3-.42,2.15-1.01,3.93-1.77,5.34-.05.1-.09.15-.12.15-.04,0-.08-.05-.13-.15-.08-.16-.2-.29-.35-.4.91-1.5,1.62-3.37,2.14-5.62h-.22l-1.39.03c-.08,0-.12-.04-.12-.11v-.48c0-.07.04-.11.12-.11l1.39.03h.37Zm8.72,8.55c-1.17.89-2.44,1.54-3.79,1.96-.11.04-.17.05-.2.05-.06,0-.12-.07-.18-.21-.06-.13-.16-.26-.32-.38,1.49-.34,2.88-1,4.16-1.97-.41-.82-.74-1.75-.98-2.77h-3.04c-.19,2.18-.92,3.87-2.2,5.05-.08.08-.14.12-.17.12-.04,0-.11-.05-.21-.14-.11-.11-.24-.19-.38-.24.79-.62,1.37-1.38,1.74-2.27.29-.7.47-1.54.55-2.52-.47,0-.89.01-1.23.02-.05,0-.14,0-.27,0h-.09c-.07,0-.11-.04-.11-.11v-.47c0-.07.04-.11.11-.11l2.26.03h2.9c-.39-1.79-.63-3.87-.74-6.24-.03-.85-.08-1.48-.17-1.9.34.02.61.04.8.08.14.02.21.07.21.14,0,.01-.03.11-.08.29-.04.1-.05.36-.05.78,0,.16,0,.34,0,.56.07,2.4.3,4.5.7,6.29h2.06l2.27-.03c.06,0,.09.04.09.11v.47c0,.07-.03.11-.09.11l-2.27-.03h-1.91c.23.97.51,1.74.84,2.32.41-.36.75-.72,1.02-1.07.22-.3.36-.56.43-.77.27.14.46.25.58.35.08.07.12.14.12.2s-.05.11-.15.16c-.12.06-.26.2-.45.42-.33.42-.75.84-1.24,1.28.32.5.66.9,1.01,1.19.31.25.57.38.8.38.25,0,.45-.17.57-.52.12-.33.21-.87.26-1.62.1.13.24.24.41.34.14.08.21.16.21.23,0,.02,0,.07-.02.17-.11.83-.28,1.4-.5,1.7-.2.29-.5.44-.89.44-.8,0-1.6-.62-2.38-1.87Zm-2.88-5.57c-.98.18-1.83.32-2.52.4-.3.04-.49.1-.58.16-.06.04-.12.06-.16.06-.07,0-.12-.05-.16-.16-.06-.19-.11-.4-.14-.64.13.01.33.02.57.02.35-.43.77-1.01,1.25-1.73-.66-.84-1.25-1.48-1.77-1.94-.04-.03-.05-.05-.05-.07,0-.03.03-.08.1-.16l.16-.16c.05-.06.09-.09.12-.09.02,0,.04.02.08.05.04.03.11.09.2.19.08.07.14.12.18.16.41-.57.76-1.16,1.05-1.77.09-.2.16-.41.21-.62.25.09.46.19.63.29.09.04.13.1.13.18,0,.06-.05.11-.15.17-.1.09-.19.18-.25.29-.42.75-.83,1.38-1.22,1.89.28.29.58.64.91,1.07.3-.45.51-.8.64-1.05.13-.25.22-.47.27-.67.21.09.42.21.62.35.08.06.12.11.12.16,0,.07-.04.13-.13.18-.12.07-.31.31-.57.72-.66.98-1.25,1.82-1.77,2.52.96-.11,1.63-.2,2.03-.26-.14-.31-.29-.59-.45-.82-.03-.03-.04-.06-.04-.08,0-.03.04-.06.13-.11l.22-.12c.05-.02.09-.03.1-.03.03,0,.05.02.08.06.34.55.63,1.15.88,1.8,0,.04.02.06.02.08,0,.04-.04.07-.12.11l-.21.1c-.08.04-.13.06-.15.06-.03,0-.05-.03-.07-.08-.05-.15-.11-.31-.2-.5Zm-.78,3.46c.58.34,1.1.71,1.57,1.12.03.03.04.05.04.07,0,.03-.02.07-.07.14l-.18.23c-.06.07-.1.11-.12.11s-.06-.02-.1-.06c-.44-.44-.95-.83-1.52-1.16-.04-.03-.06-.05-.06-.07s.04-.07.11-.16l.14-.17c.05-.06.08-.09.11-.09.02,0,.04.01.09.04Zm6.61-3.84c-1.11.19-1.99.32-2.64.4-.28.04-.47.09-.59.16-.06.04-.12.06-.16.06-.08,0-.13-.05-.16-.16-.03-.12-.08-.33-.14-.62.12.01.3.02.52.02.25-.31.62-.8,1.09-1.46-.59-.86-1.17-1.53-1.72-2-.04-.03-.05-.05-.05-.07s.04-.07.11-.15l.18-.18s.08-.07.09-.07.04.01.06.04c.09.08.24.22.44.41.38-.56.7-1.11.96-1.66.1-.2.17-.42.22-.64.25.09.47.19.64.29.09.06.13.11.13.16,0,.06-.05.11-.15.17-.08.04-.16.14-.25.29-.43.73-.82,1.33-1.17,1.79.26.28.55.64.88,1.08.4-.64.66-1.06.77-1.27.16-.3.26-.54.29-.7.23.1.44.22.62.35.08.06.12.11.12.16,0,.07-.05.13-.15.18-.13.07-.33.31-.59.72-.74,1.12-1.33,1.96-1.78,2.51.75-.06,1.48-.16,2.2-.28-.16-.31-.32-.57-.48-.79-.02-.03-.02-.05-.02-.07,0-.03.05-.07.14-.12l.17-.1c.06-.03.1-.04.12-.04.03,0,.06.02.09.07.38.53.72,1.16,1.02,1.91.02.03.02.05.02.07,0,.03-.04.07-.12.11l-.21.11c-.08.04-.13.06-.15.06s-.04-.03-.05-.08c-.09-.23-.19-.45-.29-.66Zm-1.68.59c.32.25.61.54.88.84.03.03.04.06.04.08s-.03.05-.09.1l-.14.12c-.08.07-.13.1-.16.1-.02,0-.05-.02-.09-.07-.27-.35-.57-.64-.9-.86-.04-.03-.05-.05-.05-.07,0-.03.05-.07.14-.14l.14-.11s.08-.05.11-.05c.02,0,.06.02.12.05Z"/>
          <path class="cls-1" d="m75.96,100.12c.3.09.56.2.78.32.1.05.15.1.15.16,0,.05-.04.12-.13.21-.1.1-.22.3-.34.59-.39.95-.78,1.81-1.16,2.58v7.73l.04,2.5c0,.07-.03.11-.1.11h-.59c-.07,0-.11-.04-.11-.11l.03-2.5v-4.22c0-.89,0-1.61.02-2.18-.54.94-1.14,1.8-1.81,2.58-.08.09-.14.13-.17.13-.03,0-.08-.04-.15-.12-.15-.18-.28-.3-.4-.37,1.56-1.66,2.78-3.77,3.68-6.35.16-.43.24-.78.26-1.05Zm3.26,4.66l-2.22.03c-.08,0-.12-.04-.12-.11v-.52c0-.07.04-.11.12-.11l2.22.03h3.78v-2.11c0-.87-.03-1.48-.1-1.84.3.02.58.05.84.09.13.02.2.07.2.13,0,.02-.04.11-.12.29-.05.15-.08.58-.08,1.31v2.12h.11l2.23-.03c.07,0,.11.04.11.11v.52c0,.07-.04.11-.11.11l-2.23-.03h-.11v5.73l.02,2.29c0,.47-.14.81-.41,1.02-.2.16-.79.24-1.77.24h-.45c-.14,0-.22-.01-.24-.04-.02-.03-.05-.1-.08-.22-.06-.24-.15-.43-.27-.58.49.05,1.09.08,1.77.08.27,0,.46-.05.55-.16.09-.1.14-.27.14-.5v-7.87h-3.78Zm-1.18,2.17l.27-.17c.05-.04.09-.05.1-.05.02,0,.05.02.08.05.81.89,1.48,1.83,2.03,2.84.02.03.02.05.02.07,0,.03-.04.08-.13.16l-.27.17c-.11.08-.18.12-.2.12s-.05-.03-.09-.08c-.51-1.05-1.15-2-1.92-2.87-.03-.03-.04-.05-.04-.07,0-.03.05-.08.16-.16Z"/>
          <path class="cls-1" d="m94.51,102.98c-.08-.22-.22-.64-.41-1.25-.14-.42-.32-.76-.55-1.02.38-.06.74-.09,1.07-.09.15,0,.23.06.23.18,0,.08,0,.16-.02.22,0,.03,0,.06,0,.09,0,.12.04.34.13.65.11.41.22.77.32,1.07,1.4-.29,2.59-.6,3.57-.93l.06-.02s.05.03.08.08c.07.15.11.3.12.45,0,.02,0,.03,0,.05,0,.07-.04.11-.13.14-.98.31-2.15.61-3.5.91.29.79.56,1.44.81,1.95,1.31-.28,2.38-.58,3.23-.9.04-.01.06-.02.09-.02.05,0,.09.03.11.09.06.19.1.34.11.45,0,.03,0,.05,0,.06,0,.07-.03.12-.1.14-.97.31-2.01.58-3.12.82.68,1.4,1.53,2.54,2.55,3.42.06.05.09.09.09.13,0,.03,0,.05-.02.09-.1.2-.2.36-.3.5-.05.06-.09.09-.14.09-.04,0-.09-.02-.16-.07-.19-.14-.58-.31-1.16-.52-.9-.32-1.91-.48-3.05-.48-.94,0-1.67.16-2.18.47-.47.29-.7.67-.7,1.16,0,.69.42,1.19,1.26,1.48.67.23,1.64.34,2.9.34.54,0,1.06-.03,1.57-.1.08,0,.12.03.12.1,0,.02,0,.04,0,.06-.03.17-.07.34-.12.51-.03.1-.08.16-.16.18-.48.05-.97.08-1.48.08-3.23,0-4.84-.87-4.84-2.61,0-.78.38-1.38,1.12-1.81.64-.37,1.47-.55,2.49-.55,1.46,0,2.63.2,3.5.61-.81-.96-1.47-1.93-2-2.91-1.71.31-3.25.49-4.61.55-.09,0-.15-.05-.17-.14-.06-.25-.1-.44-.12-.56,1.54-.06,3.06-.24,4.56-.53-.27-.57-.53-1.23-.8-1.97-1.29.25-2.71.42-4.26.5-.11,0-.17-.05-.2-.14-.03-.18-.06-.38-.09-.58,1.31-.03,2.75-.18,4.34-.44Z"/>
        </g>
        <path class="cls-1" d="m40.4,24.15c-.09-2.88.12-5.76.72-8.57.26-1.22,1.34-2.65,2.45-3.2,2.51-1.26,6.81-2.49,9.29-.65.7.52,1.25,1.22,1.78,1.91,1.26,1.65,2.68,3.78,2.67,5.94,0,.4-.1.8-.19,1.19-.1.42-.2.84-.3,1.26-.23.99-.36,1.81-.7,2.78-.37,1.07-.72,2.15-.96,3.25-.47,2.22-.43,4.51.56,6.58,1.61,3.37,3.66,6.59,5.89,9.59,1.61,2.16,3.8,3.92,5.83,5.75,1.55,1.4,3.37,1.66,5.34.79,1.77-.78,4.01.37,5.5,1.53,1.82,1.42,2.73,3.7,3.09,5.92.37,2.27.63,4.92-1.52,6.34-1.12.74-2.43,1.22-3.71,1.65-1.49.5-3.02,1.02-4.56,1.28-1.55.26-2.89-.1-4.05-.53-.48-.18-1.24-.46-1.69-.69-.64-.32-.89-.45-1.35-.85-.26-.22-.59-.45-.9-.6-.34-.17-.49-.36-.85-.49-.98-.36-1.98-1.31-3.08-2.09-2.84-1.99-4.84-4.03-6.83-6.67-1.4-1.86-2.98-3.61-4.2-5.58-1.65-2.65-3.27-5.36-4.49-8.23-1.16-2.73-1.97-5.64-2.59-8.54-.63-2.97-1.05-6.02-1.14-9.07Zm1.67.76c.08,2.21.32,4.4.73,6.56.88,4.58,1.83,8.96,4.05,13.12.42.79.87,1.56,1.36,2.31,1.7,2.64,3.61,5.14,5.54,7.62,2.96,3.8,6.33,6.84,10.43,9.36,2.33,1.43,4.7,3.03,7.63,2.34,2.19-.52,4.37-1.19,6.45-2.04,3.9-1.59,2.14-6.88.36-9.4-.67-.95-1.51-1.8-2.54-2.33-1.41-.71-2.75-.54-4.16.02-1.58.64-3.13.53-4.47-.44-1.6-1.16-3.21-2.37-4.54-3.82-3.5-3.81-6.22-8.19-8.44-12.84-.73-1.52-.99-3.41-.95-5.12.05-1.89.65-3.78,1.1-5.65.29-1.21.89-2.36,1.09-3.58,0-1.59.03-2.84-.83-4.27-.86-1.43-2.04-2.6-3.17-3.82-.27-.29-.56-.6-.93-.75-.4-.16-.84-.13-1.27-.08-1.73.21-3.8.97-5.3,1.86-.73.43-1.49,1.35-1.62,2.15-.45,2.89-.63,5.85-.53,8.8Z"/>
      </g>
    </g>
  </g>
</svg>