<?xml version="1.0" encoding="UTF-8"?>
<svg id="_レイヤー_2" data-name="レイヤー 2" xmlns="http://www.w3.org/2000/svg" xmlns:xlink="http://www.w3.org/1999/xlink" viewBox="0 0 125.15 125.15">
  <defs>
    <style>
      .cls-1 {
        fill: #fff;
      }

      .cls-2 {
        stroke: #fff;
        stroke-miterlimit: 10;
        stroke-width: 5px;
      }

      .cls-2, .cls-3 {
        fill: none;
      }

      .cls-4 {
        clip-path: url(#clippath);
      }
    </style>
    <clipPath id="clippath">
      <rect class="cls-3" width="125.15" height="125.15"/>
    </clipPath>
  </defs>
  <g id="_レイヤー_1-2" data-name="レイヤー 1">
    <g class="cls-4">
      <g>
        <g>
          <path class="cls-1" d="m26.03,29.57l-2.52.04c-.11,0-.18-.01-.2-.04s-.03-.08-.03-.18v-1.45c0-.1.01-.17.04-.19.03-.02.09-.03.19-.03l2.52.04h1.89c.04-.38.06-.79.06-1.24-.94.15-1.72.25-2.33.31-.18.03-.31.04-.38.04-.13,0-.22-.04-.27-.11-.04-.05-.09-.16-.15-.33-.14-.4-.35-.78-.62-1.15,2.62-.23,4.6-.56,5.95-.98.41-.14.74-.29,1-.44.44.3.87.66,1.3,1.09.12.12.19.22.19.3,0,.12-.12.2-.36.22-.05,0-.32.07-.8.2-.61.19-1.09.32-1.43.4-.03.76-.06,1.32-.1,1.68h4.46v-.56c0-1.18-.05-2.16-.15-2.92.76.02,1.46.07,2.08.14.2.02.3.08.3.2,0,.08-.02.17-.05.26-.04.11-.06.19-.07.22-.05.23-.08.92-.08,2.08v.58h1.82l2.52-.04c.1,0,.17.01.2.04.02.03.03.08.03.18v1.45c0,.1-.01.16-.03.18-.02.02-.09.03-.19.03l-2.52-.04h-1.82v1.9l.04,2.41c0,.11-.02.18-.05.2-.03.02-.09.03-.2.03h-1.66c-.1,0-.17-.01-.19-.04s-.03-.09-.03-.19l.04-2.41v-1.9h-4.75c-.28,1.19-.78,2.16-1.48,2.89-.64.67-1.51,1.21-2.61,1.63-.26.09-.42.14-.47.14-.12,0-.28-.16-.46-.48-.27-.46-.62-.86-1.05-1.2,1.23-.34,2.14-.76,2.74-1.24.56-.44.96-1.02,1.21-1.74h-1.53Zm9.83-12.92l2.77-.04c.1,0,.17.01.2.04.02.03.03.08.03.18l-.04,1.87v2.94l.04,1.86c0,.12-.02.19-.05.21-.02.02-.08.03-.18.03l-2.77-.04h-7.48l-2.78.04c-.1,0-.17-.01-.19-.04-.02-.03-.03-.1-.03-.21l.04-1.86v-2.94l-.04-1.87c0-.1.01-.17.04-.19.03-.02.08-.03.18-.03l2.78.04h7.48Zm.94,1.66h-9.36v1.11h9.36v-1.11Zm0,3.8v-1.14h-9.36v1.14h9.36Z"/>
          <path class="cls-1" d="m45.88,28.46c.08,0,.15,0,.22,0,1.06,0,1.59-.47,1.59-1.41,0-1.15-.58-2.5-1.73-4.04.68-1.48,1.24-3.04,1.66-4.66h-1.92v11.32l.02,4.28c0,.11,0,.18-.03.2-.03.02-.09.03-.19.03h-1.59c-.13,0-.2-.08-.2-.22l.02-4.26v-8.66l-.02-4.33c0-.15.06-.22.2-.22l1.61.04h2.54c.19,0,.32-.02.4-.06s.16-.06.25-.06c.15,0,.4.19.76.58.32.36.48.63.48.8,0,.12-.06.24-.18.34-.12.12-.24.39-.36.8-.53,1.59-1.03,2.91-1.5,3.96.7.96,1.17,1.83,1.41,2.6.18.58.27,1.23.27,1.96,0,1.69-.87,2.62-2.62,2.79-.16.01-.26.02-.3.02-.16,0-.26-.04-.3-.13-.03-.06-.05-.21-.08-.47-.06-.53-.2-.93-.42-1.2Zm3.53-8.03c1.45-.82,2.72-2,3.82-3.53.25-.36.43-.73.54-1.11.35.07.92.2,1.72.4.19.06.28.14.28.23,0,.07-.05.15-.16.26-.16.12-.3.28-.42.48l-.28.42h3.38c.18,0,.32-.02.42-.06l.2-.08c.16,0,.4.15.72.46.36.33.54.58.54.74s-.08.28-.24.36c-.13.07-.3.26-.5.56-.65.87-1.38,1.65-2.2,2.36,1.17.53,2.62.97,4.37,1.34-.21.34-.38.73-.52,1.16-.08.26-.14.42-.18.48s-.1.09-.2.09c-.07,0-.21-.03-.41-.08-1.77-.46-3.32-1.08-4.64-1.85-1.45.92-3.1,1.59-4.96,2.01-.21.05-.36.07-.43.07-.1,0-.19-.05-.25-.14-.04-.06-.1-.2-.2-.42-.16-.4-.37-.74-.64-1.04,1.91-.4,3.52-.94,4.84-1.64-.53-.44-1.03-.94-1.5-1.52-.52.48-1,.86-1.44,1.15-.26.18-.42.26-.49.26-.08,0-.22-.15-.42-.44-.27-.44-.52-.76-.75-.96Zm5.9,3.7c.51.01,1.17.07,1.98.16.19.02.28.09.28.22,0,.02-.03.11-.1.27-.08.18-.13.56-.13,1.12h.38l2.56-.04c.15,0,.22.07.22.2v1.35c0,.1-.01.16-.04.18-.03.02-.09.03-.19.03l-2.56-.04h-.38v2.22h.88l2.72-.04c.14,0,.21.07.21.2v1.37c0,.1-.01.16-.03.18-.02.02-.08.03-.18.03l-2.72-.04h-.88v.04l.04,2.42c0,.12-.01.19-.04.21-.03.03-.08.04-.18.04h-1.55c-.1,0-.17-.02-.19-.05-.02-.03-.03-.09-.03-.2l.04-2.42v-.04h-3.35l-2.69.04c-.12,0-.19-.01-.21-.04-.03-.03-.04-.08-.04-.18v-1.37c0-.09.02-.15.05-.17.03-.02.09-.03.2-.03l2.1.04v-2.2l-.88.02c-.1,0-.17-.02-.2-.05-.02-.03-.03-.09-.03-.19v-1.33c0-.13.07-.2.22-.2l2.57.04h2.25c-.02-.64-.07-1.23-.14-1.78Zm-1.91,5.67h2.05v-2.22h-2.05v2.22Zm4.01-10.65h-3.68l-.04.04c.5.66,1.11,1.25,1.84,1.76.73-.56,1.36-1.16,1.88-1.8Z"/>
          <path class="cls-1" d="m81.64,31.44c-.27.43-.43.92-.5,1.48-.05.33-.11.52-.19.58-.07.05-.25.08-.56.1-2.17.12-4.5.19-6.99.19-2.29,0-3.85-.17-4.69-.52-.89-.37-1.58-.96-2.08-1.77-.58.59-1.21,1.16-1.9,1.71-.22.16-.38.3-.48.42-.07.09-.16.14-.25.14-.11,0-.21-.08-.28-.24-.22-.4-.5-1.02-.82-1.84.46-.2.85-.42,1.18-.64.5-.31,1.03-.73,1.58-1.26v-4.46h-.91l-1.42.05c-.12,0-.19-.02-.21-.05-.03-.03-.04-.09-.04-.2v-1.52c0-.1.02-.17.05-.19.03-.02.09-.03.2-.03l1.42.04h1.18l1.48-.04c.1,0,.17.01.2.04.02.03.03.08.03.18l-.04,1.94v4.34c.38.77.98,1.31,1.78,1.62.7.24,1.94.36,3.7.36,2.9,0,5.75-.14,8.55-.42Zm-16.45-14.88c1,.91,1.83,1.88,2.5,2.92.04.07.07.13.07.17,0,.06-.06.13-.18.21l-1.11.95c-.1.09-.18.14-.24.14-.05,0-.1-.05-.18-.14-.69-1.15-1.51-2.19-2.46-3.12-.05-.05-.08-.1-.08-.14,0-.05.06-.12.18-.21l1.08-.78c.08-.07.16-.1.23-.1s.13.03.19.1Zm16.18,12.03c-.35.45-.6.92-.76,1.4-.11.33-.22.5-.32.5-.09,0-.26-.06-.5-.18-2.03-.97-3.54-2.23-4.56-3.78.01.81.04,1.78.08,2.91.03.87.05,1.37.05,1.48,0,.1-.01.17-.03.19-.02.02-.09.03-.19.03h-1.52c-.1,0-.17-.02-.19-.05-.02-.02-.03-.08-.03-.18,0-.09,0-.65.03-1.68.03-.94.04-1.78.05-2.52-.96,1.43-2.22,2.6-3.76,3.5-.28.16-.44.24-.49.24-.08,0-.22-.16-.4-.48-.22-.38-.53-.75-.92-1.08,1.89-.75,3.39-1.83,4.48-3.23h-.44l-2.65.04c-.1,0-.17-.01-.19-.04s-.03-.09-.03-.19l.04-1.48v-1.58l-.04-1.44c0-.11.01-.18.04-.2.03-.02.08-.03.18-.03l2.65.04h1.46v-1.26h-2.25l-2.76.04c-.1,0-.17-.02-.19-.05-.02-.03-.03-.09-.03-.19v-1.39c0-.13.07-.2.21-.2l2.76.04h2.25v-.1c0-.74-.05-1.34-.15-1.81.81.03,1.46.06,1.97.11.21.02.32.09.32.21,0,.05-.04.16-.13.32-.08.18-.12.57-.12,1.18v.08h2.71l2.75-.04c.15,0,.22.07.22.2v1.39c0,.11-.01.18-.04.21-.03.02-.09.03-.19.03l-2.75-.04h-2.71v1.26h1.72l2.62-.04c.1,0,.17.01.2.04.02.03.03.09.03.19l-.05,1.44v1.58l.05,1.48c0,.1-.01.17-.03.19-.02.02-.09.03-.19.03l-2.62-.04h-.7c.67.72,1.44,1.32,2.29,1.79.73.4,1.64.78,2.74,1.13Zm-10.4-4.38h2.44v-1.9h-2.44v1.9Zm6.98,0v-1.9h-2.64v1.9h2.64Z"/>
          <path class="cls-1" d="m86.67,19.38v2.9c0,2.51-.11,4.6-.34,6.28-.24,1.77-.78,3.46-1.62,5.08-.14.25-.24.38-.32.38-.05,0-.19-.11-.4-.32-.48-.52-.91-.91-1.3-1.15.84-1.37,1.38-2.97,1.62-4.79.2-1.54.3-3.48.3-5.84l-.04-4.1c0-.1.01-.17.04-.19.02-.02.08-.03.18-.03l2.68.04h4.19v-.2c0-.71-.05-1.25-.15-1.62.71.01,1.42.05,2.13.12.23.02.34.08.34.2,0,.09-.05.22-.15.38-.08.14-.13.43-.13.86v.26h4.27l2.68-.04c.1,0,.17.01.19.04.01.02.02.08.02.18v1.37c0,.12-.01.19-.04.21-.02.02-.08.03-.17.03l-2.68-.04h-11.3Zm14.51,12.9c-.28.34-.49.77-.62,1.29-.07.25-.13.41-.19.48s-.16.1-.29.1-.25,0-.34-.02c-2.42-.22-4.48-.75-6.2-1.58-1.76.85-3.85,1.41-6.28,1.66-.1.01-.22.02-.36.02s-.22-.04-.28-.12c-.05-.07-.1-.21-.18-.42-.18-.51-.39-.9-.63-1.14,2.19-.15,4.13-.54,5.82-1.18-1.05-.76-1.98-1.72-2.78-2.86l-1.24.02c-.1,0-.17-.01-.2-.04-.02-.03-.03-.09-.03-.19v-1.17c0-.11.02-.18.05-.2.02-.02.08-.03.18-.03l2.68.04h6.33c.17,0,.32-.03.46-.08.1-.04.18-.06.23-.06.14,0,.41.17.81.52.47.39.7.66.7.82,0,.12-.09.25-.28.38-.19.11-.45.35-.78.72-.68.8-1.44,1.51-2.29,2.14,1.51.48,3.42.77,5.72.9Zm-.84-11c.1,0,.17.01.19.04s.03.08.03.18v1.25c0,.1-.01.17-.04.19-.03.02-.08.03-.18.03l-2.78-.04h-.52v.73l.05,2c0,.11-.02.18-.05.2-.02.02-.08.03-.18.03l-2.07-.04h-2.56l-2.06.04c-.12,0-.19-.01-.21-.04s-.03-.09-.03-.19l.04-2v-.73h-.26l-2.31.04c-.11,0-.18-.01-.2-.04s-.03-.08-.03-.18v-1.25c0-.1.01-.17.04-.19.03-.02.09-.03.19-.03l2.31.04h.26c0-.71-.04-1.23-.11-1.56.71.03,1.34.07,1.9.13.18.02.26.08.26.18,0,.07-.04.19-.11.34-.05.14-.08.44-.08.92h3.3c0-.57-.03-1.09-.1-1.56.72.03,1.35.07,1.88.13.19.02.28.08.28.18,0,.05-.01.1-.04.18-.03.08-.05.14-.06.17-.05.12-.08.43-.08.92h.52l2.78-.04Zm-4.46,7.2h-4.86c.69.81,1.5,1.48,2.44,2.02.99-.59,1.8-1.26,2.42-2.02Zm-.72-4.14v-1.42h-3.3v1.42h3.3Z"/>
        </g>
        <g>
          <path class="cls-1" d="m17.55,55.9v-10.05c0-1.02-.03-1.74-.09-2.18.32.02.61.04.88.09.12.02.18.06.18.12,0,.08-.02.17-.06.29-.08.2-.12.72-.12,1.55v3.2h3.2l2.16-.03c.07,0,.11.04.11.11v.59c0,.07-.04.11-.11.11l-2.16-.03h-3.2v6.23h4.59l2.14-.03c.07,0,.11.04.11.11v.61c0,.07-.04.11-.11.11l-2.14-.03h-9.07l-2.15.03c-.07,0-.11-.04-.11-.11v-.61c0-.07.04-.11.11-.11l2.15.03h3.7Z"/>
          <path class="cls-1" d="m31.39,53.66h-1.58l-2.13.03c-.07,0-.11-.04-.11-.11v-.5c0-.07.04-.11.11-.11l2.13.03h1.7c.04-.38.07-.96.09-1.74-.77.19-1.58.35-2.45.48-.08.01-.14.02-.17.02-.06,0-.12-.06-.18-.17-.09-.17-.19-.32-.3-.44,1.98-.25,3.55-.6,4.7-1.07.22-.08.42-.2.61-.35.21.13.39.26.55.4.07.06.11.12.11.18,0,.07-.08.11-.23.12-.1.01-.27.07-.51.16-.29.11-.75.27-1.4.46-.02.71-.05,1.36-.11,1.95h4.35v-1.02c0-.96-.04-1.66-.11-2.09.21.01.48.04.81.08.1.02.16.06.16.12,0,.05-.02.13-.06.24-.06.21-.09.75-.09,1.62v1.05h1.82l2.15-.03c.07,0,.11.04.11.11v.5c0,.07-.04.11-.11.11l-2.15-.03h-1.82v1.8l.03,1.92c0,.07-.04.11-.11.11h-.55c-.07,0-.11-.04-.11-.11l.03-1.92v-1.8h-4.46c-.21,1.07-.61,1.92-1.2,2.55-.54.58-1.29,1.04-2.25,1.38-.1.04-.17.05-.2.05-.05,0-.12-.07-.2-.2-.1-.15-.25-.29-.43-.41,1.15-.33,1.99-.77,2.53-1.33.49-.5.83-1.19,1.02-2.05Zm.37-9.53h5.29l2.29-.03c.07,0,.11.04.11.11l-.03,1.47v2l.03,1.48c0,.08-.04.12-.11.12l-2.29-.03h-5.29l-2.29.03c-.07,0-.11-.04-.11-.12l.03-1.48v-2l-.03-1.47c0-.07.04-.11.11-.11l2.29.03Zm-1.66,2.22h8.62v-1.58h-8.62v1.58Zm0,.62v1.63h8.62v-1.63h-8.62Z"/>
          <path class="cls-1" d="m47.55,47.55c.21-1.05.65-1.84,1.32-2.36.56-.44,1.25-.66,2.08-.66.98,0,1.75.29,2.33.88.52.53.77,1.21.77,2.06,0,.68-.19,1.31-.55,1.88-.35.53-.97,1.2-1.86,2-1.51,1.32-2.56,2.64-3.17,3.95h5.6v.88h-6.61v-.79c.66-1.58,1.81-3.13,3.46-4.63.88-.82,1.45-1.47,1.73-1.95.23-.41.35-.86.35-1.35,0-.68-.22-1.21-.65-1.59-.37-.32-.84-.48-1.41-.48-1.31,0-2.1.8-2.38,2.4l-1.01-.26Z"/>
          <path class="cls-1" d="m59.76,44.52c2.27,0,3.41,1.96,3.41,5.88s-1.15,6-3.45,6-3.41-1.99-3.41-5.97,1.15-5.91,3.45-5.91Zm0,.88c-.87,0-1.48.43-1.85,1.29-.35.8-.52,2.04-.52,3.7,0,1.92.22,3.29.66,4.09.37.68.93,1.02,1.68,1.02.86,0,1.48-.45,1.86-1.35.34-.82.52-2.07.52-3.75,0-1.9-.22-3.24-.66-4.02-.37-.66-.93-.98-1.67-.98Z"/>
          <path class="cls-1" d="m67.86,48.19v1.48c.83-1.12,1.73-1.68,2.7-1.68.58,0,1.07.18,1.47.53.34.3.55.68.61,1.13.81-1.11,1.72-1.66,2.72-1.66.7,0,1.25.23,1.65.68.35.4.53.93.53,1.58v5.94h-.99v-5.52c0-1.18-.49-1.77-1.46-1.77-.44,0-.89.17-1.35.52-.39.29-.73.67-1.03,1.15v5.63h-.99v-5.52c0-1.18-.47-1.77-1.41-1.77-.44,0-.89.16-1.34.49-.4.29-.76.68-1.08,1.17v5.63h-.98v-8h.95Z"/>
          <path class="cls-1" d="m87.57,43.18l-6.23,14.66h-.8l6.23-14.66h.8Z"/>
          <path class="cls-1" d="m90.48,48.19v1.48c.83-1.12,1.73-1.68,2.7-1.68.58,0,1.07.18,1.47.53.34.3.55.68.61,1.13.81-1.11,1.72-1.66,2.72-1.66.7,0,1.25.23,1.65.68.35.4.53.93.53,1.58v5.94h-.99v-5.52c0-1.18-.49-1.77-1.46-1.77-.44,0-.89.17-1.35.52-.39.29-.73.67-1.03,1.15v5.63h-.99v-5.52c0-1.18-.47-1.77-1.41-1.77-.44,0-.89.16-1.34.49-.4.29-.76.68-1.08,1.17v5.63h-.98v-8h.95Z"/>
          <path class="cls-1" d="m104.54,44.97v1.49h-1.47v-1.49h1.47Zm-.23,3.22v8h-.99v-8h.99Z"/>
          <path class="cls-1" d="m108.47,48.19v1.48c.9-1.12,1.87-1.68,2.92-1.68.72,0,1.29.23,1.7.68.36.4.55.93.55,1.58v5.94h-1.01v-5.52c0-1.18-.5-1.77-1.48-1.77-.93,0-1.81.55-2.64,1.66v5.63h-.99v-8h.96Z"/>
        </g>
        <g>
          <path class="cls-1" d="m18.44,63.81v2.48c1.66.64,3.33,1.5,5.01,2.61.05.03.07.06.07.09,0,.04-.03.1-.09.18l-.18.26c-.08.12-.14.18-.18.18-.02,0-.05-.01-.09-.04-1.57-1.06-3.09-1.9-4.55-2.52v5.95l.03,2.69c0,.07-.04.11-.11.11h-.62c-.07,0-.11-.04-.11-.11l.03-2.69v-9.19h-3.91l-2.12.03c-.07,0-.11-.04-.11-.11v-.58c0-.07.04-.11.11-.11l2.12.03h9.25l2.12-.03c.07,0,.11.04.11.11v.58c0,.07-.04.11-.11.11l-2.12-.03h-4.56Z"/>
          <path class="cls-1" d="m31.29,63.04h-2.48v9.57l.03,3.27c0,.06-.04.09-.11.09h-.56c-.07,0-.11-.03-.11-.09l.03-3.23v-6.91l-.03-3.27c0-.07.04-.11.11-.11l1.16.03h1.8c.2,0,.34-.01.4-.03.07-.02.11-.03.14-.03.07,0,.18.07.34.21.17.17.26.29.26.37,0,.04-.04.1-.11.17-.12.11-.21.28-.29.5-.53,1.28-1.08,2.44-1.63,3.48.71.85,1.2,1.59,1.45,2.2.2.47.3.96.3,1.46,0,.67-.16,1.17-.49,1.5-.34.34-.88.53-1.61.56-.05,0-.09,0-.1,0-.08,0-.13-.02-.15-.05-.02-.03-.04-.09-.07-.2-.04-.18-.11-.33-.2-.44.11.01.23.02.34.02,1.06,0,1.59-.46,1.59-1.39,0-.52-.14-1.05-.43-1.61-.27-.52-.73-1.19-1.37-2.01.75-1.43,1.35-2.78,1.79-4.06Zm6.09,6.77v-.24c0-.62-.03-1.13-.09-1.53.23.01.49.04.77.08.1.02.16.06.16.12,0,.05-.02.12-.06.21-.06.15-.09.5-.09,1.05v.3h.62l2.08-.03c.07,0,.11.04.11.11v.48c0,.07-.04.11-.11.11l-2.08-.03h-.62v2.48h1.13l2.24-.03c.07,0,.11.04.11.11v.5c0,.07-.04.11-.11.11l-2.24-.03h-1.13v.32l.03,1.95c0,.06-.04.09-.11.09h-.52c-.07,0-.11-.03-.11-.09l.03-1.95v-.32h-3.12l-2.22.03c-.08,0-.12-.04-.12-.11v-.5c0-.07.04-.11.12-.11l2.08.03v-2.48c-.28,0-.54.01-.77.02-.15,0-.23,0-.24,0-.07,0-.11-.04-.11-.11v-.48c0-.07.04-.11.11-.11l2.08.03h2.2Zm.38-3.36c.97.65,2.33,1.24,4.09,1.77-.14.17-.23.3-.27.4-.06.15-.12.23-.17.23-.03,0-.09-.02-.18-.05-1.71-.59-3.05-1.23-4.02-1.94-1.16.84-2.63,1.53-4.41,2.06-.09.03-.16.05-.19.05-.05,0-.12-.07-.2-.2-.07-.12-.17-.24-.3-.34,1.9-.54,3.42-1.21,4.56-2-.64-.56-1.22-1.22-1.76-2-.52.62-1.15,1.21-1.89,1.76-.1.07-.17.11-.2.11-.04,0-.1-.06-.18-.17-.1-.14-.22-.24-.35-.3,1.33-.83,2.4-1.94,3.21-3.31.21-.36.33-.68.37-.95.22.05.46.13.71.24.08.03.12.08.12.16,0,.05-.05.12-.16.21-.09.08-.18.19-.27.34-.21.34-.35.57-.44.69h3.49c.16,0,.27-.02.35-.05.07-.02.1-.03.11-.03.1,0,.22.08.37.23.14.14.21.24.21.32,0,.08-.04.15-.12.19-.09.05-.21.16-.34.34-.69.9-1.41,1.65-2.15,2.26Zm-.38,4h-2.59v2.48h2.59v-2.48Zm-.18-4.41c.77-.62,1.49-1.37,2.15-2.24h-3.92l-.11.16c.57.84,1.2,1.54,1.88,2.09Z"/>
          <path class="cls-1" d="m47.55,65.07c.3-.76.75-1.33,1.38-1.71.53-.33,1.15-.5,1.86-.5.96,0,1.73.29,2.33.88.53.51.79,1.15.79,1.91s-.22,1.38-.66,1.86c-.38.41-.89.69-1.53.84v.1c.83.19,1.47.57,1.9,1.14.38.5.57,1.11.57,1.82,0,1.06-.35,1.9-1.06,2.52-.61.54-1.38.8-2.3.8-1.68,0-2.85-.73-3.49-2.18l.96-.41c.28.66.64,1.12,1.09,1.38.38.23.86.34,1.45.34.74,0,1.33-.25,1.75-.75.37-.44.55-1,.55-1.68,0-.85-.27-1.5-.8-1.93-.48-.39-1.16-.59-2.02-.59h-.9v-.91h.8c.91,0,1.6-.23,2.06-.7.4-.4.59-.92.59-1.59s-.22-1.18-.67-1.55c-.38-.3-.85-.45-1.43-.45s-1.04.16-1.45.48c-.37.3-.64.71-.8,1.24l-.96-.38Z"/>
          <path class="cls-1" d="m59.76,62.86c2.27,0,3.41,1.96,3.41,5.88s-1.15,6-3.45,6-3.41-1.99-3.41-5.97,1.15-5.91,3.45-5.91Zm0,.88c-.87,0-1.48.43-1.85,1.29-.35.8-.52,2.04-.52,3.7,0,1.92.22,3.29.66,4.09.37.68.93,1.02,1.68,1.02.86,0,1.48-.45,1.86-1.35.34-.82.52-2.07.52-3.75,0-1.9-.22-3.24-.66-4.02-.37-.66-.93-.98-1.67-.98Z"/>
          <path class="cls-1" d="m67.86,66.53v1.48c.83-1.12,1.73-1.68,2.7-1.68.58,0,1.07.18,1.47.53.34.3.55.68.61,1.13.81-1.11,1.72-1.66,2.72-1.66.7,0,1.25.23,1.65.68.35.4.53.93.53,1.58v5.94h-.99v-5.52c0-1.18-.49-1.77-1.46-1.77-.44,0-.89.17-1.35.52-.39.29-.73.67-1.03,1.15v5.63h-.99v-5.52c0-1.18-.47-1.77-1.41-1.77-.44,0-.89.16-1.34.49-.4.29-.76.68-1.08,1.17v5.63h-.98v-8h.95Z"/>
          <path class="cls-1" d="m87.57,61.52l-6.23,14.66h-.8l6.23-14.66h.8Z"/>
          <path class="cls-1" d="m90.48,66.53v1.48c.83-1.12,1.73-1.68,2.7-1.68.58,0,1.07.18,1.47.53.34.3.55.68.61,1.13.81-1.11,1.72-1.66,2.72-1.66.7,0,1.25.23,1.65.68.35.4.53.93.53,1.58v5.94h-.99v-5.52c0-1.18-.49-1.77-1.46-1.77-.44,0-.89.17-1.35.52-.39.29-.73.67-1.03,1.15v5.63h-.99v-5.52c0-1.18-.47-1.77-1.41-1.77-.44,0-.89.16-1.34.49-.4.29-.76.68-1.08,1.17v5.63h-.98v-8h.95Z"/>
          <path class="cls-1" d="m104.54,63.31v1.49h-1.47v-1.49h1.47Zm-.23,3.22v8h-.99v-8h.99Z"/>
          <path class="cls-1" d="m108.47,66.53v1.48c.9-1.12,1.87-1.68,2.92-1.68.72,0,1.29.23,1.7.68.36.4.55.93.55,1.58v5.94h-1.01v-5.52c0-1.18-.5-1.77-1.48-1.77-.93,0-1.81.55-2.64,1.66v5.63h-.99v-8h.96Z"/>
        </g>
        <g>
          <line class="cls-2" x1="53.94" y1="109.36" x2="53.94" y2="96.04"/>
          <polygon class="cls-1" points="60.67 98.01 53.94 86.36 47.21 98.01 60.67 98.01"/>
        </g>
        <g>
          <line class="cls-2" x1="73.34" y1="99.67" x2="73.34" y2="86.36"/>
          <polygon class="cls-1" points="80.07 97.7 73.34 109.36 66.61 97.7 80.07 97.7"/>
        </g>
      </g>
    </g>
  </g>
</svg>