<?xml version="1.0" encoding="UTF-8"?>
<svg id="_レイヤー_2" data-name="レイヤー 2" xmlns="http://www.w3.org/2000/svg" xmlns:xlink="http://www.w3.org/1999/xlink" viewBox="0 0 687 968.64">
  <defs>
    <style>
      .cls-1 {
        fill: #231815;
        font-family: Meiryo-Bold, Meiryo;
        font-size: 20px;
      }

      .cls-1, .cls-2 {
        font-weight: 700;
      }

      .cls-3 {
        letter-spacing: .19em;
      }

      .cls-4, .cls-5, .cls-6 {
        fill: #333;
      }

      .cls-4, .cls-5, .cls-6, .cls-7 {
        font-family: YuGothic-Regular, 'Yu Gothic';
      }

      .cls-4, .cls-7 {
        font-size: 13px;
      }

      .cls-2 {
        font-family: YuGothic-Bold, 'Yu Gothic';
        font-size: 21px;
      }

      .cls-2, .cls-8, .cls-7 {
        fill: #040000;
      }

      .cls-5 {
        font-size: 12px;
      }

      .cls-9 {
        letter-spacing: .25em;
      }

      .cls-10 {
        letter-spacing: -.4em;
      }

      .cls-11 {
        letter-spacing: .1em;
      }

      .cls-12 {
        letter-spacing: .35em;
      }

      .cls-13 {
        letter-spacing: .31em;
      }

      .cls-8 {
        font-family: YuGothic-Light, 'Yu Gothic';
        font-size: 18px;
        font-weight: 300;
      }

      .cls-14 {
        letter-spacing: .06em;
      }

      .cls-15 {
        letter-spacing: .35em;
      }

      .cls-16 {
        letter-spacing: -.4em;
      }

      .cls-6 {
        font-size: 14px;
      }

      .cls-17 {
        letter-spacing: .1em;
      }

      .cls-18 {
        clip-path: url(#clippath);
      }

      .cls-19 {
        letter-spacing: 0em;
      }

      .cls-20 {
        fill: none;
      }

      .cls-21 {
        letter-spacing: .04em;
      }

      .cls-22 {
        fill: #fff;
        font-family: Meiryo, Meiryo;
        font-size: 16px;
      }

      .cls-23 {
        letter-spacing: .02em;
      }

      .cls-24 {
        letter-spacing: .35em;
      }

      .cls-25 {
        letter-spacing: .1em;
      }

      .cls-26 {
        letter-spacing: .31em;
      }

      .cls-27 {
        letter-spacing: -.5em;
      }

      .cls-28 {
        letter-spacing: .1em;
      }
    </style>
    <clipPath id="clippath">
      <rect class="cls-20" width="687" height="968.64" rx="9.01" ry="9.01"/>
    </clipPath>
  </defs>
  <g id="_レイヤー_1-2" data-name="レイヤー 1">
    <g class="cls-18">
      <text class="cls-7" transform="translate(327.95 920.83)"><tspan x="0" y="0">練馬子ども家庭支援センター　TEL 03-3993-8155</tspan></text>
      <text class="cls-8" transform="translate(71 193.23)"><tspan x="0" y="0">お子</tspan><tspan class="cls-3" x="36" y="0">様1</tspan><tspan x="70.5" y="0">人につ</tspan><tspan class="cls-3" x="124.5" y="0">き8</tspan><tspan x="159" y="0">枚</tspan><tspan class="cls-27" x="177" y="0">の</tspan><tspan x="186" y="0">「子育てスタート応援券</tspan><tspan class="cls-27" x="384" y="0">」</tspan><tspan x="393" y="0">を発行しています</tspan><tspan class="cls-27" x="537" y="0">。</tspan><tspan class="cls-21" x="0" y="29">応援券</tspan><tspan x="56.25" y="29">は</tspan><tspan class="cls-27" x="74.25" y="29">、</tspan><tspan x="83.25" y="29">「</tspan><tspan class="cls-21" x="101.25" y="29">育児支援ヘルパー事</tspan><tspan x="270" y="29">業</tspan><tspan class="cls-27" x="288" y="29">」、</tspan><tspan x="306" y="29">「</tspan><tspan class="cls-21" x="324" y="29">助産師ケア事</tspan><tspan x="436.5" y="29">業</tspan><tspan class="cls-27" x="454.5" y="29">」、</tspan><tspan x="472.5" y="29">「</tspan><tspan class="cls-21" x="490.5" y="29">産科</tspan><tspan x="528" y="29">医</tspan><tspan class="cls-23" x="0" y="58">療機関実施事</tspan><tspan class="cls-19" x="109.64" y="58">業</tspan><tspan class="cls-27" x="127.64" y="58">」、</tspan><tspan x="145.64" y="58">「</tspan><tspan class="cls-23" x="163.64" y="58">子育て支援講</tspan><tspan x="273.27" y="58">座</tspan><tspan class="cls-27" x="291.27" y="58">」、</tspan><tspan x="309.27" y="58">「</tspan><tspan class="cls-23" x="327.27" y="58">ファミリーサポート事</tspan><tspan x="510" y="58">業</tspan><tspan class="cls-27" x="528" y="58">」、</tspan><tspan x="-9" y="87">「乳幼児一時預かり事業」にご利用いただけます</tspan><tspan class="cls-27" x="387" y="87">。</tspan></text>
      <text class="cls-2" transform="translate(118.94 52)"><tspan x="0" y="0">子育てスタート応援券</tspan></text>
      <text class="cls-1" transform="translate(27.63 50.64)"><tspan x="0" y="0">01</tspan></text>
      <text class="cls-6" transform="translate(97.96 422.17)"><tspan class="cls-25"><tspan x="0" y="0">母乳ケア、授乳相談や育児に</tspan></tspan><tspan class="cls-25" x="0" y="25">関する相談に利用できます</tspan><tspan class="cls-16" x="184.8" y="25">。</tspan></text>
      <text class="cls-5" transform="translate(67.96 531.17)"><tspan class="cls-14" x="0" y="0">※</tspan><tspan class="cls-26" x="12.72" y="0">1枚1</tspan><tspan class="cls-14" x="49.23" y="0">回のケア料金、2,00</tspan><tspan class="cls-13" x="164.26" y="0">0</tspan><tspan class="cls-14" x="174.66" y="0">円相当に充当</tspan></text>
      <text class="cls-22" transform="translate(143.56 342.11)"><tspan x="0" y="0">助産師ケア事業</tspan></text>
      <text class="cls-22" transform="translate(118.56 376.11)"><tspan x="0" y="0">産科医療機関実施事業</tspan></text>
      <text class="cls-6" transform="translate(101.46 697.17)"><tspan class="cls-25"><tspan x="0" y="0">産後の骨盤調整を行う</tspan></tspan><tspan class="cls-25" x="0" y="25">産後ヨガ等に利用できます</tspan><tspan class="cls-16" x="184.8" y="25">。</tspan></text>
      <text class="cls-22" transform="translate(142.06 616.11)"><tspan x="0" y="0">子育て支援講座</tspan></text>
      <text class="cls-6" transform="translate(391.96 697.17)"><tspan class="cls-25"><tspan x="0" y="0">産後の家事支援ヘルパー派遣</tspan></tspan><tspan class="cls-25" x="0" y="25">に利用できます</tspan><tspan class="cls-16" x="107.8" y="25">。</tspan></text>
      <text class="cls-22" transform="translate(428.06 617.11)"><tspan x="0" y="0">育児支援ヘルパー</tspan></text>
      <text class="cls-6" transform="translate(395.46 422.17)"><tspan class="cls-25"><tspan x="0" y="0">お子様を一時的に預かって</tspan></tspan><tspan class="cls-25" x="0" y="25">ほしい場合に利用できます</tspan><tspan class="cls-16" x="184.8" y="25">。</tspan></text>
      <text class="cls-22" transform="translate(420.06 341.11)"><tspan x="0" y="0">ファミリーサポート</tspan></text>
      <text class="cls-22" transform="translate(428.56 373.11)"><tspan x="0" y="0">乳幼児一時預かり</tspan></text>
      <text class="cls-5" transform="translate(64.96 807.17)"><tspan class="cls-11" x="0" y="0">※</tspan><tspan class="cls-15" x="13.2" y="0">1</tspan><tspan class="cls-11" x="24.07" y="0">枚</tspan><tspan class="cls-15" x="37.27" y="0">で1</tspan><tspan class="cls-11" x="64.35" y="0">回分が無料（2,00</tspan><tspan class="cls-24" x="171.46" y="0">0</tspan><tspan class="cls-28" x="182.34" y="0">円相当に充当</tspan><tspan class="cls-10" x="261.54" y="0">）</tspan></text>
      <text class="cls-5" transform="translate(361.96 546.17)"><tspan class="cls-11" x="0" y="0">※乳幼児</tspan><tspan class="cls-24" x="52.8" y="0">／1</tspan><tspan class="cls-28" x="79.87" y="0">枚</tspan><tspan class="cls-24" x="93.07" y="0">で1</tspan><tspan class="cls-11" x="120.15" y="0">単位（</tspan><tspan class="cls-24" x="159.75" y="0">3</tspan><tspan class="cls-28" x="170.62" y="0">時間）分が無料</tspan></text>
      <text class="cls-4" transform="translate(361.96 807.17)"><tspan class="cls-17" x="0" y="0">※</tspan><tspan class="cls-12" x="14.3" y="0">1</tspan><tspan class="cls-17" x="26.08" y="0">枚</tspan><tspan class="cls-12" x="40.38" y="0">で1</tspan><tspan class="cls-17" x="69.71" y="0">時間分が無料</tspan></text>
      <text class="cls-5" transform="translate(361.96 527.17)"><tspan class="cls-11" x="0" y="0">※ファミ</tspan><tspan class="cls-24" x="52.8" y="0">／1</tspan><tspan class="cls-28" x="79.87" y="0">枚</tspan><tspan class="cls-24" x="93.07" y="0">で1</tspan><tspan class="cls-11" x="120.15" y="0">時間分が無料</tspan></text>
      <text class="cls-7" transform="translate(64 852.08)"><tspan x="0" y="0">※転入届を出された世帯に自動的に郵送されますが、</tspan><tspan class="cls-9" x="312" y="0">1</tspan><tspan x="322.48" y="0">歳以上のお子様が転入された場合は、交</tspan><tspan x="0" y="17">付申請が必要※有効期限はお子様</tspan><tspan class="cls-9" x="195" y="17">が2</tspan><tspan x="221.73" y="17">歳に達する月の末日まで（有効期限は券面に記載</tspan><tspan class="cls-27" x="507.73" y="17">）</tspan></text>
    </g>
  </g>
</svg>