<?xml version="1.0" encoding="UTF-8"?>
<svg id="_レイヤー_2" data-name="レイヤー 2" xmlns="http://www.w3.org/2000/svg" xmlns:xlink="http://www.w3.org/1999/xlink" viewBox="0 0 5442.52 1578.62">
  <defs>
    <style>
      .cls-1, .cls-2, .cls-3, .cls-4 {
        fill: none;
      }

      .cls-5 {
        fill: #e7e400;
      }

      .cls-6 {
        fill: #fff;
      }

      .cls-7 {
        fill: #e8558e;
      }

      .cls-8 {
        fill: #e50012;
      }

      .cls-9 {
        fill: #23b6bd;
      }

      .cls-10 {
        fill: #231815;
      }

      .cls-2 {
        stroke: #9e9e9f;
        stroke-width: 1.58px;
      }

      .cls-2, .cls-3 {
        stroke-miterlimit: 10;
      }

      .cls-3 {
        stroke: #231815;
      }

      .cls-4 {
        clip-path: url(#clippath);
      }
    </style>
    <clipPath id="clippath">
      <rect class="cls-1" width="5442.52" height="1578.62"/>
    </clipPath>
  </defs>
  <g id="_レイヤー_1-2" data-name="レイヤー 1">
    <g class="cls-4">
      <g>
        <g>
          <path class="cls-10" d="m3746.47,869.1v-5.75c-.04-2.91-1.48-4.23-4.3-3.97l-.07-.73c5.6-1.81,8.33-1.17,8.2,1.92-.09.35-.18.79-.27,1.32-.31,1.76-.55,4.01-.73,6.75,2.12-.53,3.9-1.37,5.36-2.51.84-.44,1.45-.64,1.85-.6.93.04,1.76.42,2.51,1.13.31.31.47.55.47.73,0,1.32-3.42,2.67-10.25,4.03l-.07.4v11.77c4.85-3.22,9.19-4.83,13.03-4.83,3.04,0,5.56.7,7.54,2.12,2.07,1.63,3.05,3.7,2.94,6.19-.11,2.49-1.38,4.64-3.8,6.45-2.03,1.45-4.52,2.18-7.47,2.18-2.69,0-5.33-.35-7.94-1.06l.46-1.19c2.38.35,4.45.44,6.22.26,2.03-.17,3.9-.73,5.62-1.65,2.07-1.45,3.14-3.12,3.21-4.99.06-1.87-.63-3.34-2.08-4.4-1.32-.97-3.11-1.46-5.36-1.46-3.44,0-7.56,1.61-12.37,4.83v4.63c0,2.16-.44,3.66-1.32,4.5-1.59,2.03-3.04,2.29-4.36.79l-4.3-4.7c-2.25.62-4.61.79-7.08.53l-.66-1.46c4.45.44,9.44-1.23,14.95-5.03l.06-13.76c-1.45.18-2.89.22-4.3.13-3.31-.17-5.84-1.61-7.61-4.3l.33-1.13c2.07,1.85,4.5,2.84,7.28,2.98,1.5.09,2.93.04,4.3-.13Zm-4.43,22.69c1.24.79,2.16,1.34,2.78,1.65.44.18.77-.22.99-1.19.31-1.19.51-2.71.6-4.56-1.81,1.37-3.7,2.4-5.69,3.11l1.32.99Zm15.88-17.93c5.42-2.95,9.59-4.47,12.5-4.56,2.96-.13,5.01.42,6.15,1.66.97,1.19.95,2.14-.07,2.84-.62.44-1.45.4-2.51-.13-3.84-1.9-8.95-1.61-15.34.86l-.73-.66Z"/>
          <path class="cls-10" d="m3798.23,846.61h13.69l2.18-2.84c2.43,1.9,3.64,3.11,3.64,3.64,0,.27-.18.55-.53.86l-1.26.99v18.52h-3.7v-3.24h-14.68v37.83h-3.9v-58.01c1.19.57,2.42,1.17,3.7,1.79l.86.46Zm-.66,1.65v6.28h14.68v-6.28h-14.68Zm0,14.62h14.68v-6.68h-14.68v6.68Zm14.68,10.65h14.49l2.38-2.71c2.6,1.76,3.9,3.02,3.9,3.77,0,.31-.2.57-.6.79l-1.45.99v16.07h-3.7v-3.24h-16.01v3.97h-3.64v-21.43c1.68.53,3.22,1.12,4.63,1.78Zm-.99,1.59v12.44h16.01v-12.44h-16.01Zm16.2-28.51h14.22l2.51-2.98c2.51,2.03,3.77,3.35,3.77,3.97,0,.22-.18.49-.53.79l-1.33.99v47.36c0,2.43-.86,3.92-2.58,4.5-1.19.4-2.56.64-4.1.73,0-1.15-.51-1.99-1.52-2.51-.97-.53-3.51-1.1-7.61-1.72v-1.79c3.66.35,6.9.53,9.72.53,1.41,0,2.12-.66,2.12-1.98v-29.96h-15.41v3.04h-3.77v-22.82c1.98.71,3.48,1.32,4.5,1.85Zm-.73,1.65v6.28h15.41v-6.28h-15.41Zm15.41,14.62v-6.68h-15.41v6.68h15.41Z"/>
          <path class="cls-10" d="m3885.04,878.29c-3.88,4.94-6.17,9.16-6.88,12.67-.71,3.5-2.29,4.13-4.76,1.88-2.07-2.03-3.48-4.7-4.23-8-.71-2.91-1.08-7.43-1.13-13.56,0-2.12-.13-3.66-.4-4.63-.35-.97-1.04-1.74-2.05-2.31l.06-.99c4.28.27,6.42,1.74,6.42,4.43,0,.49-.09,1.15-.27,1.99-.57,2.47-.86,4.96-.86,7.47,0,5.21.97,9.04,2.91,11.51.27.22.53.33.79.33s1.21-1.2,2.85-3.61c1.63-2.4,3.79-5.08,6.48-8.04l1.06.86Zm9.19-7.21c5.03-1.9,9.35-.9,12.97,2.98,2.03,2.73,3.04,5.21,3.04,7.41.04,2.12-.73,3.2-2.32,3.24-.92,0-1.57-.86-1.92-2.58,0-2.69-1.02-5.27-3.04-7.74-2.03-2.47-4.94-3.22-8.73-2.25v-1.06Z"/>
          <path class="cls-10" d="m3981.22,868.17c-1.41,1.06-2.49,2.29-3.24,3.7-10.85-5.78-19.58-13.34-26.19-22.69-6.35,11.02-15.87,19.42-28.57,25.2l-1.06-1.39c12.52-7.23,21.69-17,27.52-29.3,4.06.75,6.08,1.5,6.08,2.25,0,.44-.97.9-2.91,1.39,7.89,9.22,17.35,16.16,28.38,20.83Zm-43.52,10.85h26.99l2.64-3.17c2.87,2.25,4.3,3.61,4.3,4.1,0,.22-.18.46-.53.73l-1.78,1.26v20.37h-3.84v-4.56h-28.7v4.56h-3.84v-25.4c1.15.4,2.73,1.1,4.76,2.12Zm21.69-10.85l3.18-3.97c1.23.97,2.53,2.18,3.9,3.64l.59.73-.73,1.19h-29.7l-.86-1.59h23.61Zm-22.62,12.44v15.48h28.7v-15.48h-28.7Z"/>
          <path class="cls-10" d="m3999.61,893.04c-.35.62-.73.93-1.12.93-1.19,0-1.78-.88-1.78-2.65,0-.75.57-1.72,1.72-2.91,1.81-1.94,5.05-6.92,9.72-14.95l.07-1.06v-.86l.06-2.84c-1.76.75-3.53,1.59-5.29,2.51-1.06.53-1.81.79-2.25.79-1.5,0-2.51-1.63-3.04-4.89l.53-.59c1.1,1.19,2.14,1.78,3.11,1.78.84,0,3.18-.68,7.01-2.05.04-.7.07-1.5.07-2.38v-.99c0-2.51-.24-4.12-.73-4.83-.27-.48-1.01-.93-2.25-1.33l.07-.79c4.59-.48,6.81.42,6.68,2.71,0,.48-.11,1.26-.33,2.31-.35,1.46-.62,2.85-.79,4.17-.13.13-.11.2.07.2.48,0,1.01.38,1.59,1.12.53.4.8.82.8,1.26,0,.4-.24.84-.73,1.32-.79.79-1.57,1.78-2.32,2.98v1.85c-.04.22-.06.82-.06,1.79,5.6-6.48,10.65-9.99,15.15-10.52,3.26-.35,6.06.55,8.4,2.71,2.56,2.2,3.84,5.25,3.84,9.13.09,4.85-1.75,8.79-5.52,11.81-3.77,3.02-9.42,4.89-16.97,5.59l-.13-1.19c4.59-.57,8.87-2.17,12.86-4.8,3.99-2.62,6.01-6.27,6.05-10.95,0-2.82-.73-5.09-2.18-6.81-1.72-2.12-4.01-3.02-6.88-2.71-4.19.49-9.06,3.88-14.62,10.19v1.79c0,3.66.13,7.5.4,11.51.04.57.06,1.12.06,1.65,0,1.19-.2,2.12-.59,2.78-.71,1.15-1.37,1.72-1.99,1.72-.75,0-1.24-.68-1.45-2.05-.4-2.2-1.34-5.58-2.84-10.12-2.12,3.88-3.57,6.44-4.37,7.67Zm8.47-15.28c-1.19,2.29-2.32,4.39-3.38,6.28l3.04,6.68.07-4.1.2-5.29v-1.32l.07-2.25Z"/>
          <path class="cls-10" d="m4073.76,873.33l.33,5.36c.4,5.2.79,8.33,1.19,9.39,1.1,2.95,3.86,4.43,8.27,4.43,3.97,0,7.05-.48,9.26-1.45.53-.18.95-.26,1.26-.26,1.19,0,2.2.51,3.04,1.52.27.4.4.68.4.86,0,.75-.55,1.21-1.65,1.39-2.25.66-5.64.99-10.19.99-6.4,0-10.56-1.72-12.5-5.16-1.06-1.9-1.9-7.3-2.51-16.21-2.96.75-5.78,1.5-8.47,2.25-1.01.35-1.7.55-2.05.6-1.59.13-2.82-1.33-3.7-4.37l.4-.73c1.41,1.01,3.04,1.43,4.89,1.26.83-.09,3.75-.62,8.73-1.59-.31-4.19-.68-6.77-1.12-7.74-.4-1.15-1.28-1.72-2.65-1.72l-.06-.86c2.6-.62,4.41-.64,5.42-.06.84.44,1.3,1.43,1.39,2.98v1.46c0,.88.06,2.67.2,5.36,3.7-.88,8.24-1.89,13.62-3.04.09-2.16.13-4.7.13-7.61-.09-1.54-.35-2.54-.79-2.98-.4-.31-1.06-.62-1.98-.92l.26-.53c4.01-.66,6.11.15,6.28,2.45,0,.31-.04.66-.13,1.06-.31,1.06-.64,3.75-.99,8.07,4.19-.75,6.99-1.28,8.4-1.59.8-.18,1.41-.29,1.85-.33.75-.09,1.48.09,2.19.53.97.71,1.45,1.32,1.45,1.85,0,.84-.53,1.3-1.59,1.39-.13,0-.51.02-1.12.06-2.51-.04-5.62.09-9.33.4-.97.09-1.63.15-1.98.2-.75,11.38-2.15,16.62-4.2,15.74-2.05-.88-4.84-3.35-8.37-7.41l.33-1.06c4.63,3.44,7.19,4.89,7.67,4.36.66-.57,1.3-4.34,1.92-11.31l-.53.13c-4.14.71-8.47,1.66-12.96,2.84Z"/>
          <path class="cls-10" d="m4137.06,902.37c-9.75-6.96-14.62-16.86-14.62-29.7,0-8.24,2.2-15.52,6.61-21.83,2.2-3.13,4.87-5.75,8-7.87h2.45c-9.13,7.23-13.69,17.13-13.69,29.7s4.56,22.47,13.69,29.7h-2.45Z"/>
          <path class="cls-10" d="m4155.65,882.26v-14.16h-10.05l-.73-1.72h10.78v-9.66c-2.16,2.65-4.76,5.09-7.8,7.34l-1.26-1.12c5.47-5.29,9.7-12.15,12.7-20.57,3.75,1.06,5.62,1.98,5.62,2.78,0,.62-.92,1.06-2.78,1.32-1.1,2.16-2.01,3.79-2.71,4.89h35.52l3.04-4.03c1.37,1.28,2.71,2.78,4.04,4.5l-.66,1.19h-8.53v13.36h3.9l3.04-4.63c1.32,1.41,2.62,3.09,3.9,5.03l-.66,1.32h-10.19v14.16h2.98l3.11-4.43c1.45,1.5,2.73,3.11,3.84,4.83l-.66,1.26h-55.82l-.59-1.65h9.99Zm-.2,4.3l1.59.59c-.53,5.38-2.1,9.63-4.7,12.77-1.37,1.63-2.73,2.45-4.1,2.45-1.68,0-2.52-.82-2.52-2.45,0-.88.68-1.68,2.05-2.38,3.48-2.07,6.04-5.73,7.67-10.98Zm3.97-20.18h7.14v-13.36h-7.14v13.36Zm0,15.88h7.14v-14.16h-7.14v14.16Zm5.69,4.17c3.48,4.1,5.22,7.8,5.22,11.11,0,2.55-.9,3.84-2.71,3.84-1.32,0-1.98-.71-1.98-2.12,0-.35.02-.73.07-1.13.04-.22.06-.57.06-1.06,0-3.57-.68-6.88-2.05-9.92l1.39-.73Zm12.5-33.4h-7.41v13.36h7.41v-13.36Zm-7.41,29.24h7.41v-14.16h-7.41v14.16Zm7.21,3.97c5.56,4.19,8.33,8.14,8.33,11.84,0,2.07-.86,3.11-2.58,3.11-1.19,0-1.9-.9-2.12-2.71-.44-3.7-2.03-7.47-4.76-11.31l1.13-.93Zm11.57-33.2h-7.74v13.36h7.74v-13.36Zm-7.74,29.24h7.74v-14.16h-7.74v14.16Zm9.19,3.5c8.42,4.1,12.63,8.23,12.63,12.37,0,1.85-.84,2.78-2.51,2.78-1.1,0-1.96-.9-2.58-2.71-1.06-3.53-3.86-7.23-8.4-11.11l.86-1.32Z"/>
          <path class="cls-10" d="m4230.75,879.15c-2.78,5.73-6.55,11.11-11.31,16.14l-1.32-1.19c5.73-7.36,9.88-15.1,12.44-23.22h-10.85l-.73-1.72h11.77v-25.6c4.19,0,6.28.46,6.28,1.39,0,.57-.88,1.19-2.64,1.85v22.36h5.36l2.91-4.36c1.28,1.32,2.58,2.91,3.9,4.76l-.73,1.32h-11.44v5.16c7.45,2.69,11.18,5.69,11.18,8.99,0,1.55-.66,2.32-1.98,2.32-.88,0-1.59-.62-2.12-1.85-1.45-2.78-3.81-5.36-7.08-7.74v24.61h-3.64v-23.22Zm-10.05-30.09c4.72,4.59,7.08,9.13,7.08,13.62,0,2.12-.75,3.18-2.25,3.18-1.06,0-1.63-.73-1.72-2.19-.31-5.03-1.72-9.57-4.23-13.62l1.13-.99Zm15.74,16.34c2.34-5.56,4.1-11.13,5.29-16.73,3.61,1.1,5.42,2.07,5.42,2.91,0,.48-.77.82-2.32.99-1.94,4.5-4.32,9.02-7.14,13.56l-1.26-.73Zm29.1,17.73v-38.83c4.23.22,6.35.77,6.35,1.65,0,.48-.79,1.01-2.38,1.59v34.59l2.71-.66,1.98-5.29.73.73c1.24,1.19,2.34,2.36,3.31,3.51l-.33,1.45-8.2,2.05v18.45h-3.97v-17.46l-19.44,4.96-1.06-1.52,20.3-5.22Zm-18.06-18.52c3.97,1.76,6.97,3.77,9,6.02,1.5,1.59,2.25,3.02,2.25,4.3,0,1.54-.73,2.31-2.19,2.31-.97,0-1.63-.55-1.98-1.65-1.19-3.35-3.79-6.59-7.8-9.72l.73-1.26Zm2.91-14.42c3.84,1.45,6.63,3.09,8.4,4.89,1.72,1.68,2.58,3.22,2.58,4.63,0,1.59-.64,2.38-1.92,2.38-1.1,0-1.94-.8-2.51-2.38-1.19-2.91-3.59-5.69-7.21-8.33l.66-1.19Z"/>
          <path class="cls-10" d="m4286.25,902.37c9.13-7.28,13.69-17.17,13.69-29.7s-4.56-22.46-13.69-29.7h2.45c9.75,6.97,14.62,16.87,14.62,29.7,0,8.16-2.2,15.41-6.61,21.76-2.2,3.17-4.87,5.82-8,7.94h-2.45Z"/>
        </g>
        <g>
          <path class="cls-10" d="m4155.7,775.84c9.04-7.49,15.63-17.24,19.78-29.23,3.92,1.37,5.89,2.47,5.89,3.31,0,.57-.92,1.06-2.78,1.45-3.31,6.93-6.86,12.44-10.65,16.54-2.91,3.26-6.66,6.37-11.25,9.33l-.99-1.39Zm21.1-3.31h-10.45l-.53-1.66h30.16l2.45-2.98c2.6,2.03,3.9,3.35,3.9,3.97,0,.35-.22.68-.66.99l-1.39.99c-.04,12.92-1.1,21.28-3.17,25.07-1.46,2.69-4.04,4.03-7.74,4.03,0-1.32-.84-2.31-2.51-2.98-1.24-.53-3.5-1.06-6.81-1.59v-1.78c4.36.62,7.78.92,10.25.92,2.29,0,3.77-1.39,4.43-4.17,1.1-4.54,1.69-11.49,1.78-20.83h-15.61c-.62,7.89-2.47,14.2-5.56,18.92-3.4,5.21-8.71,9.28-15.94,12.24l-.86-1.45c7.63-4.15,12.81-9.77,15.54-16.87,1.41-3.84,2.32-8.11,2.71-12.83Zm13.89-25.93c6.09,10.54,13.47,18.41,22.16,23.61-1.32.93-2.47,2.27-3.44,4.04-6.44-5.07-11.64-10.98-15.61-17.73-1.54-2.56-3.13-5.58-4.76-9.06l1.65-.86Z"/>
          <path class="cls-8" d="m4080.3,724.32l-2.47-1.35c3.15-7.64,6.89-13.02,11.24-16.14,4.35-3.12,9.42-4.68,15.21-4.68,5.4,0,9.72,1.2,12.96,3.6,4.84,3.6,7.27,7.64,7.27,12.14,0,3.65-1.24,7.32-3.71,11.01-2.47,3.7-6.8,7.84-13,12.44l1.8-.08c3.9,0,7.65.99,11.28,2.96,3.62,1.98,6.48,5.05,8.58,9.22s3.15,8.65,3.15,13.45c0,9.64-3.54,17.9-10.6,24.76-7.07,6.87-16.07,10.3-27.01,10.3-8.29,0-14.41-1.2-18.36-3.6-2.15-1.25-3.22-2.82-3.22-4.72,0-1.05.44-2,1.31-2.85s1.96-1.27,3.26-1.27c1.65,0,3.64.9,6,2.7,5.54,4.24,10.36,6.37,14.46,6.37,6.19,0,11.69-2.61,16.48-7.83,4.8-5.22,7.19-11.8,7.19-19.74,0-6.59-1.61-12-4.83-16.22-3.22-4.22-7.3-6.33-12.25-6.33-3.7,0-7.54,1.75-11.54,5.24l-1.8-2.99c2.5-2.15,4.75-3.97,6.74-5.47,6.09-4.44,10.64-8.81,13.64-13.11,2.15-3.1,3.22-5.82,3.22-8.17,0-3.95-1.4-7.28-4.2-10-2.8-2.72-6.47-4.08-11.01-4.08-7.49,0-14.09,4.82-19.78,14.46Z"/>
          <g>
            <path class="cls-10" d="m3829.06,773.46c.48-2.47.73-4.61.73-6.42,0-1.94-.95-3.35-2.84-4.23l.46-.66c4.41,0,6.61,1.15,6.61,3.44,0,.26-.04.57-.13.92-.26,1.06-.75,3.29-1.45,6.68,6.26-.44,9.88-1.06,10.85-1.85.48-.44.95-.66,1.39-.66.71,0,1.48.43,2.32,1.29s1.26,1.62,1.26,2.28c0,.44-.2.82-.59,1.12-.53.4-.93,1.28-1.19,2.64-1.63,7.94-3.82,13.87-6.55,17.79-1.32,1.94-2.62,2.91-3.9,2.91-.97,0-1.45-.57-1.45-1.72v-.27c0-1.94-1.45-4.41-4.36-7.41l.4-1.06c3.4,2.51,5.34,3.92,5.82,4.23l.27.2c.26.13.48.2.66.2.4,0,1.31-1.51,2.75-4.53,1.43-3.02,2.52-7.75,3.27-14.19-7.54.88-11.35,1.32-11.44,1.32-1.46,6-3.48,11.07-6.08,15.21-3.22,5.07-8.78,9.59-16.67,13.56l-.53-.93c10.45-6.79,17.06-15.92,19.84-27.38-.31.04-.71.09-1.19.13-2.91.44-5.45.86-7.61,1.26-.97.18-1.7.27-2.18.27-2.38,0-4.19-1.7-5.42-5.09l.66-.47c1.36,1.41,3.53,2.12,6.48,2.12,2.38,0,5.66-.24,9.85-.73Z"/>
            <path class="cls-10" d="m3877.84,768.37c4.23.71,7.45,1.85,9.66,3.44,1.59,1.1,2.38,2.38,2.38,3.84,0,1.55-.71,2.32-2.12,2.32-.66,0-1.15-.29-1.46-.86-1.85-3.26-4.87-5.93-9.06-8l.59-.73Zm.66,24.21c1.37,1.06,2.47,1.61,3.31,1.65,2.2.09,6.08-1.59,11.64-5.03,7.54-5.07,15.37-12.99,23.48-23.75l.79.93c-7.1,13.54-17.86,23.99-32.28,31.35-.44.22-1.15.51-2.12.86-.53.13-.95.2-1.26.2-1.5-.09-2.82-1.92-3.97-5.49l.4-.73Z"/>
            <path class="cls-10" d="m3961.53,770.22c.31-.04,2.2-.26,5.69-.66,1.01-.13,2.01-.53,2.98-1.19.57-.4,1.04-.59,1.39-.59.4,0,1.09.39,2.08,1.16.99.77,1.44,1.62,1.36,2.55,0,.4-.24.75-.73,1.06-.62.4-1.41,1.63-2.38,3.7-1.45,2.96-3.02,5.62-4.7,8,2.07,1.37,3.31,2.69,3.7,3.97.4,1.63-.31,2.47-2.12,2.52-.53-.04-.95-.2-1.26-.47-.44-.13-.84-.46-1.19-.99-.49-.7-.97-1.34-1.46-1.92-2.82,3.53-6.04,6.55-9.66,9.06-4.19,2.96-9.17,5.31-14.95,7.08l-.92-.73c10.01-4.01,17.79-9.92,23.35-17.73-1.76-1.68-3.88-3.17-6.35-4.5l.66-.99c3,1.06,5.44,2.1,7.34,3.11,2.16-3.4,3.95-7.1,5.36-11.11l-5.62.4c-1.76.04-2.98-.02-3.64-.2-4.14,6.13-9.66,11.07-16.53,14.82l-1.06-.53c5.07-3.61,9.3-7.91,12.7-12.9,2.29-3.35,3.48-5.64,3.57-6.88.09-.88-.62-1.61-2.12-2.18l.73-.66c4.06-.04,6.04.82,5.95,2.58-.04.66-.77,2.07-2.18,4.23Z"/>
            <path class="cls-10" d="m4005.22,768.37c4.23.71,7.45,1.85,9.66,3.44,1.59,1.1,2.38,2.38,2.38,3.84,0,1.55-.71,2.32-2.12,2.32-.66,0-1.15-.29-1.46-.86-1.85-3.26-4.87-5.93-9.06-8l.59-.73Zm.66,24.21c1.37,1.06,2.47,1.61,3.31,1.65,2.2.09,6.08-1.59,11.64-5.03,7.54-5.07,15.37-12.99,23.48-23.75l.79.93c-7.1,13.54-17.86,23.99-32.28,31.35-.44.22-1.15.51-2.12.86-.53.13-.95.2-1.26.2-1.5-.09-2.82-1.92-3.97-5.49l.4-.73Z"/>
          </g>
        </g>
      </g>
      <polygon class="cls-6" points="1979.52 927.43 1979.52 1081.82 2185.74 1081.82 2339.24 1081.82 2339.24 927.43 1979.52 927.43"/>
      <rect class="cls-6" x="1619.81" y="927.43" width="359.72" height="154.39"/>
      <polygon class="cls-6" points="2339.24 927.43 2339.24 583.15 2185.74 583.15 1619.81 583.15 1619.81 927.43 1979.52 927.43 2339.24 927.43"/>
      <polygon class="cls-6" points="2339.24 927.43 2339.24 1081.82 2754.54 1081.82 2754.54 583.15 2339.24 583.15 2339.24 927.43"/>
      <g>
        <polyline class="cls-2" points="2476.87 903.85 2476.87 775.62 2535.86 834.61"/>
        <polyline class="cls-2" points="2455.37 775.62 2548.83 869.08 2626.27 791.63"/>
        <polyline class="cls-2" points="2535.86 856.11 2626.27 765.69 2626.27 844.86"/>
        <polyline class="cls-2" points="2527.77 773.11 2612.68 858.02 2612.68 903.85"/>
        <line class="cls-2" x1="2491.3" y1="903.85" x2="2491.3" y2="810.9"/>
        <line class="cls-2" x1="2626.27" y1="903.85" x2="2626.27" y2="857.37"/>
      </g>
      <g>
        <path class="cls-9" d="m1715.66,744.22l7.32-48.49h14.93v68.3h-10.15v-48.98l-7.42,48.98h-10.15l-8-48.3v48.3h-9.37v-68.3h14.93l7.9,48.49Z"/>
        <path class="cls-10" d="m1744.83,712.12c0-10.93,5.76-17.17,16.29-17.17s16.29,6.24,16.29,17.17v35.52c0,10.93-5.76,17.17-16.29,17.17s-16.29-6.24-16.29-17.17v-35.52Zm10.73,36.2c0,4.88,2.15,6.73,5.56,6.73s5.56-1.85,5.56-6.73v-36.88c0-4.88-2.15-6.73-5.56-6.73s-5.56,1.85-5.56,6.73v36.88Z"/>
        <path class="cls-10" d="m1784.35,695.72h16.98c10.73,0,16,5.95,16,16.88v34.54c0,10.93-5.27,16.88-16,16.88h-16.98v-68.3Zm10.73,9.76v48.78h6.05c3.41,0,5.46-1.75,5.46-6.63v-35.52c0-4.88-2.05-6.64-5.46-6.64h-6.05Z"/>
        <path class="cls-10" d="m1834.89,724.51h14.73v9.76h-14.73v20h18.54v9.76h-29.27v-68.3h29.27v9.76h-18.54v19.03Z"/>
        <path class="cls-10" d="m1860.07,695.72h10.73v58.54h17.66v9.76h-28.39v-68.3Z"/>
        <path class="cls-7" d="m1919,764.02h-10.73v-68.3h10.73v29.27h12.2v-29.27h10.93v68.3h-10.93v-29.27h-12.2v29.27Z"/>
        <path class="cls-10" d="m1949.05,712.12c0-10.93,5.76-17.17,16.29-17.17s16.29,6.24,16.29,17.17v35.52c0,10.93-5.76,17.17-16.29,17.17s-16.29-6.24-16.29-17.17v-35.52Zm10.73,36.2c0,4.88,2.15,6.73,5.56,6.73s5.56-1.85,5.56-6.73v-36.88c0-4.88-2.15-6.73-5.56-6.73s-5.56,1.85-5.56,6.73v36.88Z"/>
        <path class="cls-10" d="m1998.81,695.72v52.69c0,4.88,2.15,6.63,5.56,6.63s5.56-1.76,5.56-6.63v-52.69h10.15v52c0,10.93-5.46,17.17-16,17.17s-16-6.24-16-17.17v-52h10.73Z"/>
        <path class="cls-10" d="m2041.84,694.94c10.44,0,15.81,6.24,15.81,17.17v2.15h-10.15v-2.83c0-4.88-1.95-6.73-5.37-6.73s-5.37,1.85-5.37,6.73c0,14.05,20.98,16.69,20.98,36.2,0,10.93-5.46,17.17-16,17.17s-16-6.24-16-17.17v-4.19h10.15v4.88c0,4.88,2.15,6.63,5.56,6.63s5.56-1.76,5.56-6.63c0-14.05-20.98-16.69-20.98-36.2,0-10.93,5.37-17.17,15.81-17.17Z"/>
        <path class="cls-10" d="m2074.63,724.51h14.73v9.76h-14.73v20h18.54v9.76h-29.27v-68.3h29.27v9.76h-18.54v19.03Z"/>
        <path class="cls-5" d="m2114.05,712.12c0-10.93,5.76-17.17,16.29-17.17s16.29,6.24,16.29,17.17v35.52c0,10.93-5.76,17.17-16.29,17.17s-16.29-6.24-16.29-17.17v-35.52Zm10.73,36.2c0,4.88,2.15,6.73,5.56,6.73s5.56-1.85,5.56-6.73v-36.88c0-4.88-2.15-6.73-5.56-6.73s-5.56,1.85-5.56,6.73v36.88Z"/>
        <path class="cls-10" d="m2185.37,712.6v8.88c0,10.93-5.27,16.88-16,16.88h-5.07v25.66h-10.73v-68.3h15.81c10.73,0,16,5.95,16,16.88Zm-21.08-7.12v23.12h5.07c3.41,0,5.27-1.56,5.27-6.44v-10.24c0-4.88-1.85-6.44-5.27-6.44h-5.07Z"/>
        <path class="cls-10" d="m2201.08,724.51h14.73v9.76h-14.73v20h18.54v9.76h-29.27v-68.3h29.27v9.76h-18.54v19.03Z"/>
        <path class="cls-10" d="m2235.82,714.55v49.47h-9.66v-68.3h13.46l11.03,40.88v-40.88h9.56v68.3h-11.03l-13.37-49.47Z"/>
      </g>
      <g>
        <path class="cls-10" d="m1743.6,979.4c-3.49,0-5.68,1.89-5.68,6.87v7.47h-10.36v-6.77c0-11.16,5.58-17.53,16.34-17.53s16.34,6.38,16.34,17.53c0,21.92-21.82,30.09-21.82,41.54,0,.5,0,1,.1,1.5h20.72v9.96h-31.68v-8.57c0-20.52,21.72-23.91,21.72-44.04,0-6.28-2.19-7.97-5.68-7.97Z"/>
        <path class="cls-10" d="m1766.11,986.98c0-11.16,5.88-17.53,16.64-17.53s16.64,6.38,16.64,17.53v36.26c0,11.16-5.88,17.53-16.64,17.53s-16.64-6.38-16.64-17.53v-36.26Zm10.96,36.96c0,4.98,2.19,6.87,5.68,6.87s5.68-1.89,5.68-6.87v-37.66c0-4.98-2.19-6.87-5.68-6.87s-5.68,1.89-5.68,6.87v37.66Z"/>
        <path class="cls-10" d="m1822.49,979.4c-3.49,0-5.68,1.89-5.68,6.87v7.47h-10.36v-6.77c0-11.16,5.58-17.53,16.34-17.53s16.34,6.38,16.34,17.53c0,21.92-21.82,30.09-21.82,41.54,0,.5,0,1,.1,1.5h20.72v9.96h-31.68v-8.57c0-20.52,21.72-23.91,21.72-44.04,0-6.28-2.19-7.97-5.68-7.97Z"/>
        <path class="cls-10" d="m1867.01,987.37c0-6.28-2.19-7.97-5.68-7.97s-5.68,1.89-5.68,6.87v4.48h-10.36v-3.78c0-11.16,5.58-17.53,16.34-17.53s16.34,6.38,16.34,17.53v1.79c0,7.47-2.39,12.16-7.67,14.35,5.48,2.39,7.67,7.57,7.67,14.65v5.48c0,11.16-5.58,17.53-16.34,17.53s-16.34-6.38-16.34-17.53v-5.78h10.36v6.47c0,4.98,2.19,6.87,5.68,6.87s5.68-1.69,5.68-7.87v-5.48c0-6.48-2.19-8.87-7.17-8.87h-3.69v-9.96h4.28c4.08,0,6.58-1.8,6.58-7.37v-3.89Z"/>
      </g>
      <g>
        <path class="cls-10" d="m2051.7,986.82c0-11.16,5.88-17.53,16.64-17.53s16.64,6.38,16.64,17.53v36.26c0,11.16-5.88,17.53-16.64,17.53s-16.64-6.38-16.64-17.53v-36.26Zm10.96,36.96c0,4.98,2.19,6.87,5.68,6.87s5.68-1.89,5.68-6.87v-37.66c0-4.98-2.19-6.87-5.68-6.87s-5.68,1.89-5.68,6.87v37.66Z"/>
        <path class="cls-10" d="m2124.22,970.08v9.56l-16.14,60.18h-10.96l16.04-59.78h-21.82v-9.96h32.88Z"/>
        <path class="cls-10" d="m2142.05,1029.26v10.56h-10.56v-10.56h10.56Z"/>
        <path class="cls-10" d="m2149.12,986.82c0-11.16,5.88-17.53,16.64-17.53s16.64,6.38,16.64,17.53v36.26c0,11.16-5.88,17.53-16.64,17.53s-16.64-6.38-16.64-17.53v-36.26Zm10.96,36.96c0,4.98,2.19,6.87,5.68,6.87s5.68-1.89,5.68-6.87v-37.66c0-4.98-2.19-6.87-5.68-6.87s-5.68,1.89-5.68,6.87v37.66Z"/>
        <path class="cls-10" d="m2196.23,978.85c8.47,0,10.36-4.08,12.06-8.77h7.37v69.74h-10.96v-53.2h-8.47v-7.77Z"/>
        <path class="cls-10" d="m2251.94,1006.92c-2.84-1.2-5.07-2.06-6.69-2.59-1.62-.53-3.29-.79-5-.79-1.97,0-3.81.41-5.54,1.23-1.73.82-3.5,1.83-5.33,3.03-.15.11-.27.17-.38.17s-.23-.06-.36-.17-.19-.2-.19-.27.04-.17.11-.27c1.2-1.64,2.96-3.19,5.27-4.67,2.31-1.47,4.96-2.21,7.95-2.21,2.73,0,6.12.86,10.16,2.57l1.2.49c2.48,1.02,4.44,1.77,5.9,2.24,1.46.47,2.97.71,4.53.71,1.97,0,3.8-.41,5.52-1.23,1.71-.82,3.5-1.85,5.35-3.09.18-.11.31-.17.38-.17.11,0,.23.06.36.17.13.11.19.2.19.27,0,.08-.04.17-.11.27-1.2,1.64-2.96,3.2-5.27,4.67-2.31,1.48-4.96,2.21-7.95,2.21-2.7,0-6.06-.85-10.11-2.57Z"/>
      </g>
      <g>
        <path class="cls-10" d="m1790.71,814.75c.86.21,1.64.53,2.34.96s1.05.97,1.05,1.63c0,.36-.14.64-.42.85-.28.21-.69.31-1.23.31-.51,0-1.15-.13-1.92-.4-1.31-.48-3.14-.71-5.49-.71-2.47,0-5.22.24-8.26.71v1.96l-.04,4.69c0,1.25.07,2.14.22,2.68.15.54.48.9,1,1.09.52.19,1.4.29,2.66.29,1.49,0,3.2-.18,5.13-.54,1.07-.18,1.73-.27,1.96-.27.89,0,1.67.15,2.32.45s.98.71.98,1.25c0,.75-.76,1.27-2.28,1.59-1.52.31-3.39.47-5.62.47-2.41,0-4.22-.14-5.42-.42-1.2-.28-2.11-.93-2.7-1.94-.6-1.01-.89-2.61-.89-4.78,0-1.67.04-3.41.13-5.22,0-.36.01-.64.04-.85-2.53.54-4.66,1.1-6.38,1.69-.95.36-1.78.64-2.5.85-.71.21-1.44.31-2.19.31-2.05,0-3.44-1.01-4.15-3.04-.06-.18-.09-.31-.09-.4,0-.18.09-.27.27-.27s.54.09,1.07.27c.89.3,1.88.45,2.95.45.98,0,2.11-.1,3.39-.31,1.19-.21,3.75-.61,7.68-1.2.06-1.73.09-2.84.09-3.35,0-.66-.03-1.19-.09-1.61-.15-.86-.33-1.46-.54-1.78s-.48-.58-.8-.76l-.31-.13c-.06,0-.54.1-1.43.31-1.13.27-2.22.4-3.26.4-2.08,0-3.47-.58-4.15-1.74-.15-.27-.22-.54-.22-.8,0-.24.06-.36.18-.36.06,0,.22.06.47.18.25.12.47.21.65.27.33.09.94.13,1.83.13,1.93,0,4.44-.22,7.52-.65s5.74-.93,7.97-1.5c.18-.03.4-.12.67-.27s.46-.25.58-.31c.71-.42,1.25-.62,1.61-.62.68,0,1.51.18,2.48.54.97.36,1.45.83,1.45,1.43,0,.39-.29.67-.87.85-.58.18-1.58.31-3.01.4-2.68.18-5.7.55-9.06,1.11.54.27.97.57,1.3.89.24.24.36.46.36.67,0,.15-.08.41-.25.78-.16.37-.28.78-.33,1.23-.09.8-.19,2.25-.31,4.33,2.95-.42,4.98-.68,6.12-.8.68-.06,1.8-.31,3.35-.76,1.31-.36,2.11-.54,2.41-.54.48,0,1.15.11,2.01.31Z"/>
        <path class="cls-10" d="m1833.94,809.35c.88.21,1.64.51,2.28.92.64.4.96.85.96,1.36,0,.36-.11.61-.33.76-.22.15-.57.22-1.05.22l-1.65-.09c-2.23-.09-3.62-.13-4.15-.13-1.76,0-3.47.04-5.13.13.65.36,1.2.75,1.63,1.18.43.43.65.83.65,1.19,0,.15-.06.3-.18.45s-.25.28-.4.4c-.06.06-.18.17-.36.34-.18.16-.31.36-.4.6-1.16,2.94-2.46,5.61-3.88,7.99-1.43,2.38-3.32,4.65-5.67,6.8-2.35,2.16-5.24,3.99-8.66,5.51-.27.12-.49.18-.67.18s-.27-.04-.27-.13c0-.12.21-.31.62-.58,7.86-5.33,12.99-12.3,15.4-20.93.09-.42.13-.77.13-1.07,0-.36-.11-.68-.31-.96-.21-.28-.48-.51-.8-.69-2.32.27-4.48.74-6.47,1.43-1.31.41-2.29.62-2.95.62-.57,0-1.18-.2-1.85-.6-.67-.4-1.24-.89-1.7-1.45-.46-.57-.69-1.03-.69-1.38,0-.24.09-.36.27-.36.09,0,.27.05.56.16.28.11.5.19.65.25.39.15.93.27,1.63.36s1.38.13,2.03.13c.68-.03,2.03-.13,4.04-.29,2.01-.17,4.11-.36,6.29-.61,2.19-.24,3.71-.47,4.57-.71,1.16-.32,2.04-.67,2.63-1.03.15-.09.28-.16.4-.2s.3-.07.54-.07c.65,0,1.42.11,2.3.31Zm-18.32-4.55c-.62-.24-1.1-.55-1.43-.94-.39-.47-.58-.8-.58-.98s.1-.27.31-.27c.15,0,.34.03.58.09s.46.12.67.18c.3.06.65.09,1.07.09.83,0,1.43-.02,1.79-.04,1.58-.09,2.87-.26,3.88-.51,1.01-.25,2.02-.57,3.04-.96.09-.03.39-.13.89-.31.51-.18.97-.27,1.38-.27.74,0,1.49.25,2.23.76.74.51,1.12,1,1.12,1.47,0,.33-.2.59-.6.78-.4.19-.96.29-1.67.29l-1.65-.09c-1.34,0-3.56.25-6.65.76-1.31.21-2.08.31-2.32.31-.75,0-1.43-.12-2.05-.36Zm19.46-2.27c1.13.3,2.19.78,3.19,1.45s1.5,1.55,1.5,2.66c0,.51-.15.89-.45,1.14-.3.25-.66.38-1.07.38-.86,0-1.44-.39-1.74-1.16-.33-.83-.74-1.55-1.23-2.17-.49-.61-1.14-1.14-1.94-1.59-.09-.06-.25-.14-.47-.24-.22-.1-.39-.21-.49-.31-.11-.1-.16-.2-.16-.29,0-.21.19-.31.58-.31s1.14.15,2.28.45Zm4.4-3.04c1.09.33,2.05.81,2.9,1.45.85.64,1.27,1.41,1.27,2.3,0,.51-.15.88-.45,1.12s-.61.36-.94.36c-.62,0-1.16-.39-1.61-1.16s-.89-1.4-1.32-1.88c-.43-.47-1.02-.95-1.76-1.43-.21-.15-.42-.27-.62-.36s-.38-.18-.51-.29c-.13-.11-.2-.2-.2-.29,0-.21.21-.31.62-.31.65,0,1.53.17,2.61.49Z"/>
        <path class="cls-10" d="m1846.24,833.01c0-.15.16-.39.49-.71,2.71-2.5,5.08-5.51,7.12-9.04s3.41-6.82,4.13-9.89c.15-.54.22-1,.22-1.38,0-.8-.42-1.46-1.25-1.96-.57-.36-.85-.66-.85-.89s.24-.36.71-.36c.92,0,1.88.27,2.86.8.56.3,1.11.74,1.63,1.34.52.59.78,1.11.78,1.56,0,.24-.16.66-.49,1.25-.3.48-.55,1.04-.76,1.7-.6,1.82-1.67,3.91-3.24,6.27-1.56,2.37-3.3,4.58-5.22,6.65-1.92,2.07-3.7,3.61-5.33,4.62-.24.15-.43.22-.58.22s-.22-.06-.22-.18Zm20.84-5.98c-.77-.68-1.16-1.34-1.16-1.96,0-.21.06-.41.18-.62.21-.36.31-1.16.31-2.41l-.04-3.35c0-.83.02-1.47.04-1.92l.13-2.86c.09-1.04.13-1.92.13-2.63,0-1.1-.15-1.82-.45-2.14-.27-.3-.54-.53-.8-.69-.27-.16-.56-.32-.87-.47s-.47-.28-.47-.4c0-.21.15-.37.45-.49.3-.12.71-.18,1.25-.18.68,0,1.38.15,2.1.47s1.3.71,1.76,1.18.69.95.69,1.43c0,.21-.1.46-.31.76s-.34.59-.4.89c-.15.86-.31,2.65-.47,5.35-.16,2.71-.26,4.63-.29,5.76,0,.42.19.62.58.62.68,0,1.93-.5,3.75-1.5,1.81-1,3.91-2.34,6.29-4.04,2.38-1.69,4.7-3.53,6.96-5.49.42-.38.71-.58.89-.58.15,0,.22.08.22.22,0,.24-.21.58-.62,1.03-1.16,1.37-2.82,3.04-4.98,5s-4.4,3.83-6.74,5.6c-2.34,1.77-4.37,3.09-6.09,3.95-.24.12-.48.18-.71.18-.42,0-.86-.24-1.34-.71Z"/>
        <path class="cls-10" d="m1889.8,828.14c0-.24.22-.49.67-.76,2.56-1.52,4.88-3.21,6.96-5.09,2.08-1.87,3.73-3.62,4.93-5.24,1.2-1.62,1.81-2.83,1.81-3.64,0-.48-.33-.88-.98-1.2-.15-.06-.3-.12-.45-.18s-.28-.13-.4-.22c-.12-.09-.18-.18-.18-.27,0-.21.21-.34.62-.4.42-.06.94-.09,1.56-.09,1.31,0,2.35.3,3.13.89.95.71,1.43,1.49,1.43,2.32,0,.39-.13.76-.4,1.11-1.87,2.29-4.45,4.62-7.72,6.98-3.27,2.37-6.62,4.29-10.04,5.78-.3.12-.51.18-.62.18-.21,0-.31-.06-.31-.18Zm36.15-2.88c-.24-.28-.49-.78-.76-1.5-.8-2.08-1.97-4.2-3.5-6.36s-3.52-4.17-5.96-6.05c-.27-.21-.4-.39-.4-.54s.09-.22.27-.22c.15,0,.31.04.49.13,1.55.66,3.35,1.73,5.42,3.24,2.07,1.5,3.83,3.06,5.29,4.69s2.19,2.97,2.19,4.04c0,.89-.22,1.61-.67,2.16-.45.55-.94.83-1.47.83-.36,0-.65-.14-.89-.42Z"/>
        <path class="cls-10" d="m1970.41,808.77c0,.27-.05.46-.16.58-.11.12-.28.24-.51.36-.33.12-.58.31-.76.58-.24.33-.42.62-.54.87-.12.25-.31.74-.58,1.45-1.4,3.87-2.93,7.15-4.6,9.84-1.67,2.69-3.96,5.16-6.87,7.41s-6.74,4.26-11.47,6.05c-.3.12-.55.18-.76.18-.15,0-.22-.03-.22-.09,0-.09.27-.29.8-.58,5.68-2.85,10.03-6.16,13.03-9.91,3-3.75,4.97-7.05,5.89-9.91.92-2.86,1.38-4.84,1.38-5.94,0-.63-.27-.94-.8-.94-.42,0-5.83.68-16.25,2.05.21.86.39,1.83.54,2.9l.36,2.28.27,1.47c.21,1.13.31,1.82.31,2.05,0,.45-.13.87-.4,1.27-.27.4-.58.6-.94.6-.48,0-.94-.25-1.38-.76-.45-.51-.67-1.18-.67-2.01l.04-1.07c0-1.64-.15-3.31-.45-5.02-.3-1.71-.67-2.83-1.12-3.37-.24-.32-.57-.63-1-.91s-.83-.47-1.18-.56c-.18-.06-.33-.11-.45-.16s-.18-.11-.18-.2c0-.24.11-.39.33-.45.22-.06.51-.09.87-.09.51,0,1.27.15,2.3.45,1.03.3,1.63.57,1.81.8.12.15.25.4.4.76,1.76-.12,4.06-.36,6.92-.71l.04-1.69c0-.95-.04-1.8-.13-2.55-.09-.77-.21-1.3-.36-1.58-.15-.28-.4-.56-.76-.83-.18-.12-.33-.22-.47-.29-.13-.07-.25-.15-.33-.22-.09-.08-.13-.17-.13-.29,0-.21.14-.4.42-.56s.62-.25,1-.25,1,.13,1.85.38c.85.25,1.45.54,1.81.87.48.45.71.8.71,1.07,0,.21-.07.43-.22.67-.15.24-.24.39-.27.45-.27.45-.4,1.41-.4,2.9,0,.77.01,1.29.04,1.56,4.11-.5,6.37-.8,6.78-.89.36-.09.8-.34,1.34-.76.03-.03.14-.11.33-.25.19-.13.36-.2.51-.2.27,0,.88.31,1.83.94.95.62,1.59,1.09,1.92,1.38.33.33.49.61.49.85Z"/>
        <path class="cls-10" d="m2008.31,821.56c1.87,1.12,3.47,2.33,4.8,3.64s1.99,2.56,1.99,3.75c0,.54-.16,1.01-.49,1.43-.33.42-.7.62-1.12.62s-.85-.18-1.29-.56c-.45-.37-.85-.9-1.2-1.59-1.1-2.08-2.39-3.94-3.86-5.58-1.47-1.64-3.03-2.95-4.66-3.93-2.59,3.01-5.46,5.73-8.61,8.19-3.15,2.46-6.53,4.43-10.13,5.91-.15.06-.27.09-.36.09-.18,0-.27-.07-.27-.22,0-.12.15-.27.45-.45,3.27-1.73,6.48-4.1,9.62-7.14,3.14-3.03,5.82-6.08,8.03-9.15,2.22-3.06,3.67-5.49,4.35-7.28l.09-.36c0-.18-.15-.27-.45-.27-.6,0-2.29.37-5.09,1.11-2.8.75-4.66,1.33-5.58,1.74-.12.06-.31.16-.58.31-.27.15-.55.22-.85.22-.74,0-1.43-.25-2.05-.74s-1.11-1.06-1.47-1.72c-.36-.66-.54-1.18-.54-1.56s.11-.58.31-.58c.09,0,.28.1.56.29.28.2.6.35.96.47.47.18,1.03.27,1.65.27s2.59-.26,5.89-.78c3.3-.52,5.4-.91,6.29-1.18.45-.12.91-.31,1.38-.58.59-.27.97-.4,1.11-.4.3,0,.75.18,1.36.56s1.15.8,1.61,1.29.69.92.69,1.27c0,.21-.09.4-.27.56-.18.17-.48.41-.89.74-.62.42-1.01.76-1.16,1.03-1.61,2.65-3.47,5.25-5.58,7.81,1.7.71,3.48,1.63,5.36,2.74Z"/>
        <path class="cls-10" d="m2059.23,808.64c.83.36,1.25.83,1.25,1.43,0,.39-.14.66-.42.8s-.74.22-1.36.22l-1.65-.04c-.95-.06-1.71-.09-2.28-.09-1.55,0-2.98.06-4.28.18v1.07c0,2.85.25,6.5.76,10.93.03.27.11,1.09.25,2.45.13,1.37.2,2.53.2,3.48,0,1.13-.19,2.3-.56,3.5-.37,1.2-.94,1.81-1.72,1.81-.33,0-.6-.15-.8-.45-.09-.15-.22-.54-.4-1.16-.21-.74-.41-1.34-.6-1.78s-.53-.91-1-1.38c-.57-.54-1.09-.99-1.58-1.38-.49-.39-.81-.64-.96-.76-.27-.24-.4-.4-.4-.49,0-.06.06-.09.18-.09.18,0,.39.06.62.18,1.01.42,1.96.62,2.86.62.56,0,.94-.15,1.14-.45.19-.3.29-.79.29-1.47l-.54-10.71c-2.08,2.86-4.82,5.78-8.21,8.77-3.39,2.99-6.99,5.35-10.8,7.07-.21.09-.4.13-.58.13-.12,0-.21-.03-.27-.09-.06-.06-.09-.12-.09-.18,0-.18.18-.37.54-.58,2.08-1.19,4.34-2.83,6.76-4.91,2.42-2.08,4.65-4.35,6.67-6.79,2.02-2.44,3.5-4.76,4.42-6.96-3.48.48-6.41,1.09-8.79,1.83-.66.21-1.33.31-2.01.31-.95,0-1.73-.19-2.34-.58-.61-.39-1.21-.95-1.81-1.69-.3-.42-.45-.68-.45-.8,0-.15.1-.22.31-.22s.56.08,1.07.22c.77.21,1.72.31,2.86.31.47,0,2.03-.14,4.66-.43s5.26-.59,7.88-.91v-1.47c0-2.47-.4-4.2-1.21-5.18-.42-.51-.92-.89-1.52-1.16-.3-.15-.51-.27-.62-.38s-.18-.22-.18-.34c0-.18.19-.33.58-.47.39-.13.85-.2,1.38-.2,1.43,0,2.48.27,3.17.8.83.62,1.25,1.19,1.25,1.7,0,.15-.06.37-.18.67-.15.36-.25.66-.29.89-.04.24-.07.66-.07,1.25s.01,1.17.04,1.65l.04,1.92c.3-.06.77-.12,1.43-.18,1.04-.18,1.65-.28,1.83-.31.59-.12,1.11-.25,1.56-.4.18-.03.42-.08.74-.15.31-.08.6-.11.87-.11.74,0,1.53.18,2.37.54Z"/>
        <path class="cls-10" d="m2074.41,820.24c-.54-.3-1.02-.7-1.45-1.2-.43-.5-.65-1.06-.65-1.65,0-.33.07-.66.2-.98.13-.32.27-.49.42-.49.06,0,.19.08.4.22.3.24.61.42.94.54,1.19.39,2.53.58,4.02.58,1.28-.03,3.23-.08,5.85-.16,2.62-.07,4.85-.14,6.69-.2,3.96-.15,7.25-.3,9.86-.45,1.52-.09,2.71-.13,3.57-.13,1.16,0,2.07.11,2.72.31s.98.67.98,1.38-.61,1.13-1.83,1.25c-.6.06-1.41.09-2.46.09l-12.94.31c-2.29.06-4.78.17-7.48.31-2.69.15-4.44.31-5.24.49-.74.15-1.34.22-1.78.22-.77,0-1.38-.15-1.83-.45Z"/>
        <path class="cls-10" d="m2119.8,834.57c0-.21.3-.46.89-.76,5.12-2.47,9.48-5.54,13.08-9.19,3.6-3.66,6.33-7.13,8.19-10.4,1.86-3.27,2.82-5.49,2.88-6.65,0-.27-.15-.4-.45-.4-.33,0-1.58.13-3.77.4-2.19.27-4.56.62-7.12,1.07s-4.79.94-6.69,1.47c-.68.18-1.28.27-1.79.27-1.01,0-1.82-.25-2.41-.76-.42-.36-.8-.87-1.14-1.54-.34-.67-.51-1.2-.51-1.59,0-.3.15-.45.45-.45.24,0,.6.1,1.07.31.98.39,1.95.58,2.9.58.68,0,3.33-.18,7.94-.54,4.61-.36,7.33-.65,8.17-.89.42-.12.95-.31,1.61-.58,1.01-.45,1.71-.67,2.1-.67.36,0,.88.22,1.56.67.68.45,1.3.96,1.85,1.54.55.58.83,1.08.83,1.5,0,.33-.1.64-.29.94-.19.3-.48.64-.87,1.03-.06.09-.28.35-.65.78-.37.43-.71.92-1,1.45-2.02,3.87-4.3,7.17-6.83,9.91s-5.3,5.06-8.3,6.96c-3,1.9-6.55,3.75-10.62,5.54-.36.15-.61.22-.76.22-.21,0-.31-.07-.31-.22Zm29.19-30.06c-.83-.82-1.25-1.82-1.25-3.01s.42-2.2,1.25-3.01,1.84-1.23,3.04-1.23,2.19.42,3.01,1.25c.82.83,1.23,1.83,1.23,2.99s-.42,2.19-1.25,3.01c-.83.82-1.83,1.23-2.99,1.23s-2.2-.41-3.04-1.23Zm5.22-.85c.59-.61.89-1.33.89-2.17s-.31-1.6-.91-2.21c-.61-.61-1.33-.92-2.17-.92s-1.6.31-2.21.92c-.61.61-.91,1.35-.91,2.21s.3,1.59.91,2.19c.61.59,1.35.89,2.21.89s1.59-.31,2.19-.91Z"/>
        <path class="cls-10" d="m2172.25,809.53c-.68-1.04-1.58-1.9-2.68-2.59-1.1-.69-2.28-1.21-3.53-1.56-.24-.06-.43-.12-.58-.18-.15-.06-.22-.13-.22-.22,0-.27.68-.4,2.05-.4,1.25,0,2.55.16,3.91.47,1.35.31,2.48.81,3.37,1.49,1.13.89,1.7,1.87,1.7,2.95,0,.54-.14.97-.42,1.32s-.68.51-1.18.51c-.83,0-1.64-.59-2.41-1.78Zm-6.29,17.27c0-.39.05-.71.16-.96.1-.25.2-.38.29-.38s.22.16.4.49c.18.33.42.64.71.94.3.3.57.53.83.69.25.17.62.25,1.09.25,1.07,0,3.02-.86,5.85-2.59s6.12-4.16,9.89-7.3c3.76-3.14,7.54-6.73,11.32-10.78.27-.32.51-.49.71-.49.12,0,.18.06.18.18,0,.18-.15.49-.45.94-2.02,2.83-4.43,5.7-7.23,8.61s-5.5,5.51-8.1,7.79c-2.6,2.28-4.66,3.95-6.18,5.02-.36.27-.66.46-.89.58-.27.18-.54.37-.8.58-.27.21-.57.49-.89.85-.62.71-1.34,1.07-2.14,1.07-.98,0-1.93-.41-2.83-1.23-.91-.82-1.48-1.78-1.72-2.88-.12-.47-.18-.94-.18-1.38Z"/>
      </g>
      <line class="cls-3" x1="4428.07" y1="718" x2="4385.28" y2="908.76"/>
      <line class="cls-3" x1="3613.35" y1="718" x2="3656.14" y2="908.76"/>
      <g>
        <path class="cls-10" d="m3615.58,527.51h-9.93v-108.54h55.59v108.54h-5.96c2.2,3.54,3.74,6.4,4.63,8.6,6.17-9.27,9.27-21.84,9.27-37.72v-79.42h82.73v21.84h-60.23v16.55h54.27c.88,28.69-3.54,52.07-13.24,70.16,7.94,7.94,15.88,14.13,23.83,18.53l-9.93,23.17c-7.94-3.54-16.77-10.82-26.47-21.84-1.77,3.09-5.08,7.05-9.93,11.91-4.86,4.85-9.49,8.38-13.9,10.59l-15.22-19.19c-2.65,7.94-6.18,14.12-10.59,18.53l-11.91-15.88-11.25,5.29c-.45-2.21-1.77-5.96-3.97-11.25-3.09-7.5-5.29-11.91-6.62-13.24l12.57-6.62h-31.1l17.21,8.6c-.89,3.97-2.87,9.27-5.96,15.89-3.97,8.38-7.51,13.9-10.59,16.55l-19.19-13.24c3.52-3.09,6.84-7.5,9.93-13.24,3.08-5.73,5.07-10.59,5.96-14.56Zm12.57-77.44h9.93v-9.27h-9.93v9.27Zm0,28.46h9.93v-10.59h-9.93v10.59Zm0,27.8h9.93v-9.27h-9.93v9.27Zm77.44,21.18c-6.19-7.5-11.03-17.64-14.56-30.44-.89,22.95-3.97,40.15-9.26,51.62,10.59-4.85,18.53-11.91,23.83-21.18Zm15.88-48.32h-14.56c1.76,11.48,5.07,20.08,9.93,25.81,3.08-8.38,4.63-16.98,4.63-25.81Z"/>
        <path class="cls-10" d="m3828.05,423.6h63.54v-9.93h24.49v9.93h63.54v20.52h-63.54v5.96h49.64v19.86h-123.77v-19.86h49.64v-5.96h-63.54v-20.52Zm44.34,78.1h23.83c0,19.42-3.54,33.75-10.59,43.02-4.42,6.18-10.16,11.25-17.21,15.22-7.94,4.41-16.33,7.71-25.15,9.93l-13.9-22.5c18.97-3.97,31.1-10.36,36.4-19.19,4.41-4.85,6.62-13.67,6.62-26.47Zm-41.7,15.22v-41.03h146.93v41.03h-23.17v-19.86h-100.6v19.86h-23.17Zm107.22,25.81h13.9c2.2.45,3.74-6.17,4.63-19.86l23.83,6.62c0,11.48-1.77,20.74-5.29,27.8-2.21,5.73-7.28,8.6-15.22,8.6h-35.08c-11.03,0-16.55-5.29-16.55-15.88v-48.32h23.83v35.08c-.44,4.42,1.54,6.4,5.96,5.96Z"/>
        <path class="cls-10" d="m4059.73,567.88v-150.9h68.83v57.58h-45.01v93.32h-23.83Zm23.83-128.4h23.17v-5.29h-23.17v5.29Zm0,18.53h23.17v-5.96h-23.17v5.96Zm19.85,71.48h-15.88v-19.19h17.87v-11.25h-14.56v-19.19h82.73v19.19h-14.56v11.25h17.21v19.19h-17.21v34.42h-21.84v-34.42h-9.93c-1.32,7.51-3.31,13.9-5.96,19.19-3.97,7.05-10.37,13.45-19.19,19.19l-15.88-18.53c11.02-6.62,16.76-13.24,17.21-19.86Zm25.15-19.19h8.6v-11.25h-8.6v11.25Zm42.36,56.92l-7.94-21.84h12.58c3.08,0,4.63-2.86,4.63-8.6v-62.21h-44.34v-57.58h68.17v128.4c0,7.05-.89,12.13-2.65,15.22-2.21,4.41-6.18,6.62-11.91,6.62h-18.53Zm-13.9-127.74h23.16v-5.29h-23.16v5.29Zm0,18.53h23.16v-5.96h-23.16v5.96Z"/>
        <path class="cls-10" d="m4395.97,442.13l19.19-9.93c7.05,11.91,14.56,26.7,22.5,44.34l-19.86,9.93-3.31-7.94-67.51,5.96c-.45,4.86-1.77,11.25-3.97,19.19-2.21,7.51-4.42,13.02-6.62,16.55l11.25,9.93-11.91,19.19-9.93-9.27c-6.62,11.91-15.22,21.4-25.81,28.46l-16.55-19.86c11.47-6.62,19.63-14.56,24.49-23.83l-6.62-5.96-3.31,5.96-19.19-11.91c4.85-7.94,9.26-16.76,13.24-26.47,3.53-8.82,5.96-16.76,7.28-23.83h-16.55v-20.52h20.52c1.76-8.38,2.87-17.87,3.31-28.46l21.84,1.98c0,2.21-.45,6.4-1.33,12.58-.89,7.51-1.55,12.14-1.99,13.9h25.15l-1.33,20.52h8.61c3.97-10.15,9.04-26.69,15.22-49.64l23.17,2.65c-4.86,17.21-9.93,32.21-15.22,45.01l23.83-2.65c-.89-3.53-3.75-8.82-8.6-15.88Zm-68.17,20.52h-6.62c-2.65,13.68-6.4,25.59-11.25,35.74l9.26,6.62c2.2-3.53,4.19-9.93,5.96-19.19,1.76-9.27,2.65-16.98,2.65-23.16Zm25.15,29.12h73.47v75.45h-23.17v-5.96h-26.47v5.96h-23.83v-75.45Zm23.83,48.31h26.47v-27.13h-26.47v27.13Z"/>
      </g>
      <g>
        <path class="cls-10" d="m3642.05,238.77c11.91-9.27,20.07-17.87,24.49-25.81l24.49,3.31-1.32,3.97c5.29,5.74,14.33,12.8,27.13,21.18,12.35,7.94,25.15,13.68,38.39,17.21l-9.93,22.5c-6.19-1.32-11.25-3.31-15.22-5.96v11.25h-41.7v14.56h39.05v21.18h-39.05v16.55h62.21v21.84h-146.93v-21.84h61.55v-16.55h-38.39v-21.18h38.39v-14.56h-41.69v-10.59c-3.97,2.65-8.61,4.63-13.9,5.96l-10.59-22.5c16.76-4.41,31.11-11.25,43.02-20.52Zm1.32,25.15h66.18c-8.83-3.97-19.64-12.58-32.43-25.81-11.03,12.36-22.29,20.96-33.75,25.81Z"/>
        <path class="cls-10" d="m3829.38,264.58v-21.18h17.87v-31.11h23.83v31.11h8.61v-17.87h37.72v-13.24h24.49v13.24h36.4v19.19h-36.4v7.28h31.11v60.23h-17.87c5.29,9.27,14.56,18.76,27.8,28.46l-13.9,22.5c-10.59-7.94-19.64-18.09-27.13-30.44v32.43h-24.49v-35.08c-1.77,4.86-5.52,10.59-11.25,17.21-5.74,7.05-11.7,12.13-17.87,15.22l-13.24-21.18c14.12-8.38,23.83-18.09,29.12-29.12h-18.53v-17.87l-7.28,17.21-7.28-10.59v64.86h-23.83v-50.96c-2.21,5.74-5.52,10.82-9.93,15.22l-12.58-23.83c3.97-3.97,8.16-10.36,12.58-19.19,5.29-10.14,8.6-17.64,9.93-22.5h-17.87Zm56.26,19.86v-32.43h31.77v-7.28h-36.4v19.86h-9.26c4.4,7.51,9.04,14.13,13.9,19.86Zm23.83-9.27h7.94v-6.62h-7.94v6.62Zm0,20.52h7.94v-6.62h-7.94v6.62Zm32.43-20.52h7.94v-6.62h-7.94v6.62Zm0,20.52h7.94v-6.62h-7.94v6.62Z"/>
        <path class="cls-10" d="m4164.96,343.34h15.88c2.2,0,3.74-2.86,4.63-8.6l1.99-15.88,22.5,10.59c-1.33,14.13-3.09,22.94-5.29,26.48-3.54,5.73-9.49,8.6-17.87,8.6h-33.09c-13.24,0-19.85-6.4-19.85-19.19v-39.71h-9.93c-.89,17.65-5.74,31.55-14.56,41.7-7.94,8.82-20.74,16.1-38.39,21.84l-15.22-23.17c17.64-3.53,29.78-9.48,36.4-17.87,5.29-6.62,7.94-14.12,7.94-22.5h-43.68v-21.18h151.56v21.18h-50.3v31.11c0,3.09.43,5.08,1.32,5.96.88.45,2.87.66,5.96.66Zm-106.56-118.47h61.55v-12.57h24.49v12.57h60.89v50.3h-23.17v-29.12h-100.6v29.12h-23.17v-50.3Zm26.47,29.12h93.98v20.52h-93.98v-20.52Z"/>
        <path class="cls-10" d="m4408.54,210.97c8.82,8.83,14.12,14.79,15.88,17.87l-11.91,7.28h21.18v20.52h-47.65c.88,17.65,2.65,30.67,5.29,39.05,5.29-7.05,9.48-18.09,12.58-33.09l21.84,8.6c-6.18,22.95-14.79,41.26-25.81,54.93.43,2.65,1.76,5.08,3.97,7.28,2.2,2.65,3.97,3.75,5.29,3.31,3.08.44,7.05-5.96,11.91-19.19l15.22,20.52c-3.09,7.51-6.4,13.67-9.93,18.53-4.86,6.17-9.93,9.48-15.22,9.93-10.16,2.2-19.64-4.63-28.46-20.52-2.21,3.09-6.62,7.28-13.24,12.58-5.74,4.85-10.59,7.94-14.56,9.27l-17.21-19.19c5.29-1.76,11.91-5.73,19.86-11.91,7.94-6.17,13.01-11.25,15.22-15.22-4.86-18.09-8.38-39.71-10.59-64.86h-44.34v13.24h41.69l-1.98,35.08-1.99,19.19c-1.33,12.36-7.06,18.53-17.21,18.53h-17.21l-4.63-21.18h11.25c3.53,0,5.51-2.86,5.96-8.6l1.32-21.84h-17.21l-1.33,19.19c-1.77,23.83-7.94,42.36-18.53,55.59l-17.87-19.86c9.7-12.79,14.56-30.22,14.56-52.29v-57.58h66.85l-.66-23.17h23.17l.66,23.17h19.19c-2.65-5.73-6.85-10.81-12.58-15.22l17.21-9.93Z"/>
      </g>
    </g>
  </g>
</svg>