<?xml version="1.0" encoding="UTF-8"?>
<svg id="_レイヤー_2" data-name="レイヤー 2" xmlns="http://www.w3.org/2000/svg" viewBox="0 0 133.58 91.27">
  <defs>
    <style>
      .cls-1 {
        fill: #231815;
      }
    </style>
  </defs>
  <g id="_レイヤー_1-2" data-name="レイヤー 1">
    <g>
      <path class="cls-1" d="m90.1,34.55v-1.04l-.07-2.87h-.22c-.86.33-1.73.6-2.63.8-.9.21-1.85.26-2.85.16v-.4c.96-.21,1.89-.47,2.82-.75.92-.29,1.89-.49,2.89-.61l.07-.54v-3.66l.1-.07v-5.49h2.12l.07.4v4.23l-.07.07v3.81l-.07.07v5.88h-2.15Zm-3.95-5.31v-.1l-.07-.07v-6.9l.07-.32h2.15v1.43l-.1.07v5.17l.1.47-.1.25h-2.05Zm17.05,6.72v-.94c.1-1.05.18-2.13.23-3.21s.11-2.18.16-3.29l-.07-2h-.32c-1.58.16-3.16.39-4.72.68-1.57.29-3.19.41-4.87.36v-.4c1.63-.21,3.25-.44,4.87-.68,1.61-.24,3.27-.41,4.97-.51v-1.19h2.12l.1,1.11h2.6v.4l-2.52.07v5.07l-.4,4.52h-2.15Zm-8.18-11.89v-.07c-.2-.64-.34-1.29-.42-1.95-.08-.66-.12-1.36-.12-2.1l2.22-.07c-.05.74,0,1.45.12,2.14.13.68.25,1.37.35,2.06h-2.15Zm1.61-5.78v-.32l.07-.17.72-.62,1.19-1.04,1.33-.96.1-.22.94-.72v-.17h2.15v.4l-.47.57-1.21,1.04-1.98,1.51-.07.22c-.79.48-1.71.64-2.77.49Zm1.19,14.83c-.64-1.05-.96-2.25-.96-3.58l2.22-.07c.05,1.32.34,2.54.87,3.66h-2.13Zm6.03-9.22v-.79l.39-1.58h-.25c-.58.38-1.25.57-2.01.57h-2.26l-.57-.49-.15-1.66.15-.96h2.15v.82l-.07,1.09.15.32.32.1c.84-.28,1.74-.36,2.69-.25l.79-2.87h2.15v.64c-.31.79-.58,1.62-.79,2.5-.21.87-.4,1.73-.57,2.57h-2.12Z"/>
      <path class="cls-1" d="m120.33,35.17v-.4c.1-.63.16-1.29.18-1.98.03-.69.06-1.38.11-2.05v-4.94h-.3c-1.6.21-3.16.52-4.7.91-1.53.4-3.11.59-4.75.59v-.4c1.58-.41,3.19-.77,4.83-1.06,1.64-.3,3.27-.54,4.91-.74v-1.04h-.22c-.69.48-1.45.75-2.26.83-.82.07-1.68.09-2.58.04l-.4-.15c-.53-1-.72-2.14-.57-3.41l.17-.89h2.22v.4c-.17.74-.22,1.54-.17,2.4l.32.79h.32c.91-.69,1.96-.98,3.16-.86v-2.62l-.07-2h-.32c-1.05.17-2.08.35-3.09.57-1,.21-2.08.26-3.24.15v-.4c1.05-.21,2.14-.4,3.25-.56,1.11-.16,2.22-.28,3.32-.38v-.96l-.15-2.3h2.12c.12.96.2,1.94.25,2.94h.79c.79-.11,1.6-.21,2.42-.28s1.66-.09,2.5-.04v.4l-5.71.57v.47l.15,2.05v4.05h.17l1.26-.15,1.26-5.41h2.22v.4l-1.11,4.77h.57c1.05-.1,2.1-.18,3.13-.23,1.03-.06,2.1-.09,3.23-.09v.4l-7.14.57-.25.62h-2.15v-.4h-.22l-.96.17v4.42l-.32,5.24h-2.2Zm-7.54-2.13c-.17-.21-.22-.48-.17-.79.21-.64.48-1.28.8-1.92s.69-1.24,1.1-1.82l2.3-.1v.4l-.3.17-1.43,3.02h1.98v.47c-.64.31-1.33.49-2.06.52-.73.03-1.47.05-2.21.05Zm17.84,1.41c-.79-.31-1.56-.68-2.3-1.1-.74-.42-1.46-.89-2.15-1.42l-.07-.25-.72-.4-.47-.47v-.17l-.47-.22-.42-.4-.4-.4v-.49h2.22l1.68,1.61.72.62v.17c.74.48,1.48.94,2.21,1.38.73.44,1.53.8,2.39,1.06v.47h-2.22Z"/>
    </g>
    <g>
      <path class="cls-1" d="m18.31,87.59c-.19.76-.33,1.35-.43,1.78-.1.43-.19.74-.28.93-.57,1.14-1.04,1.28-1.42.43-.19-.38-.29-.9-.29-1.57-.1-1.14-.07-2.89.07-5.27.14-2.37.4-5.22.78-8.54.19-2.66.45-5.57.78-8.75.33-3.18.69-6.43,1.07-9.75-3.04.95-6.05,1.95-9.04,2.99-2.99,1.05-5.91,2.09-8.75,3.13-.29.1-.52-.05-.71-.43-.19-.38-.09-.66.28-.85,3.04-1.04,6.07-2.09,9.11-3.13,3.04-1.04,6.12-2.09,9.25-3.13-.19-1.42-.41-2.89-.64-4.41-.24-1.52-.55-3.08-.92-4.7-.48-2.18-.97-4.36-1.49-6.55-.52-2.18-1.07-4.22-1.64-6.12-1.33-3.89-2.66-7.02-3.99-9.39-.1-.19-.07-.38.07-.57.14-.19.31-.24.5-.14,1.9.1,3.82.14,5.76.14s3.91-.09,5.91-.28l.85-8.25c.47-4.17.85-7.49,1.14-9.96.29-2.47.43-3.75.43-3.84,0-.38.14-.57.43-.57.28-.09.52.05.71.43,0,.19-.14,1.54-.43,4.06-.28,2.51-.67,5.86-1.14,10.03l-.85,7.97c5.22-.38,10.18-1.23,14.87-2.56,4.7-1.33,9.23-3.01,13.59-5.05,4.36-2.04,8.66-4.36,12.88-6.97,4.22-2.61,8.47-5.38,12.74-8.33.47-.38.92-.45,1.35-.21.43.24.45.59.07,1.07l-5.83,8.11c-.19.28-.48.33-.85.14-.19-.38-.24-.66-.14-.85l3.42-4.55c.47-.57.69-.88.64-.92-.05-.05-.36.17-.93.64-4.18,2.75-8.28,5.31-12.31,7.69-4.03,2.37-8.14,4.46-12.31,6.26-4.18,1.8-8.49,3.3-12.95,4.48-4.46,1.19-9.25,1.97-14.37,2.35l-3.13,28.61c0,.28.02.57.07.85.05.28.07.57.07.85,1.61-.47,3.25-1,4.91-1.57,1.66-.57,3.34-1.09,5.05-1.57,5.03-1.61,10.03-3.22,15.01-4.84,4.98-1.61,9.89-3.37,14.73-5.27.57-.19,1-.16,1.28.07.28.24.33.5.14.78-.1.1-.5.38-1.21.85-.71.48-1.52,1-2.42,1.57-.9.57-1.76,1.09-2.56,1.57-.81.48-1.35.76-1.64.85-.28.28-.52.24-.71-.14-.28-.28-.24-.52.14-.71l3.13-1.99c-4.18,1.42-8.33,2.82-12.45,4.2-4.13,1.38-8.28,2.73-12.45,4.06-1.9.57-3.72,1.14-5.48,1.71-1.76.57-3.54,1.19-5.34,1.85.28,3.13.43,6.17.43,9.11,0,4.08-.29,8.16-.85,12.24-.48,3.51-1.04,6.83-1.71,9.96Zm3.84-63.05c-1.04.1-2.04.14-2.99.14h-6.97c1.23,2.28,2.42,5.17,3.56,8.68,1.61,5.22,2.85,10.39,3.7,15.51.47-4.27.93-8.47,1.35-12.59.43-4.13.88-8.04,1.35-11.74Zm-2.85,36.58l-1.57,14.37-.57,8.4c-.19,2.18-.26,3.51-.21,3.98.05.48.31-.71.78-3.56.66-3.42,1.14-6.66,1.42-9.75.28-3.08.38-6.14.28-9.18,0-.76-.02-1.47-.07-2.13-.05-.66-.07-1.37-.07-2.13Z"/>
      <path class="cls-1" d="m51.47,57.7c.19-.47.54-.66,1.07-.57.52.1.69.38.5.85-.19.38-.52,1.21-1,2.49-.48,1.28-.85,2.44-1.14,3.49-.28,1.05-.28,1.73,0,2.06.29.33.8.12,1.57-.64.85-1.04,1.59-2.09,2.21-3.13.62-1.04,1.26-2.09,1.92-3.13.19-.28.43-.38.71-.28.28.1.33.38.14.85-.38.76-.76,1.8-1.14,3.13-.38,1.33-.57,2.56-.57,3.7s.24,1.73.71,1.78c.47.05,1-.16,1.57-.64,2.18-1.71,4.03-3.37,5.55-4.98,1.52-1.61,3.18-3.27,4.98-4.98.28-.28.5-.28.64,0,.14.28.12.52-.07.71-3.42,3.61-5.98,6.17-7.69,7.69-.76.66-1.47,1.28-2.13,1.85-.67.57-1.42,1-2.28,1.28-.76.19-1.31.12-1.64-.21-.33-.33-.52-.8-.57-1.42-.05-.62-.05-1.33,0-2.13.05-.81.16-1.54.36-2.21-.28.38-.59.85-.92,1.42-.33.57-.71,1.09-1.14,1.57-.43.48-.88.85-1.35,1.14-.47.28-.95.33-1.42.14-.66-.19-1-.76-1-1.71s.14-1.97.43-3.06c.29-1.09.62-2.13,1-3.13.38-1,.62-1.64.71-1.92Z"/>
      <path class="cls-1" d="m65.56,48.31c.95.19,1.99.19,3.13,0,1.14-.19,2.37-.52,3.7-1,.38-1.61.8-3.06,1.28-4.34.47-1.28,1.04-2.21,1.71-2.78.19-.19.5-.33.92-.43.43-.09.78-.05,1.07.14.29.38.38.76.29,1.14-.19,1.8-.52,3.46-1,4.98,1.04-.28,1.99-.52,2.85-.71.85-.19,1.8-.33,2.85-.43.28,0,.45.12.5.36.05.24-.02.4-.21.5-.19.19-.66.48-1.42.85-.76.38-1.14.33-1.14-.14,0-.19.05-.28.14-.28-.76.19-1.45.36-2.06.5-.62.14-1.26.31-1.92.5v.14c-.85,2.28-2.04,4.6-3.56,6.97-.38,2.75-.74,5.65-1.07,8.68-.33,3.04-.4,5.98-.21,8.82.09.38-.07.57-.5.57s-.64-.19-.64-.57c-.19-2.47-.19-5,0-7.61.19-2.61.43-5.15.71-7.61l-1.85,2.13c-.29.19-.52.14-.71-.14-.19-.28-.14-.57.14-.85.66-.66,1.16-1.21,1.49-1.64.33-.43.73-.92,1.21-1.49.09-1.99.38-3.98.85-5.98-1.23.48-2.42.81-3.56,1-1.14.19-2.18.19-3.13,0-.47-.09-.66-.36-.57-.78.1-.43.33-.59.71-.5Zm8.11-.28l-.57,3.56c.38-.66.71-1.3,1-1.92.28-.62.57-1.26.85-1.92l-1.28.28Zm1.71-1.57c.66-1.9,1.04-3.65,1.14-5.27.09-.09.14-.16.14-.21s-.05-.02-.14.07c-.67.57-1.21,1.49-1.64,2.78-.43,1.28-.74,2.3-.92,3.06l1.42-.43Z"/>
      <path class="cls-1" d="m77.08,57.7c.19-.47.54-.66,1.07-.57.52.1.69.38.5.85-.19.38-.52,1.21-1,2.49-.48,1.28-.85,2.44-1.14,3.49-.28,1.05-.28,1.73,0,2.06.29.33.8.12,1.57-.64.85-1.04,1.59-2.09,2.21-3.13.62-1.04,1.26-2.09,1.92-3.13.19-.28.43-.38.71-.28.28.1.33.38.14.85-.38.76-.76,1.8-1.14,3.13-.38,1.33-.57,2.56-.57,3.7s.24,1.73.71,1.78c.47.05,1-.16,1.57-.64,2.18-1.71,4.03-3.37,5.55-4.98,1.52-1.61,3.18-3.27,4.98-4.98.28-.28.5-.28.64,0,.14.28.12.52-.07.71-3.42,3.61-5.98,6.17-7.69,7.69-.76.66-1.47,1.28-2.13,1.85-.67.57-1.42,1-2.28,1.28-.76.19-1.31.12-1.64-.21-.33-.33-.52-.8-.57-1.42-.05-.62-.05-1.33,0-2.13.05-.81.16-1.54.36-2.21-.28.38-.59.85-.92,1.42-.33.57-.71,1.09-1.14,1.57-.43.48-.88.85-1.35,1.14-.47.28-.95.33-1.42.14-.66-.19-1-.76-1-1.71s.14-1.97.43-3.06c.29-1.09.62-2.13,1-3.13.38-1,.62-1.64.71-1.92Z"/>
      <path class="cls-1" d="m95.58,57.85c.47-.09.95-.24,1.42-.43.47-.19.95-.38,1.42-.57.76-.38,1.42-.69,1.99-.92.57-.24,1.09-.26,1.57-.07,1.04.28,1.19,1.52.43,3.7-.76,2.47-1.42,4.53-1.99,6.19-.57,1.66-.85,3.2-.85,4.63,0,.38.12.52.36.43.24-.09.5-.28.78-.57.28-.28.57-.59.85-.93.29-.33.47-.59.57-.78.76-1.04,1.8-2.49,3.13-4.34,1.33-1.85,2.75-4.01,4.27-6.48.19-.28.45-.33.78-.14.33.19.4.48.21.85-1.52,2.18-2.97,4.29-4.34,6.33-1.38,2.04-2.44,3.58-3.2,4.63l-1.42,1.71c-.76.85-1.49,1.23-2.21,1.14-.71-.09-1.07-.76-1.07-1.99,0-1.9.31-3.77.92-5.62.62-1.85,1.21-3.63,1.78-5.34.29-.85.29-1.37,0-1.57-.28-.19-.69-.21-1.21-.07-.52.14-1.09.36-1.71.64-.62.28-1.16.48-1.64.57-.29.1-.62.17-1,.21-.38.05-.71.02-1-.07-.95-.28-1.33-.88-1.14-1.78.19-.9.48-1.68.85-2.35.47-.76,1.04-1.59,1.71-2.49.66-.9,1.37-1.64,2.13-2.21.85-.66,1.52-.71,1.99-.14.47.57.52,1.23.14,1.99-.29.66-.78,1.49-1.49,2.49-.71,1-1.73,2.11-3.06,3.34Zm3.56-6.83c-.19-.19-.45-.05-.78.43-.33.48-.74,1-1.21,1.57-.48.76-.92,1.47-1.35,2.13-.43.66-.74,1.28-.92,1.85.38-.38.85-.88,1.42-1.49.57-.62,1.09-1.23,1.57-1.85.47-.62.85-1.16,1.14-1.64.28-.47.33-.8.14-1Z"/>
      <path class="cls-1" d="m119.21,53.29c.47.57.59,1.23.36,1.99-.24.76-.62,1.49-1.14,2.21-.52.71-1.12,1.35-1.78,1.92-.67.57-1.14,1-1.42,1.28-1.99,1.61-4.22,2.94-6.69,3.98,0,1.8.55,2.78,1.64,2.92,1.09.14,2.3-.02,3.63-.5,2.47-.95,4.7-2.25,6.69-3.91,1.99-1.66,3.75-3.49,5.27-5.48.19-.28.43-.31.71-.07.29.24.33.45.14.64-1.71,2.18-3.54,4.13-5.48,5.83-1.95,1.71-4.1,3.08-6.48,4.13-1.42.57-2.8.85-4.13.85s-2.37-.66-3.13-1.99c-.57-1.23-.73-2.51-.5-3.84.24-1.33.59-2.51,1.07-3.56.67-1.33,1.57-2.61,2.7-3.84,1.14-1.23,2.51-2.13,4.13-2.7.47-.19,1.21-.36,2.21-.5,1-.14,1.73.07,2.21.64Zm-10.67,10.1c1.04-.47,2.09-1,3.13-1.57,1.04-.57,1.99-1.23,2.85-1.99,1.71-1.42,2.94-2.89,3.7-4.41.19-.28.26-.66.21-1.14-.05-.47-.31-.71-.78-.71-.57,0-1.23.17-1.99.5-.76.33-1.38.69-1.85,1.07-1.52,1.14-2.66,2.4-3.42,3.77-.76,1.38-1.37,2.87-1.85,4.48Z"/>
    </g>
  </g>
</svg>